<svg version="1.2" xmlns="http://www.w3.org/2000/svg" viewBox="0 0 100 135" width="100" height="135">
	<title>flower_in_a_pot_02-svg</title>
	<style>
		.s0 { fill: #a9c77a } 
		.s1 { fill: #588d0a } 
		.s2 { fill: #62990d } 
		.s3 { fill: #456d07 } 
		.s4 { fill: #000000 } 
		.s5 { fill: #81a446 } 
		.s6 { fill: #9ab078 } 
		.s7 { fill: #477505 } 
		.s8 { fill: #558a09 } 
		.s9 { fill: #538508 } 
		.s10 { fill: #bbd397 } 
		.s11 { fill: #699230 } 
		.s12 { fill: #629608 } 
		.s13 { fill: #b9dc8a } 
		.s14 { fill: #82bc11 } 
		.s15 { fill: #72aa11 } 
		.s16 { fill: #4b7f06 } 
		.s17 { fill: #699d0e } 
		.s18 { fill: #6ba00f } 
		.s19 { fill: #bed25a } 
		.s20 { fill: #6e874c } 
		.s21 { fill: #78a434 } 
		.s22 { fill: #9e7c4c } 
		.s23 { fill: #e4ebcd } 
		.s24 { fill: #65911a } 
		.s25 { fill: #aa6b28 } 
		.s26 { fill: #2e1010 } 
		.s27 { fill: #f9a84c } 
		.s28 { fill: #7c4317 } 
		.s29 { fill: #fab76a } 
		.s30 { fill: #de9342 } 
		.s31 { fill: #6f3b14 } 
		.s32 { fill: #f9a72b } 
		.s33 { fill: #c7883c } 
		.s34 { fill: #584521 } 
		.s35 { fill: #403215 } 
		.s36 { fill: #6c562b } 
		.s37 { fill: #775e30 } 
		.s38 { fill: #d09c5d } 
		.s39 { fill: #7c6232 } 
		.s40 { fill: #463618 } 
		.s41 { fill: #de9225 } 
		.s42 { fill: #54401d } 
		.s43 { fill: #3d2e12 } 
		.s44 { fill: #654e21 } 
		.s45 { fill: #fab64f } 
		.s46 { fill: #3c2c13 } 
		.s47 { fill: #875723 } 
		.s48 { fill: #2b200c } 
		.s49 { fill: #493719 } 
		.s50 { fill: #543f1c } 
		.s51 { fill: #2f230e } 
		.s52 { fill: #392911 } 
		.s53 { fill: #291d0a } 
		.s54 { fill: #453213 } 
		.s55 { fill: #467205 } 
		.s56 { fill: #537f05 } 
		.s57 { fill: #5c8e0a } 
		.s58 { fill: #739d32 } 
		.s59 { fill: #bcd05b } 
		.s60 { fill: #ae9d55 } 
		.s61 { fill: #8cc63f } 
		.s62 { fill: #7aa637 } 
		.s63 { fill: #517c05 } 
		.s64 { fill: #e1e8c6 } 
		.s65 { fill: #6c902f } 
		.s66 { fill: #89ae46 } 
		.s67 { fill: #426f05 } 
		.s68 { fill: #3a3c33 } 
		.s69 { fill: #7eba20 } 
		.s70 { fill: #97c632 } 
		.s71 { fill: #76a432 } 
		.s72 { fill: #739b30 } 
		.s73 { fill: #84aa43 } 
		.s74 { fill: #71a128 } 
		.s75 { fill: #6d9827 } 
		.s76 { fill: #608d25 } 
		.s77 { fill: #79a536 } 
		.s78 { fill: #ae9b54 } 
		.s79 { fill: #8cbc34 } 
		.s80 { fill: #5b8c0a } 
		.s81 { fill: #639306 } 
		.s82 { fill: #d2dfa5 } 
		.s83 { fill: #638731 } 
		.s84 { fill: #85ac44 } 
		.s85 { fill: #578408 } 
		.s86 { fill: #69a10f } 
		.s87 { fill: #6c9e1f } 
	</style>
	<path id="Layer" class="s0" d="m36.8 21.4c-0.2 0.3-0.1 0.7 0 1.1-0.1-0.4-0.2-0.8 0-1.1zm0.7-1.8c-0.1 0.6-0.4 1.2-0.7 1.7 0.3-0.5 0.6-1.1 0.7-1.7z"/>
	<path id="Layer" class="s0" d="m37.7 16.7c0 0.4 0 0.9 0 1.4 0-0.5 0-1 0-1.4z"/>
	<path id="Layer" class="s0" d="m35.7 13.6q0 0.2 0.2 0.6-0.2-0.4-0.2-0.6z"/>
	<path id="Layer" class="s1" d="m34.7 12c0.3 0.5 0.9 1 1 1.5v0.1q0 0.2 0.2 0.6c1 0.6 2.1 1.2 2.8 1.4q0.2 0.1 0.3 0.1c0.8 0-1.4-1.7-4.3-3.7z"/>
	<path id="Layer" class="s0" d="m34.3 9.6c0.1 0.5 0.2 1.1 0.2 1.6 0-0.5-0.1-1.1-0.1-1.6z"/>
	<path id="Layer" class="s1" d="m34.4 9.6c0 0.5 0.1 1.1 0.1 1.6 1.3 0.6 2.8 1.4 3.4 1.4v0.1c0.7 0-1.9-1.9-3.5-3.1z"/>
	<path id="Layer" class="s2" d="m29.6 19.2c0.1-0.2 0.2-0.2 0.4-0.2l0.2 1.5c0 0-0.7-1.1-0.6-1.3z"/>
	<path id="Layer" class="s3" d="m29.5 19.2l0.1-0.1c0.1-0.1 0.2-0.1 0.4-0.2h0.1l0.2 1.6-0.1 0.1c0 0-0.7-1-0.7-1.4z"/>
	<path id="Layer" class="s4" d="m29.5 19.2l0.1-0.1c0.1-0.1 0.2-0.1 0.4-0.2l0.3 1.6-0.2 0.1h0.1c-0.1-0.1-0.7-1-0.7-1.4 0 0.2 0.2 0.6 0.3 0.8q0.2 0.3 0.2 0.4l0.1 0.1v0.1h0.1-0.1 0.1-0.1l0.2-0.1-0.2-1.6h-0.1c-0.2 0.1-0.4 0.1-0.4 0.2l-0.1 0.1z"/>
	<path id="Layer" class="s2" d="m30.7 23.4c0-0.2 0.4-0.8 0.1-1.9 0.1 0.4 0.2 0.6 0.2 0.6l0.2 1.8c0 0-0.5-0.3-0.5-0.5z"/>
	<path id="Layer" class="s5" d="m23.1 19.7c0 0 0 0.4 0.1 1.6 0.4 3.6 1.7 7.4 1.7 7.4 0.4-1.2 1-1.4 0.2-1.4-0.8-0.1 0.4-1-0.7-3.7-0.7-1.8-1.2-3.9-1.3-3.9z"/>
	<path id="Layer" class="s6" d="m22.8 10.9c0 0.3-0.1 1.8-0.2 3.8 0.1-2 0.2-3.5 0.2-3.8z"/>
	<path id="Layer" class="s7" d="m34.7 49.4q0 0.1 0.1 0.3v-0.1q-0.1-0.1-0.1-0.2zm-8.7-21.1c0 0.2-0.1 0.7-0.3 1.7-0.1 0.8-0.1 1-0.1 1 0.2 0 0.7-1.3 0.7-1.3q0.2 0.5 0.3 1 0.1 0.1 0.2 0.4c0.2 0.7 0.9 2.9 1.6 4.9q1.4 3.9 2.6 6.6c0.8 1.7 1.6 3.6 2.4 4.9q0.1 0.2 0.3 0.6 0.6 0.9 0.7 0.9-0.3-0.6-0.6-1.1c-2.7-4.5-4.6-9.8-6.3-14.8-0.7-1.8-1.1-3.3-1.5-4.8zm1.5-9.5q-0.1 0-0.3 0.5c-1.2 3.2-1.2 6.8-1.2 6.8 0 0 0.1 0.3 0 0.3-0.1 0-0.1-0.1-0.3-0.4 0.7 2.3 1.1 4.3 2.1 7 1.7 5 3.6 10.3 6.3 14.7q0.3 0.5 0.5 1v-0.1c-0.2-0.2-0.2-0.5-0.1-0.7q-0.1-0.5-0.2-1.2-0.3 0.2-0.4 0.2c-0.1 0 0.1-0.2 0.4-0.5q-0.1-0.7-0.2-1.6-0.4 0.1-0.8 0.2-0.1 0-0.2 0c-0.7 0-0.3-0.7 0.2-1.3 0.2-0.3 0.4-0.6 0.6-0.8q0-0.3 0-0.5-0.2 0.1-0.6 0.3-0.7 0.3-1 0.3c-0.6 0 0.3-1.3 1.5-2.9q0-0.6 0-1.3-0.4 0.4-0.8 0.7c-0.6 0.5-0.9 0.7-1.1 0.7-0.4 0 0.9-2 1.8-3.9 0.4-0.8 0.6-1.1 0.5-1.1-0.1 0-1.1 1.5-2.4 2.9-0.6 0.7-1 1-1.2 1-0.5 0-0.3-1 0-1.9 0.4-0.9 0.4-1.3 0.3-1.3q-0.1 0-0.3 0.5c-0.2 0.4-0.7 1.2-0.9 1.2-0.2 0-0.1-0.8 1-3.5 0.7-1.7 0.9-2.3 0.8-2.3-0.2 0-1.8 2.9-2.2 3.5q-0.1 0.3-0.2 0.3c-0.2 0 0.1-1.5 0.8-4.5 0.4-1.7 0.6-2.3 0.5-2.3-0.1 0-0.6 1.1-1.3 2.6-0.3 0.6-0.5 0.9-0.6 0.9-0.4 0 0.2-3.2 1-6.5 0.4-1.3 0.4-1.8 0.3-1.8-0.2 0-1.2 2.2-2.4 3.4q-0.1 0.1-0.2 0.1c-0.5 0-0.3-2.2-0.1-4.4 0.2-2.1 0.6-4.3 0.4-4.3zm-4.5-9c-0.2 0-0.2 0.3-0.2 0.6 0 0.3 0 0.5 0 0.5 0 0.3-0.1 1.8-0.2 3.8v0.2c0 1.2 0.1 2.7 0.2 4.3q0-0.6 0-0.9c0.1-0.8 0.2-1.6 0.4-1.6 0 0 0.1 0.3 0.1 1.1 0.1 1.9 1 5.1 1.5 6.3 0.4 1.1 0.4 1.8 0.3 2.6-0.2 0.4-0.1 0.4 0.1 0.4h0.1q0.1 0 0.2 0.1c0.5 0.1 0.2 0.4-0.2 1.4-0.1 0.5-0.1 0.6-0.1 0.6 0.1 0 0.3-0.4 0.5-0.7 0.1-0.2 0.2-0.4 0.3-0.4-0.4-1.4-0.8-2.8-1.3-4.4-1.1-3.1-1.5-6.1-1.4-8.4q0-0.3 0-0.7 0-0.1 0-0.2c0-0.9-0.1-2.1-0.4-3.2q0.1-0.3 0.2-0.6c0.2 0.7 0.3 1.5 0.4 2.3-0.1-1.1-0.3-2.2-0.2-2.2q0 0 0.2 0.3c0.5 1.3 1.2-0.1 1.2 2.7 0 0.8 0 1.2 0 1.2q0.1-0.1 0.1-0.3 0.2-0.6 0.3-0.9c0.1-0.4 0.1-0.9 0.2-1.2v-0.2c0-0.2-0.2-0.3-0.5-0.4-1-0.5-1-1.2-1.6-1.9q-0.1-0.2-0.2-0.2z"/>
	<path id="Layer" class="s8" d="m23.4 11.3c0 0 0.7 1.5 0.4 5-0.1 1.8 0.4 4.6 0.9 6.6q0.1 0.3 0.3 0.7 0.2 0.8 0.5 1.5 0 0 0-0.3c-0.3-1.9-0.2-3.3 0.1-4.2 0.3-0.9 1.4-4.1 1.5-4.8q0-0.1 0.1-0.1c0.4 0 1.3 1.8 1.6 2.5 0.4 0.7 0.5 1.4 0.5 1.4l-0.2 0.6c-1.1 3.4-1.4 4.4-1.3 4.4 0 0 0.4-0.8 0.8-1.6 0.4-0.9 0.9-1.7 1.2-1.7l0.1 0.1c0.8 0.8 0.6 2.1 0.6 2.1l-0.4 1.4c-1 4.2-1.2 5.6-1.1 5.6 0.2 0 1.7-5.2 1.9-5.9q0.1-0.3 0.1-0.3c0.3 0 0.7 2-0.2 5.6-0.3 1.1-0.3 1.6-0.2 1.6 0.2 0 1.5-3.4 2.1-4.1q0.1-0.2 0.2-0.2c0.5 0-0.3 4.7-1.4 8.6-0.5 1.7-0.6 2.3-0.4 2.3 0.2 0 1.1-1.6 2.4-3.4 0 0 1.5-2.3 2.5-2.3q0.2 0 0.4 0.3c0.2 0.4 0.1 0.9-0.3 1.4h0.2q0.2 0 0.4 0 0.2 0 0.5 0h0.1c0.3 0 0.7 0.2 1.2 0.7-0.5-1.5-1.1-2.9-1.7-4-1.7-2.7-2.9-2.7-4.1-5.4 0 0-0.8-1.1-1.5-1.5 0 0-0.5-0.3-0.5-0.5v-0.1c0-0.1 0.2-0.4 0.2-0.9q0-0.4-0.1-0.9c-0.2-0.3-0.4-0.8-0.6-1 0 0-0.6-0.9-0.6-1.3 0.1-0.2 0.2-0.2 0.4-0.2v-0.1c-0.1-0.2-0.7-1.5-1.2-2.2v-0.1c-0.5-0.7-0.9-1.8-1.8-2.6q-0.3 0.6-0.6 1.5c-0.8 2.3-1.1 3.2-1.2 3.2-0.1 0 1-4.4 0.6-4.6-0.3-0.2-0.4-0.9-0.5-0.9 0 0-0.1 0.1-0.2 0.5-0.2 0.6-0.3 1.2-0.3 1.2h-0.1q-0.1 0.5-0.2 0.5c-0.1 0-0.1-0.8-0.1-1.6 0-0.9 0-1.7-0.1-1.7-0.3 0-0.9-0.8-0.9-0.8z"/>
	<path id="Layer" class="s9" d="m25.1 13.7q-0.1 0.3-0.3 0.9 0 0.2-0.1 0.3h0.1c0 0 0.2-0.6 0.3-1.2z"/>
	<path id="Layer" class="s10" d="m34.6 55.2l0.1 0.1zm-3.8-6.3q0.2 0.1 0.3 0.2-0.1-0.1-0.3-0.2zm-0.3-0.8c0 0.4 0 0.4 0 0.5 0-0.1 0-0.1 0-0.5zm-3.3-8.1c0 0.8 0.2 1.7 0.5 2-0.3-0.3-0.5-1.2-0.5-2z"/>
	<path id="Layer" class="s8" d="m26.5 30.5c-0.2 0-0.2 0.3-0.2 0.3-0.8 1.1-1.2 3.9-1.2 3.9 0 0.3 0.1 0.4 0.3 0.4q0.2 0 0.4-0.1 0.3 0 0.5 0c0.4 0 0.6 0.1 0.5 0.8-0.1 0.7 0.1 0.8 0.3 0.8q0.2 0 0.3 0 0.2-0.1 0.3-0.1c0.2 0 0.2 0.2 0 0.8-0.3 0.7-0.4 1.7-0.5 2.7 0.1 0.9 0.3 1.8 0.6 2.1h0.1v0.1h0.1c0.4-1 0.7-1.6 0.9-1.6 0.2 0 0.3 0.3 0.2 1-0.1 1.2-0.1 1.7 0 1.7q0.1 0 0.3-0.4 0.1-0.1 0.2-0.1c0.3 0 0.6 1.3 0.6 1.3 0.4 2.1 0.5 3.3 0.4 4.1 0 0.3-0.1 0.4 0 0.5 0 0 0.1 0.1 0.3 0.2q0.1 0.2 0.3 0.3h0.1c0.4 0 0.7-0.3 0.9-0.5 0.2-0.3 0.3-0.5 0.4-0.5 0.2 0 0.3 0.5 0.6 2.6 0.2 1.5 0.8 3.1 1.4 4.4l0.1 0.1q0.1 0.2 0.2 0.5-0.2-0.7-0.4-1.7-0.1-0.9-0.1-1.4c0-0.7 0.2-1.1 0.3-1.5-0.3-1-0.6-2.2-1-3.1-0.6-1.1-1.6-2.9-2.7-5.5-0.5-1.2-1-2.3-1.3-3.1-0.3-0.8-0.8-2.1-1.3-3.4q-0.9-2.5-1.8-5.4-0.1-0.3-0.1-0.2z"/>
	<path id="Layer" fill-rule="evenodd" class="s9" d="m33.4 47.5q0.1 0.2 0.3 0.6c-0.6-1.1-1.6-2.9-2.7-5.5 0.8 1.7 1.6 3.6 2.4 4.9zm-6.6-16.4c0.2 0.7 0.9 2.9 1.6 4.9q-0.9-2.4-1.8-5.3 0.1 0.1 0.2 0.4z"/>
	<path id="Layer" class="s8" d="m34 43.7l-0.2 0.2c-0.3 0.3-0.2 0.4 0 0.4q0.1 0 0.2 0 0-0.3 0-0.6zm-0.2-2.6c-0.2 0.2-0.3 0.4-0.2 0.4q0 0 0.2-0.1 0-0.1 0-0.3zm0.3-4.4c-0.2 0.5-0.4 0.9-0.2 1.2v0.1q0.1-0.7 0.2-1.3z"/>
	<path id="Layer" class="s11" d="m35.7 34.1c-0.4 0.2-0.7 0.6-1.3 1.8 0.6-1.2 0.9-1.6 1.3-1.8z"/>
	<path id="Layer" class="s12" d="m28.7 81.2c-0.3-1.8-0.4-0.8-0.6-2.4-0.1-1.6-1.1-0.5-1.3-1.3-0.1-0.4-0.1-1.2-0.4-1.6-0.6 0.1-0.8 0.5-1 1.9-0.1 1.4 0.1 4.6 0.5 5.6 0.3 0.9 0.4 1.8 0.8 2.7 0.4 0.8 1.2 1.1 2 1.5 0.7 0.4 1 0.9 1.6 1 0.6 0.1 0-0.4-0.4-1.3-0.5-0.9-0.8-0.9-0.6-1.4 0.2-0.6 0.8-1 0.3-1.4-0.6-0.4 0.4-1.6 0.4-1.6 0 0-1.1 0-1.3-1.7z"/>
	<path id="Layer" class="s13" d="m29.3 75.7q0.1 0.1 0.3 0.1v-0.1q-0.2 0-0.3 0z"/>
	<path id="Layer" class="s13" d="m28.9 75.6v0.1q0.2 0 0.3 0-0.1-0.1-0.3-0.1z"/>
	<path id="Layer" class="s13" d="m29.6 75.7v0.1l0.2 0.1v-0.1l-0.2-0.1z"/>
	<path id="Layer" class="s14" d="m31.5 77.7c-1.5-0.2-3.1-0.2-4.6 0 0.3 0.3 1-0.2 1.2 0.9 1.3-0.2 2.7-0.2 4-0.3q-0.3-0.2-0.6-0.6z"/>
	<path id="Layer" class="s15" d="m33.8 80.1c-0.3-0.3-0.9-1-1.7-1.8-1.3 0.1-2.7 0.1-4 0.3q0 0.1 0 0.2c0.2 1.6 0.3 0.6 0.6 2.4q0 0.2 0 0.3c2-0.3 4.1-0.4 6.2-0.3-0.5-0.5-0.9-0.9-1.1-1.1z"/>
	<path id="Layer" class="s15" d="m28.7 81.5c0.2 0.6 0.4 0.9 0.6 1.1 2.1-0.6 4.3-0.8 6.5-0.6q-0.5-0.4-0.9-0.8c-2.1-0.1-4.2 0-6.2 0.3z"/>
	<path id="Layer" class="s14" d="m35.8 82c-2.2-0.2-4.4 0-6.5 0.6 0.4 0.3 0.7 0.3 0.7 0.3 0 0 1.5-0.1 3.1 0.7 0.8 0.4 1.1 0.7 1.3 1q1.7-0.5 3.5-0.6c-0.7-0.6-1.5-1.3-2.1-2z"/>
	<path id="Layer" class="s15" d="m31.5 77.7c-0.8-0.8-1.8-1.6-2.6-2-1-0.1-1.9 0.1-2.4 0.2h-0.1c0.3 0.4 0.3 1.2 0.4 1.6q0 0.1 0.1 0.2c1.5-0.2 3.1-0.2 4.6 0z"/>
	<path id="Layer" class="s13" d="m29.9 75.8v0.1h0.1v-0.1h-0.1z"/>
	<path id="Layer" class="s16" d="m29.8 75.9v-0.1h0.1v0.1z"/>
	<path id="Layer" class="s16" d="m29.2 75.8v-0.1h0.1v0.1z"/>
	<path id="Layer" class="s16" d="m30.3 75.9q-0.2 0-0.3 0 0.1 0 0.3 0z"/>
	<path id="Layer" class="s16" d="m30.3 76v-0.1 0.1q-0.2 0-0.3 0v-0.2h0.2 0.1z"/>
	<path id="Layer" class="s16" d="m28.9 75.7z"/>
	<path id="Layer" class="s16" d="m28.9 75.7v0.1-0.2zm0 0.1v-0.1 0.1z"/>
	<path id="Layer" class="s17" d="m28.9 76.6c-0.7 0-2.2 0.1-1.8 0.7l0.1 0.2c0 0 1.1-0.1 2.2-0.1q0.5 0 1 0 0.3 0.1 0.4 0.1c0.3 0-1-0.3-1.8-0.4-1-0.1 1.8-0.4 0.2-0.5q0 0-0.3 0z"/>
	<path id="Layer" class="s18" d="m31.6 78.7c0 0-3.3 0.2-2.3 0.4q0.3 0 0.7 0 0.4 0 0.7 0 0.3 0 0.4 0c0.1 0-0.1 0-0.8 0.1-2 0.3-1.6 0.4 0.3 0.5 1.9 0-2.6 0.4-0.5 0.4 2 0.1 3.1 0.1 1.2 0.4-1.7 0.2-2.7 0.7-1.3 0.7q0.4 0 1-0.1 0.4 0 0.7 0c0.3 0 0.4 0 0.4 0.1q0.3 0 0.6 0 0.1-0.1 0.5-0.1c0.9 0 1-0.2-0.8-0.3-1.8 0 2.1-0.3 0.6-0.5-1.6-0.2-2-0.5-1.4-0.5 0.6-0.1 1.8-0.4 0.3-0.5-1.4-0.1 2.2-0.6-0.3-0.6z"/>
	<path id="Layer" class="s18" d="m32.7 81.2q-0.3 0-0.6 0c0.1 0.1-0.1 0.2-0.3 0.3-0.4 0.2-0.8 0.3-0.4 0.3h0.1c1.2-0.1 3.6-0.2 2.3-0.4-0.9 0-1.3-0.2-1.1-0.2z"/>
	<path id="Layer" class="s19" d="m24.6 97.8z"/>
	<path id="Layer" class="s20" d="m24.8 97.7l-0.2 0.1z"/>
	<path id="Layer" class="s21" d="m27.9 94.8c-0.3 0-2.5 2.2-3.3 3l0.2-0.1q0.7-0.3 1.4-0.2 0.1 0 0.3 0c-0.4-0.5 1.2-2 1.4-2.7z"/>
	<path id="Layer" class="s20" d="m27.4 97.5q0.5 0.1 1 0.1-0.5 0-1-0.1z"/>
	<path id="Layer" class="s21" d="m31 93.3c-0.1 0-0.8 0.7-1.6 1.8-1 1.4-1.5 2.2-2 2.4q0.5 0.1 1 0.1c0.3-0.4 0.8-1.1 1.5-2.3 1-1.4 1.3-2 1.1-2z"/>
	<path id="Layer" class="s22" d="m34.6 95.9q-0.2 0.2-0.4 0.4 0.2-0.2 0.4-0.4z"/>
	<path id="Layer" class="s21" d="m33.6 92.5c-0.4 0-2.4 2.8-3.2 4q-0.2 0.3-0.4 0.6 0.1-0.1 0.2-0.3c0.3-0.4 0.4-0.5 0.6-0.5 0.1 0 0.2 0 0.3 0.1 0.2 0.1 0.4 0.2 0.8 0.2h0.1c0.2-0.6 0.5-1.5 1.1-2.8 0.5-0.9 0.6-1.3 0.5-1.3z"/>
	<path id="Layer" class="s19" d="m36.7 90.1q-0.7 0.1-1.1 0.1 0.5 0 1.1-0.1z"/>
	<path id="Layer" class="s21" d="m36.7 90.1q-0.6 0.1-1.1 0.1c-0.1 0.1 0 0.1 0.3 0.2 0.5 0.2 0.9 0.2 1.1 0.2 0.3 0 0.4-0.1-0.2-0.4z"/>
	<path id="Layer" class="s19" d="m38.2 89.9q-0.3 0-0.7 0.1 0.4-0.1 0.7-0.1z"/>
	<path id="Layer" class="s23" d="m32.1 89.7c-0.6 0-1.1 0.2-2 0.6 0.9-0.4 1.4-0.6 2-0.6 0.4 0 0.9 0.2 1.4 0.3h0.1c-0.6-0.1-1-0.3-1.5-0.3z"/>
	<path id="Layer" class="s19" d="m33.7 89.9v0.2z"/>
	<path id="Layer" class="s23" d="m30 90.4q-0.3 0.1-0.5 0.3 0.2-0.2 0.5-0.3z"/>
	<path id="Layer" class="s19" d="m28 92l-0.1 0.2z"/>
	<path id="Layer" class="s21" d="m32.1 89.7c-0.6 0-1.1 0.2-2 0.6v0.1h-0.1q-0.3 0.1-0.5 0.3h-0.1c-1 0.6-1.3 1-1.4 1.3l-0.1 0.2c1.3-0.2 2.6-0.4 1.6-0.5-1.4-0.3-0.2-0.9 0.8-0.9q0.3 0 0.5 0.1c0.5 0.1 0.9 0.2 1.1 0.2 0.2 0 0.2-0.1-0.3-0.4-0.6-0.5-0.3-0.7 0.3-0.7q0.3 0 0.7 0.1c0.5 0.2 2 0.7 2.3 0.7 0.1 0 0-0.1-0.6-0.5q-0.3-0.1-0.5-0.2l-0.2-0.1h-0.1c-0.5-0.1-1-0.3-1.4-0.3z"/>
	<path id="Layer" class="s24" d="m37.1 92.2l-0.1 0.1z"/>
	<path id="Layer" class="s0" d="m36.1 77.2q0.4 0.7 0.8 1.5-0.4-0.8-0.8-1.5z"/>
	<path id="Layer" class="s0" d="m25.1 63.7c0.2 0.5 0.2 1.1 0.2 1.6 0-0.5 0-1.1-0.2-1.6z"/>
	<path id="Layer" class="s1" d="m25.1 63.7c0.2 0.5 0.2 1.1 0.2 1.6 0.1 0.3 0.3 0.7 0.5 0.9l0.1 0.1c0.7 0.1 2.1 0.4 3 0.4q0.4 0 0.6-0.1c1.1-0.1-1.7-1.7-4.4-2.9z"/>
	<path id="Layer" class="s1" d="m24.1 61.3l0.1 0.1c0.2 0.3 0.3 0.7 0.4 1 0.7 0.1 1.4 0.2 1.8 0.2h0.1c0.8 0-0.4-0.6-2.4-1.3z"/>
	<path id="Layer" class="s0" d="m32.8 73.8q0.1 0 0.2 0.1-0.1-0.1-0.2-0.1zm-5.7-5.9c1 2.1 1.7 2.3 2.4 2.9-0.7-0.6-1.4-0.8-2.4-2.9z"/>
	<path id="Layer" class="s1" d="m27.1 67.9c1 2.1 1.7 2.3 2.4 2.9 0.9 0.7 2.1 2.4 3.3 3q0.1 0 0.2 0.1c0.9 0.3 2.2 0.7 2.9 0.8q0.3 0.1 0.4 0.1c0.6 0-0.8-0.7-2.5-1.3-1.1-0.4-1.2-0.6-0.8-0.6 0.3 0 0.8 0.1 1.3 0.3q0.4 0.1 0.6 0.1c0.5 0-0.7-0.7-2.7-1.7-1-0.4-1-0.5-0.7-0.5q0.1 0 0.3 0 0.1 0 0.2 0c0.3 0 0.2-0.1-0.9-0.5-1.4-0.5-1.6-0.7-1.3-0.7 0.3 0 1.4 0.2 2.2 0.3h0.1c0.9 0-2.3-1.2-5-2.3z"/>
	<path id="Layer" class="s1" d="m20.4 58.6q0.3 0.2 0.6 0.4c0.2 0.1 0.5 0.3 0.6 0.5v0.1l0.1 0.1q0.1 0.1 0.3 0.3c0.6 0 1.3 0.1 1.8 0.1q0.3 0 0.5 0c1.2-0.3-0.9-0.9-3.9-1.5z"/>
	<path id="Layer" class="s0" d="m30 59.1c0.4 0.8 0.7 1.2 1.1 1.6-0.4-0.4-0.7-0.8-1.1-1.6zm-0.3-0.5q0.1 0.2 0.2 0.3-0.1-0.1-0.2-0.3z"/>
	<path id="Layer" class="s1" d="m28.5 57.4c0.3 2 0.7 4.7 1 4.7q0.1 0 0.1-0.4c0.2-1 0.4-1.7 0.5-1.7 0.1 0 0.2 0.4 0.1 1.4-0.1 1.5 0 2.2 0.1 2.2q0.2 0 0.3-0.8c0.1-0.8 0.3-1.6 0.5-2.1-0.4-0.4-0.7-0.8-1.1-1.6v-0.1l-0.1-0.1q-0.1-0.1-0.2-0.3l-0.1-0.1v-0.1h-0.1v-0.1h-0.1q-0.4-0.5-0.9-0.9z"/>
	<path id="Layer" class="s1" d="m19.3 56.9q0.1 0.1 0.2 0.3c0.2 0.3 0.3 0.6 0.5 0.9q0.2 0 0.4 0c0.9 0 1.9 0 2.3-0.1 0.6-0.2-1.8-0.8-3.4-1.1z"/>
	<path id="Layer" class="s0" d="m24.2 54.8q0.2 0.3 0.4 0.4-0.2-0.1-0.4-0.4z"/>
	<path id="Layer" class="s1" d="m24.2 54.8c0.4 1 0.7 1.8 0.7 2.1 0 0.3 0.1 0.5 0.2 0.5 0.1 0 0.2-0.6 0.1-1.9-0.2-0.1-0.4-0.1-0.6-0.3q-0.2-0.1-0.4-0.4z"/>
	<path id="Layer" class="s0" d="m32.9 61.8c0.9 0.5 2 1.4 3 3.2q0.1 0.2 0.2 0.4-0.1-0.2-0.2-0.4c-1-1.8-2.1-2.7-3-3.2z"/>
	<path id="Layer" class="s25" d="m71.2 104l-3.3 25c-0.1 3.4-7.5 6-16.5 5.9-9-0.1-16.3-3-16.3-6.4l-3.9-26.7z"/>
	<path id="Layer" class="s26" d="m71.2 104h-0.1l-3.3 25c-0.1 1.6-1.8 3-4.6 4.1-2.8 1-6.8 1.7-11.1 1.7q-0.4 0-0.7 0c-4.5-0.1-8.6-0.8-11.5-2-2.9-1.1-4.7-2.6-4.7-4.2v-0.1l-3.9-26.6 39.9 2.2v-0.1-0.1l-40-2.2-0.1 0.1 3.9 26.7h0.1-0.1v0.1c0 1.7 1.9 3.3 4.8 4.4 3 1.2 7.1 1.9 11.6 2q0.3 0 0.7 0c4.4 0 8.3-0.6 11.2-1.7 2.8-1.1 4.6-2.5 4.7-4.3h-0.1 0.1l3.3-25v-0.1h-0.1z"/>
	<path id="Layer" class="s27" d="m71.2 104l-3.3 25c-0.1 3.4-7.5 6-16.5 5.9-9-0.1-16.3-3-16.3-6.4l-3.9-26.7z"/>
	<path id="Layer" class="s28" d="m71.2 104h-0.1l-3.3 25c-0.1 1.6-1.8 3-4.6 4.1-2.8 1-6.8 1.7-11.1 1.7q-0.4 0-0.7 0c-4.5-0.1-8.6-0.8-11.5-2-2.9-1.1-4.7-2.6-4.7-4.2v-0.1l-3.9-26.6 39.9 2.2v-0.1-0.1l-40-2.2-0.1 0.1 3.9 26.7h0.1-0.1v0.1c0 1.7 1.9 3.3 4.8 4.4 3 1.2 7.1 1.9 11.6 2q0.3 0 0.7 0c4.4 0 8.3-0.6 11.2-1.7 2.8-1.1 4.6-2.5 4.7-4.3h-0.1 0.1l3.3-25v-0.1h-0.1z"/>
	<path id="Layer" class="s29" d="m35.7 108.8l2.4 17.6c0 0 1.1 5.6 7.8 7q1.1 0.3 2.3 0.3c5.7 0 10.5-4.8 10.9-10.4 0.5-6.8 0.5-12.6 0.5-12.6 0 0-4 0.7-9.2 0.7-4.7 0-10.3-0.6-14.7-2.6z"/>
	<path id="Layer" class="s30" d="m70.9 105.7c-1.2 1-2.8 1.9-4.7 2.7-1.7 0.6-3.6 1.1-5.7 1.5q0.8 0.1 2.1 0.1c1.1 0 2.5-0.1 4-0.3 0 0 0.1-0.1 0.3-0.1 0.2 0 0.5 0.2 0.6 1.7 0 2.4-2.2 17-2.2 17 0 0-0.5 3.7-5.6 5.1-1.8 0.5-4.6 0.9-7.7 0.9-6.2 0-13.6-1.5-16.9-6.6l0.1 0.8v0.1c0 1.6 1.8 3.1 4.7 4.2 2.9 1.2 7 1.9 11.5 2q0.3 0 0.7 0c4.3 0 8.3-0.7 11.1-1.7 2.8-1.1 4.5-2.5 4.6-4.1z"/>
	<path id="Layer" class="s31" d="m71 105.6q-0.1 0-0.1 0.1l-3.1 23.3c-0.1 1.6-1.8 3-4.6 4.1-2.8 1-6.8 1.7-11.1 1.7q-0.4 0-0.7 0c-4.5-0.1-8.6-0.8-11.5-2-2.9-1.1-4.7-2.6-4.7-4.2v-0.1l-0.1-0.8q-0.1-0.1-0.1-0.2l0.1 1c0 3.4 7.3 6.3 16.3 6.4q0.3 0 0.7 0c8.7 0 15.7-2.6 15.8-5.9z"/>
	<path id="Layer" class="s32" d="m30.3 97.1l3.9 0.2c3.8-2.2 10.1-3.7 17.3-3.7 8 0 15 1.8 18.6 4.4 1.5-0.4 3-0.9 3-0.9l-0.5 5.4c-0.5 4.5-9.8 8.1-21.1 8.1-11.5 0-20.8-3.7-21.1-8.2l-0.1-0.1v-5z"/>
	<path id="Layer" class="s28" d="m30.3 97.1v0.1l3.9 0.2v-0.1c3.8-2.1 10.1-3.6 17.3-3.6 8 0 14.9 1.8 18.5 4.4h0.1c1.5-0.4 3-0.9 3-0.9v-0.1h-0.1l-0.5 5.4h0.1v-0.1l-0.1 0.1c-0.2 2.2-2.6 4.2-6.4 5.7-3.8 1.4-8.9 2.3-14.6 2.3-5.7 0-10.9-0.9-14.7-2.4-3.8-1.5-6.2-3.5-6.3-5.7l-0.1-0.1v-5h-0.1-0.1v0.1h0.1l0.1-0.1v-0.2h-0.1-0.1v0.2h0.1 0.1l-0.1-0.1-0.1 0.1v5 0.1h0.1 0.1-0.1c0.1 2.3 2.6 4.4 6.4 5.9 3.8 1.5 9.1 2.4 14.8 2.4 5.7 0 10.8-0.9 14.7-2.3 3.8-1.5 6.2-3.5 6.5-5.9h-0.1v0.1l0.1-0.1 0.5-5.4-0.1-0.1h-0.1c0 0-1.5 0.5-3 0.9l0.1 0.1c-3.6-2.7-10.6-4.5-18.6-4.5-7.2 0-13.5 1.5-17.4 3.7l0.1 0.1v-0.1l-3.9-0.2h-0.1v0.1z"/>
	<path id="Layer" class="s27" d="m30.3 97.1c0 4.7 9.6 8.5 21.4 8.5 11.8 0 21.4-3.8 21.4-8.5 0-4.7-9.6-8.5-21.4-8.5-11.8 0-21.4 3.8-21.4 8.5z"/>
	<path id="Layer" class="s28" d="m30.3 97.1h-0.1c0 2.4 2.4 4.6 6.3 6.1 3.9 1.6 9.3 2.6 15.2 2.6 5.9 0 11.3-1 15.1-2.6 3.9-1.5 6.4-3.7 6.4-6.1 0-2.4-2.5-4.6-6.4-6.1-3.8-1.6-9.2-2.5-15.1-2.5-5.9 0-11.3 0.9-15.2 2.5-3.9 1.5-6.3 3.7-6.3 6.1h0.1 0.1c0-2.3 2.3-4.4 6.2-5.9 3.9-1.6 9.2-2.5 15.1-2.5 5.9 0 11.2 0.9 15.1 2.5 3.8 1.5 6.2 3.6 6.2 5.9 0 2.3-2.4 4.4-6.2 5.9-3.9 1.6-9.2 2.5-15.1 2.5-5.9 0-11.2-0.9-15.1-2.5-3.9-1.5-6.2-3.6-6.2-5.9z"/>
	<path id="Layer" class="s33" d="m31 96.9c0 4.3 9.2 7.8 20.6 7.8 11.5 0 20.7-3.5 20.7-7.8 0-4.2-9.2-7.7-20.7-7.7-11.4 0-20.6 3.5-20.6 7.7z"/>
	<path id="Layer" class="s28" d="m31 96.9h-0.1c0 2.3 2.3 4.2 6.1 5.6 3.8 1.4 8.9 2.3 14.6 2.3 5.8 0 10.9-0.9 14.7-2.3 3.7-1.4 6.1-3.3 6.1-5.6 0-2.2-2.4-4.1-6.1-5.5-3.8-1.4-8.9-2.3-14.7-2.3-5.7 0-10.8 0.9-14.6 2.3-3.7 1.4-6.1 3.3-6.1 5.5h0.1 0.1c0-2 2.2-3.9 6-5.3 3.7-1.4 8.8-2.3 14.5-2.3 5.7 0 10.9 0.9 14.6 2.3 3.7 1.4 6 3.3 6 5.3 0 2.1-2.3 4-6 5.4-3.7 1.4-8.9 2.3-14.6 2.3-5.7 0-10.8-0.9-14.5-2.3-3.8-1.4-6-3.3-6-5.4z"/>
	<path id="Layer" class="s34" d="m64.9 95.8c0 0 0.4-1-2.9-2.2-3.4-1.2-4.1 0.9-4.1 0.9 0 0 0.1-0.9-1.7-2.1-1.8-1.1-4.4 0.8-4.4 0.8-2.9-1.4-5.1 1.6-5.1 1.6-2.7-2.7-7.2 0-7.2 0-4.6-1-5.7 2.8-5.7 2.8-1.1-0.1-2 0.3-2.6 0.8 2.3 3.4 10.3 6 19.8 6.3 10.4 0.2 19-2.4 20.6-6.1-1.2-1.2-3.3-1.6-3.3-1.6-1-1.5-3.4-1.2-3.4-1.2z"/>
	<path id="Layer" class="s35" d="m65 95.8c0.3-1.1-2.4-2-3-2.2-1.3-0.5-3.3-0.8-4.1 0.7-0.1 0.2-0.1 0.1 0 0.1 0 0 0.1 0 0.1 0.1-0.1-0.4-0.2-0.6-0.4-0.9-0.5-0.8-1.4-1.3-2.3-1.6-0.9-0.2-1.8 0.2-2.5 0.5q-0.6 0.2-1.1 0.6c0.2-0.1-1.3-0.3-1.1-0.3-1-0.1-1.9 0.2-2.7 0.8-0.4 0.2-0.8 0.5-1.1 0.9-0.4 0.4-0.4-0.1-1-0.4-1.9-0.9-3.9-0.5-5.8 0.4-0.5 0.2-1 0.1-1.4 0.1-0.3 0-0.6-0.1-0.9 0-1.1 0.1-1.9 0.4-2.7 1-0.6 0.5-1 1.1-1.2 1.7-0.1 0.3-2.2 0.7-2.7 1.1 1.7 2.3 4.6 3.5 7.2 4.3 4.1 1.4 8.5 1.9 12.8 2 4.4 0.1 9-0.3 13.3-1.5 2.6-0.7 6-1.9 7.3-4.6-1.1-1-2.6-1.2-3.6-2-1-0.7-2.1-1-3.2-0.8-0.1 0 0 0.1 0.1 0 1.3-0.1 2.3 1.1 3.6 1.3 1.1 0.3 3.4 0.9 2.4 2.3-0.3 0.5-0.8 0.9-1.3 1.3-3.2 2.5-8 3.2-11.9 3.6-5.4 0.7-11 0.3-16.3-0.8-2.3-0.5-4.6-1.2-6.7-2.3q-1.2-0.6-2.3-1.4-0.4-0.4-0.8-0.8c-1-1.1 2-1.4 2.1-1.4h0.1c0.8-2.5 3.3-3.2 5.6-2.8 0.2 0.1 0.7-0.3 0.9-0.4 2-0.9 4.4-1.1 6.2 0.4l0.2 0.1q0.4-0.6 0.9-1c1.4-1.2 2.2-0.7 4.1-0.7 0.3 0 0.8-0.5 1.2-0.6 1.5-0.8 4.8-0.2 4.8 1.9h0.2c0.3-0.7 1-1.1 1.8-1.2-0.6 0.1 5.5 0.7 5 2.5z"/>
	<path id="Layer" class="s36" d="m39.8 95.5c0 0-3.7-0.6-4.4 1.3-0.7 2-3.1 0.9-1.6 2.6 1.5 1.7 3.9 1.8 5 0.9 1-0.9 1.4-2.2 3.6-2 2.1 0.1 0.8-1.6-0.5-1.6-1.3 0 1.1-1.6 2.1-1.7 1-0.1-2.2-1.3-4.2 0.5z"/>
	<path id="Layer" class="s36" d="m49 97.5c0 0-0.9-1.1-3.3-1.1-2.5-0.1-1.1 0.9-1.2 1.4-0.1 0.5 1.5 1.5 1.5 1.5 0 0 0.7-1.7 3-1.8z"/>
	<path id="Layer" class="s36" d="m47.9 95.1c-0.3 0 1.5-1.9 3.3-1.3 0.9 0.2 1.7 0 2.4-0.2 0.9-0.2 1.7-0.5 2.5 0.1 1.5 1.1 0.8 2 0.8 2 0 0-4.6 0-5 2 0 0-1.4-2.4-4-2.6z"/>
	<path id="Layer" class="s36" d="m60.1 97.4c0 0-0.4 0-0.9-0.1-1.5-0.2-4.4-0.4-5.4 1.1 0 0-0.6 0.4 0.5 1.3 1.1 0.9 1.9 1.2 1.9 2.3 0 0 1.5-3.3 7.2-1.8 5.8 1.4 6.5-1.1 5.3-1.8-1.2-0.7-3.5 0.3-3.5 0.3 0 0-0.9-2.2-5.1-1.3z"/>
	<path id="Layer" class="s37" d="m63.5 95.6c0 0-1.3-1.5-3-1.2-1.7 0.4 3.5 2.8 3 1.2z"/>
	<path id="Layer" class="s36" d="m53.3 101.3c0 0-1.9-1.5-4.4-0.7 0 0-0.2 2.4-0.8 2.4-0.5-0.1-1.4-3.6-4.4-3.3-3 0.3-4.3 1.5-3.1 2.5 1.2 1 7.1 2.3 10.7 2 3.5-0.3 2.8-1.9 2-2.9z"/>
	<path id="Layer" class="s36" d="m61.1 101.3c0 0-2.5-0.3-3.6 1.2-1.1 1.5 4 1.2 5.9 0.3 1.8-0.9-2-1.5-2.3-1.5z"/>
	<path id="Layer" class="s38" d="m52.8 89.9c-9.2 0-16.1 2.5-16.1 2.5-1.3 0.8-0.1 1.8 1.7 1.8 0.9 0 1.8-0.2 2.7-0.7 0.8-0.5 1.5-0.6 2.1-0.6 0.7 0 1.2 0.1 1.8 0.3 0.5 0.1 0.9 0.3 1.3 0.3 0.4 0 0.7-0.1 0.9-0.5 0.6-0.7 1.5-0.8 2.4-0.8 1 0 1.9 0.2 1.9 0.2 0 0 0.2-0.9 2.9-0.9q0.2 0 0.4 0c3.1 0.1 3.5 1.6 3.5 1.6 0.3-1 2.5-0.9 2.8-1.8 0.4-0.8-0.9-0.9-0.9-0.9-2.6-0.4-5-0.5-7.4-0.5z"/>
	<path id="Layer" class="s39" d="m39.8 96.2c-0.1-0.1-1-0.7-2.9 0-1.8 0.7-0.8 1.6 0.6 1.4 1.4-0.2 2.6-0.8 2.3-1.4z"/>
	<path id="Layer" class="s39" d="m46.9 96.8c0 0-1.2-0.2-1 0.3 0.2 0.5 2.3 0 1-0.3z"/>
	<path id="Layer" class="s39" d="m56.5 95.1c0 0-0.5-1.5-2-1.3-1.6 0.2 2 2.2 2 1.3z"/>
	<path id="Layer" class="s39" d="m64.6 98.6c0 0-3-1.5-3 0 0 1.5 4.1 1.1 3 0z"/>
	<path id="Layer" class="s40" d="m56.5 103.2q-0.1 0-0.2 0 0.1 0 0.1 0 0.1 0 0.1 0 0 0 0 0z"/>
	<path id="Layer" class="s41" d="m72.3 100.3c-1 4.7-9.7 8.5-9.7 8.5 0 0 5-1.6 6.9-2.8 2-1.2 2.6-3.3 2.6-3.3z"/>
	<path id="Layer" class="s34" d="m38.6 96.8c0 0-1.3-1.3-2.8 0.2-1.4 1.4-0.7 2.7 0.8 2.5 1.6-0.2 3.6-1.4 2-2.7z"/>
	<path id="Layer" class="s35" d="m38.7 96.8c-0.5-0.5-1.3-0.7-2-0.5-1 0.3-2.3 1.8-1.5 2.8 0.6 0.8 2.1 0.4 2.8 0.1 0.5-0.3 1-0.6 1.2-1.1 0.3-0.5-0.1-1-0.5-1.3h-0.2c0.9 0.7 0.6 1.5-0.2 2.1-0.8 0.5-2.4 1-3.1 0-0.5-0.9 0.8-2.1 1.5-2.4 0.6-0.3 1.4-0.1 1.8 0.3z"/>
	<path id="Layer" class="s42" d="m38.9 97.3q0 0.2-0.1 0.4 0.1 0 0.2 0.1 0.1-0.2-0.1-0.5z"/>
	<path id="Layer" class="s43" d="m39 97.1q0 0.1-0.1 0.2 0.2 0.2 0.1 0.5 0.1 0 0.2 0 0-0.3-0.2-0.7z"/>
	<path id="Layer" class="s42" d="m35.1 98.3q0 0.3 0.1 0.6c0.3 0.4 0.8 0.6 1.2 0.6 0.4 0 0.9-0.1 1.3-0.3-0.2-0.2-0.2-0.5 0-0.8q-0.1 0-0.3 0.1c0 0-0.6 0.3-1.2 0.3q-0.3 0-0.5-0.1c-0.3-0.1-0.5-0.2-0.6-0.4z"/>
	<path id="Layer" class="s43" d="m35.3 97.6c-0.6 1.1 0 1.9 1.1 1.9q0.1 0 0.2 0 0.6-0.1 1.1-0.2 0-0.1 0-0.1c-0.4 0.2-0.9 0.3-1.3 0.3-0.4 0-0.9-0.2-1.1-0.6q-0.2-0.3-0.2-0.6-0.1-0.2 0.2-0.6z"/>
	<path id="Layer" class="s44" d="m37.4 96.6c-0.8 0-1.5 0.9-1.5 0.9q-0.2 0.3-0.2 0.4c0 0.1 0.1 0.2 0.2 0.2 0.4 0 0.9-0.2 1.1-0.3 0.2-0.2 1.2-0.5 1.2-0.8q0-0.2-0.3-0.3-0.3-0.1-0.5-0.1z"/>
	<path id="Layer" class="s34" d="m39.3 98c0 0-0.6-0.6-1.3 0.1-0.7 0.8-0.3 1.5 0.5 1.4 0.7-0.1 1.6-0.8 0.8-1.5z"/>
	<path id="Layer" class="s35" d="m39.4 98c-0.2-0.2-0.6-0.3-0.9-0.3-0.6 0.2-1.3 1-0.8 1.6 0.7 0.8 2.7-0.3 1.7-1.3h-0.1c0.9 0.9-1 1.9-1.5 1.2-0.2-0.5 0.2-1 0.5-1.3 0.3-0.2 0.7-0.1 1 0.1z"/>
	<path id="Layer" class="s34" d="m66.3 99.2c0 0-1.4-1.2-2.8 0.2-1.5 1.4-0.8 2.7 0.8 2.5 1.5-0.1 3.5-1.4 2-2.7z"/>
	<path id="Layer" class="s35" d="m66.4 99.2c-0.6-0.4-1.3-0.6-2-0.5-1 0.2-2.4 1.8-1.6 2.8 0.7 0.8 2.1 0.5 2.9 0.1 0.5-0.2 1-0.6 1.2-1.1 0.2-0.5-0.2-1-0.5-1.3-0.1 0-0.3 0-0.2 0 2 1.7-2.5 3.8-3.4 2.1-0.4-0.9 0.7-1.9 1.4-2.3 0.6-0.4 1.5-0.3 2 0.2 0 0.1 0.2 0.1 0.2 0z"/>
	<path id="Layer" class="s42" d="m65.3 100.8q-0.1 0.1-0.2 0.1c0 0-0.7 0.4-1.3 0.4q-0.1 0-0.2 0-0.2 0.1-0.7 0.2c0.3 0.3 0.7 0.4 1.2 0.4 0.4 0 0.8-0.1 1.2-0.2-0.2-0.3-0.1-0.6 0-0.9zm1.3-1.1q0 0.2-0.2 0.4 0.1 0.1 0.3 0.1 0-0.2-0.1-0.5z"/>
	<path id="Layer" class="s43" d="m63 101.5q-0.1 0-0.1 0c0.2 0.3 0.6 0.4 1.1 0.4q0.2 0 0.3 0 0.5 0 1-0.2 0 0 0 0c-0.4 0.1-0.8 0.2-1.2 0.2-0.5 0-0.9-0.1-1.1-0.4zm3.6-1.9q0 0 0 0.1 0.1 0.3 0.1 0.5 0.1 0 0.1 0.1 0.1-0.4-0.2-0.7z"/>
	<path id="Layer" class="s44" d="m65.1 99q-0.3 0-0.5 0.1c0.4 0.2 0.6 0.4 0.4 0.8q0 0.1-0.1 0.1c0.4-0.1 1-0.4 1-0.6q0-0.1-0.4-0.3-0.2-0.1-0.4-0.1z"/>
	<path id="Layer" class="s34" d="m67 100.5c0 0-0.7-0.7-1.4 0.1-0.6 0.7-0.2 1.4 0.5 1.3 0.7-0.1 1.7-0.8 0.9-1.4z"/>
	<path id="Layer" class="s35" d="m67.1 100.5c-0.3-0.3-0.7-0.4-1-0.3-0.5 0.1-1.3 0.9-0.8 1.5 0.7 0.8 2.8-0.3 1.8-1.2h-0.2c0.9 0.9-1 1.9-1.4 1.1-0.3-0.3 0-0.8 0.2-1 0.3-0.4 0.8-0.5 1.2-0.1z"/>
	<path id="Layer" class="s45" d="m31.2 100.6c0 0 0 2.2 0.2 2.7 0.3 0.5 0.9 1.4 0.9 1.4 5.4 4.1 13.9 5 19.9 5 3.8 0 6.6-0.4 6.9-0.4 0.8 0 0.5-3.3 0.5-3.3q-4.6 0.4-8.3 0.4c-16.3 0-20.1-5.8-20.1-5.8z"/>
	<path id="Layer" fill-rule="evenodd" class="s46" d="m47.9 95.1c2.6 0.2 4 2.6 4 2.6 0.4-1.9 4.6-2 5-2q0 0 0 0c0 0 0.1-0.1 0.2-0.3q0.1 0.1 0.2 0.3c0.2 0.8 2.3 1.1 3.7 1.6q-0.4 0-0.9 0.1 0 0 0 0c-0.1 0-0.4 0-0.9-0.1-0.5-0.1-1.2-0.1-1.9-0.1-1.4 0-2.8 0.2-3.5 1.2 0 0-0.6 0.4 0.5 1.3 1.1 0.9 1.9 1.2 1.9 2.3 0 0 1-2.2 4.5-2.2q0.9 0 2.1 0.2-0.1 0.2-0.1 0.3-0.8-0.1-1.6-0.1-0.7 0-1.5 0.1c-3.1 0.6-4 2.7-3.3 2.9-0.8 0.1-1.5 0.3-2.2 0.4q-0.7 0.2-1.3 0.3c1.8-0.5 1.2-1.8 0.5-2.6 0 0-1.3-0.9-3-0.9q-0.7 0-1.4 0.2c0 0-0.2 2.4-0.8 2.4q0 0 0 0c-0.5-0.1-1.4-3.3-4.1-3.3q-0.2 0-0.3 0c-2.8 0.2-4.1 1.3-3.4 2.3-0.4-0.2-0.8-0.4-1.4-0.8q-0.5-0.2-0.8-0.5 0.4-0.1 0.7-0.4c1-0.9 1.4-2.1 3.2-2.1q0.2 0 0.4 0.1 0.1 0 0.3 0c1.7 0 0.4-1.6-0.8-1.6-0.6 0-0.4-0.4 0.1-0.7 1.2-0.5 2.8-1 4.4-1.4q0.1 0.1 0.2 0.2l0.2 0.1q0.1-0.2 0.3-0.4 0.8-0.1 1.5-0.1c-0.5 0.3-0.8 0.7-0.7 0.7zm-2.1 4.3c-0.2 0-1.1-0.7-2.4-0.7-0.8 0-1.8 0.3-2.8 1.3-0.8 0.6-1.1 1.4-1.1 1.4q0.6-0.9 1.1-1.4c0.6-0.5 1.4-0.8 2.6-0.8q0.7 0 1.7 0.2c0 0 3 1.3 3.3 3.2 0 0 0.4-2-0.6-2.3-0.6-0.1 0.4-0.5 1.9-0.5 1.5 0 3.5 0.4 4.8 1.5 0.6 0.6 0.9 0.8 1.1 0.8 0.6 0-0.7-2.3-2.5-2.8 0 0 0.8-1.9 3.1-2.3 0.9-0.1 0.7-0.3 0.1-0.3-1 0-3.3 0.4-4.1 2 0 0-2-3.4-6-3.4q-0.2 0-0.5 0.1c0 0 4.1 1.3 4.3 2.3 0.2 1-2.5 0.6-3.3 1.6 0 0-0.2 0.2-0.5 0.2q-0.1 0-0.2-0.1zm3.2-1.9c0 0-0.9-1.1-3.3-1.1q-0.2 0-0.3 0c-2.2 0-0.8 0.9-0.9 1.4-0.1 0.5 1.5 1.5 1.5 1.5 0 0 0.7-1.7 3-1.8z"/>
	<path id="Layer" class="s47" d="m46.8 94.6q-0.2 0-0.4 0 0.1 0 0.1 0 0 0 0.1 0 0 0.1 0.2 0z"/>
	<path id="Layer" class="s46" d="m42.8 103.2q0.1 0 0.1 0c0.7 0.4 1.6 0.5 2.6 0.6-1-0.2-1.9-0.4-2.7-0.6zm3.6-8.6q0.1 0 0.1 0 0 0-0.1 0z"/>
	<path id="Layer" class="s48" d="m47.1 94.5q-0.2 0-0.3 0.1-0.2 0.1-0.2 0-0.1 0-0.1 0 0 0-0.1 0 0 0 0 0 0.1 0.1 0.2 0.2l0.2 0.1q0.1-0.2 0.3-0.4z"/>
	<path id="Layer" class="s49" d="m42 96q-0.5 0.1-1 0.3c-1.9 0.6 0.1 1-1.4 1.9 0.5 0.7-0.5 1.4-1.2 1.4q-0.4 0-0.6-0.2-0.4 0.6 0.3 1.3 0.4-0.1 0.7-0.4c1-0.9 1.4-2.1 3.2-2.1q0.2 0 0.4 0.1 0.1 0 0.3 0c1.7 0 0.4-1.6-0.8-1.6-0.6 0-0.4-0.4 0.1-0.7z"/>
	<path id="Layer" fill-rule="evenodd" class="s49" d="m45.7 96.4c2.4 0 3.3 1.1 3.3 1.1-2.3 0.1-3 1.8-3 1.8 0 0-1.6-1-1.5-1.5 0.1-0.5-1.3-1.4 0.9-1.4q0.1 0 0.3 0zm1.2 0.4c0 0-0.3 0-0.5 0-0.3 0-0.6 0-0.5 0.3 0.1 0.1 0.3 0.2 0.6 0.2 0.6 0 1.3-0.3 0.4-0.5z"/>
	<path id="Layer" class="s49" d="m48.6 94.4q0 0 0 0c-0.5 0.3-0.8 0.7-0.7 0.7 2.6 0.2 4 2.6 4 2.6 0.4-1.9 4.6-2 5-2q0 0 0 0c0 0 0.1-0.1 0.2-0.3q-0.3-0.2-0.6-0.3 0 0.3-0.3 0.2c-0.3 0-0.6 0-0.9-0.2-0.4 0.1-0.7 0.1-0.7 0.1-1.1-0.3-2 0.2-4.5-0.6q-0.7-0.2-1.5-0.2z"/>
	<path id="Layer" class="s49" d="m57.3 97.2c-1.4 0-2.8 0.2-3.5 1.2 0 0-0.6 0.4 0.5 1.3 1.1 0.9 1.9 1.2 1.9 2.3 0 0 1-2.2 4.5-2.2q0.9 0 2.1 0.2 0.1-0.2 0.3-0.4c-0.8-0.1-1.5-0.4-1.5-1 0-0.4 0.2-0.6 0.5-0.7-0.1-0.2-0.5-0.4-1.1-0.6q-0.4 0-0.9 0.1 0 0 0 0c-0.1 0-0.4 0-0.9-0.1-0.5-0.1-1.2-0.1-1.9-0.1z"/>
	<path id="Layer" class="s49" d="m44 99.7q-0.2 0-0.3 0c-2.8 0.3-4.1 1.3-3.4 2.3 0.7 0.3 1.3 0.6 2.5 1.2 0.8 0.2 1.7 0.4 2.7 0.6 1.9 0.1 4 0 5.2 0.2q0.3 0.1 0.7 0.1 0.7 0 1.4-0.2c1.8-0.5 1.2-1.8 0.5-2.6 0 0-1.3-0.9-3-0.9q-0.7 0-1.4 0.2c0 0-0.2 2.4-0.8 2.4q0 0 0 0c-0.5-0.1-1.4-3.3-4.1-3.3z"/>
	<path id="Layer" class="s50" d="m46.4 96.8c-0.3 0-0.6 0-0.5 0.3 0.1 0.1 0.3 0.2 0.6 0.2 0.6 0 1.3-0.3 0.4-0.5 0 0-0.3 0-0.5 0z"/>
	<path id="Layer" class="s50" d="m55.9 95.1q-0.3 0-0.6 0c0.3 0.2 0.6 0.2 0.9 0.2q0.3 0.1 0.3-0.2-0.3 0-0.6 0z"/>
	<path id="Layer" class="s50" d="m62.1 97.9c-0.3 0.1-0.5 0.3-0.5 0.7 0 0.6 0.7 0.9 1.5 1 0.3-0.3 0.6-0.6 0.9-0.7-0.9-0.2-2-0.4-1.9-0.9q0 0 0-0.1z"/>
	<path id="Layer" fill-rule="evenodd" class="s51" d="m40.6 100c-0.8 0.6-1.1 1.4-1.1 1.4q0.6-0.9 1.1-1.4zm5.4-4.7q-0.2 0-0.5 0.1c0 0 4.1 1.3 4.3 2.3 0.2 1-2.5 0.6-3.3 1.6 0 0-0.2 0.2-0.5 0.2q-0.1 0-0.2-0.1c-0.2-0.1-1.1-0.7-2.4-0.7-0.8 0-1.8 0.3-2.8 1.3 0.6-0.5 1.4-0.8 2.6-0.8q0.7 0 1.7 0.2c0 0 3 1.3 3.3 3.2 0 0 0.4-2-0.6-2.3-0.6-0.1 0.4-0.5 1.9-0.5 1.5 0 3.5 0.4 4.8 1.5 0.6 0.6 0.9 0.8 1.1 0.8 0.6 0-0.7-2.3-2.5-2.8 0 0 0.8-2 3.1-2.3 0.9-0.1 0.7-0.3 0.1-0.3-1 0-3.3 0.4-4.1 2 0 0-2-3.4-6-3.4zm6 3.4q0 0 0 0z"/>
	<path id="Layer" class="s46" d="m61.6 100.9c-3.7 0-4.8 2-5.1 2.3q0.4 0 0.8 0 0.1 0 0.1 0 0.1 0 0.1 0c-0.2-0.2-0.2-0.4 0-0.7 0.8-1.1 2.3-1.2 3.1-1.2 0.3 0 0.5 0 0.5 0 0.1 0 0.8 0.1 1.4 0.3q0.2-0.1 0.3-0.1-0.2-0.3-0.2-0.6-0.5 0-1 0z"/>
	<path id="Layer" class="s49" d="m60.6 101.3c-0.8 0-2.3 0.1-3.1 1.2-0.2 0.3-0.2 0.5 0 0.7q0.1 0 0.2 0c2.5 0 2.6-1 4.4-1.5q0.2-0.1 0.5-0.1c-0.7-0.2-1.4-0.3-1.5-0.3 0 0-0.2 0-0.5 0z"/>
	<path id="Layer" class="s51" d="m61.1 100.2q-0.7 0-1.5 0.1c-3.1 0.6-4 2.7-3.3 2.9q0.1 0 0.2 0c0.3-0.3 1.4-2.3 5.1-2.3q0.5 0 1 0-0.1-0.3 0.1-0.6-0.8-0.1-1.6-0.1z"/>
	<path id="Layer" class="s46" d="m39.4 98.3q-0.1 0-0.2 0.1-0.9 0.4-1.3 0.9 0.2 0.1 0.5 0.1c0.6 0 1.4-0.5 1-1.1z"/>
	<path id="Layer" class="s48" d="m39.6 98.2q-0.1 0-0.2 0.1c0.4 0.6-0.4 1.1-1 1.1q-0.3 0-0.5-0.1-0.1 0-0.1 0.1 0.2 0.2 0.6 0.2c0.7 0 1.7-0.7 1.2-1.4z"/>
	<path id="Layer" class="s46" d="m64.2 98.9q0 0.1 0 0.1c-0.6 0.3-1.4 1-1.5 1.7 0.1 0.2 0.3 0.3 0.6 0.5q0.2 0 0.3 0c0.6-0.2 0.9-0.4 1.3-1.2q-0.2 0.1-0.3 0.2c-0.2 0.1-0.7 0.3-1 0.3-0.2 0-0.3 0-0.3-0.2q0-0.1 0.2-0.4c0 0 0.5-0.6 1.1-0.8q-0.1-0.1-0.4-0.2z"/>
	<path id="Layer" class="s48" d="m64 98.9c-0.3 0.1-0.6 0.4-0.9 0.7q-0.2 0.2-0.3 0.4-0.1 0.2-0.1 0.3-0.2 0.3-0.1 0.6 0 0.3 0.2 0.6 0 0 0.1 0c-0.3-0.4-0.3-0.9 0-1.4q-0.2 0.4-0.2 0.6c0.1-0.7 0.9-1.4 1.5-1.7q0 0 0 0-0.1-0.1-0.2-0.1z"/>
	<path id="Layer" class="s52" d="m62.7 100.7q0 0.3 0.1 0.6 0.1 0.1 0.1 0.2 0.5-0.1 0.7-0.2-0.1-0.1-0.3-0.1c-0.3-0.2-0.5-0.3-0.6-0.5z"/>
	<path id="Layer" class="s53" d="m62.9 100.1c-0.3 0.5-0.3 1 0 1.4q0 0 0 0 0-0.1-0.1-0.2-0.1-0.3-0.1-0.6 0-0.2 0.2-0.6z"/>
	<path id="Layer" class="s54" d="m64.6 99.1c-0.6 0.2-1.1 0.8-1.1 0.8q-0.2 0.3-0.2 0.4c0 0.2 0.1 0.2 0.3 0.2 0.3 0 0.8-0.2 1-0.3q0.1-0.1 0.3-0.2 0.1 0 0.1-0.1c0.2-0.4 0-0.6-0.4-0.8z"/>
	<path id="Layer" class="s3" d="m80.3 17.5c0 0-0.2-0.7-1-0.8-0.7-0.1-0.9-0.7-1.8-0.2-0.9 0.4-1.2 1-2.1 0.9-0.8 0-0.4 1.6-1.4 2-0.9 0.3-1.4 0.7-2.3 1.8-0.8 1.2-2.5 3.8-2.6 5-0.1 1.2-0.3 1.6-0.7 2.2-0.3 0.6-1.1 0.7-1.8 4-0.8 3.2-0.8 5.2-0.7 6.1 0.1 0.8 0.3 1.3-0.2 2.4-0.5 1.1-0.3 1.2-0.2 2.2 0.1 1.1-0.3 3.7-0.9 4.4-0.6 0.8 0.4 3.9 1.4 1.7 0.9-2.2 5.9-8.7 5.9-8.7 0 0 6.8-6.7 7.3-7.6 0.5-0.9 0.4-1.9 0.7-2.5 0.4-0.5 0.3-0.9-0.2-2.1-0.5-1.2 0-1.1 0.4-1.2 0.3-0.1 0.5-0.6 0.5-0.6 0 0 1.7-0.7 1-2.1-0.6-1.4 0.1-1.3 0.4-1.8 0.3-0.5 0-0.9 0.5-1.7 0.5-0.8 1.7-4.9-2.2-3.4z"/>
	<path id="Layer" class="s4" d="m80.3 17.5c0-0.1-0.2-0.7-1-0.8-0.5-0.1-0.7-0.4-1.2-0.4q-0.2 0-0.6 0.2c-0.9 0.4-1.2 0.9-1.9 0.9h-0.2c-0.2 0-0.3 0.1-0.4 0.3-0.3 0.5-0.3 1.4-1 1.7-0.9 0.3-1.4 0.7-2.3 1.8-0.9 1.2-2.5 3.8-2.6 5-0.1 1.2-0.4 1.5-0.7 2.2-0.3 0.6-1.1 0.7-1.9 4-0.5 2.4-0.6 4.2-0.6 5.2q0 0.5 0 0.9c0 0.4 0.1 0.7 0.1 1.1 0 0.3-0.1 0.7-0.3 1.3-0.3 0.6-0.3 0.9-0.3 1.2 0 0.3 0 0.5 0.1 1q0 0.2 0 0.5c0 1.2-0.4 3.3-0.9 3.9-0.1 0.2-0.2 0.5-0.2 0.8 0 0.3 0.1 0.8 0.2 1.1 0.2 0.4 0.4 0.6 0.7 0.6 0.2 0 0.4-0.2 0.7-0.8 0.4-1.1 1.9-3.3 3.3-5.2 0.7-0.9 1.3-1.8 1.8-2.4q0.4-0.5 0.6-0.8 0.2-0.3 0.2-0.3c0 0 1.7-1.6 3.5-3.4 0.9-0.9 1.8-1.8 2.5-2.6 0.7-0.7 1.2-1.3 1.3-1.6 0.5-0.9 0.4-1.9 0.7-2.4 0.2-0.3 0.3-0.5 0.3-0.7 0-0.4-0.2-0.8-0.5-1.5q-0.2-0.5-0.2-0.8c0-0.2 0.1-0.3 0.2-0.3 0.1-0.1 0.2-0.1 0.4-0.1 0.4-0.1 0.5-0.6 0.5-0.6 0 0 1.2-0.5 1.2-1.4q0-0.3-0.2-0.7-0.2-0.6-0.2-0.9c0-0.2 0.1-0.4 0.2-0.5 0.2-0.1 0.3-0.2 0.4-0.4 0.2-0.2 0.2-0.5 0.2-0.7 0-0.3 0.1-0.6 0.3-1 0.2-0.3 0.6-1.3 0.6-2.2 0-0.4-0.1-0.8-0.3-1.1-0.2-0.3-0.6-0.4-1.1-0.4q-0.6-0.1-1.4 0.2v0.1q0.9-0.3 1.4-0.3c1.1 0 1.4 0.7 1.4 1.5 0 0.9-0.4 1.8-0.6 2.2-0.3 0.4-0.3 0.7-0.3 1 0 0.2 0 0.5-0.2 0.7-0.1 0.2-0.3 0.3-0.4 0.4-0.1 0.1-0.2 0.3-0.2 0.5 0 0.2 0 0.5 0.2 0.9q0.2 0.4 0.2 0.6c0 0.5-0.3 0.9-0.6 1.1q-0.2 0.2-0.4 0.3-0.2 0.1-0.2 0.1v0.1c-0.1 0.1-0.3 0.4-0.5 0.5-0.2 0-0.3 0-0.4 0.1-0.1 0-0.2 0.1-0.2 0.3q0 0.3 0.2 0.8c0.3 0.7 0.4 1.1 0.4 1.5 0 0.2 0 0.4-0.2 0.6-0.3 0.6-0.2 1.6-0.7 2.5-0.1 0.3-0.6 0.8-1.3 1.6-1.1 1.1-2.6 2.6-3.8 3.9-0.6 0.6-1.2 1.1-1.6 1.5q-0.3 0.3-0.4 0.4-0.2 0.2-0.2 0.2c0 0-5 6.5-6 8.7-0.2 0.6-0.4 0.8-0.6 0.8-0.3 0-0.5-0.3-0.6-0.6-0.2-0.3-0.3-0.8-0.3-1.1 0-0.3 0.1-0.6 0.2-0.7 0.5-0.7 0.9-2.8 0.9-4q0-0.3 0-0.5c-0.1-0.5-0.1-0.7-0.1-1 0-0.3 0.1-0.6 0.3-1.2 0.3-0.6 0.3-0.9 0.3-1.3 0-0.4 0-0.7-0.1-1.1q0-0.4 0-0.9c0-1 0.1-2.7 0.7-5.2 0.7-3.3 1.5-3.4 1.8-4 0.4-0.6 0.6-1 0.7-2.2 0.1-1.2 1.8-3.8 2.7-5 0.9-1.1 1.3-1.5 2.2-1.8 0.5-0.2 0.7-0.7 0.8-1.1q0.1-0.4 0.2-0.6 0.1-0.2 0.4-0.2h0.2c0.7 0 1.1-0.6 1.9-1q0.4-0.2 0.6-0.2c0.5 0 0.7 0.3 1.3 0.4 0.3 0.1 0.5 0.2 0.7 0.4q0.1 0.2 0.1 0.3l0.1 0.1z"/>
	<path id="Layer" class="s16" d="m31.8 2.7c0.1-0.5 0.4-0.9 0.9-0.6 0.5 0.3 2.3 2 3.3 2.8 1 0.8 2.2 1.8 3.1 2.4 1 0.5 2.4 2 2.5 3 0.2 1 0.6 1 1.6 2.1 1 1 3 3.6 3.1 5.7 0 2 0.7 2.7 1.6 3.8 0.9 1.1 1.9 2.7 2.2 5.4 0.2 2.8-0.5 1.9 0.2 2.8 0.7 0.9 0.9 3.1 0.9 4.2 0 1.1 0.3 4 1.1 5 0.8 1.1-0.4 8.6-0.4 11-0.1 2.5-0.4 9.2-0.4 10.4 0 1.2-0.7 5.7-0.7 7.8 0 2.1 0 4.2-1.2 1.3-1.3-2.9-2.6-9-2.1-10 0.4-0.9-0.1-2.5-0.2-3.6-0.2-1.1-0.2-2-0.8-2.9-0.6-0.8-1.5-2.5-1.7-4.1-0.1-1.7-1.7-2.6-1.7-6.8 0-4.2-1-7.1-2.2-8.4-1.2-1.2-1.6-3.6-2.2-4.8-0.6-1.1-1.5-1.7-1.3-4.9 0 0 0.3-0.7-0.1-1-0.3-0.2-0.8-1.3-0.5-1.9 0.3-0.7 0.8-1.5 0.8-2.3 0-0.7 0.3-2.7-0.2-3.1-0.5-0.3-1.7-1.7-1.7-2.4-0.1-0.8-1.1-1.3-1.2-2.2-0.1-0.9-0.1-2.3-0.5-2.8-0.5-0.4-1.3-1.5-1.6-2.2-0.5-0.9-1-1.9-0.9-2.9 0-0.1 0.1-0.5 0.3-0.8z"/>
	<path id="Layer" class="s0" d="m42.9 39.3q0.2 0.9 0.2 2 0-1.1-0.2-2z"/>
	<path id="Layer" class="s1" d="m42.9 39.3q0.2 0.9 0.2 2c0.6 1.1 1 2.2 1.3 3.2 1 2.9 1.6 3.9 2.2 4.4-0.1-0.1-0.3-0.4-0.5-0.8-0.4-0.4-0.7-0.9-0.6-0.9 0.1 0 0.3 0.1 0.7 0.4 0.5 0.4 0.8 0.6 0.9 0.6 0.4 0-0.7-1.5-1.8-2.7-0.4-0.5-0.5-0.6-0.3-0.6 0 0 0.2 0 0.3 0.1 0.1 0 0.2 0.1 0.3 0.1 0.1 0 0.1-0.2-0.5-0.7-0.8-0.8-1-1.1-0.9-1.1 0.1 0 0.8 0.4 1.6 1q0.5 0.3 0.6 0.3c0.2 0-0.9-1.3-1.9-2.6-0.4-0.5-0.5-0.6-0.4-0.6 0.1 0 0.3 0 0.4 0.1 0.1 0.1 0.3 0.1 0.3 0.1 0.2 0 0-0.2-0.9-1.2q-0.6-0.6-1-1.1z"/>
	<path id="Layer" class="s1" d="m37.5 19.6c-0.1 0.6-0.4 1.2-0.7 1.7v0.1c-0.2 0.3-0.1 0.7 0 1.1l0.1 0.1c1 0.8 3 2.1 4.3 2.5q0.1 0.1 0.2 0.1c0.9 0-1.5-3-3.9-5.6z"/>
	<path id="Layer" class="s1" d="m37.7 16.7c0 0.4 0 0.9 0 1.4 0.7 0.5 1.5 0.9 2 1.2q0.3 0.1 0.4 0.1c0.3 0-0.7-1.1-2.4-2.7z"/>
	<path id="Layer" class="s0" d="m40.9 34.1q0.1 0.1 0.2 0.2-0.1-0.1-0.2-0.2zm-2.6-5.5q0.2 0.3 0.4 0.6-0.2-0.3-0.4-0.6z"/>
	<path id="Layer" class="s1" d="m37.4 24.9c0 2.1 0.4 2.9 0.9 3.7q0.2 0.3 0.4 0.6c0.6 1.2 1 3.6 2.2 4.8v0.1q0.1 0.1 0.2 0.2c0.9 0.7 2.2 1.9 3.1 2.5q0.5 0.4 0.6 0.4c0.4 0-0.9-1.4-2.4-2.8-1-0.8-1.2-1.2-1-1.2 0.2 0 1 0.5 1.8 1.1q0.6 0.5 0.8 0.5c0.2 0-0.7-1.3-2.6-3.3-0.7-0.7-0.8-0.9-0.7-0.9 0.1 0 0.3 0.1 0.5 0.2 0.2 0.1 0.4 0.2 0.5 0.2 0.1 0-0.1-0.2-1-1.1-1.1-1.1-1.4-1.5-1.3-1.5 0.2 0 1.6 1 2.7 1.6q0.2 0.1 0.3 0.1c0.4 0-2.6-2.7-5-5.2z"/>
	<path id="Layer" class="s0" d="m46.6 19.9q0 0.2 0.1 0.3-0.1-0.1-0.1-0.3z"/>
	<path id="Layer" class="s1" d="m45.4 15.5c-0.8 2.2-2 5.2-1.6 5.2q0.1 0 0.4-0.4c0.7-0.8 1.4-1.3 1.6-1.3 0.2 0 0.1 0.4-0.7 1.4-1.1 1.4-1.3 2.2-1.1 2.2q0.2 0 0.8-0.6c0.6-0.7 1.3-1.3 1.9-1.8q-0.1-0.1-0.1-0.3c-0.2-0.5-0.3-1-0.3-1.8v-0.1q-0.1-0.6-0.3-1.2v-0.1q-0.2-0.4-0.4-0.8v-0.1q-0.1-0.2-0.2-0.3z"/>
	<path id="Layer" class="s0" d="m41.7 10.4c0.1 0.7 0.3 0.9 0.8 1.3-0.5-0.4-0.7-0.6-0.8-1.3z"/>
	<path id="Layer" class="s1" d="m41.7 10.4c-0.2 1.2-0.3 2.2-0.4 2.5-0.2 0.3-0.2 0.5-0.1 0.5 0.2 0 0.7-0.4 1.3-1.7-0.5-0.4-0.7-0.6-0.8-1.3z"/>
	<path id="Layer" fill-rule="evenodd" class="s0" d="m51.2 34.3c0 0.3 0 0.7 0.1 1.2-0.1-0.5-0.1-0.9-0.1-1.2 0-1.1-0.2-3.3-0.9-4.2 0.7 0.9 0.9 3.1 0.9 4.2zm-1.2-7.1c-0.1-2-0.7-3.3-1.4-4.3 0.7 1 1.3 2.3 1.4 4.3z"/>
	<path id="Layer" class="s1" d="m48.2 22.4c-0.9 1-2.9 3.4-2.6 3.4q0 0 0.5-0.4c0 0 1.3-1.5 1.6-1.5q0.1 0 0 0.2c-0.2 0.7-1 1.7-0.9 1.7q0.1 0 0.5-0.3 0.6-0.6 0.9-0.6 0.3 0-0.4 1.2c-0.5 0.9-0.7 1.3-0.6 1.3q0.1 0 0.7-0.4c0.4-0.4 0.8-0.5 1-0.5 0.3 0 0.4 0.2 0.2 0.5-0.4 0.6-1.2 2.9-1.2 2.9 0 0-0.5 0.7-0.2 0.7 0.1 0 0.2-0.1 0.6-0.4 0.6-0.5 0.9-0.8 0.9-0.8 0.1 0-0.2 0.4-0.5 1.3-0.5 1.2-0.7 2.3-0.6 2.3q0.1 0 0.4-0.6c0.3-0.7 0.8-1 1.1-1 0.3 0 0.4 0.3 0 1-0.6 1.1-1.7 2.5-1.4 2.5q0.1 0 0.4-0.2 0.7-0.4 1-0.4c0.5 0 0.5 0.5 0 1.5-0.7 1.2-1.2 2.6-1.1 2.6 0.1 0 0.2-0.2 0.5-0.6 0.5-0.8 0.9-1.2 1.1-1.2 0.2 0 0.2 0.5-0.2 1.7-0.5 1.6-1.1 3.2-0.9 3.2 0.1 0 0.2-0.2 0.5-0.6 0.5-0.7 1.3-2 2-3.3v-0.1c-0.3-1.1-0.4-1.6-0.2-2-0.1-0.5-0.1-0.9-0.1-1.2 0-1.1-0.2-3.3-0.9-4.2-0.3-0.3-0.4-0.4-0.4-0.5 0-0.2 0.2-0.4 0.2-1.3q0-0.4 0-1l-0.1-0.1c-0.1-2-0.7-3.3-1.4-4.3q-0.2-0.3-0.4-0.5z"/>
	<path id="Layer" class="s55" d="m35.3 6.6c-0.2 0 0.5 0.8 1.2 1.7 0.6 0.9 1.3 1.7 1.2 1.7q-0.1 0-0.5-0.2c-0.6-0.6-0.9-0.8-1-0.8-0.2 0 0.7 1 1.6 2.1 1.2 1.2 2.2 3 1.6 3q-0.3 0-0.8-0.4c-0.6-0.4-0.9-0.6-1-0.6-0.2 0 0.7 1.1 1.8 2.1 1.2 1 2.3 2.4 1.6 2.4-0.1 0-0.5-0.1-1.1-0.4-0.8-0.5-1.2-0.8-1.3-0.8 0 0 0.9 0.7 1.9 1.9 1.3 1.5 1.4 2.2 1 2.2q-0.1 0-0.3-0.1c-0.4-0.2-1.2-0.7-1.3-0.7-0.1 0 0 0.1 0.2 0.3 0.5 0.5 2.1 2.4 1.9 2.4 0 0-0.3-0.2-0.8-0.6-0.7-0.7-1-1-1.2-1-0.2 0 0.6 1.1 1.7 2.4 1.4 1.6 2.3 3.2 1.3 3.2q-0.3 0-1.1-0.4c-0.8-0.3-1.2-0.5-1.2-0.5-0.2 0 1.2 0.8 2.4 1.7 1 0.8 1.4 1.3 1.1 1.3-0.2 0-0.9-0.4-2.2-1.4-0.8-0.6-1.2-0.9-1.3-0.9-0.2 0 1.1 1.3 2.4 2.7 1.5 1.6 2.5 2.8 2.1 2.8q-0.1 0-0.6-0.2c-0.7-0.4-1.2-0.6-1.3-0.6-0.2 0 0 0.3 0.9 1 1 0.7 1.5 1.4 1.1 1.4-0.2 0-0.6-0.2-1.3-0.7-0.6-0.5-0.9-0.7-1-0.7-0.2 0 0.7 1 1.6 2 1 1 1.8 2.1 1.5 2.1q-0.2 0-0.7-0.3-0.9-0.6-1.1-0.6-0.3 0 0.9 1.3c1 1 1.7 2.3 1.3 2.3-0.2 0-0.5-0.2-1.1-0.7-0.9-0.6-1.3-0.9-1.4-0.9-0.2 0 0.3 0.7 1.2 1.6 1.1 1 2.1 2.1 1.8 2.1q-0.1 0-0.8-0.4-0.9-0.6-1.2-0.6c-0.3 0 0.1 0.6 0.9 1.6 1.1 1.3 2.5 3.3 2.1 3.3-0.1 0-0.3-0.2-0.8-0.5-0.5-0.5-0.8-0.7-0.9-0.7-0.4 0 0.6 1.3 1.3 2.1 0.3 0.4 0.3 0.4 0.1 0.4q-0.1 0-0.3 0-0.2 0-0.3-0.1c-0.1 0-0.1 0.1 0.1 0.4 0.7 0.7 1.4 3.6 1.4 3.6q0 0-0.1-0.4c-0.2-1.4 2.4-5.8 1.6-5.8q-0.1 0-0.6 0.4-0.5 0.3-0.6 0.3c-0.3 0 0.1-0.6 0.5-1.3 0.4-0.7 0.8-1.3 0.5-1.3q-0.1-0.1-0.5 0.2c-0.6 0.5-1 0.7-1.2 0.7-0.6 0-0.1-1.3 0.4-2.8 0.4-1 0.5-1.4 0.3-1.4-0.1 0-0.6 0.3-1.2 0.8q-0.4 0.4-0.6 0.4c-0.4 0 0.3-1.4 0.7-2.9 0.3-1 0.5-1.4 0.4-1.4 0 0-0.3 0.2-0.9 0.5q-0.2 0.1-0.3 0.1c-0.3 0-0.2-0.5 0-1 0.2-0.5 0.4-1 0.3-1q-0.1 0-0.4 0.3-0.3 0.3-0.4 0.3c-0.3 0 0.9-2.4 1.5-3.6 0.1-0.3 0.1-0.4 0.1-0.4-0.1 0-0.4 0.4-0.7 0.8-0.4 0.3-0.7 0.7-0.9 0.7q-0.2 0-0.2-0.2c0-1 1.1-3.2 1-3.2 0 0-0.1 0.1-0.3 0.4-0.4 0.7-0.7 1-0.9 1-0.2 0-0.2-0.7 0.1-1.6 0.3-1 0.4-1.7 0.3-1.7q-0.1 0-0.3 0.4c-0.3 0.6-0.9 1-1.1 1-0.1 0-0.1-0.2 0.1-0.6 0.4-0.8 0.7-1.5 0.6-1.5q-0.1 0-0.5 0.4-0.3 0.4-0.5 0.4c-0.5 0-0.6-1.3 0.5-3.3 0.6-1 0.7-1.3 0.5-1.3-0.3 0-1.3 0.8-1.7 1.5q-0.3 0.3-0.6 0.3c-0.6 0-1.1-0.9-0.6-1.8 0.5-0.8 0.8-1.3 0.6-1.3q-0.1 0-0.6 0.4-0.4 0.3-0.5 0.3c-0.2 0 0.2-0.9 0.6-2.3 0.2-1 0.3-1.5 0.2-1.5-0.1 0-0.4 0.3-1 0.9-0.3 0.4-0.4 0.5-0.5 0.5-0.1 0 0.7-1.3 1-2.5 0.3-1.1 0.6-2 0.5-2 0 0-0.2 0.2-0.4 0.6-0.4 0.6-0.8 0.9-0.9 0.9-0.2 0-0.2-0.5 0.2-1.2 0.4-0.9 0.5-1.5 0.2-1.5-0.1 0-0.5 0.3-1 0.8q-0.5 0.5-0.7 0.5c-0.5 0-0.4-1.3-0.2-3.5 0.1-1.5-0.1-2.1-0.4-2.1-0.2 0-0.5 0.5-0.5 1.2q0 0.2-0.1 0.2c-0.7 0-3.6-3.8-3.6-3.8q-0.4-0.3-0.5-0.3z"/>
	<path id="Layer" class="s16" d="m40.3 61.6c-1.2 0.2-5.3-5-6.7-8.5-1.4-3.6-2.1-3.7-2.7-4.2-0.7-0.5 0 0-0.5-1.4-0.4-1.4-0.4-1-1.1-3-0.7-2-0.7-1.9-1.4-2.3-0.7-0.5-0.6-2.9-0.8-3.6-0.2-0.8-0.7-1.7-1.6-2.7-0.8-1-0.8-1.1-0.5-3.1 0.2-2.1 0.7-0.1-1.2-6.9-1.8-6.8-1-15-1-15 0 0-0.2-1.7 0.4-0.9 0.6 0.7 0.6 1.4 1.6 1.9 1.1 0.4 0.1 0.9 1.5 1.6 1.4 0.8 2 2.4 2.5 3.2 0.6 0.8 1.2 2.3 1.2 2.3-0.2 0-0.3 0-0.4 0.2-0.1 0.2 0.6 1.3 0.6 1.3 0.1 0.2 0.4 0.7 0.6 1 0.3 1.1-0.1 1.7-0.1 1.9 0 0.2 0.5 0.5 0.5 0.5 0.7 0.4 1.5 1.5 1.5 1.5 1.2 2.7 2.4 2.7 4.1 5.4 1.6 2.8 3.1 8.1 2.9 9.9-0.3 1.7 0.6 1.8 1.3 4.4 0.6 2.5-0.5 1.8 0.2 4.2 0.8 2.4 2 8.6 1.2 10.8-0.6 1.6-0.8 1.6-1.4 1.5-0.2 0-0.4 0-0.7 0z"/>
	<path id="Layer" class="s16" d="m39.9 58.5c-1-1.5-1.9-3.2-2.7-4.9-0.9-2.1-2-4-3.1-5.9-2.7-4.4-4.6-9.7-6.3-14.7-1.3-3.6-1.7-6.1-2.8-9.4-1.1-3.1-1.5-6-1.4-8.3q0-0.3 0-0.6 0-0.2 0-0.3c0-1.1-0.2-2.6-0.5-3.8q-0.1 0.3-0.2 0.6c0.3 1.1 0.4 2.3 0.4 3.2q0 0.1 0 0.2 0 0.4 0 0.7c-0.1 2.3 0.3 5.3 1.4 8.4 1.1 3.3 1.5 5.8 2.8 9.4 1.7 5 3.6 10.3 6.3 14.8 1.1 1.9 2.2 3.7 3.1 5.8q1.3 2.6 2.8 5l0.1 0.1 0.1-0.1z"/>
	<path id="Layer" class="s2" d="m45.5 85.5c0 0.1-0.2 0.1-0.4 0.1l-0.1-1.8c0 0 0.7 1.3 0.5 1.7z"/>
	<path id="Layer" fill-rule="evenodd" class="s56" d="m44.9 83.8h0.1c0 0 0.6 1 0.6 1.5v0.2c-0.1 0.2-0.3 0.2-0.5 0.2h-0.1zm0.3 1.7c0.1 0 0.3 0 0.3-0.1v-0.1c0-0.2-0.1-0.5-0.3-0.9q-0.1-0.1-0.1-0.3z"/>
	<path id="Layer" class="s2" d="m44.7 80.4c0 0.2-0.6 0.9-0.3 2.2-0.1-0.4-0.2-0.7-0.2-0.7l-0.1-2.1c0 0 0.6 0.3 0.6 0.6z"/>
	<path id="Layer" fill-rule="evenodd" class="s56" d="m44.1 81.9l-0.1-2.3 0.1 0.1c0 0 0.2 0.1 0.3 0.2 0.2 0.2 0.4 0.3 0.4 0.5 0 0.2-0.4 0.6-0.4 1.4q0 0.3 0.1 0.8h-0.1c-0.2-0.4-0.3-0.7-0.3-0.7zm0.2 0v-0.2c0-0.7 0.3-1.2 0.3-1.3 0-0.1-0.1-0.2-0.3-0.3l-0.1-0.2v2z"/>
	<path id="Layer" class="s2" d="m37.2 34.1c1.5-0.2 5.9 6.1 7.2 10.4 1.4 4.3 2.2 4.4 2.9 5 0.7 0.7 0 0 0.4 1.8 0.4 1.7 0.4 1.2 1 3.6 0.7 2.4 0.7 2.2 1.5 2.9 0.8 0.6 0.5 3.4 0.6 4.3 0.1 0.9 0.7 2 1.6 3.2 0.9 1.2 0.8 1.4 0.3 3.8-0.5 2.5-0.8 0.1 0.6 8.3 1.5 8.2-0.3 18.1-0.3 18.1 0 0 0 2-0.6 1.1-0.7-0.9-0.6-1.8-1.8-2.3-1.2-0.5 0-1-1.6-2-1.6-1-2.2-2.8-2.7-3.8-0.6-1-1.2-2.8-1.2-2.8v-0.1c0.2 0 0.4 0 0.4-0.1 0.2-0.4-0.5-1.7-0.5-1.7-0.2-0.2-0.4-0.7-0.6-1.2-0.3-1.3 0.3-2 0.3-2.2 0-0.3-0.6-0.6-0.6-0.6-0.8-0.6-1.6-1.9-1.6-1.9-1.1-3.3-2.7-3.2-4.4-6.6-1.7-3.4-2.9-9.8-2.5-11.9 0.5-2.1-0.5-2.3-1.1-5.3-0.5-3.1 0.8-2.3 0.2-5.2-0.6-2.9-1.5-10.4-0.3-13 1-1.9 1.2-1.9 1.9-1.8 0.2 0 0.5 0 0.9 0z"/>
	<path id="Layer" class="s57" d="m51 90.6q0 0.2-0.1 0.4-0.2 0.7-0.4 1.1-0.1 0.3-0.1 0.5c0.2 0.6 0.4 1.3 0.7 2l0.1 0.1q0-0.2 0-0.3c-0.2-0.3-0.3-0.8-0.2-2.3 0.1-1 0.1-1.4 0-1.5zm-13.7-52.9h-0.1c-0.1 0.5 2.3 4.4 3.1 6.8 0.9 2.4-0.3 2.2 0.7 2.5 1.1 0.4 0.1 0.9-1.7 1.9-1.2 0.6-0.5 0.7 0.7 0.7q0.2 0 0.4-0.1 0.2 0 0.4 0 0.5 0 0.9 0.1c1.8 0 1.1 1.5 0.3 2.1-0.5 0.4-1.2 1.1-0.8 1.1 0.2 0 0.6-0.2 1.3-0.5q0.7-0.3 0.8-0.3c0.5 0-2.2 1.9-4.4 3.6-0.7 0.6-0.9 0.8-0.8 0.8 0.4 0 3.7-1.8 5.8-2.1q0.1 0 0.2 0c0.8 0 0.3 0.8-0.4 1.6-0.6 0.8-1.4 1.6-1 1.6 0.1 0 0.4-0.1 0.9-0.4q0.9-0.5 1.3-0.5c1 0-1.8 3.2-4.2 5.8-1 1.1-1.4 1.5-1.2 1.5 0.2 0 2.1-1.5 4.1-3 0.8-0.6 1.2-0.8 1.4-0.8 0.6 0-1.2 2.3-2.6 4.6-0.6 1-0.8 1.4-0.7 1.4 0.1 0 1.5-1.8 3.2-3.5 0.9-0.8 1.4-1.2 1.7-1.2 0.5 0 0.2 1.2-0.3 2.3-0.5 1.1-0.6 1.6-0.5 1.6q0.1 0 0.5-0.6c0.2-0.5 1-1.5 1.2-1.5 0.2 0 0 0.9-1.7 4.2-1 2.1-1.3 2.8-1.2 2.8 0.3 0 2.5-3.5 3.1-4.2q0.2-0.4 0.3-0.4c0.3 0-0.3 1.8-1.5 5.5-0.7 2-0.9 2.8-0.8 2.8 0.1 0 0.8-1.3 1.8-3.2 0.5-0.8 0.7-1.1 0.9-1.1 0.4 0-0.7 3.9-2 7.8-0.6 1.6-0.7 2.2-0.6 2.2 0.3 0 1.8-2.6 3.3-4q0.2-0.2 0.3-0.2c0.6 0 0.2 2.7-0.3 5.3-0.6 2.6-1.2 5.3-1 5.3q0.1 0 0.4-0.7c1.8-3.8 2.2-8.2 2.2-8.2 0 0 0-0.3 0.1-0.3 0.1 0 0.3 0.3 0.6 1.7q0-1.4-0.1-2.7c-0.2-0.1-0.2-0.2 0-0.6q0-0.4-0.1-0.8c-0.1 0.2-0.2 0.3-0.2 0.3-0.1 0-0.1-0.3 0.1-1.1q0-0.7-0.2-1.2c-0.1 0.2-0.2 0.4-0.2 0.4q-0.1-0.6-0.2-1.2-0.1-0.1-0.2-0.5c-0.1-0.8-0.8-3.4-1.4-5.8q-1.2-4.6-2.4-7.9c-0.7-2.1-1.6-4.5-2.4-6.1q-0.2-0.4-0.3-0.8-0.6-1.1-0.8-1.1v0.1c-0.2 0-0.8-1.9-1-3.3 0-0.3-0.1-0.4-0.1-0.4v0.1l-0.1 0.1c-0.2 0-0.6-0.5-1.8-3.3-1.8-4.6-2.5-5-2.7-5z"/>
	<path id="Layer" class="s23" d="m42.3 39.8q0.1 0.1 0.1 0.3 0-0.2-0.1-0.3z"/>
	<path id="Layer" class="s11" d="m50.2 57.8c0.5 0.4 0.5 1.5 0.5 2.5h0.1c-0.1-1-0.1-2.1-0.6-2.5z"/>
	<path id="Layer" class="s21" d="m48.4 78.9c-0.1 0-0.6 1-1.2 2-0.4 0.7-0.9 1.4-1.2 1.8q0.2 0.5 0.5 1.1c1.5-3.7 2-4.9 1.9-4.9zm2.9-0.6q-0.1 0-0.1 0.4c0.2 2.3-0.2 4-0.6 5.1-0.3 0.9-1.4 3.3-2 4.8q0.3 0.6 0.6 1.2c1.1-2.7 1.6-3.7 1.7-3.7 0.1 0-1 3.2-1.3 4.7l0.1 0.1c0.1 0.3 0.4 0.9 0.6 1.6q0.1-0.1 0.2-0.4c0.2-0.8 0.4-1.5 0.5-1.5q0.2-0.4 0.3-0.5c0.1-3 0.2-7.5 0.2-11.3q-0.2-0.5-0.2-0.5zm-3.7-6.5c-0.3 0-2.7 6.3-3 7.1l-0.1 0.2q0.3 0.6 0.5 1.1l0.6-1.7c1.6-5 2.1-6.7 2-6.7zm-1.8-1.2c-0.3 0-1.9 3.3-2.9 4.6 0.4 0.8 0.8 1.8 1.2 2.8 0.1-1.1 0.3-3 1.2-5.5 0.4-1.4 0.6-1.9 0.5-1.9zm-8.5-36.5c-0.2 0.3-0.4 0.7-0.6 0.7q-0.2 0-0.5-0.3-0.2-0.3-0.5-0.4c-0.4 0.2-0.7 0.6-1.3 1.8q-0.1 0.4-0.3 0.8c-0.2 1-0.3 2.2-0.3 3.6 0 3.1 0.5 6.8 0.9 8.6 0.1 0.6 0.2 1 0.2 1.4 0 0.4-0.1 0.6-0.2 0.9-0.1 0.4-0.3 0.8-0.3 1.5q0 0.5 0.1 1.3c0.5 2.6 1.3 3.1 1.3 4.4q0 0.4-0.2 1-0.1 0.5-0.1 1.2c0 1.3 0.3 3 0.6 4.8 1 1.7 0.3 1.3 1 1.7 0.8 0.5 1.8 2.1 2.2 3 0.3 0.5 0.9 1.6 1.5 2.4 0.4 0.5 0.8 1 1.2 1.2q0.1 0.1 0.4 0.5c0.4-2 1.5-5.6 2.7-8.8 0.7-2 1-2.8 0.8-2.8-0.3 0-1.6 1.9-3.4 4.1 0 0-2.1 2.7-3.2 2.7q-0.4 0-0.6-0.4c-0.7-1.4 4.2-4.6 3.7-6.2q-0.1-0.3-0.3-0.3c-0.4 0-1 0.6-1.6 1.2-0.6 0.6-1.3 1.2-1.7 1.2-0.2 0-0.4-0.2-0.5-0.6-0.3-1.8 5.5-5.8 4.9-5.8-0.2 0-1.1 0.4-3 1.4 0 0-2.2 1.6-3 1.6q-0.2 0-0.2-0.1c-0.3-0.8-0.2-2.4-0.2-2.4 0.5-0.4 4.9-1.9 6.4-3.5 0.3-0.3 0.3-0.4 0-0.4-0.9 0-5.2 1.8-6.1 2.1h-0.2c-0.9 0-0.3-2.7 2.8-4.7 2.7-1.8 2.6-2.5 1.6-2.5q-0.3 0-0.7 0.1c-0.9 0.2-2.2 0.3-3.2 0.3-0.6 0-1.1 0-1.1 0-0.4-1.5 1.3-1.2 3.3-3.1 2.1-1.8-2.7-8.4-3-9.4-0.2-0.5-0.1-1.2 0.2-1.2 0.4 0 1 0.6 1.9 2.2 1.8 3.2 1.9 5.8 2.7 5.8q0.1 0 0.3-0.2 0.1-0.1 0.2-0.1c0.8 0 1 3.7 1.9 6.1 0.6 1.3 1.6 3.6 2.7 6.9 0.5 1.4 0.9 2.7 1.2 3.6 0.3 0.9 0.8 2.5 1.2 4.3q0.8 2.9 1.6 6.3 0.1 0.3 0.2 0.3l0.1-0.1c-0.5-2.4-0.6-4.9-0.4-7.3q-0.1 0-0.3 0-0.1 0.1-0.3 0.1c-0.2 0-0.3-0.2 0.1-1 0.4-0.8 0.7-2 0.9-3.3-0.1-1-0.1-2.1-0.6-2.5l-0.1-0.1c-0.6 1.2-1.1 1.9-1.3 1.9-0.2 0-0.3-0.4-0.1-1.2 0.2-1.4 0.2-2 0.1-2q-0.1 0-0.4 0.4-0.1 0.2-0.2 0.2c-0.4 0-0.6-1.6-0.6-1.6-0.3-2.5-0.2-4.1 0-5 0-0.6 0.3-0.4-0.3-0.9q-0.2-0.1-0.4-0.3h-0.1c-0.5 0-0.8 0.3-1.1 0.6-0.3 0.3-0.5 0.6-0.6 0.6-0.2 0-0.3-0.7-0.4-3.1-0.1-1.9-0.6-3.7-1.3-5.4q-0.5-0.9-1-1.8 0-0.2-0.1-0.3c-0.3 0.1-0.5 0.6-0.5 1.6-0.1 1.4-0.2 2-0.3 2-0.2 0-0.5-1.2-1-3.4-0.3-1.6-0.7-3.1-1.2-4.4-0.8-0.9-1.5-1.5-2-1.5z"/>
	<path id="Layer" fill-rule="evenodd" class="s58" d="m51 90.6c-0.1 0-0.3 0.7-0.5 1.5q0.2-0.4 0.4-1.1 0.1-0.2 0.1-0.4zm-2.1-25.3c0.7 2.4 1.3 5 1.4 5.8q0.1 0.4 0.2 0.5-0.8-3.4-1.6-6.3zm-5.1-14.8q0.1 0.4 0.3 0.8c0.8 1.6 1.7 4 2.5 6.1-1.2-3.3-2.2-5.6-2.8-6.9z"/>
	<path id="Layer" class="s16" d="m53.2 98.8c0 0-0.9-3.7-0.9-6.6q0-0.7 0.1-1.2 0.2-1.3 0.3-2.7c0.1-2.4-0.2-5.2-0.9-8.1-1.1-4.1-1.3-7.1-2.4-11.5-1.6-6-3.3-12.4-6.1-17.8-1.2-2.3-2.3-4.5-3.2-7.1-0.8-2.1-1.7-4.1-2.8-6l0.1-0.2 0.2 0.1c1.1 1.9 2 3.9 2.8 6 0.9 2.5 2 4.8 3.2 7.1 2.7 5.4 4.5 11.8 6.1 17.9 1.1 4.4 1.3 7.4 2.3 11.4 0.8 2.9 1.1 5.7 1 8.2q-0.1 1.4-0.3 2.7-0.1 0.5-0.1 1.2c0 1.4 0.2 3 0.4 4.3 0.2 1.3 0.5 2.2 0.5 2.2 0 0.1-0.1 0.2-0.1 0.2h-0.1z"/>
	<path id="Layer" class="s59" d="m73.3 89.3h-0.1 0.1zm1.1-0.4l-0.1 0.1 0.1-0.1z"/>
	<path id="Layer" class="s60" d="m71 89.6q-0.2 0.1-0.5 0.2 0.3-0.1 0.5-0.2z"/>
	<path id="Layer" class="s61" d="m69.2 77.9c0.5-0.7 0.6-0.9 1.3-1.1 0.6-0.2 1.2-0.6 2-1.6 0.8-1.1 2.3-2.1 3.1-3.1 0.9-1.1 1.9-4.1 2-5.2 0.1-0.4 0.2-0.9 0.4-1.4-2.1 4.1-3.4 5.1-3.9 5.8-0.6 0.6-2.1 1.4-3.3 3-1.2 1.5-2 2.7-3.5 3.5q-0.8 0.5-1.4 1.1c1.2 0.2 2.9-0.5 3.3-1z"/>
	<path id="Layer" class="s2" d="m85.2 68.6c-0.2-0.6 0.5-1.6 0.1-2.3-0.5-0.7-0.3-2.4-1.3-2-0.5 0.2-0.8 0.1-1 0-0.4-0.2-0.7-0.3-1.3 0-1.1 0.7-0.8-0.1-2-0.1-1.2-0.1-1.6 1.1-1.6 1.1l-0.1 0.2c-0.2 0.5-0.3 1-0.4 1.4-0.1 1.1-1.1 4.1-2 5.2-0.8 1-2.3 2-3.1 3.1-0.8 1-1.4 1.4-2 1.6-0.7 0.2-0.8 0.4-1.3 1.1-0.4 0.5-2.1 1.2-3.3 1-0.7 0.7-1.2 1.6-1.4 2.1-0.2 0.7-1.8 1.6-2.3 3-0.4 1.3-0.3 1.8-1.6 2.7-1.4 0.8-2.6 3.7-2.6 4.9-0.1 1.1-0.4-0.2-1.4 1.3-1 1.5-2.4 5-2.4 5-1.1 1.8-0.1 0.8 0.9 0.6 0.9-0.2 7.9-4.5 8.6-5.3 0.6-0.7 1.2-1.4 2.7-2.1 1.5-0.8 2.8-0.6 3.7-0.8 0.8-0.3 0.9-0.9 2.9-1.3 1.9-0.4 2.3-0.5 3.1-1.2 0.9-0.6 0.4-0.7 0.9-1.3 0.5-0.6 0.9-0.9 0.9-1.5 0-0.6 0.5-0.8 1.2-0.8 0.7-0.1 1.4-0.7 1.4-0.7 3.6-2.2 3.6-6.2 3.7-7.5 0-1.4 1.5-2.5 1.8-3.9 0.2-1.4-0.6-2.8-0.8-3.5z"/>
	<path id="Layer" class="s62" d="m66.3 80c-0.2 0-0.5 1.5-0.5 2.6 0 0.7-0.2 1.3-0.4 1.3-0.2 0-0.4-0.5-0.6-1.7 0-0.5-0.1-0.8-0.2-0.8-0.2 0-0.5 2.5-0.5 3.6 0 0.6-0.2 0.9-0.4 0.9-0.3 0-0.6-0.5-0.7-1.5 0-0.4-0.1-0.6-0.1-0.6-0.1 0-0.2 1.4-0.2 2.5-0.1 0.4-0.1 0.5-0.2 0.5 0 0-0.1-0.1-0.1-0.2-0.1-0.1-0.2-0.2-0.3-0.2-0.1 0-0.2 0.1-0.2 0.6-0.1 0.5-0.2 0.6-0.3 0.6 0 0-0.1-0.1-0.1-0.2-0.1-0.1-0.1-0.2-0.2-0.2 0 0 0 0.1-0.1 0.4q0 1.2-0.2 1.2-0.1 0-0.1-1.1c0-0.4-0.1-0.6-0.2-0.6-0.1 0-0.3 0.7-0.3 1.7-0.1 0.8-0.1 1.2-0.2 1.2-0.1 0-0.2-0.3-0.3-0.8q-0.1-0.3-0.1-0.3c-0.1 0-0.1 1.8-0.1 1.8-0.1 0.6 0 0.9 0.1 0.9 0.2 0 0.5-0.6 0.6-1.3 0.1-0.6 0.2-0.9 0.3-0.9 0 0 0 0.2 0 0.5q0 0.4 0.1 0.4c0.1 0 0.4-0.6 0.5-0.9 0-0.4 0.2-0.7 0.3-0.7q0 0 0 0.3 0 0.2 0.1 0.2c0.1 0 0.4-0.8 0.4-1.6 0-0.5 0.1-0.7 0.2-0.7 0.1 0 0.2 0.4 0.4 0.7q0.1 0.2 0.2 0.2c0.1 0 0.2-0.4 0.3-1.1 0-0.5 0-0.8 0-0.8 0 0 0 0.2 0.2 0.6q0.1 0.1 0.1 0.1c0.2 0 0.5-0.4 0.8-0.9 0.3-0.4 0.5-0.9 0.6-0.9q0.1 0 0.1 0.2c0 0.4 0.1 0.5 0.2 0.5 0.1 0 0.4-0.8 0.5-1.1 0.2-0.4 0.4-0.8 0.5-0.8q0.1 0 0.1 0.2 0 0.2 0 0.2c0.1 0 0.4-0.8 0.5-1.3q0.1-0.5 0.3-0.5 0.2 0 0.3 0.3l0.1 0.1c0.2 0 0.4-1.1 0.3-2.1 0-0.3-0.1-0.4-0.1-0.4-0.1 0-0.3 0.8-0.3 1.3 0 0.3-0.2 0.6-0.3 0.6-0.3 0-0.5-0.4-0.6-1.3-0.1-0.5-0.1-0.7-0.2-0.7z"/>
	<path id="Layer" class="s57" d="m79 64.3c-0.6 0.3-0.9 1-0.9 1l-0.1 0.2c-0.2 0.5-0.3 1-0.4 1.4-0.1 1.1-1.1 4.1-2 5.2-0.8 1-2.3 2-3.1 3.1-0.8 1-1.4 1.4-2 1.6-0.7 0.2-0.8 0.4-1.3 1.1h-0.1c-0.4 0.5-1.6 1-2.7 1h-0.1q-0.2 0-0.4 0-0.2 0.1-0.3 0.3c0.1 0 0.2 0.2 0.2 0.6q0 0.3 0 0.3c0.1 0 0.2-0.2 0.3-0.3 0.1-0.2 0.2-0.4 0.3-0.4 0.1 0 0.2 0.2 0.2 0.5 0.1 0.3 0.1 0.5 0.2 0.5 0.1 0 0.2-0.3 0.3-0.5 0-0.3 0.1-0.6 0.1-0.6q0.1 0 0.1 0.4-0.1 0.3 0 0.3c0.1 0 0.2-0.2 0.3-0.5 0.2-0.2 0.3-0.4 0.4-0.4 0.1 0 0.2 0.1 0.2 0.5 0 0.4 0 0.5 0.1 0.5 0.1 0 0.2-0.4 0.3-0.8 0.1-0.4 0.2-0.8 0.3-0.8q0 0 0.1 0.2 0 0.3 0.1 0.3c0.1 0 0.3-0.3 0.4-0.6 0.2-0.3 0.3-0.6 0.4-0.6q0.1 0 0.1 0.3 0 0.2 0.1 0.2c0.1 0 0.2-0.2 0.3-0.4 0.1-0.2 0.3-0.4 0.3-0.4 0.1 0 0.1 0.1 0.1 0.5 0 0.4 0 0.5 0 0.5 0.1 0 0.3-0.3 0.4-0.7 0.2-0.3 0.3-0.6 0.4-0.6 0 0 0 0.2-0.1 0.7-0.3 1.8-1.2 2.7-1.5 2.7q-0.2 0-0.2-0.2c0-0.3-0.1-0.6-0.2-0.6-0.2 0-0.4 0.3-0.7 1.3-0.7 1.7-1.9 2.2-3.1 3.7-1.2 1.5-5.5 7.2-5.5 7.2 0 0-0.2 0.3-0.4 0.4-0.1 0.1-0.2 0.4 0 0.4h0.1 0.1v-0.1h0.1q0.2-0.1 0.3-0.1 0.1-0.1 0.2-0.1 0.2 0.1-0.1 0.4l-0.1 0.1v0.1c-0.3 0.3-0.6 0.7-0.6 0.9q0-0.1 0.2-0.3c1.1-1.2 2.6-1.9 2.2-1.9q-0.1 0-0.6 0.1-0.2 0.1-0.4 0.1c-0.9 0 1.6-2.4 2.5-2.7 0.9-0.4-1.2-0.2 0.7-0.7 1.8-0.5-1.4-0.5 1.1-1 2.6-0.4-2.3-0.8 0.6-1.2 2.8-0.4-0.8-0.5 0.2-0.9 1.1-0.5 3.6-0.7 2.1-1-1.5-0.3-1.5-0.9 0.8-1.1 2.3-0.2 2.7-0.1 0.8-0.5-1.8-0.3-1.4-0.8 0-0.9 1.4-0.2 2.1-0.2 0.7-0.4-1.4-0.1 0.7-1.4 2.1-1.7 1.3-0.3 2-0.5 1.4-0.5q-0.1 0-0.3 0h-0.1c-1 0-1.4-0.4 1.1-1.1 0.8-0.2 0.9-0.3 0.7-0.3-0.1 0-0.3 0-0.5 0.1-0.2 0-0.5 0-0.6 0-0.3 0-0.4-0.1 0.1-0.2 1.2-0.5 1.7-0.8 1.3-0.8q-0.2 0-0.6 0.1-0.2 0-0.3 0c-0.5 0 1.4-0.9 2.3-1.1 0.6-0.2 1-0.4 0.7-0.4q-0.2 0-1 0.2-0.3 0-0.4 0c-0.7 0 0.8-1 1.9-1.4 0.9-0.3 1.4-0.5 1.2-0.5-0.1 0-0.5 0.1-1.3 0.2q-0.3 0.1-0.5 0.1c-1 0 1.3-1.5 2.3-2 0.6-0.4 1-0.6 0.8-0.6q-0.2 0-1.2 0.3-0.2 0.1-0.3 0.1c-0.3 0 0.4-0.6 1.1-1.2 0.7-0.6 1.4-1.1 1.3-1.1q-0.1 0-0.5 0.2c-0.4 0.2-0.6 0.3-0.7 0.3-0.4 0 1.2-1.5 1.8-2.4 0.3-0.4 0.3-0.5 0.3-0.5-0.1 0-0.2 0.1-0.3 0.1-0.1 0.1-0.2 0.2-0.2 0.2q-0.1 0 0-0.2c0.1-0.4 0.1-0.7 0-0.7 0 0-0.2 0.3-0.6 1-0.5 1-1 1.8-1.1 1.8q-0.1 0-0.1-0.3c-0.1-0.4 0-0.7-0.1-0.7 0 0-0.1 0.3-0.2 1-0.2 1.1-0.8 1.9-1 1.9q-0.2 0-0.1-0.3c0-0.5 0-1-0.1-1-0.1 0-0.2 0.2-0.3 0.8-0.1 0.8-0.3 1.4-0.4 1.4-0.1 0-0.2-0.3-0.2-1.2-0.1-2.1-0.3-5 0.5-6.3q0.2-0.3 0.3-0.6z"/>
	<path id="Layer" class="s63" d="m60.5 93.1c0.6-0.6 0.3-0.7-0.4-0.4-0.5 0.3-0.3-0.1-0.2-0.3-0.1 0.1-0.3 0.1-0.4-0.5-0.2-1-0.1-1.8-0.3-0.7-0.1 1.2-0.7 1.1-0.5-0.1 0.3-1.3 0.7-2.3 0.7-1.8 0 0.2 0.1-0.1 0.2-0.5 0.1-0.4 0.2-0.8 0.3-0.4 0.2 0.5 0.3-0.9 1-1.9q-0.2 0.1-0.3 0.2c-1.4 0.8-2.6 3.7-2.6 4.9-0.1 1.1-0.4-0.2-1.4 1.3-1 1.5-2.4 5-2.4 5-1.1 1.8-0.1 0.8 0.9 0.6 0.7-0.2 4.5-2.5 6.8-4l0.1-0.7c0 0-2.7 1.2-2.1 0.2 0-0.2 0.3-0.6 0.6-0.9z"/>
	<path id="Layer" class="s16" d="m53.7 98.8l0.1-0.2c4.7-3.4 7.9-9.4 11.5-13.4 3.6-4 4.1-4.2 8.9-8 3.6-2.8 6.1-6.7 7.2-8.4 0.3-0.5 0.5-0.9 0.5-0.9l0.2-0.1 0.1 0.3c0 0-3 5.5-7.8 9.3-4.9 3.9-5.2 4-8.9 8-3.6 3.9-6.8 10-11.6 13.5h-0.1z"/>
	<path id="Layer" fill-rule="evenodd" class="s64" d="m70.6 90c0.5-0.3 0.9-0.7 2.4-1-1.5 0.3-1.9 0.7-2.4 1zm6.2-3.2q0-0.1 0.2-0.3-0.2 0.2-0.2 0.3zm0.9-1.1c-0.2 0.2-0.4 0.4-0.7 0.8 0.3-0.4 0.5-0.6 0.7-0.8zm8.3-14.1c0-0.9-0.3-1.7-0.5-2.3 0.2 0.6 0.5 1.4 0.5 2.3zm-0.7-5.2q0 0 0 0 0 0 0 0zm0 0c0.3 0.6-0.2 1.4-0.1 2-0.1-0.6 0.4-1.4 0.1-2zm-1.3-2.1q-0.3 0.1-0.5 0.1 0.2 0 0.5-0.1zm-4.3-0.1q0.2 0 0.4 0-0.2 0-0.4 0zm0.4 0c0.3 0.1 0.4 0.2 0.6 0.3-0.2-0.1-0.3-0.2-0.6-0.3zm1.7 0.1q0.3-0.2 0.6-0.2-0.3 0-0.6 0.2z"/>
	<path id="Layer" class="s62" d="m82.4 64.1q-0.3 0-0.6 0.2l-0.6 1c0 0-0.3 0.3-0.4 0.3-0.1 0-0.2-0.2-0.1-0.8q0-0.2 0-0.3c-0.2-0.1-0.5-0.3-1-0.3h-0.1-0.1q-0.1 0-0.2 0c-0.1 1.1 0 2.7 0 2.7 0 0-0.3-1.1-0.6-1.1-0.1 0-0.2 0.2-0.2 0.8-0.2 1.6-0.2 3.6 0 3.6q0 0 0.1-0.3c0.3-0.7 0.5-1.5 0.7-1.5 0 0 0.1 0.3 0 0.9 0 0.8 0.1 1.2 0.2 1.2 0.1 0 0.4-0.5 0.5-1.2 0.3-1.1 0.8-2.9 0.9-2.9 0 0 0 0.2 0 0.5-0.1 0.9 0 1.4 0.2 1.4 0.1 0 0.5-0.6 1-1.9 0.5-1 0.7-1.3 0.7-1.3 0.1 0-0.1 0.7-0.2 1.3q0 0.2 0.1 0.2c0.2 0 0.4-0.1 0.6-0.2 0.2-0.2 0.4-0.3 0.5-0.3 0.2 0 0.1 0.4-0.8 1.7-0.8 1.3-0.7 1.6-0.5 1.6 0.2 0 0.5-0.1 0.7-0.3 0.2-0.1 0.4-0.2 0.4-0.2 0 0-0.1 0.1-0.5 0.4-1.7 1.5-2.7 2.1-2 2.1q0.1 0 0.3 0c0.7-0.1 1.6-0.3 1.8-0.3 0.2 0 0.1 0.1-0.8 0.5-1.8 0.9-3.8 1.5-1.9 1.5q0.3 0 0.6 0 0.7 0 1.2 0c1.4 0 0.8 0.2-1.3 1-2 0.8-3.3 1.1-2 1.1q0.3 0 1.1 0 0.5 0 0.9 0c1.9 0 1.7 0.4-1.3 1-3.2 0.6-4.1 1.3-1.9 1.3q0.3 0 0.8-0.1 1.4 0 2.2 0c1 0 0.7 0.1-1.6 0.6-3.2 0.7-5.8 1.2-3.2 1.2q0.3 0 0.7 0 0.3 0 0.6 0c2.8 0 0.9 0.6-2 0.9-3.1 0.3-5.3 0.9-2 1.2 3.1 0.3 5.4 0.7 3.4 0.7h-0.1q-0.2 0-0.4 0c-1.9 0-1.7 0.1 0 0.5 1.8 0.3 1.7 0.7-0.5 0.8q-0.2 0-0.3 0c-0.7 0-1.5-0.1-2.2-0.2-0.6-0.1-1.1-0.2-1.3-0.2-0.3 0-0.1 0.1 0.8 0.5 2.2 0.9 4.1 1.5 2.5 1.5q-0.3 0-0.8-0.1c-2-0.1-4.5-0.6-5.1-0.6-0.2 0 0 0.1 1 0.5 2.4 0.8 4.9 1.5 3.6 1.5q-0.5 0-1.7-0.1c-1.8-0.2-2.9-0.4-3.4-0.4-0.6 0-0.2 0.3 1.1 0.9 1.6 0.7 1.8 1 1 1q-0.6 0-2-0.2c-1.2-0.1-1.7-0.2-1.9-0.2-0.2 0 0.3 0.2 1.3 1q1.4 1.1 0.9 1.1-0.5 0-2.2-0.7c-0.5-0.2-0.7-0.2-0.9-0.2-0.3 0 0 0.3 0.2 0.6 0.3 0.3 0.5 0.7 0 0.7q-0.1 0-0.2-0.1c-0.5 0-1-0.1-1.4-0.1-0.8 0-1.1 0.2 0.1 0.7 0.7 0.2 1.4 0.4 2 0.7q0.2-0.1 0.5-0.2c0.8-0.2 1.5-0.3 2.1-0.3h0.1c-0.8-0.3-1.4-0.6-0.9-0.6 0.3 0 0.9 0.1 1.9 0.3l0.1-0.1c0.5-0.3 0.9-0.7 2.4-1 1.9-0.4 2.3-0.5 3.1-1.2h0.1q0.1-0.1 0.2-0.2c-1-0.3-2.7-0.8-2.3-0.8 0.2 0 0.6 0 1.3 0.2q0.7 0.1 1.3 0.1 0-0.1 0.1-0.3 0-0.1 0.2-0.3c0.3-0.4 0.5-0.6 0.7-0.8-1.3-0.3-2.2-0.8-1.1-0.8q0.4 0 1.3 0.1c0-0.6 0.5-0.8 1.2-0.8q-0.4-0.1-1-0.2c-2.5-0.3 0.3 0 3-0.9 0.7-0.5 1.3-1.2 1.7-1.9-6-0.1-9-0.4-1.5-0.8q1.2 0 2-0.1 0.3-0.6 0.4-1.2c-0.6 0-1.3-0.1-2-0.1h-0.2q-0.1 0-0.3 0c-2.3 0 1-0.3 2.7-0.5 0.2-1 0.2-2 0.3-2.5q0-0.1 0-0.2v-0.1-0.2q-0.8 0.2-1.1 0.2c-0.7 0 0.2-0.5 1.4-1.2q0.2-0.2 0.5-0.4c0.4-0.6 0.8-1.3 1-2v-0.1-0.1-0.1-0.1-0.1c0-0.9-0.3-1.7-0.5-2.3-0.6 0.1-1.3 0.4-1.4 0.4-0.1 0 0-0.2 0.4-0.5q0.3-0.3 0.7-0.8c-0.1-0.6 0.5-1.4 0.1-2v-0.1c-0.5-0.6-0.3-2-1-2q-0.1 0-0.3 0-0.3 0.1-0.5 0.1c-0.2 0-0.4-0.1-0.5-0.1-0.2-0.1-0.4-0.2-0.6-0.2z"/>
	<path id="Layer" class="s65" d="m57.4 92.4q-0.1 0-0.3 0.3c-0.4 0.8-0.8 2.6-0.7 2.6q0 0 0.1-0.2c0.2-0.6 0.6-1.4 0.7-1.4q0 0 0 0.2c0 0.3-0.1 0.9 0 0.9q0 0 0.2-0.3c0.3-0.9 0.2-1.5 0.2-1.5 0 0 0-0.6-0.2-0.6z"/>
	<path id="Layer" class="s66" d="m64.7 92.1q-0.8 0.3-1.5 0.8c-1.1 0.6-1.4 0.7-1.2 0.7 0.2 0 0.6-0.1 1.2-0.2q0.2 0 0.3 0l0.2-0.2q0.2-0.2 0.4-0.5 0.3-0.3 0.6-0.6z"/>
	<path id="Layer" class="s2" d="m57.4 49c0 0.1 0.2 0.1 0.3 0.2l0.1-1.4c0 0-0.6 1-0.4 1.2z"/>
	<path id="Layer" fill-rule="evenodd" class="s56" d="m57.7 49.2q-0.1 0-0.3 0l-0.1-0.1c-0.1-0.1 0-0.3 0.1-0.5 0.1-0.3 0.4-0.8 0.4-0.8l0.1-0.2-0.1 1.6zm-0.3-0.2l0.2 0.1 0.1-1-0.1 0.1c0 0.1-0.1 0.3-0.2 0.5q-0.1 0.2 0 0.3z"/>
	<path id="Layer" class="s2" d="m58 45.4c0 0.1 0.5 0.6 0.2 1.5 0.1-0.2 0.2-0.5 0.2-0.5l0.1-1.5c0 0-0.5 0.3-0.5 0.5z"/>
	<path id="Layer" fill-rule="evenodd" class="s56" d="m58.5 46.4c0 0-0.1 0.3-0.2 0.6l-0.1-0.1c0.1-0.6-0.1-1.1-0.2-1.3 0-0.1-0.1-0.1-0.1-0.2v-0.1c0.1-0.1 0.2-0.2 0.3-0.3 0.1-0.1 0.2-0.2 0.2-0.2h0.1v1.6zm-0.1 0v-1.4l-0.1 0.1c-0.1 0.1-0.3 0.2-0.3 0.2l0.1 0.2q0.1 0.1 0.2 0.3 0.1 0.2 0 0.7zm-0.3-1.1z"/>
	<path id="Layer" class="s2" d="m63.5 11.8c-1.2-0.1-4.6 4.5-5.7 7.7-1 3.1-1.6 3.3-2.2 3.7-0.6 0.5 0 0-0.3 1.3-0.3 1.2-0.3 0.9-0.8 2.7-0.5 1.7-0.5 1.6-1.1 2-0.6 0.5-0.3 2.5-0.4 3.2-0.1 0.6-0.6 1.5-1.3 2.4-0.7 0.9-0.6 1-0.2 2.7 0.5 1.8 0.7 0-0.4 6-1.1 5.9 0.5 13.1 0.5 13.1 0 0 0 1.4 0.5 0.7 0.4-0.7 0.4-1.3 1.3-1.7 1-0.4 0.1-0.8 1.3-1.5 1.2-0.8 1.7-2.1 2.1-2.9 0.5-0.7 0.9-2 0.9-2-0.1-0.1-0.3-0.1-0.3-0.2-0.2-0.2 0.4-1.2 0.4-1.2 0.1-0.1 0.3-0.5 0.4-0.9 0.3-0.9-0.2-1.4-0.2-1.5 0-0.2 0.5-0.5 0.5-0.5 0.6-0.5 1.2-1.4 1.2-1.4 0.9-2.4 2.1-2.4 3.5-4.9 1.3-2.5 2.2-7.2 1.8-8.7-0.4-1.5 0.4-1.6 0.8-3.9 0.4-2.2-0.7-1.5-0.2-3.6 0.5-2.1 1.1-7.6 0.1-9.4-0.8-1.4-0.9-1.3-1.5-1.3q-0.3 0.1-0.7 0.1z"/>
	<path id="Layer" class="s66" d="m51.8 41c0 0-0.8 3.4-0.9 6.5 0 1 0 1.4 0.1 1.4 0.1 0 0.3-1.8 0.9-3.4 0.7-2.4-0.5-3.1 0.2-3.2 0.8-0.1 0.2-0.2-0.3-1.3z"/>
	<path id="Layer" class="s57" d="m63.5 14.4c-0.2 0-0.7 0.3-2.2 3.7-0.9 2-1.2 2.4-1.4 2.4v-0.1l-0.1-0.1c0 0 0 0.1 0 0.3-0.2 1.1-0.6 2.4-0.8 2.4v-0.1q-0.1 0.1-0.6 0.9-0.1 0.3-0.2 0.6c-0.6 1.1-1.3 2.8-1.9 4.3q-0.8 2.4-1.8 5.7c-0.5 1.9-1 3.8-1.1 4.5q0 0.2-0.1 0.4-0.1 0.4-0.2 0.8c0 0-0.6-1.1-0.8-1.1 0 0 0 0.2 0.2 0.9 0.5 1.2 0.5 1.6 0.4 1.6 0 0-0.1-0.2-0.3-0.4-0.2-0.2-0.4-0.5-0.5-0.5-0.1 0 0 0.1 0.1 0.5 0.5 0.8 0.8 1.1 0.4 1.2-0.4 0.2-0.7-0.1-0.4 0.5 0.2 0.6 0.3 1.2 0 2.3-0.3 1-0.9 3.8-0.8 5.5 0.1 0.6 0 0.9-0.1 0.9-0.1 0-0.3-0.7-0.4-1.4q-0.1-0.2-0.2-0.7c0.2 3.9 0.9 7.2 0.9 7.2 0 0 0 0.9 0.2 0.9q0.1 0 0.2-0.1 0.1-0.5 0.2-1-0.1 0.3-0.1 0.3c-0.1 0 0.1-1.8-0.1-2.9-0.2-1.3-0.8-3.5 0.2-8 0.6-2.3 0.8-2.8 0.9-2.8 0.1 0 0.1 0.2 0.1 0.2 0 0 0.2 2.3 1.2 4.7q0.3-0.3 0.5-0.6-0.2-0.8-0.4-1.6c-0.4-1.9-0.8-3.8-0.3-3.8q0.1 0 0.2 0.2c0.7 0.5 1.5 1.4 2 2q0.1-0.5 0.1-1c-1-2.7-1.9-5.4-1.5-5.4 0.1 0 0.3 0.3 0.6 0.8 0.8 1.1 1.3 1.9 1.5 2.1v-0.1c-0.1-0.3-0.3-0.9-0.6-1.8-1-2.6-1.5-3.8-1.3-3.8q0.1 0 0.3 0.2c0.4 0.5 2.1 2.7 2.4 2.9v-0.1c0-0.2-0.3-0.8-1-1.9-1.3-2.3-1.5-2.9-1.3-2.9 0.2 0 0.8 0.7 1 1q0.2 0.4 0.3 0.4c0.1 0 0-0.3-0.3-1.1-0.4-0.8-0.7-1.6-0.3-1.6 0.3 0 0.7 0.2 1.3 0.8 1.4 1.1 2.5 2.3 2.6 2.3 0.1 0-0.1-0.2-0.6-0.9-1.1-1.6-2.6-3.3-2.1-3.3 0.2 0 0.5 0.2 1.1 0.6 1.7 1 3.2 2 3.4 2 0.1 0-0.2-0.3-1-1-2-1.8-4.3-4-3.4-4q0.3 0 1 0.2 0.6 0.3 0.8 0.3c0.3 0-0.4-0.6-0.9-1.1-0.5-0.6-1-1.2-0.3-1.2h0.2c1.6 0.2 4.2 1.3 4.6 1.3 0.1 0-0.1-0.1-0.6-0.5-1.8-1.2-4-2.5-3.6-2.5q0.1 0 0.6 0.2c0.6 0.3 0.9 0.3 1.1 0.3 0.3 0-0.2-0.4-0.7-0.7-0.6-0.4-1.2-1.4 0.3-1.5 1.4-0.2 3.2 0 1.8-0.6-1.4-0.6-2.1-1-1.3-1.3 0.8-0.3-0.2-0.1 0.5-1.9 0.7-1.7 2.5-4.6 2.4-4.9z"/>
	<path id="Layer" fill-rule="evenodd" class="s23" d="m53.1 29.7q0.1-0.3 0.3-0.4-0.2 0.1-0.3 0.4zm2.3-5.8c0-0.3-0.1-0.4 0-0.4-0.1 0 0 0.1 0 0.4zm3.2-6.3q0.4-0.8 0.9-1.6-0.5 0.8-0.9 1.6zm7.1-4.6c-0.3-0.6-0.5-0.9-0.7-1.1 0.2 0.2 0.4 0.5 0.7 1.1z"/>
	<path id="Layer" fill-rule="evenodd" class="s21" d="m55.9 45.7q-0.1 0.2-0.2 0.4c-0.5-1.3-0.7-1.7-0.7-1.7 0.1 0 0.4 0.6 0.9 1.3zm-3.1-1.3c-0.2 1.6 0.2 2.8 0.5 3.6q0.1 0.3 0.4 0.8c-0.4 0.4-0.7 0.9-0.9 1.5-0.6 1.7-0.3 3.5-0.5 5.3q0 0.1 0 0.2v0.1c-0.1 0.1-0.2 0.2-0.2 0.2 0 0 0.5-1.3-0.1-4.3-0.5-2.6 0.6-7.7 0.7-7.7q0.1 0 0.1 0.3zm4-2.8q-0.1 0.4-0.1 0.8c-0.9-2.3-1.2-3.1-1.1-3.1 0.1 0 0.7 1.1 1.2 2.3zm0.8-2.6q-0.1 0.3-0.2 0.6c-0.4-0.9-0.4-1.2-0.3-1.2 0 0 0.2 0.2 0.5 0.6zm7.4-27.1c0.2 0.2 0.4 0.5 0.7 1.1 0.4 0.7 0.5 2 0.5 3.4 0 2.2-0.3 4.7-0.6 6q-0.1 0.6-0.1 0.9c0 0.8 0.4 0.9 0.4 1.9q0 0.3-0.1 0.8c-0.3 1.9-0.9 2.3-0.9 3.2q-0.1 0.3 0.1 0.7 0.1 0.4 0.1 1c0 1.7-0.6 4.6-1.5 6.6l-0.5-1.2-0.1 0.1c0 0-0.2 0.4-0.4 1.1l-0.2-0.1-0.2-0.2q0.2 0 0.4-0.2c0.6-1.1-3.3-3.2-3-4.4q0.1-0.2 0.3-0.2c0.3 0 0.7 0.4 1.2 0.8 0.5 0.4 1 0.8 1.4 0.8 0.2 0 0.3-0.1 0.4-0.4 0.2-1.3-4.5-4.1-3.9-4.1 0.1 0 0.8 0.3 2.4 1 0 0 1.6 1 2.3 1q0.2 0 0.2-0.1c0.2-0.6 0.1-1.7 0.1-1.7-0.4-0.3-3.9-1.2-5.1-2.3-0.3-0.2-0.2-0.3 0-0.3 0.9 0 4.1 1.1 4.9 1.3h0.1c0.8 0 0.2-1.9-2.2-3.3-2.2-1.2-2.1-1.7-1.3-1.7q0.3 0 0.6 0c0.4 0.1 1 0.1 1.5 0.1 1 0 1.9 0 1.9 0 0.3-1.1-1.1-0.9-2.7-2.1-1.7-1.3 2-6.2 2.3-6.9 0.1-0.4 0.1-0.8-0.2-0.8-0.3 0-0.7 0.4-1.5 1.6-1.3 2.3-1.4 4.2-2 4.2q-0.1 0-0.3-0.1h-0.2c-0.6 0-0.7 2.6-1.4 4.4-0.5 1-1.2 2.6-2.1 4.9-0.4 1.1-0.7 2.1-0.9 2.8-0.2 0.6-0.5 1.8-0.9 2.9q-0.6 2.2-1.2 4.9-0.1 0.1-0.1 0.1c-0.2 0-0.3-0.2-0.3-0.2-0.8-0.9-1.5-3.4-1.5-3.4 0-0.3 0.1-0.3 0.3-0.3q0.2 0 0.4 0 0.2 0 0.4 0c0.4 0 0.7-0.1 0.5-0.7-0.2-0.6 0-0.7 0.2-0.7q0.2 0 0.3 0 0.1 0 0.3 0c0.1 0 0.2-0.1-0.1-0.7-0.3-0.5-0.6-1.4-0.7-2.3 0-0.5 0-1 0.1-1.4q0.1-0.3 0.3-0.4v-0.1h0.1c0.4 0.8 0.8 1.3 1 1.3 0.2 0 0.2-0.2 0.1-0.8-0.2-1-0.2-1.5-0.1-1.5q0.1 0 0.3 0.3 0.1 0.1 0.2 0.1c0.3 0 0.4-1.1 0.4-1.1 0.2-1.9 0.2-3 0-3.6 0-0.3-0.1-0.3 0-0.4v-0.1h0.1l0.1-0.2 0.2-0.1 0.1-0.1h0.1c0.4 0 0.7 0.2 0.9 0.4 0.2 0.2 0.4 0.4 0.5 0.4 0.1 0 0.2-0.5 0.3-2.3 0.1-1.3 0.4-2.7 0.9-3.9q0.4-0.8 0.9-1.6c0.2 0.1 0.4 0.5 0.4 1.2q0.1 1.4 0.3 1.4c0.1 0 0.3-0.8 0.7-2.5 0.3-1.2 0.5-2.2 0.9-3.2 0.6-0.7 1.2-1.1 1.6-1.1 0.2 0.2 0.3 0.5 0.5 0.5q0.1 0 0.4-0.3 0.2-0.2 0.4-0.3 0.1 0.1 0.3 0.2zm-5.4 23.5c0 0 1.2 1.3 2.1 1.7h-0.2-0.3q-0.1 0-0.2 0c-0.6 0-0.8-0.5-1.2-0.5-0.4 0-1.2-0.2-1.2-0.2q-0.1 0-0.2 0.3-0.4-1.1-0.9-2.1c-0.6-1.5-0.8-2-0.6-2 0.2 0 1.2 1.3 2.7 2.8z"/>
	<path id="Layer" fill-rule="evenodd" class="s58" d="m54.5 34.4q-0.6 2.2-1.2 4.9 0.1-0.2 0.1-0.4c0.1-0.7 0.6-2.6 1.1-4.5zm3.9-10.6c-0.5 1-1.2 2.6-2.1 4.9 0.6-1.5 1.3-3.2 1.9-4.3q0.1-0.3 0.2-0.6z"/>
	<path id="Layer" class="s16" d="m51.3 59.1q-0.1-0.1-0.1-0.2c0 0 0.1-0.2 0.2-0.6 0-0.4 0.1-0.9 0.2-1.4 0.2-1.2 0.3-2.6 0.1-3.6-0.4-2.1-0.3-4.9 0.5-7.9 0.7-2.9 0.9-5.1 1.7-8.3 0.7-2.3 1.3-4.8 2.2-7.1 0.7-2.1 1.5-4.2 2.5-6 0.9-1.7 1.8-3.4 2.5-5.2q0.9-2.3 2.1-4.5h0.2v0.2q-1.2 2.1-2.2 4.4c-0.7 1.8-1.5 3.5-2.4 5.2-1 1.9-1.9 3.9-2.6 5.9-0.8 2.4-1.5 4.8-2.1 7.1-0.8 3.2-1 5.4-1.7 8.3-0.8 3-0.9 5.7-0.5 7.8 0.4 2.1-0.5 5.7-0.5 5.7z"/>
	<path id="Layer" class="s67" d="m63 77.9c0 0-0.1 2.6-0.9 3.9-0.8 1.4 0.1 1.4-0.5 3.6-0.7 2.2-4.3 8.9-5.3 8.9-1.1-0.1-3-16.6 6.7-16.4z"/>
	<path id="Layer" fill-rule="evenodd" class="s16" d="m55.9 93.8q-0.2-0.4-0.3-1.2c-0.2-1.1-0.3-2.5-0.3-4.1 0.1-2.4 0.5-5.1 1.7-7.2 1.1-2 3-3.5 6-3.4 0 0.1 0 2.6-0.8 4-0.3 0.4-0.4 0.7-0.4 0.9 0 0.4 0.1 0.7 0.1 1.2 0 0.3-0.1 0.8-0.3 1.4-0.5 1.7-2.6 5.9-4.1 7.9-0.5 0.6-0.9 1-1.2 1-0.2 0-0.3-0.2-0.4-0.5zm1.5-0.6c0.5-0.7 1-1.6 1.6-2.6 1.1-1.9 2.2-4.1 2.5-5.2 0.2-0.6 0.2-1.1 0.2-1.4 0.1-0.5 0-0.8 0-1.2 0-0.3 0.1-0.6 0.3-1 0.4-0.7 0.6-1.6 0.7-2.4 0.1-0.7 0.2-1.2 0.2-1.4-2.9 0-4.7 1.4-5.8 3.4-1.1 2.1-1.6 4.7-1.6 7.1-0.1 2.7 0.3 5.1 0.7 5.6l0.1 0.1c0.1 0 0.6-0.4 1.1-1z"/>
	<path id="Layer" class="s2" d="m65.2 74.8c0.1 0.1 0.3 0.2 0.5 0.2l0.2-1.7c0 0-0.8 1.2-0.7 1.5z"/>
	<path id="Layer" class="s56" d="m65.7 75.1c-0.2-0.1-0.4-0.1-0.5-0.2v-0.1h0.1c0 0 0.2 0.1 0.4 0.1l0.1-1.3q-0.1 0.1-0.2 0.3c-0.1 0.3-0.3 0.6-0.3 0.8v0.1h-0.1v0.1l-0.1-0.2c0.1-0.5 0.8-1.4 0.8-1.5l0.1-0.2-0.2 2.1z"/>
	<path id="Layer" class="s2" d="m66.4 70.1c0 0.2 0.6 0.8 0.2 2.1 0.1-0.4 0.3-0.7 0.3-0.7l0.1-2c0 0-0.6 0.3-0.6 0.6z"/>
	<path id="Layer" fill-rule="evenodd" class="s56" d="m66.5 72.1q0.1-0.4 0.1-0.7c0-0.4 0-0.6-0.1-0.9-0.1-0.2-0.2-0.3-0.2-0.4 0-0.2 0.2-0.3 0.4-0.4 0.1-0.2 0.3-0.2 0.3-0.2l0.1-0.1-0.2 2.1c0 0-0.1 0.3-0.3 0.7zm0-2.1c0 0.1 0.1 0.2 0.1 0.5 0.1 0.2 0.2 0.5 0.2 0.9v0.1-0.1l0.2-1.8-0.2 0.1c-0.2 0.1-0.3 0.3-0.3 0.3z"/>
	<path id="Layer" class="s2" d="m76.4 26.9c-1.6-0.3-6.5 5.5-8.1 9.4-1.7 4-2.5 4.1-3.3 4.7-0.8 0.6 0 0-0.5 1.6-0.5 1.6-0.5 1.1-1.3 3.4-0.7 2.2-0.8 2.1-1.6 2.6-0.9 0.5-0.7 3.2-0.8 4-0.2 0.9-0.9 1.9-1.9 3-1 1.1-0.9 1.3-0.5 3.6 0.5 2.3 0.9 0.1-1 7.7-1.9 7.7-0.4 17.1-0.4 17.1 0 0-0.2 1.8 0.5 1 0.7-0.8 0.7-1.6 2-2.1 1.3-0.4 0.1-1 1.8-1.8 1.7-0.8 2.4-2.6 3-3.5 0.7-0.9 1.4-2.6 1.4-2.6-0.2 0-0.4-0.1-0.5-0.2-0.1-0.3 0.7-1.5 0.7-1.5 0.2-0.2 0.4-0.7 0.7-1.2 0.4-1.2-0.2-1.8-0.2-2 0-0.3 0.6-0.6 0.6-0.6 0.9-0.5 1.8-1.7 1.8-1.7 1.4-3 3-2.9 5-6 1.9-3.1 3.5-9.1 3.1-11.1-0.4-2 0.7-2.1 1.4-5 0.7-2.9-0.7-2.1 0.1-4.8 0.7-2.7 2-9.7 0.8-12.2-0.9-1.9-1.1-1.8-1.8-1.8-0.3 0-0.6 0-1 0z"/>
	<path id="Layer" class="s4" d="m76.4 26.9v-0.1h-0.1c-0.9 0-2.5 1.4-4.1 3.3-1.6 1.9-3.2 4.3-4 6.2-1.6 4-2.4 4.1-3.2 4.7q-0.2 0.1-0.3 0.2l-0.1 0.1c0 0.1 0.1 0.2 0.1 0.4 0 0.2-0.1 0.4-0.2 0.9-0.5 1.6-0.5 1.1-1.3 3.4-0.4 1.1-0.6 1.6-0.8 1.9-0.2 0.3-0.4 0.4-0.8 0.7-0.5 0.3-0.6 1.1-0.7 1.9-0.1 0.8-0.1 1.7-0.2 2.1-0.1 0.9-0.8 1.9-1.8 3-0.6 0.6-0.8 1-0.8 1.6 0 0.4 0.1 1 0.3 2 0.2 1 0.4 1.1 0.4 1.6 0 0.6-0.3 1.7-1.4 6.1-0.8 3-1 6.3-1 9.1 0 4.5 0.5 8 0.5 8h0.1-0.1c0 0 0 0.1 0 0.3 0 0.2 0 0.4 0.1 0.6q0 0.1 0.1 0.2l0.1 0.1q0.2 0 0.3-0.2c0.7-0.8 0.7-1.6 2-2.1 0.7-0.2 0.7-0.5 0.8-0.7 0-0.3 0.2-0.7 1-1.1 1.7-0.8 2.4-2.6 3.1-3.5 0.6-0.9 1.3-2.6 1.3-2.6-0.2 0-0.4-0.1-0.4-0.2l-0.1-0.1c0-0.2 0.2-0.6 0.4-0.9q0.1-0.2 0.2-0.3 0.1-0.2 0.1-0.2c0.2-0.2 0.5-0.7 0.7-1.1q0.1-0.5 0.1-0.9c0-0.3-0.1-0.6-0.2-0.8 0-0.2-0.1-0.3-0.1-0.4 0-0.1 0.1-0.3 0.3-0.4 0.2-0.1 0.3-0.2 0.3-0.2 0.9-0.5 1.9-1.7 1.9-1.7 0.6-1.5 1.4-2.2 2.2-3 0.8-0.7 1.7-1.5 2.7-3 1.7-2.8 3.2-7.8 3.2-10.3q0-0.5-0.1-0.8-0.1-0.4-0.1-0.8c0-0.6 0.2-1.1 0.5-1.6 0.3-0.6 0.7-1.3 1-2.6 0.1-0.6 0.2-1 0.2-1.4 0-0.9-0.4-1.2-0.4-2 0-0.3 0.1-0.8 0.3-1.4 0.5-1.9 1.3-6 1.3-9.1 0-1.2-0.1-2.4-0.5-3.1-0.4-0.8-0.6-1.3-0.9-1.5-0.2-0.3-0.4-0.3-0.7-0.3q-0.2 0-0.6 0-0.2 0-0.6-0.1v0.1q0.4 0 0.6 0 0.4 0 0.6 0c0.3 0 0.5 0 0.7 0.3 0.3 0.2 0.5 0.7 0.9 1.5 0.4 0.7 0.5 1.9 0.5 3.1 0 3.1-0.8 7.2-1.4 9.1-0.1 0.6-0.2 1.1-0.2 1.4 0 0.8 0.4 1.1 0.4 2 0 0.4-0.1 0.8-0.2 1.4-0.3 1.2-0.7 2-1 2.6-0.3 0.5-0.5 1-0.5 1.6q0 0.4 0.1 0.8 0 0.3 0 0.8c0 2.5-1.4 7.5-3.1 10.3-1 1.5-1.9 2.3-2.7 3-0.9 0.7-1.6 1.5-2.3 3q0 0-0.1 0.2c-0.3 0.4-1 1.1-1.7 1.5 0 0-0.1 0.1-0.3 0.2-0.2 0.1-0.3 0.3-0.3 0.4 0 0.1 0 0.2 0.1 0.4 0.1 0.2 0.2 0.5 0.2 0.8q0 0.4-0.2 0.8l0.1 0.1-0.1-0.1c-0.2 0.5-0.4 1-0.6 1.2 0 0-0.2 0.2-0.3 0.5-0.2 0.3-0.4 0.7-0.4 0.9v0.1c0.1 0.2 0.3 0.2 0.5 0.2q0 0-0.1 0.3c-0.2 0.5-0.8 1.6-1.3 2.3-0.6 0.9-1.3 2.6-3 3.5-0.8 0.4-1 0.8-1.1 1 0 0.3 0 0.6-0.7 0.8-1.3 0.5-1.3 1.3-2 2.1q-0.2 0.2-0.3 0.2l-0.1-0.1c-0.1-0.2-0.1-0.6-0.1-0.8 0-0.2 0-0.3 0-0.3q0 0-0.1-0.6c-0.2-1.2-0.5-4-0.5-7.4 0-2.8 0.2-6.1 1-9.1 1.1-4.4 1.4-5.5 1.4-6.1 0-0.5-0.2-0.6-0.4-1.6-0.2-1-0.3-1.6-0.3-2 0-0.6 0.2-0.9 0.8-1.6 1-1.1 1.7-2.1 1.9-3 0.1-0.4 0-1.3 0.1-2.1 0.1-0.8 0.3-1.6 0.7-1.9 0.4-0.3 0.6-0.4 0.8-0.7 0.3-0.3 0.5-0.8 0.8-1.9 0.8-2.3 0.8-1.8 1.3-3.4 0.2-0.5 0.2-0.7 0.2-0.9 0-0.2-0.1-0.3-0.1-0.4l0.1-0.1q0.1 0 0.3-0.2c0.8-0.6 1.6-0.7 3.3-4.6 0.8-2 2.3-4.4 3.9-6.3 1.6-1.8 3.2-3.2 4.1-3.2h0.1z"/>
	<path id="Layer" fill-rule="evenodd" class="s57" d="m58.6 69.5q-0.3 1.1-0.6 2.1 0.1-0.5 0.2-1c0.2-0.6 0.3-1.2 0.5-1.5 0.2-0.7 0.3-1.2 0.4-1.7q0.1-0.4 0.3-0.9 0.1-0.2 0.2-0.4c-0.3 1.1-0.6 2.2-1 3.4zm6.3-8.2c0.6 1.8 0.8 2.6 0.7 2.6-0.1 0-0.8-1.2-1.8-3-0.4-0.8-0.7-1.1-0.8-1.1-0.5 0 0.5 3.7 1.7 7.4q0.4 1.2 0.5 1.7-0.1 0.1-0.3 0.1c-0.6-0.7-1.8-2.5-3-3.6q-0.2-0.2-0.3-0.2c-0.7 0-0.3 2.5 0.1 5q0.1 0.2 0.1 0.4c-0.3 0.4-0.6 0.7-0.8 1.1-0.7-2.7-0.8-4.9-0.8-4.9 0 0 0-0.3-0.1-0.3-0.1 0-0.2 0.1-0.5 0.7q0.4-1.2 0.6-2.3 0.2-0.3 0.4-0.7 0.2-0.2 0.3-0.5 0.5-0.9 0.9-1.9l0.1-0.1q0.4-0.8 0.6-1.7l0.1-0.1v-0.1-0.1-0.1l0.1-0.1v-0.1-0.1-0.1l0.1-0.1q0-0.2 0-0.3c0.3-1 0.5-1.5 0.7-2q0.3 1.2 1.4 4.5zm0.8-3.5c1 2 1.3 2.7 1.2 2.7-0.3 0-2.5-3.4-3-4.1l-0.1-0.1c0.2-0.3 0.4-0.7 0.6-1.3 0.3 0.6 0.7 1.5 1.3 2.8zm-0.3-3.4c0.5 1 0.6 1.4 0.5 1.4q-0.2 0-0.5-0.5c-0.1-0.3-0.4-0.8-0.7-1.1q0.2-0.7 0.3-1.1c0.1 0.4 0.3 0.8 0.4 1.3zm10.8-24.1c0.1 0.4-2.6 4-3.6 6.2-1 2.2 0.3 2.1-0.8 2.4-1.2 0.2-0.2 0.8 1.6 1.8 1.1 0.5 0.7 0.6-0.1 0.6q-0.4 0-1.1 0-0.6-0.1-1.3-0.1c-1.9 0-1.3 1.4-0.4 2 0.5 0.4 1.2 1.1 0.8 1.1-0.2 0-0.6-0.2-1.4-0.6q-0.7-0.3-0.8-0.3c-0.4 0 2.3 1.9 4.6 3.6 0.6 0.6 0.8 0.8 0.7 0.8-0.4 0-3.8-1.9-6-2.2q-0.2 0-0.3 0c-0.8 0-0.3 0.7 0.4 1.5 0.7 0.7 1.4 1.5 1.1 1.5-0.2 0-0.5-0.1-1.1-0.4q-0.9-0.5-1.3-0.4c-1 0 1.8 3 4.2 5.5 1 1.1 1.4 1.5 1.2 1.5-0.2 0-2.1-1.5-4.2-3-0.8-0.6-1.3-0.8-1.5-0.8-0.6 0 1.2 2.3 2.6 4.4 0.5 1 0.7 1.3 0.7 1.3-0.1 0-1.5-1.7-3.3-3.4-0.8-0.8-1.4-1.1-1.7-1.1q0-0.3 0.1-0.5c0.1-0.3 0.2-0.5 0.5-0.9q0.1-0.2 0.4-0.5c0.9-1.1 0.9-2.5 0.7-3.8q1-2.1 2.3-4.1c1.3-2.1 2.6-4.2 3.7-6.5 0.9-1.9 2-3.8 3.1-5.5l0.1-0.2zm-3.6 5.6c-1.1 2.3-2.3 4.3-3.7 6.4q-1.1 1.9-2.1 3.8 0-0.1-0.1-0.3c0.6-1.1 1.2-2.2 1.7-3q0.2-0.3 0.3-0.7 0.7-1.1 0.8-1.1l0.1 0.1c0.2 0 0.9-1.7 1.2-3 0-0.3 0.1-0.4 0.1-0.4v0.1l0.1 0.1c0.2 0 0.7-0.5 2-3 1.1-2.2 1.9-3.3 2.4-3.9q-1.6 2.3-2.8 4.9z"/>
	<path id="Layer" class="s21" d="m62.5 68.5c0 0 0.1 0.4 0.5 1.3q0.1 0 0.2-0.1c-0.4-0.7-0.6-1.2-0.7-1.2zm-3-0.6q0 0-0.1 0.2-0.2 0.7-0.5 1.5c-0.5 1.8-1 4.5-1 6.8q0.6-0.6 1-1.2c0.6-0.6 1-1.2 1.2-1.7q-0.1-0.3-0.1-0.5c-0.4-1-0.8-2.6-0.5-4.8q0.1-0.3 0-0.3zm4.2-6c-0.1 0 0.3 1.6 1.8 6.4l0.2 0.5q0.5-0.2 0.8-0.2c-0.4-1.2-2.5-6.7-2.8-6.7zm12.6-35c-0.6 0-1.4 0.5-2.3 1.3-0.5 1.2-0.9 2.6-1.4 4.1-0.6 2-0.9 3.2-1.1 3.2-0.2 0-0.2-0.6-0.3-1.9 0-1-0.2-1.4-0.4-1.6q-0.8 1-1.4 2.1c-0.7 1.5-1.3 3.1-1.5 4.9-0.3 2.3-0.4 2.9-0.6 2.9-0.1 0-0.3-0.3-0.6-0.6l-0.2-0.2c-0.1 0.4-0.2 0.9-0.2 1.3-0.1 0.9 0.1 1.9 0.3 2.8q0.1 0.2 0.1 0.5c0.8-1.6 1.5-2.9 2-3.6 1.1-2.3 1.4-5.7 2.2-5.7q0.1 0 0.3 0.1 0.2 0.1 0.3 0.1c0.8 0 1.1-2.4 3.1-5.2 1-1.6 1.7-2.1 2-2.1 0.4 0 0.4 0.7 0.2 1.2-0.3 0.9-5.7 6.9-3.6 8.7 2.1 1.8 3.9 1.6 3.4 3h-0.1c-0.4 0-2.9 0-4.4-0.4q-0.5-0.1-0.9-0.1c-0.9 0-1 0.6 1.7 2.3 3.1 2.1 3.7 4.6 2.8 4.6q-0.1 0-0.3 0c-0.9-0.3-5.4-2.3-6.4-2.3-0.2 0-0.3 0.2 0.1 0.5 1.5 1.5 6.1 3.1 6.5 3.5 0 0 0.1 1.5-0.2 2.2q-0.1 0.1-0.3 0.1c-0.8 0-3-1.6-3-1.6-2.1-1-3-1.5-3.2-1.5-0.6 0 5.4 4.1 4.9 5.7-0.1 0.4-0.3 0.6-0.5 0.6-0.4 0-1.1-0.6-1.7-1.2-0.7-0.6-1.3-1.2-1.7-1.2q-0.2 0-0.3 0.3c-0.6 1.5 4.5 4.6 3.6 5.9q-0.2 0.3-0.6 0.3c-1.2 0-3.3-2.6-3.3-2.6-1.8-2.2-3.1-4-3.4-4-0.2 0 0 0.7 0.7 2.6 1.7 4.5 3.1 9.8 2.4 9.8q-0.1 0-0.2-0.1c-0.9-0.9-2.8-4.7-3.1-4.7-0.1 0 0 0.5 0.4 1.8 1 3 1.1 5 0.9 5.9 0.2 0 0.4 0.1 0.6 0.1v0.1q0.2 0 0.3 0c0.3-0.3 0.6-0.6 0.8-0.8q0.1-0.2 0.1-0.2c0.7-1.5 1.4-2.3 2.3-3 0.8-0.7 1.7-1.5 2.7-3 1.7-2.8 3.1-7.8 3.1-10.3q0-0.4 0-0.8-0.1-0.4-0.1-0.8c0-0.6 0.2-1.1 0.5-1.6 0.3-0.6 0.7-1.3 1-2.6 0.1-0.6 0.2-1 0.2-1.4 0-0.9-0.4-1.2-0.4-2 0-0.3 0.1-0.8 0.2-1.4 0.6-1.9 1.4-6 1.4-9.1 0-1.2-0.1-2.4-0.5-3.1-0.4-0.8-0.6-1.3-0.9-1.5q-0.2-0.2-0.3-0.2-0.3 0-0.6 0.3-0.3 0.3-0.5 0.2c-0.3 0-0.4-0.3-0.6-0.6z"/>
	<path id="Layer" fill-rule="evenodd" class="s68" d="m79.2 28.7c1.2 2.5-0.1 9.5-0.8 12.2-0.8 2.7 0.6 1.9-0.1 4.8-0.7 2.9-1.8 3-1.4 5 0.4 2-1.2 8-3.1 11.1-2 3.1-3.6 3-5 6 0 0-0.4 0.5-0.9 1 0.3-0.3 0.6-0.6 0.8-0.8q0.1-0.2 0.1-0.2c0.7-1.5 1.4-2.3 2.3-3 0.8-0.7 1.7-1.5 2.7-3 1.7-2.8 3.1-7.8 3.1-10.3q0-0.5 0-0.8-0.1-0.4-0.1-0.8c0-0.6 0.2-1.1 0.5-1.6 0.3-0.6 0.7-1.4 1-2.6 0.1-0.6 0.2-1 0.2-1.4 0-0.9-0.4-1.2-0.4-2 0-0.3 0.1-0.8 0.2-1.4 0.6-1.9 1.4-6 1.4-9.1 0-1.2-0.1-2.4-0.5-3.1-0.4-0.8-0.6-1.3-0.9-1.5q-0.1-0.2-0.3-0.2c0.3 0.1 0.6 0.5 1.2 1.7zm-8.4 3.3q-0.8 1-1.4 2.1l0.1-0.2q0.6-0.9 1.3-1.9zm5.5-5.1c-0.6 0-1.4 0.5-2.3 1.3 0.9-0.8 1.7-1.3 2.3-1.4z"/>
	<path id="Layer" class="s58" d="m68.7 42.1c-0.5 0.7-1.2 2-2 3.6 0.6-1.1 1.1-2.1 1.6-3q0.2-0.3 0.4-0.6z"/>
	<path id="Layer" class="s16" d="m56.4 87.2c-0.1-0.1-0.1-0.1-0.1-0.2 0 0 0.3-0.9 0.5-2 0.3-1.2 0.6-2.7 0.7-4q0-0.7-0.1-1.3-0.2-1.3-0.1-2.8c0-2.2 0.5-4.8 1.3-7.4 1.3-3.7 1.7-6.5 3-10.6 1.9-5.7 4.1-11.6 7.3-16.6 1.3-2.1 2.6-4.2 3.7-6.5 0.9-2 2-3.8 3.2-5.6h0.2v0.2c-1.1 1.7-2.2 3.6-3.1 5.5-1.1 2.3-2.4 4.4-3.7 6.5-3.2 5-5.4 10.9-7.3 16.6-1.4 4-1.7 6.8-3 10.6-0.8 2.6-1.3 5.1-1.3 7.3q-0.1 1.5 0.1 2.8 0.1 0.6 0.1 1.3c-0.1 2.7-1.2 6.1-1.2 6.1l-0.2 0.1z"/>
	<path id="Layer" class="s2" d="m64.4 36.5c-0.4 0.8-0.1 1.4-0.1 1.4-0.4 0-1.4-0.2-1.9-0.5-0.3-0.3-0.6-0.3-0.9-0.3q-0.2 0.1-0.5 0c-0.6 0-0.8-0.5-1.2-0.5-0.4 0-1.2-0.2-1.2-0.2-0.3 0-1.5 4.1-1.6 4.4-0.5 1.8-0.4 3.8-1.4 5.5-0.8 1.4-2.3 2.4-2.8 4-0.6 1.8-0.2 3.9-0.5 5.8-0.5 2.7-1.5 5.2-1.8 7.9-0.3 2.8-0.3 5.7 0.4 8.3 0.9 3.4 0.5 15.9 0.3 19.9-0.3 4.1 0.7 5.5 2.3 5.7 1.5 0.2 4.2-2 4.2-3.3-0.1-1.3-0.9-3.2-1-4.2-0.2-1.1 0.7-7.9 0.9-11.8 0.1-3.4 0.1-6.9 1.1-10.2 1-3.2 3.4-5.9 4-9.2 0.6-2.6 1.1-2.5 2-4.9 0.8-2.5 0.1-2.3 1.5-4 1.2-1.5 0.7-3.4 0.4-5.1-0.2-0.9-0.4-1.9-0.3-2.8 0-0.9 0.5-1.7 0.5-2.6 0-1.3 0.4-3.4 0.1-4.8-0.8-2.3-2.1 0.9-2.5 1.5z"/>
	<path id="Layer" class="s16" d="m63.1 36.4c0 0-3.6 8-5.4 16.7-1.7 8.7-4.2 18.9-4.4 25.7-0.2 6.8-1 20.1 0.7 20.1 1.7 0.1 0.8-4.9 0.8-6.4 0.1-1.5-0.8-14.5 1-24.2 1.9-9.8 2.8-15 3.3-16.7 0.5-1.8 1.9-9.3 4.5-13.9z"/>
	<path id="Layer" fill-rule="evenodd" class="s16" d="m54 99c-0.4 0-0.6-0.4-0.7-1.1-0.2-0.6-0.3-1.5-0.4-2.6-0.1-2.2-0.1-5.1 0-8 0.1-3.1 0.2-6.2 0.3-8.5 0.2-6.8 2.7-17 4.5-25.7 1.7-8.7 5.3-16.7 5.3-16.7l0.1-0.1 0.6 1.4v0.1c-2.7 4.5-4.1 12.1-4.6 13.8-0.5 1.7-1.4 6.9-3.2 16.7-0.7 3.7-1 7.9-1.1 11.8-0.2 6.2 0.1 11.5 0.1 12.4 0 0.9 0.2 2.7 0.2 4.2 0 0.7-0.1 1.2-0.2 1.6-0.2 0.4-0.5 0.7-0.9 0.7zm8.6-61.1c-0.4 0.8-0.9 2.1-1.5 3.6-1.1 3.1-2.4 7.3-3.3 11.6-1.7 8.7-4.3 18.9-4.4 25.7-0.1 2.3-0.3 5.4-0.3 8.5-0.2 4.4-0.2 8.7 0.3 10.6 0.2 0.6 0.4 1 0.6 1 0.3 0 0.6-0.2 0.7-0.6 0.2-0.4 0.2-1 0.3-1.6 0-1.5-0.3-3.3-0.2-4.2 0-0.9-0.3-6.2-0.2-12.4 0.1-3.9 0.4-8.1 1.1-11.8 1.9-9.8 2.8-15 3.3-16.8 0.5-1.7 1.9-9.2 4.6-13.8l-0.5-1.1q-0.2 0.3-0.5 1.3z"/>
	<path id="Layer" class="s61" d="m66.2 33.8c0 0-2.2-0.7-2.5-1.1-1.3 0.9-1.9 2.8-1.7 4.5q0.2 0 0.4 0.2c0.5 0.3 1.5 0.5 1.9 0.5 0 0-0.3-0.6 0.1-1.4 0.4-0.6 1.7-3.8 2.5-1.5-0.1-0.5-0.3-1-0.7-1.2z"/>
	<path id="Layer" class="s61" d="m62.7 32.4q-0.3-0.1-0.5-0.1c-0.5-0.1-2-0.5-2-0.5 0 0-1.6 0.2-2.1 2.4-0.5 2.2 0.5 2.2 0.5 2.2 0 0 0.8 0.2 1.2 0.2 0.2 0 0.4 0.2 0.6 0.3 0-0.3 0-3.1 2.3-4.5z"/>
	<path id="Layer" class="s61" d="m62.7 32.4q-0.3-0.1-0.5-0.1c-0.5-0.1-2-0.5-2-0.5 0 0-1.6 0.2-2.1 2.4-0.5 2.2 0.5 2.2 0.5 2.2 0 0 0.8 0.2 1.2 0.2 0.2 0 0.4 0.2 0.6 0.3 0-0.3 0-3.1 2.3-4.5z"/>
	<path id="Layer" class="s69" d="m63.7 32.7c-0.2-0.2-0.6-0.3-1-0.3-2.3 1.4-2.3 4.2-2.3 4.5 0.2 0.1 0.3 0.2 0.6 0.2 0.4 0.1 0.7 0 1 0.1-0.2-1.7 0.4-3.6 1.7-4.5z"/>
	<path id="Layer" class="s70" d="m63.1 32.5q0.2 0 0.3 0c-0.2-0.1-0.5-0.1-0.7-0.1-2.3 1.4-2.3 4.2-2.3 4.5 0.2 0.1 0.3 0.2 0.6 0.2l-0.2-0.1c0-0.3 0-3.1 2.3-4.5z"/>
	<path id="Layer" class="s71" d="m50.9 61.7q-0.2 0.9-0.3 1.7c0.3 0.3 0.9 0.9 1.4 1.7 0.4 0.5 0.6 0.7 0.7 0.7 0.2 0-0.5-1.6-1.5-3.4q-0.2-0.4-0.3-0.7z"/>
	<path id="Layer" class="s71" d="m50.5 64.2l-0.1 0.1 0.1-0.1z"/>
	<path id="Layer" class="s71" d="m50.5 64.2l-0.1 0.1c-0.1 1.7-0.2 3.4 0 5.1q0.4 0.5 0.7 0.9c0.7 1 1.1 1.4 1.4 1.4 0.3 0 0.1-1-0.7-2.3-0.8-1.2-1.1-1.9-0.8-1.9q0.2 0 1 0.7 0.6 0.6 0.8 0.6c0.2 0-0.5-1.2-1.8-3.4q-0.3-0.8-0.5-1.2z"/>
	<path id="Layer" fill-rule="evenodd" class="s71" d="m57.4 39.6q-0.1 0.3-0.2 0.6 0.1-0.3 0.2-0.6zm-0.2 0.6q-0.1 0.1-0.1 0.3 0-0.2 0.1-0.3zm0.4-1.2q0.1-0.5 0.3-1-0.2 0.5-0.3 1zm0.3-1.1q0.1-0.2 0.1-0.3 0 0.1-0.1 0.3z"/>
	<path id="Layer" fill-rule="evenodd" class="s72" d="m54.4 47.9q0.3-0.3 0.5-0.6-0.2 0.3-0.5 0.6zm3.5-9.9v-0.1z"/>
	<path id="Layer" fill-rule="evenodd" class="s73" d="m55.7 46.1q0.1-0.2 0.2-0.4-0.1 0.2-0.2 0.4zm1.1-4.5q-0.1 0.4-0.1 0.8 0-0.4 0.1-0.8zm0.8-2.6q-0.1 0.3-0.2 0.6 0.1-0.3 0.2-0.6z"/>
	<path id="Layer" class="s71" d="m58 37.6q0 0.1-0.1 0.3v0.1q-0.2 0.5-0.3 1-0.1 0.3-0.2 0.6-0.2 0.5-0.3 0.9v0.1l-0.1 0.2q-0.1 0.4-0.2 0.8-0.1 0.4-0.1 0.8-0.1 0.4-0.2 0.7 0 0.5-0.1 1-0.2 0.8-0.5 1.6-0.1 0.2-0.2 0.4l-0.1 0.2q-0.3 0.5-0.7 1-0.2 0.3-0.5 0.6-0.4 0.4-0.7 0.9c-0.4 0.4-0.7 0.9-0.9 1.5-0.3 0.8-0.4 1.6-0.4 2.5 0.4 0.8 1 2.3 2.1 4 0.3 0.6 0.6 0.8 0.8 0.8 0.4 0 0.2-1.1-1-3.2-0.9-1.3-1.1-1.8-1-1.8 0.2 0 0.8 0.7 1.4 1.4q0.2 0.3 0.3 0.2c0.4 0-0.8-2.6-1.2-3.4q-0.3-0.4-0.1-0.4c0.2 0 0.9 0.5 1.6 1.4 0.4 0.5 0.8 0.8 1 0.8 0.3 0 0.2-0.5-0.4-1.7-0.7-1.4-0.8-2.7-0.5-2.7 0.2 0 0.5 0.3 0.9 1 0.4 0.7 0.7 1 0.8 1 0.4 0 0.1-1.6-0.5-3.4-0.2-0.8-0.2-1.1 0-1.1 0.1 0 0.2 0.2 0.4 0.3 0.2 0.1 0.3 0.2 0.4 0.2 0.2 0 0.2-0.2 0-0.8-0.4-1.1-0.3-1.5-0.1-1.5 0.2 0 0.6 0.3 1 0.9q0.2 0.2 0.2 0.2c0.2 0 0-0.6-0.1-1.3-0.1-0.6-0.3-1.2-0.2-1.2q0.1 0 0.3 0.3c0.3 0.5 0.5 0.7 0.7 0.7 0.3 0 0.2-1.1-0.3-2.3-0.3-1-0.3-1.4 0-1.4 0.1 0 0.4 0.2 0.7 0.6q0.1 0.1 0.2 0.1c0.1 0-1.3-2.1-1.8-2.9z"/>
	<path id="Layer" class="s73" d="m52.3 55.6q0 0.1 0 0.2 0-0.1 0-0.2z"/>
	<path id="Layer" class="s71" d="m52.3 55.5v0.1q0 0.1 0 0.2 0 0.2 0 0.3c-0.3 1.5-0.7 3-1.1 4.5 0.2 0.2 0.5 0.5 0.8 1 0.4 0.8 0.7 1.3 0.8 1.3 0.2 0 0.1-0.5-0.3-1.5-0.5-1.5-0.9-2.9-0.6-2.9 0.1 0 0.4 0.4 0.9 1.3 0.5 1 0.9 1.5 1.1 1.5 0.4 0 0.3-1.2-0.6-3.1-0.5-0.9-0.8-1.9-1-2.7z"/>
	<path id="Layer" class="s74" d="m58.4 69.6q-0.1 0.5-0.2 1 0.1-0.5 0.2-1z"/>
	<path id="Layer" class="s75" d="m58.2 70.6q-0.1 0.5-0.2 1 0.1-0.5 0.2-1z"/>
	<path id="Layer" class="s76" d="m58 71.6q0 0.2 0 0.3 0-0.1 0-0.3zm1.9-6q-0.2 0.3-0.3 0.5 0.1-0.2 0.3-0.5z"/>
	<path id="Layer" class="s74" d="m65.1 43.2c-1.1 0-3.3 0.6-3.3 0.6 3.3 0.2-1.4 2.5-0.7 2.5 0.7 0-0.3 1-0.3 1-1.9 0.9 1.7 1.9 0.3 1.9h-0.1q-0.1 0-0.2 0c-1.4 0-1 0.5 1.7 1 2.8 0.6 0.8 0.8-1 0.8-1.9 0.1-2.6 1.1-1 1.6 1.3 0.4 1.8 0.6 1.1 0.6q-0.3 0-0.8 0c-0.5-0.1-1-0.1-1.2-0.1-0.6 0-0.2 0.3 2.5 1.3 1.8 0.6 1.7 0.8 1 0.8-0.7 0-2-0.2-2.6-0.3q-0.6-0.1-1-0.1c-0.6 0-0.9 0.2-0.4 1 0.6 0.8 1.1 1.3 0.8 1.3q-0.1 0-0.4-0.1-0.2-0.1-0.3-0.1c-0.5 0 0.4 1.4 1.9 3 0.6 0.6 0.7 0.8 0.5 0.8-0.4 0-1.7-0.8-2.7-1.4q-0.4-0.3-0.6-0.3c-0.7 0 0 1.6 0.2 2.8 0.2 0.9 0.3 1.7 0 1.7q-0.2 0-0.6-0.5-0.3-0.5-0.5-0.5c-0.2 0 0.1 1.2 0.8 3.3 0.5 1.5 0.6 2.1 0.4 2.1-0.1 0-0.5-0.6-1-1.4q-0.4-0.6-0.6-0.6c-0.4 0-0.2 2.2 0.5 4.7q0.2 0.8 0.5 1.3 0-0.1 0-0.3 0.1-0.5 0.2-1 0.1-0.5 0.2-1 0.1-0.6 0.3-1.2v-0.1l0.1-0.1q0.3-0.9 0.6-1.7 0.1-0.2 0.2-0.4 0.1-0.2 0.3-0.5c-0.6-1.3-0.9-2.2-0.8-2.2q0.1 0 0.3 0.3c0.4 0.5 0.7 0.8 1 1q0.1-0.3 0.2-0.5 0.2-0.2 0.3-0.5-0.2-0.3-0.6-0.8c-1-1.3-1-1.7-0.7-1.7 0.4 0 1.4 0.6 2 1.1q0.1-0.3 0.3-0.5v-0.1q0.4-0.8 0.6-1.7l0.1-0.1v-0.1-0.1-0.1l0.1-0.1v-0.1-0.1-0.1l0.1-0.1q0-0.2 0-0.3c-0.3-0.8-1.2-1.3-2.5-2.3-0.7-0.5-0.9-0.7-0.5-0.7 0.4 0 1.9 0.5 3.8 0.9 0.3-0.6 0.6-1.2 1-2.3l0.1-0.1q0.2-0.8 0.3-1.3c-0.9-0.2-2.1-0.4-3.3-0.7-1.5-0.4-1.1-0.6 0.1-0.6 0.6 0 1.3 0 2 0.1q0.8 0 1.4 0.1 0-0.1 0.1-0.2c0.1-0.3 0.2-0.5 0.5-0.9q0.1-0.2 0.4-0.5c-1.1-0.6-2.5-1.3-3.7-1.6-2.2-0.6-1.5-1.6 0.7-2.1 1.6-0.3 1-0.4 0.1-0.4-0.3 0-0.6 0-0.9 0.1h-0.1c-1 0 0.9-0.9 2.3-1.3 1.3-0.5 1.2-0.6 1.1-1.6 0-0.1-0.2-0.2-0.6-0.2z"/>
	<path id="Layer" class="s77" d="m65.7 39.9q-0.1 0-0.3 0.1c-0.9 0.3-3.6 0.7-2.4 0.8 1.1 0.1 1.1 0.4-0.2 0.5-1.3 0.1 2.4 0.1 0 0.8-1.7 0.6-1.1 0.6-0.6 0.6 0.2 0 0.4 0 0.4 0 0 0 3.7-0.3 2.6-0.6-1-0.4-1-0.7-0.1-0.8 0.8-0.1 1.2-1.4 0.6-1.4z"/>
	<path id="Layer" class="s14" d="m45.8 92.8c-0.8-0.9-1.4-1.7-1.7-2.1-0.4-0.6-1.7-2.3-2.8-3.6-1.3-0.3-2.6-0.3-3.4 0.5 1 0 2.9 3.3 3.6 3.9 0.5 0.4 1.1 0.7 1.9 1.2q1.2 0 2.4 0.1z"/>
	<path id="Layer" class="s15" d="m49 96.5c-1.1-1.1-2.3-2.5-3.2-3.7q-1.2-0.1-2.4-0.1c0.6 0.3 1.2 0.8 1.9 1.5 0.9 1 2.6 1.9 3.7 2.3z"/>
	<path id="Layer" class="s15" d="m39.6 85.5c-0.3-0.2-1-0.8-1.7-1.5q-1.8 0.1-3.5 0.6c0.2 0.4 0.2 0.9 0.5 1.8 0.5 1.6 2.1 1.6 2.9 1.2h0.1c0.8-0.8 2.1-0.8 3.4-0.5-0.7-0.7-1.3-1.3-1.7-1.6z"/>
	<path id="Layer" class="s15" d="m49.4 94.6c-1-1-1.9-2.1-2.4-3.4-0.5-1.4-2.7-3.7-3.8-4.5-1.2-0.8-1.2-2.4-2.2-3.8-1-1.4-1.9-1-2.6-2.1-0.7-1.2-3.4-3.9-4.4-4.5-0.6-0.4-1.6-0.4-2.5-0.4q-0.6 0.1-1.2 0c0.3 0.3 2 1.7 3 3 1.2 1.4 5.6 5.3 7.1 6.7 1.5 1.3 5 6.3 6.3 7.7 0.8 1.1 2.5 2.8 3.9 4.2 4.2 3.4-0.2-1.9-1.2-2.9z"/>
	<path id="Layer" class="s16" d="m46.7 93.3c-1.3-1.4-4.8-6.4-6.3-7.7-1.5-1.4-5.9-5.3-7.1-6.7-1-1.3-2.7-2.7-3-3q-0.2 0-0.3 0h-0.1-0.1l-0.2-0.1q-0.2 0-0.3-0.1h-0.1q-0.1 0-0.3 0c1.7 0.8 4.3 3.7 4.9 4.4 0.7 0.7 4.7 4.6 5.8 5.4 1.2 0.8 3.9 4.3 4.5 5.2 0.6 0.9 2.9 3.7 4.9 5.8 0.4 0.2 0.7 0.3 0.8 0.4l0.2 0.2 0.1 0.1h0.1l0.2 0.1v0.1l0.2 0.1c-1.4-1.4-3.1-3.1-3.9-4.2z"/>
	<path id="Layer" class="s2" d="m51.6 99.2c0 0-4-5.6-8.5-7.7-4.5-2.1-2.1-2-6.2-1.4-1.7 0.3-2.7 0.1-3.4-0.1-1.1-0.3-1.8-0.5-3.4 0.3-2.9 1.6-1.6 1.7-2.8 2.9-1.2 1.2-2.2 1.9-3.2 3.8-0.9 1.8-1.1 2.2-0.2 1.3 0.9-0.9 2.1-0.9 3.3-0.8 1.2 0.2 2.3 0.4 3-0.7 0.5-0.7 0.5-0.5 0.9-0.4 0.2 0.1 0.5 0.2 0.8 0.2q0.3 0 0.5 0c1 0 1.7 0 2.2-0.7 0.6-0.8 1.1-0.1 2.2-0.9 0.5-0.4 0.9-0.3 1.2-0.2 0.3 0.1 0.7 0.2 1.2-0.1 1.2-0.5 1.7-0.2 2.2 0.5 0.5 0.6 1.4 0.2 1.8 1.2 0.5 0.9 3.9 3.2 6.8 1.8 0 0 1 0.9 1.2 1.4 0.2 0.5 1.6 1.3 0.4-0.4z"/>
	<path id="Layer" class="s22" d="m43.9 97.1q0.2 0.2 0.5 0.4-0.3-0.2-0.5-0.4z"/>
	<path id="Layer" class="s21" d="m47.6 96.8c-0.4 0-1.1 0.1-2.3 0.1q-0.9 0.1-1.4 0.2 0.2 0.2 0.5 0.4l0.1 0.1h0.1c0.8 0.5 1.9 0.9 3.1 1q-0.2 0-0.3 0c-3.2-0.6-0.8-1.1 0.1-1.4 0.6-0.2 1-0.4 0.1-0.4z"/>
	<path id="Layer" class="s78" d="m40.2 94.5q-0.3 0-1 0.2 0.7-0.2 1-0.2h0.1z"/>
	<path id="Layer" class="s22" d="m42.8 95.8q0.2 0.2 0.4 0.6-0.2-0.4-0.4-0.6z"/>
	<path id="Layer" class="s21" d="m44.4 94.1c-0.4 0-1.7 0.9-2.6 1.4 0.3 0.1 0.6 0.2 1 0.3q0.2 0.2 0.4 0.6 0.4-0.5 0.9-1.3c0.5-0.8 0.6-1 0.3-1z"/>
	<path id="Layer" class="s19" d="m40 89.8q0.2 0.1 0.3 0.2-0.1-0.1-0.3-0.2z"/>
	<path id="Layer" class="s79" d="m40.3 90c0.5 0.2 1.2 0.7 2.8 1.4-1.6-0.7-2.3-1.2-2.8-1.4z"/>
	<path id="Layer" class="s21" d="m39.5 89.7c-0.3 0-0.6 0.1-1.3 0.2q-0.3 0-0.7 0.1c0.3 0.1 0.7 0.2 0.9 0.3 0.5 0.2 1.1 0.5 1.2 0.5 0 0 0-0.1-0.3-0.3-0.4-0.3-0.4-0.5-0.2-0.5 0.2 0 0.7 0.2 1.2 0.5 0.8 0.4 2.2 1 2.7 1l0.1-0.1c-1.6-0.7-2.3-1.2-2.8-1.4q-0.1-0.1-0.3-0.2c-0.2-0.1-0.3-0.1-0.5-0.1z"/>
	<path id="Layer" class="s80" d="m39.7 90.4c-0.2 0-0.1 0.2 0.7 0.9 0.3 0.2 0.4 0.3 0.3 0.3-0.1 0-1.1-0.4-1.6-0.5-0.6 0-1.3-0.6-1.5-0.6-0.1 0 0 0.1 0.2 0.4 0.3 0.4 0.2 0.5 0 0.5-0.4 0-1.1-0.3-1.1-0.3 0 0-1.1-0.5-1.3-0.5-0.1 0 0 0.1 0.4 0.4l-1.1 0.2c0 0-1.4-0.5-1.9-0.5-0.2 0-0.3 0.2 0.2 0.6l-0.5 0.3c0 0-1.6-0.4-2.1-0.4-0.2 0-0.3 0.1-0.1 0.2 0.9 0.6 0.9 0.4 0.5 0.7-0.3 0.2-2 1.2-2 1.2l-0.6 0.7c0 0 0.6-0.5 0.9-0.5 0.2 0 0.2 0.2-0.1 0.8-0.6 0.9-1 1.6-0.9 1.6 0.1 0 0.4-0.3 1-1 1.1-1.2 2.5-2.7 2.8-2.7 0.1 0 0 0.3-0.3 1-0.8 1.5-1.7 3-1.5 3 0 0 0.3-0.4 0.9-1.1 1.3-1.7 2.5-3.2 2.9-3.2 0.2 0 0.2 0.3 0 0.9-0.2 0.7-0.1 0.9 0.1 0.9 0.1 0 0.3-0.1 0.5-0.2 0.2-0.1 0.4-0.1 0.5-0.1 0.2 0 0.2 0.1-0.1 0.8-0.2 0.7-0.3 0.9-0.2 0.9 0.1 0 0.9-1.3 1.6-2 0.2-0.3 0.5-0.6 0.7-0.8l0.1-0.1c0.2-0.2 0.4-0.4 0.5-0.4 0.1 0 0.1 0.3-0.3 1-0.4 0.8-0.5 1.1-0.3 1.1 0.1 0 0.6-0.5 1.1-1 0.5-0.6 1-1 1.1-1 0.2 0 0.2 0.3 0 0.7-0.2 0.8-0.4 1.3-0.3 1.3q0.1 0 0.5-0.4c0.5-0.5 1.4-1.2 1.9-1.2 0.2 0 0.3 0.2 0.1 0.8-0.2 0.5 0 0.6 0.2 0.6q0.2 0 0.4 0 0.3-0.1 0.4-0.1c0.2 0 0.2 0.1-0.1 0.5-0.2 0.3-0.2 0.4 0 0.4 0.2 0 0.6-0.1 1.1-0.3 0.4-0.2 0.9-0.4 1.2-0.4 0.3 0 0.4 0.2 0.2 0.6-0.3 0.9 0.2 1 0.8 1q0.2 0 0.3 0 0.2 0 0.3 0c0.2 0 0.2 0-0.4 0.3-1.2 0.7-1.3 0.8-0.6 0.8q0.2 0 0.4 0 0.3 0 0.5 0 0.2 0 0.5 0c1.7 0 2.6 0.3 1.6 0.6-0.9 0.3-1 1.1-0.1 1.1q0.2 0 0.4 0c1.3-0.2 1.4-0.9 1.4-0.9 0 0-4-4.5-7.6-5.4 0 0-1.9-1.2-2.3-1.4q-0.2-0.1-0.3-0.1z"/>
	<path id="Layer" class="s15" d="m51 98.7c0 0-4.5-6.5-12.2-7.2-7.6-0.7-10.1 1.1-13.2 4.8 1.9-2.3 5.4-4.2 8.6-4.4 1.2-0.1 2.3 0 3.5 0.1 2 0.1 3.9 0.4 5.7 1.2 2.1 1 4 2.1 5.6 3.7 1 1 2 1.8 2.5 3.1z"/>
	<path id="Layer" class="s81" d="m51 98.7c0 0-4.5-6.5-12.2-7.2q-1.7-0.2-3.1-0.2c-5.3 0-7.5 1.8-10.1 5 1.9-2.3 5.4-4.2 8.6-4.4q0.5-0.1 0.9-0.1c0.9 0 1.7 0.1 2.6 0.2 2 0.1 3.9 0.4 5.7 1.2 2.1 1 4 2.1 5.6 3.7 1 1 2 1.8 2.5 3.1-0.5-1.3-1.5-2.1-2.5-3.1-1.6-1.6-3.5-2.8-5.6-3.7-1.8-0.8-3.7-1.1-5.7-1.3-0.9 0-1.7-0.1-2.6-0.1q-0.4 0-0.9 0c-3.2 0.3-6.7 2.2-8.6 4.5 2.6-3.2 4.8-5 10.1-5q1.4 0 3.1 0.2c3.9 0.4 6.9 2.2 9 3.9 1.1 0.8 1.9 1.6 2.4 2.3q0.4 0.4 0.6 0.7 0.2 0.3 0.2 0.3z"/>
	<path id="Layer" class="s2" d="m54.5 100.3c0 0-2.5-9.2-0.8-15.8 1.7-6.7-0.3-4.1 3.9-7.9 4.2-3.8 2.1-5.4 6.2-7.1 2.7-1.2 3.2-1 3.8-0.8 0.4 0.2 0.8 0.3 1.6 0.2 2.3-0.3 4-0.7 6.8-0.1 2.7 0.5 3.3 0.7 1.6 0.9-1.7 0.1-2.8 1.5-3.7 2.9-0.9 1.4-1.7 2.8-3.4 2.6-1.7-0.1-0.6 0.3-1.7 1.6-1.1 1.4-1.8 2.4-3.1 2.4-1.3-0.1-1 1-2.8 1.5-1.7 0.5-0.8 1.7-2.4 2.4-1.6 0.8-1.6 1.6-1.4 2.7 0.2 1.1-0.9 1.7-0.4 3.1 0.6 1.3 0.1 6.9-4 8.8 0 0 0.2 1.9 0.6 2.6 0.4 0.6-0.1 2.7-0.8 0z"/>
	<path id="Layer" class="s82" d="m76.5 70c-0.8 0.4-1.5 1-2 1.8 0.5-0.8 1.2-1.4 2-1.8z"/>
	<path id="Layer" class="s21" d="m76.5 70c-1.7 0.2-6.8 0.7-6 1 0.8 0.3 3.7 0 4 0.8 0.5-0.8 1.2-1.4 2-1.8z"/>
	<path id="Layer" class="s82" d="m73.4 73.4q-0.2 0.3-0.4 0.5 0.2-0.2 0.4-0.5z"/>
	<path id="Layer" class="s21" d="m73.7 72.8c-0.3 0.2-0.7 0.2-1.3 0.2-0.7 0-1.7-0.1-2.9-0.1q-0.9 0-1.5 0c-2.5 0-3 0.3 1.2 0.7 1.8 0.2 3 0.3 3.8 0.3q0.2-0.2 0.4-0.5 0.1-0.2 0.3-0.5z"/>
	<path id="Layer" class="s21" d="m57.3 95.5v0.1z"/>
	<path id="Layer" class="s21" d="m58.9 90.1q-0.5 0.6-1.4 1.5c-2.1 2.3-2.7 3-2.4 3 0.1 0 0.4-0.2 0.8-0.4 0.6-0.4 1.7-1.3 2.2-1.3 0.4 0 0.4 0.6-0.6 2.3q-0.2 0.2-0.2 0.4v-0.1c1.2-1.8 1.7-3.9 1.6-5.4z"/>
	<path id="Layer" class="s83" d="m60.5 83.1c-1 0.5-1.4 1-1.5 1.6 0.1-0.6 0.5-1.1 1.5-1.6z"/>
	<path id="Layer" class="s21" d="m60.1 78.6q-0.1 0-0.3 0h-0.2c-0.2 0.1 0.1 0.2 1.1 0.4 3.2 0.8 2.9 1.3 0.7 1.5-2.1 0.2-4.1-0.1-2.3 0.6 1.7 0.6 1.9 1.5 0.6 1.7-1.3 0.2-4.9 0.5-2.6 1.2q1.1 0.4 1.9 0.7c0.1-0.6 0.5-1.1 1.5-1.6 1.6-0.7 0.7-1.9 2.4-2.4 1.7-0.5 1.6-1.5 2.7-1.5h0.1 0.2q0.4 0 0.7-0.2-0.5-0.1-1.3-0.2c-2 0-4.2-0.2-5.2-0.2z"/>
	<path id="Layer" class="s83" d="m58.8 87.1c-0.2 0.5-0.4 1-0.1 1.7-0.3-0.7-0.1-1.2 0.1-1.7z"/>
	<path id="Layer" class="s21" d="m59.1 86.5c-2.1 0.8-6 1.9-2.5 2.2q1.3 0.1 2.1 0.1c-0.3-0.7-0.1-1.2 0.1-1.7q0.2-0.3 0.3-0.6z"/>
	<path id="Layer" class="s23" d="m68.7 76.9z"/>
	<path id="Layer" class="s21" d="m65.2 74.9c-2.1 0-3.3 0.2-0.4 0.9 1.9 0.4 3.1 0.8 3.9 1.1l0.1-0.1c0.9-1.1 0.2-1.6 1.2-1.6q0.2 0 0.5 0h0.2q0.2 0 0.3 0-0.4 0-0.9-0.1c-1.2-0.1-3.4-0.2-4.9-0.2z"/>
	<path id="Layer" class="s21" d="m57.9 76.4z"/>
	<path id="Layer" class="s84" d="m58.9 75.2q-0.4 0.6-1 1.2 0.6-0.6 1-1.2z"/>
	<path id="Layer" class="s21" d="m58.9 75.2q-0.4 0.6-1 1.2 0 0.1-0.1 0.2c-0.1 0.5-0.1 0.8 0 0.8 0.2 0 0.7-0.7 1-1.6 0.2-0.4 0.2-0.5 0.1-0.6z"/>
	<path id="Layer" class="s11" d="m54.6 79.8c-0.1 0.6-0.2 1.5-0.6 3.5 0.4-2 0.5-2.9 0.6-3.5z"/>
	<path id="Layer" class="s21" d="m57 77.1c-1.9 1.7-2.2 1.9-2.4 2.7-0.1 0.6-0.2 1.5-0.6 3.5q-0.1 0.5-0.3 1.1c0.4-0.3 1.1-2.5 1.4-3.8 0.2-1.1 0.5-1.8 0.7-1.8 0.1 0 0.2 0.2 0.2 0.7 0 0.4 0 0.6 0 0.6 0.1 0 0.3-0.9 0.5-1.7 0.1-0.4 0.3-0.9 0.5-1.3z"/>
	<path id="Layer" class="s21" d="m66.8 68.6q-0.2 0-0.3 0 0.1 0 0.3 0 0.1 0 0.2 0-0.1 0-0.2 0z"/>
	<path id="Layer" class="s58" d="m65.2 68.9q-0.1 0.1-0.3 0.1 0.2 0 0.3-0.1z"/>
	<path id="Layer" class="s84" d="m66.5 68.6q-0.3 0-0.8 0.2 0.5-0.2 0.8-0.2zm0.5 0c0.2 0 0.4 0.1 0.6 0.1-0.2 0-0.4-0.1-0.6-0.1z"/>
	<path id="Layer" class="s21" d="m66.8 68.6q-0.2 0-0.3 0-0.3 0-0.8 0.2-0.2 0-0.5 0.1-0.1 0.1-0.3 0.1-0.5 0.2-1.1 0.5h-0.1-0.1l-0.1 0.1h-0.1c-2.2 1.1-2.4 2.1-3.1 3.6q-0.1 0.3-0.1 0.8c-0.2 0.7-0.2 1-0.2 1 0.2 0 1.1-2.3 1.4-3.1 0.3-0.6 0.9-1.3 1.2-1.3 0.2 0 0.3 0.2 0.2 0.8-0.1 0.5-0.1 0.8 0 0.8 0.2 0 0.5-0.7 1-1.5 0.4-0.9 1.5-1.8 1.9-1.8 0.3 0 0.4 0.3 0 1.1-0.2 0.3-0.2 0.5-0.1 0.5 0.2 0 1.1-0.9 2-1.8-0.2 0-0.4-0.1-0.6-0.1q-0.1 0-0.2 0z"/>
	<path id="Layer" class="s80" d="m64.7 70.3c-0.4 0-1.7 2.8-1.7 2.8l-0.8 0.3c0.1-0.6 0-0.8-0.1-0.8-0.4 0-1.3 2.6-1.3 2.6l-1.2 1c0-0.6 0-0.8-0.1-0.8-0.2 0-0.7 1.9-0.7 1.9 0 0-0.3 1.5-0.7 1.5-0.1 0-0.3-0.1-0.4-0.5-0.1-0.5-0.2-0.6-0.2-0.6-0.2 0-0.2 1.5-0.7 2.1-0.5 0.7-0.8 2.3-0.9 2.3 0 0-0.1-0.2-0.1-0.8 0-1.1-0.1-1.5-0.1-1.5-0.1 0-0.2 0.2-0.3 0.5-0.2 0.6-0.5 3.7-0.5 3.7-2.2 4.6-1 12.8-1 12.8 0 0 0.2 0.1 0.5 0.1 0.3 0 0.9-0.1 1.7-0.8 1-0.9 0.7-1.6 0-1.6q-0.4 0-0.9 0.4-0.4 0.2-0.6 0.2c-0.4 0 0.2-1 1.4-2.6 1-1.3 1.8-2 1.4-2-0.2 0-0.7 0.2-1.5 0.5-0.5 0.2-0.7 0.3-0.8 0.3-0.4 0 2.3-1.8 0.2-2.4-2.5-0.8 4.2-2.8 1.9-3-2.3-0.2 1.8-1.1-0.4-1.9-2.1-0.8 0.8-1.6 2.3-1.8 1.5-0.1 0.6-0.3-0.8-0.9-1.5-0.6-0.6-0.8 1.2-1 1.9-0.2 3.3-0.3 0.6-0.9-1.8-0.4-1.4-0.6-0.5-0.8q0.1 0 0.2 0c0.5 0 1-0.1 1.5-0.1q0.3 0 0.6 0c0.5 0 0.9 0 1.4 0 0.4 0.1 0.8 0.1 1.1 0.1 0.7 0 0.7-0.1-0.7-0.6-3.1-0.9 2.3-1.1-0.6-2.3-2.3-1-0.4-1.2 2.7-1.2q1.1 0 2.2 0 0.6 0 0.9 0c2.7 0-0.3-0.4-3.4-1-3.4-0.7 0.9-0.9 4-1.1 3-0.2 1.9-0.4-0.5-0.7-2.5-0.4 0.3-1.1 0.3-1.1l-1.3 0.1c0 0-2.4 0.9-3 1.1-0.2 0-0.3 0.1-0.4 0.1-0.1 0 0-0.3 0.1-1.2q0.1-0.4 0-0.4z"/>
	<path id="Layer" class="s24" d="m59.8 78.6q-0.1 0-0.2 0z"/>
	<path id="Layer" class="s85" d="m54.4 99.2c0 0-2.9-10.4 3-19.3 5.9-8.9 10-10.1 16.6-10.2-4 0.1-9.1 2.2-12.2 5.5-1.1 1.2-2 2.5-2.9 3.9-1.6 2.2-3 4.6-3.7 7.2-0.8 3.1-1.2 6.1-0.9 9.2 0.2 2 0.1 3.7 1 5.4z"/>
	<path id="Layer" class="s16" d="m15 52.4c0-0.4 0-0.9 0.4-0.8 0.4 0 2.2 0.7 3.1 0.9 1 0.3 2.1 0.7 2.9 0.8 0.8 0 2.3 0.7 2.8 1.4 0.5 0.8 0.7 0.6 1.7 1.1 1 0.4 3.3 1.7 4.1 3.3 0.9 1.6 1.5 2 2.5 2.5 1 0.5 2.3 1.3 3.4 3.4 1.2 2.1 0.4 1.7 1.2 2.1 0.8 0.5 1.8 2.1 2.2 3 0.4 0.8 1.7 3.1 2.7 3.6 0.9 0.5 3 6.9 3.9 8.8 0.9 2 3.3 7.5 3.8 8.4 0.5 1 1.7 4.8 2.5 6.4 0.8 1.7 1.6 3.4-0.3 1.5-1.8-1.8-5-6.1-5.1-7.1-0.1-0.9-1-2-1.5-2.8-0.6-0.8-0.9-1.5-1.6-1.9-0.7-0.4-1.9-1.5-2.6-2.7-0.8-1.3-2.1-1.4-3.7-4.7-1.6-3.4-3.4-5.3-4.6-5.8-1.2-0.6-2.4-2.3-3.3-3-0.8-0.7-1.5-0.8-2.7-3.4 0 0-0.1-0.6-0.4-0.7-0.3-0.1-1-0.8-1.1-1.4 0-0.6 0-1.4-0.3-2.1-0.3-0.6-0.9-2.3-1.3-2.4-0.5-0.1-1.8-0.7-2.1-1.2-0.3-0.6-1.1-0.7-1.5-1.3-0.4-0.7-0.9-1.8-1.4-2-0.5-0.2-1.4-0.7-1.8-1.1-0.7-0.6-1.4-1.2-1.7-2 0-0.2-0.1-0.5-0.2-0.8z"/>
	<path id="Layer" class="s86" d="m38.5 81.5c0.4 0.6 0.8 1 1.1 1.3-0.3-0.3-0.7-0.7-1.1-1.3z"/>
	<path id="Layer" class="s1" d="m36.1 77.2q0.4 0.7 0.8 1.5 0.3 0.4 0.5 0.9 0.5 1.1 1 1.8l0.1 0.1c0.4 0.6 0.8 1 1.1 1.3 0.7 0.3 1.8 0.8 2.3 0.8 0.4 0 0-0.3-0.4-0.6-0.5-0.3-1-0.6-0.7-0.6q0.1 0 0.5 0.2 0.5 0.1 0.7 0.1c0.6 0-0.8-0.9-2.1-1.5-1.5-0.7 1.2-0.1-0.5-0.8-1-0.4-1.2-0.6-0.9-0.6 0.2 0 0.6 0.1 1.2 0.3q0.3 0 0.5 0c0.4 0-0.8-0.6-2.2-1.4-0.6-0.3-0.4-0.4-0.2-0.4h0.1 0.1c0.3 0 0.4 0-0.9-0.6q-0.6-0.3-1-0.5z"/>
	<path id="Layer" class="s87" d="m36.1 65.4c0.9 1.7 0.3 1.3 1 1.7 0.8 0.5 1.8 2.1 2.2 3 0.3 0.5 0.9 1.6 1.5 2.4-0.6-0.8-1.2-1.9-1.5-2.4-0.4-0.9-1.4-2.5-2.2-3-0.7-0.4-0.1 0-1-1.7z"/>
	<path id="Layer" class="s1" d="m32.9 61.8c-0.2 1.1-0.5 3.7-0.4 3.7q0.1 0 0.2-0.5c0 0 0.3-1.8 0.4-1.8q0.1 0 0.1 0.1c0.2 0.7 0.1 1.7 0.1 1.7q0.1 0 0.2-0.4 0.2-0.8 0.4-0.8 0.2 0 0.2 1.1 0 1.3 0.1 1.3 0.1 0 0.2-0.6c0.2-0.6 0.5-0.8 0.6-0.8 0.2 0 0.3 0.1 0.2 0.4 0 0.6 0.4 2.7 0.4 2.7 0 0 0 0.6 0.1 0.6 0 0 0.1-0.1 0.3-0.6 0.1-0.6 0.2-0.9 0.2-0.9 0 0 0 0.4 0.2 1.2 0.2 1.1 0.4 2.1 0.5 2.1 0.1 0 0.1-0.2 0-0.6-0.1-0.8 0.2-1.3 0.4-1.3 0.2 0 0.3 0.3 0.3 0.8 0 1.1-0.1 2.5 0.1 2.5q0.1 0.1 0.2-0.3 0.3-0.7 0.6-0.7c0.2 0 0.4 0.4 0.4 1.2 0 1.2 0.2 2.5 0.3 2.5 0.1 0 0.1-0.2 0.1-0.7 0-0.9 0.1-1.3 0.2-1.3 0.2 0 0.4 0.4 0.6 1.3 0.2 1.4 0.5 2.9 0.6 2.9 0 0 0.1-0.2 0.1-0.6 0-0.8 0-2.2 0-3.5-0.6-0.8-1.2-1.9-1.5-2.4-0.4-0.9-1.4-2.5-2.2-3-0.7-0.4-0.1 0-1-1.7q-0.1-0.2-0.2-0.4c-1-1.8-2.1-2.7-3-3.2z"/>
	<path id="Layer" class="s55" d="m18.8 54.2c-0.3 0 0.5 0.4 1.3 0.9 0.8 0.4 1.7 0.9 1.4 0.9q-0.1 0-0.3-0.1-0.7-0.1-0.9-0.1c-0.3 0 0.6 0.4 1.7 1 1.4 0.6 2.9 1.8 1.9 1.8q-0.1 0-0.4 0-0.5-0.1-0.7-0.1c-0.5 0 0.6 0.5 1.8 0.9 1.4 0.5 2.9 1.4 1.5 1.4q-0.2 0-0.4 0c-0.6-0.1-1-0.1-1.1-0.1-0.2 0 0.7 0.2 1.9 0.8 1.6 0.8 1.8 1.4 1.3 1.4h-0.1q-0.2 0-0.5 0-0.3-0.1-0.5-0.1c-0.1 0-0.1 0 0.2 0.2 0.5 0.2 2.4 1.1 2.1 1.1q-0.1 0-0.7-0.2-0.9-0.2-1.1-0.2c-0.3 0 0.7 0.5 2 1.2 1.8 1 3.2 2.1 1.1 2.2-2 0-0.3 0.1 1.3 0.5 1.1 0.2 1.5 0.6 0.9 0.6q-0.4 0-1.7-0.3c-0.6-0.1-0.9-0.2-1.1-0.2-0.4 0 1 0.6 2.5 1.2 1.8 0.9 3.1 1.5 2.1 1.5h-0.2q-0.3 0-0.5 0c-0.8 0-0.8 0.1 0.4 0.4 1.2 0.3 1.7 0.8 1 0.8q-0.3 0-0.8-0.1-0.6-0.2-0.8-0.2c-0.4 0 0.6 0.5 1.6 1 1.2 0.5 2.3 1.1 1.6 1.1q-0.2 0-0.4 0-0.5-0.1-0.7-0.1c-0.5 0-0.2 0.2 0.9 0.7 1.1 0.5 2.2 1.4 1.5 1.4q-0.3 0-0.8-0.1-0.9-0.2-1.1-0.2c-0.4 0 0.2 0.3 1.3 0.7 1.2 0.5 2.4 1.1 1.7 1.1q-0.2 0-0.5-0.1-0.4 0-0.6 0c-0.8 0-0.3 0.3 0.9 0.9 1.2 0.7 3 1.9 2.4 1.9q-0.1 0-0.6-0.2-0.5-0.2-0.7-0.2c-0.5 0 0.7 0.8 1.5 1.2 1 0.5-0.8 0.3 0 0.7 0.7 0.3 2.3 2.4 2.3 2.4q0 0-0.2-0.3c-0.7-1-0.7-5.2-1.2-5.2q-0.1-0.1-0.3 0.5c-0.1 0.4-0.2 0.5-0.3 0.5-0.1 0-0.1-0.6-0.1-1.2 0-0.7-0.1-1.3-0.2-1.3q-0.1 0-0.2 0.4c-0.3 0.7-0.5 1-0.6 1-0.3 0-0.5-1.1-0.7-2.4-0.1-0.9-0.2-1.2-0.3-1.2-0.2 0-0.3 0.4-0.5 1.1q-0.2 0.5-0.3 0.5c-0.2 0-0.3-1.3-0.6-2.5-0.2-0.9-0.2-1.3-0.3-1.3 0 0-0.1 0.3-0.4 0.8q-0.1 0.2-0.2 0.2c-0.1 0-0.2-0.4-0.3-0.9-0.1-0.4-0.1-0.9-0.2-0.9q-0.1 0-0.1 0.4-0.1 0.4-0.2 0.4c-0.2 0-0.3-2.2-0.5-3.4q0-0.4 0-0.4c-0.1 0-0.1 0.5-0.2 1-0.1 0.4-0.2 0.9-0.3 0.9q-0.1 0-0.1-0.2c-0.4-0.7-0.6-2.9-0.6-2.9q-0.1 0-0.1 0.5c0 0.8-0.1 1.1-0.2 1.1-0.1 0-0.4-0.5-0.5-1.3-0.2-0.9-0.4-1.5-0.5-1.5q0 0 0 0.5c0 0.6-0.2 1.2-0.3 1.2-0.1 0-0.2-0.1-0.2-0.5 0-0.8-0.1-1.4-0.2-1.4q-0.1-0.1-0.1 0.5-0.1 0.5-0.3 0.5c-0.3 0-0.8-1-0.8-2.8 0-1-0.1-1.3-0.2-1.3-0.2 0-0.5 1.2-0.6 1.8 0 0.4-0.2 0.6-0.4 0.6-0.3 0-0.8-0.5-0.9-1.3 0-0.8 0-1.2 0-1.2q-0.1 0-0.3 0.5-0.2 0.4-0.2 0.4c-0.2 0-0.2-0.9-0.5-2-0.3-0.8-0.4-1.3-0.5-1.3 0 0-0.1 0.4-0.2 1.1-0.1 0.4-0.1 0.6-0.2 0.6 0 0 0-1.3-0.3-2.3-0.2-1-0.3-1.8-0.4-1.8-0.1 0-0.1 0.2-0.1 0.6 0 0.7-0.1 1.1-0.3 1.1-0.1 0-0.2-0.4-0.3-1.1 0-0.7-0.2-1.2-0.3-1.2-0.1 0-0.2 0.3-0.4 1q-0.1 0.7-0.3 0.7c-0.3 0-0.7-1.1-1.4-2.7-0.4-1.2-0.8-1.6-1-1.6-0.2 0-0.2 0.6 0.1 1.1q0.1 0.3-0.2 0.3c-0.7 0-3.5-1.7-3.5-1.7q-0.3 0-0.4 0z"/>
	<path id="Layer" class="s67" d="m50.7 95.4c-0.1-0.3-0.4-0.8-0.8-1.5-0.9-1.6-2.5-4.4-5.2-9.4-5.6-10.1-22-27.9-22-27.9l-0.2 0.2c0 0 1 1.1 2.7 2.9 1.6 1.8 3.8 4.4 6.2 7.2 4.8 5.8 10.3 12.7 13 17.7 5.5 10.1 6.3 11.2 6.3 11.3l0.3-0.2c0 0-0.1-0.1-0.3-0.3z"/>
</svg>