<svg version="1.2" xmlns="http://www.w3.org/2000/svg" viewBox="0 0 100 135" width="100" height="135">
	<title>flower_in_a_pot_09-svg</title>
	<style>
		.s0 { fill: #aa6b28 } 
		.s1 { fill: #2e1010 } 
		.s2 { fill: #f9a84c } 
		.s3 { fill: #7c4317 } 
		.s4 { fill: #fab76a } 
		.s5 { fill: #de9342 } 
		.s6 { fill: #6f3b14 } 
		.s7 { fill: #f9a72b } 
		.s8 { fill: #c7883c } 
		.s9 { fill: #584521 } 
		.s10 { fill: #403215 } 
		.s11 { fill: #6c562b } 
		.s12 { fill: #775e30 } 
		.s13 { fill: #d09c5d } 
		.s14 { fill: #7c6232 } 
		.s15 { fill: #463618 } 
		.s16 { fill: #de9225 } 
		.s17 { fill: #54401d } 
		.s18 { fill: #3d2e12 } 
		.s19 { fill: #654e21 } 
		.s20 { fill: #fab64f } 
		.s21 { fill: #3c2c13 } 
		.s22 { fill: #875723 } 
		.s23 { fill: #2b200c } 
		.s24 { fill: #493719 } 
		.s25 { fill: #543f1c } 
		.s26 { fill: #2f230e } 
		.s27 { fill: #392911 } 
		.s28 { fill: #291d0a } 
		.s29 { fill: #453213 } 
		.s30 { fill: #03a24b } 
		.s31 { fill: #81d0a5 } 
		.s32 { fill: #018430 } 
		.s33 { fill: #20461f } 
		.s34 { fill: #8fa28f } 
		.s35 { fill: #122c11 } 
		.s36 { fill: #813d8e } 
		.s37 { fill: #6abd45 } 
		.s38 { fill: #4ba42c } 
		.s39 { fill: #b4dea2 } 
		.s40 { fill: #944290 } 
		.s41 { fill: #702776 } 
		.s42 { fill: #b793ba } 
		.s43 { fill: #501656 } 
		.s44 { fill: #c09ec6 } 
		.s45 { fill: #61266e } 
		.s46 { fill: #547736 } 
		.s47 { fill: #752970 } 
		.s48 { fill: #c9a0c7 } 
		.s49 { fill: #9f489b } 
		.s50 { fill: #567937 } 
		.s51 { fill: #3d6923 } 
		.s52 { fill: #682772 } 
		.s53 { fill: #782a74 } 
		.s54 { fill: #5f1a5a } 
		.s55 { fill: #812e7c } 
		.s56 { fill: #539a37 } 
		.s57 { fill: #3b7826 } 
		.s58 { fill: #658d5a } 
		.s59 { fill: #2a6818 } 
		.s60 { fill: #71327c } 
		.s61 { fill: #511e5c } 
		.s62 { fill: #5b195f } 
		.s63 { fill: #410e45 } 
		.s64 { fill: #4e1858 } 
		.s65 { fill: #019344 } 
		.s66 { fill: #00782c } 
		.s67 { fill: #3b8623 } 
		.s68 { fill: #028d2f } 
		.s69 { fill: #5ab568 } 
		.s70 { fill: #00731e } 
	</style>
	<path id="Layer" class="s0" d="m74.3 106l-3.2 23.4c0 3.2-7 5.6-15.6 5.5-8.5-0.1-15.4-2.8-15.3-6l-3.7-25z"/>
	<path id="Layer" class="s1" d="m74.3 106l-0.1-0.1-3.2 23.5c0 1.5-1.6 2.8-4.3 3.8-2.7 1-6.4 1.6-10.5 1.6q-0.3 0-0.7 0c-4.2-0.1-8-0.8-10.8-1.8-2.8-1.1-4.5-2.5-4.4-4v-0.1l-3.7-24.9 37.7 2.1v-0.1-0.1l-37.8-2.1h-0.1v0.1l3.7 25h0.1-0.1v0.1c0 1.6 1.7 3.1 4.5 4.2 2.8 1 6.7 1.7 10.9 1.8q0.4 0 0.7 0c4.1 0 7.9-0.6 10.6-1.6 2.7-1 4.4-2.4 4.4-4h-0.1 0.1l3.2-23.4v-0.1h-0.1z"/>
	<path id="Layer" class="s2" d="m74.3 106l-3.2 23.4c0 3.2-7 5.6-15.6 5.5-8.5-0.1-15.4-2.8-15.3-6l-3.7-25z"/>
	<path id="Layer" class="s3" d="m74.3 106l-0.1-0.1-3.2 23.5c0 1.5-1.6 2.8-4.3 3.8-2.7 1-6.4 1.6-10.5 1.6q-0.3 0-0.7 0c-4.2-0.1-8-0.8-10.8-1.8-2.8-1.1-4.5-2.5-4.4-4v-0.1l-3.7-24.9 37.7 2.1v-0.1-0.1l-37.8-2.1h-0.1v0.1l3.7 25h0.1-0.1v0.1c0 1.6 1.7 3.1 4.5 4.2 2.8 1 6.7 1.7 10.9 1.8q0.4 0 0.7 0c4.1 0 7.9-0.6 10.6-1.6 2.7-1 4.4-2.4 4.4-4h-0.1 0.1l3.2-23.4v-0.1h-0.1z"/>
	<path id="Layer" class="s4" d="m40.7 110.5l2.3 16.5c0 0 1 5.2 7.3 6.5q1.1 0.3 2.2 0.3c5.4 0 10-4.5 10.3-9.8 0.5-6.4 0.5-11.7 0.5-11.7 0 0-3.8 0.6-8.7 0.6-4.4 0-9.7-0.5-13.9-2.4z"/>
	<path id="Layer" class="s5" d="m74 107.5c-1.1 1-2.6 1.8-4.5 2.5-1.6 0.6-3.4 1.1-5.3 1.5q0.7 0.1 1.9 0.1c1.1 0 2.4-0.1 3.8-0.3 0 0 0.1-0.1 0.3-0.1 0.2 0 0.5 0.2 0.5 1.6 0.1 2.3-2.1 15.9-2.1 15.9 0 0-0.4 3.5-5.2 4.8-1.7 0.5-4.3 0.8-7.3 0.8-5.8 0-12.9-1.3-16-6.1l0.1 0.7v0.1c0 1.5 1.7 2.9 4.5 4 2.8 1 6.6 1.7 10.8 1.8q0.4 0 0.7 0c4.1 0 7.8-0.6 10.5-1.6 2.7-1 4.3-2.3 4.3-3.8z"/>
	<path id="Layer" class="s6" d="m74.1 107.4q-0.1 0.1-0.1 0.1l-3 21.9c0 1.5-1.6 2.8-4.3 3.8-2.7 1-6.4 1.6-10.5 1.6q-0.3 0-0.7 0c-4.2-0.1-8-0.8-10.8-1.8-2.8-1.1-4.5-2.5-4.4-4v-0.1l-0.2-0.7q0-0.1-0.1-0.2l0.2 0.9c-0.1 3.2 6.8 5.9 15.3 6q0.4 0 0.7 0c8.2 0 14.9-2.4 14.9-5.5z"/>
	<path id="Layer" class="s7" d="m35.6 99.5l3.7 0.1c3.6-2 9.6-3.4 16.3-3.4 7.6 0 14.2 1.7 17.6 4.2 1.4-0.5 2.8-0.9 2.8-0.9l-0.4 5.1c-0.5 4.2-9.2 7.5-20 7.5-10.8 0-19.6-3.4-19.9-7.7h-0.1v-4.7z"/>
	<path id="Layer" class="s3" d="m35.6 99.5v0.1l3.7 0.1c3.6-2 9.6-3.4 16.3-3.4 7.6 0 14.2 1.7 17.5 4.2h0.1c1.4-0.5 2.9-0.9 2.9-0.9l-0.1-0.1h-0.1l-0.4 5.1h0.1v-0.1l-0.1 0.1c-0.2 2-2.5 3.9-6.1 5.3-3.6 1.3-8.4 2.2-13.8 2.2-5.4 0-10.3-0.9-13.9-2.3-3.5-1.4-5.8-3.3-5.9-5.4h-0.1v-0.1-4.6h-0.1-0.1l0.1 0.1 0.1-0.1v-0.2h-0.1-0.1v0.2h0.1 0.1l-0.1-0.1-0.1 0.1v4.7l0.1 0.1 0.1-0.1h-0.1c0.1 2.3 2.5 4.2 6.1 5.6 3.6 1.4 8.5 2.2 13.9 2.2 5.4 0 10.3-0.8 13.9-2.2 3.6-1.3 5.9-3.2 6.2-5.4h-0.1v0.1l0.1-0.1 0.4-5.1v-0.1h-0.1c0 0-1.4 0.4-2.8 0.9v0.1-0.1c-3.4-2.5-10-4.2-17.6-4.2-6.7 0-12.7 1.4-16.4 3.5h0.1v-0.1l-3.7-0.1h-0.1v0.1z"/>
	<path id="Layer" class="s2" d="m35.6 99.5c0 4.4 9.1 8 20.2 8 11.2 0 20.2-3.6 20.2-8 0-4.4-9-8-20.2-8-11.1 0-20.2 3.6-20.2 8z"/>
	<path id="Layer" class="s3" d="m35.6 99.5h-0.1c0 2.3 2.3 4.3 6 5.7 3.7 1.5 8.7 2.4 14.3 2.4 5.6 0 10.7-0.9 14.3-2.4 3.7-1.4 6-3.4 6-5.7 0-2.3-2.3-4.3-6-5.8-3.6-1.4-8.7-2.3-14.3-2.3-5.6 0-10.6 0.9-14.3 2.3-3.7 1.5-6 3.5-6 5.8h0.1 0.1c0-2.1 2.2-4.1 5.9-5.6 3.6-1.4 8.6-2.3 14.2-2.3 5.6 0 10.6 0.9 14.3 2.3 3.6 1.5 5.8 3.5 5.8 5.6 0 2.1-2.2 4.1-5.8 5.6-3.7 1.4-8.7 2.3-14.3 2.3-5.5 0-10.6-0.9-14.2-2.3-3.7-1.5-5.9-3.5-5.9-5.6z"/>
	<path id="Layer" class="s8" d="m36.2 99.3c0 4 8.8 7.3 19.6 7.3 10.8 0 19.5-3.3 19.5-7.3 0-3.9-8.7-7.2-19.5-7.2-10.8 0-19.6 3.3-19.6 7.2z"/>
	<path id="Layer" class="s3" d="m36.2 99.3c0 2.1 2.2 3.9 5.7 5.2 3.6 1.4 8.5 2.2 13.9 2.2 5.4 0 10.3-0.8 13.8-2.2 3.6-1.3 5.8-3.1 5.8-5.2 0-2-2.2-3.8-5.8-5.2-3.5-1.3-8.4-2.1-13.8-2.1-5.4 0-10.3 0.8-13.9 2.1-3.5 1.4-5.7 3.2-5.7 5.2h0.1c0-1.9 2.2-3.7 5.7-5 3.5-1.3 8.4-2.1 13.8-2.1 5.4 0 10.2 0.8 13.8 2.1 3.5 1.3 5.6 3.1 5.6 5 0 2-2.1 3.8-5.6 5.1-3.6 1.3-8.4 2.1-13.8 2.1-5.4 0-10.3-0.8-13.8-2.1-3.5-1.3-5.7-3.1-5.7-5.1z"/>
	<path id="Layer" class="s9" d="m68.3 98.3c0 0 0.4-1-2.8-2.1-3.1-1.1-3.8 0.9-3.8 0.9 0 0 0.1-0.9-1.6-2-1.7-1.1-4.2 0.7-4.2 0.7-2.8-1.3-4.8 1.6-4.8 1.6-2.5-2.5-6.8-0.1-6.8-0.1-4.3-0.9-5.4 2.6-5.4 2.6-1.1 0-1.9 0.3-2.4 0.8 2.1 3.2 9.7 5.7 18.7 5.9 9.8 0.2 18-2.3 19.5-5.7-1.1-1.1-3.2-1.5-3.2-1.5-0.9-1.4-3.2-1.1-3.2-1.1z"/>
	<path id="Layer" class="s10" d="m68.4 98.3c0.3-1.1-2.2-1.9-2.8-2.1-1.2-0.5-3.1-0.7-3.9 0.6-0.1 0.2-0.1 0.2 0 0.2 0 0 0.1 0 0.1 0.1-0.1-0.4-0.2-0.6-0.4-0.9-0.5-0.7-1.4-1.2-2.2-1.4-0.8-0.2-1.6 0.1-2.3 0.4q-0.6 0.2-1.1 0.5c0.2-0.1-1.2-0.3-1-0.2-1-0.1-1.8 0.2-2.6 0.7-0.4 0.2-0.7 0.5-1 0.8-0.4 0.5-0.4-0.1-0.9-0.3-1.8-0.8-3.8-0.5-5.6 0.3-0.4 0.2-0.8 0.2-1.3 0.1-0.2 0-0.5 0-0.8 0-1 0.1-1.8 0.4-2.6 1-0.5 0.4-0.9 1-1.1 1.6-0.1 0.2-2.1 0.7-2.5 1 1.6 2.2 4.3 3.3 6.8 4.1 3.9 1.2 8 1.7 12 1.8 4.3 0.1 8.6-0.3 12.6-1.4 2.5-0.6 5.7-1.8 7-4.3h-0.1c-1-0.9-2.4-1.1-3.4-1.9-0.9-0.6-1.9-0.9-3-0.8-0.1 0 0 0.1 0.1 0.1 1.3-0.1 2.2 1 3.4 1.2 1.1 0.3 3.2 0.8 2.3 2.1-0.3 0.5-0.8 0.9-1.3 1.2-3 2.4-7.5 3.1-11.2 3.5-5.1 0.6-10.4 0.3-15.4-0.8-2.2-0.5-4.3-1.2-6.3-2.1q-1.2-0.6-2.2-1.4-0.4-0.3-0.7-0.7c-1-1.1 1.8-1.3 1.9-1.3l0.1-0.1c0.7-2.3 3.1-2.9 5.3-2.5 0.2 0 0.7-0.3 0.8-0.4 1.9-0.9 4.2-1.1 5.9 0.4h0.2q0.4-0.5 0.9-0.9c1.3-1.1 2-0.7 3.8-0.7 0.3 0 0.8-0.4 1.1-0.5 1.5-0.7 4.6-0.2 4.6 1.8h0.2c0.3-0.7 1-1 1.7-1.2-0.5 0.1 5.2 0.7 4.7 2.3z"/>
	<path id="Layer" class="s11" d="m44.6 98c0 0-3.5-0.6-4.2 1.2-0.7 1.9-2.9 0.9-1.5 2.5 1.5 1.6 3.7 1.7 4.7 0.8 1-0.9 1.4-2.1 3.4-1.9 2 0.2 0.8-1.5-0.4-1.5-1.2 0 1-1.5 2-1.6 0.9-0.1-2.1-1.2-4 0.5z"/>
	<path id="Layer" class="s11" d="m53.3 99.8c0 0-0.8-0.9-3.2-1-2.3 0-1 0.9-1.1 1.4-0.1 0.4 1.4 1.3 1.4 1.3 0 0 0.7-1.6 2.9-1.7z"/>
	<path id="Layer" class="s11" d="m52.2 97.7c-0.2-0.1 1.5-1.9 3.2-1.3 0.8 0.2 1.5 0 2.2-0.1 0.9-0.3 1.6-0.5 2.4 0.1 1.4 1 0.8 1.8 0.8 1.8 0 0-4.4 0-4.8 1.9 0 0-1.3-2.3-3.8-2.4z"/>
	<path id="Layer" class="s11" d="m63.8 99.8c0 0-0.4 0-0.9-0.1-1.4-0.2-4.1-0.4-5.1 1 0 0-0.5 0.4 0.5 1.2 1 0.9 1.8 1.1 1.8 2.2 0 0 1.4-3.1 6.8-1.7 5.5 1.3 6.1-1 5-1.7-1.1-0.7-3.3 0.3-3.3 0.3 0 0-0.9-2.1-4.8-1.2z"/>
	<path id="Layer" class="s12" d="m67 98.1c0 0-1.2-1.4-2.8-1.1-1.7 0.3 3.2 2.5 2.8 1.1z"/>
	<path id="Layer" class="s11" d="m57.3 103.5c0 0-1.8-1.4-4.1-0.8 0 0-0.2 2.3-0.7 2.3-0.6 0-1.4-3.4-4.3-3.1-2.8 0.3-4 1.4-2.9 2.4 1.2 1 6.8 2.1 10.1 1.8 3.4-0.2 2.7-1.7 1.9-2.6z"/>
	<path id="Layer" class="s11" d="m64.7 103.4c0 0-2.3-0.3-3.4 1.1-1 1.4 3.8 1.1 5.6 0.3 1.7-0.8-1.9-1.4-2.2-1.4z"/>
	<path id="Layer" class="s13" d="m56.9 92.7c-8.8 0-15.3 2.4-15.3 2.4-1.2 0.7-0.1 1.7 1.7 1.7 0.8 0 1.7-0.2 2.5-0.7 0.8-0.4 1.4-0.5 2-0.5 0.6 0 1.2 0.1 1.7 0.2 0.5 0.2 0.9 0.3 1.3 0.3 0.3 0 0.6-0.1 0.8-0.4 0.5-0.7 1.4-0.8 2.2-0.8 1 0 1.8 0.2 1.8 0.2 0 0 0.2-0.9 2.8-0.9q0.2 0 0.4 0.1c2.9 0 3.3 1.5 3.3 1.5 0.2-0.9 2.3-0.9 2.7-1.7 0.3-0.8-0.9-0.8-0.9-0.8-2.5-0.4-4.8-0.6-7-0.6z"/>
	<path id="Layer" class="s14" d="m44.6 98.7c-0.1-0.2-1-0.7-2.7-0.1-1.8 0.7-0.8 1.6 0.5 1.4 1.3-0.2 2.5-0.8 2.2-1.3z"/>
	<path id="Layer" class="s14" d="m51.3 99.2c0 0-1.2-0.2-1 0.3 0.3 0.5 2.2 0 1-0.3z"/>
	<path id="Layer" class="s14" d="m60.4 97.6c0 0-0.5-1.4-2-1.2-1.5 0.2 1.9 2.1 2 1.2z"/>
	<path id="Layer" class="s14" d="m68 100.9c0 0-2.8-1.4-2.8 0 0 1.4 3.9 1 2.8 0z"/>
	<path id="Layer" class="s15" d="m60.4 105.2q-0.1 0-0.2 0 0 0 0.1 0 0 0 0.1 0 0 0 0 0z"/>
	<path id="Layer" class="s16" d="m75.3 102.5c-1 4.4-9.1 8-9.1 8 0 0 4.7-1.5 6.5-2.6 1.8-1.1 2.4-3.2 2.4-3.2z"/>
	<path id="Layer" class="s9" d="m43.5 99.2c0 0-1.3-1.2-2.7 0.2-1.4 1.3-0.7 2.5 0.8 2.3 1.5-0.1 3.3-1.3 1.9-2.5z"/>
	<path id="Layer" class="s10" d="m43.6 99.2c-0.5-0.5-1.3-0.6-2-0.4-0.9 0.2-2.2 1.6-1.4 2.6 0.6 0.7 2 0.3 2.7 0 0.5-0.2 0.9-0.5 1.2-1 0.2-0.5-0.2-0.9-0.5-1.2h-0.2c0.8 0.7 0.5 1.4-0.3 2-0.7 0.5-2.2 0.9-2.8 0-0.6-0.9 0.6-2 1.3-2.3 0.6-0.3 1.3-0.1 1.8 0.3z"/>
	<path id="Layer" class="s17" d="m43.8 99.7q-0.1 0.2-0.2 0.4 0.1 0 0.3 0 0-0.2-0.1-0.4z"/>
	<path id="Layer" class="s18" d="m43.8 99.5q0 0 0 0.2 0.1 0.2 0.1 0.4 0 0.1 0.1 0.1 0-0.3-0.2-0.7z"/>
	<path id="Layer" class="s17" d="m40.1 100.6q0 0.3 0.2 0.6c0.2 0.4 0.7 0.5 1.1 0.5 0.4 0 0.8-0.1 1.2-0.2-0.2-0.3-0.2-0.5 0-0.8q-0.1 0-0.2 0.1c0 0-0.7 0.3-1.3 0.3q-0.2 0-0.4-0.1c-0.3-0.1-0.5-0.2-0.6-0.4z"/>
	<path id="Layer" class="s18" d="m40.3 100c-0.6 1 0 1.8 1.1 1.8q0.1 0 0.2-0.1 0.5 0 1-0.2 0 0 0 0c-0.4 0.1-0.8 0.2-1.2 0.2-0.4 0-0.9-0.1-1.1-0.5q-0.2-0.3-0.2-0.6 0-0.2 0.2-0.6z"/>
	<path id="Layer" class="s19" d="m42.3 99c-0.8 0-1.4 0.9-1.4 0.9q-0.2 0.2-0.2 0.4c0 0.1 0.1 0.1 0.2 0.1 0.3 0 0.8-0.2 1-0.3 0.3-0.1 1.2-0.4 1.2-0.7q0-0.2-0.4-0.3-0.2-0.1-0.4-0.1z"/>
	<path id="Layer" class="s9" d="m44.2 100.4c0 0-0.7-0.7-1.3 0.1-0.6 0.7-0.3 1.3 0.4 1.2 0.7-0.1 1.6-0.7 0.9-1.3z"/>
	<path id="Layer" class="s10" d="m44.2 100.4c-0.2-0.3-0.6-0.4-0.9-0.3-0.5 0.2-1.1 0.9-0.7 1.5 0.7 0.7 2.6-0.4 1.6-1.2h-0.1c0.8 0.8-0.9 1.8-1.4 1-0.2-0.4 0.2-0.9 0.5-1.1 0.3-0.2 0.6-0.1 0.9 0.1z"/>
	<path id="Layer" class="s9" d="m69.6 101.5c0 0-1.3-1.2-2.7 0.1-1.3 1.4-0.6 2.6 0.8 2.4 1.5-0.1 3.4-1.3 1.9-2.5z"/>
	<path id="Layer" class="s10" d="m69.7 101.5c-0.5-0.5-1.2-0.6-1.8-0.5-1 0.2-2.3 1.7-1.6 2.6 0.7 0.8 2 0.5 2.7 0.1 0.5-0.2 1-0.5 1.2-1 0.2-0.5-0.2-0.9-0.5-1.2-0.1 0-0.2-0.1-0.2 0 1.9 1.6-2.4 3.5-3.1 1.9-0.4-0.8 0.6-1.8 1.2-2.1 0.6-0.4 1.4-0.3 1.9 0.2 0.1 0 0.3 0.1 0.2 0z"/>
	<path id="Layer" class="s17" d="m68.7 103q-0.1 0-0.2 0c0 0-0.7 0.4-1.2 0.4q-0.1 0-0.2 0-0.2 0.1-0.6 0.2c0.2 0.3 0.6 0.4 1 0.4 0.4 0 0.8-0.1 1.2-0.2-0.2-0.3-0.1-0.6 0-0.8zm1.2-1q0 0.1-0.2 0.3 0.2 0.1 0.3 0.1 0-0.2-0.1-0.4z"/>
	<path id="Layer" class="s18" d="m66.5 103.6q-0.1 0-0.1 0c0.2 0.3 0.6 0.4 1.1 0.4q0.1 0 0.2 0 0.5 0 1-0.2 0 0 0 0 0 0 0 0c-0.4 0.1-0.8 0.2-1.2 0.2-0.4 0-0.8-0.1-1-0.4zm3.4-1.8q0 0 0 0.2 0.1 0.2 0.1 0.4 0.1 0 0.1 0.1 0.1-0.3-0.2-0.7z"/>
	<path id="Layer" class="s19" d="m68.5 101.3q-0.2 0-0.4 0.1c0.3 0.1 0.5 0.4 0.3 0.8q0 0-0.1 0.1c0.4-0.2 0.9-0.4 0.9-0.6q0-0.2-0.3-0.3-0.2-0.1-0.4-0.1z"/>
	<path id="Layer" class="s9" d="m70.3 102.6c0 0-0.7-0.6-1.3 0.1-0.6 0.8-0.3 1.4 0.4 1.3 0.7-0.1 1.6-0.7 0.9-1.4z"/>
	<path id="Layer" class="s10" d="m70.4 102.6c-0.3-0.2-0.6-0.3-0.9-0.2-0.5 0.1-1.2 0.9-0.8 1.4 0.7 0.8 2.6-0.3 1.7-1.2l-0.2 0.1c0.9 0.8-0.9 1.7-1.4 1-0.2-0.3 0.1-0.7 0.3-0.9 0.3-0.4 0.8-0.5 1.1-0.1z"/>
	<path id="Layer" class="s20" d="m36.5 102.8c0 0 0 2.1 0.2 2.5 0.2 0.5 0.8 1.3 0.8 1.3 5.1 3.9 13.1 4.7 18.8 4.7 3.6 0 6.3-0.3 6.6-0.4 0.7 0 0.4-3.1 0.4-3.1q-4.4 0.4-7.9 0.4c-15.3 0-18.9-5.4-18.9-5.4z"/>
	<path id="Layer" fill-rule="evenodd" class="s21" d="m52.2 97.7c2.5 0.1 3.8 2.4 3.8 2.4 0.4-1.8 4.4-1.9 4.8-1.9q0 0 0 0c0 0 0.1-0.1 0.1-0.3q0.1 0.1 0.2 0.3c0.3 0.7 2.2 1 3.5 1.5q-0.4 0-0.8 0.1 0 0 0 0c-0.1 0-0.4-0.1-0.9-0.1-0.5-0.1-1.1-0.1-1.8-0.1-1.3 0-2.7 0.2-3.3 1.1 0 0-0.5 0.4 0.5 1.2 1 0.9 1.8 1.1 1.8 2.2 0 0 0.9-2.1 4.3-2.1q0.8 0 1.9 0.2-0.1 0.2-0.1 0.3-0.7-0.1-1.5-0.1-0.7 0-1.4 0.1c-2.9 0.6-3.8 2.6-3.1 2.7-0.7 0.1-1.4 0.2-2.1 0.4q-0.7 0.2-1.3 0.3c1.8-0.5 1.2-1.7 0.5-2.4 0 0-1.2-0.9-2.8-0.9q-0.6-0.1-1.3 0.1c0 0-0.2 2.3-0.7 2.3q0 0 0 0c-0.6 0-1.4-3.1-3.9-3.1q-0.2 0-0.4 0c-2.6 0.3-3.8 1.3-3.1 2.2-0.4-0.2-0.8-0.4-1.4-0.8q-0.4-0.2-0.7-0.4 0.3-0.2 0.6-0.4c1-0.8 1.3-1.9 3-1.9q0.2 0 0.4 0 0.2 0 0.3 0c1.6 0 0.4-1.5-0.7-1.5-0.6 0-0.4-0.3 0-0.7 1.2-0.4 2.7-0.9 4.2-1.2q0.1 0.1 0.2 0.2h0.2q0.1-0.2 0.3-0.3 0.7-0.2 1.4-0.2c-0.5 0.4-0.8 0.7-0.7 0.8zm-1.9 4c-0.2-0.1-1.1-0.7-2.3-0.7-0.8 0-1.7 0.3-2.6 1.2-0.9 0.6-1.1 1.3-1.1 1.3q0.5-0.8 1.1-1.3c0.5-0.4 1.3-0.7 2.4-0.7q0.7 0 1.6 0.2c0 0 2.9 1.1 3.2 2.9 0 0 0.3-1.8-0.7-2.1-0.5-0.1 0.5-0.4 1.9-0.4 1.4 0 3.3 0.3 4.5 1.3 0.5 0.5 0.9 0.7 1.1 0.7 0.5 0-0.8-2-2.5-2.5 0 0 0.8-1.9 3-2.2 0.9-0.1 0.7-0.3 0.1-0.3-1 0-3.1 0.4-3.9 1.9 0 0-1.9-3.1-5.6-3.1q-0.3 0-0.5 0c0 0 3.8 1.2 4.1 2.1 0.2 1-2.5 0.6-3.1 1.5 0 0-0.3 0.2-0.5 0.2q-0.1 0-0.2 0zm3-1.9c0 0-0.8-0.9-3.2-1q-0.1 0-0.2 0c-2.1 0-0.8 0.9-0.9 1.4-0.1 0.4 1.4 1.3 1.4 1.3 0 0 0.7-1.6 2.9-1.7z"/>
	<path id="Layer" class="s22" d="m51.2 97.1q-0.2 0-0.3 0.1 0 0 0 0 0 0 0.1 0 0 0 0.2-0.1z"/>
	<path id="Layer" class="s21" d="m47.4 105.2q0.1 0 0.1 0c0.7 0.3 1.6 0.5 2.5 0.6-1-0.2-1.8-0.4-2.6-0.6zm3.5-8q0 0 0 0 0 0 0 0z"/>
	<path id="Layer" class="s23" d="m51.5 97.1q-0.2 0-0.3 0-0.2 0.1-0.2 0.1-0.1 0-0.1 0 0 0 0 0-0.1 0-0.1 0 0.1 0.1 0.2 0.2h0.2q0.1-0.2 0.3-0.3z"/>
	<path id="Layer" class="s24" d="m46.6 98.4q-0.4 0.2-0.8 0.3c-1.9 0.6 0 1-1.4 1.8 0.4 0.6-0.5 1.3-1.2 1.3q-0.3 0-0.5-0.2-0.4 0.7 0.3 1.3 0.3-0.2 0.6-0.4c1-0.8 1.3-1.9 3-1.9q0.2 0 0.4 0 0.2 0 0.3 0c1.6 0 0.4-1.5-0.7-1.5-0.6 0-0.4-0.3 0-0.7z"/>
	<path id="Layer" fill-rule="evenodd" class="s24" d="m50.1 98.8c2.4 0.1 3.2 1 3.2 1-2.2 0.1-2.9 1.7-2.9 1.7 0 0-1.5-0.9-1.4-1.3 0.1-0.5-1.2-1.4 0.9-1.4q0.1 0 0.2 0zm1.2 0.4c0 0-0.2 0-0.5 0-0.3 0-0.6 0-0.5 0.3 0.1 0.1 0.3 0.2 0.6 0.2 0.6 0 1.3-0.3 0.4-0.5z"/>
	<path id="Layer" class="s24" d="m52.9 96.9q0 0 0 0c-0.5 0.4-0.8 0.7-0.7 0.8 2.5 0.1 3.8 2.4 3.8 2.4 0.4-1.8 4.4-1.9 4.7-1.9q0.1 0 0.1 0c0 0 0.1-0.1 0.1-0.3q-0.2-0.2-0.5-0.2-0.1 0.2-0.3 0.2c-0.3 0-0.6-0.1-0.8-0.3-0.4 0.1-0.7 0.2-0.7 0.2-1.1-0.4-1.9 0.1-4.3-0.7q-0.6-0.2-1.4-0.2z"/>
	<path id="Layer" class="s24" d="m61.1 99.6c-1.3 0-2.7 0.2-3.3 1.1 0 0-0.5 0.4 0.5 1.2 1 0.9 1.8 1.1 1.8 2.2 0 0 0.9-2.1 4.3-2.1q0.8 0 1.9 0.2 0.2-0.2 0.3-0.4c-0.7 0-1.4-0.3-1.4-0.9 0-0.4 0.2-0.6 0.5-0.6-0.1-0.3-0.5-0.5-1.1-0.6q-0.4 0-0.8 0.1 0 0 0 0c-0.1 0-0.4-0.1-0.9-0.1-0.5-0.1-1.1-0.1-1.8-0.1z"/>
	<path id="Layer" class="s24" d="m48.6 101.9q-0.2 0-0.4 0c-2.6 0.3-3.8 1.3-3.1 2.2 0.6 0.3 1.2 0.5 2.3 1.1 0.8 0.2 1.6 0.4 2.6 0.6 1.7 0.1 3.7-0.1 4.9 0.2q0.3 0 0.7 0 0.6 0 1.2-0.1c1.8-0.5 1.2-1.7 0.5-2.4 0 0-1.2-0.9-2.8-0.9q-0.6-0.1-1.3 0.1c0 0-0.2 2.3-0.7 2.3q0 0 0 0c-0.6 0-1.4-3.1-3.9-3.1z"/>
	<path id="Layer" class="s25" d="m50.8 99.2c-0.3 0-0.6 0-0.5 0.3 0.1 0.1 0.3 0.2 0.6 0.2 0.6 0 1.3-0.3 0.4-0.5 0 0-0.2 0-0.5 0z"/>
	<path id="Layer" class="s25" d="m59.8 97.6q-0.3 0-0.5 0c0.3 0.2 0.5 0.3 0.8 0.3q0.2 0 0.3-0.2-0.3-0.1-0.6-0.1z"/>
	<path id="Layer" class="s25" d="m65.7 100.3c-0.3 0-0.5 0.2-0.5 0.6 0 0.6 0.7 0.9 1.4 0.9 0.3-0.3 0.6-0.5 0.8-0.6-0.8-0.2-1.8-0.3-1.7-0.8q0-0.1 0-0.1z"/>
	<path id="Layer" fill-rule="evenodd" class="s26" d="m45.4 102.2c-0.9 0.6-1.1 1.3-1.1 1.3q0.5-0.8 1.1-1.3zm5.1-4.3q-0.3 0-0.5 0c0 0 3.8 1.2 4.1 2.1 0.2 1-2.5 0.6-3.1 1.5 0 0-0.3 0.2-0.5 0.2q-0.1 0-0.2 0c-0.2-0.1-1.1-0.7-2.3-0.7-0.8 0-1.7 0.3-2.6 1.2 0.5-0.4 1.3-0.7 2.4-0.7q0.7 0 1.6 0.2c0 0 2.9 1.1 3.1 2.9 0 0 0.4-1.8-0.6-2.1-0.5-0.1 0.5-0.4 1.9-0.4 1.4 0 3.3 0.3 4.5 1.3 0.5 0.5 0.9 0.7 1.1 0.7 0.5 0-0.8-2-2.5-2.5 0 0 0.8-1.9 3-2.2 0.9-0.1 0.7-0.3 0.1-0.3-1 0-3.1 0.4-3.9 1.9 0 0-1.9-3.1-5.6-3.1zm5.6 3.1q0 0 0 0z"/>
	<path id="Layer" class="s21" d="m65.2 103c-3.5 0-4.6 2-4.8 2.2q0.3 0 0.7 0 0.1 0 0.2 0 0 0 0 0c-0.2-0.2-0.2-0.4 0-0.7 0.8-1 2.2-1.1 2.9-1.1 0.3 0 0.5 0 0.5 0 0.1 0 0.8 0.1 1.4 0.3q0.1 0 0.2-0.1-0.2-0.2-0.2-0.5-0.5-0.1-0.9-0.1z"/>
	<path id="Layer" class="s24" d="m64.2 103.4c-0.7 0-2.1 0.1-2.9 1.1-0.2 0.3-0.2 0.5 0 0.7q0.1 0 0.2 0c2.3 0 2.4-0.9 4.2-1.4q0.2-0.1 0.4-0.1c-0.6-0.2-1.3-0.3-1.4-0.3 0 0-0.2 0-0.5 0z"/>
	<path id="Layer" class="s26" d="m64.7 102.4q-0.7 0-1.4 0.1c-2.9 0.6-3.8 2.6-3.1 2.7q0.1 0 0.2 0c0.2-0.2 1.3-2.2 4.8-2.2q0.4 0 0.9 0.1 0-0.3 0.1-0.6-0.7-0.1-1.5-0.1z"/>
	<path id="Layer" class="s21" d="m44.2 100.6q-0.1 0-0.1 0.1-1 0.4-1.3 0.8 0.2 0.2 0.4 0.2c0.6 0 1.3-0.6 1-1.1z"/>
	<path id="Layer" class="s23" d="m44.4 100.5q-0.1 0-0.2 0.1c0.3 0.5-0.4 1.1-1 1.1q-0.2 0-0.4-0.2-0.1 0.1-0.1 0.1 0.2 0.2 0.5 0.2c0.7 0 1.6-0.7 1.2-1.3z"/>
	<path id="Layer" class="s21" d="m67.7 101.2q-0.1 0-0.1 0.1c-0.5 0.2-1.3 0.9-1.3 1.6 0 0.2 0.2 0.3 0.5 0.4q0.2 0.1 0.3 0.1c0.6-0.2 0.8-0.4 1.2-1.1q-0.2 0-0.3 0.1c-0.2 0.1-0.6 0.3-0.9 0.3-0.2 0-0.3 0-0.3-0.2q0-0.1 0.2-0.3c0 0 0.4-0.6 1.1-0.8q-0.2-0.1-0.4-0.2z"/>
	<path id="Layer" class="s23" d="m67.4 101.2c-0.3 0.1-0.5 0.3-0.8 0.6q-0.1 0.2-0.3 0.4-0.1 0.2-0.1 0.3-0.1 0.3-0.1 0.6 0 0.3 0.2 0.5 0.1 0 0.1 0c-0.3-0.3-0.3-0.8 0-1.3h0.1q-0.3 0.4-0.2 0.6c0-0.7 0.8-1.4 1.3-1.6q0-0.1 0.1-0.1-0.2 0-0.3 0z"/>
	<path id="Layer" class="s27" d="m66.3 102.9q-0.1 0.3 0.1 0.5 0 0.1 0.1 0.2 0.4-0.1 0.6-0.2-0.1 0-0.3-0.1c-0.3-0.1-0.5-0.2-0.5-0.4z"/>
	<path id="Layer" class="s28" d="m66.4 102.3c-0.3 0.5-0.3 1 0 1.3q0 0 0.1 0-0.1-0.1-0.1-0.2-0.2-0.2-0.1-0.5-0.1-0.2 0.2-0.6z"/>
	<path id="Layer" class="s29" d="m68.1 101.4c-0.7 0.2-1.1 0.8-1.1 0.8q-0.2 0.2-0.2 0.3c0 0.2 0.1 0.2 0.3 0.2 0.3 0 0.7-0.2 0.9-0.3q0.1-0.1 0.3-0.1 0.1-0.1 0.1-0.1c0.2-0.4 0-0.7-0.3-0.8z"/>
	<path id="Layer" class="s30" d="m45.6 97c0 0-8.3 3.1-16.8-7.9-8.5-11-4.7-17.2-7.6-18.8-2.8-1.6 21.6 6.4 24.4 26.7z"/>
	<path id="Layer" class="s31" d="m44.1 97.3q-0.6 0.1-1.3 0.1h0.1q0.7 0 1.2-0.1zm-2.6-11.5q0 0.1 0.1 0.3 0.5 0.9 1 1.8l0.2 0.1q-0.6-1.1-1.3-2.2zm-20.3-15.7c1.2 0.2 10.7 4 17.5 12.1v-0.2c-7-8.1-16.7-11.9-17.5-11.9z"/>
	<path id="Layer" fill-rule="evenodd" class="s32" d="m38.7 82.1q0.2 2 0.7 3.7c-4.1-4.6-11.7-10.9-13.7-12.2-0.8-0.5-1.2-0.7-1.3-0.7-0.5 0 0.4 1.5 0.9 4.9 0.5 4.8 3 6.4 6.6 12.5 2.6 4.6 7.9 5.6 10.4 5.8q0.8 0.7 1.8 1.2-0.6 0.1-1.3 0.1c-3.2 0-8.5-1.3-13.9-8.3-8.5-11-4.7-17.2-7.6-18.8q-0.2-0.2-0.2-0.2c1.2 0.2 10.7 4 17.6 12zm-1 8.1q-0.9-0.7-1.8-1.4c-2.1-1.6-3.2-3.1-3.9-4.3 1.9 0.9 3.8 3 5.7 5.7zm-1.7-5.1c-1.7-0.6-3.2-0.9-4.3-1.1-0.8-1.4-1.2-2.6-2.2-3.4-0.3-0.3-0.4-0.5-0.3-0.5 0.5 0 4.5 2.5 6.8 5zm6.6 2.8q-0.4-0.2-0.7-0.4-0.2-0.6-0.4-1.4 0.6 0.9 1.1 1.8z"/>
	<path id="Layer" class="s33" d="m37.4 51.5c0 0 1.7 2.5 1.1 13.7-0.6 11.3-0.5 20.1 2.9 25.1 0 0 1.5 0.9 1.1-0.4-0.4-1.4-3.5-12.8-2.9-23.3 0.7-10.5 0.3-14-0.2-14.7-0.4-0.8-2.4-1.9-2-0.4z"/>
	<path id="Layer" class="s34" d="m40 58.1c0 2.1-0.1 4.9-0.4 8.5q0 1.3-0.1 2.6 0.1-1.3 0.1-2.5c0.3-3.7 0.4-6.5 0.4-8.6z"/>
	<path id="Layer" class="s35" d="m39.1 53.4c0.3 1.9 0.3 5.8-0.2 13.3-0.5 7.8 1.1 16.1 2.2 20.4q0.4 0.2 0.8 0.4c-0.9-3.7-2.4-11.1-2.4-18.3q0.1-1.3 0.1-2.6c0.3-3.6 0.4-6.4 0.4-8.5 0-2 0-3.4-0.1-4.3q-0.5-0.2-0.8-0.4z"/>
	<path id="Layer" class="s36" d="m70.3 46.3c0.1-0.3 0.6-2.7 3.2-4.5 2.6-1.7 2.7-2.5 2.7-3 0-0.5 2.5 7-2.9 10.3-5.4 3.3-3.1-1.1-3-2.8z"/>
	<path id="Layer" class="s37" d="m38.1 52.4c0 0 0.9 1.6 3.8 1.9 3 0.2 4 1.1 4.5 1.5 0.2 0.1 0-1-0.8-2.1-1.1-1.5-3.4-3-7.5-1.3z"/>
	<path id="Layer" class="s38" d="m42.1 52q-0.8 0.3-1.7 0.3-0.4 0-0.9-0.1-0.1 0.1-0.2 0.2-0.1 0.2-0.3 0.6c0.5 0.3 1.5 0.7 2.8 0.9 2.8 0.2 3.9 1 4.4 1.4-0.4-1.1-1.6-3-4.1-3.3z"/>
	<path id="Layer" class="s37" d="m37.8 51.9c0 0-5.3 0.5-6.9 3.4 0 0 3.4-1.1 5.1-0.6 0.8 0.3 2.1-0.6 2.8-1.5 0.8-1 0.9-2-1-1.3z"/>
	<path id="Layer" class="s38" d="m36.8 52.3c-1.4 0.3-3.9 0.9-5.4 2.4 0.8-0.2 2.2-0.5 3.3-0.5q0.7 0 1.2 0.1 0.2 0.1 0.3 0.1c0.9 0 2.1-1 2.7-1.8h-0.1q-0.2 0-0.4 0h-0.1c-0.4 0-0.9-0.1-1.5-0.3z"/>
	<path id="Layer" class="s30" d="m60.7 70.5c0.1-0.3-1.1-9.1-6.3-10.4-5.1-1.4 2.5 1.3 2.8 6.4 0.3 5 3.1 5.2 3.5 4z"/>
	<path id="Layer" class="s31" d="m60.8 69.9h-0.1q0 0.5 0 0.6c-0.1 0.4-0.4 0.6-0.9 0.6h0.1c0.3 0 0.6-0.1 0.8-0.4q0.1-0.1 0.1-0.3 0-0.1 0-0.5zm-7.9-10.2c0.2 0.1 0.7 0.2 1.5 0.4l-0.1-0.1c-0.7-0.2-1.2-0.3-1.4-0.3z"/>
	<path id="Layer" class="s32" d="m52.9 59.7c-1 0.1 4.2 2.6 4.4 6.8 0.2 3.4 1.5 4.6 2.5 4.6 0.5 0 0.8-0.2 0.9-0.6q0-0.1 0-0.6-0.3 0.2-0.6 0.2c-1 0-2.4-1.2-2.6-4.7-0.1-2.3-1.8-4.2-3.1-5.3-0.8-0.2-1.3-0.3-1.5-0.4z"/>
	<path id="Layer" class="s37" d="m61.1 70.7c0 0 3.7-5.5 7.7-6.4 4-1 5.8-3.2 5.9-3.5 0.1-0.1-1.1 2.4-3.4 5-2.2 2.5-5.7 5-10.2 4.9z"/>
	<path id="Layer" class="s39" d="m74.8 60.9q-0.1 0.1-0.3 0.4c-0.5 0.9-1.5 2.7-3.2 4.5-2 2.2-5 4.5-8.9 4.8v0.1c7.7-0.6 12-9 12.4-9.8z"/>
	<path id="Layer" class="s38" d="m74.5 61.3q-0.3 0.3-0.7 0.6c-1.8 2.8-5.5 7.2-11 7.7q-0.2 0.5-0.4 1c3.9-0.3 6.9-2.6 8.9-4.8 1.7-1.8 2.7-3.6 3.2-4.5z"/>
	<path id="Layer" class="s40" d="m67.2 53.4c0 0 0-10.4-12.3-8.6 0 0 2.8-0.5 3.8 2.7 1.1 3.1 4.2 7.1 8.5 5.9z"/>
	<path id="Layer" class="s40" d="m66.9 53.5c0 0 2.3-6.3 6.8-5.9 4.5 0.4 6.3-0.3 6.3-0.3 0 0-1.7 0.7-2.2 2-0.5 1.2-3 5-10.9 4.2z"/>
	<path id="Layer" class="s41" d="m36.9 42.7c0 0-2.9-4.7-0.3-9.1 2.6-4.4 2.8-4.9 2.8-5.6 0 0 0.5 3.5 2.1 6.4 1.5 2.9 1.5 7.5-0.1 9-1.7 1.4-2.6 4.3-4.5-0.7z"/>
	<path id="Layer" class="s42" d="m36.6 33.6c-0.8 1.4-1.1 2.8-1.1 4 0-1.2 0.3-2.6 1.1-4z"/>
	<path id="Layer" class="s43" d="m41.8 35.1c0 1.4-0.3 2.7-0.9 3.3-0.2 0.3-0.4 0.6-0.7 0.8q0.6 1.2 1.1 2.6c0.2-0.3 0.8-1 1.3-2 0-1.5-0.2-3.3-0.8-4.7zm-4.8-2.1q-0.2 0.2-0.4 0.6c-0.8 1.4-1.1 2.8-1.1 4 0 0.8 0.1 1.6 0.3 2.2 0.6 0.6 1.1 0.9 1.2 1 0.4-1.3 0.7-2.1 0.9-2.7l-0.1-0.2c0 0-1.2-2.3-0.8-4.9z"/>
	<path id="Layer" class="s36" d="m41.3 41.8c0 0 2.7-3.3 2.2-5.9-0.6-2.6 3.7 9.1-0.7 12.1-4.4 2.9-2.6-4.4-1.5-6.2z"/>
	<path id="Layer" fill-rule="evenodd" class="s44" d="m43.4 35.6c0.2 0 1.2 3.1 1.4 6.3-0.2-3.2-1.2-6.3-1.4-6.3zm0.1 0.3q0 0 0 0 0 0 0 0zm0 0q0 0.3 0 0.6 0-0.3 0-0.6zm-0.1-0.3q0-0.1 0.1 0.3-0.1-0.4-0.1-0.3z"/>
	<path id="Layer" class="s45" d="m43.4 35.6q0-0.1 0.1 0.3 0 0.3 0 0.6c0.7 3 1.1 7.5-1.2 9.3q0 0.2 0 0.4 0.3-0.2 0.7-0.3 0.8-0.4 1.5-0.7c0.3-1 0.3-2.1 0.3-3.2v-0.1c-0.2-3.2-1.2-6.3-1.4-6.3z"/>
	<path id="Layer" class="s36" d="m37.1 40.8c0 0-3.7-2.2-4.8-5.9-1.1-3.8-3.2 11.1 5.1 15.9 8.4 4.8-0.3-10-0.3-10z"/>
	<path id="Layer" class="s44" d="m31.2 38.8c0.1 1.6 0.4 3.3 0.9 5-0.5-1.7-0.8-3.4-0.9-5z"/>
	<path id="Layer" class="s45" d="m31.9 34.3c-0.4 0-0.8 1.9-0.7 4.5 0.1 1.6 0.4 3.3 0.9 5q0.8 0.2 1.7 0.7c-1.8-3.6-2.1-7.9-1.8-10.2z"/>
	<path id="Layer" class="s40" d="m39.1 52.5c0 0-3.4 0.8-6.5-3.5-3.2-4.3-2.8-4.9-4.4-5.2-1.6-0.2 8.5-2.7 10.9 8.7z"/>
	<path id="Layer" class="s46" d="m39.1 52.5q-0.1 0-0.2 0.1 0.1-0.1 0.2-0.1z"/>
	<path id="Layer" class="s47" d="m39.1 52.5l-0.3 0.1h0.1q0.1-0.1 0.2-0.1zm-9.5-9.1c-1 0-1.6 0.3-1.6 0.4h0.2v0.1c1.6 0.2 1.2 0.8 4.4 5.1v0.1h0.1v0.1h0.1q0.1 0.2 0.2 0.3v0.1c2.1 2.5 4.2 3 5.3 3h0.1 0.1q0.1 0 0.3 0c-0.1-0.1-0.4-0.4-0.8-1-1.3-0.2-3.3-1-5.2-3.6-2-2.8-2.6-4-3.2-4.6z"/>
	<path id="Layer" class="s40" d="m38.8 52.1c0 0 0.2-4.5 4.2-6.2 4-1.8 5.1-2.4 5.4-3.3 0.2-0.4-0.4 2.2-1.8 4.8-1.5 2.9-4.1 5.8-7.8 4.7z"/>
	<path id="Layer" class="s48" d="m48.4 42.6v0.1-0.1z"/>
	<path id="Layer" class="s47" d="m48.4 42.6v0.1c-0.8 2.5-3.2 8.5-7.6 8.6q-0.6 0.5-1.3 0.9 0.5 0.1 0.9 0.1c2.9 0 4.9-2.4 6.2-4.9 1.3-2.4 1.9-4.8 1.8-4.8z"/>
	<path id="Layer" class="s49" d="m38.8 52.5c0 0-3.4-3.2-2.4-8.7 1-5.6 2.1-5.8 1.6-7.8-0.5-2 9.5 13 0.8 16.5z"/>
	<path id="Layer" class="s50" d="m39.4 52.2v0.1l0.1-0.1z"/>
	<path id="Layer" class="s51" d="m39.5 52.2l-0.1 0.1h-0.1v0.1q0.1-0.1 0.2-0.2z"/>
	<path id="Layer" class="s50" d="m39.3 52.3q-0.1 0.1-0.3 0.1l0.1 0.1 0.2-0.1z"/>
	<path id="Layer" class="s51" d="m38.8 52.6z"/>
	<path id="Layer" class="s52" d="m36.2 45.7q0 0.4 0 0.7 0-0.3 0-0.7z"/>
	<path id="Layer" class="s53" d="m39 52.4l0.1 0.1zm-2.8-6c0.1 2.3 1 4.1 1.7 5.1-0.7-1-1.6-2.7-1.7-5.1z"/>
	<path id="Layer" class="s54" d="m38 51.5c0.4 0.6 0.7 1 0.8 1.1l0.3-0.1-0.1-0.1q-0.1 0.1-0.2 0.1c0 0-0.4-0.3-0.8-0.9z"/>
	<path id="Layer" class="s53" d="m39.5 52.2h-0.1 0.1zm2.9-5.2c0 1.7-0.4 3.2-1.6 4.3 1.2-1.1 1.6-2.6 1.6-4.3z"/>
	<path id="Layer" class="s54" d="m40.8 51.3h-0.1q-0.5 0.5-1.2 0.9 0.7-0.4 1.3-0.9z"/>
	<path id="Layer" class="s55" d="m41.5 42.3c0.5 3 0 6.1-2.8 7.4 0 0-2.3-2.5-2.1-6.9q-0.1 0.5-0.2 1-0.2 1-0.2 1.9 0 0.4 0 0.7c0.2 2.4 1.1 4.1 1.8 5.2 0.4 0.6 0.8 0.9 0.8 0.9q0.1 0 0.2-0.1 0.2 0 0.3-0.1h0.1v-0.1h0.1q0.7-0.4 1.2-0.9c1.2-1.1 1.6-2.6 1.7-4.3 0-1.5-0.4-3.2-0.9-4.7z"/>
	<path id="Layer" class="s37" d="m57.6 100.9q0.1-1.1 0.1-2.2c-0.1 1.1-0.1 1.8-0.1 2.2z"/>
	<path id="Layer" class="s37" d="m53.9 96.8c1.4 2.2 2.7 3.7 3.3 4.3-0.2-0.6-0.4-1.1-0.4-1.1q-1.4-1.7-2.9-3.2z"/>
	<path id="Layer" class="s56" d="m58.2 97.4l0.1-0.2q-0.1 0.3-0.1 0.2z"/>
	<path id="Layer" class="s56" d="m56.1 98.7q0.1 0.5 0.1 0.5 0-0.2-0.1-0.5z"/>
	<path id="Layer" class="s56" d="m57.1 96.3c0-0.6-0.4-1.8-1-3.1 0.7 2.3 1 3.6 1 3.1z"/>
	<path id="Layer" class="s33" d="m64.9 53.4c0 0 0.5 6.1-1.8 11.7-2.3 5.7-9 18.4-6 30.9 0 0 1.6 1.6 1.3-1.4-0.3-2.9-0.3-14.6 3.6-23.4 4-8.7 5.8-16.2 5.1-17.8-0.7-1.6-2.3-1.5-2.2 0z"/>
	<path id="Layer" class="s34" d="m62.4 70.7h-0.1q-0.1 0.3-0.3 0.5c-2.9 6.8-3.6 15.2-3.7 20.1 0.1-4.9 0.8-13.3 3.7-20q0.2-0.3 0.4-0.6zm4.8-15.8c-0.2 2.5-1.4 7.2-3.7 12.9l0.1-0.1c2.2-5.6 3.5-10.4 3.6-12.8z"/>
	<path id="Layer" class="s57" d="m63.6 67.7l-0.1 0.1q-0.3 0.9-0.7 1.8 0.4-1 0.8-1.9z"/>
	<path id="Layer" class="s58" d="m62.4 70.6h-0.1v0.1h0.1z"/>
	<path id="Layer" class="s59" d="m62.8 69.6q-0.3 0.5-0.5 1h0.1q0.2-0.5 0.4-1z"/>
	<path id="Layer" class="s34" d="m57.6 96.3v0.1q0.2 0.1 0.3 0.1h0.1v-0.1h-0.1q-0.2 0-0.3-0.1z"/>
	<path id="Layer" class="s35" d="m66.5 54.5c0 2.7-1.8 9.3-5.2 16.8-3.9 8.8-3.9 20.5-3.6 23.4 0.1 0.9 0 1.4-0.1 1.6q0.1 0.1 0.3 0.1h0.1q0.2-0.9 0.4-1.8c-0.1-0.8-0.1-1.9-0.1-3.3 0.1-4.9 0.8-13.3 3.8-20.1q0.1-0.2 0.2-0.5v-0.1q0.3-0.5 0.5-1 0.4-0.9 0.7-1.8c2.3-5.7 3.5-10.4 3.7-12.9q-0.4-0.2-0.7-0.4z"/>
	<path id="Layer" class="s37" d="m65.9 53.4c0 0-6.2-1.6-8.5 1.8-2.3 3.4-1.5 2.2 0.5 1.6 2.1-0.5 3.2-1.9 5.1-1.5 1 0.2 2-0.4 2.6-0.9 0.6-0.5 0.8-1.1 0.3-1z"/>
	<path id="Layer" class="s38" d="m62.5 53.3c-1.8 0-4 0.4-5.2 2.2-0.5 0.7-0.8 1.2-1 1.6 0.3-0.2 0.8-0.4 1.6-0.7 1.7-0.5 2.8-1.5 4.3-1.5q0.4 0 0.7 0 0.2 0.1 0.4 0.1c1.1 0 2-0.7 2.5-1.3 0 0-0.3-0.1-0.8-0.2q-0.2 0-0.4 0c-0.5-0.1-1.3-0.2-2.1-0.2z"/>
	<path id="Layer" class="s37" d="m65.8 53.7c0 0 1 1.7 3.8 1.8 2.8 0.1 4.9 2 5.1 3 0.1 0.4 0.4-1.2-0.3-2.8-0.8-1.9-2.9-3.8-8.6-2z"/>
	<path id="Layer" class="s38" d="m71.1 53.4q-1 0.1-2.1 0.1-0.7 0-1.4 0-0.7 0.1-1.5 0.3c0.6 0.5 1.6 1.3 3.4 1.3 2.8 0.1 4.9 2 5.1 3h0.1q0 0 0.1-0.3c-0.1-1.4-0.8-3.8-3.7-4.4z"/>
	<path id="Layer" class="s41" d="m64 41.9c0 0-1.5-3.9-0.2-6.5 1.3-2.6 2.2-3.4 2.1-4.5-0.1-1.2 3.8 5 2 9.4-1.8 4.4-3.8 3-3.9 1.6z"/>
	<path id="Layer" class="s42" d="m65.9 30.8v0.1c0.1 1.1-0.8 1.9-2.1 4.5-0.6 1.2-0.6 2.7-0.5 4h0.1c-0.2-1.3-0.2-2.8 0.4-4 1.3-2.6 2.2-3.4 2.1-4.5z"/>
	<path id="Layer" class="s43" d="m65.9 30.8v0.1c0.1 1.1-0.8 1.9-2.1 4.5-0.6 1.2-0.6 2.7-0.4 4 0.6 0.6 1.2 1.3 1.6 2.2l0.1-0.2q-0.2-0.4-0.3-0.8c0 0-1.5-3.9-0.2-6.5 0.8-1.4 1.4-2.3 1.7-2.9q-0.2-0.4-0.4-0.4z"/>
	<path id="Layer" class="s60" d="m72.6 43.6c0 0 3.2-3.8-0.7-9.8 0 0 0 2.3-1.8 3.9-1.8 1.5-0.7 11.7 2.5 5.9z"/>
	<path id="Layer" class="s61" d="m72.6 34.9c1.6 4.4-0.7 7.2-0.7 7.2-0.5 0.8-0.9 1.3-1.3 1.6q0.1 0.6 0.2 1.2c0.4-0.9 1.2-2.1 2.7-3.1 0.5-1.5 0.7-3.9-0.9-6.9z"/>
	<path id="Layer" class="s36" d="m70.4 46.3c0-0.3 0.5-2.8 3.1-4.5 2.6-1.7 2.7-2.6 2.7-3.1 0-0.5 2.6 7-2.9 10.3-5.4 3.4-3.1-1-2.9-2.7z"/>
	<path id="Layer" class="s44" d="m76.2 38.9q-0.1 0.1-0.1 0.2v0.1q0.1-0.2 0.1-0.3zm0-0.3v0.2-0.1c0.1 0 0.5 1.4 0.6 3.3 0-1.9-0.5-3.4-0.6-3.4z"/>
	<path id="Layer" class="s45" d="m76.2 38.8v0.1q0 0.1-0.1 0.3 0.1-0.2 0.1-0.4z"/>
	<path id="Layer" class="s45" d="m76.2 38.7v0.1q0 0.2-0.1 0.4c0.3 2.4 0.1 6.2-3.3 8.3h-0.1q0.3 0 0.6 0 0.2 0 0.4 0 0.7 0.1 1.2 0.1c1.5-1.7 1.9-3.8 1.9-5.6-0.1-1.9-0.5-3.3-0.6-3.3z"/>
	<path id="Layer" class="s36" d="m62.9 47.5c0 0-3-2.6-2.6-5.9 0.3-3.4-0.4-4.5-0.7-4.6-0.3-0.1 5.5 1.7 6.1 7.1 0.6 5.3-0.8 6.6-2.8 3.4z"/>
	<path id="Layer" class="s44" d="m60.4 39.6q0 0.8-0.1 1.9-0.1 0.4-0.1 0.7 0-0.3 0.1-0.6 0.1-1.2 0.1-2zm-0.8-2.7q0.1 0 0.2 0.2c0.2 0.1 0.7 0.3 1.3 0.6v-0.1c-0.9-0.5-1.5-0.7-1.5-0.7z"/>
	<path id="Layer" class="s45" d="m59.8 37.1c0.2 0.3 0.5 1.1 0.6 2.5q0 0.8-0.1 2-0.1 0.3-0.1 0.6c0.1 1 0.4 2 0.8 2.8 1.1 0.3 2 0.7 2.7 1.3q0-0.2 0-0.3c0 0-3.1-2.6-2.7-5.9 0.1-1 0.1-1.8 0.1-2.4-0.6-0.3-1.1-0.5-1.3-0.6z"/>
	<path id="Layer" class="s40" d="m67.2 53.3c0 0 0-10.4-12.3-8.6 0 0 2.8-0.4 3.8 2.7 1.1 3.2 4.2 7.2 8.5 5.9z"/>
	<path id="Layer" class="s47" d="m58.3 46.4q0.2 0.4 0.4 1 0.3 0.7 0.6 1.4-0.3-0.7-0.6-1.4-0.2-0.6-0.4-1z"/>
	<path id="Layer" class="s47" d="m57.6 44.5q-1.2 0-2.6 0.2 0.1 0 0.3 0c0.7 0 2.1 0.2 3 1.7q0.2 0.4 0.4 1 0.3 0.7 0.6 1.4c1.2 2.4 3.4 4.7 6.3 4.7q0.7 0 1.3-0.1l0.1-0.1c-0.3-0.2-0.6-0.6-0.9-1.2q-0.2 0-0.5 0c-3.4 0-6-3.4-6.9-6.1q-0.3-0.9-0.7-1.5-0.2 0-0.4 0z"/>
	<path id="Layer" class="s40" d="m66.9 53.4c0 0 2.3-6.3 6.8-5.9 4.5 0.4 6.3-0.3 6.3-0.3 0 0-1.7 0.8-2.2 2-0.5 1.3-2.9 5-10.9 4.2z"/>
	<path id="Layer" class="s48" d="m80 47.2c0 0-0.6 0.2-2.1 0.4 1.4-0.1 2-0.4 2.1-0.4z"/>
	<path id="Layer" class="s46" d="m66.9 53.4z"/>
	<path id="Layer" class="s47" d="m66.9 53.4z"/>
	<path id="Layer" class="s47" d="m80 47.2c-0.1 0-0.7 0.3-2.1 0.4q0 0.1-0.1 0.2c-0.4 1.1-2.5 4.3-8.8 4.3h-0.2c-0.5 0.8-1 1.2-1.3 1.3h-0.2l-0.2-0.1-0.2 0.1q1.1 0.1 2.1 0.1c6.3 0 8.4-3.2 8.8-4.3 0.5-1.2 2-1.9 2.2-2z"/>
	<path id="Layer" class="s49" d="m65.1 49.5c0 0-2.5-2.9-0.8-6.6 1.8-3.6 3.3-4.9 2.4-6.8-0.8-1.9 6.3 6.5 3.5 13.2-2.9 6.8-3.8 3.8-5.1 0.2z"/>
	<path id="Layer" class="s62" d="m65.3 41q-0.1 0.2-0.2 0.4 0.1-0.1 0.2-0.3z"/>
	<path id="Layer" class="s63" d="m65.1 41.4l-0.1 0.2 0.1-0.2z"/>
	<path id="Layer" class="s52" d="m65 41.6q-0.3 0.6-0.7 1.3c-0.5 1.1-0.7 2.2-0.6 3.1l0.1 0.1c-0.1-1 0-2 0.5-3.2q0.4-0.7 0.7-1.3z"/>
	<path id="Layer" class="s64" d="m63.7 46q0 0.1 0 0.3h0.1q0-0.1 0-0.2z"/>
	<path id="Layer" class="s53" d="m67 53.3zm-3.3-7c0.3 1.9 1.4 3.2 1.4 3.2 0.3 1 0.6 1.9 1 2.6-0.3-0.7-0.6-1.6-1-2.6 0 0-1.1-1.3-1.3-3.2z"/>
	<path id="Layer" class="s54" d="m66.1 52.1c0.3 0.6 0.6 1 0.9 1.2-0.3-0.2-0.6-0.6-0.9-1.2z"/>
	<path id="Layer" class="s53" d="m67 53.3h0.1 0.1z"/>
	<path id="Layer" class="s54" d="m67.2 53.3h-0.1l0.2 0.1h0.2-0.1z"/>
	<path id="Layer" class="s55" d="m65.3 41.1q-0.1 0.2-0.2 0.3l-0.1 0.2q-0.3 0.6-0.7 1.3c-0.5 1.2-0.6 2.2-0.5 3.2q0 0.1 0 0.2c0.2 1.9 1.3 3.2 1.3 3.2 0.4 1 0.7 1.9 1 2.6 0.3 0.6 0.6 1 0.9 1.2h0.2l0.2 0.1h0.1c0.6-0.2 1.5-1.3 2.6-4.1 0.8-1.8 0.8-3.8 0.5-5.6q-0.1 0.8-0.4 1.6c-1 2.7-1.6 3.7-2.2 3.7-0.7 0-1.1-1.7-1.7-3.5 0 0-1.3-1.9-1-4.4z"/>
	<path id="Layer" class="s30" d="m57.7 101.1c-0.2 0.7-0.9-11.3 8.5-18.9 9.5-7.5 11.8-11.6 11.9-13.3 0 0 0 9.2-7.8 17.9-7.7 8.7-11.8 10.5-12.6 14.3z"/>
	<path id="Layer" class="s65" d="m58.2 99.3c-0.2 0.4-0.2 1-0.4 0.9-0.1 0 0.3-1.3 0.4-1.5 0-0.1 2.3-8.5 10.7-15.5 0.1-0.1-6.6 5.2-10.7 16.1z"/>
	<path id="Layer" class="s31" d="m78.1 68.9c-0.1 1-0.5 9.7-7.8 17.9-7.7 8.7-11.8 10.5-12.6 14.3l-0.1 0.1q0 0 0-0.3v0.1q0 0.2 0 0.2h0.1c0.8-3.8 4.9-5.6 12.6-14.3 7.8-8.7 7.8-18 7.8-18z"/>
	<path id="Layer" fill-rule="evenodd" class="s32" d="m70.3 86.8c-7.7 8.7-11.8 10.5-12.6 14.3l-0.1 0.1q0 0 0-0.3 0.1-1.1 0.1-2.3c0.4-3.8 2.1-11.1 8.5-16.3 9.4-7.5 11.8-11.6 11.9-13.4-0.1 1-0.5 9.7-7.8 17.9zm-12 10.5v-0.1q0 0 0 0 0 0 0 0zm0-0.1c0.2-0.9 1.3-4.5 4.3-8.1 3-3.7 5.7-5.8 6.1-5.8h0.1l-0.2 0.2 0.2-0.2-0.1 0.2c-0.6 0.9-7.9 9.7-8.7 12.6q-0.1 0.3 0.1 0.3c1.2 0 13.1-13.9 14.6-17.8 1.2-3.1 1.8-4.7 1.6-4.7q-0.1 0-0.7 0.7c-1.2 1.8-5.4 5.7-7.6 7-2.1 1.3-7.7 6-9.7 15.6zm10.3-13.7q0 0 0 0 0 0 0 0zm0 0c-8.1 6.9-10.4 15.1-10.4 15.2-0.1 0.2-0.5 1.5-0.4 1.5 0.2 0 0.2-0.5 0.4-0.9 3.6-9.5 9.1-14.7 10.4-15.8zm-10.3 13.9z"/>
	<path id="Layer" class="s66" d="m68.6 83.5c-8.2 6.9-10.4 15.1-10.4 15.2-0.1 0.2-0.5 1.5-0.4 1.5 0.2 0 0.2-0.5 0.4-0.9 3.6-9.5 9.1-14.7 10.4-15.8zm0.2-0.2l-0.2 0.2 0.2-0.2z"/>
	<path id="Layer" class="s37" d="m57.6 101.4c0 0-6.4-6.2-8.2-16.2-1.8-10-4.3-11.6-4.3-11.6 0 0 14 10.6 12.5 27.8z"/>
	<path id="Layer" class="s56" d="m49.6 80.5c-0.2 0 4.6 10.6 4.6 10.6 1.8 3.5 2.7 9.5 2.7 9.6 0 0.1 0.2 0.3 0.4 0.2 0.1 0 0.3-0.2 0.2-0.3 0-0.3-0.8-6.3-2.7-9.8l-1.4-2.8c-1.5-2.8-3.6-7.5-3.8-7.5z"/>
	<path id="Layer" class="s39" d="m57.2 101.1l0.1 0.1q0.3 0.3 0.3 0.3 0-0.2 0-0.3v0.2q0 0-0.4-0.3zm-12-27.3c0.5 0.4 2.6 2.7 4.2 11.4 0.8 4.8 2.7 8.6 4.4 11.4l0.1 0.1c-1.8-2.8-3.7-6.7-4.5-11.5-1.4-7.5-3.1-10.2-3.9-11.2q-0.2-0.1-0.3-0.2z"/>
	<path id="Layer" fill-rule="evenodd" class="s38" d="m57.7 98.7c-0.1 1.1-0.1 1.8-0.1 2.2q0 0.2 0 0.3v0.2q0 0-0.4-0.3v-0.1l0.1-0.1c0.1 0 0.3-0.2 0.3-0.3-0.1-0.3-0.9-6.3-2.8-9.8l-1.4-2.8c-1.5-2.8-3.6-7.5-3.8-7.5-0.2 0 4.6 10.6 4.6 10.6 1.4 2.7 2.2 7.1 2.5 8.8q-1.4-1.7-2.8-3.2c-1.8-2.8-3.7-6.7-4.5-11.5-1.4-7.5-3.1-10.2-3.9-11.2 2.2 1.9 12.1 10.9 12.2 24.7zm-0.6-2.4c0-0.6-0.4-1.8-1-3.1 0.6 1.9 0.9 3.2 1 3.2q0 0 0-0.1zm-4.7-8c-1.6-3.4-3.2-7.8-2.9-8.2h0.1c0.4 0 3 5.4 3.4 6.3 0.3 0.6 2 4.1 3.1 6.8-1.3-4.4-3.9-12.2-8-15.8 0 0 1.1 4 1.4 6.8 0.2 2.7 2.8 8.9 3.5 9.9 0.5 1 2.6 3.5 3.1 4.6-0.5-1.6-2.3-7.4-3.7-10.4zm3.7 10.4q0.1 0.5 0.1 0.5 0-0.2-0.1-0.5z"/>
	<path id="Layer" class="s67" d="m49.6 80.5c-0.2 0 4.6 10.6 4.6 10.6 1.4 2.7 2.2 7.1 2.5 8.8l0.1 0.1c0 0 0.2 0.4 0.4 1l0.1-0.1c0.1 0 0.3-0.2 0.2-0.3 0-0.3-0.8-6.3-2.7-9.8l-1.4-2.8c-1.5-2.8-3.6-7.5-3.8-7.5z"/>
	<path id="Layer" class="s37" d="m56.8 100c0 0 1.8 4.2 0.4 3.6-1.4-0.6-2.2-2.8-5.2-3.3-2.9-0.6-9.8-2.6-12.8-7.8-3.1-5.1-6.2-8.7-9.7-8.7-3.4 0 12.8-1.7 27.3 16.2z"/>
	<path id="Layer" class="s56" d="m40.9 88.4c0.1 0.1 11 7.2 16 14.9 0.1 0.2 0.3 0.2 0.5 0.1 0.2-0.1 0.2-0.3 0.1-0.5-5.1-7.8-16.8-14.6-16.6-14.5z"/>
	<path id="Layer" class="s39" d="m44.2 97.3h-0.1c2.9 1.8 6.1 2.7 7.9 3 3 0.6 3.8 2.8 5.2 3.4q0.1 0 0.2 0c0.3 0 0.3-0.2 0.3-0.5 0 0.3-0.1 0.5-0.3 0.5q-0.1 0-0.2-0.1c-1.4-0.6-2.2-2.8-5.2-3.3-1.7-0.4-4.9-1.2-7.8-3z"/>
	<path id="Layer" class="s68" d="m37.7 90.2q0.7 1.1 1.5 2.4c0.8 1.4 1.9 2.5 3.1 3.5h0.1c-1.3-1-2.4-2.2-3.2-3.6q-0.7-1.2-1.4-2.2zm-8.4-6.4c-0.4 0-0.3 0.1 0.2 0.1q1.3 0 2.5 0.6l-0.1-0.1q-0.7-0.3-1.4-0.5-0.8-0.1-1.2-0.1z"/>
	<path id="Layer" class="s69" d="m44.2 97.3h-0.1 0.1z"/>
	<path id="Layer" class="s70" d="m42.3 96.1q0.8 0.7 1.8 1.2h0.1q-1-0.5-1.8-1.2zm-10.4-11.7v0.1c2 0.9 3.9 3 5.7 5.7l0.1 0.1c-1.8-2.8-3.8-4.9-5.8-5.9z"/>
	<path id="Layer" fill-rule="evenodd" class="s38" d="m53.9 96.8c1.4 2.2 2.7 3.7 3.3 4.3 0.3 0.7 0.5 1.5 0.5 2.1 0 0.3-0.1 0.5-0.3 0.5q-0.1 0-0.2-0.1c-1.4-0.6-2.2-2.8-5.2-3.3-1.7-0.4-4.9-1.2-7.8-3q-1-0.5-1.8-1.2c-1.3-1-2.4-2.2-3.2-3.6q-0.7-1.2-1.5-2.2c-1.8-2.8-3.8-4.9-5.8-5.9q-0.7-0.3-1.4-0.5c3.7 0.4 13.6 2.6 23.4 12.9zm-5.8-2.3c-3.1-2.6-6.4-4.8-7.4-5.5-0.6-0.5-0.6-0.9-0.1-0.9q0.3 0 0.8 0.2c1.1 0.6 11.6 8.1 13.7 11.1q0.5 0.6 0.5 0.6c0.1 0-5.1-7.6-11.4-10.7-5.5-2.7-9.5-4.4-10.2-4.4q-0.4 0 0.2 0.5c1.7 1.4 2.6 1.7 4.4 5.2 1.7 3.5 6 6.9 9.5 8.2 3.2 1.1 5.1 1.1 5.7 1.6-0.7-0.8-3.1-3.6-5.7-5.9zm9.3 8.9c0.2-0.1 0.2-0.3 0.1-0.5-5.1-7.7-16.6-14.5-16.6-14.5 0.1 0.1 11 7.2 16 14.9q0.1 0.2 0.3 0.2z"/>
	<path id="Layer" class="s67" d="m40.9 88.4c0.1 0.1 11 7.2 16 14.9q0.1 0.2 0.3 0.2l0.2-0.1c0.2-0.1 0.2-0.3 0.1-0.5-5.1-7.7-16.6-14.5-16.6-14.5z"/>
</svg>