<svg version="1.2" xmlns="http://www.w3.org/2000/svg" viewBox="0 0 100 135" width="100" height="135">
	<title>flower_in_a_pot_06-svg</title>
	<style>
		.s0 { fill: #aa6b28 } 
		.s1 { fill: #2e1010 } 
		.s2 { fill: #f9a84c } 
		.s3 { fill: #7c4317 } 
		.s4 { fill: #fab76a } 
		.s5 { fill: #de9342 } 
		.s6 { fill: #6f3b14 } 
		.s7 { fill: #f9a72b } 
		.s8 { fill: #c7883c } 
		.s9 { fill: #584521 } 
		.s10 { fill: #403215 } 
		.s11 { fill: #6c562b } 
		.s12 { fill: #775e30 } 
		.s13 { fill: #d09c5d } 
		.s14 { fill: #7c6232 } 
		.s15 { fill: #463618 } 
		.s16 { fill: #de9225 } 
		.s17 { fill: #54401d } 
		.s18 { fill: #3d2e12 } 
		.s19 { fill: #654e21 } 
		.s20 { fill: #fab64f } 
		.s21 { fill: #875723 } 
		.s22 { fill: #3c2c13 } 
		.s23 { fill: #2b200c } 
		.s24 { fill: #493719 } 
		.s25 { fill: #543f1c } 
		.s26 { fill: #2f230e } 
		.s27 { fill: #392911 } 
		.s28 { fill: #291d0a } 
		.s29 { fill: #453213 } 
		.s30 { fill: #739a3d } 
		.s31 { fill: #68913e } 
		.s32 { fill: #b5d334 } 
		.s33 { fill: #93af2a } 
		.s34 { fill: #88a23c } 
	</style>
	<path id="Layer" class="s0" d="m29.3 102.7l3.5 26.1c0.1 3.5 7.8 6.2 17.3 6.1 9.4-0.2 17.1-3.1 17-6.6l4.1-27.8z"/>
	<path id="Layer" class="s1" d="m29.3 102.7h0.1l3.5 26.1c0 1.6 1.8 3.1 4.8 4.2 3 1.1 7.1 1.8 11.7 1.8q0.3 0 0.7 0c4.7-0.1 8.9-0.9 12-2.1 3.1-1.1 4.9-2.7 4.9-4.4v-0.1l4.1-27.6-41.8 2.2v-0.1-0.1l41.9-2.3 0.1 0.1v0.1l-4.1 27.8h-0.1 0.1c0 1.8-1.9 3.5-5 4.7-3.1 1.1-7.4 1.9-12.1 2q-0.4 0-0.7 0c-4.6 0-8.8-0.7-11.8-1.8-3-1.1-4.9-2.6-4.9-4.4h0.1-0.1l-3.5-26.1 0.1-0.1z"/>
	<path id="Layer" class="s2" d="m29.3 102.7l3.5 26.1c0.1 3.5 7.8 6.2 17.3 6.1 9.4-0.2 17.1-3.1 17-6.6l4.1-27.8z"/>
	<path id="Layer" class="s3" d="m29.3 102.7h0.1l3.5 26.1c0 1.6 1.8 3.1 4.8 4.2 3 1.1 7.1 1.8 11.7 1.8q0.3 0 0.7 0c4.7-0.1 8.9-0.9 12-2.1 3.1-1.1 4.9-2.7 4.9-4.4v-0.1l4.1-27.6-41.8 2.2v-0.1-0.1l41.9-2.3 0.1 0.1v0.1l-4.1 27.8h-0.1 0.1c0 1.8-1.9 3.5-5 4.7-3.1 1.1-7.4 1.9-12.1 2q-0.4 0-0.7 0c-4.6 0-8.8-0.7-11.8-1.8-3-1.1-4.9-2.6-4.9-4.4h0.1-0.1l-3.5-26.1 0.1-0.1z"/>
	<path id="Layer" class="s4" d="m66.5 107.8l-2.5 18.3c0 0-1.1 5.7-8.2 7.3q-1.2 0.2-2.3 0.2c-6.1 0-11.1-5-11.5-10.8-0.5-7.1-0.5-13.1-0.5-13.1 0 0 4.2 0.7 9.6 0.7 4.9 0 10.8-0.5 15.4-2.6z"/>
	<path id="Layer" class="s5" d="m29.7 104.5c1.1 1 2.8 2 4.9 2.8 1.7 0.6 3.7 1.2 5.9 1.6q-0.8 0.1-2.2 0.1c-1.1 0-2.5-0.1-4.1-0.4 0 0-0.2-0.1-0.3-0.1-0.3 0-0.6 0.3-0.7 1.8 0 2.6 2.3 17.7 2.3 17.7 0 0 0.5 3.9 5.9 5.4 1.8 0.4 4.8 0.8 8.1 0.8 6.4 0 14.2-1.5 17.6-6.8l-0.1 0.8v0.1c0 1.7-1.8 3.3-4.9 4.4-3.1 1.2-7.3 2-12 2.1q-0.4 0-0.7 0c-4.6 0-8.7-0.7-11.7-1.8-3-1.1-4.8-2.6-4.8-4.2z"/>
	<path id="Layer" class="s6" d="m29.5 104.3q0.1 0.1 0.2 0.2l3.2 24.3c0 1.6 1.8 3.1 4.8 4.2 3 1.1 7.1 1.8 11.7 1.8q0.3 0 0.7 0c4.7-0.1 8.9-0.9 12-2.1 3.1-1.1 4.9-2.7 4.9-4.4v-0.1l0.1-0.8q0.1-0.1 0.2-0.2l-0.2 1.1c0.1 3.5-7.6 6.4-17 6.6q-0.4 0-0.7 0c-9.2 0-16.5-2.7-16.6-6.1z"/>
	<path id="Layer" class="s7" d="m72.2 95.5l-4.1 0.2c-4-2.3-10.6-3.8-18.1-3.8-8.4 0-15.7 1.9-19.5 4.6-1.6-0.5-3.1-1-3.1-1l0.4 5.7c0.6 4.7 10.3 8.4 22.2 8.4 12 0 21.7-3.8 22.1-8.6h0.1v-5.2z"/>
	<path id="Layer" class="s3" d="m72.2 95.5v0.2l-4.1 0.1c-4-2.3-10.6-3.8-18.1-3.8-8.4 0-15.7 1.9-19.4 4.6h-0.1c-1.6-0.5-3.2-1-3.2-1l0.1-0.1h0.1l0.4 5.7h-0.1v-0.1l0.1 0.1c0.3 2.2 2.8 4.3 6.8 5.9 3.9 1.5 9.3 2.4 15.3 2.4 6 0 11.4-1 15.4-2.5 3.9-1.5 6.4-3.7 6.6-6l0.1-0.1v-5.1h0.1 0.1l-0.2 0.1v-0.1-0.3h0.1l0.1 0.1v0.2h-0.1-0.1v-0.1h0.1l0.1 0.1v5.2h-0.1v0.1l-0.1-0.1h0.1c-0.2 2.5-2.8 4.6-6.8 6.2-4 1.6-9.4 2.5-15.4 2.5-6 0-11.4-0.9-15.4-2.4-4-1.6-6.6-3.7-6.9-6.1h0.1v0.1l-0.1-0.1-0.4-5.7v-0.1h0.1c0 0 1.6 0.5 3.1 1v0.1l-0.1-0.1c3.8-2.7 11.2-4.6 19.6-4.6 7.5 0 14.1 1.5 18.2 3.8l-0.1 0.1v-0.1l4.1-0.2v0.1h0.1z"/>
	<path id="Layer" class="s2" d="m72.2 95.5c0 5-10.1 8.9-22.4 8.9-12.4 0-22.4-3.9-22.4-8.9 0-4.9 10-8.8 22.4-8.8 12.3 0 22.4 3.9 22.4 8.8z"/>
	<path id="Layer" class="s3" d="m72.2 95.5h0.1c0 2.6-2.6 4.8-6.7 6.4-4 1.7-9.6 2.7-15.8 2.7-6.2 0-11.8-1-15.9-2.7-4.1-1.6-6.6-3.8-6.6-6.4 0-2.5 2.5-4.7 6.6-6.3 4.1-1.7 9.7-2.7 15.9-2.7 6.2 0 11.8 1 15.8 2.7 4.1 1.6 6.7 3.8 6.7 6.3h-0.1-0.1c0-2.3-2.5-4.5-6.5-6.1-4.1-1.6-9.7-2.6-15.8-2.6-6.2 0-11.8 1-15.8 2.6-4.1 1.6-6.5 3.8-6.5 6.1 0 2.4 2.4 4.6 6.5 6.2 4 1.6 9.6 2.6 15.8 2.6 6.1 0 11.7-1 15.8-2.6 4-1.6 6.5-3.8 6.5-6.2z"/>
	<path id="Layer" class="s8" d="m71.5 95.4c0 4.4-9.7 8-21.7 8-11.9 0-21.6-3.6-21.6-8 0-4.5 9.7-8.1 21.6-8.1 12 0 21.7 3.6 21.7 8.1z"/>
	<path id="Layer" class="s3" d="m71.5 95.4h0.1c0 2.3-2.5 4.3-6.4 5.8-4 1.4-9.4 2.3-15.4 2.3-6 0-11.4-0.9-15.3-2.3-4-1.5-6.4-3.5-6.4-5.8 0-2.3 2.4-4.3 6.4-5.8 3.9-1.5 9.3-2.4 15.3-2.4 6 0 11.4 0.9 15.4 2.4 3.9 1.5 6.4 3.5 6.4 5.8h-0.1-0.2c0.1-2.2-2.3-4.2-6.2-5.6-3.9-1.5-9.3-2.4-15.3-2.4-6 0-11.4 0.9-15.3 2.4-3.9 1.4-6.2 3.4-6.2 5.6 0 2.1 2.3 4.1 6.2 5.6 3.9 1.4 9.3 2.3 15.3 2.3 6 0 11.4-0.9 15.3-2.3 3.9-1.5 6.3-3.5 6.2-5.6z"/>
	<path id="Layer" class="s9" d="m35.9 94.2c0 0-0.4-1 3.1-2.3 3.5-1.3 4.3 1 4.3 1 0 0-0.1-1 1.7-2.2 1.9-1.2 4.7 0.7 4.7 0.7 3-1.4 5.3 1.8 5.3 1.8 2.8-2.8 7.5-0.1 7.5-0.1 4.8-1 6 2.9 6 2.9 1.2 0 2.1 0.4 2.7 0.9-2.3 3.5-10.7 6.3-20.8 6.5-10.8 0.3-19.9-2.5-21.5-6.3 1.2-1.2 3.4-1.6 3.4-1.6 1.1-1.6 3.6-1.3 3.6-1.3z"/>
	<path id="Layer" class="s10" d="m35.8 94.2c-0.4-1.2 2.5-2.1 3.1-2.3 1.4-0.6 3.5-0.8 4.3 0.7 0.2 0.2 0.1 0.2 0.1 0.2-0.1 0-0.1-0.1-0.1 0 0-0.3 0.2-0.6 0.4-0.9 0.5-0.8 1.5-1.4 2.4-1.6 0.9-0.2 1.8 0.1 2.6 0.4q0.6 0.3 1.1 0.7c-0.1-0.1 1.4-0.4 1.2-0.4 1.1 0 2 0.3 2.9 0.9 0.4 0.2 0.7 0.6 1.1 0.9 0.4 0.5 0.4-0.1 1-0.4 2-0.9 4.2-0.5 6.2 0.4 0.5 0.2 0.9 0.2 1.4 0.1 0.3 0 0.6 0 1 0 1 0.1 1.9 0.4 2.8 1.1 0.6 0.5 1 1.1 1.2 1.8 0.2 0.2 2.3 0.7 2.8 1.1-1.7 2.4-4.8 3.6-7.5 4.5-4.3 1.4-8.9 1.9-13.4 2.1-4.7 0.1-9.4-0.3-14-1.6-2.7-0.7-6.3-2-7.6-4.8 1.2-1 2.7-1.2 3.8-2.1 1-0.7 2.1-1 3.4-0.9 0.1 0-0.1 0.1-0.2 0.1-1.4-0.1-2.4 1.1-3.8 1.4-1.1 0.2-3.5 0.8-2.5 2.3 0.4 0.6 0.9 1 1.4 1.4 3.4 2.6 8.3 3.3 12.5 3.8 5.6 0.6 11.5 0.3 17.1-0.9 2.4-0.5 4.7-1.3 6.9-2.4q1.3-0.6 2.4-1.5 0.5-0.4 0.9-0.8c1.1-1.1-2.1-1.4-2.2-1.4l-0.1-0.1c-0.8-2.5-3.5-3.3-5.9-2.8-0.2 0-0.7-0.4-0.9-0.4-2.1-1-4.6-1.3-6.5 0.4h-0.2c-0.3-0.4-0.6-0.7-1-1-1.4-1.3-2.2-0.8-4.3-0.7-0.3 0-0.8-0.5-1.2-0.7-1.6-0.7-5.1-0.1-5 2l-0.2 0.1c-0.3-0.8-1.1-1.2-1.9-1.3 0.6 0.1-5.8 0.7-5.3 2.6z"/>
	<path id="Layer" class="s11" d="m62.3 93.9c0 0 3.8-0.7 4.6 1.4 0.7 2 3.2 0.9 1.6 2.7-1.6 1.8-4.1 1.8-5.2 0.9-1.1-1-1.5-2.3-3.8-2.1-2.2 0.1-0.8-1.6 0.5-1.7 1.3 0-1.1-1.7-2.2-1.8-1.1-0.1 2.3-1.3 4.5 0.6z"/>
	<path id="Layer" class="s11" d="m52.6 95.9c0 0 0.9-1 3.5-1.1 2.6-0.1 1.1 1 1.2 1.5 0.2 0.5-1.6 1.5-1.6 1.5 0 0-0.7-1.8-3.1-1.9z"/>
	<path id="Layer" class="s11" d="m53.7 93.5c0.3 0-1.6-2.1-3.5-1.4-0.8 0.3-1.7 0.1-2.4-0.2-1-0.2-1.8-0.5-2.7 0.1-1.5 1.2-0.8 2.1-0.8 2.1 0 0 4.8 0 5.3 2.1 0 0 1.4-2.5 4.1-2.7z"/>
	<path id="Layer" class="s11" d="m40.9 95.9c0.1 0 0.4-0.1 1-0.1 1.6-0.2 4.6-0.4 5.7 1.1 0 0 0.6 0.4-0.6 1.4-1.1 0.9-2 1.2-1.9 2.4 0 0-1.6-3.4-7.6-2-6.1 1.5-6.8-1.1-5.5-1.8 1.2-0.8 3.6 0.3 3.6 0.3 0 0 1-2.3 5.3-1.3z"/>
	<path id="Layer" class="s12" d="m37.4 94c0 0 1.3-1.6 3.1-1.2 1.8 0.3-3.6 2.8-3.1 1.2z"/>
	<path id="Layer" class="s11" d="m48.1 100c0 0 2-1.6 4.6-0.9 0 0 0.2 2.6 0.8 2.6 0.6-0.1 1.5-3.8 4.7-3.5 3.1 0.3 4.5 1.6 3.2 2.7-1.3 1-7.5 2.3-11.2 2-3.7-0.3-3-1.9-2.1-2.9z"/>
	<path id="Layer" class="s11" d="m39.9 99.9c0 0 2.6-0.3 3.8 1.2 1.1 1.6-4.3 1.3-6.2 0.4-1.9-0.9 2.1-1.6 2.4-1.6z"/>
	<path id="Layer" class="s13" d="m48.6 88c9.7 0 16.9 2.7 16.9 2.7 1.4 0.8 0.1 1.8-1.9 1.8-0.8 0-1.8-0.2-2.8-0.7-0.8-0.5-1.5-0.6-2.2-0.6-0.6 0-1.2 0.1-1.8 0.3-0.5 0.1-1 0.3-1.4 0.3-0.4 0-0.7-0.1-1-0.5-0.5-0.7-1.5-0.9-2.4-0.9-1.1 0-2 0.2-2 0.2 0 0-0.2-0.9-3.1-0.9q-0.2 0-0.4 0c-3.3 0.1-3.7 1.7-3.7 1.7-0.3-1-2.6-1-2.9-1.8-0.4-0.9 1-1 1-1 2.6-0.4 5.2-0.6 7.7-0.6z"/>
	<path id="Layer" class="s14" d="m62.2 94.6c0.1-0.1 1.1-0.8 3 0 2 0.7 0.9 1.7-0.6 1.5-1.5-0.3-2.7-0.9-2.4-1.5z"/>
	<path id="Layer" class="s14" d="m54.7 95.2c0 0 1.4-0.2 1.1 0.3-0.2 0.6-2.4 0-1.1-0.3z"/>
	<path id="Layer" class="s14" d="m44.7 93.5c0 0 0.5-1.6 2.2-1.4 1.6 0.2-2.1 2.3-2.2 1.4z"/>
	<path id="Layer" class="s14" d="m36.2 97.1c0 0 3.2-1.6 3.2 0 0 1.5-4.3 1.2-3.2 0z"/>
	<path id="Layer" class="s15" d="m44.7 101.9q0.1 0 0.2 0 0 0-0.1 0 0 0-0.1 0 0 0 0 0z"/>
	<path id="Layer" class="s16" d="m28.2 98.9c1 4.9 10.1 8.9 10.1 8.9 0 0-5.2-1.7-7.2-3-2-1.2-2.7-3.5-2.7-3.5z"/>
	<path id="Layer" class="s9" d="m63.4 95.2c0 0 1.4-1.3 3 0.2 1.5 1.5 0.7 2.8-0.9 2.6-1.6-0.1-3.7-1.5-2.1-2.8z"/>
	<path id="Layer" class="s10" d="m63.3 95.2c0.6-0.5 1.5-0.7 2.2-0.5 1 0.3 2.4 1.9 1.6 2.9-0.7 0.9-2.2 0.4-3 0.1-0.6-0.2-1.1-0.6-1.3-1.1-0.2-0.6 0.2-1.1 0.5-1.4l0.2 0.1c-0.8 0.7-0.6 1.5 0.3 2.1 0.9 0.6 2.5 1.1 3.2 0 0.6-0.9-0.8-2.2-1.5-2.5-0.6-0.3-1.5-0.1-2 0.4z"/>
	<path id="Layer" class="s17" d="m63.1 95.8q0.1 0.1 0.2 0.4-0.1 0-0.3 0.1 0-0.3 0.1-0.5z"/>
	<path id="Layer" class="s18" d="m63.1 95.6q0 0 0 0.2-0.1 0.2-0.1 0.5-0.1 0-0.1 0-0.1-0.3 0.2-0.7z"/>
	<path id="Layer" class="s17" d="m67.1 96.8q0.1 0.3-0.1 0.6c-0.3 0.5-0.8 0.6-1.3 0.6-0.4 0-0.8-0.1-1.2-0.3 0.1-0.2 0.1-0.5-0.1-0.8q0.2 0 0.3 0.1c0 0 0.7 0.3 1.3 0.3q0.3 0 0.5 0c0.4-0.2 0.6-0.3 0.6-0.5z"/>
	<path id="Layer" class="s18" d="m66.9 96.1c0.7 1.1 0.1 2-1.1 2q-0.1 0-0.3-0.1-0.5 0-1.1-0.2 0.1 0 0.1-0.1c0.4 0.2 0.8 0.3 1.2 0.3 0.5 0 1-0.1 1.3-0.6q0.2-0.3 0.1-0.6 0.1-0.2-0.2-0.6z"/>
	<path id="Layer" class="s19" d="m64.7 95c0.9 0 1.6 1 1.6 1q0.2 0.2 0.2 0.4c0 0.1-0.1 0.2-0.2 0.2-0.4 0-0.9-0.2-1.1-0.4-0.3-0.1-1.3-0.5-1.3-0.8q0-0.1 0.4-0.3 0.2-0.1 0.4-0.1z"/>
	<path id="Layer" class="s9" d="m62.7 96.5c0 0 0.7-0.7 1.4 0.1 0.7 0.8 0.3 1.5-0.5 1.4-0.8-0.1-1.7-0.8-0.9-1.5z"/>
	<path id="Layer" class="s10" d="m62.6 96.5c0.3-0.2 0.7-0.4 1-0.3 0.6 0.2 1.3 1.1 0.8 1.6-0.7 0.8-2.8-0.3-1.8-1.3h0.2c-1 0.9 1 2 1.5 1.2 0.3-0.4-0.2-1-0.5-1.3-0.3-0.2-0.7-0.1-1 0.1z"/>
	<path id="Layer" class="s9" d="m34.5 97.8c0 0 1.4-1.4 2.9 0.1 1.6 1.5 0.8 2.8-0.8 2.7-1.7-0.2-3.7-1.5-2.1-2.8z"/>
	<path id="Layer" class="s10" d="m34.4 97.8c0.5-0.5 1.3-0.7 2-0.6 1.1 0.2 2.6 1.9 1.7 2.9-0.7 0.9-2.2 0.5-3 0.1-0.5-0.2-1-0.6-1.2-1.1-0.3-0.5 0.1-1 0.5-1.3 0-0.1 0.2-0.1 0.2 0-2.1 1.8 2.6 3.9 3.5 2.1 0.4-0.9-0.7-2-1.4-2.4-0.7-0.4-1.6-0.2-2.1 0.3-0.1 0-0.3 0-0.2 0z"/>
	<path id="Layer" class="s17" d="m35.5 99.4c0.2 0.3 0.2 0.6 0 0.9 0.4 0.2 0.9 0.3 1.3 0.3 0.5 0 0.9-0.2 1.2-0.5q-0.5-0.1-0.8-0.2 0 0-0.1 0c-0.7 0-1.4-0.4-1.4-0.4q-0.1 0-0.2-0.1zm-1.1-0.6q-0.2 0-0.3 0.1c0.1 0.5 0.6 1 1.2 1.3 0.2-0.3 0-0.6-0.1-0.9q-0.5-0.2-0.7-0.5-0.1 0-0.1 0zm-0.3-0.5q-0.1 0.2-0.1 0.5 0.2-0.1 0.4-0.1-0.2-0.2-0.3-0.4z"/>
	<path id="Layer" class="s18" d="m38 100.1c-0.3 0.3-0.7 0.5-1.2 0.5-0.4 0-0.9-0.1-1.3-0.3q0 0 0 0 0 0 0 0 0.5 0.2 1.1 0.3 0.1 0 0.2 0c0.6 0 1-0.2 1.2-0.5q0 0 0 0zm-3.9-1.2q-0.1 0-0.2 0.1c0.2 0.5 0.7 1 1.4 1.3q0-0.1 0-0.1 0 0 0 0c-0.6-0.3-1.1-0.8-1.2-1.3zm0-0.8q-0.2 0.4-0.2 0.8 0.1-0.1 0.1-0.1 0-0.3 0.1-0.5 0-0.2 0-0.2z"/>
	<path id="Layer" class="s19" d="m35.7 97.6q0.3 0 0.5 0c-0.4 0.2-0.6 0.5-0.4 0.9q0.1 0.1 0.1 0.1c-0.4-0.2-1-0.4-1-0.7q0-0.1 0.4-0.3 0.2 0 0.4 0z"/>
	<path id="Layer" class="s9" d="m33.7 99c0 0 0.8-0.7 1.5 0.1 0.6 0.9 0.2 1.6-0.5 1.5-0.8-0.1-1.8-0.9-1-1.6z"/>
	<path id="Layer" class="s10" d="m33.6 99c0.3-0.2 0.7-0.4 1.1-0.3 0.5 0.2 1.3 1.1 0.8 1.6-0.8 0.9-2.9-0.3-1.9-1.3l0.2 0.1c-0.9 0.9 1 1.9 1.5 1.1 0.3-0.3 0-0.8-0.2-1-0.4-0.4-0.9-0.5-1.3-0.1z"/>
	<path id="Layer" class="s20" d="m71.2 99.2c0 0 0 2.3-0.2 2.8-0.3 0.5-0.9 1.4-0.9 1.4-5.7 4.4-14.6 5.2-20.9 5.2-4 0-6.9-0.3-7.2-0.3-0.8-0.1-0.5-3.5-0.5-3.5q4.8 0.5 8.7 0.5c17 0 21-6.1 21-6.1z"/>
	<path id="Layer" class="s21" d="m54.9 92.9q0.2 0 0.4 0.1-0.1 0-0.1 0 0 0-0.1 0 0 0-0.2-0.1z"/>
	<path id="Layer" fill-rule="evenodd" class="s22" d="m54.6 92.8q0.2 0.2 0.3 0.4h0.2q0.1-0.1 0.3-0.2c1.6 0.3 3.3 0.9 4.5 1.4 0.5 0.4 0.7 0.7 0.1 0.7-1.2 0.1-2.6 1.7-0.8 1.7q0.2 0 0.3 0 0.3-0.1 0.4-0.1c1.9 0 2.3 1.3 3.4 2.2q0.3 0.2 0.7 0.4-0.3 0.3-0.8 0.5c-0.7 0.4-1.1 0.6-1.6 0.8 0.9-1-0.5-2.1-3.4-2.4q-0.2 0-0.4 0c-2.8 0-3.7 3.4-4.3 3.5q0 0 0 0c-0.6 0-0.8-2.6-0.8-2.6q-0.8-0.2-1.4-0.2c-1.9 0-3.2 1.1-3.2 1.1-0.8 0.8-1.4 2.1 0.5 2.7q-0.6-0.2-1.4-0.4c-0.7-0.1-1.5-0.3-2.3-0.4 0.7-0.2-0.2-2.4-3.4-3q-0.8-0.2-1.6-0.2-0.9 0-1.6 0.2-0.1-0.2-0.2-0.3 1.2-0.2 2.2-0.2c3.7 0 4.8 2.3 4.8 2.3-0.1-1.2 0.8-1.5 1.9-2.4 1.2-1 0.6-1.4 0.6-1.4-0.7-1-2.3-1.3-3.7-1.3-0.7 0-1.4 0.1-2 0.2-0.5 0-0.9 0.1-1 0.1q0 0 0 0-0.5-0.1-0.9-0.2c1.4-0.4 3.6-0.8 3.9-1.6q0.1-0.2 0.2-0.3c0.1 0.2 0.2 0.3 0.2 0.3q0 0 0 0c0.4 0 4.8 0.1 5.3 2.1 0 0 1.4-2.5 4.1-2.7 0.2 0-0.1-0.4-0.7-0.8q0.8 0 1.6 0.1zm0.7 0.2q-0.1 0-0.1 0 0 0 0.1 0zm-0.2 4.8c-0.7-1-3.6-0.6-3.4-1.6 0.3-1.1 4.5-2.5 4.5-2.5q-0.3 0-0.5 0c-4.1 0-6.3 3.5-6.3 3.5-0.8-1.6-3.2-2.1-4.3-2.1-0.6 0-0.8 0.2 0.1 0.3 2.5 0.4 3.3 2.4 3.3 2.4-1.9 0.6-3.3 2.9-2.7 2.9 0.2 0 0.6-0.2 1.2-0.8 1.4-1.2 3.5-1.5 5-1.5 1.6 0 2.6 0.3 2.1 0.5-1.1 0.3-0.7 2.4-0.7 2.4 0.3-2.1 3.4-3.3 3.4-3.3q1.1-0.3 1.9-0.3c1.2 0 2.1 0.4 2.7 0.8q0.5 0.6 1.1 1.5c0 0-0.2-0.8-1.1-1.5-1-1-2.1-1.3-3-1.3-1.3 0-2.3 0.7-2.5 0.8q-0.1 0-0.2 0c-0.3 0-0.6-0.2-0.6-0.2zm2.2-1.5c-0.1-0.5 1.3-1.5-1-1.5q-0.1 0-0.2 0c-2.6 0.1-3.5 1.1-3.5 1.1 2.4 0.1 3.1 1.9 3.1 1.9 0 0 1.7-1 1.6-1.5zm1.6 5.6c-0.7 0.4-1.6 0.5-2.6 0.6 1-0.2 1.9-0.4 2.8-0.6q-0.1 0-0.2 0z"/>
	<path id="Layer" class="s23" d="m54.6 92.8q0.2 0.1 0.3 0.1 0.2 0.1 0.2 0.1 0.1 0 0.1 0 0 0 0.1 0 0 0 0.1 0-0.2 0.1-0.3 0.2h-0.2q-0.1-0.2-0.3-0.4z"/>
	<path id="Layer" class="s24" d="m59.9 94.4q0.6 0.2 1 0.3c2.1 0.6 0 1.1 1.5 2-0.4 0.7 0.5 1.4 1.3 1.4q0.4 0 0.6-0.2 0.5 0.7-0.3 1.4-0.4-0.2-0.7-0.4c-1.1-0.9-1.5-2.2-3.4-2.2q-0.1 0-0.4 0.1-0.1 0-0.3 0c-1.8 0-0.4-1.6 0.8-1.7 0.6 0 0.4-0.3-0.1-0.7z"/>
	<path id="Layer" fill-rule="evenodd" class="s24" d="m57.3 96.3c0.2 0.5-1.6 1.5-1.6 1.5 0 0-0.7-1.8-3.1-1.9 0 0 0.9-1 3.5-1.1q0.1 0 0.2 0c2.3 0 0.9 1 1 1.5zm-1.5-0.8c0.1-0.3-0.1-0.3-0.5-0.3-0.3 0-0.6 0-0.6 0-0.9 0.2-0.1 0.5 0.5 0.5 0.3 0 0.6 0 0.6-0.2z"/>
	<path id="Layer" class="s24" d="m53 92.7q0 0 0 0c0.6 0.4 0.9 0.8 0.7 0.8-2.7 0.2-4.1 2.7-4.1 2.7-0.5-2-4.9-2.1-5.3-2.1q0 0 0 0c0 0-0.1-0.1-0.2-0.3q0.3-0.2 0.6-0.3 0.1 0.2 0.4 0.2c0.2 0 0.5-0.1 0.9-0.2 0.4 0 0.7 0.1 0.7 0.1 1.2-0.4 2.1 0.2 4.7-0.7q0.7-0.2 1.6-0.2z"/>
	<path id="Layer" class="s24" d="m43.9 95.6c1.4 0 3 0.3 3.7 1.3 0 0 0.6 0.4-0.6 1.4-1.1 0.9-2 1.2-1.9 2.4 0 0-1.1-2.3-4.8-2.3q-1 0-2.2 0.2-0.1-0.3-0.3-0.5c0.8 0 1.6-0.4 1.6-1 0-0.4-0.2-0.6-0.5-0.7 0-0.3 0.5-0.5 1.1-0.7q0.4 0.1 0.9 0.2 0 0 0 0c0.1 0 0.5-0.1 1-0.1 0.6-0.1 1.3-0.2 2-0.2z"/>
	<path id="Layer" class="s24" d="m57.8 98.2q0.2 0 0.4 0c2.9 0.3 4.3 1.4 3.4 2.4-0.6 0.4-1.2 0.7-2.5 1.3-0.9 0.2-1.8 0.4-2.8 0.6-2 0.2-4.2 0-5.5 0.2q-0.4 0.1-0.8 0.1-0.6 0-1.4-0.1c-1.9-0.6-1.3-1.9-0.5-2.7 0 0 1.3-1.1 3.2-1.1q0.6 0 1.4 0.2c0 0 0.2 2.6 0.8 2.6q0 0 0 0c0.6-0.1 1.5-3.5 4.3-3.5z"/>
	<path id="Layer" class="s25" d="m55.3 95.2c0.4 0 0.7 0 0.5 0.3 0 0.2-0.3 0.2-0.6 0.2-0.6 0-1.4-0.3-0.5-0.5 0 0 0.3 0 0.6 0z"/>
	<path id="Layer" class="s25" d="m45.4 93.4q0.3 0 0.6 0.1c-0.4 0.1-0.7 0.2-0.9 0.2q-0.3 0-0.4-0.2 0.3-0.1 0.7-0.1z"/>
	<path id="Layer" class="s25" d="m38.9 96.4c0.3 0.1 0.5 0.3 0.5 0.7 0 0.6-0.8 1-1.6 1-0.3-0.3-0.6-0.5-0.9-0.7 0.9-0.2 2.1-0.3 2-0.9q-0.1 0 0-0.1z"/>
	<path id="Layer" class="s26" d="m61.4 98.5q0.6 0.6 1.1 1.5c0 0-0.2-0.8-1.1-1.5zm-5.7-4.8c-4.1 0-6.3 3.5-6.3 3.5-0.8-1.6-3.2-2.1-4.3-2.1-0.6 0-0.8 0.2 0.1 0.3 2.5 0.4 3.3 2.5 3.3 2.5-1.9 0.5-3.3 2.8-2.7 2.8 0.2 0 0.6-0.2 1.2-0.8 1.4-1.2 3.5-1.5 5-1.5 1.6 0 2.6 0.3 2.1 0.5-1.1 0.3-0.7 2.4-0.7 2.4 0.3-2.1 3.4-3.3 3.4-3.3q1.1-0.3 1.9-0.3c1.2 0 2.1 0.4 2.7 0.8-1-1-2.1-1.3-3-1.3-1.3 0-2.3 0.7-2.5 0.8q-0.1 0-0.2 0c-0.3 0-0.6-0.2-0.6-0.2-0.7-1-3.6-0.6-3.4-1.6 0.2-1.1 4.5-2.5 4.5-2.5q-0.2 0-0.5 0z"/>
	<path id="Layer" class="s22" d="m39.3 99.5c3.9 0 5.1 2.1 5.4 2.4q-0.4 0-0.8 0-0.1 0-0.2 0 0 0 0 0c0.2-0.2 0.2-0.5 0-0.8-0.9-1.1-2.4-1.2-3.2-1.2-0.4 0-0.6 0-0.6 0-0.1 0-0.8 0.1-1.5 0.3q-0.2 0-0.3-0.1 0.2-0.3 0.3-0.6 0.5 0 0.9 0z"/>
	<path id="Layer" class="s24" d="m40.5 99.9c0.8 0 2.3 0.1 3.2 1.2 0.2 0.3 0.2 0.6 0 0.8q-0.1 0-0.2 0c-2.6 0-2.7-1-4.6-1.6q-0.3 0-0.5-0.1c0.7-0.2 1.4-0.3 1.5-0.3 0 0 0.2 0 0.6 0z"/>
	<path id="Layer" class="s26" d="m39.9 98.7q0.8 0 1.6 0.2c3.2 0.6 4.2 2.8 3.4 3q-0.1 0-0.2 0c-0.3-0.3-1.5-2.4-5.4-2.4q-0.4 0-0.9 0 0-0.3-0.1-0.6 0.7-0.2 1.6-0.2z"/>
	<path id="Layer" class="s22" d="m62.6 96.8q0.1 0 0.2 0 1 0.5 1.4 1-0.2 0.2-0.5 0.2c-0.6 0-1.4-0.6-1.1-1.2z"/>
	<path id="Layer" class="s23" d="m62.4 96.7q0.1 0 0.2 0.1c-0.3 0.6 0.5 1.2 1.1 1.2q0.3 0 0.5-0.2 0.1 0.1 0.1 0.1-0.2 0.2-0.6 0.2c-0.8 0-1.7-0.7-1.3-1.4z"/>
	<path id="Layer" class="s22" d="m36.6 97.5q0.1 0 0.1 0c0.5 0.3 1.4 1.1 1.5 1.8-0.1 0.2-0.3 0.3-0.7 0.5q-0.1 0.1-0.3 0.1c-0.6-0.2-0.9-0.5-1.3-1.3q0.2 0.1 0.3 0.2c0.2 0.1 0.8 0.3 1.1 0.3 0.2 0 0.3 0 0.3-0.2q0-0.1-0.2-0.4c0 0-0.5-0.6-1.2-0.9q0.2-0.1 0.4-0.1z"/>
	<path id="Layer" class="s23" d="m36.9 97.4c0.3 0.2 0.6 0.4 0.9 0.7q0.2 0.2 0.3 0.5 0.1 0.1 0.2 0.3 0.1 0.3 0.1 0.6-0.1 0.3-0.3 0.6 0 0-0.1 0c0.3-0.4 0.3-0.9 0-1.5v0.1c0.2 0.3 0.2 0.5 0.2 0.6-0.1-0.7-1-1.5-1.5-1.8q0 0-0.1 0 0.2-0.1 0.3-0.1z"/>
	<path id="Layer" class="s27" d="m38.2 99.3q0 0.3-0.1 0.6-0.1 0.1-0.1 0.2-0.5-0.1-0.8-0.2 0.2 0 0.3-0.1c0.4-0.2 0.6-0.3 0.7-0.5z"/>
	<path id="Layer" class="s28" d="m38 98.6c0.3 0.6 0.3 1.1 0 1.5q0 0 0 0 0-0.1 0.1-0.2 0.1-0.3 0.1-0.6c0-0.1 0-0.3-0.2-0.6z"/>
	<path id="Layer" class="s29" d="m36.2 97.6c0.7 0.3 1.2 0.9 1.2 0.9q0.2 0.3 0.2 0.4c0 0.2-0.1 0.2-0.3 0.2-0.3 0-0.9-0.2-1.1-0.3q-0.1-0.1-0.3-0.2 0 0-0.1-0.1c-0.2-0.4 0-0.7 0.4-0.9z"/>
	<path id="Layer" class="s30" d="m57.9 31.6c0 0 5.4 14.6-1.7 38.3l-16.8-1.2c0 0 0.9-19.2-8.4-34.4 0 0 11 8.4 13.1 30.6 0 0-4.8-24.1 0.3-33.6 0 0-3.4 15.1 2.4 32.1l1.6-0.4c0 0-0.2-24.5 1.1-29 0 0 4.2 16.4 2.6 28.8 0 0 7.5-20.5 5.8-31.2z"/>
	<path id="Layer" fill-rule="evenodd" class="s31" d="m56.2 70.2l-16.8-1.2c-0.2 0-0.4-0.2-0.4-0.4 0 0 0-0.5 0-1.5 0.1-4.7-0.6-20.1-8.3-32.6-0.1-0.1 0-0.3 0.1-0.5 0.1-0.1 0.3-0.1 0.5 0 0 0 6.7 5.2 10.7 18-0.2-2.3-0.4-4.7-0.4-7.1 0.1-5.2 0.6-10.3 2.4-13.7 0.1-0.2 0.3-0.3 0.5-0.2 0.2 0 0.3 0.2 0.2 0.4 0 0-0.9 4.3-0.9 11 0 5.6 0.7 12.8 3.2 20.5l1-0.2c0-0.6 0-1.9 0-3.6 0-7.2 0.1-21.7 1.1-25.2 0.1-0.1 0.2-0.3 0.4-0.3 0.1 0 0.3 0.2 0.3 0.3 0 0 3 11.6 3 22.7q0 1.6-0.1 3.1c0.6-1.7 1.3-4 2-6.7 1.6-5.5 3.1-12.4 3.1-17.9q0-1.9-0.3-3.5c0-0.1 0.1-0.3 0.3-0.4 0.2 0 0.4 0.1 0.4 0.2 0 0.1 2 5.5 2 15 0 6.3-0.8 14.2-3.6 23.6 0 0.1-0.2 0.2-0.4 0.2zm2.3-34.8c-0.1 11.3-6.1 27.5-6.1 27.6 0 0.1-0.2 0.2-0.4 0.2-0.2-0.1-0.3-0.2-0.3-0.4 0.3-2 0.4-4.1 0.4-6.2 0-8.5-1.8-17.2-2.6-20.8-0.7 5-0.8 17.1-0.8 23.3 0 2.3 0.1 3.9 0.1 3.9 0 0.2-0.2 0.3-0.3 0.3l-1.6 0.4c-0.2 0.1-0.4 0-0.5-0.2-2.6-7.9-3.4-15.4-3.4-21.1 0-3.2 0.3-5.8 0.5-7.7-0.8 2.9-1.1 6.5-1.1 10.2 0 4.1 0.4 8.3 0.8 11.7q0.8 3.8 1.2 8.3c0.1 0.1-0.1 0.3-0.3 0.4-0.2 0-0.4-0.1-0.4-0.3 0 0-0.7-3.5-1.3-8.2-1.4-6.8-3.8-11.8-5.9-15.3-1.5-2.4-2.8-4-3.9-5.1 6.6 12.2 7.2 26.2 7.2 30.7q0 0.8 0 1.2l16.2 1.2c2.7-9.2 3.5-17 3.5-23 0-4.8-0.5-8.5-1-11z"/>
	<path id="Layer" class="s30" d="m47.9 97c0 0-4.6-14.2-11.6-7.8 0 0-1.8 2.2-2.2 4.4 0.2-1 2.1-2.6 2.9-3.1 3.2-2.1 6 4.3 7.8 6.1 0.5 0.4 1.3 1.4 2.1 1.4 0.4 0 1.1-0.5 1-1z"/>
	<path id="Layer" fill-rule="evenodd" class="s31" d="m46.9 98.4v-0.1 0.1l-0.1-0.1c-1 0-1.8-1.1-2.3-1.5-0.8-0.8-1.8-2.4-2.9-3.8-1-1.4-2.3-2.6-3.3-2.6q-0.6 0-1.1 0.4c-0.8 0.4-2.5 1.9-2.7 2.8v0.1 0.1l-0.2 0.1q-0.1 0.1-0.2 0.1-0.2-0.1-0.3-0.2v-0.1-0.2c0.4-2.3 2.3-4.5 2.3-4.5 1.3-1.3 2.6-1.8 3.9-1.8 2.7 0 4.7 2.5 6.1 4.9 1.3 2.3 2.1 4.6 2.1 4.7q0.1 0.2 0.1 0.3c-0.1 0.8-0.9 1.2-1.4 1.3zm0-0.8c0.1 0 0.3-0.1 0.4-0.2 0.2-0.1 0.2-0.2 0.2-0.3l0.4-0.1-0.4 0.1c0 0-0.7-2.3-2.1-4.7-1.3-2.3-3.3-4.5-5.4-4.5-1 0-2.2 0.5-3.4 1.6 0 0-0.4 0.5-0.9 1.3q-0.1 0.2-0.3 0.4c0.5-0.4 1-0.8 1.4-1q0.7-0.5 1.5-0.5c1.5 0 2.8 1.4 3.9 2.8 1.1 1.5 2.1 3.1 2.8 3.8 0.5 0.5 1.4 1.4 1.9 1.3z"/>
	<path id="Layer" class="s30" d="m53.5 96.9c0 0 1-14.9 9.3-10.3 0 0 2.4 1.6 3.3 3.7-0.5-1-2.7-2.1-3.6-2.4-3.6-1.2-4.8 5.7-6.1 7.8-0.3 0.6-1 1.8-1.7 1.9-0.4 0.1-1.2-0.2-1.2-0.7z"/>
	<path id="Layer" fill-rule="evenodd" class="s31" d="m54.6 98c-0.5 0-1.4-0.2-1.4-1.1h0.3l-0.3-0.1c0 0 0.1-2.8 1.1-5.6 0.9-2.8 2.5-5.8 5.6-5.9 0.9 0 2 0.3 3.1 0.9 0.1 0.1 2.4 1.7 3.4 3.9v0.1 0.2q-0.1 0.2-0.2 0.2h-0.2-0.1q-0.1 0-0.2-0.2v-0.1c-0.4-0.7-2.5-1.8-3.3-2q-0.4-0.1-0.7-0.1c-1.2-0.1-2.2 1.3-3 3-0.7 1.7-1.3 3.7-2 4.7-0.3 0.5-0.9 1.8-1.9 2.1q-0.1 0-0.2 0zm7.1-10.6q0.5 0 0.9 0.2c0.4 0.1 1 0.4 1.6 0.7q-0.2-0.2-0.3-0.4c-0.7-0.6-1.3-1-1.3-1-1-0.6-1.9-0.8-2.7-0.8-2.5-0.1-4.1 2.5-4.9 5.3-0.9 2.6-1.1 5.3-1.1 5.5 0 0.1 0 0.1 0.2 0.2 0.1 0.1 0.3 0.2 0.5 0.2l0.1-0.1c0.4 0 1.1-1.1 1.4-1.7 0.6-0.9 1.2-2.9 2-4.6 0.8-1.8 1.8-3.5 3.6-3.5z"/>
	<path id="Layer" class="s32" d="m35 29.9c1 1.8 1.8 4.2 2.4 5.7 5 11.1 5.4 22.6 5.8 34.9 0.2 4.4 0.4 8.8 0.8 13.1 0.3 3.2 0.7 6.4 1.5 9.4 0.4 1.2 0.9 3.3 2.1 3.8 0.1 0 0.4 0 0.8 0-1.3-3.7-1.7-11.7-2.6-29.1-1.1-22.4-8-33.9-10.8-37.8z"/>
	<path id="Layer" fill-rule="evenodd" class="s30" d="m48 97.2c-0.2 0-0.4 0-0.5-0.1-1.5-0.7-2-2.8-2.3-4-0.9-3.1-1.2-6.3-1.6-9.4-0.4-4.4-0.6-8.8-0.8-13.2-0.4-12.3-0.8-23.7-5.7-34.8-0.7-1.5-1.4-3.9-2.4-5.6-0.1-0.1-0.1-0.4 0.1-0.5 0.1-0.1 0.4-0.1 0.5 0.1 2.9 4 9.7 15.6 10.9 38 0.9 17.4 1.3 25.4 2.5 29q0.1 0.1 0 0.3-0.1 0.1-0.3 0.2-0.2 0-0.4 0zm-10.6-62.6q0.2 0.5 0.4 0.8c4.9 11.2 5.3 22.8 5.8 35.1 0.1 4.4 0.3 8.8 0.8 13.1 0.3 3.1 0.6 6.3 1.5 9.3 0.3 1.2 0.9 3.2 1.8 3.5q0 0 0.2 0c-1.2-3.9-1.6-12-2.5-28.6-0.8-16.7-4.8-27.3-8-33.2z"/>
	<path id="Layer" class="s33" d="m50.3 95.8c0 0 4.6-50.5-16.6-67.4 0.5 0.3 0.9 0.9 1.3 1.5 2.8 3.9 9.7 15.4 10.8 37.8 0.9 17.4 1.3 25.4 2.6 29.1 0.8-0.1 1.8-0.4 1.9-1z"/>
	<path id="Layer" class="s30" d="m48.4 97.2c0.5-0.1 0.9-0.2 1.3-0.4 0.4-0.2 0.9-0.4 0.9-0.9l-0.3-0.1h-0.4c0 0-0.1 0.2-0.5 0.4-0.2 0.1-0.5 0.1-0.8 0.2-1.1-3.7-1.6-11.8-2.4-28.7-1-19.8-6.5-31.2-9.8-36.3 11.9 12.8 13.9 38 13.9 52.8 0 7-0.4 11.6-0.4 11.6h0.4l0.3 0.1c0 0 0.5-4.7 0.5-11.7-0.1-16-2.2-44.2-17.2-56.1q-0.1-0.1-0.2-0.1-0.2 0-0.3 0.1-0.1 0.1-0.1 0.3 0.1 0.2 0.2 0.3 0.6 0.5 1.2 1.5c2.8 3.8 9.6 15.2 10.7 37.6 0.9 17.3 1.4 25.3 2.6 29.1 0.1 0.2 0.2 0.3 0.4 0.3z"/>
	<path id="Layer" class="s32" d="m74.1 40.1c-1.2 1.5-2.4 3.5-3.2 4.8-6.5 9.2-8.6 19.5-10.8 30.3-0.8 4-1.6 7.9-2.7 11.7-0.8 2.7-1.6 5.6-2.9 8.1-0.5 1.1-1.3 2.8-2.6 3.1-0.1 0.1-0.4 0-0.7 0 1.7-3.2 3.3-10.3 6.7-25.6 4.4-19.9 12.8-29.3 16.2-32.4z"/>
	<path id="Layer" fill-rule="evenodd" class="s30" d="m51.8 98.5q-0.3 0-0.7-0.1-0.2 0-0.3-0.2-0.1-0.2 0-0.3c1.7-3 3.4-10.2 6.8-25.5 4.4-19.9 12.8-29.4 16.3-32.5 0.1-0.2 0.4-0.2 0.5 0 0.2 0.1 0.2 0.3 0 0.5-1.2 1.4-2.3 3.4-3.2 4.7-6.4 9.2-8.5 19.3-10.7 30.2-0.8 3.9-1.7 7.8-2.7 11.7-0.8 2.7-1.6 5.6-2.9 8.2-0.5 1-1.3 2.9-2.9 3.3q-0.1 0-0.2 0zm19.1-54.4c-4 4.9-9.4 13.8-12.6 28.4-3.3 14.7-4.8 21.8-6.6 25.3h0.1 0.1c1-0.2 1.8-1.9 2.3-3 1.3-2.5 2.1-5.3 2.8-8 1.1-3.8 2-7.7 2.7-11.6 2.2-10.9 4.3-21.2 10.9-30.6q0.1-0.2 0.3-0.5z"/>
	<path id="Layer" class="s33" d="m49.4 97c0 0 2.8-45.8 26.2-58.1-0.5 0.3-1 0.7-1.5 1.2-3.4 3.1-11.8 12.5-16.2 32.4-3.4 15.3-5 22.4-6.7 25.6-0.8-0.2-1.8-0.6-1.8-1.1z"/>
	<path id="Layer" fill-rule="evenodd" class="s30" d="m51.2 98.4h-0.1c-0.4-0.1-0.9-0.2-1.3-0.4-0.3-0.3-0.7-0.5-0.7-1v-0.1c0 0 2.7-45.8 26.4-58.3 0.1-0.1 0.4-0.1 0.5 0.1v0.2q0 0.2-0.2 0.3c-0.5 0.3-0.9 0.7-1.4 1.2-3.4 3.1-11.7 12.4-16.1 32.1-3.4 15.4-5 22.5-6.8 25.7q-0.1 0.2-0.3 0.2zm21.1-57c-9.4 6.9-15 19.7-18.2 31.2-1.8 6.5-2.9 12.6-3.5 17.1-0.6 4.4-0.8 7.2-0.8 7.3l0.1 0.1c0.1 0.2 0.6 0.4 1.1 0.5 1.6-3.1 3.3-10.3 6.6-25.2 3.8-17.3 10.7-26.7 14.7-31z"/>
	<path id="Layer" class="s32" d="m62.7 30.9c-1 1.8-1.7 4.3-2.3 5.7-4.8 11.2-4.9 22.8-5.1 35-0.1 4.4-0.2 8.8-0.6 13.2-0.2 3.1-0.5 6.3-1.3 9.3-0.3 1.3-0.8 3.4-2 3.9-0.2 0.1-0.5 0.1-0.8 0 1.2-3.7 1.5-11.7 2-29.1 0.7-22.4 7.3-34 10.1-38z"/>
	<path id="Layer" fill-rule="evenodd" class="s30" d="m50.9 98.4q-0.2 0-0.3 0-0.2 0-0.3-0.2-0.1-0.1-0.1-0.3c1.2-3.6 1.5-11.6 2-29 0.7-22.4 7.4-34.2 10.2-38.2 0.1-0.1 0.4-0.2 0.5-0.1 0.2 0.1 0.2 0.3 0.1 0.5-0.9 1.7-1.7 4.2-2.3 5.7-4.7 11.1-4.9 22.6-5.1 34.8 0 4.4-0.2 8.8-0.5 13.2-0.3 3.2-0.6 6.4-1.4 9.4-0.3 1.2-0.7 3.4-2.2 4.1-0.2 0.1-0.4 0.1-0.6 0.1zm9.5-62.8c-3.1 6-6.9 16.7-7.4 33.3-0.6 16.7-0.8 24.8-1.9 28.8q0.1 0 0.1-0.1c1-0.3 1.5-2.3 1.8-3.5 0.8-3 1.1-6.2 1.3-9.3 0.4-4.4 0.5-8.8 0.6-13.2 0.2-12.2 0.4-23.8 5.1-35.1q0.2-0.4 0.4-0.9z"/>
	<path id="Layer" class="s33" d="m48.7 97.1c0 0-5.6-50.4 15.3-67.8-0.5 0.4-0.9 1-1.3 1.6-2.8 4-9.4 15.6-10.1 38-0.5 17.4-0.8 25.4-2 29.1-0.8 0-1.8-0.3-1.9-0.9z"/>
	<path id="Layer" fill-rule="evenodd" class="s30" d="m50.6 98.4c-0.5 0-1-0.1-1.4-0.3-0.4-0.2-0.8-0.4-0.9-0.9 0 0-0.6-6.2-0.6-15 0-16.3 2.3-41.7 16-53.1 0.2-0.2 0.4-0.1 0.5 0q0.1 0.1 0.1 0.2 0 0.2-0.1 0.3c-0.4 0.4-0.8 0.9-1.2 1.5-2.7 3.9-9.3 15.5-10 37.8-0.6 17.4-0.8 25.4-2.1 29.3 0 0.1-0.2 0.2-0.3 0.2zm10.7-65.9c-10.9 12.1-12.9 34.7-12.9 49.7 0 8.8 0.7 14.9 0.7 14.9 0 0 0.1 0.2 0.4 0.3 0.2 0.1 0.5 0.2 0.8 0.2 1.1-3.7 1.4-11.8 1.9-28.7 0.7-19.8 5.9-31.3 9.1-36.4z"/>
	<path id="Layer" class="s34" d="m24.4 76.5c0.7-1.9 5.6-12.8 9.2-15.7 0.4 0.6 1.4 2.6 2.5 5.1-5.1 1.8-11.7 10.6-11.7 10.6z"/>
	<path id="Layer" fill-rule="evenodd" class="s30" d="m24.4 76.8h-0.2c-0.2-0.1-0.2-0.3-0.2-0.5 0.8-1.9 5.6-12.8 9.4-15.8q0.1-0.1 0.3 0 0.2 0 0.3 0.2c0.3 0.6 1.3 2.5 2.4 5q0.1 0.2 0 0.3-0.1 0.2-0.2 0.2c-2.4 0.9-5.4 3.5-7.6 5.9-2.3 2.4-3.9 4.6-3.9 4.6q-0.1 0.1-0.3 0.1zm11.2-11.1c-0.9-1.9-1.7-3.5-2.1-4.3-2.6 2.4-5.9 8.9-7.7 12.7 2.3-2.7 6.3-6.9 9.8-8.4z"/>
	<path id="Layer" class="s32" d="m36.8 59.9c2.8-0.1 5.2 1.5 5.2 1.5 8.4 18.8 6.2 35.1 6.2 35.1-0.3 0.9-0.8 1.3-1.4 1-0.7-8.2-3.2-32.2-10-37.6z"/>
	<path id="Layer" fill-rule="evenodd" class="s30" d="m47.2 98q-0.3 0-0.5-0.1-0.2-0.1-0.2-0.4c-0.4-4.1-1.2-12.1-2.8-19.8-1.5-7.7-3.9-15-7.2-17.5-0.1-0.1-0.1-0.3-0.1-0.4 0.1-0.2 0.2-0.3 0.4-0.3h0.1c3 0 5.3 1.5 5.3 1.5l0.2 0.2c5.5 12.5 6.5 23.9 6.5 30.2 0 3.2-0.3 5.1-0.3 5.1v0.1c-0.3 0.8-0.7 1.4-1.4 1.4zm0.7-1.6c0-0.3 0.2-2 0.2-5 0-6.2-0.9-17.4-6.4-29.8-0.2-0.1-0.6-0.4-1.3-0.6-0.7-0.3-1.6-0.6-2.6-0.7 3.1 3.3 5.2 10.1 6.6 17.3 1.6 7.5 2.4 15.4 2.8 19.6 0.2 0 0.4-0.1 0.7-0.8z"/>
	<path id="Layer" class="s33" d="m34.7 60.2q1-0.3 2.1-0.3c6.8 5.4 9.3 29.4 10 37.6-1.4-0.6-3.4-4.5-4.8-12.2-2-11-5.8-19.5-5.8-19.5l-0.1 0.1c-1.1-2.5-2.1-4.5-2.5-5.1q0.6-0.4 1.1-0.6z"/>
	<path id="Layer" class="s30" d="m47 97.8q0.2-0.1 0.2-0.3c-0.4-4.1-1.2-12.2-2.7-19.9-1.6-7.8-3.9-15.1-7.5-18q-0.1-0.1-0.2-0.1-1.1 0-2.2 0.4l0.1 0.3 0.1 0.4q0.9-0.3 1.8-0.3c3.2 2.6 5.6 9.8 7.1 17.4 1.5 7.2 2.3 14.7 2.7 19-1.2-1.2-2.9-5-4-11.5-2.1-11-5.9-19.5-5.9-19.5q-0.1-0.2-0.2-0.2c-0.9-2.1-1.8-3.8-2.2-4.6q0.4-0.2 0.7-0.3l-0.1-0.4-0.1-0.3q-0.6 0.2-1.2 0.6c-0.1 0.2-0.2 0.4-0.1 0.5 0.3 0.6 1.4 2.5 2.4 5q0.1 0.2 0.2 0.2c0.3 0.6 1.1 2.6 2.1 5.4 1.2 3.5 2.6 8.3 3.6 13.8 1.5 7.7 3.4 11.6 5.1 12.4l0.1 0.1z"/>
</svg>