<svg version="1.2" xmlns="http://www.w3.org/2000/svg" viewBox="0 0 100 135" width="100" height="135">
	<title>flower_in_a_pot_13-svg</title>
	<style>
		.s0 { fill: #aa6b28 } 
		.s1 { fill: #2e1010 } 
		.s2 { fill: #f9a84c } 
		.s3 { fill: #7c4317 } 
		.s4 { fill: #fab76a } 
		.s5 { fill: #de9342 } 
		.s6 { fill: #6f3b14 } 
		.s7 { fill: #f9a72b } 
		.s8 { fill: #c7883c } 
		.s9 { fill: #584521 } 
		.s10 { fill: #403215 } 
		.s11 { fill: #6c562b } 
		.s12 { fill: #775e30 } 
		.s13 { fill: #d09c5d } 
		.s14 { fill: #7c6232 } 
		.s15 { fill: #463618 } 
		.s16 { fill: #de9225 } 
		.s17 { fill: #54401d } 
		.s18 { fill: #3d2e12 } 
		.s19 { fill: #654e21 } 
		.s20 { fill: #fab64f } 
		.s21 { fill: #875723 } 
		.s22 { fill: #3c2c13 } 
		.s23 { fill: #2b200c } 
		.s24 { fill: #493719 } 
		.s25 { fill: #543f1c } 
		.s26 { fill: #2f230e } 
		.s27 { fill: #392911 } 
		.s28 { fill: #291d0a } 
		.s29 { fill: #453213 } 
		.s30 { fill: #03a24b } 
		.s31 { fill: #81d0a5 } 
		.s32 { fill: #018430 } 
		.s33 { fill: #019344 } 
		.s34 { fill: #005d14 } 
		.s35 { fill: #004c0d } 
		.s36 { fill: #20461f } 
		.s37 { fill: #8fa28f } 
		.s38 { fill: #122c11 } 
		.s39 { fill: #e887b7 } 
		.s40 { fill: #f3c3db } 
		.s41 { fill: #dd679d } 
		.s42 { fill: #ea9dc4 } 
		.s43 { fill: #e07fad } 
		.s44 { fill: #f4cee1 } 
		.s45 { fill: #de6da2 } 
		.s46 { fill: #1e381b } 
		.s47 { fill: #11230f } 
		.s48 { fill: #6abd45 } 
		.s49 { fill: #b4dea2 } 
		.s50 { fill: #4ba42c } 
		.s51 { fill: #186309 } 
		.s52 { fill: #103914 } 
		.s53 { fill: #09240b } 
		.s54 { fill: #26861c } 
		.s55 { fill: #0c5106 } 
		.s56 { fill: #00440b } 
	</style>
	<path id="Layer" class="s0" d="m76 102.3l-3.5 26.4c-0.1 3.6-7.9 6.3-17.5 6.2-9.6-0.2-17.4-3.2-17.3-6.7l-4.1-28.2z"/>
	<path id="Layer" class="s1" d="m76 102.3h-0.1l-3.5 26.4c0 1.6-1.9 3.2-4.9 4.3-3 1.1-7.2 1.8-11.8 1.8q-0.3 0-0.7 0c-4.8-0.1-9.1-0.9-12.2-2.1-3.1-1.2-5-2.8-5-4.5l-4.1-28.1 42.3 2.3v-0.1l0.1-0.1-42.5-2.3h-0.1v0.1l4.1 28.2h0.1-0.1c0 1.9 2 3.5 5.1 4.7 3.2 1.2 7.5 2 12.3 2.1q0.4 0 0.7 0c4.7 0 8.9-0.7 11.9-1.8 3-1.1 5-2.7 5-4.5h-0.1 0.1l3.6-26.4h-0.1v-0.1z"/>
	<path id="Layer" class="s2" d="m76 102.3l-3.5 26.4c-0.1 3.6-7.9 6.3-17.5 6.2-9.6-0.2-17.4-3.2-17.3-6.7l-4.1-28.2z"/>
	<path id="Layer" class="s3" d="m76 102.3h-0.1l-3.5 26.4c0 1.6-1.9 3.2-4.9 4.3-3 1.1-7.2 1.8-11.8 1.8q-0.3 0-0.7 0c-4.8-0.1-9.1-0.9-12.2-2.1-3.1-1.2-5-2.8-5-4.5l-4.1-28.1 42.3 2.3v-0.1l0.1-0.1-42.5-2.3h-0.1v0.1l4.1 28.2h0.1-0.1c0 1.9 2 3.5 5.1 4.7 3.2 1.2 7.5 2 12.3 2.1q0.4 0 0.7 0c4.7 0 8.9-0.7 11.9-1.8 3-1.1 5-2.7 5-4.5h-0.1 0.1l3.6-26.4h-0.1v-0.1z"/>
	<path id="Layer" class="s4" d="m38.3 107.4l2.6 18.6c0 0 1.1 5.8 8.2 7.3q1.3 0.3 2.5 0.3c6.1 0 11.2-5.1 11.6-11 0.5-7.1 0.5-13.2 0.5-13.2 0 0-4.3 0.7-9.8 0.7-4.9 0-10.9-0.6-15.6-2.7z"/>
	<path id="Layer" class="s5" d="m75.7 104.1c-1.2 1.1-2.9 2-5 2.8-1.8 0.7-3.8 1.2-6 1.6q0.9 0.2 2.2 0.2c1.2 0 2.6-0.1 4.2-0.4 0 0 0.2-0.1 0.3-0.1 0.3 0 0.6 0.3 0.7 1.8 0 2.6-2.4 17.9-2.4 17.9 0 0-0.4 4-5.9 5.4-1.9 0.5-4.9 0.9-8.2 0.9-6.5 0-14.4-1.5-17.9-6.9l0.1 0.9c0 1.7 1.9 3.3 5 4.5 3.1 1.2 7.4 2 12.2 2.1q0.4 0 0.7 0c4.6 0 8.8-0.7 11.8-1.8 3-1.1 4.9-2.7 4.9-4.3z"/>
	<path id="Layer" class="s6" d="m75.8 104q0 0-0.1 0.1l-3.3 24.6c0 1.6-1.9 3.2-4.9 4.3-3 1.1-7.2 1.8-11.8 1.8q-0.3 0-0.7 0c-4.8-0.1-9.1-0.9-12.2-2.1-3.1-1.2-5-2.8-5-4.5l-0.1-0.9q-0.1-0.1-0.2-0.2l0.2 1.1c-0.1 3.5 7.7 6.5 17.3 6.7q0.4 0 0.7 0c9.3 0 16.7-2.7 16.8-6.2z"/>
	<path id="Layer" class="s7" d="m32.6 95.1l4.1 0.1c4.1-2.3 10.8-3.8 18.4-3.8 8.5 0 15.9 1.9 19.7 4.6 1.6-0.5 3.2-1 3.2-1l-0.5 5.8c-0.5 4.7-10.3 8.5-22.4 8.5-12.2 0-22.1-3.9-22.5-8.7v-0.1-5.2z"/>
	<path id="Layer" class="s3" d="m32.6 95.1v0.1l4.1 0.1c4.1-2.3 10.8-3.8 18.4-3.8 8.5 0 15.9 1.9 19.7 4.6h0.1c1.5-0.4 3.2-1 3.2-1l-0.1-0.1h-0.1l-0.5 5.8h0.2v-0.1l-0.2 0.1c-0.2 2.3-2.8 4.4-6.8 5.9-4 1.5-9.5 2.5-15.5 2.5-6.1 0-11.6-1-15.6-2.5-4.1-1.6-6.6-3.8-6.7-6.1l-0.1-0.1v-5.2h-0.1-0.1l0.1 0.1 0.1-0.1v-0.2h-0.1-0.1v0.2h0.1 0.1v-0.1h-0.1l-0.1 0.1v5.2 0.1l0.1 0.1v-0.1h-0.1c0.2 2.5 2.8 4.7 6.9 6.3 4.1 1.5 9.6 2.5 15.7 2.5 6 0 11.5-0.9 15.6-2.5 4-1.5 6.7-3.7 7-6.1h-0.1v0.1l0.1-0.1 0.4-5.8v-0.1h-0.1c0 0-1.6 0.5-3.2 1v0.1h0.1c-3.9-2.8-11.3-4.7-19.8-4.7-7.6 0-14.4 1.5-18.5 3.8l0.1 0.1v-0.1l-4.1-0.2-0.1 0.1v0.1z"/>
	<path id="Layer" class="s2" d="m32.6 95.1c0 4.9 10.2 9 22.7 9 12.5 0 22.7-4.1 22.7-9 0-5-10.2-9.1-22.7-9.1-12.5 0-22.7 4.1-22.7 9.1z"/>
	<path id="Layer" class="s3" d="m32.6 95.1h-0.1c0 2.5 2.6 4.8 6.7 6.4 4.1 1.7 9.8 2.7 16.1 2.7 6.3 0 12-1 16.1-2.7 4.1-1.6 6.7-3.9 6.7-6.4 0-2.6-2.6-4.9-6.7-6.5-4.1-1.7-9.8-2.7-16.1-2.7-6.3 0-12 1-16.1 2.7-4.1 1.6-6.7 3.9-6.7 6.5h0.1 0.1c0-2.4 2.5-4.7 6.6-6.3 4.1-1.6 9.7-2.6 16-2.6 6.3 0 11.9 1 16 2.6 4.1 1.6 6.6 3.9 6.6 6.3 0 2.4-2.5 4.6-6.6 6.2-4.1 1.6-9.7 2.6-16 2.6-6.3 0-11.9-1-16-2.6-4.1-1.6-6.6-3.8-6.6-6.2z"/>
	<path id="Layer" class="s8" d="m33.3 94.9c0 4.5 9.8 8.1 22 8.1 12.1 0 21.9-3.6 21.9-8.1 0-4.5-9.8-8.2-21.9-8.2-12.2 0-22 3.7-22 8.2z"/>
	<path id="Layer" class="s3" d="m33.3 94.9h-0.1c0 2.3 2.5 4.4 6.5 5.8 4 1.5 9.5 2.4 15.6 2.4 6 0 11.5-0.9 15.5-2.4 4-1.4 6.5-3.5 6.5-5.8 0-2.4-2.5-4.4-6.5-5.9-4-1.5-9.5-2.4-15.5-2.4-6.1 0-11.6 0.9-15.6 2.4-4 1.5-6.5 3.5-6.5 5.9h0.1 0.1c0-2.2 2.4-4.2 6.4-5.7 3.9-1.4 9.4-2.3 15.5-2.3 6 0 11.5 0.9 15.4 2.3 4 1.5 6.4 3.5 6.4 5.7 0 2.1-2.4 4.2-6.4 5.6-3.9 1.5-9.4 2.4-15.4 2.4-6.1 0-11.6-0.9-15.5-2.4-4-1.4-6.4-3.5-6.4-5.6z"/>
	<path id="Layer" class="s9" d="m69.4 93.7c0 0 0.4-1.1-3.2-2.3-3.5-1.3-4.3 0.9-4.3 0.9 0 0 0.1-0.9-1.8-2.2-1.9-1.2-4.7 0.8-4.7 0.8-3.1-1.4-5.4 1.7-5.4 1.7-2.9-2.8-7.7 0-7.7 0-4.8-1.1-6 2.9-6 2.9-1.2 0-2.1 0.4-2.8 0.9 2.4 3.6 10.9 6.4 21.1 6.6 11 0.3 20.2-2.5 21.9-6.4-1.3-1.2-3.5-1.6-3.5-1.6-1.1-1.6-3.6-1.3-3.6-1.3z"/>
	<path id="Layer" class="s10" d="m69.5 93.7c0.3-1.2-2.6-2.1-3.2-2.4-1.4-0.5-3.5-0.8-4.4 0.7-0.1 0.3-0.1 0.2 0 0.2 0 0 0.1 0 0.1 0.1 0-0.4-0.2-0.6-0.4-0.9-0.6-0.9-1.6-1.4-2.5-1.7-0.9-0.2-1.8 0.2-2.6 0.5-0.4 0.1-0.8 0.4-1.2 0.6 0.2-0.1-1.3-0.3-1.2-0.3-1.1 0-1.9 0.2-2.9 0.8-0.4 0.3-0.7 0.6-1.1 1-0.4 0.5-0.4-0.1-1-0.4-2.1-0.9-4.2-0.5-6.3 0.4-0.5 0.2-0.9 0.1-1.4 0.1-0.3 0-0.6-0.1-1 0-1.1 0.1-2 0.4-2.9 1.1-0.5 0.5-1 1.1-1.2 1.8-0.2 0.2-2.4 0.7-2.9 1.1 1.8 2.5 4.9 3.7 7.7 4.6 4.4 1.4 9 1.9 13.6 2.1 4.7 0.1 9.5-0.3 14.1-1.6 2.8-0.8 6.4-2.1 7.8-4.9-1.2-1-2.8-1.2-3.9-2.1-1-0.7-2.2-1-3.4-0.9-0.1 0 0.1 0.1 0.1 0.1 1.5-0.1 2.5 1.1 3.9 1.4 1.1 0.2 3.6 0.9 2.6 2.4-0.4 0.5-0.9 0.9-1.5 1.3-3.4 2.7-8.4 3.4-12.6 3.9-5.7 0.6-11.7 0.3-17.3-0.9-2.5-0.5-4.9-1.3-7.1-2.4q-1.3-0.6-2.4-1.5-0.5-0.4-0.9-0.9c-1.1-1.1 2.1-1.4 2.2-1.4h0.1c0.8-2.6 3.5-3.4 6-3 0.2 0.1 0.7-0.3 0.9-0.4 2.1-0.9 4.7-1.2 6.6 0.5h0.2c0.3-0.4 0.6-0.7 1-1 1.5-1.3 2.3-0.8 4.3-0.8 0.4 0 0.9-0.5 1.3-0.6 1.6-0.8 5.1-0.2 5.1 2l0.2 0.1c0.3-0.8 1.1-1.2 1.9-1.4-0.6 0.1 5.9 0.7 5.4 2.6z"/>
	<path id="Layer" class="s11" d="m42.6 93.4c0 0-3.9-0.7-4.6 1.4-0.8 2-3.3 0.9-1.7 2.7 1.6 1.8 4.1 1.9 5.3 0.9 1.1-0.9 1.5-2.3 3.8-2.1 2.3 0.2 0.8-1.6-0.5-1.7-1.3 0 1.2-1.7 2.2-1.8 1.1-0.1-2.3-1.3-4.5 0.6z"/>
	<path id="Layer" class="s11" d="m52.4 95.4c0 0-0.9-1.1-3.5-1.1-2.7-0.1-1.1 1-1.3 1.5-0.1 0.5 1.7 1.5 1.7 1.5 0 0 0.7-1.7 3.1-1.9z"/>
	<path id="Layer" class="s11" d="m51.3 93c-0.3 0 1.6-2.1 3.5-1.5 0.9 0.3 1.7 0.1 2.5-0.1 1-0.3 1.9-0.5 2.7 0.1 1.6 1.2 0.9 2.1 0.9 2.1 0 0-4.9 0-5.4 2.1 0 0-1.5-2.5-4.2-2.7z"/>
	<path id="Layer" class="s11" d="m64.3 95.4c-0.1 0-0.5-0.1-1-0.1-1.7-0.2-4.7-0.4-5.8 1.1 0 0-0.6 0.4 0.6 1.4 1.2 1 2 1.2 2 2.4 0 0 1.5-3.4 7.7-1.9 6.1 1.5 6.8-1.2 5.6-1.9-1.3-0.8-3.8 0.3-3.8 0.3 0 0-0.9-2.3-5.3-1.3z"/>
	<path id="Layer" class="s12" d="m67.9 93.5c0 0-1.4-1.6-3.2-1.3-1.8 0.4 3.7 2.9 3.2 1.3z"/>
	<path id="Layer" class="s11" d="m57 99.5c0 0-2-1.6-4.6-0.8 0 0-0.3 2.6-0.9 2.5-0.6 0-1.5-3.7-4.7-3.4-3.2 0.3-4.6 1.6-3.3 2.7 1.3 1 7.6 2.3 11.4 2 3.8-0.3 3-2 2.1-3z"/>
	<path id="Layer" class="s11" d="m65.3 99.5c0 0-2.6-0.4-3.8 1.2-1.2 1.6 4.3 1.3 6.2 0.3 2-0.9-2.1-1.5-2.4-1.5z"/>
	<path id="Layer" class="s13" d="m56.5 87.4c-9.8 0-17.1 2.7-17.1 2.7-1.4 0.8-0.1 1.9 1.8 1.9 0.9 0 1.9-0.2 2.9-0.8 0.8-0.4 1.5-0.6 2.2-0.6 0.7 0 1.3 0.2 1.9 0.3 0.5 0.2 1 0.3 1.4 0.3 0.4 0 0.7-0.1 1-0.4 0.5-0.8 1.5-1 2.5-1 1 0 2 0.3 2 0.3 0 0 0.2-1 3.1-1q0.2 0 0.4 0c3.3 0.2 3.8 1.7 3.8 1.7 0.2-1 2.6-0.9 2.9-1.8 0.4-0.9-1-1-1-1-2.7-0.4-5.3-0.6-7.8-0.6z"/>
	<path id="Layer" class="s14" d="m42.7 94.1c-0.1-0.1-1.1-0.8-3.1 0-1.9 0.7-0.8 1.7 0.6 1.5 1.5-0.2 2.8-0.9 2.5-1.5z"/>
	<path id="Layer" class="s14" d="m50.3 94.7c0 0-1.4-0.2-1.2 0.3 0.3 0.6 2.5 0 1.2-0.3z"/>
	<path id="Layer" class="s14" d="m60.4 92.9c0 0-0.5-1.6-2.2-1.3-1.6 0.2 2.2 2.3 2.2 1.3z"/>
	<path id="Layer" class="s14" d="m69 96.7c0 0-3.2-1.7-3.2-0.1 0 1.6 4.4 1.2 3.2 0.1z"/>
	<path id="Layer" class="s15" d="m60.4 101.5q-0.1 0-0.2 0 0.1 0 0.1 0 0.1 0 0.1 0 0 0 0 0z"/>
	<path id="Layer" class="s16" d="m77.2 98.5c-1.1 4.9-10.3 8.9-10.3 8.9 0 0 5.3-1.7 7.4-2.9 2-1.3 2.7-3.6 2.7-3.6z"/>
	<path id="Layer" class="s9" d="m41.4 94.7c0 0-1.4-1.3-3 0.2-1.5 1.5-0.7 2.8 0.9 2.7 1.7-0.2 3.8-1.5 2.1-2.9z"/>
	<path id="Layer" class="s10" d="m41.5 94.7c-0.6-0.5-1.4-0.7-2.1-0.5-1.1 0.3-2.5 1.9-1.6 3 0.7 0.8 2.2 0.4 3 0 0.5-0.2 1-0.6 1.3-1.1 0.2-0.6-0.2-1.1-0.6-1.4l-0.2 0.1c0.9 0.7 0.6 1.5-0.2 2.1-0.9 0.6-2.6 1.1-3.3 0.1-0.6-1 0.8-2.3 1.5-2.6 0.7-0.3 1.5-0.1 2 0.4z"/>
	<path id="Layer" class="s17" d="m41.8 95.3q-0.1 0.2-0.2 0.4 0.1 0 0.3 0.1 0-0.3-0.1-0.5z"/>
	<path id="Layer" class="s18" d="m41.8 95.1q0 0 0 0.2 0.1 0.2 0.1 0.5 0.1 0 0.1 0 0.1-0.3-0.2-0.7z"/>
	<path id="Layer" class="s17" d="m37.7 96.3q-0.1 0.4 0.1 0.7c0.3 0.4 0.8 0.6 1.3 0.6 0.4 0 0.9-0.2 1.3-0.3-0.2-0.3-0.1-0.6 0-0.9q-0.1 0.1-0.2 0.1c0 0-0.7 0.4-1.4 0.4q-0.3 0-0.5-0.1c-0.3-0.2-0.6-0.3-0.6-0.5z"/>
	<path id="Layer" class="s18" d="m37.9 95.6c-0.7 1.1-0.1 2 1.2 2q0.1 0 0.2 0 0.6-0.1 1.1-0.3 0 0 0 0c-0.4 0.1-0.9 0.3-1.3 0.3-0.5 0-1-0.2-1.3-0.6q-0.2-0.4-0.1-0.7-0.1-0.2 0.2-0.6z"/>
	<path id="Layer" class="s19" d="m40.2 94.5c-1 0-1.7 1-1.7 1q-0.2 0.3-0.2 0.4c0 0.1 0.1 0.2 0.3 0.2 0.3 0 0.9-0.2 1.1-0.3 0.2-0.2 1.3-0.6 1.3-0.9q0-0.1-0.4-0.3-0.2-0.1-0.4-0.1z"/>
	<path id="Layer" class="s9" d="m42.2 96c0 0-0.7-0.7-1.4 0.1-0.7 0.8-0.3 1.6 0.5 1.5 0.7-0.1 1.7-0.9 0.9-1.6z"/>
	<path id="Layer" class="s10" d="m42.3 96c-0.3-0.2-0.7-0.4-1-0.3-0.7 0.2-1.3 1.1-0.8 1.7 0.7 0.8 2.9-0.4 1.8-1.4h-0.2c1 1-1 2-1.5 1.2-0.3-0.4 0.2-1 0.5-1.3 0.3-0.2 0.7-0.1 1 0.1z"/>
	<path id="Layer" class="s9" d="m70.8 97.3c0 0-1.4-1.3-3 0.2-1.6 1.5-0.8 2.8 0.9 2.6 1.6-0.1 3.7-1.5 2.1-2.8z"/>
	<path id="Layer" class="s10" d="m70.9 97.3c-0.6-0.5-1.3-0.7-2-0.6-1.1 0.3-2.7 1.9-1.8 3 0.7 0.9 2.2 0.5 3.1 0.1 0.5-0.2 1-0.6 1.2-1.1 0.3-0.6-0.1-1.1-0.5-1.4-0.1 0-0.3-0.1-0.2 0 2.1 1.8-2.7 3.9-3.6 2.2-0.4-1 0.8-2.1 1.5-2.5 0.6-0.4 1.5-0.2 2.1 0.3 0.1 0 0.3 0.1 0.2 0z"/>
	<path id="Layer" class="s17" d="m71.1 97.8c0 0.3-0.4 1-1.6 1.2 0 0-0.7 0.4-1.3 0.4q-0.1 0-0.2 0-0.3 0.1-0.7 0.2c0.2 0.4 0.7 0.5 1.2 0.5 1.4 0 3.2-1.1 2.6-2.3z"/>
	<path id="Layer" class="s18" d="m71.2 97.7q0 0-0.1 0.1c0.6 1.2-1.2 2.3-2.6 2.3-0.5 0-1-0.1-1.2-0.5q-0.1 0.1-0.1 0.1c0.2 0.3 0.7 0.5 1.2 0.5q0.1 0 0.3-0.1c1.5-0.1 3.4-1.2 2.5-2.4z"/>
	<path id="Layer" class="s19" d="m69.5 97.1q-0.2 0-0.4 0.1c0.4 0.2 0.6 0.4 0.3 0.8q0 0.1 0 0.1c0.4-0.1 1-0.4 1-0.6q0-0.2-0.4-0.3-0.3-0.1-0.5-0.1z"/>
	<path id="Layer" class="s9" d="m71.6 98.6c0 0-0.8-0.7-1.5 0.1-0.7 0.8-0.3 1.5 0.5 1.4 0.8-0.1 1.8-0.8 1-1.5z"/>
	<path id="Layer" class="s10" d="m71.6 98.6c-0.2-0.2-0.6-0.4-1-0.3-0.5 0.1-1.3 1-0.8 1.6 0.7 0.8 2.9-0.3 1.8-1.3h-0.1c0.9 0.9-1.1 2-1.6 1.2-0.2-0.4 0.1-0.8 0.3-1.1 0.3-0.4 0.9-0.4 1.3-0.1z"/>
	<path id="Layer" class="s20" d="m33.6 98.8c0 0 0 2.3 0.2 2.8 0.2 0.5 0.9 1.4 0.9 1.4 5.7 4.4 14.8 5.3 21.1 5.3 4.1 0 7.1-0.3 7.4-0.4 0.8 0 0.5-3.5 0.5-3.5q-4.9 0.5-8.9 0.5c-17.2 0-21.2-6.1-21.2-6.1z"/>
	<path id="Layer" class="s21" d="m50.1 92.4q-0.2 0-0.4 0 0 0 0 0 0.1 0.1 0.2 0.1 0 0 0.2-0.1z"/>
	<path id="Layer" fill-rule="evenodd" class="s22" d="m51.3 93c2.7 0.2 4.2 2.7 4.2 2.7 0.4-2 4.9-2.1 5.3-2.1q0.1 0 0.1 0c0 0 0.1-0.1 0.1-0.3q0.2 0.1 0.2 0.3c0.3 0.8 2.5 1.2 4 1.6q-0.5 0.1-0.9 0.2 0 0 0 0c-0.1 0-0.5-0.1-1-0.1-0.6-0.1-1.3-0.2-2-0.2-1.5 0-3.1 0.3-3.8 1.3 0 0-0.6 0.4 0.6 1.4 1.2 1 2 1.2 2 2.4 0 0 1-2.3 4.8-2.3q1 0 2.2 0.2-0.1 0.2-0.1 0.4-0.8-0.2-1.7-0.2-0.8 0-1.6 0.1c-3.3 0.7-4.2 2.9-3.5 3.1-0.8 0.1-1.6 0.2-2.3 0.4q-0.8 0.2-1.5 0.3c2-0.6 1.4-1.8 0.6-2.7 0 0-1.3-1-3.2-1q-0.7 0-1.4 0.2c0 0-0.3 2.5-0.9 2.5q0 0 0 0c-0.6 0-1.5-3.4-4.4-3.4q-0.1 0-0.3 0c-3 0.3-4.4 1.4-3.5 2.4-0.5-0.2-0.9-0.5-1.6-0.8q-0.5-0.3-0.8-0.6 0.4-0.1 0.7-0.4c1.1-0.9 1.5-2.1 3.4-2.1q0.2 0 0.4 0 0.2 0 0.3 0c1.8 0 0.5-1.6-0.8-1.7-0.6 0-0.4-0.3 0.1-0.7 1.3-0.5 3-1.1 4.6-1.4q0.2 0.1 0.3 0.2h0.2q0.1-0.2 0.3-0.4 0.8-0.1 1.6-0.1c-0.5 0.4-0.9 0.8-0.7 0.8zm-1.6-0.6q0 0 0 0 0 0 0 0zm-0.6 5.1c-0.2-0.1-1.3-0.7-2.6-0.7-0.9 0-1.9 0.3-3 1.3-0.9 0.6-1.1 1.5-1.1 1.5q0.5-1 1.1-1.5c0.6-0.5 1.5-0.8 2.8-0.8q0.8 0 1.8 0.2c0 0 3.2 1.3 3.5 3.3 0 0 0.4-2-0.7-2.4-0.5-0.1 0.5-0.5 2.1-0.5 1.6 0 3.7 0.4 5.1 1.6 0.6 0.6 1 0.8 1.2 0.8 0.6 0-0.8-2.4-2.8-2.9 0 0 0.9-2.1 3.4-2.5 1-0.1 0.8-0.3 0.1-0.3-1.1 0-3.5 0.5-4.4 2.1 0 0-2.1-3.5-6.3-3.5q-0.3 0-0.5 0c0 0 4.3 1.4 4.5 2.5 0.3 1.1-2.7 0.6-3.5 1.6 0 0-0.2 0.2-0.5 0.2q-0.1 0-0.2 0zm3.3-2.1c0 0-0.9-1.1-3.5-1.1q-0.1 0-0.2 0c-2.4 0-0.9 1-1.1 1.5-0.1 0.5 1.7 1.5 1.7 1.5 0 0 0.7-1.7 3.1-1.9zm-3.7 6.7c-1-0.1-2-0.3-2.7-0.6q-0.1 0-0.1 0c0.8 0.2 1.8 0.4 2.8 0.6z"/>
	<path id="Layer" class="s23" d="m50.4 92.3q-0.2 0-0.3 0.1-0.2 0.1-0.3 0.1 0 0-0.1-0.1 0 0 0 0 0 0-0.1 0.1 0.2 0.1 0.3 0.2h0.2q0.1-0.2 0.3-0.4z"/>
	<path id="Layer" class="s24" d="m45 93.9q-0.6 0.1-1 0.3c-2.1 0.6 0 1.1-1.6 2 0.5 0.7-0.5 1.4-1.3 1.4q-0.3 0.1-0.6-0.1-0.4 0.7 0.4 1.3 0.4-0.1 0.7-0.4c1.1-0.9 1.5-2.1 3.4-2.1q0.2 0 0.4 0 0.2 0 0.3 0c1.8 0 0.5-1.6-0.8-1.7-0.6 0-0.4-0.3 0.1-0.7z"/>
	<path id="Layer" fill-rule="evenodd" class="s24" d="m48.9 94.3c2.6 0 3.5 1.1 3.5 1.1-2.4 0.2-3.1 1.9-3.1 1.9 0 0-1.8-1-1.7-1.5 0.2-0.5-1.3-1.5 1.1-1.5q0.1 0 0.2 0zm1.4 0.4c0 0-0.4 0-0.7 0-0.3 0-0.6 0.1-0.5 0.3 0.1 0.2 0.4 0.3 0.6 0.3 0.7 0 1.5-0.4 0.6-0.6z"/>
	<path id="Layer" class="s24" d="m52 92.2q0 0 0 0c-0.5 0.4-0.9 0.8-0.7 0.8 2.7 0.2 4.2 2.7 4.2 2.7 0.4-2 4.9-2.1 5.3-2.1q0.1 0 0.1 0c0 0 0.1-0.1 0.1-0.3q-0.2-0.2-0.6-0.3 0 0.2-0.3 0.2c-0.3 0-0.6-0.1-0.9-0.2-0.5 0-0.8 0.1-0.8 0.1-1.2-0.4-2.2 0.2-4.8-0.7q-0.7-0.2-1.6-0.2z"/>
	<path id="Layer" class="s24" d="m61.3 95.1c-1.5 0-3.1 0.3-3.8 1.3 0 0-0.6 0.4 0.6 1.4 1.2 1 2 1.2 2 2.4 0 0 1-2.3 4.8-2.3q1 0 2.2 0.2 0.1-0.2 0.4-0.5c-0.9 0-1.7-0.3-1.7-1 0-0.4 0.2-0.6 0.6-0.7-0.1-0.2-0.6-0.5-1.2-0.7q-0.5 0.1-0.9 0.2 0 0 0 0c-0.1 0-0.5-0.1-1-0.1-0.6-0.1-1.3-0.2-2-0.2z"/>
	<path id="Layer" class="s24" d="m47.1 97.8q-0.1 0-0.3 0c-3 0.3-4.4 1.4-3.5 2.4 0.6 0.4 1.3 0.6 2.6 1.3 0.8 0.2 1.8 0.4 2.8 0.6 2 0.2 4.2 0 5.6 0.2q0.3 0.1 0.7 0.1 0.7 0 1.4-0.2c2-0.6 1.4-1.8 0.6-2.7 0 0-1.3-1-3.2-1q-0.7 0-1.4 0.2c0 0-0.3 2.5-0.9 2.5q0 0 0 0c-0.6 0-1.5-3.4-4.4-3.4z"/>
	<path id="Layer" class="s25" d="m49.6 94.7c-0.3 0-0.6 0.1-0.5 0.3 0.1 0.2 0.4 0.3 0.6 0.3 0.7 0 1.5-0.4 0.6-0.6 0 0-0.4 0-0.7 0z"/>
	<path id="Layer" class="s25" d="m59.8 92.9q-0.4 0-0.6 0.1c0.3 0.1 0.6 0.2 0.9 0.2q0.3 0 0.3-0.2-0.3-0.1-0.6-0.1z"/>
	<path id="Layer" class="s25" d="m66.4 95.9c-0.4 0.1-0.6 0.3-0.6 0.7 0 0.7 0.8 1 1.7 1 0.2-0.3 0.5-0.5 0.9-0.7-1-0.2-2.1-0.3-2-0.9q0 0 0-0.1z"/>
	<path id="Layer" fill-rule="evenodd" class="s26" d="m43.5 98.1c-0.9 0.6-1.1 1.5-1.1 1.5q0.5-1 1.1-1.5zm5.8-4.9q-0.3 0-0.5 0c0 0 4.3 1.4 4.5 2.5 0.3 1.1-2.7 0.6-3.5 1.6 0 0-0.2 0.2-0.5 0.2q-0.1 0-0.2 0c-0.2-0.1-1.3-0.7-2.6-0.7-0.9 0-1.9 0.3-3 1.3 0.6-0.5 1.5-0.8 2.8-0.8q0.8 0 1.8 0.2c0 0 3.2 1.3 3.5 3.3 0 0 0.4-2-0.7-2.4-0.5-0.1 0.5-0.5 2.1-0.5 1.6 0 3.7 0.4 5.1 1.6 0.6 0.6 1 0.8 1.2 0.8 0.6 0-0.8-2.4-2.8-2.9 0 0 0.9-2.1 3.4-2.5 1-0.1 0.8-0.3 0.1-0.3-1.1 0-3.5 0.5-4.4 2.1 0 0-2.1-3.5-6.3-3.5z"/>
	<path id="Layer" class="s22" d="m65.9 99c-4 0-5.2 2.2-5.5 2.5q0.4-0.1 0.8-0.1 0.1 0 0.2 0 0.1 0 0.1 0c-0.2-0.1-0.3-0.4 0-0.7 0.8-1.1 2.4-1.3 3.2-1.3 0.4 0 0.6 0.1 0.6 0.1 0.1 0 0.8 0.1 1.5 0.3q0.2-0.1 0.3-0.1-0.2-0.3-0.2-0.6-0.5-0.1-1-0.1z"/>
	<path id="Layer" class="s24" d="m64.7 99.4c-0.8 0-2.4 0.2-3.2 1.3-0.3 0.3-0.2 0.6 0 0.7q0.1 0 0.2 0c2.6 0 2.7-0.9 4.7-1.5q0.2-0.1 0.4-0.1c-0.7-0.2-1.4-0.3-1.5-0.3 0 0-0.2-0.1-0.6-0.1z"/>
	<path id="Layer" class="s26" d="m65.3 98.3q-0.8 0-1.6 0.1c-3.3 0.7-4.2 2.9-3.5 3.1q0.1 0 0.2 0c0.3-0.3 1.5-2.5 5.5-2.5q0.5 0 1 0.1-0.1-0.3 0.1-0.6-0.8-0.2-1.7-0.2z"/>
	<path id="Layer" class="s22" d="m42.3 96.3q-0.1 0-0.2 0.1-1.1 0.4-1.5 0.9 0.3 0.2 0.6 0.2c0.6 0 1.4-0.6 1.1-1.2z"/>
	<path id="Layer" class="s23" d="m42.4 96.2q0 0-0.1 0.1c0.3 0.6-0.5 1.2-1.1 1.2q-0.3 0-0.6-0.2 0 0.1-0.1 0.2 0.3 0.2 0.6 0.1c0.8 0 1.8-0.7 1.3-1.4z"/>
	<path id="Layer" class="s22" d="m68.6 97q0 0 0 0c-0.6 0.3-1.5 1.1-1.5 1.9 0 0.2 0.2 0.3 0.6 0.4q0.1 0.1 0.3 0.1c0.6-0.2 0.9-0.5 1.4-1.3q-0.3 0.1-0.4 0.2c-0.2 0.2-0.7 0.4-1.1 0.4-0.1 0-0.2-0.1-0.2-0.2q-0.1-0.2 0.2-0.5c0 0 0.5-0.6 1.2-0.8q-0.2-0.1-0.5-0.2z"/>
	<path id="Layer" class="s23" d="m68.4 96.9c-0.4 0.2-0.7 0.4-0.9 0.7q-0.2 0.3-0.4 0.5-0.1 0.2-0.1 0.4-0.2 0.3-0.1 0.6 0 0.3 0.2 0.6 0.1 0 0.1 0c-0.3-0.4-0.3-0.9 0-1.5h0.1c-0.2 0.3-0.3 0.5-0.2 0.7 0-0.8 0.9-1.6 1.5-1.9q0 0 0 0-0.1 0-0.2-0.1z"/>
	<path id="Layer" class="s27" d="m67.1 98.9q-0.1 0.3 0 0.6 0.1 0.1 0.2 0.1 0.4-0.1 0.7-0.2-0.2 0-0.3-0.1c-0.4-0.1-0.6-0.2-0.6-0.4z"/>
	<path id="Layer" class="s28" d="m67.2 98.2c-0.3 0.6-0.3 1.1 0 1.5q0 0 0.1-0.1-0.1 0-0.2-0.1-0.1-0.3 0-0.6c-0.1-0.2 0-0.4 0.2-0.7z"/>
	<path id="Layer" class="s29" d="m69.1 97.2c-0.7 0.2-1.2 0.8-1.2 0.8q-0.3 0.3-0.2 0.5c0 0.1 0.1 0.2 0.2 0.2 0.4 0 0.9-0.2 1.1-0.4q0.1-0.1 0.4-0.1 0-0.1 0-0.2c0.3-0.4 0.1-0.6-0.3-0.8z"/>
	<path id="Layer" class="s30" d="m56.5 97.9c0 0 0.6-9.7 8-20.9 7.5-11.2 10.2-11.3 11.1-18.2 0.9-6.9-1.9 34.2-19.1 39.1z"/>
	<path id="Layer" class="s31" d="m75.5 59.5c-1 6.2-3.8 6.7-11 17.4-5.5 8.3-7.2 15.7-7.8 19 0.6-3.3 2.4-10.7 7.8-18.9 7.2-10.8 10-11.2 11-17.5zm0.3-1.6q-0.1 0-0.1 0.4 0-0.3 0.1-0.3c0 0.1-0.2 2.4-0.7 5.9 0.5-3.6 0.7-6 0.7-6z"/>
	<path id="Layer" fill-rule="evenodd" class="s32" d="m75.1 63.9c-1.7 10.1-6.7 30-18.1 33.7 0.7-1.6 3.8-8 8.3-13.9 5.3-6.9 7.9-15.5 7.7-15.6-0.2 0-3 8.4-8.2 15.2-4.2 5.4-7.1 11.3-8.2 13.5q0.1-0.4 0.1-0.9c0.6-3.3 2.4-10.7 7.8-18.9 7.2-10.8 10-11.2 11-17.5q0.1-0.4 0.1-0.8 0.1-0.2 0.1-0.4 0-0.3 0.1-0.3c0 0.1-0.2 2.4-0.7 5.9zm-10.4 17.5c3.8-6.1 5.5-8.9 7-11.9 0.9-1.8 1.7-2.9 2.1-2.9 0.2 0.1 0.2 0.7-0.2 2.2-0.9 3.5-3.8 10.3-6.7 14.1-2.9 3.8-7.9 11-7.9 12.1v0.1c0.7 0.1 9.4-9.4 11.1-14.7 1.8-5.4 5.3-15.8 4.3-16h-0.1c-1.1 0.2-11.1 15.5-12.4 18.3-1.2 2.7-3.6 8.4-3.7 8.9 0.1 0 2.8-4.3 6.5-10.2z"/>
	<path id="Layer" class="s33" d="m56.9 97.8h-0.2q0 0.3-0.1 0.4 0.1 0 0.2-0.2 0 0 0.1-0.2zm-0.3-1q-0.1 0.2-0.1 0.3v0.2q0.1-0.2 0.1-0.5z"/>
	<path id="Layer" class="s34" d="m57 97.6q-0.2 0.1-0.3 0.1v0.1h0.2zm-0.4-0.9q0 0.3 0 0.5 0-0.2 0-0.5z"/>
	<path id="Layer" class="s35" d="m73 68.1c-0.2 0-3 8.4-8.2 15.2-4.2 5.4-7.1 11.3-8.2 13.5q0 0.3-0.1 0.5 0.2 0.2 0.2 0.4 0.1 0 0.3-0.1c0.7-1.6 3.8-8 8.3-13.9 5.3-6.9 7.9-15.5 7.7-15.6z"/>
	<path id="Layer" class="s36" d="m71.4 40.9c0 0-1.3 6-5.3 12.9-4.1 6.8-16.5 29.4-11.4 43.3 0 0 1.1 0.6 1.3-0.1 0.1-0.6-3.5-16.6 6.6-35.4 10.2-18.8 9.9-19.7 10.9-19.8 1.1-0.2-2.1-0.9-2.1-0.9z"/>
	<path id="Layer" class="s37" d="m73.6 41.8h-0.1c-1 0.1-0.7 1-10.9 19.8-3.6 6.7-5.5 13.1-6.4 18.6 0.9-5.5 2.8-11.9 6.4-18.6 10.2-18.8 9.9-19.7 10.9-19.8h0.1z"/>
	<path id="Layer" class="s38" d="m73.3 41.7q-0.1 0-0.2 0h-0.1c-0.9 0.2-0.8 1.3-10.8 19.8-8.6 15.9-7.4 29.8-6.8 34.1q0.2 0.2 0.5 0.6c-0.3-2.1-1-8 0.3-16 0.9-5.5 2.8-11.9 6.4-18.6 10.2-18.8 9.9-19.7 10.9-19.8h0.1q-0.2-0.1-0.3-0.1z"/>
	<path id="Layer" class="s39" d="m70.7 40.6c0 0-7.1 0.3-6.1-5.8 1-6.1 4.2-9.4 3-12.2-1.1-2.7 4.4 4 3 9.7-1.4 5.7 1.2 6.8 0.1 8.3z"/>
	<path id="Layer" class="s40" d="m70.2 40.6q-0.4 0-1.1-0.1 0.7 0.1 1.1 0.1zm-1.5-17.3q0.1 0.3 0.3 0.6-0.2-0.3-0.3-0.6zm-1.2-1.3q-0.1 0.1 0.1 0.6-0.2-0.5-0.1-0.6z"/>
	<path id="Layer" class="s41" d="m67.6 22h-0.1q-0.1 0.1 0.1 0.6c0.3 0.7 0.3 1.4 0.2 2.1-0.4 2.4-2.4 5.4-3.2 10.1-0.7 4 2.2 5.3 4.2 5.7h0.2 0.1q0.7 0.1 1.1 0.1-0.2-0.3-0.3-0.6c-2.1-0.5-4.7-1.8-4.1-5.7 0.8-4.8 3-7.9 3.2-10.4q-0.2-0.3-0.4-0.6v-0.1c-0.4-0.7-0.8-1.2-1-1.2z"/>
	<path id="Layer" class="s39" d="m74.2 33c0 0 1.5-4.8 2.9-6.5 1.4-1.8 2.4-5.1 2.8-4.4 0.5 0.8 2.1 8.3 0 12.3-2.1 4.1-8.6 10.6-5.7-1.4z"/>
	<path id="Layer" class="s40" d="m80.9 30.1q0 0.8-0.1 1.5 0.1-0.7 0.1-1.5zm-3.3-4.4q-0.2 0.4-0.5 0.7 0.3-0.3 0.5-0.7z"/>
	<path id="Layer" class="s41" d="m75.5 36.8q-0.2 1-0.6 1.9 0.5-0.3 1-0.6c-0.2-0.1-0.4-0.5-0.4-1.3zm5-12.7c0 2.6-0.3 6-1.1 8.4q-0.3 0.7-0.6 1.4c0.6-0.8 1.3-1.6 2-2.3q0.1-0.7 0.1-1.5v-0.1c0.1-2.2-0.1-4.4-0.4-5.9zm-1.1-1.8c-0.4 0.7-1 2.1-1.7 3.3h-0.1v0.1q-0.2 0.4-0.5 0.7v0.1c-0.3 0.4-0.7 0.9-1 1.5 0.1 1.2 0.2 2.4 0.2 3.7v-0.2c0 0 1.2-4.7 2.1-6.5 0.4-0.8 0.7-1.8 1-2.7z"/>
	<path id="Layer" class="s42" d="m70.9 40.2c0 0 4.8 4.4 9.7 0.2 4.8-4.3 3.2-11.7 5.4-13.1 0 0-6.3 4.1-8.2 8.4-2 4.2-6.8 3.6-6.9 4.5z"/>
	<path id="Layer" class="s43" d="m85.9 27.3c-0.1 0.1-0.7 0.5-1.4 1.1-0.7 2.9-0.8 7.6-4.3 10.7-2 1.7-4 2-5.6 1.7q-0.4 0-0.8-0.1v0.1h-0.1l-0.1 0.2-0.1 0.1v0.1l-0.1 0.1v0.1h-0.1v0.1h-0.1v0.1q0.7 0.4 1.7 0.5c1.7 0.3 3.7 0 5.7-1.7 2.7-2.4 3.4-5.8 3.8-8.5q0.1-0.5 0.2-0.9c0.2-1.7 0.5-3.1 1.3-3.7z"/>
	<path id="Layer" class="s42" d="m73.1 41.7c0 0-4 0.9-3.6-4.7 0.4-5.7 5.6-8.7 5.4-12.9-0.2-4.2 4.2 10.3-1.8 17.6z"/>
	<path id="Layer" class="s44" d="m72.9 29.2c-0.9 1.3-1.8 2.7-2.5 4.3 0.7-1.6 1.6-3 2.5-4.3z"/>
	<path id="Layer" class="s45" d="m69.5 37q0 0.2 0 0.4 0-0.2 0-0.4zm0.9-3.5c-0.4 0.9-0.7 1.9-0.8 3 0.1-1.1 0.4-2.1 0.8-3z"/>
	<path id="Layer" class="s46" d="m73 41.7c-0.1 0-0.5 0.1-1 0 0.5 0.1 0.9 0 1 0z"/>
	<path id="Layer" class="s47" d="m73.1 41.7h-0.1z"/>
	<path id="Layer" class="s43" d="m76.2 29c-0.1 3.6-0.8 7.8-2.8 10.9 0 0-0.4 0.1-0.9 0-0.8-0.1-1.9-1-1.6-4.5 0.2-2.4 1.1-4.4 2-6.2-0.9 1.3-1.8 2.7-2.5 4.3-0.4 0.9-0.7 1.9-0.8 3v0.1h-0.1v0.1 0.1 0.1 0.1q0 0.2 0 0.4c-0.1 3.2 1.3 4.1 2.4 4.3h0.1c0.5 0.1 0.9 0 1 0h0.1l0.1-0.1v-0.1h0.1v-0.1h0.1v-0.1l0.1-0.1v-0.1l0.1-0.1 0.1-0.2h0.1v-0.1h0.1v-0.1l0.1-0.1v-0.1l0.1-0.1c2-3.4 2.3-7.9 2.1-11.3z"/>
	<path id="Layer" class="s36" d="m46.6 47.6c0 0 0.7 4-2.9 13.2-3.5 9.1-5.5 27.9 12.8 37v-0.5c0 0-19.2-10-13.1-32 5.1-18.1 5.1-17.8 4.9-17.5-0.1 0-0.1 0.1-0.1-0.1-0.2-0.6-1.3-1.1-1.6-0.1z"/>
	<path id="Layer" class="s37" d="m45.2 58.9q0 0.2-0.1 0.4 0.1-0.2 0.1-0.4zm0.6-1.9q-0.1 0.1-0.1 0.3 0-0.2 0.1-0.3zm0.1-0.4q-0.1 0.2-0.1 0.3 0-0.1 0.1-0.3zm0.3-1.2q0 0.2-0.1 0.3 0.1-0.1 0.1-0.3z"/>
	<path id="Layer" class="s38" d="m48 49h-0.1v0.1h-0.1-0.1v0.1h-0.1-0.1c-0.6 2-1.8 6.5-4.5 16.1-2.2 7.9-1.1 14.2 1.2 19.2q0.3 0.1 0.4 0.2 0.2 0.3 0.4 0.6c-2.1-4.1-3.4-9.4-2.5-15.7v-0.1q0.1-0.2 0.1-0.4v-0.1-0.1l0.1-0.1v-0.1-0.1-0.1-0.1-0.1h0.1v-0.1-0.1-0.1-0.1-0.1h0.1v-0.1-0.1-0.1-0.1l0.1-0.2v-0.1-0.1-0.1l0.1-0.1v-0.1-0.1-0.1l0.1-0.1v-0.1-0.1-0.1l0.1-0.1v-0.1-0.1-0.1h0.1v-0.1-0.1-0.2q0.3-0.7 0.5-1.4v-0.2-0.1l0.1-0.1v-0.1q0.5-1.7 0.9-3.2v-0.1l0.1-0.2q0-0.3 0.1-0.6 0.1-0.2 0.1-0.4 0.2-0.5 0.3-1l0.1-0.2v-0.1-0.1l0.1-0.2q0-0.2 0.1-0.3v-0.1q0-0.1 0.1-0.3v-0.1q0.1-0.4 0.2-0.8 0.1-0.1 0.1-0.3v-0.1h0.1c0.9-3.3 1.4-5.2 1.7-6.3z"/>
	<path id="Layer" class="s39" d="m49.3 43.8c0 0 1.2-0.6 1.6-3.8 0.4-3.2 0.7-3.8 1.8-4.9 1.1-1.2-0.2 0.7 0.4 2.8 0.7 2.2 1.3 9.2-4.1 9.3-5.4 0.1 0.3-3.4 0.3-3.4z"/>
	<path id="Layer" class="s40" d="m53 37.5q0.1 0.2 0.1 0.4 0-0.2-0.1-0.4z"/>
	<path id="Layer" class="s41" d="m53.1 34.7l-0.1 0.1q-0.1 0.1-0.3 0.3l-0.2 0.2c-0.1 0.6-0.2 1.5 0.1 2.5 0.6 2 1.2 8.4-3.2 9.2l-0.1 0.2c2.7-0.2 3.8-2.1 4.1-4.3 0.3-1.9 0-4-0.3-5q0-0.2-0.1-0.4v-0.2q0-0.3 0-0.6l-0.1-0.1c0.1-1.1 0.4-1.8 0.2-1.9z"/>
	<path id="Layer" class="s42" d="m40.6 40.8c0 0-3.8-2.1-5.3-1.8-1.5 0.3 1.4-0.2 1.9 4 0.5 4.2 6.3 6.5 6.6 3.6 0.2-3-3.2-5.8-3.2-5.8z"/>
	<path id="Layer" class="s44" d="m37.2 43c0.2 1.5 1 2.8 2.1 3.6-1.1-0.8-1.9-2.1-2.1-3.6z"/>
	<path id="Layer" class="s43" d="m36.2 39q-0.5-0.1-0.8 0h-0.1c-0.3 0-0.4 0.1-0.4 0.1-0.1 0.2 1.9 0.5 2.3 3.9 0.2 1.5 1 2.8 2.1 3.6v0.1c0.8 0.6 1.7 1 2.4 1.2q0.7 0.1 1.2-0.1-0.7-0.4-1.3-1.1c-1.6-0.7-3.3-2.4-3.6-4.6-0.2-1.5-0.7-2.4-1.1-2.9q-0.4-0.1-0.7-0.2z"/>
	<path id="Layer" class="s39" d="m45.2 40.9c0 0-1.5-2.6-3.1-3.4-1.5-0.7-2.8-2.8-2.7-1.3 0.2 1.5 1 3.7 0.5 6-0.5 2.3 2.5 6.7 5.1 5.9 2.6-0.8 0.2-7.2 0.2-7.2z"/>
	<path id="Layer" class="s40" d="m39.4 36q0 0.1 0.1 0.2-0.1-0.1-0.1-0.2z"/>
	<path id="Layer" class="s41" d="m44.1 39.3c0.1 0.3 0.3 1 0.4 2q0.2-0.5 0.4-0.9c-0.2-0.3-0.5-0.7-0.8-1.1zm-4.5-3.6q-0.2-0.1-0.2 0.3 0 0.1 0.1 0.2c0.1 1.4 0.8 3.5 0.5 5.7q-0.1 0.2-0.1 0.3v0.1c-0.4 2 1.8 5.5 4 5.9q0.4 0 0.8 0c-0.5-0.7-0.8-1.5-0.9-2.4q-0.4 0.2-0.8 0.1c-1.7-0.3-3.2-3.5-2.9-5.3 0.4-1.7 0.1-3.4-0.1-4.7q-0.3-0.2-0.4-0.2z"/>
	<path id="Layer" class="s42" d="m47.2 32.3c0 0 0.1 2.4 1.5 6.2 1.4 3.8 1.7 10.3-1.5 10.8-3.2 0.4-4.3-4.2-2.9-7.6 1.5-3.3 3.2-8.4 2.9-9.4z"/>
	<path id="Layer" class="s44" d="m47.3 32.8q0 0.4 0.2 1.3-0.2-0.9-0.2-1.3zm0-0.1c-0.1 1.2-1.1 4.3-2.2 7.1 1.1-2.7 2.1-5.8 2.2-7v-0.1z"/>
	<path id="Layer" class="s45" d="m44.4 41.7h-0.1v0.1-0.1z"/>
	<path id="Layer" class="s44" d="m46.6 49.3q-0.1 0-0.2 0 0.1 0 0.2 0z"/>
	<path id="Layer" class="s46" d="m47.2 49.3q-0.3 0-0.6 0 0.3 0 0.6 0z"/>
	<path id="Layer" class="s43" d="m47.3 32.8c-0.1 1.2-1.1 4.3-2.2 7v0.1q-0.4 0.9-0.7 1.8h-0.1v0.1c-1.2 3-0.5 7 2 7.5h0.1q0.1 0 0.2 0 0.3 0 0.6 0h0.1v-0.1h0.1 0.1 0.1 0.1v-0.1h0.1 0.1v-0.1h0.1q0.6-0.3 0.9-0.9l0.1-0.1v-0.1l0.1-0.1c1-2.1 0.6-6-0.3-8.9 0.7 3.5 0.5 8.3-1.6 8.8q-0.3 0.1-0.6 0c-1.9-0.3-2.3-4-1.3-6.8 0.8-2.1 1.7-4.9 2.2-6.8q-0.2-0.9-0.2-1.3z"/>
	<path id="Layer" class="s48" d="m51.1 94.5c0 0-6.6-6.5-2.6-20.7 4.1-14.2 4.6-12.9 4.5-17.6-0.1-4.8 3.4 14.4 0.6 23.9-2.8 9.5 0.9 16 1.8 16.7 0.9 0.7-3.8-2.1-4.3-2.3z"/>
	<path id="Layer" class="s49" d="m53.1 55.4q-0.1 0-0.1 0.7 0-0.7 0.1-0.7c0.4 0.1 2.2 11.2 1.4 19.9 0.8-8.7-1-19.8-1.4-19.9z"/>
	<path id="Layer" fill-rule="evenodd" class="s50" d="m54.5 75.3v0.1q0 0.2-0.1 0.3 0 0.2 0 0.3v0.1q-0.2 1.9-0.6 3.5-0.1 0.3-0.2 0.5-0.5 1.7-0.7 3.2c-0.8 4.8 0.1 8.6 1 10.9q0.2 0.4 0.3 0.8l-0.1-0.1c-1.4-2-5.9-9.1-3.1-16.3 2.7-7 2.4-14.1 2.2-14.1-0.1 0-0.2 7-2.9 13.9-2.7 6.9 1.2 13.8 2.9 16.4-0.9-0.3-2.1-1-4.4-4-1.2-2.8-2.2-7.1-1.2-13.1q0.3-1.8 0.9-3.9c2.9-10.2 4-12.4 4.4-14.6 0.1-0.8 0.1-1.7 0.1-3v-0.1q0-0.7 0.1-0.7c0.4 0.1 2.2 11.2 1.4 19.9zm-5.3 5c1.8-8.2 2.5-7.8 3.1-12.4 0.3-2.5 0.7-3.8 1-3.7 0.2 0 0.4 0.9 0.3 2.5-0.2 3.7-0.9 8.9-2 11.2-1 2.3-1.6 5.3-0.8 9.2 0.4 2 0.7 3 0.9 3q0.2 0.1 0-2.1c-0.1-3-0.1-4.6 0.9-7.9 1-3.3 1.8-10.4 1.3-14-0.4-2.9 0-5.6-0.4-5.7q-0.1 0-0.4 0.6c-1 2-5.9 16.7-5.1 23.7 0.9 7 3.3 8.8 4.2 9.2 0 0-4.8-5.4-3-13.6z"/>
	<path id="Layer" class="s51" d="m53.2 64.5c-0.1 0-0.2 7-2.9 13.9-2.7 6.9 1.2 13.8 2.9 16.4q0.2 0 0.4 0.1 0.1 0 0.3 0h0.2c-1.4-2-5.9-9.1-3.1-16.3 2.7-7 2.4-14.1 2.2-14.1z"/>
	<path id="Layer" class="s30" d="m44.6 84.7c0 0-12.4-7.6-19.4 1.7-7 9.2-5.7 11-9.3 11.4-3.6 0.4 4.5 3.2 12.4-3.8 7.9-7.1 9.1-4.5 13.9-1.5 4.7 2.9 17.1 8.9 14 4.2-1.1-1.6-1.6-1.7-2.3-1.8-1.3-0.1-3-0.4-9.3-10.2z"/>
	<path id="Layer" class="s31" d="m37.2 82c-3.9-0.6-8.6-0.1-12 4.4-7 9.2-5.7 11-9.3 11.4 3.6-0.4 2.3-2.2 9.3-11.4 3.4-4.5 8.1-5 12-4.4 2.6 0.4 4.8 1.4 6.1 2-1.3-0.6-3.5-1.6-6.1-2z"/>
	<path id="Layer" class="s52" d="m43.3 84q0.5 0.3 0.9 0.4-0.4-0.1-0.9-0.4z"/>
	<path id="Layer" class="s31" d="m45 85.3c1.5 2.4 2.8 4.2 3.8 5.5-1-1.3-2.3-3.1-3.8-5.5z"/>
	<path id="Layer" class="s53" d="m44.6 84.7q0.2 0.3 0.4 0.6-0.2-0.3-0.4-0.6z"/>
	<path id="Layer" class="s54" d="m48.8 90.8c2.3 3 3.5 3.7 4.4 4-0.9-0.3-2.1-1-4.4-4z"/>
	<path id="Layer" class="s31" d="m55.9 96.2v0.1z"/>
	<path id="Layer" class="s53" d="m55.4 95.6q0.2 0.2 0.5 0.6-0.3-0.4-0.5-0.6z"/>
	<path id="Layer" class="s54" d="m54.2 95l-0.1-0.1 0.1 0.1z"/>
	<path id="Layer" class="s31" d="m56.2 96.7q0.2 0.2 0.3 0.4-0.1-0.2-0.3-0.4zm-0.3-0.4q0.1 0.1 0.2 0.3-0.1-0.2-0.2-0.3z"/>
	<path id="Layer" class="s55" d="m53.2 94.8q0.2 0 0.4 0.1 0.1 0 0.3 0h0.2-0.2q-0.2 0-0.3 0-0.2-0.1-0.4-0.1z"/>
	<path id="Layer" fill-rule="evenodd" class="s32" d="m43.3 84q0.5 0.3 0.9 0.4 0.3 0.2 0.4 0.3 0.2 0.3 0.4 0.6c1.5 2.4 2.8 4.2 3.8 5.5 2.3 3 3.5 3.7 4.4 4q0.2 0 0.4 0.1 0.1 0 0.3 0h0.2l0.1 0.1c0.4 0 0.7 0.2 1.2 0.6q0.2 0.2 0.5 0.6v0.1q0.1 0.1 0.2 0.3h0.1v0.1q0.2 0.2 0.3 0.4v0.2q0.2 0.2 0.2 0.4v0.1q0 0.3-0.1 0.4-0.2 0.2-0.6 0.2-0.3 0.1-0.8 0c-3-0.5-9.8-3.9-13-5.9-2.3-1.4-3.7-2.7-5.4-3-2-0.3-4.3 0.7-8.5 4.5-5.1 4.5-10.2 5-12.3 4.6q-0.4 0-0.7-0.1c-0.5-0.3-0.4-0.6 0.6-0.7 3.6-0.4 2.3-2.2 9.3-11.4 3.4-4.5 8.1-5 12-4.4 2.6 0.4 4.8 1.4 6.1 2zm-18 11.5c3.2-2.3 7.4-7.2 11.6-6.5 0.8 0.1 1.6 0.5 2.4 1.1 2.9 2.2 11.3 6.7 14.5 7.2 0.8 0.1 1.3 0 1.2-0.6 0 0 0 0.5-1.1 0.3-1-0.1-3-0.9-7-3.5-5.7-3.7-5.9-7.2-8.1-7.6-0.9-0.2-2.1 0.2-4 1.2-6.9 3.5-9.5 7.9-11.1 7.7-1.7-0.3 0.8-2.9 4-6.2 2.5-2.5 6.6-5 10.1-4.4 1.1 0.2 2.2 0.7 3.1 1.6 3.6 3.3 8.5 7.1 9.1 7.2q0.1 0 0-0.1c-0.4-0.9-5.7-6.7-7.3-8.1-0.7-0.6-2.7-1.4-5-1.8-3.3-0.5-7.4-0.2-10.1 2.7-4.5 4.9-7 11.1-8.9 11.7-0.6 0.1-0.6 0.3-0.3 0.3 0.8 0.2 4.2-0.2 6.9-2.2zm10.6-9.9q1.1-0.2 2.1 0 1.4 0.2 2.6 1.2l5.5 4.6c3.5 2.9 5.8 4.9 7.9 5.4 0.1 0 0.3-0.1 0.4-0.3 0-0.1-0.1-0.3-0.3-0.4-1.9-0.4-4.3-2.5-7.6-5.3l-5.5-4.5q-1.3-1.1-2.9-1.4-1.3-0.2-2.7 0.1c-5.4 1.2-11 8.7-10.9 8.8 0.2 0 6.3-7.3 11.4-8.2z"/>
	<path id="Layer" class="s56" d="m38.1 84.9q-1.3-0.2-2.7 0.1c-5.4 1.2-11 8.7-10.9 8.8 0.2 0 6.3-7.3 11.4-8.2q1.1-0.2 2.1 0 1.4 0.2 2.6 1.2l5.5 4.6c3.5 2.9 5.8 4.9 7.9 5.4 0.1 0 0.3-0.1 0.4-0.3 0-0.1-0.1-0.3-0.3-0.4-1.9-0.4-4.3-2.5-7.6-5.3l-5.5-4.5q-1.3-1.1-2.9-1.4z"/>
</svg>