<svg version="1.2" xmlns="http://www.w3.org/2000/svg" viewBox="0 0 100 135" width="100" height="135">
	<title>flower_in_a_pot_14-svg</title>
	<style>
		.s0 { fill: #aa6b28 } 
		.s1 { fill: #2e1010 } 
		.s2 { fill: #f9a84c } 
		.s3 { fill: #7c4317 } 
		.s4 { fill: #fab76a } 
		.s5 { fill: #de9342 } 
		.s6 { fill: #6f3b14 } 
		.s7 { fill: #f9a72b } 
		.s8 { fill: #c7883c } 
		.s9 { fill: #584521 } 
		.s10 { fill: #403215 } 
		.s11 { fill: #6c562b } 
		.s12 { fill: #775e30 } 
		.s13 { fill: #d09c5d } 
		.s14 { fill: #7c6232 } 
		.s15 { fill: #463618 } 
		.s16 { fill: #de9225 } 
		.s17 { fill: #54401d } 
		.s18 { fill: #3d2e12 } 
		.s19 { fill: #654e21 } 
		.s20 { fill: #fab64f } 
		.s21 { fill: #875723 } 
		.s22 { fill: #3c2c13 } 
		.s23 { fill: #2b200c } 
		.s24 { fill: #493719 } 
		.s25 { fill: #543f1c } 
		.s26 { fill: #2f230e } 
		.s27 { fill: #392911 } 
		.s28 { fill: #291d0a } 
		.s29 { fill: #453213 } 
		.s30 { fill: #62990d } 
		.s31 { fill: #537f05 } 
		.s32 { fill: #5c8e0a } 
		.s33 { fill: #77a517 } 
		.s34 { fill: #739d15 } 
		.s35 { fill: #4b7f06 } 
		.s36 { fill: #426f05 } 
		.s37 { fill: #000000 } 
		.s38 { fill: #2e340e } 
		.s39 { fill: #8cc63f } 
		.s40 { fill: #7eba20 } 
		.s41 { fill: #97c632 } 
		.s42 { fill: #76a417 } 
		.s43 { fill: #edf2ce } 
		.s44 { fill: #6c9811 } 
		.s45 { fill: #71a214 } 
		.s46 { fill: #5e8c0f } 
		.s47 { fill: #79a618 } 
		.s48 { fill: #82bc11 } 
		.s49 { fill: #72aa11 } 
		.s50 { fill: #629608 } 
		.s51 { fill: #b9dc8a } 
		.s52 { fill: #699d0e } 
		.s53 { fill: #6ba00f } 
		.s54 { fill: #ebf1cb } 
		.s55 { fill: #8fbf1a } 
		.s56 { fill: #5b8c0a } 
		.s57 { fill: #639306 } 
		.s58 { fill: #5f8611 } 
		.s59 { fill: #87ae1f } 
		.s60 { fill: #669212 } 
		.s61 { fill: #63910e } 
		.s62 { fill: #578408 } 
		.s63 { fill: #a9c77a } 
		.s64 { fill: #69a10f } 
		.s65 { fill: #588d0a } 
		.s66 { fill: #6b9e12 } 
		.s67 { fill: #467205 } 
		.s68 { fill: #f2e4a9 } 
		.s69 { fill: #60940c } 
		.s70 { fill: #497b05 } 
		.s71 { fill: #598709 } 
		.s72 { fill: #f9f6df } 
		.s73 { fill: #6fa40f } 
		.s74 { fill: #618e05 } 
	</style>
	<path id="Layer" class="s0" d="m63.9 106.3l-3.2 23.2c0 3.1-6.9 5.5-15.4 5.4-8.6-0.1-15.4-2.8-15.4-5.9l-3.6-24.7z"/>
	<path id="Layer" class="s1" d="m63.9 106.3h-0.1l-3.1 23.2c-0.1 1.4-1.7 2.8-4.4 3.7-2.6 1-6.3 1.6-10.4 1.6q-0.3 0-0.6 0c-4.3-0.1-8.1-0.7-10.9-1.8-2.7-1.1-4.4-2.5-4.4-4l-3.6-24.6 37.5 2v-0.1-0.1l-37.6-2h-0.1v0.1l3.6 24.7h0.1-0.1c0 1.7 1.8 3.1 4.6 4.2 2.8 1 6.6 1.7 10.9 1.8q0.3 0 0.6 0c4.1 0 7.8-0.6 10.5-1.6 2.7-1 4.4-2.3 4.4-3.9h-0.1 0.1l3.2-23.2-0.1-0.1z"/>
	<path id="Layer" class="s2" d="m63.9 106.3l-3.2 23.2c0 3.1-6.9 5.5-15.4 5.4-8.6-0.1-15.4-2.8-15.4-5.9l-3.6-24.7z"/>
	<path id="Layer" class="s3" d="m63.9 106.3h-0.1l-3.1 23.2c-0.1 1.4-1.7 2.8-4.4 3.7-2.6 1-6.3 1.6-10.4 1.6q-0.3 0-0.6 0c-4.3-0.1-8.1-0.7-10.9-1.8-2.7-1.1-4.4-2.5-4.4-4l-3.6-24.6 37.5 2v-0.1-0.1l-37.6-2h-0.1v0.1l3.6 24.7h0.1-0.1c0 1.7 1.8 3.1 4.6 4.2 2.8 1 6.6 1.7 10.9 1.8q0.3 0 0.6 0c4.1 0 7.8-0.6 10.5-1.6 2.7-1 4.4-2.3 4.4-3.9h-0.1 0.1l3.2-23.2-0.1-0.1z"/>
	<path id="Layer" class="s4" d="m30.5 110.8l2.3 16.3c0 0 1 5.1 7.3 6.4q1.1 0.3 2.1 0.3c5.4 0 9.9-4.5 10.3-9.7 0.5-6.2 0.5-11.6 0.5-11.6 0 0-3.8 0.7-8.7 0.7-4.4 0-9.6-0.5-13.8-2.4z"/>
	<path id="Layer" class="s5" d="m63.6 107.9c-1.1 0.9-2.6 1.7-4.5 2.5-1.5 0.5-3.3 1-5.3 1.4q0.8 0.1 2 0.1c1 0 2.3-0.1 3.8-0.3 0 0 0.1-0.1 0.2-0.1 0.2 0 0.6 0.2 0.6 1.6 0 2.2-2.1 15.7-2.1 15.7 0 0-0.4 3.4-5.3 4.7-1.6 0.5-4.2 0.8-7.2 0.8-5.8 0-12.8-1.3-15.9-6l0.1 0.7c0 1.5 1.7 2.9 4.5 4 2.7 1.1 6.5 1.7 10.8 1.8q0.3 0 0.6 0c4.1 0 7.8-0.6 10.5-1.6 2.6-0.9 4.2-2.3 4.3-3.7z"/>
	<path id="Layer" class="s6" d="m63.7 107.8q-0.1 0-0.1 0.1l-2.9 21.6c-0.1 1.4-1.7 2.8-4.3 3.7-2.7 1-6.4 1.6-10.5 1.6q-0.3 0-0.6 0c-4.3-0.1-8.1-0.7-10.8-1.8-2.8-1.1-4.5-2.5-4.5-4l-0.1-0.7q0-0.1-0.1-0.2l0.1 0.9c0 3.1 6.8 5.8 15.4 5.9q0.3 0 0.6 0c8.2 0 14.8-2.4 14.8-5.4z"/>
	<path id="Layer" class="s7" d="m25.4 99.9l3.6 0.2c3.6-2 9.6-3.4 16.4-3.4 7.5 0 14 1.7 17.4 4.1 1.4-0.4 2.8-0.9 2.8-0.9l-0.4 5.1c-0.5 4.1-9.2 7.4-19.8 7.4-10.8 0-19.6-3.4-19.9-7.6h-0.1v-4.7 0.1z"/>
	<path id="Layer" class="s3" d="m25.4 99.9v0.1l3.6 0.2h0.1c3.6-2 9.5-3.4 16.3-3.4 7.5 0 14 1.7 17.4 4.1 1.4-0.4 2.9-0.9 2.9-0.9l-0.1-0.1-0.5 5.1h0.1v-0.1l-0.1 0.1c-0.2 2-2.5 3.8-6 5.2-3.6 1.3-8.4 2.1-13.7 2.1-5.4 0-10.3-0.8-13.9-2.2-3.6-1.3-5.8-3.2-5.9-5.3h-0.1v-0.1-4.6h-0.1l-0.1 0.1 0.1 0.1 0.1-0.1v-0.3h-0.1-0.1v0.3h0.1l0.1-0.1-0.1-0.1-0.1 0.1v4.7l0.1 0.1 0.1-0.1h-0.1c0.1 2.2 2.5 4.1 6 5.5 3.6 1.4 8.5 2.2 14 2.2 5.3 0 10.1-0.8 13.7-2.1 3.6-1.4 6-3.3 6.2-5.4h-0.1v0.1l0.1-0.1 0.4-5.1-0.1-0.1c0 0-1.4 0.5-2.8 0.9v0.1l0.1-0.1c-3.4-2.4-10-4.1-17.5-4.1-6.8 0-12.8 1.4-16.4 3.4v0.1-0.1l-3.6-0.1h-0.1z"/>
	<path id="Layer" class="s2" d="m25.4 99.9c0 4.4 9 7.9 20.1 7.9 11.1 0 20.1-3.5 20.1-7.9 0-4.3-9-7.9-20.1-7.9-11.1 0-20.1 3.6-20.1 7.9z"/>
	<path id="Layer" class="s3" d="m25.4 99.9h-0.1c0 2.3 2.3 4.3 6 5.7 3.6 1.5 8.7 2.3 14.2 2.3 5.6 0 10.6-0.8 14.3-2.3 3.6-1.4 5.9-3.4 5.9-5.7 0-2.2-2.3-4.2-5.9-5.6-3.7-1.5-8.7-2.4-14.3-2.4-5.5 0-10.6 0.9-14.2 2.4-3.7 1.4-6 3.4-6 5.6h0.1 0.1c0-2.1 2.2-4 5.8-5.5 3.7-1.4 8.7-2.3 14.2-2.3 5.6 0 10.6 0.9 14.2 2.3 3.7 1.5 5.9 3.4 5.9 5.5 0 2.2-2.2 4.1-5.9 5.5-3.6 1.5-8.6 2.4-14.2 2.4-5.5 0-10.5-0.9-14.2-2.4-3.6-1.4-5.8-3.3-5.8-5.5z"/>
	<path id="Layer" class="s8" d="m26 99.8c0 3.9 8.7 7.1 19.5 7.1 10.7 0 19.4-3.2 19.4-7.1 0-3.9-8.7-7.1-19.4-7.1-10.8 0-19.5 3.2-19.5 7.1z"/>
	<path id="Layer" class="s3" d="m26 99.8h-0.1c0.1 2 2.3 3.8 5.8 5.1 3.5 1.3 8.4 2.1 13.8 2.1 5.4 0 10.2-0.8 13.8-2.1 3.5-1.3 5.7-3.1 5.7-5.1 0-2.1-2.2-3.8-5.7-5.1-3.6-1.3-8.4-2.1-13.8-2.1-5.4 0-10.3 0.8-13.8 2.1-3.5 1.3-5.7 3-5.8 5.1h0.1 0.1c0-1.9 2.2-3.7 5.7-5 3.5-1.3 8.3-2 13.7-2 5.3 0 10.2 0.7 13.7 2 3.5 1.3 5.6 3.1 5.6 5 0 1.9-2.1 3.7-5.6 5-3.5 1.2-8.4 2-13.7 2-5.4 0-10.2-0.8-13.7-2-3.5-1.3-5.7-3.1-5.7-5z"/>
	<path id="Layer" class="s9" d="m58 98.7c0 0 0.3-0.9-2.8-2-3.1-1.1-3.8 0.9-3.8 0.9 0 0 0.1-0.9-1.6-2-1.7-1-4.2 0.7-4.2 0.7-2.7-1.3-4.8 1.5-4.8 1.5-2.5-2.4-6.7 0-6.7 0-4.4-0.9-5.4 2.6-5.4 2.6-1.1-0.1-1.9 0.3-2.4 0.8 2.1 3.1 9.6 5.5 18.6 5.7 9.8 0.3 17.9-2.2 19.4-5.6-1.1-1.1-3.1-1.4-3.1-1.4-1-1.4-3.2-1.2-3.2-1.2z"/>
	<path id="Layer" class="s10" d="m58.1 98.8c0.3-1.1-2.3-1.9-2.9-2.1-1.2-0.5-3.1-0.7-3.8 0.6-0.1 0.2-0.1 0.2 0 0.2 0 0 0 0 0.1 0-0.1-0.3-0.2-0.5-0.4-0.8-0.5-0.7-1.4-1.2-2.2-1.4-0.8-0.2-1.6 0.1-2.3 0.4q-0.6 0.2-1 0.5c0.1-0.1-1.3-0.3-1.1-0.2-1-0.1-1.8 0.2-2.6 0.7-0.3 0.2-0.7 0.5-0.9 0.8-0.4 0.4-0.5-0.1-1-0.3-1.8-0.8-3.7-0.5-5.5 0.3-0.5 0.2-0.9 0.2-1.3 0.1q-0.4 0-0.9 0c-0.9 0.1-1.7 0.4-2.5 1-0.5 0.4-0.9 1-1.1 1.5-0.1 0.3-2.1 0.7-2.5 1v0.1c1.6 2.1 4.3 3.2 6.8 4 3.8 1.2 7.9 1.6 12 1.8 4.2 0.1 8.4-0.3 12.5-1.4 2.5-0.7 5.7-1.8 6.9-4.3-1.1-0.9-2.5-1-3.5-1.8-0.8-0.7-1.9-0.9-3-0.8-0.1 0 0.1 0.1 0.1 0.1 1.3-0.1 2.2 0.9 3.4 1.2 1.1 0.2 3.3 0.7 2.3 2.1-0.3 0.4-0.8 0.8-1.2 1.1-3.1 2.4-7.5 3-11.2 3.4-5.1 0.6-10.4 0.3-15.4-0.7-2.1-0.5-4.3-1.2-6.2-2.1q-1.2-0.6-2.2-1.4-0.4-0.3-0.8-0.7c-0.9-1 1.9-1.3 2-1.3h0.1c0.7-2.3 3.1-2.9 5.3-2.6 0.2 0.1 0.6-0.3 0.8-0.3 1.9-0.9 4.1-1.1 5.8 0.3l0.2 0.1q0.4-0.5 0.9-0.9c1.3-1.1 2-0.7 3.8-0.7 0.4 0 0.8-0.4 1.1-0.5 1.5-0.7 4.6-0.2 4.6 1.7l0.2 0.1c0.2-0.7 0.9-1 1.6-1.2-0.5 0.1 5.3 0.6 4.8 2.3z"/>
	<path id="Layer" class="s11" d="m34.3 98.5c0 0-3.5-0.6-4.1 1.2-0.7 1.8-2.9 0.8-1.5 2.4 1.4 1.6 3.7 1.7 4.7 0.8 1-0.8 1.3-2 3.3-1.9 2.1 0.2 0.8-1.4-0.4-1.4-1.2 0 1-1.5 2-1.6 1-0.1-2-1.2-4 0.5z"/>
	<path id="Layer" class="s11" d="m43 100.3c0 0-0.8-1-3.1-1-2.4-0.1-1.1 0.9-1.2 1.3-0.1 0.4 1.5 1.3 1.5 1.3 0 0 0.6-1.5 2.8-1.6z"/>
	<path id="Layer" class="s11" d="m42 98.1c-0.3 0 1.4-1.8 3.1-1.2 0.8 0.2 1.5 0 2.2-0.2 0.9-0.2 1.6-0.4 2.4 0.1 1.4 1.1 0.8 1.9 0.8 1.9 0 0-4.4 0-4.8 1.8 0 0-1.3-2.2-3.7-2.4z"/>
	<path id="Layer" class="s11" d="m53.5 100.3c-0.1 0-0.4-0.1-0.9-0.2-1.5-0.1-4.1-0.3-5.1 1 0 0-0.5 0.4 0.5 1.3 1 0.8 1.8 1 1.8 2.1 0 0 1.3-3 6.8-1.7 5.4 1.3 6-1 4.9-1.7-1.1-0.6-3.3 0.3-3.3 0.3 0 0-0.8-2.1-4.7-1.1z"/>
	<path id="Layer" class="s12" d="m56.6 98.5c0 0-1.1-1.4-2.8-1-1.6 0.3 3.3 2.5 2.8 1z"/>
	<path id="Layer" class="s11" d="m47 103.9c0 0-1.8-1.4-4.1-0.8 0 0-0.2 2.3-0.7 2.3-0.6-0.1-1.4-3.3-4.2-3.1-2.8 0.3-4.1 1.4-2.9 2.4 1.1 0.9 6.7 2.1 10 1.8 3.4-0.3 2.7-1.7 1.9-2.6z"/>
	<path id="Layer" class="s11" d="m54.4 103.8c0 0-2.3-0.3-3.4 1.1-1.1 1.4 3.8 1.1 5.5 0.3 1.7-0.8-1.9-1.4-2.1-1.4z"/>
	<path id="Layer" class="s13" d="m46.6 93.3c-8.7 0-15.2 2.3-15.2 2.3-1.2 0.7-0.1 1.7 1.7 1.7 0.7 0 1.6-0.2 2.5-0.7 0.7-0.4 1.4-0.5 2-0.5 0.6 0 1.1 0.1 1.6 0.2 0.5 0.2 0.9 0.3 1.3 0.3 0.3 0 0.6-0.1 0.8-0.4 0.5-0.7 1.4-0.8 2.3-0.8 0.9 0 1.7 0.2 1.7 0.2 0 0 0.2-0.8 2.8-0.8q0.2 0 0.4 0c2.9 0.1 3.3 1.4 3.3 1.4 0.2-0.8 2.3-0.8 2.6-1.6 0.3-0.8-0.9-0.8-0.9-0.8-2.4-0.4-4.7-0.5-6.9-0.5z"/>
	<path id="Layer" class="s14" d="m34.4 99.1c-0.1-0.1-1-0.7-2.8 0-1.7 0.6-0.7 1.5 0.6 1.3 1.3-0.2 2.4-0.8 2.2-1.3z"/>
	<path id="Layer" class="s14" d="m41.1 99.7c0 0-1.2-0.2-1 0.2 0.2 0.5 2.1 0 1-0.2z"/>
	<path id="Layer" class="s14" d="m50.1 98.1c0 0-0.5-1.4-2-1.2-1.5 0.2 1.9 2.1 2 1.2z"/>
	<path id="Layer" class="s14" d="m57.7 101.4c0 0-2.9-1.5-2.9-0.1 0 1.4 3.9 1.1 2.9 0.1z"/>
	<path id="Layer" class="s15" d="m50.1 105.6q-0.1 0-0.2 0 0 0 0.1 0 0 0 0 0 0.1 0 0.1 0z"/>
	<path id="Layer" class="s16" d="m64.9 102.9c-0.9 4.4-9.1 7.9-9.1 7.9 0 0 4.7-1.5 6.5-2.6 1.8-1.1 2.4-3.1 2.4-3.1z"/>
	<path id="Layer" class="s9" d="m33.2 99.7c0 0-1.2-1.2-2.6 0.1-1.4 1.3-0.7 2.5 0.8 2.4 1.4-0.2 3.3-1.4 1.8-2.5z"/>
	<path id="Layer" class="s10" d="m33.3 99.6c-0.5-0.4-1.2-0.6-1.9-0.4-0.9 0.3-2.2 1.7-1.4 2.6 0.6 0.7 2 0.4 2.7 0 0.5-0.2 0.9-0.5 1.1-1 0.2-0.4-0.1-0.9-0.5-1.2l-0.1 0.1c0.7 0.6 0.5 1.4-0.3 1.9-0.7 0.5-2.2 0.9-2.8 0-0.6-0.8 0.6-1.9 1.3-2.3 0.6-0.2 1.3 0 1.8 0.4z"/>
	<path id="Layer" class="s17" d="m33.5 100.1q0 0.2-0.1 0.4 0.1 0 0.2 0.1 0-0.2-0.1-0.5z"/>
	<path id="Layer" class="s18" d="m33.6 100q0 0-0.1 0.1 0.1 0.3 0.1 0.5 0.1 0 0.2 0 0-0.3-0.2-0.6z"/>
	<path id="Layer" class="s17" d="m29.9 101.1q0 0.2 0.2 0.5c0.2 0.4 0.6 0.5 1.1 0.5 0.4 0 0.8-0.1 1.1-0.2-0.1-0.2-0.1-0.5 0.1-0.8q-0.2 0.1-0.3 0.1c0 0-0.6 0.3-1.2 0.3q-0.2 0-0.4 0c-0.3-0.2-0.5-0.3-0.6-0.4z"/>
	<path id="Layer" class="s18" d="m30.1 100.4c-0.6 1 0 1.8 1 1.8q0.2 0 0.3 0 0.5-0.1 0.9-0.3 0 0 0 0c-0.3 0.1-0.7 0.3-1.1 0.3-0.5 0-0.9-0.2-1.1-0.6q-0.2-0.3-0.2-0.5 0-0.2 0.2-0.6z"/>
	<path id="Layer" class="s19" d="m32.1 99.5c-0.8 0-1.5 0.8-1.5 0.8q-0.1 0.3-0.1 0.4c0 0.1 0.1 0.2 0.2 0.2 0.3 0 0.8-0.2 1-0.3 0.2-0.2 1.2-0.5 1.2-0.8q0-0.1-0.4-0.2-0.2-0.1-0.4-0.1z"/>
	<path id="Layer" class="s9" d="m33.9 100.8c0 0-0.6-0.6-1.3 0.1-0.6 0.7-0.2 1.3 0.5 1.2 0.7 0 1.5-0.7 0.8-1.3z"/>
	<path id="Layer" class="s10" d="m34 100.8c-0.2-0.2-0.6-0.3-0.9-0.3-0.5 0.2-1.2 1-0.7 1.5 0.6 0.7 2.5-0.3 1.6-1.2h-0.2c0.9 0.8-0.9 1.8-1.3 1.1-0.3-0.4 0.2-0.9 0.4-1.2 0.3-0.2 0.7-0.1 0.9 0.1z"/>
	<path id="Layer" class="s9" d="m59.3 101.9c0 0-1.3-1.2-2.7 0.2-1.4 1.3-0.7 2.5 0.8 2.3 1.4-0.1 3.3-1.3 1.9-2.5z"/>
	<path id="Layer" class="s10" d="m59.3 101.9c-0.5-0.4-1.1-0.6-1.8-0.5-0.9 0.2-2.3 1.7-1.5 2.6 0.6 0.8 2 0.4 2.7 0.1 0.5-0.2 0.9-0.5 1.1-1 0.2-0.5-0.1-0.9-0.5-1.2 0 0-0.2 0-0.1 0 1.8 1.6-2.4 3.5-3.2 1.9-0.4-0.8 0.6-1.8 1.3-2.1 0.6-0.4 1.4-0.2 1.9 0.2 0 0 0.2 0.1 0.1 0z"/>
	<path id="Layer" class="s17" d="m58.4 103.4q-0.2 0-0.3 0c0 0-0.6 0.4-1.2 0.4q-0.1 0-0.1 0-0.3 0.1-0.7 0.2c0.3 0.3 0.6 0.4 1.1 0.4 0.4 0 0.8-0.1 1.1-0.2-0.2-0.3-0.1-0.6 0.1-0.8zm1.2-1q-0.1 0.1-0.2 0.4 0.1 0 0.2 0 0.1-0.2 0-0.4z"/>
	<path id="Layer" class="s18" d="m56.1 104q0 0 0 0c0.2 0.3 0.6 0.4 1 0.4q0.2 0 0.3 0 0.5 0 1-0.2-0.1 0-0.1 0c-0.3 0.1-0.7 0.2-1.1 0.2-0.4 0-0.8-0.1-1.1-0.4zm3.5-1.8q0 0 0 0.2 0.1 0.2 0 0.4 0.1 0.1 0.2 0.1 0-0.3-0.2-0.7z"/>
	<path id="Layer" class="s19" d="m58.1 101.7q-0.2 0-0.4 0.1c0.4 0.2 0.5 0.4 0.3 0.8q0 0 0 0.1c0.4-0.2 0.9-0.4 0.9-0.6q0-0.2-0.4-0.3-0.2-0.1-0.4-0.1z"/>
	<path id="Layer" class="s9" d="m59.9 103.1c0 0-0.6-0.7-1.3 0-0.6 0.8-0.2 1.4 0.5 1.3 0.7-0.1 1.6-0.7 0.8-1.3z"/>
	<path id="Layer" class="s10" d="m60 103c-0.2-0.2-0.6-0.3-0.9-0.2-0.5 0.1-1.2 0.9-0.7 1.4 0.6 0.7 2.6-0.3 1.6-1.2l-0.2 0.1c0.9 0.8-0.9 1.7-1.3 1-0.2-0.3 0.1-0.7 0.2-0.9 0.3-0.4 0.8-0.4 1.1-0.1z"/>
	<path id="Layer" class="s20" d="m26.3 103.2c0 0 0 2 0.2 2.5 0.2 0.5 0.8 1.2 0.8 1.2 5.1 3.9 13.1 4.7 18.7 4.7 3.6 0 6.3-0.3 6.5-0.4 0.8 0 0.5-3 0.5-3q-4.4 0.4-7.9 0.4c-15.3 0-18.8-5.4-18.8-5.4z"/>
	<path id="Layer" class="s21" d="m40.9 97.6q-0.2 0-0.3 0 0 0 0 0.1 0.1 0 0.1 0 0.1 0 0.2-0.1z"/>
	<path id="Layer" fill-rule="evenodd" class="s22" d="m42 98.1c2.4 0.2 3.7 2.4 3.7 2.4 0.4-1.8 4.4-1.8 4.7-1.8q0.1 0 0.1 0c0 0 0-0.1 0.1-0.3q0.1 0.1 0.2 0.3c0.2 0.6 2.2 1 3.5 1.4q-0.4 0.1-0.8 0.1c-0.1 0-0.4 0-0.9-0.1-0.5 0-1.1-0.1-1.8-0.1-1.3 0-2.7 0.2-3.3 1.1 0 0-0.5 0.4 0.5 1.3 1 0.8 1.8 1 1.8 2.1 0 0 0.9-2.1 4.2-2.1q0.9 0 2 0.2-0.1 0.2-0.2 0.3-0.6-0.1-1.5-0.1-0.6 0-1.4 0.1c-2.9 0.6-3.7 2.5-3 2.7-0.7 0.1-1.4 0.2-2.1 0.4q-0.7 0.1-1.3 0.3c1.8-0.6 1.2-1.7 0.5-2.4 0 0-1.1-0.9-2.8-0.9q-0.6 0-1.3 0.1c0 0-0.2 2.3-0.7 2.3q0 0 0 0c-0.5-0.1-1.3-3.1-3.9-3.1q-0.2 0-0.3 0c-2.6 0.3-3.9 1.3-3.1 2.2-0.4-0.2-0.8-0.4-1.4-0.8q-0.5-0.2-0.7-0.4 0.3-0.2 0.6-0.4c0.9-0.8 1.3-1.9 3-1.9q0.2 0 0.3 0 0.2 0 0.3 0c1.6 0 0.4-1.4-0.7-1.4-0.5 0-0.3-0.4 0.1-0.7 1.1-0.4 2.6-0.9 4.1-1.2q0.1 0.1 0.2 0.1l0.2 0.1q0.1-0.2 0.3-0.4 0.7-0.1 1.4-0.1c-0.5 0.4-0.8 0.7-0.6 0.7zm-1.4-0.4q0-0.1 0-0.1 0 0 0 0 0 0 0 0.1zm-0.6 4.4c-0.2-0.1-1.1-0.7-2.3-0.7-0.8 0-1.7 0.3-2.6 1.2-0.8 0.6-1 1.3-1 1.3q0.5-0.8 1-1.3c0.5-0.4 1.3-0.7 2.4-0.7q0.7 0 1.7 0.2c0 0 2.8 1.1 3.1 2.9 0 0 0.3-1.8-0.7-2.1-0.4-0.1 0.5-0.4 1.9-0.4 1.4 0 3.3 0.3 4.5 1.3 0.5 0.5 0.9 0.7 1 0.7 0.6 0-0.7-2-2.4-2.5 0 0 0.8-1.8 3-2.2 0.8-0.1 0.7-0.2 0.1-0.2-1 0-3.1 0.4-3.9 1.8 0 0-1.9-3.1-5.6-3.1q-0.2 0-0.5 0c0 0 3.9 1.2 4.1 2.2 0.2 0.9-2.4 0.5-3.1 1.4 0 0-0.3 0.2-0.5 0.2q-0.1 0-0.2 0zm0.2-0.2c0 0 0.6-1.5 2.8-1.6 0 0-0.8-1-3.1-1q-0.2 0-0.2 0c-2.1 0-0.9 0.9-1 1.3-0.1 0.4 1.5 1.3 1.5 1.3zm-0.5 4.2c-0.9 0-1.8-0.2-2.4-0.5q-0.1 0-0.1 0c0.7 0.2 1.6 0.4 2.5 0.5z"/>
	<path id="Layer" class="s23" d="m41.2 97.5q-0.2 0.1-0.3 0.1-0.1 0.1-0.2 0.1 0 0-0.1 0 0-0.1 0-0.1 0 0.1-0.1 0.1 0.1 0 0.2 0.1l0.2 0.1q0.1-0.2 0.3-0.4z"/>
	<path id="Layer" class="s24" d="m36.4 98.9q-0.5 0.2-0.9 0.3c-1.8 0.6 0 1-1.4 1.7 0.5 0.7-0.4 1.3-1.1 1.3q-0.3 0-0.5-0.1-0.5 0.6 0.3 1.2 0.3-0.2 0.6-0.4c0.9-0.8 1.3-1.9 3-1.9q0.2 0 0.3 0 0.2 0 0.3 0c1.6 0 0.4-1.4-0.7-1.4-0.5 0-0.3-0.4 0.1-0.7z"/>
	<path id="Layer" fill-rule="evenodd" class="s24" d="m39.9 99.3c2.3 0 3.1 1 3.1 1-2.2 0.1-2.8 1.6-2.8 1.6 0 0-1.6-0.9-1.5-1.3 0.1-0.4-1.1-1.3 1-1.3q0 0 0.2 0zm1.2 0.4c0 0-0.3-0.1-0.6-0.1-0.3 0-0.5 0.1-0.4 0.3 0 0.2 0.3 0.2 0.5 0.2 0.6 0 1.3-0.3 0.5-0.4z"/>
	<path id="Layer" class="s24" d="m42.6 97.4q0 0 0 0c-0.5 0.4-0.8 0.7-0.6 0.7 2.4 0.2 3.7 2.4 3.7 2.4 0.4-1.8 4.4-1.8 4.7-1.8q0.1 0 0.1 0c0 0 0-0.1 0.1-0.3q-0.2-0.2-0.5-0.3-0.1 0.2-0.3 0.2c-0.3 0-0.6-0.1-0.9-0.2-0.3 0.1-0.6 0.1-0.6 0.1-1.1-0.3-1.9 0.2-4.3-0.6q-0.6-0.2-1.4-0.2z"/>
	<path id="Layer" class="s24" d="m50.8 100c-1.3 0-2.7 0.2-3.3 1.1 0 0-0.5 0.4 0.5 1.3 1 0.8 1.8 1 1.8 2.1 0 0 0.9-2.1 4.2-2.1q0.9 0 2 0.2 0.1-0.2 0.3-0.4c-0.7 0-1.5-0.3-1.5-0.9 0-0.4 0.2-0.5 0.5-0.6 0-0.2-0.5-0.4-1-0.6q-0.4 0.1-0.8 0.1c-0.1 0-0.5 0-0.9-0.1-0.5 0-1.1-0.1-1.8-0.1z"/>
	<path id="Layer" class="s24" d="m38.3 102.3q-0.2 0-0.3 0c-2.6 0.3-3.9 1.3-3.1 2.2 0.6 0.3 1.1 0.5 2.3 1.1 0.7 0.2 1.6 0.4 2.5 0.5 1.8 0.2 3.7 0 4.9 0.2q0.3 0.1 0.7 0.1 0.6 0 1.2-0.1c1.8-0.6 1.2-1.7 0.5-2.4 0 0-1.1-0.9-2.8-0.9q-0.6 0-1.3 0.1c0 0-0.2 2.3-0.7 2.3q0 0 0 0c-0.5-0.1-1.3-3.1-3.9-3.1z"/>
	<path id="Layer" class="s25" d="m40.5 99.6c-0.3 0-0.5 0.1-0.4 0.3 0 0.2 0.3 0.2 0.5 0.2 0.6 0 1.3-0.3 0.5-0.4 0 0-0.3-0.1-0.6-0.1z"/>
	<path id="Layer" class="s25" d="m49.5 98.1q-0.3 0-0.6 0c0.3 0.1 0.6 0.2 0.9 0.2q0.2 0 0.3-0.2-0.3 0-0.6 0z"/>
	<path id="Layer" class="s25" d="m55.3 100.7c-0.3 0.1-0.5 0.2-0.5 0.6 0 0.6 0.8 0.9 1.5 0.9 0.2-0.2 0.5-0.5 0.8-0.6-0.9-0.2-1.9-0.3-1.8-0.8q0 0 0-0.1z"/>
	<path id="Layer" fill-rule="evenodd" class="s26" d="m35.1 102.6c-0.8 0.6-1 1.3-1 1.3q0.5-0.8 1-1.3zm5.1-4.3q-0.2 0-0.5 0c0 0 3.9 1.2 4.1 2.2 0.2 0.9-2.4 0.5-3.1 1.4 0 0-0.3 0.2-0.5 0.2q-0.1 0-0.2 0c-0.2-0.1-1.1-0.7-2.3-0.7-0.8 0-1.7 0.3-2.6 1.2 0.5-0.4 1.3-0.7 2.4-0.7q0.7 0 1.7 0.2c0 0 2.8 1.1 3.1 2.9 0 0 0.3-1.8-0.7-2.1-0.4-0.1 0.5-0.4 1.9-0.4 1.4 0 3.3 0.3 4.5 1.3 0.5 0.5 0.9 0.7 1 0.7 0.6 0-0.7-2-2.4-2.5 0 0 0.8-1.8 3-2.2 0.8-0.1 0.7-0.2 0.1-0.2-1 0-3.1 0.4-3.9 1.8 0 0-1.9-3.1-5.6-3.1z"/>
	<path id="Layer" class="s22" d="m54.9 103.4c-3.5 0-4.6 1.9-4.8 2.2q0.3-0.1 0.7-0.1 0.1 0 0.1 0.1 0.1 0 0.1 0c-0.2-0.2-0.2-0.4 0-0.7 0.7-1 2.1-1.1 2.9-1.1 0.3 0 0.5 0 0.5 0 0.1 0 0.7 0.1 1.3 0.3q0.2-0.1 0.3-0.1-0.2-0.2-0.2-0.5-0.5-0.1-0.9-0.1z"/>
	<path id="Layer" class="s24" d="m53.9 103.8c-0.8 0-2.2 0.1-2.9 1.1-0.2 0.3-0.2 0.5 0 0.7q0.1 0 0.2 0c2.3 0 2.4-0.9 4.1-1.4q0.2-0.1 0.4-0.1c-0.6-0.2-1.2-0.3-1.3-0.3 0 0-0.2 0-0.5 0z"/>
	<path id="Layer" class="s26" d="m54.3 102.8q-0.6 0-1.4 0.1c-2.9 0.6-3.7 2.5-3 2.7q0.1 0 0.2 0c0.2-0.3 1.3-2.1 4.8-2.1q0.4 0 0.9 0-0.1-0.3 0-0.6-0.6-0.1-1.5-0.1z"/>
	<path id="Layer" class="s22" d="m34 101q-0.1 0.1-0.2 0.1-0.9 0.4-1.3 0.8 0.2 0.2 0.5 0.2c0.6 0 1.3-0.5 1-1.1z"/>
	<path id="Layer" class="s23" d="m34.1 100.9q0 0.1-0.1 0.1c0.3 0.6-0.4 1.1-1 1.1q-0.3 0-0.5-0.2 0 0.1 0 0.2 0.2 0.1 0.5 0.1c0.7 0 1.6-0.6 1.1-1.3z"/>
	<path id="Layer" class="s22" d="m57.3 101.7q0 0 0 0c-0.5 0.3-1.3 0.9-1.4 1.6 0.1 0.2 0.3 0.3 0.6 0.4q0.1 0.1 0.3 0.1c0.5-0.2 0.8-0.4 1.2-1.1q-0.2 0-0.3 0.1c-0.2 0.1-0.7 0.3-1 0.3-0.1 0-0.2 0-0.2-0.2q0-0.1 0.1-0.3c0 0 0.5-0.6 1.1-0.8q-0.2-0.1-0.4-0.1z"/>
	<path id="Layer" class="s23" d="m57.1 101.6c-0.3 0.1-0.6 0.4-0.8 0.6q-0.2 0.2-0.3 0.4-0.1 0.2-0.2 0.3-0.1 0.3 0 0.6 0 0.3 0.2 0.5 0 0 0.1 0c-0.3-0.3-0.3-0.8 0-1.3q-0.2 0.4-0.2 0.6c0.1-0.7 0.9-1.3 1.4-1.6q0 0 0 0-0.1-0.1-0.2-0.1z"/>
	<path id="Layer" class="s27" d="m55.9 103.3q0 0.3 0.1 0.5 0.1 0.1 0.1 0.2 0.4-0.1 0.7-0.2-0.2 0-0.3-0.1c-0.3-0.1-0.5-0.2-0.6-0.4z"/>
	<path id="Layer" class="s28" d="m56.1 102.7c-0.3 0.5-0.3 1 0 1.3q0 0 0 0 0-0.1-0.1-0.2-0.1-0.2-0.1-0.5 0-0.2 0.2-0.6z"/>
	<path id="Layer" class="s29" d="m57.7 101.8c-0.6 0.2-1.1 0.8-1.1 0.8q-0.1 0.2-0.1 0.3c0 0.2 0.1 0.2 0.2 0.2 0.3 0 0.8-0.2 1-0.3q0.1 0 0.3-0.1 0-0.1 0-0.1c0.2-0.4 0.1-0.6-0.3-0.8z"/>
	<path id="Layer" class="s30" d="m52.4 85.4c0.1 0.1 0.4 0.1 0.6 0.2l0.2-2.1c0 0-1 1.5-0.8 1.9z"/>
	<path id="Layer" fill-rule="evenodd" class="s31" d="m53.1 85.7h-0.1c-0.2-0.1-0.5-0.1-0.7-0.3v-0.2c0-0.5 0.8-1.7 0.8-1.7h0.2zm-0.1-1.7q-0.1 0.1-0.2 0.3c-0.2 0.4-0.4 0.8-0.4 1v0.1h0.1c0 0.1 0.2 0.1 0.4 0.2z"/>
	<path id="Layer" class="s30" d="m53.5 79.7c0 0.3 0.8 1 0.4 2.5 0.2-0.5 0.4-0.8 0.4-0.8v-2.4c0 0-0.8 0.4-0.8 0.7z"/>
	<path id="Layer" fill-rule="evenodd" class="s31" d="m54 82.2l-0.2-0.1q0.2-0.5 0.1-0.9c0-0.8-0.4-1.2-0.5-1.5 0-0.2 0.3-0.3 0.5-0.5 0.2-0.1 0.4-0.2 0.4-0.2l0.1-0.1v2.5h-0.1c0 0-0.1 0.4-0.3 0.8zm0.2-0.8v-2.2q-0.1 0.1-0.2 0.1c-0.2 0.2-0.4 0.3-0.4 0.4 0 0.1 0.5 0.7 0.5 1.5v0.2z"/>
	<path id="Layer" class="s30" d="m63.5 28.1c-2-0.2-7.8 6.8-9.6 11.6-1.8 4.8-2.9 4.9-3.8 5.6-1 0.7 0 0-0.6 1.9-0.5 2-0.5 1.4-1.3 4.1-0.9 2.7-0.9 2.5-2 3.2-1 0.6-0.6 3.8-0.8 4.8-0.1 1-0.9 2.3-2.1 3.6-1.2 1.3-1.1 1.5-0.4 4.3 0.7 2.7 1.1 0-0.8 9.2-2 9.1 0.5 20.2 0.5 20.2 0 0-0.1 2.2 0.7 1.2 0.9-1 0.8-2 2.4-2.6 1.6-0.6 0.1-1.1 2.2-2.2 2.1-1.1 2.8-3.2 3.6-4.3 0.7-1.1 1.5-3.1 1.5-3.1-0.2-0.1-0.5-0.1-0.6-0.2-0.2-0.4 0.8-1.9 0.8-1.9 0.2-0.2 0.5-0.8 0.7-1.3 0.4-1.5-0.4-2.2-0.4-2.5 0-0.3 0.8-0.7 0.8-0.7 1.1-0.6 2.2-2.1 2.2-2.1 1.5-3.7 3.6-3.6 5.9-7.3 2.2-3.8 3.8-10.9 3.2-13.3-0.7-2.3 0.8-2.5 1.4-6 0.7-3.4-1-2.5-0.2-5.7 0.9-3.2 2.1-11.6 0.4-14.5-1.3-2.2-1.5-2.1-2.5-2-0.3 0-0.7 0-1.2 0z"/>
	<path id="Layer" class="s32" d="m45.1 91.2q0.1 0.1 0.2 0.4 0.3 0.7 0.5 1.2 0.1 0.3 0.2 0.6c-0.3 0.6-0.6 1.4-0.9 2.1l-0.2 0.2q0-0.2 0-0.4c0.3-0.3 0.4-0.9 0.3-2.6-0.2-1-0.2-1.5-0.1-1.5zm14.2-51.5c-1.1 2.6 0.5 2.4-0.9 2.8-1.3 0.4-0.1 1 2.3 2 1.5 0.8 0.6 0.8-0.9 0.8q-0.2 0-0.5 0-0.3 0-0.6 0-0.6 0-1.2 0c-2.4 0.1-1.5 1.8-0.4 2.4 0.7 0.5 1.6 1.2 1.1 1.2-0.2 0-0.8-0.1-1.8-0.5q-0.9-0.4-1-0.4c-0.6 0 3 2.1 5.9 4.1 0.9 0.6 1.2 0.8 1 0.8-0.6 0-5-2-7.6-2.3q-0.2 0-0.4 0c-1.1 0-0.4 0.9 0.5 1.8 0.9 0.9 1.9 1.7 1.4 1.7-0.1 0-0.5-0.1-1.3-0.4q-1.1-0.5-1.6-0.5c-1.4 0 2.4 3.6 5.6 6.5 1.3 1.2 1.8 1.6 1.6 1.6-0.3 0-2.8-1.6-5.5-3.4-1.1-0.6-1.7-0.9-1.9-0.9-0.8 0 1.6 2.7 3.5 5.2 0.7 1.1 1 1.5 0.9 1.5-0.1 0-2-2-4.3-3.8-1.1-1-1.8-1.3-2.1-1.3-0.8 0-0.3 1.3 0.3 2.5 0.7 1.2 0.8 1.8 0.6 1.8q-0.1 0-0.5-0.7c-0.4-0.6-1.4-1.7-1.7-1.7-0.3 0 0 1.1 2.2 4.7 1.4 2.3 1.8 3.2 1.6 3.2-0.3 0-3.3-4-4-4.8q-0.4-0.3-0.5-0.3c-0.3 0 0.5 2 2.1 6 0.9 2.3 1.2 3.2 1 3.2-0.1 0-1-1.5-2.4-3.6-0.6-0.8-0.9-1.2-1.1-1.2-0.6 0 0.8 4.4 2.6 8.7 0.7 1.8 0.9 2.5 0.8 2.5-0.4 0-2.4-3-4.4-4.5q-0.3-0.2-0.5-0.2c-0.8 0-0.2 2.9 0.5 5.9 0.8 2.9 1.6 5.8 1.3 5.8-0.1 0-0.3-0.2-0.5-0.7-2.5-4.3-2.9-9.1-2.9-9.1 0 0 0-0.4-0.2-0.4-0.1 0-0.2 0.2-0.4 0.8 0.7-3.2 1.2-6 2.3-9.8 2.1-6.7 4.4-13.9 8.1-19.9 1.4-2.3 2.7-4.6 3.9-7.1zm3.1-6.8q-1.7 2.8-3.1 5.9c-1.3 2.8-2.7 5.3-4.3 7.9-3.6 6-6 13.2-8.1 19.9-1.1 3.8-1.6 6.6-2.3 9.6q0.1-0.8 0.1-1.6c0.3-0.1 0.3-0.2 0.1-0.6q0-0.5 0-1c0.2 0.2 0.3 0.4 0.4 0.4 0.1 0 0.1-0.3-0.2-1.3q0.1-0.8 0.3-1.3c0.1 0.2 0.2 0.4 0.2 0.4q0.2-0.6 0.4-1.3 0.1-0.2 0.1-0.5c0.3-1 1.1-3.9 1.9-6.6 1.1-3.4 2.2-6.2 3.2-8.7 1-2.4 2.2-5.1 3.3-6.8q0.2-0.4 0.4-0.9c0.5-0.8 0.8-1.3 0.9-1.3h0.1v0.1c0.3 0 1.1-2.1 1.3-3.6 0.1-0.4 0.1-0.5 0.1-0.5l0.1 0.1q0 0.1 0.1 0.1c0.3 0 0.8-0.6 2.3-3.6 1.3-2.6 2.1-4 2.7-4.8zm1-0.8h0.1c0.1 0.6-2.6 4.4-3.9 7.1l0.1-0.2c1-2.4 2.2-4.6 3.6-6.8v-0.1z"/>
	<path id="Layer" class="s33" d="m48.6 78c0.1 0 0.8 1.2 1.6 2.3 0.5 0.8 1.2 1.6 1.6 2q-0.2 0.5-0.6 1.2c-2.1-4.1-2.7-5.5-2.6-5.5zm-3.8-0.6q0.1 0 0 0.4c-0.2 2.6 0.3 4.4 0.9 5.7 0.4 1 1.8 3.7 2.6 5.4q-0.4 0.7-0.7 1.3c-1.6-3-2.2-4.1-2.3-4.1-0.2 0 1.3 3.5 1.7 5.2l-0.1 0.2c-0.2 0.3-0.5 1-0.8 1.8q-0.1-0.2-0.3-0.5c-0.3-0.9-0.5-1.6-0.7-1.6q-0.2-0.5-0.3-0.6c-0.2-3.4-0.3-8.3-0.2-12.5q0-0.3 0.1-0.5 0.1-0.2 0.1-0.2zm4.9-7.3c0.3 0 3.6 7 4 8q0 0.1 0 0.2-0.3 0.6-0.5 1.3l-0.8-2c-2.2-5.6-2.8-7.5-2.7-7.5zm2.4-1.3c0.4 0 2.6 3.7 3.8 5.1-0.5 0.9-1.1 2-1.6 3.2 0-1.3-0.4-3.3-1.5-6.1-0.7-1.6-0.8-2.2-0.7-2.2zm11.3-40.7c0.3 0.3 0.5 0.8 0.8 0.8q0.2 0 0.6-0.4 0.4-0.3 0.8-0.4 0.3 0.1 0.5 0.4c0.3 0.3 0.6 0.8 1.1 1.6 0.6 1.1 0.8 2.9 0.8 4.9 0 3.5-0.6 7.6-1.2 9.6-0.1 0.7-0.2 1.2-0.2 1.5 0 1.2 0.6 1.4 0.6 2.8q0 0.5-0.1 1.4c-0.6 2.9-1.7 3.5-1.7 5q0 0.4 0.2 1 0.1 0.6 0.1 1.4c0 1.4-0.3 3.3-0.8 5.2-1.2 2-0.3 1.6-1.3 2-1 0.5-2.3 2.4-2.9 3.3-0.4 0.6-1.2 1.8-2 2.7-0.5 0.6-1.1 1.1-1.5 1.3q-0.3 0.2-0.6 0.6c-0.5-2.2-2-6.3-3.6-9.8-1-2.3-1.3-3.2-1-3.2 0.3 0 2 2.2 4.5 4.6 0 0 2.7 3 4.2 3q0.5 0 0.7-0.4c1.1-1.6-5.4-5.1-4.8-6.9q0.1-0.3 0.4-0.3c0.5 0 1.3 0.6 2.1 1.3 0.9 0.7 1.7 1.3 2.3 1.3 0.3 0 0.5-0.1 0.6-0.6 0.5-2-7.3-6.5-6.5-6.5 0.3 0 1.5 0.4 4.1 1.6 0 0 2.8 1.8 3.9 1.8q0.2 0 0.3-0.2c0.4-0.9 0.2-2.6 0.2-2.6-0.6-0.5-6.5-2.2-8.5-3.9-0.4-0.4-0.4-0.5 0-0.5 1.3 0 6.9 2 8.1 2.3q0.2 0.1 0.3 0.1c1.2 0 0.4-3.1-3.7-5.3-3.6-2-3.5-2.7-2.2-2.7q0.4 0 1 0.1c1.2 0.2 2.9 0.3 4.2 0.3 0.9 0 1.6-0.1 1.6-0.1 0.5-1.6-1.8-1.3-4.5-3.4-2.7-2 3.6-9.4 4-10.5 0.2-0.5 0.2-1.3-0.3-1.3-0.5 0-1.3 0.6-2.5 2.5-2.3 3.5-2.5 6.4-3.5 6.4q-0.2 0-0.5-0.2-0.1-0.1-0.3-0.1c-1 0-1.2 4.1-2.4 6.8-0.9 1.5-2.2 4-3.7 7.7-0.7 1.6-1.2 3-1.6 4-0.4 1-1 2.8-1.5 4.7q-1.1 3.3-2.1 7.1c-0.1 0.2-0.2 0.3-0.3 0.3l-0.2-0.1c0.7-2.6 0.8-5.5 0.5-8.2q0.2 0.1 0.4 0.1 0.3 0.1 0.5 0.1c0.2 0 0.3-0.2-0.2-1.2-0.5-0.8-0.9-2.2-1.1-3.5 0-1.2 0.1-2.5 0.7-2.9l0.2-0.1c0.7 1.3 1.4 2.1 1.7 2.1 0.3 0 0.4-0.4 0.2-1.3-0.3-1.6-0.4-2.3-0.2-2.3q0.1 0 0.5 0.5 0.1 0.2 0.3 0.2c0.5 0 0.8-1.7 0.8-1.7 0.4-2.9 0.3-4.6 0-5.6 0-0.7-0.3-0.5 0.2-0.9l0.1-0.1h0.1q0.2-0.2 0.5-0.3h0.2c0.6 0 1.1 0.3 1.4 0.6 0.4 0.4 0.6 0.7 0.8 0.7 0.3 0 0.4-0.8 0.6-3.5 0.1-2.1 0.8-4.2 1.7-6q0.6-1.1 1.3-2.1 0.1-0.1 0.2-0.3c0.3 0.2 0.6 0.7 0.7 1.9 0.1 1.5 0.2 2.2 0.4 2.2 0.2 0 0.6-1.4 1.2-3.9 0.5-1.8 0.9-3.4 1.6-4.8 1-1 2-1.7 2.7-1.7z"/>
	<path id="Layer" fill-rule="evenodd" class="s34" d="m45.1 91.2q0.1 0.1 0.2 0.4 0.3 0.7 0.5 1.2c-0.3-0.9-0.5-1.6-0.7-1.6zm0.8-21.3q0.1-0.2 0.2-0.5c0.2-1 1-3.9 1.9-6.6q-1.1 3.3-2.1 7.1zm5.2-15.8c1-2.4 2.2-5.1 3.3-6.9q0.2-0.3 0.4-0.8c-0.9 1.5-2.2 4-3.7 7.7z"/>
	<path id="Layer" class="s35" d="m42.3 100.3c0 0 1.2-4.2 1.1-7.5q0-0.7-0.1-1.3-0.3-1.4-0.4-3c-0.1-2.7 0.3-5.8 1.3-9 1.3-4.6 1.6-7.9 3.1-12.8 2.1-6.7 4.4-13.9 8.1-19.9 1.6-2.5 3-5 4.3-7.8 1-2.4 2.2-4.6 3.6-6.8 0.1 0 0-0.1-0.1-0.2-0.1 0-0.2 0-0.2 0.1-1.4 2.1-2.7 4.3-3.7 6.7-1.3 2.8-2.7 5.3-4.3 7.9-3.6 6-6 13.2-8.1 19.9-1.5 5-1.8 8.3-3.1 12.8-1 3.2-1.4 6.4-1.3 9.1q0.1 1.6 0.4 3.1 0.1 0.6 0.1 1.3c0.1 1.5-0.2 3.4-0.5 4.8-0.3 1.5-0.6 2.5-0.6 2.5 0 0.1 0 0.2 0.1 0.2h0.1q0.1 0 0.2-0.1z"/>
	<path id="Layer" class="s30" d="m36.7 44.8c-0.1 0.1-0.3 0.1-0.5 0.1l-0.1-1.5c0 0 0.8 1.1 0.6 1.4z"/>
	<path id="Layer" fill-rule="evenodd" class="s31" d="m36.2 45l-0.1-1.8 0.1 0.2c0 0 0.3 0.5 0.5 0.9 0.1 0.2 0.2 0.4 0.1 0.5l-0.2 0.1q-0.2 0.1-0.4 0.1zm0.5-0.7c-0.1-0.1-0.2-0.4-0.3-0.5l-0.1-0.2 0.1 1.2q0.1 0 0.2 0l0.1-0.1q0.1-0.1 0-0.4z"/>
	<path id="Layer" class="s30" d="m35.9 40.7c0 0.1-0.7 0.6-0.3 1.7-0.2-0.3-0.3-0.6-0.3-0.6v-1.7c0 0 0.6 0.4 0.6 0.6z"/>
	<path id="Layer" fill-rule="evenodd" class="s31" d="m35.2 41.8v-1.8l0.1 0.1c0 0 0.1 0 0.2 0.1 0.2 0.1 0.4 0.2 0.4 0.4l0.1 0.1c-0.1 0.1-0.1 0.1-0.2 0.2-0.1 0.3-0.4 0.7-0.2 1.5h-0.1c-0.1-0.3-0.3-0.5-0.3-0.5zm0.2 0.1c0-0.4 0.1-0.6 0.2-0.8q0.1-0.3 0.1-0.4 0.1-0.1 0.1-0.2c0 0-0.1-0.1-0.3-0.2q-0.1-0.1-0.2-0.1l0.1 1.6zm0.4-1.4l0.1 0.1-0.1-0.1z"/>
	<path id="Layer" class="s36" d="m29.3 77c0 0 0.1 2.8 1.1 4.3 1 1.5-0.1 1.5 0.7 4 0.9 2.5 5.7 9.9 7.1 9.9 1.4 0 3.9-18.5-8.9-18.2z"/>
	<path id="Layer" fill-rule="evenodd" class="s35" d="m38.2 95.3c-0.5 0-1-0.5-1.7-1.2-1.9-2.2-4.8-6.9-5.5-8.8-0.2-0.7-0.3-1.2-0.3-1.6 0-0.6 0.1-0.9 0.1-1.2 0-0.3-0.1-0.7-0.5-1.1-1-1.6-1.1-4.4-1.1-4.4v-0.1h0.1c3.9-0.1 6.4 1.6 7.9 3.9 1.6 2.3 2.1 5.3 2.2 8 0.1 1.7-0.1 3.3-0.3 4.5q-0.2 0.9-0.4 1.4c-0.2 0.3-0.3 0.5-0.5 0.6zm0-0.2q0 0 0.1-0.1c0.5-0.6 1-3.2 0.9-6.2 0-2.7-0.6-5.6-2.1-7.9-1.5-2.3-3.9-3.9-7.7-3.8 0 0.2 0 0.8 0.2 1.5 0.1 0.9 0.4 2 0.9 2.7 0.3 0.5 0.5 0.8 0.5 1.2 0 0.3-0.1 0.7-0.1 1.2 0 0.4 0.1 0.9 0.3 1.6 0.5 1.2 1.9 3.7 3.4 5.9 0.7 1 1.4 2 2.1 2.8 0.6 0.7 1.2 1.1 1.5 1.1z"/>
	<path id="Layer" class="s30" d="m26.2 73.5c-0.1 0.1-0.3 0.2-0.6 0.2l-0.3-1.9c0 0 1.2 1.4 0.9 1.7z"/>
	<path id="Layer" class="s31" d="m25.6 73.8c0.3-0.1 0.6-0.1 0.7-0.3h-0.1-0.1c0 0-0.2 0.1-0.4 0.1l-0.2-1.5q0.1 0.2 0.2 0.3c0.2 0.4 0.5 0.8 0.5 1l-0.1 0.1h0.1 0.1l0.1-0.1c-0.1-0.6-1-1.6-1-1.6l-0.2-0.3 0.3 2.3z"/>
	<path id="Layer" class="s30" d="m24.7 68.2c0.1 0.3-0.7 1-0.2 2.3-0.2-0.4-0.4-0.7-0.4-0.7l-0.2-2.2c0 0 0.8 0.4 0.8 0.6z"/>
	<path id="Layer" fill-rule="evenodd" class="s31" d="m24.4 70.6c-0.2-0.4-0.4-0.8-0.4-0.8l-0.3-2.3h0.2c0 0 0.2 0.1 0.5 0.2 0.2 0.2 0.4 0.3 0.4 0.5 0 0.2-0.1 0.3-0.2 0.5-0.1 0.3-0.2 0.6-0.2 1q0 0.3 0.2 0.8zm0.2-2.4c0 0-0.2-0.2-0.4-0.3q-0.1-0.1-0.2-0.1l0.2 2v0.1-0.2c0-0.4 0.1-0.7 0.2-1 0.1-0.2 0.2-0.4 0.2-0.5z"/>
	<path id="Layer" class="s30" d="m11.4 20c2.2-0.3 8.7 6.1 10.8 10.6 2.2 4.4 3.3 4.5 4.4 5.2 1 0.6 0 0 0.6 1.8 0.7 1.7 0.7 1.2 1.7 3.7 1 2.5 1.1 2.4 2.2 3 1.2 0.5 0.9 3.5 1.1 4.5 0.2 0.9 1.1 2.1 2.4 3.3 1.4 1.2 1.3 1.4 0.7 4-0.6 2.6-1.1 0 1.4 8.6 2.5 8.5 0.6 19 0.6 19 0 0 0.1 2.1-0.8 1.2-0.9-1-1-1.8-2.7-2.4-1.7-0.5-0.1-1.1-2.4-2-2.2-0.9-3.1-2.9-4-3.9-0.9-1-1.8-2.9-1.8-2.9 0.3 0 0.5-0.1 0.6-0.2 0.3-0.3-0.9-1.7-0.9-1.7-0.2-0.2-0.5-0.8-0.8-1.3-0.5-1.3 0.3-2 0.2-2.3 0-0.2-0.8-0.6-0.8-0.6-1.2-0.6-2.5-1.9-2.5-1.9-1.7-3.4-3.9-3.3-6.5-6.7-2.6-3.5-4.7-10.1-4.1-12.4 0.5-2.2-1-2.3-1.9-5.5-0.9-3.3 1-2.4-0.1-5.4-1-3-2.7-10.8-1.1-13.6 1.1-2.1 1.5-2.1 2.4-2 0.4 0 0.8 0 1.3-0.1z"/>
	<path id="Layer" class="s37" d="m11.4 20h0.2c1.1 0 3.3 1.6 5.4 3.7 2.1 2.1 4.2 4.7 5.2 6.9 2.2 4.4 3.3 4.5 4.4 5.2q0.2 0.1 0.4 0.2 0.1 0.1 0.1 0.2c0 0-0.1 0.1-0.1 0.3 0 0.2 0 0.5 0.2 1.1 0.7 1.7 0.7 1.2 1.7 3.7 0.5 1.3 0.8 1.9 1.1 2.2 0.2 0.3 0.5 0.4 1.1 0.7 0.6 0.3 0.8 1.2 0.9 2.2 0.1 0.9 0.1 1.9 0.2 2.4 0.2 0.9 1.1 2.1 2.4 3.3 0.8 0.7 1.1 1.1 1.1 1.8 0 0.4-0.1 1.1-0.4 2.2-0.2 1.1-0.5 1.2-0.5 1.8 0 0.6 0.5 1.9 1.9 6.8 1 3.3 1.3 6.9 1.3 10.1 0 5-0.7 8.9-0.7 8.9 0 0 0 0.2 0 0.3 0 0.2 0 0.5-0.1 0.7q0 0.2-0.1 0.3-0.1 0.1-0.2 0.1-0.2 0-0.4-0.2c-1-1-1-1.8-2.7-2.4-0.8-0.2-0.8-0.5-0.9-0.8-0.1-0.3-0.3-0.7-1.4-1.2-2.3-0.9-3.2-2.9-4.1-3.9-0.9-1-1.8-2.9-1.8-2.9 0.3 0 0.5-0.1 0.6-0.2l0.1-0.1c0-0.3-0.3-0.7-0.5-1q-0.2-0.2-0.3-0.4-0.2-0.2-0.2-0.2c-0.2-0.2-0.5-0.8-0.8-1.3q-0.2-0.5-0.2-0.9c0-0.4 0.1-0.7 0.2-0.9 0.1-0.2 0.2-0.4 0.2-0.5 0-0.1-0.2-0.3-0.4-0.4q-0.2-0.1-0.3-0.1-0.1-0.1-0.1-0.1c-1.2-0.6-2.5-1.9-2.5-1.9-0.8-1.7-1.8-2.5-2.9-3.4-1.1-0.8-2.3-1.6-3.6-3.3-2.3-3.1-4.2-8.7-4.2-11.5q0-0.5 0.1-0.9 0.1-0.5 0.1-0.8c0-0.8-0.3-1.3-0.7-1.9-0.4-0.7-0.9-1.5-1.3-2.8-0.2-0.7-0.3-1.2-0.3-1.6 0-1.1 0.5-1.3 0.5-2.3 0-0.3-0.1-0.8-0.3-1.5-0.7-2.1-1.8-6.7-1.8-10.1 0-1.5 0.2-2.7 0.7-3.5 0.5-0.9 0.8-1.4 1.1-1.7 0.4-0.3 0.6-0.4 1-0.4q0.3 0.1 0.8 0.1 0.3 0 0.8-0.1-0.5 0.1-0.8 0.1-0.5 0-0.8 0c-0.4 0-0.6 0-1 0.3-0.3 0.3-0.6 0.8-1.1 1.7-0.5 0.8-0.7 2-0.7 3.5 0 3.4 1.1 8 1.8 10.1 0.3 0.7 0.3 1.2 0.3 1.5 0 1-0.5 1.3-0.5 2.3 0 0.4 0.1 0.9 0.3 1.6 0.4 1.3 0.9 2.1 1.3 2.8 0.4 0.6 0.7 1.1 0.7 1.9q0 0.3-0.1 0.8-0.1 0.4-0.1 0.9c0 2.8 1.9 8.4 4.2 11.5 1.3 1.7 2.5 2.5 3.6 3.3 1.1 0.9 2.1 1.7 3 3.4h-0.1 0.1q0 0 0.2 0.2c0.4 0.4 1.3 1.3 2.2 1.7 0 0 0.2 0.1 0.4 0.2 0.2 0.1 0.4 0.3 0.5 0.4 0 0.1-0.2 0.3-0.3 0.5-0.1 0.2-0.2 0.5-0.2 0.9q0 0.4 0.2 0.9c0.3 0.5 0.6 1.1 0.8 1.3 0 0 0.3 0.3 0.5 0.6 0.2 0.3 0.5 0.7 0.5 1l-0.1 0.1c-0.1 0.2-0.3 0.2-0.6 0.2q0 0 0.2 0.3c0.3 0.6 1 1.8 1.6 2.6 0.9 1 1.8 3 4.1 3.9 1.1 0.5 1.3 0.9 1.4 1.2 0.1 0.3 0.1 0.6 1 0.8 1.7 0.6 1.7 1.4 2.6 2.4q0.2 0.2 0.4 0.2 0.1 0 0.2-0.1c0.1-0.2 0.2-0.7 0.2-1 0-0.1-0.1-0.3-0.1-0.3q0 0 0.1-0.1c0.1-0.8 0.7-4.4 0.7-8.8 0-3.2-0.3-6.8-1.3-10.1-1.5-4.9-1.9-6.2-1.9-6.8 0-0.6 0.3-0.7 0.5-1.8 0.3-1.1 0.4-1.8 0.4-2.2 0-0.7-0.3-1.1-1.1-1.8-1.3-1.2-2.2-2.4-2.4-3.3-0.1-0.5-0.1-1.5-0.2-2.4-0.1-1-0.3-1.9-0.9-2.1-0.6-0.3-0.9-0.4-1.1-0.8-0.3-0.3-0.6-0.9-1.1-2.2-1-2.5-1-2-1.7-3.7-0.2-0.6-0.2-0.9-0.2-1.1 0-0.2 0-0.3 0-0.3l-0.1-0.2q-0.1 0-0.4-0.2c-1-0.7-2.1-0.7-4.3-5.2-1-2.2-3.1-4.8-5.2-6.9-2.2-2.1-4.3-3.7-5.4-3.7h-0.2z"/>
	<path id="Layer" fill-rule="evenodd" class="s32" d="m33.7 63.8q0.1 0.2 0.2 0.3 0.3 0.6 0.6 1.1c0 0.5 0.2 1.1 0.5 1.9 0.1 0.4 0.4 1 0.6 1.7q0.1 0.6 0.2 1.1-0.3-1.1-0.8-2.3c-0.5-1.4-0.9-2.6-1.3-3.8zm-5.2-10.4c0.3 0.5 0.7 1.1 0.9 2.2q0.1 0.1 0.1 0.3l0.1 0.2q0.3 1.1 0.7 2.1h0.1v0.1q0.2 0.4 0.4 0.8v0.1q0.6 1 1.2 1.9l0.1 0.2q0.4 0.6 0.8 1.2 0.4 1.2 0.8 2.5c-0.3-0.6-0.5-0.8-0.6-0.8-0.2 0-0.2 0.3-0.2 0.3 0 0-0.1 2.5-1.1 5.5-0.2-0.4-0.6-0.8-1-1.2q0-0.2 0.1-0.4c0.6-2.8 1-5.6 0.2-5.6q-0.2 0-0.4 0.2c-1.6 1.2-3.2 3.2-4 4q-0.2 0-0.4-0.1c0.1-0.4 0.3-1 0.6-1.9 1.7-4.1 3-8.2 2.3-8.2-0.2 0-0.5 0.3-1.1 1.1-1.3 2-2.2 3.4-2.4 3.4-0.1 0 0.2-0.8 1-2.9 0.9-2.5 1.5-4.1 1.8-5zm-1.1-2c0.2 0.6 0.5 1.1 0.8 1.5l-0.1 0.1c-0.8 0.8-3.7 4.5-4.1 4.5-0.1 0 0.2-0.7 1.6-2.9 0.9-1.5 1.4-2.5 1.8-3.2zm-0.8-2.1q0.1 0.5 0.4 1.2c-0.4 0.4-0.8 0.9-1 1.2q-0.4 0.6-0.6 0.6c-0.1 0 0-0.5 0.6-1.6 0.2-0.5 0.4-1 0.6-1.4zm-14.8-25.5h0.1v0.1c1.6 2 3 4 4.2 6.2 1.5 2.6 3.1 4.9 4.9 7.3q1.7 2.2 3.1 4.6c-0.3 1.4-0.3 2.9 0.9 4.1q0.3 0.4 0.5 0.6c0.4 0.5 0.6 0.8 0.7 1.2q0.1 0.2 0.1 0.4c-0.4 0-1.1 0.3-2.3 1.3-2.3 1.8-4.2 3.7-4.3 3.7-0.1 0 0.2-0.4 0.9-1.4 1.8-2.4 4.2-5 3.4-5-0.3 0-0.8 0.3-1.9 0.9-2.9 1.7-5.4 3.4-5.7 3.4-0.2 0 0.3-0.5 1.6-1.7 3.2-2.7 7-6.2 5.6-6.2-0.3 0-0.9 0.2-1.7 0.5-0.8 0.3-1.2 0.5-1.4 0.5-0.5 0 0.5-0.9 1.4-1.7 0.9-0.9 1.6-1.7 0.5-1.7q-0.1 0-0.4 0c-2.8 0.4-7.4 2.4-7.9 2.4-0.2 0 0-0.2 1-0.8 3-1.9 6.6-4 6-4q-0.2 0-1.1 0.3c-1 0.5-1.6 0.6-1.9 0.6-0.5 0 0.4-0.7 1.2-1.1 1.1-0.7 1.9-2.3-0.6-2.3-0.6 0-1.2 0.1-1.7 0.1q-0.9 0-1.5 0c-1.1 0-1.5-0.1-0.2-0.7 2.5-1.1 3.8-1.7 2.3-2-1.5-0.3 0.2-0.2-1.1-2.6-1.4-2.5-4.9-6.5-4.8-7zm1 0.7c0.7 0.7 1.7 2 3.2 4.4 1.7 2.8 2.3 3.4 2.6 3.4 0.1 0 0.1-0.1 0.2-0.1v-0.1c0 0 0 0.1 0.1 0.4 0.4 1.5 1.3 3.4 1.6 3.4v-0.1h0.1c0.1 0 0.5 0.4 1 1.2q0.3 0.4 0.5 0.8c0.7 0.9 1.4 2 2.2 3.3q-0.1 0.2-0.1 0.3-1.3-2.2-2.8-4.2c-1.8-2.3-3.5-4.6-4.9-7.2q-1.7-2.9-3.7-5.5z"/>
	<path id="Layer" class="s33" d="m29.9 66.5c0 0-0.1 0.4-0.6 1.5q-0.2-0.1-0.4-0.2c0.5-0.7 0.9-1.3 1-1.3zm3.9-0.8q0.1 0 0.2 0.3 0.3 0.8 0.7 1.7c0.6 2 1.3 5 1.3 7.5q-0.8-0.6-1.4-1.2c-0.7-0.8-1.2-1.4-1.6-2q0.2-0.3 0.3-0.5c0.5-1.2 0.9-2.9 0.5-5.3q0-0.5 0-0.5zm-5.6-6.6c0.2 0-0.3 1.8-2.3 7.1l-0.3 0.5q-0.6-0.1-1-0.1c0.5-1.3 3.3-7.5 3.6-7.5zm-16.6-39.1c0.7 0 1.7 0.6 3 1.5 0.7 1.4 1.3 2.9 1.8 4.5 0.9 2.4 1.3 3.6 1.6 3.6 0.2 0 0.2-0.7 0.3-2.1 0-1.1 0.3-1.6 0.6-1.7q0.9 1.1 1.7 2.2c1.1 1.7 1.8 3.6 2.1 5.5 0.3 2.6 0.5 3.3 0.8 3.3 0.2 0 0.4-0.3 0.8-0.7q0.1-0.1 0.2-0.2c0.2 0.5 0.4 1 0.4 1.5 0.1 1-0.2 2-0.5 3q0 0.3-0.1 0.7c-1.1-1.9-2-3.3-2.7-4.1-1.4-2.6-1.8-6.4-2.9-6.4q-0.1 0-0.3 0.1-0.3 0.2-0.5 0.2c-1 0-1.4-2.7-4-5.9-1.4-1.7-2.3-2.2-2.8-2.2-0.5 0-0.5 0.7-0.3 1.2 0.5 1 7.6 7.7 4.9 9.8-2.8 2-5.3 1.8-4.6 3.3h0.1c0.6 0 4 0 5.9-0.4q0.7-0.2 1.2-0.2c1.3 0 1.3 0.8-2.2 2.7-4.2 2.2-5 5.1-3.7 5.1q0.1 0 0.3-0.1c1.3-0.3 7.2-2.5 8.5-2.5 0.3 0 0.4 0.2 0 0.5-2.1 1.7-8.1 3.5-8.8 4 0 0-0.1 1.6 0.3 2.4q0.1 0.2 0.4 0.2c1.1 0 4.1-1.8 4.1-1.8 2.7-1.2 3.9-1.7 4.1-1.7 0.9 0-7 4.5-6.5 6.3 0.2 0.5 0.4 0.6 0.7 0.6 0.6 0 1.5-0.6 2.3-1.3 0.9-0.6 1.7-1.3 2.3-1.3q0.3 0 0.4 0.3c0.7 1.7-6 5.2-4.8 6.7q0.3 0.3 0.7 0.3c1.6 0 4.4-3 4.4-3 2.5-2.4 4.1-4.4 4.5-4.4 0.3 0 0 0.8-0.9 3-2.2 4.9-4 10.9-3.2 10.9q0.2 0 0.4-0.2c1.1-1 3.6-5.3 4-5.3 0.2 0 0.1 0.6-0.5 2.1-1.3 3.4-1.4 5.6-1.2 6.6-0.3 0-0.6 0.1-0.8 0.1h-0.1q-0.1 0.1-0.3 0.1c-0.4-0.3-0.8-0.7-1-0.9q-0.2-0.2-0.2-0.2c-0.9-1.7-1.9-2.5-3-3.4-1.1-0.8-2.3-1.6-3.6-3.3-2.3-3.1-4.2-8.7-4.2-11.5q0-0.5 0.1-0.9 0.1-0.5 0.1-0.8c0-0.8-0.3-1.3-0.7-1.9-0.4-0.7-0.9-1.5-1.3-2.8-0.2-0.7-0.3-1.2-0.3-1.6 0-1 0.5-1.3 0.5-2.3 0-0.3 0-0.8-0.3-1.5-0.7-2.1-1.8-6.7-1.8-10.1 0-1.5 0.2-2.7 0.7-3.5 0.5-0.9 0.8-1.4 1.1-1.7q0.3-0.2 0.5-0.3 0.4 0.1 0.8 0.4 0.4 0.3 0.6 0.3c0.4 0 0.6-0.4 0.9-0.8z"/>
	<path id="Layer" fill-rule="evenodd" class="s38" d="m9.3 20.1q-0.2 0.1-0.5 0.3c-0.3 0.3-0.6 0.8-1.1 1.7-0.5 0.8-0.7 2-0.7 3.5 0 3.4 1.1 8 1.8 10.1 0.3 0.7 0.3 1.2 0.3 1.5 0 1-0.5 1.3-0.5 2.3 0 0.4 0.1 0.9 0.3 1.6 0.4 1.3 0.9 2.1 1.3 2.8 0.4 0.6 0.7 1.1 0.7 1.9q0 0.3-0.1 0.8-0.1 0.4-0.1 0.9c0 2.8 1.9 8.4 4.2 11.5 1.3 1.7 2.5 2.5 3.6 3.3 1.1 0.9 2.1 1.7 3 3.4q0 0 0.2 0.2c0.2 0.2 0.6 0.6 1 0.9-0.7-0.5-1.3-1.1-1.3-1.1-1.7-3.4-3.9-3.3-6.5-6.7-2.6-3.5-4.7-10.1-4.1-12.4 0.5-2.2-1-2.3-1.9-5.5-0.9-3.3 1-2.4-0.1-5.4-1-3-2.7-10.8-1.1-13.6 0.7-1.4 1.1-1.8 1.6-2zm9.6 5.7q0.9 1 1.7 2.1v0.1q-0.7-1.1-1.7-2.2zm-7.3-5.8c0.7 0 1.7 0.6 2.9 1.5-1.2-0.9-2.2-1.5-2.9-1.5z"/>
	<path id="Layer" class="s34" d="m21.6 37c0.7 0.8 1.6 2.2 2.7 4.1-0.8-1.3-1.5-2.5-2.2-3.4q-0.2-0.3-0.5-0.7z"/>
	<path id="Layer" class="s35" d="m38 87.3c0.1 0 0.2-0.1 0.1-0.2 0 0-0.3-1-0.7-2.3-0.4-1.3-0.8-3-0.8-4.5q-0.1-0.7 0-1.3 0.3-1.5 0.2-3.2c-0.1-2.5-0.6-5.3-1.8-8.2-1.6-4.2-2.1-7.3-4-11.9-2.5-6.3-5.4-12.9-9.6-18.5-1.8-2.4-3.5-4.6-4.9-7.2-1.3-2.2-2.7-4.3-4.3-6.3 0 0-0.2 0-0.3 0-0.1 0.1-0.1 0.2 0 0.2 1.6 2 3 4 4.2 6.2 1.5 2.6 3.1 4.9 4.9 7.3 4.2 5.5 7.1 12.2 9.6 18.4 1.9 4.6 2.4 7.7 4.1 11.9 1.1 2.9 1.6 5.7 1.7 8.1q0.1 1.7-0.1 3.1-0.1 0.7-0.1 1.5c0.1 3 1.6 6.8 1.6 6.8q0 0.1 0.2 0.1z"/>
	<path id="Layer" class="s30" d="m27.3 30.8c0.6 0.8 0.2 1.5 0.2 1.5 0.5 0 1.9-0.2 2.5-0.6 0.5-0.2 0.8-0.2 1.3-0.2q0.2 0 0.6 0c0.8-0.1 1.1-0.6 1.6-0.6 0.5 0 1.5-0.3 1.5-0.3 0.4 0 2 4.6 2.2 4.9 0.7 2 0.6 4.4 1.8 6.2 1.1 1.6 3.1 2.7 3.8 4.4 0.8 2.1 0.3 4.4 0.7 6.5 0.6 3 2 5.8 2.4 8.9 0.4 3 0.3 6.3-0.6 9.2-1.2 3.8-0.7 17.7-0.4 22.2 0.4 4.5-1 6.1-3 6.3-2.1 0.2-5.6-2.2-5.6-3.6 0.1-1.5 1.2-3.6 1.3-4.7 0.2-1.2-0.9-8.8-1.2-13.2-0.2-3.8-0.1-7.7-1.5-11.4-1.3-3.6-4.4-6.5-5.3-10.2-0.7-2.9-1.5-2.8-2.6-5.5-1.1-2.7-0.2-2.6-2-4.5-1.6-1.6-1-3.8-0.6-5.7 0.3-1 0.6-2 0.5-3-0.1-1.1-0.7-2-0.7-3 0-1.4-0.6-3.7-0.2-5.3 1.1-2.6 2.9 1 3.3 1.7z"/>
	<path id="Layer" class="s35" d="m29.1 30.7c0 0 4.8 8.9 7.1 18.6 2.3 9.7 5.7 21 5.9 28.6 0.3 7.6 1.4 22.4-0.9 22.5-2.3 0-1.1-5.4-1.1-7.1-0.1-1.7 1.1-16.2-1.3-27.1-2.5-10.9-3.7-16.7-4.3-18.6-0.7-2-2.6-10.4-6.1-15.5z"/>
	<path id="Layer" fill-rule="evenodd" class="s35" d="m41.2 100.5c-0.6 0-0.9-0.3-1.2-0.8-0.2-0.4-0.3-1.1-0.3-1.8 0-1.6 0.3-3.7 0.3-4.6-0.1-1.1 0.4-7 0.2-14-0.2-4.2-0.6-8.9-1.5-13.1-2.5-10.8-3.7-16.7-4.3-18.6-0.7-1.9-2.6-10.4-6.1-15.4l0.8-1.7 0.1 0.2c0 0 4.8 8.9 7.1 18.6 2.3 9.7 5.7 21 5.9 28.6 0.1 2.6 0.3 6.1 0.4 9.5 0.1 3.2 0.2 6.5 0 8.9-0.1 1.2-0.2 2.3-0.4 3-0.2 0.7-0.5 1.1-1 1.2zm-12.1-69.6l-0.6 1.2c3.5 5.1 5.4 13.5 6.1 15.4 0.6 2 1.8 7.8 4.3 18.7 0.9 4.2 1.3 8.8 1.5 13.1 0.2 7-0.3 12.9-0.2 14 0 0.9-0.3 3-0.3 4.6 0 0.7 0.1 1.3 0.3 1.8 0.2 0.4 0.5 0.6 1 0.6 0.3 0 0.6-0.4 0.8-1.1 0.6-2.1 0.6-6.9 0.4-11.8-0.1-3.4-0.3-6.9-0.3-9.5-0.3-7.5-3.7-18.9-6-28.6-1.1-4.8-2.9-9.5-4.4-12.9-0.7-1.7-1.4-3.1-1.9-4.1q-0.5-1-0.7-1.4z"/>
	<path id="Layer" class="s39" d="m25 27.8c0 0 2.9-0.8 3.3-1.2 1.6 1 2.5 3.1 2.2 4.9q-0.2 0.1-0.5 0.2c-0.6 0.4-2 0.6-2.5 0.6 0 0 0.4-0.7-0.2-1.5-0.4-0.7-2.2-4.3-3.3-1.7 0.1-0.6 0.4-1.1 1-1.3z"/>
	<path id="Layer" class="s39" d="m29.6 26.2q0.4-0.1 0.6-0.1c0.7-0.2 2.8-0.6 2.8-0.6 0 0 2.1 0.3 2.7 2.7 0.7 2.4-0.7 2.4-0.7 2.4 0 0-1 0.3-1.5 0.3-0.3 0-0.5 0.2-0.8 0.3 0-0.3 0-3.5-3.1-5z"/>
	<path id="Layer" class="s39" d="m29.6 26.2q0.4-0.1 0.6-0.1c0.7-0.2 2.8-0.6 2.8-0.6 0 0 2.1 0.3 2.7 2.7 0.7 2.4-0.7 2.4-0.7 2.4 0 0-1 0.3-1.5 0.3-0.3 0-0.5 0.2-0.8 0.3 0-0.3 0-3.5-3.1-5z"/>
	<path id="Layer" class="s40" d="m28.3 26.6c0.2-0.3 0.8-0.4 1.3-0.4 3.1 1.5 3.1 4.7 3.1 5-0.2 0.1-0.5 0.2-0.8 0.3-0.6 0-1-0.1-1.4 0 0.3-1.8-0.6-3.9-2.2-4.9z"/>
	<path id="Layer" class="s41" d="m29.1 26.3q-0.2 0-0.4 0c0.3-0.1 0.6-0.1 0.9-0.1 3.1 1.5 3.1 4.7 3.1 5-0.2 0.1-0.5 0.2-0.8 0.3h-0.1q0.2-0.1 0.3-0.1c0-0.4 0-3.5-3-5.1z"/>
	<path id="Layer" class="s42" d="m45.3 58.9q0.3 0.9 0.5 1.9c-0.5 0.3-1.3 1-2 1.9-0.5 0.5-0.7 0.8-0.9 0.8-0.3 0 0.7-1.9 2-3.9q0.3-0.4 0.4-0.7z"/>
	<path id="Layer" class="s42" d="m45.9 61.7c0.2 1.9 0.3 3.8 0 5.8q-0.4 0.5-0.8 1c-1 1.1-1.6 1.5-1.9 1.5-0.5 0-0.2-1.1 0.9-2.5 1-1.4 1.4-2.2 1.1-2.2q-0.3 0-1.4 0.9-0.8 0.6-1 0.6c-0.3 0 0.6-1.3 2.3-3.8q0.5-0.8 0.8-1.3z"/>
	<path id="Layer" class="s43" d="m35.8 32c0.6 1.3 1.3 3.3 1.4 3.5-0.1-0.2-0.8-2.2-1.4-3.5z"/>
	<path id="Layer" class="s42" d="m35.8 32c0.6 1.3 1.3 3.3 1.4 3.5 0.7 2 0.6 4.4 1.8 6.2 1.1 1.6 3.1 2.7 3.8 4.4 0.3 0.9 0.4 1.9 0.5 2.8h-0.1c-0.4 0.9-1.2 2.7-2.7 4.5-0.4 0.6-0.8 0.9-1 0.9-0.5 0-0.3-1.3 1.3-3.5 1.1-1.5 1.4-2.1 1.3-2.1-0.2 0-1.1 0.8-1.9 1.6q-0.3 0.3-0.4 0.3c-0.4 0 1.1-3 1.7-3.9 0.2-0.3 0.2-0.5 0.1-0.5-0.3 0-1.3 0.7-2.1 1.6-0.6 0.6-1.1 0.9-1.4 0.9-0.3 0-0.3-0.5 0.5-1.8 1-1.6 1.2-3.1 0.7-3.1-0.3 0-0.7 0.3-1.2 1.2-0.5 0.7-0.9 1.1-1.1 1.1-0.4 0-0.1-1.9 0.7-3.9 0.3-0.9 0.3-1.1 0.1-1.1-0.2 0-0.4 0.1-0.6 0.2-0.2 0.1-0.5 0.3-0.6 0.3-0.2 0-0.2-0.2 0.1-0.9 0.4-1.2 0.4-1.7 0.1-1.7-0.3 0-0.8 0.4-1.4 1q-0.1 0.2-0.2 0.2c-0.2 0 0-0.7 0.1-1.4 0.2-0.7 0.4-1.3 0.2-1.3q0 0-0.3 0.3c-0.4 0.6-0.7 0.8-0.9 0.8-0.4 0-0.3-1.3 0.3-2.6 0.5-1.1 0.4-1.5 0.1-1.5-0.2 0-0.6 0.2-1 0.6q-0.1 0.1-0.2 0.1c-0.1 0 1.6-2.3 2.3-3.2z"/>
	<path id="Layer" class="s43" d="m43.4 51.9q0 0.3 0 0.5 0-0.2 0-0.5z"/>
	<path id="Layer" class="s42" d="m43.4 51.9q0 0.3 0 0.5 0.1 0.1 0.1 0.2c0.3 1.7 0.9 3.4 1.5 5.1-0.4 0.2-0.8 0.6-1.1 1.1-0.5 0.9-1 1.4-1.2 1.4-0.2 0-0.1-0.5 0.5-1.7 0.7-1.6 1.1-3.2 0.8-3.2-0.2 0-0.5 0.4-1.2 1.4-0.7 1.2-1.3 1.7-1.6 1.7-0.4 0-0.2-1.3 1-3.4 0.6-1.1 1-2.1 1.2-3.1z"/>
	<path id="Layer" class="s44" d="m25.5 46.7c0.5 0.5 0.6 0.8 0.7 1.2-0.1-0.4-0.2-0.7-0.7-1.2z"/>
	<path id="Layer" class="s45" d="m28.2 53q0.1 0.1 0.2 0.3-0.1-0.2-0.2-0.3z"/>
	<path id="Layer" fill-rule="evenodd" class="s44" d="m33.7 63.8q0 0.1 0.1 0.2 0-0.1-0.1-0.2zm0.1 0.2q0 0.1 0.1 0.2-0.1-0.1-0.1-0.2zm-3-4.9q-0.2-0.4-0.4-0.8 0.2 0.4 0.4 0.8zm-1.4-3.5q0.1 0.1 0.1 0.3 0-0.2-0.1-0.3z"/>
	<path id="Layer" class="s45" d="m35.4 68q0.1 0.4 0.2 0.8-0.1-0.4-0.2-0.8z"/>
	<path id="Layer" class="s44" d="m35.6 68.8q0.1 0.6 0.2 1.1-0.1-0.5-0.2-1.1z"/>
	<path id="Layer" class="s46" d="m35.8 69.9q0.1 0.2 0.1 0.4 0-0.2-0.1-0.4zm-2.4-6.6q0.1 0.2 0.3 0.5-0.2-0.3-0.3-0.5z"/>
	<path id="Layer" class="s45" d="m26.4 38.3c1.5 0 4.4 0.6 4.4 0.6-4.4 0.2 1.8 2.8 0.9 2.8-0.8 0 0.4 1.1 0.4 1.1 2.5 1-2.2 2.2-0.4 2.2l0.2-0.1q0.1 0 0.2 0c1.9 0 1.4 0.5-2.2 1.2-3.7 0.7-1.1 0.8 1.3 0.9 2.5 0 3.4 1.1 1.3 1.7-1.7 0.4-2.4 0.7-1.4 0.7q0.4 0 1.1 0c0.7-0.1 1.2-0.1 1.5-0.1 0.9 0 0.3 0.3-3.2 1.4-2.5 0.7-2.3 1-1.4 1 0.9 0 2.7-0.3 3.5-0.4q0.7-0.1 1.3-0.2c0.8 0 1.1 0.3 0.5 1.2-0.8 0.9-1.4 1.5-1.1 1.5q0.2 0 0.6-0.2 0.3-0.1 0.4-0.1c0.7 0-0.6 1.6-2.5 3.3-0.8 0.7-0.9 1-0.7 1 0.5 0 2.3-0.9 3.6-1.6q0.5-0.3 0.8-0.3c0.8 0 0 1.8-0.3 3-0.3 1.1-0.4 2 0 2 0.2 0 0.4-0.2 0.8-0.6q0.5-0.6 0.6-0.6c0.3 0-0.1 1.4-1 3.7-0.7 1.7-0.8 2.4-0.6 2.4 0.2 0 0.8-0.6 1.4-1.6q0.5-0.7 0.8-0.7c0.5 0 0.2 2.5-0.7 5.3q-0.3 0.9-0.6 1.5 0-0.2-0.1-0.4-0.1-0.5-0.2-1.1-0.1-0.4-0.2-0.8-0.2-0.8-0.5-1.7-0.4-1.1-1-2.2-0.1-0.1-0.2-0.3-0.2-0.3-0.3-0.5c0.8-1.5 1.2-2.6 1-2.6q-0.1 0-0.4 0.4c-0.5 0.5-1 0.9-1.3 1.1q-0.3-0.5-0.6-0.9l-0.1-0.2q0.3-0.4 0.9-0.9c1.2-1.4 1.3-1.8 0.8-1.8-0.6 0-1.8 0.6-2.7 1.1q-0.1-0.2-0.2-0.3v-0.1q-0.2-0.4-0.4-0.8v-0.1h-0.1q-0.4-1-0.7-2.1l-0.1-0.2q0-0.2-0.1-0.3c0.5-0.8 1.7-1.4 3.4-2.5 1-0.6 1.1-0.8 0.7-0.8-0.6 0-2.5 0.5-5.1 1q-0.1-0.2-0.2-0.3c-0.3-0.6-0.7-1.3-1.2-2.4-0.2-0.6-0.4-1-0.5-1.4 1.2-0.3 2.9-0.4 4.4-0.8 2.1-0.5 1.5-0.7-0.1-0.7-0.7 0-1.6 0-2.6 0.1q-1.1 0.1-1.9 0.2l-0.1-0.1c-0.1-0.4-0.2-0.7-0.7-1.2q-0.2-0.2-0.5-0.6c1.4-0.7 3.3-1.3 4.9-1.7 2.9-0.6 2-1.8-0.9-2.3-2.1-0.4-1.3-0.5-0.2-0.5 0.4 0 0.9 0 1.3 0h0.1c1.2 0-1.3-0.9-3-1.4-1.8-0.5-1.7-0.6-1.6-1.7 0-0.2 0.3-0.2 0.8-0.2z"/>
	<path id="Layer" class="s47" d="m25.6 34.6q0.2 0 0.4 0c1.3 0.4 4.8 0.8 3.3 1-1.6 0.1-1.5 0.4 0.2 0.5 1.7 0.2-3.2 0.1 0 1 2.2 0.5 1.5 0.6 0.8 0.6-0.3 0-0.6 0-0.6 0 0 0-4.8-0.4-3.4-0.7 1.3-0.4 1.3-0.7 0.1-0.9-1-0.1-1.6-1.5-0.8-1.5z"/>
	<path id="Layer" class="s48" d="m52.1 93.6c1-1.1 1.8-1.9 2.2-2.3 0.5-0.7 2.2-2.6 3.8-4.1 1.7-0.4 3.4-0.4 4.4 0.5-1.2 0-3.8 3.7-4.8 4.4-0.6 0.5-1.4 0.8-2.4 1.3q-1.6 0-3.2 0.2z"/>
	<path id="Layer" class="s49" d="m47.9 97.7c1.4-1.3 3-2.8 4.2-4.1q1.6-0.2 3.2-0.2c-0.8 0.4-1.7 0.9-2.5 1.7-1.2 1.2-3.5 2.1-4.9 2.6z"/>
	<path id="Layer" class="s49" d="m60.3 85.4c0.5-0.3 1.3-0.9 2.3-1.7q2.4 0.2 4.6 0.8c-0.2 0.4-0.2 0.9-0.6 1.9-0.7 1.8-2.8 1.8-3.9 1.4l-0.2-0.1c-1-0.9-2.7-0.9-4.4-0.5 0.8-0.8 1.6-1.5 2.2-1.8z"/>
	<path id="Layer" class="s50" d="m74.8 80.6c0.3-1.9 0.6-0.8 0.8-2.6 0.1-1.8 1.5-0.7 1.7-1.5 0.2-0.5 0.2-1.3 0.6-1.8 0.8 0.1 1 0.6 1.2 2.1 0.3 1.6-0.1 5.1-0.5 6.2-0.5 1.1-0.6 2.1-1.1 3.1-0.6 0.9-1.7 1.3-2.6 1.7-1 0.4-1.5 1-2.3 1.1-0.8 0.1 0-0.5 0.7-1.5 0.6-1 0.9-0.9 0.7-1.6-0.2-0.7-1-1.1-0.3-1.5 0.6-0.4-0.7-1.7-0.7-1.7 0 0 1.6-0.1 1.8-2z"/>
	<path id="Layer" class="s51" d="m74 74.4v0.1q-0.2 0.1-0.4 0.1v-0.1q0.2 0 0.4-0.1z"/>
	<path id="Layer" class="s51" d="m74.5 74.4v0.1q-0.2 0-0.4 0v-0.1q0.2 0 0.4 0z"/>
	<path id="Layer" class="s51" d="m73.6 74.5v0.1q-0.1 0-0.3 0.1v-0.1q0.1 0 0.3-0.1z"/>
	<path id="Layer" class="s48" d="m71 76.8c2.1-0.4 4.1-0.3 6.2-0.1-0.5 0.3-1.4-0.2-1.6 1-1.8-0.2-3.6-0.3-5.4-0.3q0.4-0.3 0.8-0.6z"/>
	<path id="Layer" class="s49" d="m68 79.4c0.4-0.3 1.2-1.1 2.2-2 1.8 0 3.6 0.1 5.4 0.3q0 0.1 0 0.3c-0.2 1.8-0.5 0.7-0.8 2.6q0 0.2 0 0.4c-2.7-0.4-5.5-0.5-8.2-0.4 0.7-0.6 1.2-1 1.4-1.2z"/>
	<path id="Layer" class="s49" d="m74.8 81c-0.2 0.6-0.5 0.9-0.8 1.2-2.8-0.7-5.7-0.9-8.6-0.7q0.6-0.5 1.2-0.9c2.7-0.1 5.5 0 8.2 0.4z"/>
	<path id="Layer" class="s48" d="m65.4 81.5c2.9-0.2 5.8 0 8.6 0.7-0.5 0.4-1 0.4-1 0.4 0 0-1.9-0.2-4.1 0.7-1 0.5-1.4 0.8-1.7 1.2q-2.2-0.6-4.6-0.8c0.9-0.6 1.9-1.4 2.8-2.2z"/>
	<path id="Layer" class="s49" d="m71 76.8c1.2-1 2.5-1.9 3.5-2.3 1.3-0.2 2.5 0.1 3.3 0.2h0.1c-0.4 0.5-0.4 1.3-0.6 1.8q0 0.1-0.1 0.2c-2.1-0.2-4.1-0.3-6.2 0.1z"/>
	<path id="Layer" class="s49" d="m47.3 95.6c1.3-1.1 2.6-2.3 3.2-3.9 0.6-1.5 3.5-4.1 5.1-4.9 1.5-0.9 1.6-2.8 2.9-4.3 1.3-1.5 2.4-1.1 3.4-2.3 0.9-1.3 4.6-4.3 5.9-5 0.8-0.4 2.1-0.4 3.3-0.4q0.8 0 1.6-0.1c-0.4 0.3-2.6 1.9-4.1 3.4-1.6 1.6-7.3 5.9-9.3 7.4-2 1.5-6.8 7-8.4 8.6-1.1 1.2-3.4 3.2-5.1 4.7-5.7 3.8 0.2-2.2 1.5-3.2z"/>
	<path id="Layer" class="s51" d="m73.2 74.6v0.1h-0.1l-0.1-0.1h0.2z"/>
	<path id="Layer" class="s35" d="m73.4 74.7l-0.1-0.1h-0.1l0.1 0.2z"/>
	<path id="Layer" class="s35" d="m74.1 74.6v-0.2h-0.1v0.2z"/>
	<path id="Layer" class="s35" d="m72.7 74.7q0.2 0 0.4 0-0.2 0-0.4 0z"/>
	<path id="Layer" class="s35" d="m72.7 74.8v-0.1 0.1q0.2 0 0.4 0l-0.1-0.2q-0.1 0-0.3 0z"/>
	<path id="Layer" class="s35" d="m74.5 74.5z"/>
	<path id="Layer" fill-rule="evenodd" class="s35" d="m74.5 74.5zm0 0v-0.1 0.1 0.1-0.1zm0 0z"/>
	<path id="Layer" class="s35" d="m50.9 94.1c1.6-1.6 6.4-7.1 8.4-8.6 2-1.5 7.7-5.8 9.3-7.4 1.5-1.5 3.7-3.1 4.1-3.4q0.2 0 0.4 0h0.1 0.1q0.2-0.1 0.3-0.1 0.2 0 0.4-0.1h0.1q0.2 0 0.4 0c-2.2 0.9-5.7 4.2-6.5 4.9-0.9 0.8-6.2 5.1-7.7 6-1.6 0.9-5.2 4.8-6 5.9-0.8 0.9-3.8 4-6.4 6.4-0.6 0.2-1 0.4-1.1 0.4q-0.2 0.1-0.3 0.2l-0.2 0.1-0.1 0.1-0.2 0.1v0.1l-0.2 0.1c1.7-1.5 4-3.5 5.1-4.7z"/>
	<path id="Layer" class="s52" d="m74.6 75.5c0.9 0 2.8 0.1 2.3 0.7l-0.1 0.3c0 0-1.5-0.1-2.9-0.1q-0.7 0-1.4 0-0.4 0.1-0.5 0.1c-0.4 0 1.4-0.4 2.5-0.5 1.2 0-2.5-0.4-0.4-0.5 0 0 0.2 0 0.5 0z"/>
	<path id="Layer" class="s53" d="m71 77.9c0 0 4.3 0.2 3 0.3q-0.4 0.1-0.9 0.1c-0.4 0-0.7 0-1 0-0.3-0.1-0.5-0.1-0.6-0.1-0.1 0 0.2 0.1 1.2 0.2 2.6 0.3 2.1 0.5-0.4 0.5-2.5 0 3.4 0.5 0.7 0.5-2.7 0.1-4.2 0.1-1.6 0.5 2.2 0.2 3.5 0.7 1.7 0.7q-0.5 0-1.4 0-0.6-0.1-0.9-0.1c-0.4 0-0.6 0.1-0.6 0.1q-0.3 0-0.7 0-0.1-0.1-0.7-0.1c-1.2 0-1.3-0.3 1.1-0.3 2.4-0.1-2.9-0.4-0.8-0.6 2.1-0.2 2.6-0.6 1.8-0.6-0.8 0-2.3-0.4-0.4-0.5 1.9-0.1-2.8-0.6 0.5-0.6z"/>
	<path id="Layer" class="s53" d="m69.5 80.6q0.4 0 0.7 0c0 0.1 0.2 0.2 0.5 0.3 0.5 0.2 1 0.4 0.5 0.4h-0.1c-1.6-0.1-4.8-0.3-3.1-0.4 1.2-0.1 1.7-0.2 1.5-0.3z"/>
	<path id="Layer" class="s30" d="m44.4 100.7c0 0 5.3-6.3 11.2-8.6 6-2.4 2.9-2.2 8.3-1.6 2.3 0.3 3.6 0.1 4.6-0.1 1.4-0.3 2.2-0.6 4.4 0.4 3.9 1.7 2.2 1.8 3.8 3.2 1.6 1.3 2.9 2.2 4.2 4.2 1.2 2 1.5 2.5 0.3 1.5-1.2-1-2.8-1-4.4-0.9-1.6 0.2-3.1 0.4-4-0.8-0.7-0.8-0.7-0.6-1.2-0.4-0.3 0.1-0.6 0.2-1.1 0.2q-0.3-0.1-0.6 0c-1.3 0-2.3 0-3-0.8-0.7-0.8-1.4-0.1-2.8-1-0.8-0.4-1.2-0.3-1.7-0.2-0.4 0.1-0.9 0.2-1.6-0.1-1.6-0.6-2.2-0.2-2.8 0.5-0.7 0.7-1.9 0.3-2.5 1.3-0.7 1.1-5.1 3.7-9 2 0 0-1.4 1.1-1.6 1.7-0.2 0.6-2.1 1.4-0.5-0.5z"/>
	<path id="Layer" class="s54" d="m79.9 99q0.2 0.1 0.4 0.1-0.2 0-0.4-0.1z"/>
	<path id="Layer" class="s33" d="m75.9 95.7c0.3 0 3.3 2.5 4.4 3.4q-0.2 0-0.4-0.1c-0.6-0.2-1.2-0.2-1.8-0.2q-0.2 0-0.4 0c0.5-0.6-1.6-2.3-1.8-3z"/>
	<path id="Layer" class="s54" d="m76.5 98.9q-0.6 0-1.2 0.1 0.6-0.1 1.2-0.1z"/>
	<path id="Layer" class="s33" d="m71.7 94.1c0.2 0 1 0.8 2.2 2.1 1.3 1.5 2 2.4 2.6 2.7q-0.6 0-1.2 0c-0.5-0.5-1.2-1.3-2.2-2.5-1.2-1.6-1.6-2.3-1.4-2.3z"/>
	<path id="Layer" class="s54" d="m54.6 98.3q-0.1 0.1-0.2 0.2 0.1-0.1 0.2-0.2z"/>
	<path id="Layer" class="s33" d="m49.6 98c0.6 0 1.6 0.1 3.1 0.2q1.2 0 1.9 0.1-0.1 0.1-0.2 0.2c-1.1 0.7-2.9 1.5-4.8 1.5q0.2 0 0.4 0c4.2-0.6 1-1.2-0.2-1.5-0.8-0.3-1.3-0.5-0.2-0.5z"/>
	<path id="Layer" fill-rule="evenodd" class="s54" d="m67.5 97.4l0.1 0.1zm-0.5-0.4q0.1 0.2 0.4 0.3-0.3-0.1-0.4-0.3zm0.4 0.3q0 0.1 0.1 0.1-0.1 0-0.1-0.1zm-7.9-1.9q0.5 0 1.1 0.2-0.6-0.2-1.1-0.2zm1.1 0.2q0.1 0.1 0.2 0.1-0.1 0-0.2-0.1zm-1.1-0.2h-0.2 0.2q0 0 0 0z"/>
	<path id="Layer" class="s33" d="m63.5 92.9h0.1l0.1 0.1c0.6 0.5 1.9 2.2 3.2 3.5q0.5 0.6 0.7 1l-0.1-0.1h-0.1q-0.2-0.1-0.5-0.4c-0.7-0.8-1.4-0.1-2.8-1-0.4-0.2-0.7-0.3-1-0.3-0.2 0-0.5 0.1-0.7 0.1-0.2 0.1-0.4 0.1-0.7 0.1q-0.4 0-0.9-0.2-0.8-0.3-1.3-0.3h-0.2-0.1q-0.2 0.1-0.4 0.2-0.3-0.7-0.8-1.6c-0.2-0.5-0.2-0.7 0-0.7 0.5 0 1.9 1.2 2.6 1.7q0.4 0.4 0.7 0.3c0.4 0 0.5-0.5 0.1-1.5-0.1-0.5-0.2-0.6-0.1-0.6 0.2 0 1 0.9 2 1.8 0.6 0.5 1.1 0.8 1.3 0.8 0.3 0 0.2-0.6-0.6-2-0.4-0.7-0.5-0.9-0.5-0.9z"/>
	<path id="Layer" class="s33" d="m53.9 95c0.6 0 2.3 1 3.5 1.5-0.4 0.2-0.9 0.2-1.3 0.5q-0.3 0.1-0.6 0.5-0.5-0.5-1.2-1.4c-0.7-0.8-0.7-1.1-0.4-1.1z"/>
	<path id="Layer" class="s33" d="m68.3 93.3c0.5 0 3.2 3 4.2 4.4q0.3 0.4 0.6 0.6-0.2-0.1-0.3-0.3c-0.4-0.4-0.6-0.6-0.7-0.6-0.2 0-0.3 0.1-0.5 0.2-0.3 0.1-0.6 0.2-1.1 0.2v-0.1h-0.1c-0.2-0.6-0.7-1.6-1.5-3-0.6-1-0.7-1.4-0.6-1.4z"/>
	<path id="Layer" class="s54" d="m64.2 90.6q0.8 0.1 1.5 0.1-0.7 0-1.5-0.1z"/>
	<path id="Layer" class="s33" d="m64.2 90.6q0.8 0.1 1.5 0.1c0 0-0.1 0.1-0.5 0.2-0.6 0.1-1.1 0.2-1.5 0.2-0.4 0-0.4-0.1 0.3-0.4q0.1-0.1 0.2-0.1z"/>
	<path id="Layer" class="s54" d="m59.6 90.3q-0.1 0-0.2 0.1 0.1-0.1 0.2-0.1zm1.8-0.1c0.4 0.1 1 0.1 1.7 0.2-0.7-0.1-1.3-0.1-1.7-0.2z"/>
	<path id="Layer" class="s55" d="m59.4 90.4c-0.6 0.3-1.6 0.8-3.7 1.6 2.1-0.8 3.1-1.3 3.7-1.6z"/>
	<path id="Layer" class="s33" d="m60.5 90.1c0.2 0 0.5 0 0.9 0.1 0.4 0.1 1 0.1 1.7 0.2-0.4 0.1-0.9 0.2-1.2 0.4-0.7 0.2-1.4 0.5-1.6 0.5 0 0 0.1-0.1 0.4-0.3 0.6-0.3 0.6-0.5 0.3-0.5-0.3 0-0.9 0.1-1.7 0.5-0.9 0.4-2.8 1.1-3.5 1.1l-0.1-0.1c2.1-0.8 3.1-1.3 3.7-1.6q0.1 0 0.2-0.1c0.3-0.1 0.6-0.2 0.9-0.2z"/>
	<path id="Layer" fill-rule="evenodd" class="s54" d="m75.8 92.9v-0.1zm-7.8-2.4q0.2 0 0.4-0.1c0.7-0.1 1.2-0.3 1.9-0.3 0.7 0 1.5 0.2 2.6 0.7-1.1-0.5-1.9-0.7-2.6-0.7-0.8 0-1.4 0.3-2.3 0.4z"/>
	<path id="Layer" class="s33" d="m70.3 90.1c0.7 0 1.5 0.2 2.6 0.7 0.8 0.4 1.4 0.6 1.8 0.9 0.7 0.5 0.9 0.8 1.1 1.1v0.1c-1.7-0.2-3.4-0.4-2.1-0.6 1.9-0.3 0.3-1-1-1q-0.4 0-0.7 0.1c-0.6 0.1-1.2 0.2-1.5 0.2-0.3 0-0.2-0.1 0.4-0.4 0.9-0.5 0.4-0.7-0.4-0.7q-0.4 0-0.8 0.1c-0.8 0.1-2.7 0.7-3.1 0.7-0.2 0 0-0.1 0.8-0.5q0.4-0.1 0.7-0.3 0.2 0 0.4-0.1c0.6-0.1 1.2-0.3 1.8-0.3z"/>
	<path id="Layer" class="s56" d="m66.3 92.5q0.6 0 1.1 0 0.2 0 0.4 0c-0.1 0.1-0.1 0.4 0.1 1.1 0.3 0.7 0.1 0.9-0.1 0.9-0.2 0-0.5-0.1-0.7-0.1-0.3-0.1-0.5-0.2-0.6-0.2-0.3 0-0.4 0.2 0 0.9 0.4 0.8 0.5 1 0.4 1-0.2 0-1.3-1.4-2.2-2.2-0.3-0.3-0.7-0.7-1-0.9l-0.1-0.1q-0.2-0.2-0.4-0.3c1-0.1 2.1-0.1 3.1-0.1zm-0.4-1.4c0.1 0 0 0.1-0.5 0.5l1.5 0.2c0 0 1.8-0.5 2.4-0.5 0.4 0 0.4 0.1-0.3 0.6l0.8 0.3c0 0 2-0.4 2.8-0.4 0.3 0 0.3 0.1 0 0.2-1.1 0.7-1.1 0.4-0.7 0.7l0.1 0.1c-1.8-0.6-3.9-0.9-6.6-0.9q-1 0-2.3 0.1c0.5-0.1 1-0.3 1-0.3 0 0 1.5-0.6 1.8-0.6zm-5.7-0.2c0.2 0 0.1 0.2-0.9 0.9-0.5 0.4-0.6 0.5-0.5 0.5 0.2 0 1.5-0.6 2.2-0.6 0.7 0 1.7-0.7 2-0.7 0.1 0 0 0.1-0.3 0.5-0.3 0.3-0.3 0.5-0.1 0.5q-0.6 0.1-1.3 0.1c-7.2 0.6-12.3 4.3-14.7 6.5v-0.1c0 0 5.4-4.9 10.1-5.9 0 0 2.6-1.4 3.1-1.6 0.2 0 0.4-0.1 0.4-0.1z"/>
	<path id="Layer" class="s56" d="m53.4 94.8c-0.2 0.1-0.2 0.3 0 0.6 0.4 0.9-0.3 1-1 1q-0.3 0-0.5 0-0.2 0-0.3 0c-0.3 0-0.3 0.1 0.5 0.4 1.6 0.8 1.6 0.9 0.7 0.9q-0.2 0-0.5 0-0.3 0-0.7 0-0.3 0-0.5 0c-2.4 0-3.6 0.3-2.3 0.7 1.2 0.3 1.4 1.2 0.2 1.2q-0.2 0-0.5-0.1c-0.9-0.1-1.4-0.3-1.6-0.6q0.5-0.4 1-0.8c1.6-1.3 3.4-2.4 5.5-3.3zm4.4-1.5q-0.1 0.2 0.1 0.6c0.2 0.5 0.1 0.7-0.3 0.7-0.1 0-0.3 0-0.5-0.1-0.2 0-0.4-0.1-0.5-0.1-0.2 0-0.3 0.2 0.1 0.6 0.3 0.4 0.2 0.5 0 0.5-0.3 0-0.8-0.2-1.4-0.4-0.6-0.2-1.2-0.4-1.6-0.4h-0.2q0.9-0.3 1.7-0.7 1.3-0.4 2.6-0.7zm13.2-0.2c1.2 0.3 2.4 0.8 3.6 1.3q-0.2 0-0.4 0c-0.2 0-0.2 0.2 0.2 0.8 0.8 1.1 1.3 1.8 1.1 1.8-0.1 0-0.5-0.3-1.3-1.1-1.1-1-2.5-2.3-3.2-2.8zm-10.3-0.3q0 0.2 0.1 0.6c0.3 0.8 0.6 1.4 0.4 1.4q-0.1 0-0.6-0.4c-0.5-0.5-1.4-1.1-2-1.3q1-0.2 2.1-0.3zm2.2-0.2q0 0.2 0.5 1c0.5 0.9 0.6 1.2 0.4 1.2-0.2 0-0.8-0.5-1.5-1.1q-0.7-0.7-1.1-0.9 0.8-0.1 1.6-0.2zm5.1 0q1.3 0.1 2.6 0.4c-0.1 0.1 0.1 0.4 0.4 1 1.1 1.7 2.2 3.3 2 3.3-0.1 0-0.4-0.3-1.2-1.2-1.6-1.8-3.2-3.4-3.8-3.5z"/>
	<path id="Layer" class="s49" d="m45.1 100.1c0 0 6-7.2 16.2-8 10.2-0.8 13.6 1.2 17.7 5.3-2.6-2.5-7.2-4.6-11.6-4.9-1.5-0.1-3 0-4.6 0.1-2.6 0.2-5.2 0.5-7.6 1.4-2.7 1.1-5.3 2.3-7.3 4.1-1.4 1.2-2.7 2-3.4 3.4z"/>
	<path id="Layer" class="s57" d="m45.1 100.1c0 0 6-7.2 16.2-8q2.3-0.2 4.1-0.2c7.1 0 10.1 2 13.6 5.5v0.1c-2.6-2.6-7.2-4.7-11.6-5q-0.5 0-1.1 0c-1.2 0-2.3 0.1-3.5 0.1-2.6 0.2-5.2 0.5-7.6 1.4-2.7 1.1-5.3 2.3-7.3 4.1-1.4 1.2-2.7 2-3.4 3.4l0.6-1.4-0.6 1.4c0.7-1.4 2-2.2 3.4-3.4 2-1.8 4.6-3 7.3-4.1 2.4-0.9 5-1.2 7.6-1.4 1.2-0.1 2.3-0.1 3.5-0.1q0.6 0 1.1 0c4.4 0.3 9 2.4 11.6 4.9v0.1c-3.5-3.6-6.5-5.6-13.6-5.6q-1.8 0-4.1 0.2c-5.1 0.4-9.1 2.4-11.9 4.3-1.4 1-2.5 1.9-3.2 2.6q-0.5 0.5-0.8 0.8-0.1 0.1-0.2 0.2l-0.1 0.1z"/>
	<path id="Layer" class="s30" d="m40.5 101.9c0 0 3.3-10.2 1.1-17.6-2.2-7.5 0.4-4.5-5.2-8.8-5.6-4.3-2.8-6-8.2-8-3.6-1.3-4.3-1-5.2-0.8-0.4 0.2-1 0.3-2 0.2-3.1-0.3-5.4-0.8-9-0.1-3.7 0.6-4.5 0.8-2.2 1 2.3 0.2 3.7 1.6 4.9 3.2 1.2 1.6 2.3 3.1 4.5 3 2.3-0.2 0.9 0.3 2.4 1.8 1.4 1.4 2.3 2.6 4 2.5 1.7 0 1.4 1.2 3.7 1.7 2.3 0.6 1.1 1.9 3.2 2.8 2.2 0.8 2.2 1.7 1.9 2.9-0.3 1.3 1.2 2 0.5 3.5-0.8 1.5-0.1 7.7 5.3 9.8 0 0-0.2 2.2-0.7 2.9-0.6 0.7 0 3.1 1 0z"/>
	<path id="Layer" class="s33" d="m11.3 68.1c2.3 0.2 9 0.9 8 1.2-1.1 0.3-5-0.1-5.3 0.8-0.8-0.8-1.6-1.6-2.7-2z"/>
	<path id="Layer" class="s33" d="m14.9 71.3c0.5 0.1 1.1 0.2 1.9 0.2 0.9 0 2.2-0.1 3.8-0.1q1.1-0.1 2-0.1c3.3 0 4 0.4-1.6 0.9-2.5 0.2-4.1 0.2-5.1 0.3q-0.5-0.6-1-1.2z"/>
	<path id="Layer" class="s33" d="m34.6 90.6q0.8 0.6 1.9 1.6c2.8 2.6 3.6 3.4 3.3 3.4-0.2 0-0.6-0.2-1.1-0.5-0.9-0.4-2.4-1.4-3-1.4-0.5 0-0.4 0.6 0.9 2.5q0.1 0.3 0.2 0.5c-1.6-2-2.2-4.5-2.2-6.1z"/>
	<path id="Layer" class="s58" d="m32.5 82.8c1.4 0.5 1.9 1.1 2 1.7-0.1-0.6-0.6-1.2-2-1.7z"/>
	<path id="Layer" class="s33" d="m33.1 77.7q0.2 0 0.3 0 0.1 0.1 0.3 0.1c0.2 0-0.1 0.2-1.4 0.4-4.3 0.9-3.9 1.5-1 1.7 2.9 0.1 5.4-0.1 3.2 0.6-2.3 0.7-2.6 1.6-0.9 1.9 1.7 0.2 6.6 0.5 3.5 1.4q-1.6 0.4-2.6 0.7c-0.1-0.7-0.6-1.2-2-1.7-2.1-0.9-0.9-2.2-3.2-2.8-2.2-0.5-2-1.7-3.5-1.7h-0.2l-0.2 0.1q-0.6-0.1-1-0.2c0.4-0.1 1-0.2 1.8-0.2 2.6-0.1 5.5-0.3 6.9-0.3z"/>
	<path id="Layer" class="s58" d="m34.8 87.4c0.3 0.5 0.4 1 0.1 1.7 0.3-0.7 0.2-1.2-0.1-1.7z"/>
	<path id="Layer" class="s33" d="m34.4 86.5c2.7 1 7.9 2.1 3.3 2.5-1.2 0.1-2.1 0.1-2.8 0.1 0.3-0.7 0.2-1.2-0.1-1.7-0.1-0.3-0.3-0.6-0.4-0.9z"/>
	<path id="Layer" class="s54" d="m21.6 75.8z"/>
	<path id="Layer" class="s33" d="m26.4 73.6c2.7 0 4.2 0.2 0.4 1-2.5 0.5-4.1 0.9-5.2 1.2-1.3-1.3-0.4-1.9-1.7-1.9q-0.3 0-0.7 0.1-0.1 0-0.2 0-0.2 0-0.4-0.1 0.6 0 1.2 0c1.6-0.2 4.5-0.3 6.6-0.3z"/>
	<path id="Layer" class="s33" d="m36 75.2z"/>
	<path id="Layer" class="s59" d="m34.6 74q0.6 0.6 1.4 1.2-0.8-0.6-1.4-1.2z"/>
	<path id="Layer" class="s33" d="m34.6 74q0.6 0.6 1.4 1.2 0.1 0.2 0.1 0.3c0.1 0.6 0.1 0.8 0 0.8-0.3 0-0.9-0.7-1.3-1.7-0.2-0.5-0.3-0.6-0.2-0.6z"/>
	<path id="Layer" class="s60" d="m40.4 79.1c0.2 0.7 0.3 2 1.2 5.1-0.9-3.1-1-4.4-1.2-5.1z"/>
	<path id="Layer" class="s33" d="m37.1 76.1l0.1 0.1c2.5 1.8 2.9 1.9 3.2 2.9 0.2 0.7 0.3 2 1.2 5.1-0.6-0.3-1.5-2.8-1.8-4.2-0.3-1.3-0.8-2.1-1.1-2.1-0.1 0-0.2 0.3-0.2 0.8 0 0.5 0 0.7 0 0.7-0.1 0-0.4-1-0.7-1.9-0.1-0.4-0.4-1-0.7-1.4z"/>
	<path id="Layer" fill-rule="evenodd" class="s33" d="m25.6 66.7q0.3 0.1 0.7 0.2-0.4-0.1-0.7-0.2zm-1.4-0.2q0 0 0 0 0 0 0 0 0 0 0 0zm0 0q0 0 0 0 0.2 0 0.4 0.1-0.2-0.1-0.4-0.1zm0 0q-0.2 0-0.3 0.1 0.1-0.1 0.3-0.1z"/>
	<path id="Layer" class="s34" d="m26.3 66.9q0.2 0.1 0.4 0.1-0.2 0-0.4-0.1z"/>
	<path id="Layer" class="s59" d="m24.6 66.6q0.4 0 1 0.1-0.6-0.1-1-0.1zm-0.7 0c-0.3 0-0.6 0.1-0.8 0.1 0.2 0 0.5-0.1 0.8-0.1z"/>
	<path id="Layer" class="s33" d="m24.2 66.5q0.2 0 0.4 0.1 0.4 0 1 0.1 0.3 0.1 0.7 0.2 0.2 0.1 0.4 0.1 0.6 0.2 1.5 0.5v0.1c3.4 1.2 3.6 2.3 4.6 4.1q0.1 0.4 0.2 0.9c0.2 0.8 0.2 1.1 0.1 1.1-0.2 0-1.3-2.6-1.8-3.4-0.4-0.7-1.1-1.5-1.5-1.5-0.3 0-0.4 0.3-0.3 0.9 0.1 0.6 0.1 0.8-0.1 0.8-0.2 0-0.6-0.7-1.2-1.6-0.5-1-2-2-2.6-2-0.4 0-0.5 0.4 0.1 1.2 0.2 0.4 0.2 0.6 0.1 0.6-0.3 0-1.5-1-2.7-2 0.2 0 0.5-0.1 0.8-0.1q0.1-0.1 0.3-0.1z"/>
	<path id="Layer" class="s56" d="m30.4 73.6q0.2 0.2 0.4 0.4c1.3 1.1 2.5 2.5 3.6 3.9q-0.3-0.1-0.7-0.1-0.1 0-0.3-0.1c-0.5 0-1.2 0-1.9-0.1q-0.4 0-0.8 0c-0.6 0-1.3 0-1.9 0.1-0.5 0-1.1 0-1.5 0-0.8 0-0.9-0.1 1-0.6 4.1-1-3.1-1.3 0.8-2.6 1.1-0.4 1.5-0.7 1.3-0.9zm-2.9-2q1.5 0.9 2.8 1.9c-0.5-0.3-2.4-0.3-4.8-0.3q-1.4 0-3 0-0.7 0-1.2 0c-3.5 0 0.5-0.5 4.6-1.2 1-0.1 1.5-0.3 1.6-0.4zm-5.4-2.4c1.7 0.5 3.4 1.2 4.9 2.1-1.2-0.2-4-0.4-6.4-0.5-4-0.2-2.6-0.4 0.7-0.8 1.8-0.2 1.5-0.6 0.8-0.8zm4.9-0.7c0.4 0 2.2 3.1 2.2 3.1l1 0.4c0-0.7 0.1-1 0.3-1 0.5 0 1.7 2.9 1.7 2.9l1.6 1.1c-0.1-0.6 0-0.9 0-0.9 0.3 0 1 2.1 1 2.1 0 0 0.2 0.7 0.4 1.3-3.1-3.7-5.9-6-8.7-7.4h0.1c0.3 0.1 0.4 0.1 0.5 0.1 0.1 0-0.1-0.2-0.2-1.3q0-0.4 0.1-0.4z"/>
	<path id="Layer" class="s61" d="m33.4 77.7q0.2 0.1 0.3 0.1-0.2 0-0.3-0.1z"/>
	<path id="Layer" fill-rule="evenodd" class="s56" d="m36.2 77.3c-0.1 0.5-0.3 0.7-0.4 0.7l-0.2-0.1q0.5 0.6 1 1.3c5.3 6.7 5.3 14.1 4.7 18.3h0.1c0.3-2 1.1-9.4-1.4-13.8 0 0-0.5-3.5-0.7-4.1-0.1-0.3-0.2-0.5-0.3-0.5-0.1 0-0.2 0.4-0.2 1.7-0.1 0.6-0.1 0.8-0.2 0.8-0.1 0-0.5-1.8-1.2-2.5-0.6-0.8-0.6-2.4-0.8-2.4-0.1 0-0.2 0.2-0.4 0.6zm1.2 6.5c-2.9 0.8 2.6 1.8-0.4 2.1-2.5 0.1 2.6 1.6 3.1 2.6q-0.2-1.1-0.6-2.2-0.5-1.5-1.2-2.9-0.3 0.2-0.9 0.4zm-1.9-3.1c-1.9 0.7-3.2 0.9-1.1 1.1 1 0.1 2.5 0.3 3.4 0.7q-0.7-1.1-1.5-2.2-0.2 0.2-0.8 0.4zm-2.5-2.1c-3.5 0.6-1.7 0.8 0.8 1 1 0.1 1.7 0.2 2.2 0.3q-0.6-0.9-1.3-1.7h-0.1c-0.2 0.1-0.7 0.2-1.6 0.4zm6.4 10.6c-2.7 0.7 0.9 2.7 0.3 2.7-0.1 0-0.4-0.1-1-0.3-1.1-0.4-1.8-0.6-2-0.6-0.5 0 0.5 0.8 1.8 2.3 1.6 1.7 2.4 2.8 1.8 2.8q-0.2 0.1-0.7-0.2c-0.4-0.3-0.9-0.4-1.2-0.4-0.9 0-1.3 0.7-0.1 1.6q1.2 0.1 2.4 0.3 0-0.4 0.1-0.9c0.3-2.6 0-5.2-0.6-7.8 0 0.2-0.3 0.3-0.8 0.5z"/>
	<path id="Layer" class="s62" d="m40.7 100.7c0 0 3.7-11.6-4.1-21.5-7.8-10-13.2-11.2-22-11.4 5.4 0.1 12.1 2.5 16.2 6.2 1.4 1.2 2.7 2.8 3.9 4.2 2 2.5 3.9 5.2 4.8 8.1 1.1 3.4 1.7 6.8 1.3 10.2-0.3 2.2-0.2 4.2-1.4 6.1z"/>
	<path id="Layer" class="s35" d="m93 48.5c0-0.5 0-0.9-0.5-0.9-0.6 0-3 0.8-4.2 1-1.3 0.3-2.7 0.8-3.8 0.8-1.1 0.1-3 0.9-3.7 1.7-0.6 0.8-0.9 0.7-2.3 1.2-1.3 0.5-4.4 1.9-5.5 3.7-1.1 1.8-2 2.2-3.3 2.7-1.3 0.6-3 1.5-4.5 3.9-1.6 2.3-0.6 1.8-1.6 2.3-1 0.5-2.3 2.4-2.9 3.3-0.6 1-2.3 3.5-3.5 4-1.2 0.6-4.1 7.7-5.3 9.9-1.2 2.2-4.4 8.3-5 9.4-0.6 1-2.2 5.3-3.3 7.1-1.1 1.9-2.2 3.8 0.3 1.7 2.5-2 6.8-6.9 6.9-7.9 0.1-1.1 1.3-2.3 2-3.2 0.7-0.9 1.1-1.7 2.1-2.1 0.9-0.5 2.5-1.6 3.5-3 1-1.4 2.7-1.5 4.9-5.3 2.1-3.7 4.4-5.8 6.1-6.4 1.6-0.7 3.2-2.5 4.3-3.3 1.1-0.8 2.1-1 3.6-3.9 0 0 0.1-0.7 0.5-0.8 0.4-0.1 1.4-0.8 1.5-1.5 0-0.7 0-1.6 0.4-2.3 0.4-0.7 1.2-2.6 1.8-2.7 0.6-0.1 2.3-0.8 2.7-1.4 0.4-0.6 1.5-0.7 2-1.4 0.6-0.8 1.3-2.1 1.9-2.3 0.6-0.2 1.8-0.8 2.4-1.2 0.9-0.6 1.8-1.3 2.2-2.3 0.1-0.1 0.2-0.4 0.3-0.8z"/>
	<path id="Layer" class="s63" d="m65 76.1q-0.5 0.8-1.1 1.7 0.6-0.9 1.1-1.7z"/>
	<path id="Layer" class="s64" d="m61.7 81c-0.5 0.6-1 1.1-1.4 1.4 0.4-0.3 0.9-0.8 1.4-1.4z"/>
	<path id="Layer" class="s65" d="m65 76.1q-0.5 0.8-1.1 1.7-0.3 0.5-0.6 1c-0.6 1-1.1 1.7-1.6 2.2-0.5 0.6-1 1.1-1.4 1.4-1 0.3-2.4 0.9-3.1 0.9-0.5 0 0-0.3 0.6-0.6 0.6-0.4 1.3-0.7 0.9-0.7q-0.1 0-0.6 0.1-0.7 0.2-1 0.2c-0.8 0 1.1-1.1 2.7-1.7 2.1-0.8-1.5-0.1 0.8-0.9 1.3-0.4 1.5-0.6 1.2-0.6-0.2 0-0.9 0.1-1.7 0.2q-0.4 0.1-0.5 0.1c-0.7 0 1-0.7 2.8-1.5 0.8-0.4 0.6-0.5 0.3-0.5h-0.1-0.1c-0.4 0-0.6 0 1.2-0.7q0.7-0.3 1.3-0.6z"/>
	<path id="Layer" class="s63" d="m79.3 62.9c-0.1 0.4-0.4 0.8-0.7 1 0.3-0.2 0.6-0.6 0.7-1zm0.2-1.8c-0.2 0.5-0.2 1.2-0.2 1.7 0-0.5 0-1.2 0.2-1.7z"/>
	<path id="Layer" class="s65" d="m79.5 61.1c-0.2 0.5-0.2 1.2-0.2 1.7v0.1c-0.1 0.4-0.4 0.8-0.7 1v0.1c-1 0.2-2.8 0.4-4.1 0.4q-0.5 0-0.8 0c-1.4-0.2 2.3-2 5.8-3.3z"/>
	<path id="Layer" class="s63" d="m80.9 58.4c-0.2 0.4-0.5 0.8-0.7 1.3 0.2-0.5 0.5-0.9 0.7-1.3z"/>
	<path id="Layer" class="s65" d="m80.9 58.4c-0.2 0.4-0.5 0.8-0.7 1.3-0.9 0-1.8 0.1-2.3 0.1h-0.1c-1.1 0 0.4-0.5 3.1-1.4z"/>
	<path id="Layer" class="s63" d="m69.4 72.4q-0.2 0-0.4 0.1 0.2-0.1 0.4-0.1zm7.6-6.6c-1.4 2.3-2.3 2.5-3.3 3.3 1-0.8 1.9-1 3.3-3.3z"/>
	<path id="Layer" class="s65" d="m77 65.8c-1.4 2.3-2.3 2.5-3.3 3.3-1.1 0.8-2.7 2.6-4.3 3.3q-0.2 0-0.4 0.1c-1.1 0.3-2.8 0.8-3.8 0.9q-0.4 0.1-0.6 0.1c-0.7 0 1.2-0.8 3.4-1.4 1.5-0.5 1.7-0.7 1-0.7-0.3 0-1 0.1-1.7 0.3q-0.5 0.1-0.7 0.1c-0.7 0 0.9-0.8 3.6-1.9 1.3-0.5 1.2-0.5 0.9-0.5q-0.2 0-0.4 0-0.2 0-0.3 0c-0.3 0-0.3-0.1 1.2-0.6 1.8-0.6 2.1-0.8 1.7-0.8-0.4 0-1.8 0.3-2.9 0.3h-0.1c-1.2 0 3.1-1.3 6.7-2.5z"/>
	<path id="Layer" class="s65" d="m85.8 55.5c-0.3 0.2-0.7 0.3-1 0.5-0.2 0.1-0.5 0.3-0.6 0.5l-0.2 0.2q-0.1 0.1-0.3 0.2c-0.8 0.1-1.7 0.2-2.4 0.2q-0.4 0-0.7-0.1c-1.5-0.2 1.3-0.9 5.2-1.5z"/>
	<path id="Layer" class="s63" d="m74.8 54.2c-0.7 0.6-1.4 1.2-1.8 1.8-0.5 0.8-0.9 1.3-1.4 1.7 0.5-0.4 0.9-0.9 1.4-1.7 0.4-0.6 1.1-1.2 1.8-1.8z"/>
	<path id="Layer" class="s65" d="m75.1 54.1c-0.5 2.2-1 5.2-1.3 5.2q-0.1 0-0.2-0.4c-0.2-1.1-0.5-1.9-0.7-1.9-0.1 0-0.2 0.4-0.1 1.5 0.2 1.7 0 2.5-0.2 2.5q-0.2 0-0.3-0.9c-0.2-0.8-0.4-1.7-0.7-2.4 0.5-0.4 0.9-0.9 1.4-1.7 0.4-0.6 1.1-1.2 1.8-1.8q0.2-0.1 0.3-0.1z"/>
	<path id="Layer" class="s63" d="m87.3 53.5q-0.1 0.2-0.2 0.3 0.1-0.1 0.2-0.3z"/>
	<path id="Layer" class="s65" d="m87.3 53.5q-0.1 0.2-0.2 0.3c-0.3 0.4-0.5 0.8-0.8 1.1q-0.2 0-0.4 0c-1.3 0-2.7 0-3.1-0.2-0.8-0.2 2.4-0.8 4.5-1.2z"/>
	<path id="Layer" class="s63" d="m80.8 51.2q-0.3 0.3-0.6 0.5 0.3-0.2 0.6-0.5z"/>
	<path id="Layer" class="s65" d="m80.8 51.2c-0.5 1.1-0.9 2-1 2.3 0 0.3-0.1 0.5-0.2 0.5-0.1 0-0.3-0.5-0.2-2 0.4-0.1 0.6-0.2 0.8-0.3q0.3-0.2 0.6-0.5z"/>
	<path id="Layer" class="s63" d="m69.2 59c-1.2 0.6-2.7 1.5-4 3.6 1.3-2.1 2.8-3 4-3.6z"/>
	<path id="Layer" class="s66" d="m63.6 64.9c-1 0.5-2.3 2.4-2.9 3.3-0.4 0.6-1.2 1.8-2 2.7 0.8-0.9 1.6-2.1 2-2.7 0.6-0.9 1.9-2.8 2.9-3.3z"/>
	<path id="Layer" class="s65" d="m69.2 59c0.2 1.2 0.7 4.1 0.5 4.1q0 0-0.2-0.5c0 0-0.4-2.1-0.6-2.1q-0.1 0-0.1 0.2c-0.2 0.7-0.1 1.9-0.2 1.9 0 0-0.1-0.1-0.2-0.5q-0.3-0.9-0.5-0.9-0.2 0-0.3 1.3c0 0.9 0 1.4-0.1 1.4q-0.1 0-0.3-0.7c-0.3-0.6-0.6-0.9-0.8-0.9-0.2 0-0.3 0.2-0.3 0.4 0.1 0.7-0.4 3.1-0.4 3.1 0 0 0 0.7-0.2 0.7-0.1 0-0.2-0.2-0.3-0.7-0.3-0.7-0.3-1-0.4-1 0 0 0 0.4-0.2 1.3-0.3 1.3-0.6 2.3-0.7 2.3-0.1 0-0.1-0.2 0-0.6 0.1-0.9-0.2-1.4-0.5-1.4-0.2 0-0.4 0.2-0.5 0.9 0 1.1 0.2 2.8 0 2.8q-0.1 0-0.3-0.4c-0.3-0.5-0.6-0.8-0.8-0.8-0.3 0-0.5 0.4-0.6 1.4 0 1.3-0.3 2.7-0.4 2.7-0.1 0-0.1-0.2-0.1-0.7 0-1-0.1-1.5-0.3-1.5-0.2 0-0.5 0.4-0.7 1.5-0.4 1.6-0.7 3.2-0.8 3.2-0.1 0-0.1-0.2-0.2-0.7 0-0.9 0-2.4 0-3.9 0.8-0.9 1.6-2.1 2-2.7 0.6-0.9 1.9-2.8 2.9-3.3 1-0.4 0.1 0 1.3-2q0.1-0.1 0.3-0.3c1.3-2.1 2.8-3 4-3.6z"/>
	<path id="Layer" class="s67" d="m87.9 50.5c0.5 0-0.6 0.5-1.7 1-1.1 0.5-2.2 1-1.8 1q0.1 0 0.4 0c0.6-0.2 1-0.3 1.2-0.3 0.4 0-0.9 0.6-2.4 1.2-1.7 0.6-3.7 2-2.5 2q0.2 0 0.6 0 0.7-0.1 0.9-0.1c0.7 0-0.8 0.5-2.4 1-1.8 0.5-3.8 1.6-2 1.6q0.3 0 0.6 0c0.8-0.1 1.3-0.1 1.4-0.1 0.3 0-0.9 0.2-2.4 0.8-2.2 0.9-2.4 1.6-1.8 1.6h0.1c0.2 0 0.5 0 0.7 0 0.3-0.1 0.5-0.1 0.6-0.1 0.2 0 0.2 0-0.2 0.2-0.7 0.3-3.2 1.3-2.8 1.3 0.1 0 0.4-0.1 0.9-0.2 0.8-0.2 1.3-0.3 1.4-0.3 0.5 0-0.8 0.6-2.5 1.4-2.5 1.1-4.3 2.3-1.5 2.4 2.7 0 0.4 0.1-1.7 0.5-1.5 0.3-2 0.7-1.2 0.7 0.4 0 1.1-0.1 2.1-0.3 0.9-0.2 1.4-0.2 1.5-0.2 0.6 0-1.3 0.6-3.2 1.3-2.5 1-4.1 1.7-2.9 1.7q0.1 0 0.3 0 0.4-0.1 0.7-0.1c1 0 1.1 0.2-0.6 0.5-1.5 0.3-2.2 0.9-1.3 0.9q0.4 0 1.2-0.1 0.7-0.2 1-0.2c0.5 0-0.8 0.5-2.2 1-1.6 0.7-3 1.3-2.1 1.3q0.2 0 0.5 0 0.6-0.1 1-0.1c0.6 0 0.2 0.3-1.2 0.8-1.5 0.6-3 1.5-2 1.5q0.3 0 1-0.1c0.8-0.2 1.3-0.2 1.5-0.2 0.5 0-0.3 0.4-1.7 0.8-1.6 0.6-3.2 1.2-2.3 1.2q0.2 0 0.6-0.1 0.6 0 0.9 0c1 0 0.4 0.4-1.2 1.1-1.6 0.7-4 2-3.3 2q0.2 0 0.8-0.2 0.8-0.2 1-0.2c0.7 0-0.9 0.9-2 1.3-1.3 0.6 1.1 0.4 0 0.8-0.9 0.3-3 2.7-3.1 2.7q0 0 0.3-0.4c1-1.1 1-5.8 1.6-5.8q0.1 0 0.4 0.6c0.2 0.4 0.3 0.6 0.4 0.6 0.1 0 0.2-0.7 0.2-1.4 0-0.7 0-1.4 0.2-1.4 0.1 0 0.2 0.1 0.3 0.5 0.4 0.7 0.6 1 0.8 1 0.4 0 0.6-1.2 0.9-2.6 0.2-1 0.3-1.4 0.5-1.4 0.1 0 0.3 0.5 0.6 1.3q0.2 0.5 0.4 0.5c0.3 0 0.4-1.4 0.8-2.8 0.3-1 0.3-1.5 0.4-1.5 0 0 0.1 0.4 0.5 1q0.2 0.2 0.3 0.2c0.2 0 0.3-0.5 0.4-1 0.1-0.5 0.1-1 0.2-1q0.1 0 0.2 0.4 0.2 0.5 0.3 0.5c0.2 0 0.4-2.5 0.6-3.8q0-0.4 0.1-0.4c0 0 0.1 0.5 0.2 1 0.1 0.5 0.2 1 0.4 1q0 0 0.2-0.1c0.5-0.9 0.7-3.3 0.7-3.3 0.1 0 0.1 0.2 0.1 0.6 0 0.8 0.1 1.2 0.3 1.2 0.2 0 0.5-0.6 0.7-1.4 0.2-1.1 0.5-1.7 0.6-1.7q0.1 0 0 0.5c0 0.7 0.3 1.4 0.5 1.4 0.1 0 0.2-0.2 0.2-0.6 0-0.9 0.2-1.6 0.3-1.6 0 0 0.1 0.2 0.1 0.6q0.1 0.5 0.4 0.5c0.4 0 1-1 1.1-3.1 0-1 0.1-1.4 0.3-1.4 0.2 0 0.6 1.3 0.7 2 0 0.5 0.2 0.6 0.5 0.6 0.5 0 1.2-0.5 1.2-1.4 0-0.9 0-1.4 0.1-1.4q0.1 0 0.4 0.7 0.1 0.4 0.2 0.4c0.2 0 0.3-1 0.7-2.3 0.3-0.9 0.5-1.4 0.6-1.4 0.1 0 0.1 0.4 0.3 1.3 0.1 0.4 0.2 0.6 0.2 0.6 0.1 0 0.1-1.5 0.4-2.6 0.3-1.1 0.5-2 0.6-2 0.1 0 0.1 0.2 0.1 0.7 0.1 0.8 0.2 1.2 0.4 1.2 0.1 0 0.3-0.4 0.4-1.2 0.1-0.8 0.2-1.4 0.4-1.4 0.2 0 0.3 0.4 0.5 1.1q0.2 0.9 0.5 0.8c0.4 0 0.9-1.2 1.8-3 0.6-1.3 1.1-1.7 1.3-1.7 0.3 0 0.3 0.6 0 1.2-0.2 0.2-0.1 0.3 0.1 0.3 1 0 4.7-1.9 4.7-1.9q0.4 0 0.5 0z"/>
	<path id="Layer" class="s36" d="m45.5 96.4c0.2-0.3 0.6-0.8 1.2-1.6 1.1-1.8 3.2-4.9 6.9-10.5 7.4-11.3 29.1-31.2 29.1-31.2l0.3 0.3c0 0-1.3 1.2-3.5 3.3-2.2 2-5.1 4.8-8.3 8-6.3 6.4-13.6 14.2-17.3 19.8-7.3 11.2-8.3 12.5-8.4 12.5l-0.3-0.2c0 0 0.1-0.1 0.3-0.4z"/>
	<path id="Layer" class="s68" d="m50.5 102.3q0.5 0.4 0.8 0.7-0.4-0.3-0.8-0.7z"/>
	<path id="Layer" class="s69" d="m37.2 97.1q0.6 0 1.1 0-0.5 0-1.1 0z"/>
	<path id="Layer" class="s70" d="m41.6 97.6q0.3 0 0.7 0.1-0.4-0.1-0.7-0.1z"/>
	<path id="Layer" class="s71" d="m41.3 97.5h0.1-0.1z"/>
	<path id="Layer" class="s70" d="m44.8 98.5h0.1z"/>
	<path id="Layer" class="s72" d="m45.7 98.9q0.1 0 0.3 0.1-0.2-0.1-0.3-0.1z"/>
	<path id="Layer" fill-rule="evenodd" class="s69" d="m46.5 99.2q0.2 0.1 0.4 0.2-0.2-0.1-0.4-0.2zm-0.5-0.2l0.1 0.1-0.1-0.1z"/>
	<path id="Layer" class="s73" d="m46.1 99.1q0.2 0 0.4 0.1-0.2-0.1-0.4-0.1z"/>
	<path id="Layer" class="s74" d="m46.1 99.1z"/>
	<path id="Layer" class="s70" d="m44.9 98.5q0.3 0.2 0.7 0.3-0.4-0.1-0.7-0.3z"/>
</svg>