<svg version="1.2" xmlns="http://www.w3.org/2000/svg" viewBox="0 0 100 135" width="100" height="135">
	<title>flower_in_a_pot_10-svg</title>
	<style>
		.s0 { fill: #aa6b28 } 
		.s1 { fill: #2e1010 } 
		.s2 { fill: #f9a84c } 
		.s3 { fill: #7c4317 } 
		.s4 { fill: #fab76a } 
		.s5 { fill: #de9342 } 
		.s6 { fill: #6f3b14 } 
		.s7 { fill: #f9a72b } 
		.s8 { fill: #c7883c } 
		.s9 { fill: #584521 } 
		.s10 { fill: #403215 } 
		.s11 { fill: #6c562b } 
		.s12 { fill: #775e30 } 
		.s13 { fill: #d09c5d } 
		.s14 { fill: #7c6232 } 
		.s15 { fill: #463618 } 
		.s16 { fill: #de9225 } 
		.s17 { fill: #54401d } 
		.s18 { fill: #3d2e12 } 
		.s19 { fill: #654e21 } 
		.s20 { fill: #fab64f } 
		.s21 { fill: #875723 } 
		.s22 { fill: #3c2c13 } 
		.s23 { fill: #2b200c } 
		.s24 { fill: #493719 } 
		.s25 { fill: #543f1c } 
		.s26 { fill: #2f230e } 
		.s27 { fill: #392911 } 
		.s28 { fill: #291d0a } 
		.s29 { fill: #453213 } 
		.s30 { fill: #9fd198 } 
		.s31 { fill: #6eb778 } 
		.s32 { fill: #63ab5b } 
		.s33 { fill: #459648 } 
		.s34 { fill: #a8d38c } 
		.s35 { fill: #92c374 } 
		.s36 { fill: #8cca88 } 
		.s37 { fill: #5aa969 } 
		.s38 { fill: #37b34a } 
		.s39 { fill: #38884b } 
		.s40 { fill: #5fc26e } 
		.s41 { fill: #0a6e15 } 
		.s42 { fill: #0b5415 } 
		.s43 { fill: #11681e } 
		.s44 { fill: #a3d5a0 } 
		.s45 { fill: #4da049 } 
		.s46 { fill: #318638 } 
		.s47 { fill: #095210 } 
		.s48 { fill: #b2daad } 
		.s49 { fill: #b9dca3 } 
		.s50 { fill: #6faf4d } 
		.s51 { fill: #60a140 } 
		.s52 { fill: #3b8c3a } 
		.s53 { fill: #338428 } 
		.s54 { fill: #206f1f } 
		.s55 { fill: #12771f } 
	</style>
	<path id="Layer" class="s0" d="m61.3 109.3l-2.8 20.7c0 2.8-6.2 5-13.8 4.9-7.6-0.1-13.7-2.5-13.7-5.3l-3.2-22.1z"/>
	<path id="Layer" class="s1" d="m61.3 109.3l-2.9 20.7c0 1.3-1.4 2.6-3.8 3.4-2.4 0.9-5.7 1.4-9.3 1.4q-0.3 0-0.6 0c-3.8 0-7.2-0.6-9.6-1.6-2.5-0.9-4-2.2-4-3.5v-0.1l-3.2-22 33.4 1.8v-0.1l0.1-0.1-33.6-1.8h-0.1v0.1l3.3 22.1v0.1c0 1.4 1.5 2.7 4 3.7 2.5 0.9 5.9 1.5 9.7 1.6q0.3 0 0.6 0c3.7 0 7-0.5 9.4-1.4 2.4-0.9 3.9-2.1 3.9-3.6h-0.1l0.1 0.1 2.8-20.8v-0.1z"/>
	<path id="Layer" class="s2" d="m61.3 109.3l-2.8 20.7c0 2.8-6.2 5-13.8 4.9-7.6-0.1-13.7-2.5-13.7-5.3l-3.2-22.1z"/>
	<path id="Layer" class="s3" d="m61.3 109.3l-2.9 20.7c0 1.3-1.4 2.6-3.8 3.4-2.4 0.9-5.7 1.4-9.3 1.4q-0.3 0-0.6 0c-3.8 0-7.2-0.6-9.6-1.6-2.5-0.9-4-2.2-4-3.5v-0.1l-3.2-22 33.4 1.8v-0.1l0.1-0.1-33.6-1.8h-0.1v0.1l3.3 22.1v0.1c0 1.4 1.5 2.7 4 3.7 2.5 0.9 5.9 1.5 9.7 1.6q0.3 0 0.6 0c3.7 0 7-0.5 9.4-1.4 2.4-0.9 3.9-2.1 3.9-3.6h-0.1l0.1 0.1 2.8-20.8v-0.1z"/>
	<path id="Layer" class="s4" d="m31.5 113.3l2.1 14.6c0 0 0.9 4.6 6.5 5.8q1 0.2 1.9 0.2c4.8 0 8.8-4 9.2-8.6 0.4-5.7 0.4-10.4 0.4-10.4 0 0-3.4 0.5-7.8 0.5-3.9 0-8.5-0.4-12.3-2.1z"/>
	<path id="Layer" class="s5" d="m61.1 110.7c-1 0.8-2.3 1.6-4 2.2q-2.1 0.8-4.7 1.3 0.7 0.1 1.7 0.1c0.9 0 2.1-0.1 3.4-0.3 0 0 0.1-0.1 0.2-0.1 0.2 0 0.5 0.3 0.5 1.5 0 2-1.9 14-1.9 14 0 0-0.3 3.1-4.7 4.3-1.4 0.4-3.8 0.7-6.4 0.7-5.2 0-11.4-1.2-14.2-5.4l0.1 0.6v0.1c0 1.3 1.5 2.6 4 3.5 2.4 1 5.8 1.6 9.6 1.6q0.3 0 0.6 0c3.6 0 6.9-0.5 9.3-1.4 2.4-0.8 3.8-2.1 3.8-3.4z"/>
	<path id="Layer" class="s6" d="m61.2 110.6q-0.1 0-0.1 0.1l-2.7 19.3c0 1.3-1.4 2.6-3.8 3.4-2.4 0.9-5.7 1.4-9.3 1.4q-0.3 0-0.6 0c-3.8 0-7.2-0.6-9.6-1.6-2.5-0.9-4-2.2-4-3.5v-0.1l-0.1-0.6q0-0.1-0.1-0.2l0.1 0.8c0 2.8 6.1 5.2 13.7 5.3q0.3 0 0.6 0c7.3 0 13.2-2.1 13.2-4.9z"/>
	<path id="Layer" class="s7" d="m27 103.6l3.2 0.1c3.3-1.8 8.6-3 14.6-3 6.7 0 12.6 1.5 15.6 3.7 1.2-0.4 2.5-0.8 2.5-0.8l-0.4 4.5c-0.4 3.7-8.2 6.7-17.7 6.7-9.6 0-17.5-3.1-17.7-6.8l-0.1-0.1v-4.1z"/>
	<path id="Layer" class="s3" d="m27 103.6v0.1l3.2 0.1h0.1c3.2-1.8 8.5-3 14.5-3 6.7 0 12.5 1.5 15.5 3.6h0.1c1.3-0.3 2.5-0.8 2.5-0.8h-0.1l-0.4 4.5h0.1v-0.1l-0.1 0.1c-0.2 1.8-2.2 3.4-5.4 4.6-3.1 1.3-7.5 2-12.2 2-4.8 0-9.2-0.8-12.3-2-3.2-1.2-5.2-2.9-5.4-4.8v-4.1h-0.1-0.1l0.1 0.1 0.1-0.1v-0.2h-0.1-0.1v0.2h0.1l0.1-0.1h-0.1l-0.1 0.1v4.1 0.1h0.1 0.1-0.1c0.1 1.9 2.2 3.6 5.4 4.9 3.2 1.2 7.6 2 12.4 2 4.8 0 9.1-0.8 12.3-2 3.2-1.2 5.3-2.9 5.5-4.8h-0.1v0.1l0.1-0.1 0.4-4.5v-0.1h-0.1c0 0-1.3 0.4-2.5 0.8v0.1-0.1c-3-2.2-8.9-3.7-15.6-3.7-6 0-11.4 1.2-14.6 3v0.1l0.1-0.1-3.3-0.1h-0.1v0.1z"/>
	<path id="Layer" class="s2" d="m27 103.6c0 3.9 8 7.1 18 7.1 9.9 0 17.9-3.2 17.9-7.1 0-3.9-8-7.1-17.9-7.1-10 0-18 3.2-18 7.1z"/>
	<path id="Layer" class="s3" d="m27 103.6h-0.1c0 2 2.1 3.8 5.3 5.1 3.3 1.3 7.8 2.1 12.8 2.1 4.9 0 9.4-0.8 12.7-2.1 3.2-1.3 5.3-3.1 5.3-5.1 0-2-2.1-3.8-5.3-5.1-3.3-1.3-7.8-2.1-12.7-2.1-5 0-9.5 0.8-12.8 2.1-3.2 1.3-5.3 3.1-5.3 5.1h0.1 0.1c0-1.9 2-3.7 5.2-4.9 3.2-1.3 7.7-2.1 12.7-2.1 4.9 0 9.4 0.8 12.6 2.1 3.3 1.2 5.2 3 5.2 4.9 0 1.9-1.9 3.6-5.2 4.9-3.2 1.3-7.7 2.1-12.6 2.1-5 0-9.5-0.8-12.7-2.1-3.2-1.3-5.2-3-5.2-4.9z"/>
	<path id="Layer" class="s8" d="m27.6 103.4c0 3.6 7.7 6.4 17.3 6.4 9.6 0 17.4-2.8 17.4-6.4 0-3.5-7.8-6.4-17.4-6.4-9.6 0-17.3 2.9-17.3 6.4z"/>
	<path id="Layer" class="s3" d="m27.6 103.4h-0.1c0 1.9 2 3.5 5.1 4.7 3.2 1.1 7.5 1.8 12.3 1.8 4.8 0 9.2-0.7 12.3-1.8 3.2-1.2 5.1-2.8 5.1-4.7 0-1.8-1.9-3.4-5.1-4.6-3.1-1.1-7.5-1.8-12.3-1.8-4.8 0-9.1 0.7-12.3 1.8-3.1 1.2-5.1 2.8-5.1 4.6h0.1 0.1c-0.1-1.6 1.9-3.2 5-4.4 3.1-1.2 7.4-1.9 12.2-1.9 4.8 0 9.1 0.7 12.2 1.9 3.2 1.2 5.1 2.8 5.1 4.4 0 1.7-1.9 3.3-5.1 4.5-3.1 1.1-7.4 1.9-12.2 1.9-4.8 0-9.1-0.8-12.2-1.9-3.1-1.2-5.1-2.8-5-4.5z"/>
	<path id="Layer" class="s9" d="m56.1 102.5c0 0 0.3-0.8-2.5-1.8-2.8-1-3.4 0.7-3.4 0.7 0 0 0-0.7-1.5-1.7-1.5-0.9-3.7 0.6-3.7 0.6-2.4-1.1-4.3 1.4-4.3 1.4-2.2-2.2-6 0-6 0-3.8-0.9-4.8 2.3-4.8 2.3-0.9-0.1-1.6 0.2-2.1 0.7 1.9 2.8 8.6 4.9 16.6 5.1 8.7 0.3 16-1.9 17.3-5-1-1-2.8-1.3-2.8-1.3-0.8-1.2-2.8-1-2.8-1z"/>
	<path id="Layer" class="s10" d="m56.1 102.5c0.3-0.9-2-1.7-2.5-1.9-1-0.4-2.8-0.6-3.4 0.6-0.1 0.2-0.1 0.2 0 0.2 0 0 0-0.1 0 0 0-0.3-0.1-0.5-0.3-0.7-0.4-0.7-1.2-1.1-1.9-1.3-0.7-0.2-1.5 0.1-2.1 0.4q-0.5 0.2-0.9 0.4c0.1 0-1.1-0.2-1-0.2-0.8 0-1.5 0.2-2.3 0.7-0.3 0.2-0.6 0.4-0.8 0.7-0.4 0.4-0.4-0.1-0.9-0.3-1.6-0.7-3.3-0.4-4.9 0.3-0.4 0.2-0.8 0.1-1.2 0.1q-0.3 0-0.7 0c-0.9 0.1-1.6 0.3-2.3 0.9-0.4 0.3-0.8 0.8-1 1.4-0.1 0.2-1.8 0.6-2.2 0.8v0.1c1.4 1.9 3.9 2.8 6 3.6 3.5 1.1 7.1 1.5 10.7 1.6 3.8 0.1 7.6-0.3 11.2-1.2 2.2-0.6 5.1-1.7 6.2-3.9h-0.1c-0.9-0.8-2.1-0.9-3-1.6-0.8-0.6-1.7-0.8-2.7-0.7-0.1 0 0.1 0 0.1 0 1.1-0.1 2 0.9 3 1.1 1 0.2 2.9 0.7 2.1 1.9-0.3 0.4-0.7 0.7-1.1 1-2.7 2.1-6.7 2.7-10 3.1-4.6 0.5-9.2 0.2-13.7-0.7-1.9-0.4-3.8-1-5.6-1.9q-1-0.5-1.9-1.2-0.4-0.3-0.7-0.7c-0.9-0.9 1.7-1.1 1.8-1.1 0.7-2.1 2.8-2.6 4.7-2.3 0.2 0 0.6-0.3 0.8-0.3 1.7-0.8 3.7-1 5.2 0.3h0.1q0.4-0.4 0.8-0.8c1.2-1 1.8-0.6 3.4-0.6 0.3 0.1 0.8-0.3 1-0.5 1.3-0.6 4.1-0.1 4.1 1.6l0.1 0.1c0.3-0.7 0.9-1 1.5-1.1-0.4 0.1 4.7 0.6 4.3 2.1z"/>
	<path id="Layer" class="s11" d="m34.9 102.3c0 0-3.1-0.6-3.7 1.1-0.5 1.6-2.6 0.7-1.3 2.1 1.3 1.4 3.3 1.5 4.2 0.7 0.9-0.7 1.2-1.8 3-1.7 1.8 0.2 0.7-1.2-0.4-1.2-1-0.1 1-1.4 1.8-1.5 0.9-0.1-1.8-1-3.6 0.5z"/>
	<path id="Layer" class="s11" d="m42.7 103.9c0 0-0.7-0.9-2.8-0.9-2.1-0.1-0.9 0.8-1 1.2-0.1 0.4 1.3 1.2 1.3 1.2 0 0 0.6-1.4 2.5-1.5z"/>
	<path id="Layer" class="s11" d="m41.8 102c-0.3-0.1 1.3-1.7 2.8-1.2 0.7 0.2 1.3 0.1 2-0.1 0.7-0.2 1.4-0.4 2.1 0.1 1.2 0.9 0.7 1.7 0.7 1.7 0 0-3.9-0.1-4.3 1.6 0 0-1.2-2-3.3-2.1z"/>
	<path id="Layer" class="s11" d="m52 103.9c0 0-0.3-0.1-0.8-0.1-1.2-0.2-3.6-0.4-4.5 0.8 0 0-0.5 0.4 0.5 1.1 0.9 0.8 1.6 1 1.5 2 0 0 1.3-2.8 6.1-1.6 4.9 1.2 5.4-0.9 4.4-1.5-1-0.6-2.9 0.3-2.9 0.3 0 0-0.8-1.9-4.3-1z"/>
	<path id="Layer" class="s12" d="m54.9 102.3c0 0-1.1-1.2-2.5-0.9-1.5 0.2 2.9 2.2 2.5 0.9z"/>
	<path id="Layer" class="s11" d="m46.3 107.1c0 0-1.6-1.2-3.7-0.7 0 0-0.2 2.1-0.6 2-0.5 0-1.3-2.9-3.8-2.7-2.5 0.3-3.6 1.3-2.6 2.1 1.1 0.9 6 1.9 9 1.7 3-0.3 2.4-1.6 1.7-2.4z"/>
	<path id="Layer" class="s11" d="m52.9 107.1c0 0-2.1-0.3-3.1 0.9-0.9 1.3 3.4 1 5 0.3 1.5-0.7-1.7-1.2-1.9-1.2z"/>
	<path id="Layer" class="s13" d="m45.9 97.6c-7.8 0-13.5 2.1-13.5 2.1-1.2 0.6-0.1 1.5 1.4 1.5 0.7 0 1.5-0.2 2.3-0.6 0.6-0.4 1.2-0.5 1.7-0.5 0.6 0 1.1 0.1 1.5 0.2 0.4 0.2 0.8 0.3 1.2 0.3 0.3 0 0.5-0.1 0.7-0.4 0.5-0.6 1.3-0.7 2-0.7 0.8 0 1.6 0.2 1.6 0.2 0 0 0.2-0.8 2.4-0.8q0.2 0 0.4 0c2.6 0.1 2.9 1.4 2.9 1.4 0.2-0.8 2.1-0.8 2.4-1.5 0.3-0.7-0.8-0.7-0.8-0.7-2.2-0.4-4.2-0.5-6.2-0.5z"/>
	<path id="Layer" class="s14" d="m35 102.9c-0.1-0.2-0.9-0.7-2.4-0.1-1.6 0.6-0.7 1.4 0.5 1.2 1.1-0.2 2.1-0.7 1.9-1.1z"/>
	<path id="Layer" class="s14" d="m41 103.3c0 0-1.1-0.2-0.9 0.3 0.2 0.4 1.9-0.1 0.9-0.3z"/>
	<path id="Layer" class="s14" d="m49 101.9c0 0-0.4-1.3-1.7-1.1-1.3 0.2 1.7 1.9 1.7 1.1z"/>
	<path id="Layer" class="s14" d="m55.8 104.9c0 0-2.5-1.3-2.5-0.1 0 1.2 3.4 0.9 2.5 0.1z"/>
	<path id="Layer" class="s15" d="m49 108.6q-0.1 0-0.2 0 0.1 0.1 0.1 0.1 0.1 0 0.1 0 0 0 0-0.1z"/>
	<path id="Layer" class="s16" d="m62.3 106.3c-0.9 3.9-8.2 7-8.2 7 0 0 4.2-1.3 5.8-2.3 1.7-1 2.2-2.8 2.2-2.8z"/>
	<path id="Layer" class="s9" d="m34 103.3c0 0-1.1-1-2.4 0.2-1.2 1.1-0.6 2.2 0.7 2.1 1.3-0.2 3-1.2 1.7-2.3z"/>
	<path id="Layer" class="s10" d="m34.1 103.3c-0.5-0.4-1.2-0.5-1.7-0.4-0.9 0.3-2 1.5-1.3 2.3 0.5 0.7 1.8 0.4 2.4 0.1 0.4-0.2 0.8-0.5 1-0.9 0.2-0.4-0.1-0.8-0.4-1.1h-0.2c0.7 0.6 0.5 1.3-0.2 1.8-0.7 0.4-2 0.8-2.5 0-0.5-0.8 0.5-1.8 1.1-2.1 0.6-0.2 1.2 0 1.6 0.3z"/>
	<path id="Layer" class="s17" d="m34.3 103.8q-0.1 0.1-0.2 0.3 0.1 0 0.2 0 0.1-0.1 0-0.3z"/>
	<path id="Layer" class="s18" d="m34.3 103.6q0 0 0 0.2 0.1 0.2 0 0.3 0.1 0.1 0.2 0.1 0-0.3-0.2-0.6z"/>
	<path id="Layer" class="s17" d="m31 104.6q0 0.2 0.2 0.5c0.2 0.3 0.5 0.5 1 0.5 0.3 0 0.7-0.1 1-0.3-0.2-0.2-0.1-0.4 0-0.6q-0.1 0-0.2 0c0 0-0.6 0.3-1.1 0.3q-0.2 0-0.4-0.1-0.4-0.1-0.5-0.3z"/>
	<path id="Layer" class="s18" d="m31.2 104c-0.5 0.9 0 1.6 0.9 1.6q0.1 0 0.2 0 0.5-0.1 0.9-0.2 0-0.1 0-0.1c-0.3 0.2-0.7 0.3-1 0.3-0.5 0-0.8-0.2-1-0.5q-0.2-0.3-0.2-0.5 0-0.2 0.2-0.5z"/>
	<path id="Layer" class="s19" d="m33 103.2c-0.8 0-1.3 0.7-1.3 0.7q-0.2 0.2-0.2 0.4 0 0.1 0.2 0.1c0.3 0 0.7-0.2 0.9-0.3 0.2-0.1 1-0.4 1-0.6q0.1-0.1-0.3-0.3-0.1 0-0.3 0z"/>
	<path id="Layer" class="s9" d="m34.6 104.4c0 0-0.6-0.6-1.1 0-0.6 0.7-0.3 1.2 0.4 1.2 0.6-0.1 1.3-0.7 0.7-1.2z"/>
	<path id="Layer" class="s10" d="m34.7 104.3c-0.2-0.1-0.6-0.3-0.8-0.2-0.5 0.2-1.1 0.8-0.7 1.3 0.6 0.6 2.3-0.3 1.5-1.1l-0.2 0.1c0.8 0.7-0.8 1.5-1.2 0.9-0.2-0.4 0.2-0.8 0.4-1 0.3-0.2 0.6-0.1 0.8 0.1z"/>
	<path id="Layer" class="s9" d="m57.2 105.3c0 0-1.1-1-2.4 0.2-1.2 1.2-0.6 2.2 0.7 2.1 1.3-0.1 3-1.2 1.7-2.3z"/>
	<path id="Layer" class="s10" d="m57.3 105.3c-0.5-0.3-1.1-0.5-1.6-0.4-0.9 0.2-2.1 1.5-1.4 2.3 0.6 0.7 1.7 0.4 2.4 0.1 0.4-0.2 0.8-0.5 1-0.9 0.2-0.4-0.1-0.8-0.4-1.1-0.1 0-0.2 0-0.2 0 1.7 1.5-2.1 3.1-2.8 1.7-0.3-0.7 0.6-1.6 1.1-1.9 0.6-0.3 1.3-0.2 1.7 0.2 0.1 0.1 0.2 0.1 0.2 0z"/>
	<path id="Layer" class="s17" d="m57.5 105.8c-0.1 0.2-0.3 0.7-1.3 0.9 0 0-0.6 0.3-1.1 0.3q0 0-0.1 0-0.2 0.1-0.6 0.2c0.2 0.3 0.6 0.4 1 0.4 1.1 0 2.5-0.9 2.1-1.8z"/>
	<path id="Layer" class="s18" d="m57.5 105.6q0 0 0 0.2c0.4 0.9-1 1.8-2.1 1.8-0.4 0-0.8-0.1-1-0.4q0 0-0.1 0c0.2 0.3 0.6 0.4 1 0.4q0.1 0 0.2 0c1.2-0.1 2.7-1 2-2z"/>
	<path id="Layer" class="s19" d="m56.2 105.2q-0.2 0-0.4 0c0.3 0.2 0.5 0.4 0.3 0.7q0 0.1 0 0.1c0.3-0.1 0.8-0.3 0.7-0.5q0.1-0.1-0.3-0.2-0.1-0.1-0.3-0.1z"/>
	<path id="Layer" class="s9" d="m57.8 106.4c0 0-0.6-0.6-1.1 0.1-0.6 0.6-0.3 1.1 0.4 1.1 0.6-0.1 1.3-0.7 0.7-1.2z"/>
	<path id="Layer" class="s10" d="m57.9 106.4c-0.2-0.2-0.6-0.4-0.8-0.3-0.5 0.1-1.1 0.8-0.7 1.3 0.6 0.7 2.3-0.2 1.5-1h-0.2c0.8 0.7-0.8 1.5-1.2 0.9-0.2-0.3 0.1-0.6 0.2-0.8 0.3-0.3 0.7-0.4 1-0.1z"/>
	<path id="Layer" class="s20" d="m27.8 106.5c0 0 0 1.8 0.2 2.2 0.1 0.5 0.6 1.1 0.6 1.1 4.6 3.5 11.7 4.2 16.8 4.2 3.2 0 5.6-0.3 5.8-0.3 0.7 0 0.4-2.8 0.4-2.8q-3.9 0.4-7 0.4c-13.6 0-16.8-4.8-16.8-4.8z"/>
	<path id="Layer" class="s21" d="m40.8 101.5q-0.1 0-0.2 0 0 0 0 0 0 0.1 0 0.1 0.1 0 0.2-0.1z"/>
	<path id="Layer" fill-rule="evenodd" class="s22" d="m41.8 101.9c2.1 0.2 3.3 2.2 3.3 2.2 0.4-1.6 3.9-1.6 4.2-1.6q0.1 0 0.1 0c0 0 0-0.1 0.1-0.3q0.1 0.1 0.1 0.2c0.3 0.6 2 1 3.1 1.3q-0.3 0.1-0.7 0.2 0 0 0 0c0 0-0.3-0.1-0.8-0.1-0.4-0.1-0.9-0.1-1.5-0.1-1.2 0-2.4 0.1-3 0.9 0 0-0.5 0.4 0.5 1.1 0.9 0.8 1.6 1 1.5 2 0 0 0.9-1.9 3.8-1.9q0.8 0 1.8 0.2-0.1 0.1-0.1 0.3-0.6-0.2-1.4-0.2-0.6 0-1.2 0.1c-2.6 0.5-3.4 2.3-2.8 2.4-0.6 0.1-1.2 0.2-1.8 0.4q-0.6 0.1-1.2 0.2c1.6-0.4 1.1-1.4 0.5-2.1 0 0-1.1-0.8-2.5-0.8q-0.6 0-1.2 0.1c0 0-0.2 2-0.6 2-0.5 0-1.2-2.7-3.5-2.7q-0.1 0-0.3 0c-2.3 0.2-3.4 1.1-2.8 1.9-0.3-0.1-0.7-0.3-1.2-0.6q-0.4-0.2-0.6-0.4 0.3-0.2 0.5-0.4c0.9-0.7 1.2-1.7 2.7-1.7q0.2 0 0.3 0 0.2 0.1 0.3 0.1c1.4 0 0.3-1.3-0.7-1.3-0.4-0.1-0.3-0.3 0.1-0.7 1-0.3 2.4-0.8 3.7-1.1q0.1 0.1 0.2 0.2h0.1q0.1-0.1 0.3-0.3 0.6-0.1 1.2-0.1c-0.4 0.3-0.6 0.6-0.5 0.6zm-1.8 3.6c-0.1-0.1-0.9-0.6-2-0.6-0.7 0-1.5 0.3-2.3 1-0.8 0.6-1 1.2-1 1.2q0.5-0.7 1-1.2c0.4-0.3 1.1-0.6 2.1-0.6q0.7 0 1.5 0.2c0 0 2.5 1 2.7 2.6 0 0 0.4-1.6-0.5-1.9-0.5-0.1 0.4-0.3 1.6-0.3 1.3 0 2.9 0.2 4 1.2 0.5 0.4 0.8 0.6 1 0.6 0.5 0-0.6-1.8-2.2-2.3 0 0 0.7-1.6 2.7-1.9 0.7-0.1 0.6-0.2 0.1-0.2-0.9 0-2.8 0.3-3.5 1.6 0 0-1.7-2.8-5-2.8q-0.2 0-0.4 0c0 0 3.4 1.1 3.6 2 0.2 0.8-2.2 0.5-2.8 1.3 0 0-0.2 0.1-0.4 0.1q-0.1 0-0.2 0zm2.7-1.6c0 0-0.7-0.9-2.8-0.9q-0.1 0-0.2 0c-1.8 0-0.7 0.8-0.8 1.2-0.1 0.4 1.3 1.2 1.3 1.2 0 0 0.6-1.4 2.5-1.5zm-3 5.2c-0.8 0-1.5-0.2-2.1-0.4q-0.1-0.1-0.1-0.1c0.7 0.2 1.4 0.4 2.2 0.5zm0.9-7.6q0 0 0 0 0 0 0 0z"/>
	<path id="Layer" class="s23" d="m41.1 101.4q-0.2 0-0.3 0.1-0.1 0.1-0.2 0.1 0 0 0-0.1 0 0 0 0-0.1 0-0.1 0 0.1 0.1 0.2 0.2h0.1q0.1-0.1 0.3-0.3z"/>
	<path id="Layer" class="s24" d="m36.8 102.6q-0.4 0.2-0.8 0.3c-1.6 0.5 0 0.9-1.2 1.6 0.4 0.5-0.4 1.1-1 1.1q-0.3 0-0.5-0.1-0.4 0.5 0.3 1.1 0.3-0.2 0.5-0.4c0.9-0.7 1.2-1.7 2.7-1.7q0.2 0 0.3 0 0.2 0.1 0.3 0.1c1.4 0 0.3-1.3-0.7-1.3-0.4-0.1-0.3-0.3 0.1-0.7z"/>
	<path id="Layer" fill-rule="evenodd" class="s24" d="m39.9 103c2.1 0 2.8 0.9 2.8 0.9-1.9 0.1-2.5 1.5-2.5 1.5 0 0-1.4-0.8-1.3-1.2 0.1-0.4-1-1.2 0.8-1.2q0.1 0 0.2 0zm1.1 0.3c0 0-0.3 0-0.5 0-0.3 0-0.5 0-0.4 0.3 0 0.1 0.2 0.1 0.5 0.1 0.5 0 1.1-0.2 0.4-0.4z"/>
	<path id="Layer" class="s24" d="m42.4 101.3q0 0-0.1 0c-0.4 0.3-0.6 0.6-0.5 0.7 2.1 0.1 3.3 2.1 3.3 2.1 0.4-1.6 3.9-1.6 4.2-1.6q0.1 0 0.1 0c0 0 0-0.1 0.1-0.3q-0.2-0.2-0.5-0.2 0 0.1-0.3 0.1c-0.2 0-0.4 0-0.7-0.2-0.3 0.1-0.6 0.1-0.6 0.1-0.9-0.3-1.7 0.2-3.8-0.5q-0.5-0.2-1.2-0.2z"/>
	<path id="Layer" class="s24" d="m49.7 103.7c-1.2 0-2.4 0.1-3 0.9 0 0-0.5 0.4 0.5 1.1 0.9 0.8 1.6 1 1.5 2 0 0 0.9-1.9 3.8-1.9q0.8 0 1.8 0.2 0.1-0.2 0.3-0.4c-0.7 0-1.3-0.3-1.3-0.8 0-0.3 0.1-0.5 0.4-0.5-0.1-0.2-0.4-0.4-1-0.6q-0.3 0.1-0.7 0.2 0 0 0 0c0 0-0.3-0.1-0.8-0.1-0.4-0.1-0.9-0.1-1.5-0.1z"/>
	<path id="Layer" class="s24" d="m38.5 105.7q-0.1 0-0.3 0c-2.3 0.2-3.4 1.1-2.8 1.9 0.6 0.3 1.1 0.5 2.1 1 0.7 0.2 1.4 0.4 2.2 0.5 1.6 0.1 3.4 0 4.4 0.2q0.3 0.1 0.6 0.1 0.6 0 1.1-0.2c1.6-0.4 1.1-1.4 0.5-2.1 0 0-1.1-0.8-2.5-0.8q-0.6 0-1.2 0.1c0 0-0.2 2.1-0.6 2.1-0.5-0.1-1.2-2.8-3.5-2.8z"/>
	<path id="Layer" class="s25" d="m40.5 103.3c-0.3 0-0.5 0-0.4 0.3 0 0.1 0.2 0.1 0.5 0.1 0.5 0 1.1-0.2 0.4-0.4 0 0-0.3 0-0.5 0z"/>
	<path id="Layer" class="s25" d="m48.5 101.9q-0.3 0-0.5 0c0.3 0.2 0.5 0.2 0.7 0.2q0.3 0 0.3-0.1-0.2-0.1-0.5-0.1z"/>
	<path id="Layer" class="s25" d="m53.7 104.3c-0.3 0-0.4 0.2-0.4 0.5 0 0.5 0.6 0.8 1.3 0.8q0.3-0.3 0.7-0.5c-0.8-0.2-1.7-0.3-1.6-0.7q0-0.1 0-0.1z"/>
	<path id="Layer" fill-rule="evenodd" class="s26" d="m35.7 105.9c-0.8 0.6-1 1.2-1 1.2q0.5-0.7 1-1.2zm4.5-3.8q-0.2 0-0.4 0c0 0 3.4 1.1 3.6 2 0.2 0.8-2.2 0.5-2.8 1.3 0 0-0.2 0.1-0.4 0.1q-0.1 0-0.2 0c-0.1-0.1-0.9-0.6-2-0.6-0.7 0-1.5 0.3-2.3 1 0.4-0.3 1.1-0.6 2.1-0.6q0.7 0 1.5 0.2c0 0 2.5 1 2.7 2.6 0 0 0.4-1.6-0.5-1.9-0.4-0.1 0.4-0.3 1.6-0.3 1.3 0 3 0.2 4 1.2 0.5 0.4 0.8 0.6 1 0.6 0.5 0-0.6-1.8-2.2-2.3 0 0 0.7-1.6 2.7-1.9 0.7-0.1 0.6-0.2 0.1-0.2-0.9 0-2.8 0.3-3.5 1.6 0 0-1.7-2.8-5-2.8z"/>
	<path id="Layer" class="s22" d="m53.3 106.7c-3.1 0-4.1 1.7-4.3 1.9q0.3 0 0.6 0 0.1 0 0.2 0 0 0 0 0c-0.1-0.1-0.2-0.3 0-0.6 0.7-0.8 1.9-1 2.6-1 0.3 0 0.5 0.1 0.5 0.1 0 0 0.6 0 1.2 0.2q0.1 0 0.2-0.1-0.2-0.2-0.2-0.4-0.4-0.1-0.8-0.1z"/>
	<path id="Layer" class="s24" d="m52.4 107c-0.7 0-1.9 0.2-2.6 1-0.2 0.3-0.1 0.5 0 0.6q0.1 0 0.2 0c2.1 0 2.2-0.8 3.7-1.2q0.2-0.1 0.4-0.1c-0.6-0.2-1.2-0.2-1.2-0.2 0 0-0.2-0.1-0.5-0.1z"/>
	<path id="Layer" class="s26" d="m52.8 106.1q-0.6 0-1.2 0.1c-2.6 0.5-3.3 2.3-2.8 2.4q0.1 0 0.2 0c0.2-0.2 1.2-1.9 4.3-1.9q0.4 0 0.8 0.1 0-0.3 0.1-0.5-0.6-0.2-1.4-0.2z"/>
	<path id="Layer" class="s22" d="m34.7 104.5q-0.1 0.1-0.2 0.1-0.8 0.4-1.1 0.8 0.1 0.1 0.4 0.1c0.5 0 1.1-0.5 0.9-1z"/>
	<path id="Layer" class="s23" d="m34.8 104.5q-0.1 0-0.1 0c0.2 0.5-0.4 1-0.9 1q-0.3 0-0.4-0.1-0.1 0-0.1 0.1 0.2 0.1 0.5 0.1c0.6 0 1.4-0.6 1-1.1z"/>
	<path id="Layer" class="s22" d="m55.5 105.1q-0.1 0-0.1 0c-0.4 0.3-1.1 0.9-1.2 1.5q0.1 0.2 0.5 0.4 0.2 0 0.3 0c0.5-0.1 0.7-0.4 1.1-1q-0.2 0.1-0.3 0.2c-0.2 0.1-0.6 0.2-0.9 0.2q-0.2 0-0.2-0.1 0-0.1 0.2-0.4c0 0 0.4-0.5 0.9-0.7q-0.1 0-0.3-0.1z"/>
	<path id="Layer" class="s23" d="m55.3 105.1q-0.4 0.2-0.7 0.5-0.2 0.2-0.3 0.4-0.1 0.1-0.1 0.3-0.1 0.2-0.1 0.5 0 0.2 0.2 0.4 0 0 0 0c-0.2-0.3-0.2-0.7 0.1-1.2v0.1q-0.2 0.3-0.2 0.5c0.1-0.6 0.8-1.2 1.2-1.5q0 0 0.1 0-0.1 0-0.2 0z"/>
	<path id="Layer" class="s27" d="m54.2 106.6q0 0.2 0.1 0.4 0.1 0.1 0.1 0.2 0.4-0.1 0.6-0.2-0.1 0-0.3 0-0.4-0.2-0.5-0.4z"/>
	<path id="Layer" class="s28" d="m54.4 106c-0.3 0.5-0.3 0.9-0.1 1.2q0.1 0 0.1 0 0-0.1-0.1-0.2-0.1-0.2-0.1-0.4 0-0.2 0.2-0.5z"/>
	<path id="Layer" class="s29" d="m55.8 105.2c-0.5 0.2-0.9 0.7-0.9 0.7q-0.2 0.3-0.2 0.4 0 0.1 0.2 0.1c0.3 0 0.7-0.1 0.9-0.2q0.1-0.1 0.3-0.2 0 0 0-0.1c0.2-0.3 0-0.5-0.3-0.7z"/>
	<path id="Layer" class="s30" d="m45.8 105.8c0 0-3.4-23.6 3.5-41.7 6.8-18.1 18.1-24.3 25-17.5 0 0-28.2 8.5-26.8 59.2z"/>
	<path id="Layer" fill-rule="evenodd" class="s31" d="m47.5 106.1h-1.7c-0.1 0-0.3-0.1-0.3-0.3 0-0.2-3.3-23.8 3.4-41.8 4.8-12.6 12.1-20.4 19.2-20.4 2.4 0 4.6 0.9 6.5 2.7q0.1 0.2 0.1 0.4-0.1 0.1-0.3 0.2c0 0-7 2.2-13.8 10.5-6.2 7.7-13.5 22.3-12.7 48.4q0 0.1-0.1 0.2-0.1 0.1-0.3 0.1zm-1.4-0.7h1.1c-0.7-26 6.6-40.7 12.9-48.4 5.9-7.2 11.8-9.9 13.6-10.6q-2.5-2.1-5.6-2.2c-6.8 0-13.9 7.7-18.5 20-6.3 16.8-3.8 38.5-3.5 41.2z"/>
	<path id="Layer" class="s32" d="m47.3 95.3q-0.2 1.4-0.5 2.9c-0.1 1.9-0.2 3.4-0.3 4.7-0.1 1.1-0.1 2-0.2 2.5h0.9q-0.1-0.7-0.2-1.7 0-0.1 0-0.4c-0.1-1.9-0.1-4.2 0.2-6.7q0.1-0.7 0.1-1.3zm20.8-51.1c-6.8 0-13.9 7.7-18.5 20q-0.7 1.8-1.2 3.7c-0.1 5.2-0.3 10.4-0.6 15.2q0.2 3.2 0 6.6c1.5-12.8 5.2-21.9 9-28.1-4.8 4.5-7 14.4-7.6 14.4-0.2 0-0.2-0.5-0.2-1.8 0.3-8.1 4.7-20.8 14.8-26.1 3-1.6 5.5-2.2 7.4-2.2q1.2 0 2.1 0.2-2.3-1.9-5.2-1.9z"/>
	<path id="Layer" fill-rule="evenodd" class="s33" d="m47.2 105.8h-1q0-0.2 0.1-0.4h0.9q0 0.2 0 0.4zm4.7-33c-1.8 4.6-3.2 10.2-4.1 17.1v-0.2c1.5-12.8 5.2-21.9 9-28.1q0.4-0.4 0.9-0.7c-2.2 3.2-4.2 7.2-5.8 11.9zm22.2-26.5q-0.4-0.1-0.8-0.2-2.3-1.9-5.2-1.9c-6.8 0-13.9 7.7-18.5 20q-0.7 1.8-1.2 3.7 0-0.6 0-1.3 0.4-1.2 0.8-2.5c5.1-13.3 12.5-20.2 18.9-20.2 2.2 0 4.2 0.8 6 2.4z"/>
	<path id="Layer" class="s34" d="m44.8 105.8c0 0 6.8-51.2-8.7-81.5 0 0 11.4 9.4 11.9 32.1 0.5 22.8-2.2 49.4-2.2 49.4z"/>
	<path id="Layer" fill-rule="evenodd" class="s35" d="m44.8 106.2q-0.2 0-0.3-0.1-0.1-0.1-0.1-0.3c0.1-0.5 6.6-51.5-8.6-81.3-0.1-0.1-0.1-0.3 0.1-0.4 0.1-0.1 0.3-0.1 0.4 0 0.1 0.1 11.5 9.7 12 32.3 0.5 22.5-2.1 49.2-2.1 49.4 0 0.2-0.2 0.3-0.3 0.3l-1.1 0.1zm-7.5-80.2c13.5 28.8 8.5 74.7 7.9 79.5h0.4c0.2-3 2.6-27.9 2.1-49.1-0.4-17.4-7.3-27-10.4-30.4z"/>
	<path id="Layer" class="s36" d="m42.9 105.6c0 0 3.1-39.5-17.4-61.2 0 0 31.5 17 19.3 61.4z"/>
	<path id="Layer" fill-rule="evenodd" class="s37" d="m44.8 106.2h-0.1l-1.9-0.3c-0.1 0-0.3-0.2-0.2-0.4 0-0.4 2.8-39.5-17.3-60.9-0.1-0.1-0.1-0.3 0-0.4 0.1-0.2 0.2-0.2 0.4-0.1 0.1 0 8 4.4 14.3 14.1 5.9 9 11.5 24.6 5.1 47.7 0 0.2-0.2 0.3-0.3 0.3zm-1.5-0.9l1.2 0.2c6.2-22.7 0.7-38-5-46.9-4.3-6.6-9.3-10.7-12.1-12.6 17.6 20.8 16.1 55.6 15.9 59.3z"/>
	<path id="Layer" class="s38" d="m48.5 106c0 0 0.1-20.1 14.8-24 14.8-3.8 20.2 11.9 20.2 11.9 0 0 3.1-19.7-15.9-20.3-18.9-0.5-21.3 24-20.1 32.2z"/>
	<path id="Layer" fill-rule="evenodd" class="s39" d="m48.5 106.4l-0.1-0.1-0.9-0.2c-0.2 0-0.3-0.1-0.3-0.3-0.8-5.2-0.2-18.6 6.7-26.6 3.5-4.1 8.1-6.1 13.7-5.9 5.6 0.2 9.8 2 12.6 5.3 5 6.1 3.7 15 3.7 15.4-0.1 0.1-0.2 0.2-0.3 0.2-0.2 0.1-0.3 0-0.4-0.2 0-0.1-4.4-12.3-15.4-12.3q-2.1 0-4.4 0.6c-14.3 3.8-14.6 23.5-14.6 23.7q0 0.2-0.1 0.3-0.1 0.1-0.2 0.1zm-0.6-0.9l0.2 0.1c0.2-3 1.5-20.4 15.1-23.9q2.4-0.6 4.6-0.6c9.3 0 14 8.2 15.5 11.4 0.2-2.7 0.1-9-3.6-13.5-2.7-3.2-6.8-4.9-12.1-5q-0.3 0-0.6 0c-5.1 0-9.4 1.9-12.6 5.7-6.6 7.6-7.3 20.7-6.5 25.8z"/>
	<path id="Layer" class="s36" d="m47.3 103.6c0 0-1.6-39.8 37.4-48.6 0 0-36.9-12.5-37.4 48.6z"/>
	<path id="Layer" fill-rule="evenodd" class="s37" d="m47.3 104c-0.2 0-0.3-0.2-0.3-0.3 0-0.1-0.1-1.1 0-2.8 1.1-41.2 19.4-47.3 30.2-47.3 4.4 0 7.4 1 7.6 1 0.1 0.1 0.2 0.2 0.2 0.4 0 0.1-0.1 0.3-0.3 0.3-32.5 7.4-36.5 36.8-37 45.6q0 1.4 0 2.7c0 0.2-0.2 0.4-0.4 0.4zm29.9-49.7c-9.7 0-25.5 5.1-28.9 37.2 2.7-12.3 10.8-30.5 35-36.6-1.3-0.3-3.5-0.6-6.1-0.6z"/>
	<path id="Layer" class="s39" d="m48.6 98.7h-0.1c-0.2-0.1-0.3-0.2-0.3-0.4 0.1-0.6 2.2-15 10.8-20.2 3.6-2.2 7.7-2.4 12.4-0.8 0.2 0 0.3 0.2 0.2 0.4-0.1 0.2-0.3 0.3-0.4 0.2-4.5-1.5-8.4-1.3-11.8 0.8-8.3 5-10.5 19.5-10.5 19.7 0 0.1-0.2 0.3-0.3 0.3z"/>
	<path id="Layer" class="s40" d="m65.9 77.8c-4.8 0-8.1 3.7-8.1 3.7-0.7 0.9-2.2 2.6-1.8 2.6 0.2 0 0.7-0.4 1.9-1.3 2.8-2.2 6.9-3.1 9.7-3.1 0.9 0 1.6 0.1 2.2 0.3 1.1 0.3 2.1 0.5 2.5 0.5 0.5 0 0.5-0.3-0.6-1-2.1-1.2-4-1.7-5.8-1.7z"/>
	<path id="Layer" class="s40" d="m67.2 74.9c-1.2 0-2.6 0.2-4.2 0.9 0 0 1.2-0.2 2.7-0.2 1.5 0 3.3 0.1 5 0.8q0.7 0.3 0.9 0.2c0.5 0 0.3-0.4-0.5-0.9-0.8-0.4-2.2-0.8-3.9-0.8z"/>
	<path id="Layer" class="s41" d="m67 74c-5.1 0-9.4 1.9-12.6 5.7-1.7 1.9-3 4.3-4 6.8-2 6.1-2.5 11.4-2.7 14.4q0 1.2 0 2.4 0 1.3 0.2 2.2l0.2 0.1c0.1-1.8 0.6-9 4.2-15.2-1.4 2.2-2.4 4.1-2.9 5.3-0.3 1.6-0.5 2.6-0.5 2.7 0 0.1-0.2 0.3-0.3 0.3h-0.1c-0.2-0.1-0.3-0.2-0.3-0.4 0.1-0.3 0.5-3.1 1.6-6.6 3.1-14.2 11.2-17.3 17.4-17.3 3.3 0 6.1 0.9 7.2 1.4 3.8 1.8 4.4 4.2 3.1 4.2-0.4 0-1-0.3-1.7-0.7-3.4-2.5-6.4-3.3-9-3.3q-1.5 0-2.7 0.3 0.8-0.1 1.6-0.1 2.7 0 5.7 1.1c0.2 0 0.2 0.2 0.2 0.4-0.1 0.2-0.2 0.2-0.3 0.2h-0.1q-2.9-1-5.5-1-3.4 0-6.3 1.8-0.5 0.3-1 0.7c-0.4 0.3-0.5 0.5-0.5 0.5 2.8-1.9 5.5-2.7 8-2.7 4.5 0 8.3 2.5 11 4.9 2.6 2.5 4.1 5 4 5q-0.1 0-0.2-0.2c-5.1-4.9-9.7-6.7-13.6-6.7-4.8 0-8.6 2.7-11.5 5.8 2-1.9 4.5-3.5 7.6-4.3q2.4-0.6 4.6-0.6c9.3 0 14 8.2 15.5 11.4 0.2-2.7 0.1-9-3.6-13.5-2.7-3.2-6.8-4.9-12.1-5q-0.3 0-0.6 0z"/>
	<path id="Layer" class="s42" d="m67 73.6c-7.6 0-12.4 4.1-15.4 9.5q-0.7 1.7-1.2 3.4c1-2.5 2.3-4.9 4-6.8 3.2-3.8 7.5-5.7 12.6-5.7q0.3 0 0.6 0c5.3 0.1 9.4 1.8 12.1 5 3.7 4.5 3.8 10.8 3.6 13.5-1.5-3.2-6.2-11.4-15.5-11.4q-2.2 0-4.6 0.6c-3.1 0.8-5.6 2.4-7.6 4.3-1.3 1.5-2.4 3-3.3 4.4-3.6 6.2-4.1 13.4-4.2 15.2l-0.2-0.1q-0.2-0.9-0.2-2.2 0 0.2 0 0.3c0 0.2-0.2 0.4-0.3 0.4q0 1 0.1 1.8l1 0.2c0 0 0.1-20.1 14.8-24q2.4-0.6 4.5-0.6c11.4 0 15.7 12.5 15.7 12.5 0 0 3.1-19.7-15.9-20.3q-0.3 0-0.6 0z"/>
	<path id="Layer" class="s43" d="m51.6 83.1q-0.9 1.6-1.6 3.4c-1.9 6-2.5 11.3-2.6 14.4q0-2.1 0.1-4.1c-0.3 2.7-0.3 5.2-0.1 7.2 0.1 0 0.3-0.2 0.3-0.4q0-0.1 0-0.3 0-1.2 0-2.4c0.2-3 0.7-8.3 2.7-14.4q0.5-1.7 1.2-3.4z"/>
	<path id="Layer" class="s42" d="m49.8 91.7c-1.1 3.5-1.5 6.3-1.6 6.6 0 0.2 0.1 0.3 0.3 0.4h0.1c0.1 0 0.3-0.2 0.3-0.3 0-0.1 0.2-1.1 0.5-2.7-0.2 0.6-0.4 1-0.4 1q0.3-2.7 0.8-5zm15.9-15.5q-0.8 0-1.6 0.1c-2.9 0.7-4.8 2.3-5.7 3.1q0.5-0.4 1-0.7 2.9-1.8 6.3-1.8 2.6 0 5.5 1h0.1c0.1 0 0.2 0 0.3-0.2 0.1-0.2 0-0.4-0.2-0.4q-3-1.1-5.7-1.1z"/>
	<path id="Layer" class="s44" d="m35.1 56.2c-0.1 0 0 0.5 0.6 1.7 4.2 8.3 8.4 23 8.4 23-1.5-14.1-8.3-24.7-9-24.7z"/>
	<path id="Layer" class="s45" d="m27.4 46q1.1 1.2 2 2.5c5.1 3 11.2 10.2 14.3 21.8 2.5 9.7 2.2 19.2 1.1 19.2-0.3 0-0.7-1.1-1.1-3.7-0.9-5.2-2.3-9.8-3.5-13 1.3 5.1 2 10.1 2.5 14.7q0.7 1.3 1.3 2.9c0.8 2 1.3 3.8 1.7 5.5 0.4-5.3 0.7-12.4 0.5-20.3-1.4-7.2-4-12.8-6.7-17-4.3-6.6-9.3-10.7-12.1-12.6z"/>
	<path id="Layer" fill-rule="evenodd" class="s46" d="m39.3 70.4c1.5 5.7 2.5 11.3 3 16.3q0.2 0.4 0.4 0.8c-0.5-4.6-1.2-9.6-2.5-14.7q-0.5-1.4-0.9-2.4zm-13.8-26q1.7 1.8 3.2 3.7 0.4 0.2 0.7 0.4-0.9-1.3-2-2.5c2.8 1.9 7.8 6 12.1 12.6 2.7 4.2 5.3 9.8 6.7 17q0-1 0-2c-4.9-20.7-20.7-29.2-20.7-29.2z"/>
	<path id="Layer" class="s45" d="m47.2 88.2q-0.1 2.4-0.3 4.5 0.2-2.3 0.3-4.5z"/>
	<path id="Layer" class="s46" d="m47.5 82.9q-0.1 2.7-0.3 5.3-0.1 2.2-0.3 4.5-0.2 3-0.4 5.5c1-5.6 1.3-10.7 1-15.3z"/>
	<path id="Layer" class="s44" d="m78.3 55.5c-15 0.4-21.9 14.5-21.9 14.5 11.8-13.3 24.3-14.4 21.9-14.5z"/>
	<path id="Layer" class="s45" d="m77.2 54.3c-9.7 0-25.5 5.1-28.9 37.2 1.6-7.2 5-16.4 12.4-24-3 2.4-6.1 5.6-7.8 9.6-0.5 1.2-0.9 1.7-1 1.7-0.7 0 0.8-6 5.2-12.1 4.5-6 12.1-12.1 23.6-12.1q0.5 0 1 0c-1.3-0.2-2.8-0.3-4.5-0.3z"/>
	<path id="Layer" class="s46" d="m77.2 53.9c-10.2 0-27.5 5.6-29.7 42.9 0.4-3.3 1.2-7 2.5-10.3 2.1-6.7 5.9-14.2 12.6-20.4q-1 0.7-1.9 1.4c-7.4 7.6-10.8 16.8-12.4 24 3.4-32.1 19.2-37.2 28.9-37.2 1.7 0 3.2 0.1 4.5 0.3q1.1 0.1 2.3 0.2c-1.1-0.3-3.6-0.9-6.8-0.9z"/>
	<path id="Layer" class="s47" d="m50 86.5c-1.3 3.3-2.1 7-2.5 10.3q-0.1 2-0.1 4.1c0.1-3.1 0.7-8.4 2.6-14.4z"/>
	<path id="Layer" class="s48" d="m69 47.1c-0.3 0-1.3 0.3-3.1 1-9.4 3.4-13.4 15.9-13.4 15.9 7.4-11.2 17.8-16.9 16.5-16.9z"/>
	<path id="Layer" class="s49" d="m41 33.2c-0.1 0 0 0.6 0.5 1.9 2.5 6.4 4.1 17.4 4.1 17.4-0.1-10.5-4.2-19.3-4.6-19.3z"/>
	<path id="Layer" class="s50" d="m38.2 27c10.5 14.3 8.8 33.2 8.2 33.2q-0.1 0-0.1-0.3c-0.4-3.7-1.2-7.7-2.2-11.4 1.5 8.5 2.2 17.1 2.4 25q0.5 2.3 0.9 4.8c0.3-7 0.4-14.7 0.3-21.9-0.4-15.9-6.2-25.3-9.5-29.4z"/>
	<path id="Layer" fill-rule="evenodd" class="s51" d="m48 56.4c0.2 8 0 16.4-0.4 24q-0.1-1-0.2-2.1c0.3-7 0.4-14.7 0.3-21.9-0.4-15.9-6.2-25.3-9.5-29.4q-0.9-1.2-2-2.3 0-0.2-0.1-0.4c0 0 11.4 9.4 11.9 32.1zm-3.9-7.9c1.5 8.5 2.2 17.1 2.4 25q-0.2-0.7-0.4-1.4c-0.3-8.6-1.1-18.1-3-27.1q0.5 1.7 1 3.5z"/>
	<path id="Layer" class="s52" d="m46.5 98.2q-0.1 0.6-0.2 1.2 0 0.4 0.1 0.7 0-0.9 0.1-1.9zm-0.4-26.1q0.1 0.8 0.1 1.5c0.6 2.9 1.1 5.9 1.3 9.3q0.1-1.2 0.1-2.5-0.1-1-0.2-2.1-0.4-2.5-0.9-4.8-0.2-0.7-0.4-1.4z"/>
	<path id="Layer" class="s53" d="m46.2 75.6c0.2 7.9-0.1 15-0.5 20.3q0.3 1.3 0.4 2.4 0.5-2.9 0.8-5.6 0.2-2.1 0.3-4.5c0.1-4.6-0.2-8.8-1-12.6z"/>
	<path id="Layer" class="s54" d="m46.9 92.7q-0.3 2.7-0.8 5.6 0.1 0.6 0.2 1.1 0.1-0.6 0.2-1.2 0.2-2.5 0.4-5.5zm-0.7-19.1q0 1 0 2c0.8 3.8 1.1 8 1 12.6q0.2-2.6 0.3-5.3c-0.2-3.4-0.7-6.4-1.3-9.3z"/>
	<path id="Layer" class="s38" d="m45.8 106.2c0 0-0.6-6.1-3.2-8.1-2.7-2-8.6-7-13.3-17.1-4.8-10.1-13-8.7-13-8.7 0 0 7.3-6 15 2.8 3 3.4 8.8 6 12.4 15.4 3.6 9.4 2.1 15.7 2.1 15.7z"/>
	<path id="Layer" fill-rule="evenodd" class="s39" d="m45.8 106.5c-0.2 0-0.3-0.1-0.3-0.3-0.1 0-0.7-5.9-3.2-7.8-5.5-4.3-10-10.1-13.3-17.3-3.7-7.7-9.4-8.5-11.7-8.5-0.6 0-0.9 0-0.9 0-0.2 0-0.3 0-0.4-0.2 0-0.1 0-0.3 0.1-0.4 0.1-0.1 2.6-2.1 6.2-2.1 3.3 0 6.4 1.7 9.3 5 0.8 0.9 1.7 1.7 2.9 2.7 3 2.6 6.8 5.9 9.5 12.8 3.6 9.4 2.2 15.6 2.1 15.9 0 0.1-0.2 0.2-0.3 0.2zm-28.2-34.6c2.5 0 8.3 1.1 12 9 3.3 7 7.7 12.7 13.2 16.9 1.6 1.3 2.5 4 2.9 6 0.2-2.6-0.1-7.3-2.3-13.2-2.6-6.7-6.4-9.9-9.4-12.5-1.1-0.9-2.1-1.8-2.9-2.8-2.8-3.1-5.7-4.7-8.8-4.7-2.1 0-3.7 0.7-4.7 1.3z"/>
	<path id="Layer" class="s39" d="m44.6 99.8q-0.2 0-0.3-0.2c-0.3-0.4-6.9-9.8-8.8-13.8-1.2-2.7-5.6-11.7-11.7-12.4-0.2 0-0.3-0.2-0.3-0.4 0-0.2 0.2-0.3 0.4-0.3 6.4 0.8 11 10 12.3 12.8 1.8 4 8.6 13.7 8.7 13.7 0.1 0.2 0 0.4-0.1 0.5q-0.1 0.1-0.2 0.1z"/>
	<path id="Layer" class="s40" d="m36.7 82.2c-2.1 0.4 7.4 15.1 7.4 15.1q0.1 0.1 0.2 0.1c0.4 0-1-3.8-2.7-7.6-1.7-3.8-3.9-7.6-4.9-7.6z"/>
	<path id="Layer" class="s40" d="m29.9 78.5c-0.1 0 0.1 0.6 0.7 2.1 2.1 5.8 7.8 12.5 9.2 14.2q0.3 0.2 0.6 0.4c0.7 0-3.6-5.5-5.2-8-1.4-2.1-4.8-8.7-5.3-8.7z"/>
	<path id="Layer" class="s41" d="m22.3 70.6c-2.1 0-3.7 0.7-4.7 1.3 2.1 0 6.6 0.8 10.2 5.8-0.8-1.5-1.1-2.7-0.1-2.7-1.2-0.8-2.5-1.4-3.9-1.6-0.2 0-0.3-0.2-0.3-0.4 0-0.1 0.2-0.3 0.3-0.3h0.1c6.4 0.8 11 10 12.3 12.8q0.1 0.3 0.3 0.7c-0.2-0.6-0.5-1.3-0.7-2-0.6-1.6-1-3.2-0.1-3.2q0.2 0 0.5 0.1c3 1.3 6.2 7.9 8.3 14 0.9 2.5 0.7 3.2 0.2 3.2-0.2 0-0.4-0.1-0.7-0.3 0.5 0.8 0.9 1.2 0.9 1.2 0.1 0.2 0 0.4-0.1 0.5q-0.1 0.1-0.2 0.1-0.2 0-0.3-0.2c-0.1-0.1-1-1.4-2.2-3.2q-0.8-0.5-1.7-1.2-0.1 0-0.2-0.1 0 0-0.4-0.3c-3.5-3.1-7.1-8-8.7-11-0.3-0.8-0.8-1.6-1.3-2.4 3.3 6.8 7.7 12.3 13 16.4 1.6 1.3 2.5 4 2.9 6 0.2-2.6-0.1-7.3-2.3-13.2-2.6-6.7-6.4-9.9-9.4-12.5-1.1-0.9-2.1-1.8-2.9-2.8-2.8-3.1-5.7-4.7-8.8-4.7z"/>
	<path id="Layer" fill-rule="evenodd" class="s42" d="m31.3 75.1c3 3.4 8.8 6 12.4 15.4 3.6 9.4 2.1 15.7 2.1 15.7 0 0-0.6-6.1-3.2-8.1-2.7-2-8.6-7-13.3-17.1-3.8-7.9-9.6-8.8-12-8.8-0.6 0-1 0.1-1 0.1 0 0 2.5-2 6-2 2.6 0 5.7 1.1 9 4.8zm-1.5 6.3c3.3 6.8 7.7 12.3 13 16.4 1.6 1.3 2.5 4 2.9 6 0.2-2.6-0.1-7.3-2.3-13.2-2.6-6.7-6.4-9.9-9.4-12.5-1.1-0.9-2.1-1.8-2.9-2.8-2.8-3.1-5.7-4.7-8.8-4.7-2.1 0-3.7 0.7-4.7 1.3 2.1 0 6.6 0.8 10.2 5.8 0.5 1.1 1.3 2.4 2 3.7z"/>
	<path id="Layer" class="s41" d="m31.8 79.3c1.1 1.7 2.3 3.7 3.2 5.3-0.7-1.5-1.8-3.4-3.2-5.3z"/>
	<path id="Layer" fill-rule="evenodd" class="s42" d="m42.1 96.4c1.2 1.8 2.1 3.1 2.2 3.2q0.1 0.2 0.3 0.2 0.1 0 0.2-0.1c0.1-0.1 0.2-0.3 0.1-0.5 0 0-0.4-0.4-0.9-1.2-0.7-0.5-1.6-1.4-1.6-1.4q-0.2-0.1-0.3-0.2zm-18.3-23.7c-0.1 0-0.3 0.2-0.3 0.3 0 0.2 0.1 0.4 0.3 0.4 1.4 0.2 2.7 0.8 3.9 1.6h0.1c1.1 0.1 2.6 2 4 4.3 1.4 1.9 2.5 3.8 3.2 5.3 0.6 1.1 1.2 2.1 1.6 2.6q0.2 0.3 0.3 0.3c0.1 0-0.1-0.6-0.4-1.3q-0.2-0.4-0.3-0.7c-1.3-2.8-5.9-12-12.3-12.8z"/>
	<path id="Layer" class="s55" d="m39.8 94.8q0.4 0.3 0.4 0.3 0.1 0.1 0.2 0.1-0.3-0.2-0.6-0.4z"/>
</svg>