<svg version="1.2" xmlns="http://www.w3.org/2000/svg" viewBox="0 0 100 135" width="100" height="135">
	<title>flower_in_a_pot_11-svg</title>
	<style>
		.s0 { fill: #aa6b28 } 
		.s1 { fill: #2e1010 } 
		.s2 { fill: #f9a84c } 
		.s3 { fill: #7c4317 } 
		.s4 { fill: #fab76a } 
		.s5 { fill: #de9342 } 
		.s6 { fill: #6f3b14 } 
		.s7 { fill: #f9a72b } 
		.s8 { fill: #c7883c } 
		.s9 { fill: #584521 } 
		.s10 { fill: #403215 } 
		.s11 { fill: #6c562b } 
		.s12 { fill: #775e30 } 
		.s13 { fill: #d09c5d } 
		.s14 { fill: #7c6232 } 
		.s15 { fill: #463618 } 
		.s16 { fill: #de9225 } 
		.s17 { fill: #54401d } 
		.s18 { fill: #3d2e12 } 
		.s19 { fill: #654e21 } 
		.s20 { fill: #fab64f } 
		.s21 { fill: #875723 } 
		.s22 { fill: #3c2c13 } 
		.s23 { fill: #2b200c } 
		.s24 { fill: #493719 } 
		.s25 { fill: #543f1c } 
		.s26 { fill: #2f230e } 
		.s27 { fill: #392911 } 
		.s28 { fill: #291d0a } 
		.s29 { fill: #453213 } 
		.s30 { fill: #7f8836 } 
		.s31 { fill: #6b7130 } 
		.s32 { fill: #b3c835 } 
		.s33 { fill: #b3cd30 } 
		.s34 { fill: #c4d92e } 
		.s35 { fill: #9db23a } 
		.s36 { fill: #c3d647 } 
		.s37 { fill: #f6ca14 } 
		.s38 { fill: #e9a022 } 
		.s39 { fill: #fdde45 } 
		.s40 { fill: #ffe352 } 
		.s41 { fill: #fddd44 } 
		.s42 { fill: #e68d1e } 
		.s43 { fill: #d98427 } 
		.s44 { fill: #eaaa5b } 
	</style>
	<path id="Layer" class="s0" d="m33.1 102.3l3.6 26.4c0.1 3.6 7.9 6.3 17.5 6.2 9.7-0.2 17.4-3.2 17.4-6.7l4.1-28.2z"/>
	<path id="Layer" class="s1" d="m33.1 102.3h0.1l3.6 26.4c0 1.6 1.9 3.2 4.9 4.3 3 1.1 7.2 1.8 11.8 1.8q0.4 0 0.7 0c4.8-0.1 9.1-0.9 12.3-2.1 3.1-1.2 5-2.8 5-4.5v-0.1l4.1-28-42.5 2.3v-0.1-0.1l42.6-2.3h0.1v0.1l-4.1 28.2h-0.1 0.1c0 1.9-2 3.5-5.2 4.7-3.1 1.2-7.5 2-12.3 2.1q-0.3 0-0.7 0c-4.7 0-8.8-0.7-11.9-1.8-3-1.1-5-2.7-5-4.5h0.1-0.1l-3.6-26.4v-0.1h0.1z"/>
	<path id="Layer" class="s2" d="m33.1 102.3l3.6 26.4c0.1 3.6 7.9 6.3 17.5 6.2 9.7-0.2 17.4-3.2 17.4-6.7l4.1-28.2z"/>
	<path id="Layer" class="s3" d="m33.1 102.3h0.1l3.6 26.4c0 1.6 1.9 3.2 4.9 4.3 3 1.1 7.2 1.8 11.8 1.8q0.4 0 0.7 0c4.8-0.1 9.1-0.9 12.3-2.1 3.1-1.2 5-2.8 5-4.5v-0.1l4.1-28-42.5 2.3v-0.1-0.1l42.6-2.3h0.1v0.1l-4.1 28.2h-0.1 0.1c0 1.9-2 3.5-5.2 4.7-3.1 1.2-7.5 2-12.3 2.1q-0.3 0-0.7 0c-4.7 0-8.8-0.7-11.9-1.8-3-1.1-5-2.7-5-4.5h0.1-0.1l-3.6-26.4v-0.1h0.1z"/>
	<path id="Layer" class="s4" d="m71 107.4l-2.7 18.6c0 0-1.1 5.8-8.2 7.3q-1.2 0.3-2.4 0.3c-6.2 0-11.2-5.1-11.7-11-0.5-7.2-0.5-13.2-0.5-13.2 0 0 4.3 0.7 9.8 0.7 5 0 10.9-0.6 15.7-2.7z"/>
	<path id="Layer" class="s5" d="m33.5 104c1.2 1.1 2.9 2.1 5 2.9 1.8 0.6 3.8 1.2 6 1.6q-0.9 0.1-2.2 0.1c-1.2 0-2.6-0.1-4.2-0.3 0 0-0.2-0.2-0.3-0.2-0.3 0-0.7 0.3-0.7 1.9 0 2.5 2.4 17.9 2.4 17.9 0 0 0.4 4 5.9 5.4 1.9 0.5 4.9 0.9 8.2 0.9 6.6 0 14.5-1.5 18-6.9l-0.1 0.8v0.1c0 1.7-1.9 3.3-5 4.5-3.2 1.2-7.5 2-12.3 2.1q-0.3 0-0.7 0c-4.6 0-8.8-0.7-11.8-1.8-3-1.1-4.9-2.7-4.9-4.3z"/>
	<path id="Layer" class="s6" d="m33.4 103.9q0 0.1 0.1 0.1l3.3 24.7c0 1.6 1.9 3.2 4.9 4.3 3 1.1 7.2 1.8 11.8 1.8q0.4 0 0.7 0c4.8-0.1 9.1-0.9 12.3-2.1 3.1-1.2 5-2.8 5-4.5v-0.1l0.1-0.8q0.1-0.1 0.1-0.2l-0.1 1.1c0 3.5-7.7 6.5-17.4 6.7q-0.3 0-0.7 0c-9.3 0-16.7-2.7-16.8-6.2z"/>
	<path id="Layer" class="s7" d="m76.7 95l-4.1 0.1c-4.1-2.3-10.8-3.8-18.5-3.8-8.5 0-15.9 1.9-19.7 4.7-1.6-0.5-3.2-1-3.2-1l0.4 5.7c0.6 4.8 10.4 8.5 22.5 8.5 12.2 0 22.2-3.8 22.5-8.6l0.1-0.1v-5.3z"/>
	<path id="Layer" class="s3" d="m76.7 95v0.1l-4.1 0.2-0.1-0.1c-4-2.3-10.8-3.8-18.4-3.8-8.5 0-15.9 1.9-19.7 4.7h-0.1c-1.6-0.5-3.2-1-3.2-1l0.1-0.1h0.1l0.4 5.7h-0.1v-0.1l0.1 0.1c0.3 2.3 2.9 4.4 6.9 6 4 1.5 9.5 2.4 15.5 2.4 6.1 0 11.6-0.9 15.7-2.5 4-1.6 6.5-3.7 6.7-6.1l0.1-0.1v-5.2h0.1 0.1v0.1h-0.1l-0.1-0.1v-0.2h0.1 0.1v0.2h-0.1-0.1l0.1-0.1 0.1 0.1v5.3 0.1h-0.1-0.1 0.1c-0.2 2.4-2.8 4.6-6.8 6.2-4.1 1.6-9.7 2.6-15.8 2.6-6 0-11.5-1-15.6-2.5-4-1.6-6.7-3.7-7-6.2h0.1v0.1l-0.1-0.1-0.5-5.7 0.1-0.1h0.1c0 0 1.6 0.5 3.2 1v0.1l-0.1-0.1c3.9-2.8 11.3-4.7 19.8-4.7 7.7 0 14.4 1.5 18.5 3.8v0.1-0.1l4.1-0.1h0.1v0.1z"/>
	<path id="Layer" class="s2" d="m76.7 95c0 5-10.2 9-22.8 9-12.6 0-22.7-4-22.7-9 0-5 10.1-9 22.7-9 12.6 0 22.8 4 22.8 9z"/>
	<path id="Layer" class="s3" d="m76.7 95h0.1c0 2.6-2.6 4.8-6.7 6.5-4.2 1.6-9.9 2.6-16.2 2.6-6.3 0-12-1-16.1-2.6-4.1-1.7-6.7-3.9-6.8-6.5 0.1-2.6 2.7-4.9 6.8-6.5 4.1-1.6 9.8-2.6 16.1-2.6 6.3 0 12 1 16.2 2.6 4.1 1.6 6.7 3.9 6.7 6.5h-0.1-0.1c0-2.4-2.5-4.7-6.6-6.3-4.1-1.6-9.8-2.6-16.1-2.6-6.3 0-11.9 1-16 2.6-4.1 1.6-6.6 3.9-6.6 6.3 0 2.4 2.5 4.6 6.6 6.3 4.1 1.6 9.7 2.6 16 2.6 6.3 0 12-1 16.1-2.6 4.1-1.7 6.6-3.9 6.6-6.3z"/>
	<path id="Layer" class="s8" d="m76 94.8c0 4.5-9.9 8.2-22 8.2-12.2 0-22-3.7-22-8.2 0-4.5 9.8-8.1 22-8.1 12.1 0 22 3.6 22 8.1z"/>
	<path id="Layer" class="s3" d="m76 94.8h0.1c0 2.4-2.5 4.4-6.5 5.9-4 1.5-9.5 2.4-15.6 2.4-6.1 0-11.6-0.9-15.6-2.4-4-1.5-6.5-3.5-6.5-5.9 0-2.3 2.5-4.4 6.5-5.9 4-1.4 9.5-2.3 15.6-2.3 6.1 0 11.6 0.9 15.6 2.3 4 1.5 6.5 3.6 6.5 5.9h-0.1-0.1c0-2.1-2.4-4.2-6.4-5.6-4-1.5-9.5-2.4-15.5-2.4-6.1 0-11.6 0.9-15.5 2.4-4 1.4-6.4 3.5-6.4 5.6 0 2.2 2.4 4.2 6.4 5.7 3.9 1.4 9.4 2.4 15.5 2.4 6 0 11.5-1 15.5-2.4 4-1.5 6.4-3.5 6.4-5.7z"/>
	<path id="Layer" class="s9" d="m39.8 93.6c0 0-0.4-1 3.2-2.3 3.5-1.3 4.3 1 4.3 1 0 0-0.1-1 1.8-2.2 1.9-1.3 4.7 0.7 4.7 0.7 3.1-1.4 5.5 1.8 5.5 1.8 2.8-2.9 7.6-0.1 7.6-0.1 4.9-1 6.1 3 6.1 3 1.2-0.1 2.1 0.3 2.7 0.9-2.4 3.5-10.9 6.3-21.1 6.6-11 0.2-20.2-2.6-21.9-6.4 1.2-1.3 3.5-1.7 3.5-1.7 1.1-1.6 3.6-1.3 3.6-1.3z"/>
	<path id="Layer" class="s10" d="m39.7 93.6c-0.3-1.2 2.6-2.1 3.2-2.4 1.4-0.5 3.5-0.7 4.4 0.8 0.1 0.2 0.1 0.2 0 0.2 0-0.1-0.1-0.1-0.1 0 0.1-0.3 0.2-0.6 0.4-0.9 0.6-0.9 1.6-1.4 2.5-1.7 0.9-0.2 1.9 0.2 2.6 0.5q0.6 0.3 1.2 0.6c-0.2-0.1 1.4-0.3 1.2-0.3 1.1 0 2 0.3 2.9 0.9 0.4 0.2 0.8 0.6 1.1 0.9 0.4 0.5 0.5-0.1 1.1-0.4 2-0.9 4.2-0.5 6.2 0.4 0.5 0.2 1 0.2 1.5 0.1 0.3 0 0.6 0 0.9 0 1.1 0.1 2.1 0.4 2.9 1.1 0.6 0.5 1 1.2 1.3 1.8 0.1 0.3 2.3 0.8 2.8 1.1v0.1c-1.8 2.4-4.9 3.6-7.7 4.5-4.3 1.5-9 2-13.5 2.1-4.8 0.2-9.6-0.3-14.2-1.6-2.8-0.7-6.4-2-7.8-4.8v-0.1c1.2-1 2.7-1.2 3.9-2 1-0.8 2.2-1.1 3.4-0.9 0.1 0-0.1 0.1-0.1 0.1-1.5-0.2-2.5 1-3.9 1.3-1.2 0.3-3.6 0.9-2.6 2.4 0.4 0.5 0.9 1 1.4 1.4 3.5 2.6 8.5 3.4 12.7 3.8 5.8 0.7 11.7 0.3 17.4-0.9 2.4-0.5 4.8-1.3 7.1-2.4q1.3-0.6 2.4-1.5 0.5-0.4 0.9-0.8c1.1-1.2-2.2-1.5-2.3-1.5-0.9-2.6-3.6-3.4-6-2.9-0.2 0-0.8-0.4-1-0.5-2.1-0.9-4.6-1.2-6.6 0.5h-0.1c-0.3-0.4-0.7-0.7-1.1-1-1.4-1.3-2.2-0.8-4.3-0.7-0.4 0-0.9-0.5-1.2-0.7-1.7-0.8-5.2-0.2-5.2 2l-0.2 0.1c-0.3-0.8-1.1-1.2-1.9-1.3 0.6 0.1-5.9 0.7-5.4 2.6z"/>
	<path id="Layer" class="s11" d="m66.6 93.3c0 0 3.9-0.7 4.7 1.4 0.8 2.1 3.3 1 1.7 2.8-1.7 1.8-4.2 1.8-5.3 0.9-1.2-1-1.6-2.4-3.8-2.2-2.3 0.2-0.9-1.6 0.4-1.6 1.4-0.1-1.1-1.7-2.2-1.9-1.1-0.1 2.3-1.3 4.5 0.6z"/>
	<path id="Layer" class="s11" d="m56.8 95.4c0 0 0.9-1.1 3.5-1.2 2.7 0 1.2 1 1.3 1.5 0.1 0.5-1.6 1.6-1.6 1.6 0 0-0.8-1.8-3.2-1.9z"/>
	<path id="Layer" class="s11" d="m58 92.9c0.2 0-1.7-2.1-3.6-1.4-0.9 0.3-1.7 0-2.5-0.2-1-0.2-1.8-0.5-2.7 0.1-1.6 1.2-0.9 2.2-0.9 2.2 0 0 5-0.1 5.4 2.1 0 0 1.5-2.6 4.3-2.8z"/>
	<path id="Layer" class="s11" d="m44.9 95.3c0.1 0 0.5 0 1.1-0.1 1.6-0.2 4.6-0.4 5.7 1.1 0 0 0.6 0.5-0.6 1.4-1.1 1-2 1.3-2 2.5 0 0-1.5-3.5-7.7-2-6.1 1.5-6.8-1.1-5.6-1.9 1.3-0.7 3.8 0.3 3.8 0.3 0 0 0.9-2.3 5.3-1.3z"/>
	<path id="Layer" class="s12" d="m41.3 93.4c0 0 1.4-1.6 3.2-1.2 1.8 0.3-3.7 2.8-3.2 1.2z"/>
	<path id="Layer" class="s11" d="m52.2 99.5c0 0 2.1-1.6 4.7-0.9 0 0 0.2 2.6 0.8 2.6 0.6-0.1 1.6-3.8 4.8-3.5 3.1 0.3 4.6 1.6 3.2 2.7-1.3 1.1-7.5 2.4-11.3 2.1-3.8-0.4-3.1-2-2.2-3z"/>
	<path id="Layer" class="s11" d="m43.9 99.4c0 0 2.6-0.3 3.8 1.2 1.2 1.6-4.3 1.3-6.2 0.4-2-0.9 2.1-1.6 2.4-1.6z"/>
	<path id="Layer" class="s13" d="m52.7 87.4c9.9 0 17.2 2.7 17.2 2.7 1.4 0.7 0.1 1.8-1.9 1.8-0.9 0-1.9-0.2-2.8-0.8-0.8-0.4-1.6-0.6-2.3-0.6-0.6 0-1.3 0.2-1.8 0.4-0.6 0.1-1.1 0.3-1.5 0.3-0.4 0-0.7-0.2-0.9-0.5-0.6-0.7-1.6-0.9-2.6-0.9-1 0-2 0.2-2 0.2 0 0-0.2-0.9-3.1-0.9q-0.2 0-0.4 0c-3.3 0.1-3.7 1.7-3.7 1.7-0.3-1-2.7-1-3-1.9-0.4-0.9 1-0.9 1-0.9 2.7-0.5 5.3-0.6 7.8-0.6z"/>
	<path id="Layer" class="s14" d="m66.6 94.1c0-0.2 1.1-0.9 3-0.1 2 0.7 0.9 1.8-0.6 1.5-1.5-0.2-2.7-0.9-2.4-1.4z"/>
	<path id="Layer" class="s14" d="m59 94.7c0 0 1.3-0.3 1.1 0.3-0.2 0.5-2.5-0.1-1.1-0.3z"/>
	<path id="Layer" class="s14" d="m48.8 92.9c0 0 0.5-1.7 2.2-1.4 1.7 0.2-2.2 2.4-2.2 1.4z"/>
	<path id="Layer" class="s14" d="m40.2 96.6c0 0 3.2-1.6 3.2-0.1 0 1.6-4.4 1.2-3.2 0.1z"/>
	<path id="Layer" class="s15" d="m48.8 101.4q0.1 0 0.2 0-0.1 0-0.1 0-0.1 0-0.1 0 0 0 0 0z"/>
	<path id="Layer" class="s16" d="m32 98.4c1.1 5 10.3 9 10.3 9 0 0-5.3-1.8-7.4-3-2-1.2-2.7-3.5-2.7-3.5z"/>
	<path id="Layer" class="s9" d="m67.8 94.7c0 0 1.5-1.4 3 0.1 1.6 1.5 0.8 2.9-0.9 2.7-1.6-0.1-3.7-1.5-2.1-2.8z"/>
	<path id="Layer" class="s10" d="m67.7 94.6c0.6-0.5 1.5-0.6 2.2-0.4 1 0.3 2.5 1.8 1.6 2.9-0.7 0.9-2.2 0.4-3 0.1-0.6-0.3-1.1-0.7-1.3-1.2-0.3-0.5 0.1-1 0.5-1.4l0.2 0.1c-0.9 0.7-0.6 1.6 0.3 2.2 0.9 0.5 2.6 1 3.2 0 0.6-1-0.7-2.2-1.5-2.6-0.6-0.3-1.5-0.1-2 0.4z"/>
	<path id="Layer" class="s17" d="m67.5 95.2q0 0.2 0.2 0.4-0.2 0-0.3 0.1 0-0.2 0.1-0.5z"/>
	<path id="Layer" class="s18" d="m67.5 95q-0.1 0 0 0.2-0.1 0.3-0.1 0.5-0.1 0-0.2 0.1 0-0.4 0.3-0.8z"/>
	<path id="Layer" class="s17" d="m71.6 96.3q0 0.3-0.2 0.6c-0.3 0.4-0.7 0.6-1.2 0.6-0.5 0-0.9-0.1-1.3-0.3 0.1-0.3 0.1-0.6-0.1-0.8q0.1 0 0.3 0c0 0 0.7 0.4 1.4 0.4q0.2 0 0.4-0.1c0.4-0.1 0.6-0.3 0.7-0.4z"/>
	<path id="Layer" class="s18" d="m71.4 95.5c0.6 1.2 0 2-1.2 2q-0.1 0-0.3 0-0.5 0-1.1-0.2 0-0.1 0.1-0.1c0.4 0.2 0.8 0.3 1.3 0.3 0.5 0 0.9-0.2 1.2-0.6q0.2-0.3 0.2-0.6c0-0.2 0-0.4-0.2-0.7z"/>
	<path id="Layer" class="s19" d="m69.1 94.5c0.9 0 1.7 0.9 1.7 0.9q0.2 0.3 0.2 0.4c0 0.2-0.2 0.2-0.3 0.2-0.4 0-0.9-0.2-1.1-0.3-0.3-0.2-1.3-0.5-1.3-0.8q-0.1-0.2 0.3-0.4 0.3 0 0.5 0z"/>
	<path id="Layer" class="s9" d="m67.1 96c0 0 0.7-0.7 1.4 0.1 0.7 0.8 0.3 1.5-0.5 1.4-0.8-0.1-1.8-0.8-0.9-1.5z"/>
	<path id="Layer" class="s10" d="m67 95.9c0.2-0.2 0.6-0.3 1-0.2 0.6 0.1 1.3 1 0.8 1.6-0.7 0.8-2.9-0.4-1.8-1.4l0.2 0.1c-1 0.9 1 2 1.5 1.2 0.3-0.5-0.2-1.1-0.5-1.3-0.3-0.3-0.8-0.2-1 0.1z"/>
	<path id="Layer" class="s9" d="m38.4 97.2c0 0 1.4-1.3 3 0.2 1.6 1.5 0.8 2.8-0.9 2.7-1.6-0.2-3.8-1.5-2.1-2.9z"/>
	<path id="Layer" class="s10" d="m38.3 97.2c0.6-0.5 1.3-0.7 2-0.5 1.1 0.2 2.7 1.9 1.8 3-0.7 0.8-2.2 0.4-3.1 0-0.5-0.2-1-0.6-1.2-1.1-0.3-0.5 0.1-1 0.5-1.4 0 0 0.3 0 0.2 0-2.1 1.8 2.7 4 3.5 2.2 0.5-0.9-0.7-2-1.4-2.4-0.6-0.4-1.6-0.3-2.1 0.2-0.1 0.1-0.3 0.1-0.2 0z"/>
	<path id="Layer" class="s17" d="m39.4 98.9c0.2 0.3 0.2 0.6 0 0.9 0.5 0.2 0.9 0.3 1.3 0.3 0.5 0 1-0.2 1.2-0.5q-0.4-0.1-0.7-0.2-0.1 0-0.2 0c-0.6 0-1.3-0.4-1.3-0.4q-0.2 0-0.3-0.1zm-1.3-1.1q-0.2 0.2-0.1 0.5 0.1-0.1 0.3-0.1-0.2-0.3-0.2-0.4z"/>
	<path id="Layer" class="s18" d="m41.9 99.6c-0.2 0.3-0.7 0.5-1.2 0.5-0.4 0-0.8-0.1-1.3-0.3q0 0 0 0 0 0 0 0 0.6 0.2 1.1 0.3 0.1 0 0.3 0c0.5 0 1-0.2 1.2-0.5q0 0-0.1 0zm-3.9-2q-0.2 0.4-0.2 0.7 0.1 0 0.1 0 0-0.3 0.2-0.5-0.1-0.2-0.1-0.2z"/>
	<path id="Layer" class="s19" d="m39.7 97q0.2 0 0.4 0.1c-0.4 0.2-0.6 0.5-0.3 0.9q0 0 0 0.1c-0.4-0.2-1-0.4-1-0.7q0-0.1 0.4-0.3 0.3-0.1 0.5-0.1z"/>
	<path id="Layer" class="s9" d="m37.6 98.5c0 0 0.8-0.7 1.5 0.1 0.7 0.9 0.3 1.6-0.5 1.5-0.8-0.1-1.8-0.9-1-1.6z"/>
	<path id="Layer" class="s10" d="m37.5 98.5c0.3-0.2 0.7-0.4 1.1-0.3 0.5 0.2 1.3 1 0.8 1.6-0.7 0.9-2.9-0.3-1.9-1.3h0.2c-1 1 1.1 2 1.6 1.2 0.2-0.3-0.1-0.8-0.3-1-0.3-0.4-0.9-0.5-1.3-0.2z"/>
	<path id="Layer" class="s20" d="m75.7 98.7c0 0 0 2.3-0.2 2.9-0.3 0.5-0.9 1.4-0.9 1.4-5.8 4.4-14.8 5.3-21.2 5.3-4.1 0-7.1-0.4-7.4-0.4-0.8-0.1-0.5-3.5-0.5-3.5q4.9 0.4 8.9 0.4c17.3 0 21.3-6.1 21.3-6.1z"/>
	<path id="Layer" class="s21" d="m59.2 92.3q0.1 0 0.3 0.1 0 0 0 0-0.1 0-0.1 0-0.1 0-0.2-0.1z"/>
	<path id="Layer" fill-rule="evenodd" class="s22" d="m58.8 92.2q0.2 0.2 0.4 0.4h0.1q0.2-0.1 0.3-0.2c1.7 0.3 3.4 0.9 4.7 1.4 0.5 0.4 0.7 0.8 0 0.8-1.2 0-2.6 1.6-0.8 1.6q0.2 0 0.4 0 0.2 0 0.4 0c1.9 0 2.3 1.3 3.4 2.2q0.3 0.2 0.7 0.4-0.3 0.3-0.8 0.5c-0.7 0.4-1.2 0.6-1.6 0.9 0.8-1.1-0.6-2.2-3.5-2.5q-0.2 0-0.4 0c-2.9 0-3.8 3.4-4.4 3.5q0 0 0 0c-0.6 0-0.8-2.6-0.8-2.6q-0.8-0.2-1.5-0.2c-1.8 0-3.2 1.1-3.2 1.1-0.7 0.8-1.4 2.1 0.6 2.7q-0.7-0.2-1.5-0.3c-0.7-0.2-1.5-0.4-2.3-0.5 0.7-0.1-0.2-2.4-3.5-3q-0.8-0.2-1.6-0.2-0.9 0-1.7 0.2 0-0.2-0.1-0.3 1.2-0.3 2.2-0.3c3.8 0 4.8 2.4 4.8 2.4 0-1.2 0.9-1.5 2-2.5 1.2-0.9 0.6-1.4 0.6-1.4-0.7-1-2.3-1.2-3.8-1.2-0.7 0-1.4 0-1.9 0.1-0.6 0.1-1 0.1-1.1 0.1q-0.4-0.1-0.9-0.1c1.5-0.5 3.7-0.9 4-1.7q0.1-0.2 0.2-0.3c0 0.2 0.1 0.4 0.1 0.4q0 0 0.1 0c0.4 0 4.9 0 5.3 2.1 0 0 1.5-2.6 4.3-2.8 0.1 0-0.2-0.4-0.8-0.8q0.8 0 1.6 0.1zm0.7 0.2q0 0 0 0 0 0 0 0zm-0.1 4.9c-0.8-1.1-3.7-0.6-3.5-1.7 0.2-1.1 4.6-2.5 4.6-2.5q-0.3 0-0.5 0c-4.3 0-6.4 3.5-6.4 3.5-0.8-1.6-3.3-2-4.4-2-0.7 0-0.8 0.1 0.1 0.3 2.5 0.3 3.4 2.4 3.4 2.4-1.9 0.6-3.4 2.9-2.8 2.9 0.2 0 0.6-0.2 1.3-0.8 1.3-1.2 3.4-1.5 5-1.5 1.6 0 2.7 0.3 2.1 0.5-1.1 0.3-0.7 2.4-0.7 2.4 0.3-2.1 3.5-3.4 3.5-3.4q1.1-0.2 1.9-0.2c1.2 0 2.1 0.4 2.7 0.8q0.6 0.6 1.2 1.5c0 0-0.3-0.8-1.2-1.5-1-1-2.1-1.3-3-1.3-1.3 0-2.3 0.7-2.5 0.7q-0.1 0.1-0.2 0.1c-0.3 0-0.6-0.2-0.6-0.2zm2.2-1.6c-0.1-0.5 1.3-1.5-1-1.5q-0.1 0-0.3 0c-2.6 0.1-3.5 1.2-3.5 1.2 2.4 0.1 3.2 1.9 3.2 1.9 0 0 1.7-1.1 1.6-1.6zm1.7 5.7c-0.8 0.4-1.8 0.6-2.8 0.6 1.1-0.1 2-0.4 2.9-0.6q-0.1 0-0.1 0z"/>
	<path id="Layer" class="s23" d="m58.8 92.2q0.2 0.1 0.4 0.1 0.1 0.1 0.2 0.1 0 0 0.1 0 0 0 0 0 0.1 0 0.1 0-0.1 0.1-0.3 0.2h-0.1q-0.2-0.2-0.4-0.4z"/>
	<path id="Layer" class="s24" d="m64.3 93.8q0.5 0.2 0.9 0.3c2.2 0.7 0 1.1 1.6 2-0.5 0.7 0.5 1.5 1.3 1.5q0.4 0 0.6-0.2 0.5 0.7-0.3 1.4-0.4-0.2-0.7-0.4c-1.1-0.9-1.5-2.2-3.4-2.2q-0.2 0-0.4 0-0.2 0-0.4 0c-1.8 0-0.4-1.6 0.8-1.6 0.7 0 0.5-0.4 0-0.8z"/>
	<path id="Layer" fill-rule="evenodd" class="s24" d="m61.6 95.7c0.1 0.5-1.6 1.6-1.6 1.6 0 0-0.8-1.8-3.2-1.9 0 0 0.9-1.1 3.5-1.2q0.2 0 0.3 0c2.3 0 0.9 1 1 1.5zm-1.5-0.7c0.1-0.3-0.2-0.4-0.5-0.4-0.3 0-0.6 0.1-0.6 0.1-1 0.2-0.2 0.5 0.5 0.5 0.3 0 0.5-0.1 0.6-0.2z"/>
	<path id="Layer" class="s24" d="m57.2 92.1q0 0 0 0c0.6 0.4 0.9 0.8 0.8 0.8-2.8 0.2-4.3 2.8-4.3 2.8-0.4-2.1-4.9-2.1-5.3-2.1q-0.1 0-0.1 0c0 0-0.1-0.2-0.1-0.4q0.2-0.2 0.6-0.3 0 0.2 0.3 0.2c0.3 0 0.6-0.1 1-0.2 0.4 0 0.7 0.1 0.7 0.1 1.2-0.4 2.2 0.2 4.8-0.7q0.7-0.2 1.6-0.2z"/>
	<path id="Layer" class="s24" d="m47.9 95.1c1.5 0 3.1 0.2 3.8 1.2 0 0 0.6 0.5-0.6 1.4-1.1 1-2 1.3-2 2.5 0 0-1-2.4-4.8-2.4q-1 0-2.2 0.3-0.2-0.3-0.4-0.5c0.9-0.1 1.7-0.4 1.7-1.1 0-0.4-0.2-0.6-0.6-0.6 0.1-0.3 0.6-0.5 1.2-0.7q0.5 0 0.9 0.1c0.1 0 0.5 0 1.1-0.1 0.5-0.1 1.2-0.1 1.9-0.1z"/>
	<path id="Layer" class="s24" d="m62.1 97.7q0.2 0 0.4 0c2.9 0.3 4.3 1.4 3.5 2.5-0.7 0.3-1.3 0.6-2.6 1.2-0.9 0.2-1.8 0.5-2.9 0.6-2 0.2-4.2 0-5.5 0.3q-0.4 0.1-0.8 0.1-0.7-0.1-1.4-0.2c-2-0.6-1.3-1.9-0.6-2.7 0 0 1.4-1.1 3.2-1.1q0.7 0 1.5 0.2c0 0 0.2 2.6 0.8 2.6q0 0 0 0c0.6-0.1 1.5-3.5 4.4-3.5z"/>
	<path id="Layer" class="s25" d="m59.6 94.6c0.3 0 0.6 0.1 0.5 0.4-0.1 0.1-0.3 0.2-0.6 0.2-0.7 0-1.5-0.3-0.5-0.5 0 0 0.3-0.1 0.6-0.1z"/>
	<path id="Layer" class="s25" d="m49.5 92.8q0.3 0.1 0.6 0.1c-0.4 0.1-0.7 0.2-1 0.2q-0.3 0-0.3-0.2 0.3-0.1 0.7-0.1z"/>
	<path id="Layer" class="s25" d="m42.8 95.9c0.4 0 0.6 0.2 0.6 0.6 0 0.7-0.8 1-1.7 1.1-0.2-0.3-0.5-0.6-0.9-0.7 1-0.3 2.1-0.4 2-0.9q0-0.1 0-0.1z"/>
	<path id="Layer" class="s26" d="m65.7 98q0.6 0.6 1.2 1.5c0 0-0.3-0.8-1.2-1.5zm-5.7-4.9c-4.3 0-6.4 3.5-6.4 3.5-0.8-1.6-3.3-2-4.4-2-0.7 0-0.8 0.1 0.1 0.3 2.5 0.3 3.4 2.4 3.4 2.4-1.9 0.6-3.4 2.9-2.8 2.9 0.2 0 0.6-0.2 1.3-0.8 1.3-1.2 3.4-1.5 5-1.5 1.6 0 2.7 0.3 2.1 0.5-1.1 0.3-0.7 2.4-0.7 2.4 0.3-2.1 3.5-3.4 3.5-3.4q1.1-0.2 1.9-0.2c1.2 0 2.1 0.4 2.7 0.8-1-1-2.1-1.3-3-1.3-1.3 0-2.3 0.7-2.5 0.7q-0.1 0.1-0.2 0.1c-0.3 0-0.6-0.2-0.6-0.2-0.8-1.1-3.7-0.6-3.5-1.7 0.2-1.1 4.6-2.5 4.6-2.5q-0.3 0-0.5 0z"/>
	<path id="Layer" class="s22" d="m43.3 99c4 0 5.2 2.1 5.5 2.4q-0.4 0-0.8 0-0.1 0-0.2 0 0 0-0.1 0c0.2-0.2 0.3-0.4 0-0.8-0.8-1.1-2.4-1.2-3.2-1.2-0.4 0-0.6 0-0.6 0-0.1 0-0.8 0.1-1.5 0.3q-0.2 0-0.3-0.1 0.2-0.3 0.2-0.6 0.6 0 1 0z"/>
	<path id="Layer" class="s24" d="m44.5 99.4c0.8 0 2.4 0.1 3.2 1.2 0.3 0.4 0.2 0.6 0 0.8q-0.1 0-0.2 0c-2.6 0-2.7-1-4.7-1.6q-0.2 0-0.4-0.1c0.7-0.2 1.4-0.3 1.5-0.3 0 0 0.2 0 0.6 0z"/>
	<path id="Layer" class="s26" d="m43.9 98.2q0.8 0 1.6 0.2c3.3 0.6 4.2 2.9 3.5 3q-0.1 0-0.2 0c-0.3-0.3-1.5-2.4-5.5-2.4q-0.4 0-1 0 0.1-0.3-0.1-0.6 0.8-0.2 1.7-0.2z"/>
	<path id="Layer" class="s22" d="m67 96.2q0.1 0.1 0.2 0.1 1 0.5 1.4 1-0.2 0.2-0.5 0.1c-0.7 0-1.5-0.6-1.1-1.2z"/>
	<path id="Layer" class="s23" d="m66.8 96.1q0.1 0.1 0.2 0.1c-0.4 0.6 0.4 1.2 1.1 1.2q0.3 0.1 0.5-0.1 0.1 0 0.1 0.1-0.2 0.2-0.6 0.2c-0.8 0-1.8-0.8-1.3-1.5z"/>
	<path id="Layer" class="s22" d="m40.6 96.9q0 0 0 0.1c0.6 0.3 1.5 1.1 1.5 1.8 0 0.2-0.2 0.3-0.6 0.5q-0.1 0-0.3 0.1c-0.6-0.3-0.9-0.5-1.4-1.3q0.3 0.1 0.4 0.2c0.2 0.1 0.7 0.3 1.1 0.3 0.1 0 0.2-0.1 0.2-0.2q0.1-0.1-0.2-0.4c0 0-0.5-0.7-1.2-0.9q0.2-0.1 0.5-0.2z"/>
	<path id="Layer" class="s23" d="m40.8 96.9c0.4 0.1 0.7 0.4 0.9 0.7q0.2 0.2 0.4 0.5 0.1 0.1 0.1 0.3 0.2 0.3 0.1 0.6 0 0.3-0.2 0.6-0.1 0-0.1 0c0.3-0.4 0.3-0.9 0-1.5l-0.1 0.1c0.2 0.3 0.3 0.5 0.2 0.6 0-0.7-0.9-1.5-1.5-1.8q0-0.1 0-0.1 0.1 0 0.2 0z"/>
	<path id="Layer" class="s27" d="m42.1 98.8q0.1 0.3-0.1 0.6 0 0.1-0.1 0.2-0.4-0.1-0.7-0.2 0.2-0.1 0.3-0.1c0.4-0.2 0.6-0.3 0.6-0.5z"/>
	<path id="Layer" class="s28" d="m42 98.1c0.3 0.6 0.3 1.1 0 1.5q0 0-0.1 0 0.1-0.1 0.2-0.2 0.1-0.3 0-0.6c0.1-0.1 0-0.3-0.2-0.6z"/>
	<path id="Layer" class="s29" d="m40.1 97.1c0.7 0.2 1.2 0.9 1.2 0.9q0.2 0.3 0.2 0.4c0 0.1-0.1 0.2-0.2 0.2-0.4 0-0.9-0.2-1.1-0.3q-0.1-0.1-0.4-0.2 0-0.1 0-0.1c-0.3-0.4-0.1-0.7 0.3-0.9z"/>
	<path id="Layer" class="s30" d="m55.2 96.8l0.9-0.5c0.2-0.1 0.3-0.4 0.3-0.6 0.2-3.7 0.8-7 1.7-10 2.1-6.5 5.4-11 6.9-12.8 0.5-0.6 0.8-0.8 0.8-0.8 0.2-0.3 0.2-0.8 0-1-0.3-0.3-0.7-0.3-1 0-0.1 0-5.1 5.2-8 14.2-0.6 1.9-1 4-1.4 6.2-0.3-9.3-2.1-29.7-11-39.9-0.2-0.3-0.7-0.3-0.9 0-0.3 0.2-0.3 0.6-0.1 0.9 8.3 9.4 10.3 29.4 10.7 38.7 0.1 3.1 0.1 5 0.1 5 0 0.3 0.1 0.5 0.3 0.6l0.1 0.1q0.3 0.1 0.6-0.1z"/>
	<path id="Layer" fill-rule="evenodd" class="s31" d="m54.4 97c-0.3-0.2-0.4-0.4-0.4-0.8 0 0 0-1.9-0.1-5-0.3-8.4-2-28.9-10.6-38.6q-0.3-0.2-0.2-0.6 0-0.3 0.3-0.6c0.3-0.3 0.9-0.2 1.2 0.1 8.2 9.4 10.4 27.4 10.9 38.4q0.5-2.4 1.2-4.6c2.7-8.7 7.4-13.8 8-14.3 0.3-0.4 0.9-0.4 1.2 0q0.2 0.2 0.2 0.6 0 0.3-0.2 0.5v0.1q-0.1 0-0.8 0.8c-1.4 1.7-4.7 6.1-6.8 12.8-1 3.2-1.6 6.5-1.7 9.9 0 0.3-0.2 0.6-0.4 0.7l-0.9 0.6c-0.2 0.1-0.5 0.1-0.7 0.1zm10.5-25.8c-0.6 0.5-5.2 5.5-7.9 14.2q-1 3-1.4 6.1h-0.4c-0.4-10.7-2.3-30-10.9-39.8-0.2-0.2-0.5-0.2-0.8 0q-0.1 0.1-0.1 0.3 0 0.2 0.1 0.4c8.7 9.7 10.4 30.3 10.7 38.8 0.1 2.9 0.1 5 0.1 5 0 0.2 0.1 0.4 0.3 0.5q0.2 0.1 0.5 0l0.9-0.6q0.2-0.1 0.2-0.4c0.2-3.4 0.7-6.8 1.7-10 2.1-6.7 5.5-11.3 6.9-12.9 0.5-0.6 0.8-0.9 0.8-0.9q0.1-0.1 0.1-0.4 0-0.2-0.1-0.3l-0.2-0.2c-0.2 0-0.4 0-0.5 0.2z"/>
	<path id="Layer" class="s32" d="m55 96.5l0.9-0.5 0.1-0.2c0.1-3.7 0.8-7.1 1.7-10.1 1.4-4.4 3.4-7.9 4.9-10.3 1.6-2.3 2.9-3.6 2.9-3.6v-0.2h-0.3c0 0-5 5.1-7.8 14-0.9 3-1.6 6.4-1.8 10.1l-0.5 0.4c0-3.3-0.2-31.7-11-44h-0.2v0.2c5.6 6.4 8.4 17.5 9.7 26.9 1.3 9.4 1.1 17.2 1.1 17.2l0.1 0.1 0.1 0.1z"/>
	<path id="Layer" class="s33" d="m34.7 62.8c-1 0.4-1.1 0.9 0 1.5 1.1 0.6 1.2 0.8 0.5 0.4-0.8-0.4-1.8-0.8-1.8-0.8-1.5 0.6-0.5 4.7 4.3 7.3 4.8 2.7 11.8 1.2 9.4-0.6-2.4-1.8-13.2-6.4-9.4-5 3.8 1.4 9.9 4.6 11.3 4.6 1.4 0-0.2-2.6-0.5-3.1 3.3 3 4.2 6.2 4.2 6.2-0.9 2.6-12.7 1.7-17.4-3.2-4.7-4.8-2-6.5-2-6.5 0 0 0.3-0.7 1.5-1.2q0.1 0.3-0.1 0.4z"/>
	<path id="Layer" class="s34" d="m43 63.6c2.3 1 4.1 2.2 5.5 3.5 0.3 0.5 1.9 3.1 0.5 3.1-1.4 0-7.5-3.2-11.3-4.6-3.8-1.4 7 3.2 9.4 5 2.4 1.8-4.6 3.3-9.4 0.6-4.8-2.6-5.8-6.7-4.3-7.3 0 0 1 0.4 1.8 0.8 0.7 0.4 0.6 0.2-0.5-0.4-1.1-0.6-1-1.1 0-1.5q0.2-0.1 0.1-0.4c1.4-0.5 3.9-0.7 8.2 1.2z"/>
	<path id="Layer" fill-rule="evenodd" class="s35" d="m41.5 73.9c-2.5-0.7-4.8-1.9-6.4-3.6-2.8-2.9-3.1-4.7-2.7-5.8 0.2-0.6 0.5-1 0.7-1.1 0.2-0.4 2.1-2.7 7.7-0.9q1.1 0.3 2.3 0.8c8 3.4 9.9 9.8 9.9 9.9v0.1c-0.5 1.2-2.1 1.6-4.2 1.7-2.1 0.1-4.8-0.3-7.3-1.1zm10.9-0.7c-0.1-0.3-0.6-1.7-1.8-3.4-1.4-1.9-3.8-4.3-7.7-6q-1.2-0.5-2.2-0.8c-3-1-4.8-0.7-5.9-0.3-0.5 0.2-0.8 0.5-1 0.7-0.2 0.2-0.3 0.3-0.3 0.3v0.1h-0.1q0 0-0.2 0.2c-0.1 0.1-0.2 0.3-0.3 0.6-0.3 0.9-0.2 2.5 2.6 5.4 1.4 1.5 3.7 2.7 6.1 3.4 2.5 0.8 5.1 1.1 7.2 1.1 1.9-0.1 3.4-0.6 3.6-1.3z"/>
	<path id="Layer" class="s36" d="m40.8 63.4c1.9 0.6 3.4 1.4 3.4 1.4 1.9 1 4.4 3.4 3.9 3.2-0.2 0-0.6-0.3-1.3-0.8-0.7-0.5-1.2-0.8-1.7-1-0.9-0.3-1.6-0.1-2.2 0.1-0.6 0.2-1.1 0.4-1.7 0.2q-0.1 0-0.3-0.1c-1.7-1-5.5-2-6.3-2.4-0.7-0.4-0.1-0.7-0.1-0.7 1.9-0.9 4.3-0.5 6.3 0.1z"/>
	<path id="Layer" class="s36" d="m34.1 64.9q0.3 0.1 0.8 0.4c1.3 1 4.8 2.2 4.8 2.2 3.7 1.5 4.2 2.2 2.2 1.6q-0.3-0.1-0.7-0.2-0.2-0.1-0.4-0.2c-2.5-0.8-3.7 0.1-4.1 0.7q-0.1 0.2-0.5 0.1c-0.8-0.2-2-1.4-2.5-2.9-0.4-1.5-0.2-1.9 0.4-1.7z"/>
	<path id="Layer" class="s35" d="m50.9 72.8l0.1-0.1v-0.1c-0.1-0.1-5.8-4.4-16.7-8.5h-0.2l0.1 0.2c10.9 4.1 16.6 8.4 16.7 8.4z"/>
	<path id="Layer" class="s37" d="m67.5 68c0.1 0 2.6-2 2.8-2.1 1.7-1 3.9-1.7 5.9-0.9 2.4 0.9 1.6 4.1-0.6 4.6-2.8 0.6-5.7-0.1-8.1-1.6z"/>
	<path id="Layer" fill-rule="evenodd" class="s38" d="m67.4 68.3l0.1-0.4-0.1-0.2c0 0 0.5-0.4 0.9-0.7 1.2-0.9 1.7-1.3 1.8-1.4 1.6-0.9 4-1.8 6.2-0.9 1.1 0.4 1.8 1.4 1.7 2.6-0.1 1.3-1.1 2.4-2.3 2.6-1.7 0.4-3.6 0.3-5.4-0.2q-1.5-0.5-2.9-1.4zm3.1-2.1c-0.2 0.1-1.1 0.8-1.7 1.3q-0.4 0.3-0.6 0.5 1.1 0.6 2.3 1c1.7 0.5 3.4 0.6 5 0.3 1.1-0.3 1.7-1.2 1.8-2.1 0.1-0.8-0.4-1.5-1.3-1.9q-0.1 0-0.2-0.1c-1.9-0.6-4 0.2-5.3 1z"/>
	<path id="Layer" class="s37" d="m67.7 68.1c0 0 6 2.5 7.1 6.6 1 4.2-3.9 5-5.6 1.2-1.7-3.9-2.3-8.5-1.5-7.8z"/>
	<path id="Layer" fill-rule="evenodd" class="s38" d="m68.9 76c-1.4-3.1-2.3-7.5-1.7-8.1 0.2-0.2 0.4-0.3 0.6-0.1 0.7 0.3 6.2 2.7 7.3 6.9 0.4 1.3 0.1 2.5-0.7 3.3-0.7 0.7-1.8 0.9-2.8 0.6-1.2-0.4-2.1-1.3-2.7-2.6zm0.7-0.2c0.4 1 1.2 1.8 2.2 2.1 0.8 0.3 1.6 0.1 2.1-0.4 0.7-0.6 0.8-1.5 0.5-2.7-0.9-3.5-5.8-5.9-6.7-6.3-0.1 0.9 0.5 4.2 1.9 7.3z"/>
	<path id="Layer" class="s37" d="m67.4 68.6c1 2.8 2.1 7.3-0.8 9.4q-0.7 0.6-1.5 0.5c-2.9-0.2-3.1-3.1-2.1-5.3 0.9-2.1 4-5.8 4.4-4.6z"/>
	<path id="Layer" fill-rule="evenodd" class="s38" d="m62.4 77.2c-0.4-1.1-0.4-2.7 0.3-4.1 0.7-1.7 3.4-5.4 4.6-5.1 0.1 0.1 0.3 0.2 0.4 0.5 1.7 4.8 1.4 8.1-0.8 9.8-0.6 0.4-1.2 0.6-1.9 0.6q-0.4-0.1-0.8-0.2c-0.8-0.2-1.4-0.8-1.8-1.5zm0.9-3.8c-0.6 1.2-0.6 2.6-0.2 3.5q0.4 0.9 1.3 1.2 0.3 0.1 0.7 0.1 0.7 0 1.3-0.4c2-1.6 2.3-4.6 0.7-9.1-0.5-0.1-2.9 2.6-3.8 4.7z"/>
	<path id="Layer" class="s37" d="m66.3 68.6c-3.2 0.2-8.1 0-9.5-3.5-0.2-0.6-0.3-1.2 0-1.8 1-2.9 4.1-2.2 6-0.6 1.9 1.6 4.8 5.8 3.5 5.9z"/>
	<path id="Layer" fill-rule="evenodd" class="s38" d="m56.5 65.2c-0.3-0.7-0.3-1.4 0-2 0.7-1.9 2.3-2.6 4.3-2 0.8 0.2 1.5 0.7 2.2 1.2 1.6 1.3 4.3 4.8 3.9 6-0.1 0.3-0.3 0.5-0.6 0.5q-3.6 0.2-6-0.5-2.9-0.9-3.8-3.2zm0.6-1.8q-0.3 0.8 0 1.5c1 2.5 4.1 3.6 9.2 3.3 0.2-0.5-1.8-3.6-3.7-5.2-0.6-0.5-1.3-0.9-2-1.1-1-0.3-2.7-0.5-3.5 1.5z"/>
	<path id="Layer" class="s37" d="m66.5 69.1c-2 2.4-5.6 5.9-9.1 4.5q-0.9-0.4-1.3-1.2c-1.3-2.8 1.3-4.5 3.8-4.8 2.4-0.3 7.5 0.5 6.6 1.5z"/>
	<path id="Layer" fill-rule="evenodd" class="s38" d="m57.3 73.9c-0.7-0.3-1.2-0.8-1.5-1.4-0.5-1-0.5-2.1 0-3 0.8-1.4 2.6-2.1 4-2.3 1.6-0.2 4.2 0.1 5.7 0.6 0.9 0.2 1.3 0.5 1.4 0.9q0.1 0.3-0.2 0.6c-3.3 4-6.3 5.6-9 4.7q-0.2 0-0.4-0.1zm2.6-6c-1.6 0.2-3 1-3.5 2q-0.6 1 0 2.3 0.4 0.7 1.2 1 0.1 0.1 0.3 0.2 3.6 1.1 8.3-4.5c0 0-0.1-0.2-0.9-0.5-1.4-0.4-3.9-0.7-5.4-0.5z"/>
	<path id="Layer" class="s37" d="m67.8 68c0 0 4.9-4.6 2.8-9.1-2.1-4.6-9.1-1.1-5 7 0 0 1.2 3 2.2 2.1z"/>
	<path id="Layer" fill-rule="evenodd" class="s38" d="m65.2 66.1c-1.6-3.3-1.7-6.4-0.1-8.3 0.9-1.1 2.3-1.5 3.6-1.1 0.9 0.2 1.7 1 2.2 2 2.2 4.7-2.7 9.3-2.9 9.5q-0.4 0.4-0.9 0.3c-0.9-0.3-1.7-2.1-1.9-2.4zm0.4-7.8c-1.4 1.6-1.3 4.4 0.3 7.5 0.3 0.7 0.9 1.9 1.4 2 0.1 0 0.1 0 0.2-0.1 0.1 0 4.8-4.5 2.8-8.7-0.4-0.9-1-1.5-1.8-1.7-1-0.3-2.1 0.1-2.9 1z"/>
	<path id="Layer" class="s39" d="m68.3 57.6c0.9 0.3 1.6 1.1 1.9 2.1 0.2 0.4 0.2 0.9 0.2 1.3 0 2.8-1.8 5.4-2.7 5.8q-0.1 0-0.2 0c-1-0.3-2.6-3.7-2-6.6 0.2-0.9 0.7-2.1 1.6-2.5 0.3-0.2 0.7-0.2 0.9-0.1h0.1z"/>
	<path id="Layer" class="s40" d="m70.4 66.7c0 0 3.1-2.3 5.4-1.1 0.7 0.4 1.2 1.4 1 2.2-0.5 1.8-2.9 1.4-4.2 0.9q-0.5-0.2-1-0.4c-0.4-0.2-1.5-0.6-1.5-1.2 0-0.1 0.2-0.3 0.3-0.4z"/>
	<path id="Layer" class="s40" d="m72.1 72.1c0 0 2.4 1.7 2 4.3-0.4 2.5-3 1.6-3.5-0.6-0.6-2.2-1.9-6.6 1.5-3.7z"/>
	<path id="Layer" class="s40" d="m66.9 70.1c0 0 0.2-0.2 0.6 1.1 0.2 1 0.4 2.1 0.4 3.1-0.1 1-0.3 2.7-1.2 3.2-0.8 0.5-1.7 0.2-2.3-0.4-0.8-0.9-0.2-2.2 0.2-3.1q0.2-0.5 0.5-0.9c0.5-0.8 1.6-3.2 1.8-3z"/>
	<path id="Layer" class="s40" d="m63.7 65.4c-0.5-0.7-1.1-1.5-1.8-2.1-0.7-0.6-1.7-1.1-2.7-1-1.1 0.1-2.1 1.1-1.6 2.3 0.6 1.5 1.7 1.3 3.3 1.2 0.9 0 1.8 0.3 2.6 0.2 0.4-0.1 0.4-0.3 0.2-0.6z"/>
	<path id="Layer" class="s39" d="m63.6 69.5c0.8 0.2 0.2 0.7-0.3 1.2-0.9 0.9-1.9 1.6-3 2.2-0.6 0.3-1.4 0.4-2 0.2-0.5-0.2-1-0.6-1.2-1.2-0.2-0.6 0.4-1.6 1-1.9 1.2-0.6 2.5-0.8 3.8-0.8 0.8 0.1 1.3 0.2 1.7 0.3z"/>
	<path id="Layer" class="s37" d="m38.6 43.5c0 0 6-7.2 11-4.8 5.1 2.3 0.6 11-10.5 7z"/>
	<path id="Layer" fill-rule="evenodd" class="s38" d="m39 46h-0.2l-0.5-2.6 0.1-0.1c0.2-0.3 5.7-6.8 10.7-5.2q0.4 0.1 0.7 0.3c1.9 0.9 2.7 2.8 2 4.8-1.2 3-5.7 5.1-11.9 3.1q-0.5-0.1-0.9-0.3zm0-2.4l0.4 1.9c6.9 2.4 10.8-0.3 11.7-2.6 0.6-1.6 0-3.2-1.6-3.9q-0.3-0.2-0.6-0.3c-4.2-1.3-9.1 4-9.9 4.9z"/>
	<path id="Layer" class="s37" d="m39.3 46.4c0 0 7 6.3 4.7 11.1-2.3 4.8-8.6 0.8-7.9-4.8 0.7-5.6 1.9-7.4 3.2-6.3z"/>
	<path id="Layer" fill-rule="evenodd" class="s38" d="m35.8 52.7c0.5-4 1.2-6.2 2.1-6.8 0.5-0.3 1.1-0.2 1.6 0.2 0.3 0.3 7.2 6.6 4.8 11.6-0.9 1.9-2.6 2.7-4.5 2.1-2.3-0.7-4.5-3.6-4-7.1zm2.5-6.2c-0.4 0.3-1.2 1.5-1.9 6.2-0.4 3.2 1.6 5.8 3.6 6.4 1.6 0.5 2.9-0.1 3.7-1.7 2.2-4.6-4.6-10.7-4.7-10.7q-0.1-0.2-0.3-0.3-0.2 0-0.4 0.1z"/>
	<path id="Layer" class="s37" d="m35.6 44.9c0 0-6.2-6.2-10.4-2.9-4.3 3.3-0.3 8.7 3.5 8.1 3.7-0.6 6.9-5.2 6.9-5.2z"/>
	<path id="Layer" fill-rule="evenodd" class="s38" d="m23.1 46.2c-0.3-1.7 0.3-3.3 1.9-4.5q2.1-1.6 5.1-0.7c3 1 5.6 3.5 5.7 3.6l0.2 0.2-0.1 0.3c-0.2 0.2-3.4 4.7-7.2 5.3q-1 0.2-2-0.1c-1.8-0.6-3.3-2.3-3.6-4.1zm6.8-4.5q-2.7-0.9-4.5 0.6c-1.7 1.3-1.8 2.8-1.7 3.8 0.3 1.6 1.7 3 3.3 3.5q0.8 0.3 1.6 0.2c3.1-0.6 5.8-4 6.5-4.9-0.6-0.6-2.8-2.5-5.2-3.2z"/>
	<path id="Layer" class="s37" d="m38.6 43.5c1.3-0.5 2.6-1.7 3.6-2.5 2-1.5 3.9-3.5 3.9-6.1-0.1-4.4-6.1-6-9-3.1-3.4 3.2 0.1 12.3 1.5 11.7z"/>
	<path id="Layer" fill-rule="evenodd" class="s38" d="m35.7 39.1c-0.4-1.5-1-5.5 1.1-7.6 1.5-1.4 3.8-1.9 6-1.2 2.2 0.7 3.6 2.5 3.7 4.6 0 2.9-2.3 5-4 6.3q-0.4 0.3-0.8 0.7c-0.9 0.7-1.9 1.5-2.9 1.9q-0.3 0.1-0.6 0c-1-0.3-2-2.6-2.5-4.7zm1.6-7.1c-1.3 1.3-1.7 3.9-0.9 7 0.6 2.5 1.6 4 2 4.2h0.1c0.9-0.4 1.9-1.2 2.7-1.9q0.5-0.3 0.8-0.6c1.8-1.3 3.8-3.2 3.8-5.8-0.1-2.2-1.7-3.5-3.2-3.9-2-0.6-4-0.2-5.3 1z"/>
	<path id="Layer" class="s37" d="m38.7 45.7c0 0 9.5-1.1 11.7 2.9 0.9 1.5 0.4 4-1 5.1-3.9 3.1-8.5-2.6-10.2-5.7-0.1-0.1-1.2-2.2-0.5-2.3z"/>
	<path id="Layer" fill-rule="evenodd" class="s38" d="m38.9 48.2c-0.3-0.4-1.1-1.9-0.7-2.6q0.1-0.2 0.4-0.3c0.2 0 5-0.6 8.6 0.6q2.6 0.8 3.5 2.5c1 1.7 0.5 4.3-1 5.6q-1.9 1.4-4.1 0.8c-2.7-0.9-5.3-4.1-6.7-6.6zm-0.1-2.2c0 0.4 0.4 1.2 0.7 1.9 1.4 2.3 3.8 5.4 6.3 6.1 1.3 0.4 2.4 0.2 3.4-0.6 1.3-1 1.7-3.2 0.9-4.7q-0.8-1.4-3.1-2.1c-3.2-1-7.5-0.6-8.2-0.6z"/>
	<path id="Layer" class="s37" d="m37.4 43.7c0 0-0.1-10.8-7.2-10.7 0 0-3.6-0.1-3.8 3.7-0.2 3.8 6.2 7.2 8 7.8 1.9 0.6 3-0.8 3-0.8z"/>
	<path id="Layer" fill-rule="evenodd" class="s38" d="m26 36.7c0.2-4.1 4.2-4.1 4.2-4.1q1.1 0 2 0.3c5.4 1.7 5.6 10.4 5.6 10.8v0.1l-0.1 0.1c-0.4 0.5-1.7 1.5-3.4 1-1.8-0.6-8.5-4.1-8.3-8.2zm6-3.1q-0.8-0.3-1.8-0.3c-0.1 0-3.3 0-3.5 3.4-0.2 3.5 5.9 6.9 7.8 7.5 1.4 0.4 2.3-0.4 2.6-0.7-0.1-1-0.5-8.5-5.1-9.9z"/>
	<path id="Layer" class="s37" d="m37.3 46.2c0 0 1.3 10.2-4.3 11.8 0 0-2.1 0.8-3.8-1.3-1.8-2.1-1.2-6.3 2.8-9 4-2.7 5.4-2.4 5.3-1.5z"/>
	<path id="Layer" fill-rule="evenodd" class="s38" d="m28.9 56.9c-0.8-1-1.2-2.4-0.9-3.9 0.3-2.1 1.7-4.2 3.8-5.6 1.8-1.2 4.1-2.5 5.2-2.1 0.5 0.1 0.7 0.4 0.7 0.9 0.1 0.7 1.1 10.5-4.6 12.2 0 0-1 0.3-2.2-0.1q-1.1-0.3-2-1.4zm3.3-8.9c-2 1.3-3.3 3.2-3.6 5.1-0.2 1.3 0.1 2.5 0.8 3.4q0.8 0.9 1.7 1.2c1 0.3 1.8 0 1.8 0 5.2-1.5 4.1-11.4 4.1-11.5 0-0.2-0.1-0.3-0.2-0.3-0.2-0.1-1.3-0.2-4.6 2.1z"/>
	<path id="Layer" class="s41" d="m42.3 31.8c3.4 1.1 2.7 5.5-0.9 8 0 0-1.6 1.4-2.5 1.2-0.3-0.1-0.5-0.4-0.5-1 0 0-1.5-8.9 2.9-8.4q0.5 0.1 1 0.2z"/>
	<path id="Layer" class="s41" d="m46.3 47.3c1.3 0.4 3.4 1.3 3.3 3-0.2 1.8-2.2 2.9-4 2.3q-0.9-0.2-1.7-1c-2.1-2.2-4.6-6 1.4-4.6 0 0 0.4 0.1 1 0.3z"/>
	<path id="Layer" class="s41" d="m48.7 39.7q0.3 0.1 0.5 0.2c0 0 1.4 0.8 1 2.4-0.4 1.5-2.1 3.1-5.2 2.4q-0.5-0.1-0.8-0.2c-2.4-0.7-1.9-1.9-1-2.8 0 0 2.7-2.9 5.5-2z"/>
	<path id="Layer" class="s41" d="m39.7 51.2c0.2 0.1 0.6 0.4 1 0.9 0 0 1.2 1.7 2.4 2.5 1.3 0.7 0 3.6-1.9 3.5q-0.5 0-0.9-0.1c-1.5-0.5-2.8-2.1-2.2-4 0.5-1.7 0.8-3.1 1.6-2.8z"/>
	<path id="Layer" class="s41" d="m35.4 48.9c0.3 0.1 0.6 0.4 0.6 1 0 0 0 8.2-4.1 7-1.9-0.6-1.6-2.8-0.4-4.7 1.1-1.9 2.9-3.6 3.9-3.3z"/>
	<path id="Layer" class="s41" d="m29.1 44c1.1 0.4 2.1 0.9 2.7 1.3 0.7 0.6-0.3 1.1-0.9 1.4 0 0-1.4 1.2-1.7 2-0.3 0.6-1.2 0.5-1.9 0.3-0.3-0.1-0.6-0.2-0.7-0.3-1.4-0.7-2.4-2.3-1.6-3.7 0.7-1.5 2.5-1.5 4.1-1z"/>
	<path id="Layer" class="s41" d="m31.6 34.3c0.6 0.1 1.1 0.5 1.5 0.9 2.2 2 2.6 5.5 2.6 5.5 0.1 0.6 0.2 1.5-0.6 1.7-0.4 0.1-0.8 0-1.3-0.1-1.3-0.5-2.8-1.6-3.6-2.3-1.5-1.2-3-4.6-0.5-5.7 0.6-0.3 1.2-0.2 1.9 0z"/>
	<path id="Layer" class="s42" d="m34.6 44.1c-0.6 1.7 0.4 3.6 2.2 4.1 1.8 0.6 3.6-0.4 4.2-2.1 0.5-1.7-0.5-3.5-2.3-4.1-1.7-0.5-3.6 0.4-4.1 2.1z"/>
	<path id="Layer" fill-rule="evenodd" class="s43" d="m34.3 44c0.6-1.8 2.6-2.8 4.5-2.2 1.9 0.5 3 2.5 2.4 4.4-0.6 1.8-2.6 2.9-4.5 2.3-1.9-0.6-3-2.6-2.4-4.5zm0.5 0.2c-0.5 1.6 0.4 3.3 2.1 3.8 1.6 0.5 3.3-0.4 3.8-2 0.5-1.5-0.4-3.2-2-3.8-1.7-0.5-3.4 0.4-3.9 2z"/>
	<path id="Layer" class="s44" d="m38.8 42.7c1.3 0.4 2 1.8 1.6 3.1-0.4 1.4-1.8 2.1-3.1 1.7-1.3-0.4-2-1.8-1.5-3.1 0.4-1.4 1.8-2.1 3-1.7z"/>
</svg>