<svg version="1.2" xmlns="http://www.w3.org/2000/svg" viewBox="0 0 100 135" width="100" height="135">
	<title>flower_in_a_pot_12-svg</title>
	<style>
		.s0 { fill: #aa6b28 } 
		.s1 { fill: #2e1010 } 
		.s2 { fill: #f9a84c } 
		.s3 { fill: #7c4317 } 
		.s4 { fill: #fab76a } 
		.s5 { fill: #de9342 } 
		.s6 { fill: #6f3b14 } 
		.s7 { fill: #f9a72b } 
		.s8 { fill: #c7883c } 
		.s9 { fill: #584521 } 
		.s10 { fill: #403215 } 
		.s11 { fill: #6c562b } 
		.s12 { fill: #775e30 } 
		.s13 { fill: #d09c5d } 
		.s14 { fill: #7c6232 } 
		.s15 { fill: #463618 } 
		.s16 { fill: #de9225 } 
		.s17 { fill: #54401d } 
		.s18 { fill: #3d2e12 } 
		.s19 { fill: #654e21 } 
		.s20 { fill: #fab64f } 
		.s21 { fill: #875723 } 
		.s22 { fill: #3c2c13 } 
		.s23 { fill: #2b200c } 
		.s24 { fill: #493719 } 
		.s25 { fill: #543f1c } 
		.s26 { fill: #2f230e } 
		.s27 { fill: #392911 } 
		.s28 { fill: #291d0a } 
		.s29 { fill: #453213 } 
		.s30 { fill: #00b8d9 } 
		.s31 { fill: #00839b } 
		.s32 { fill: #e3c66c } 
		.s33 { fill: #f26339 } 
		.s34 { fill: #a23720 } 
		.s35 { fill: #cd371d } 
		.s36 { fill: #f15838 } 
		.s37 { fill: #f04c37 } 
		.s38 { fill: #ee4036 } 
		.s39 { fill: #93af2a } 
		.s40 { fill: #687f05 } 
		.s41 { fill: #b5d334 } 
		.s42 { fill: #a4c337 } 
		.s43 { fill: #92b23a } 
		.s44 { fill: #8bac3b } 
		.s45 { fill: #8caa30 } 
		.s46 { fill: #bdd631 } 
		.s47 { fill: #b1d033 } 
		.s48 { fill: #a1c136 } 
		.s49 { fill: #accb35 } 
	</style>
	<path id="Layer" class="s0" d="m71 102.9l-3.5 25.9c0 3.5-7.6 6.2-16.9 6.1-9.3-0.2-16.8-3.1-16.7-6.6l-4-27.6z"/>
	<path id="Layer" class="s1" d="m71 102.9h-0.1l-3.5 25.9c0 1.6-1.7 3.1-4.7 4.2-2.9 1.1-6.9 1.8-11.4 1.8q-0.3 0-0.7 0c-4.6-0.1-8.8-0.9-11.8-2-3-1.2-4.9-2.8-4.8-4.5l-4-27.5 41 2.2v-0.1-0.1l-41.1-2.2h-0.1v0.1l3.9 27.6h0.2-0.2c0.1 1.9 2 3.5 5 4.7 3.1 1.2 7.3 1.9 11.9 2q0.4 0 0.7 0c4.5 0 8.6-0.7 11.5-1.8 2.9-1.1 4.8-2.6 4.8-4.4h-0.1 0.1l3.5-25.9-0.1-0.1z"/>
	<path id="Layer" class="s2" d="m71 102.9l-3.5 25.9c0 3.5-7.6 6.2-16.9 6.1-9.3-0.2-16.8-3.1-16.7-6.6l-4-27.6z"/>
	<path id="Layer" class="s3" d="m71 102.9h-0.1l-3.5 25.9c0 1.6-1.7 3.1-4.7 4.2-2.9 1.1-6.9 1.8-11.4 1.8q-0.3 0-0.7 0c-4.6-0.1-8.8-0.9-11.8-2-3-1.2-4.9-2.8-4.8-4.5l-4-27.5 41 2.2v-0.1-0.1l-41.1-2.2h-0.1v0.1l3.9 27.6h0.2-0.2c0.1 1.9 2 3.5 5 4.7 3.1 1.2 7.3 1.9 11.9 2q0.4 0 0.7 0c4.5 0 8.6-0.7 11.5-1.8 2.9-1.1 4.8-2.6 4.8-4.4h-0.1 0.1l3.5-25.9-0.1-0.1z"/>
	<path id="Layer" class="s4" d="m34.4 107.9l2.6 18.2c0 0 1 5.7 7.9 7.3q1.2 0.2 2.4 0.2c5.9 0 10.8-4.9 11.2-10.8 0.5-7 0.5-12.9 0.5-12.9 0 0-4.1 0.7-9.5 0.7-4.7 0-10.5-0.6-15.1-2.7z"/>
	<path id="Layer" class="s5" d="m70.6 104.6c-1.1 1.1-2.8 2-4.8 2.8-1.7 0.7-3.7 1.2-5.8 1.6q0.8 0.1 2.1 0.1c1.2 0 2.5 0 4.1-0.3 0 0 0.2-0.1 0.3-0.1 0.3 0 0.6 0.3 0.6 1.8 0.1 2.5-2.2 17.5-2.2 17.5 0 0-0.5 3.9-5.8 5.4-1.8 0.5-4.7 0.8-7.9 0.8-6.3 0-14-1.5-17.4-6.7l0.2 0.8c-0.1 1.7 1.8 3.3 4.8 4.5 3 1.1 7.2 1.9 11.8 2q0.4 0 0.7 0c4.5 0 8.5-0.7 11.4-1.8 3-1.1 4.7-2.6 4.7-4.2z"/>
	<path id="Layer" class="s6" d="m70.8 104.5q-0.1 0.1-0.2 0.1l-3.2 24.2c0 1.6-1.7 3.1-4.7 4.2-2.9 1.1-6.9 1.8-11.4 1.8q-0.3 0-0.7 0c-4.6-0.1-8.8-0.9-11.8-2-3-1.2-4.9-2.8-4.8-4.5l-0.2-0.8q0-0.1-0.1-0.3l0.2 1.1c-0.1 3.5 7.4 6.4 16.7 6.6q0.4 0 0.7 0c9 0 16.2-2.7 16.2-6.1z"/>
	<path id="Layer" class="s7" d="m28.9 95.8l4 0.1c3.9-2.2 10.4-3.7 17.8-3.7 8.2 0 15.4 1.8 19.1 4.6 1.5-0.5 3.1-1 3.1-1l-0.5 5.6c-0.5 4.7-10 8.4-21.7 8.4-11.8 0-21.4-3.8-21.7-8.6h-0.1v-5.2z"/>
	<path id="Layer" class="s3" d="m28.9 95.8v0.1l4 0.2v-0.1c3.9-2.2 10.4-3.7 17.8-3.7 8.2 0 15.4 1.8 19 4.5l0.1 0.1c1.6-0.5 3.1-1 3.1-1v-0.1h-0.1l-0.5 5.6h0.1v-0.1l-0.1 0.1c-0.2 2.2-2.7 4.3-6.6 5.8-3.9 1.5-9.2 2.4-15 2.4-5.9 0-11.2-0.9-15.1-2.4-3.9-1.6-6.4-3.7-6.5-6l-0.1-0.1v-5.1h-0.1-0.1v0.1h0.1l0.1-0.1v-0.2h-0.1-0.1v0.2h0.1 0.1l-0.1-0.1-0.1 0.1v5.2l0.1 0.1 0.1-0.1h-0.1c0.2 2.5 2.7 4.6 6.6 6.2 3.9 1.5 9.3 2.5 15.2 2.5 5.9 0 11.2-1 15.1-2.5 3.9-1.5 6.5-3.6 6.7-6h-0.1v0.1l0.1-0.1 0.5-5.6v-0.1h-0.1c0 0-1.6 0.5-3.1 1v0.1l0.1-0.1c-3.8-2.8-10.9-4.6-19.2-4.6-7.4 0-13.9 1.5-17.9 3.7l0.1 0.1v-0.1l-4-0.1h-0.1v0.1z"/>
	<path id="Layer" class="s2" d="m28.9 95.8c0 4.9 9.9 8.8 22 8.8 12.1 0 22-3.9 22-8.8 0-4.9-9.9-8.9-22-8.9-12.1 0-22 4-22 8.9z"/>
	<path id="Layer" class="s3" d="m28.9 95.8h-0.1c0 2.5 2.5 4.7 6.5 6.3 4 1.6 9.5 2.6 15.6 2.6 6.1 0 11.6-1 15.6-2.6 4-1.6 6.5-3.8 6.5-6.3 0-2.5-2.5-4.8-6.5-6.4-4-1.6-9.5-2.6-15.6-2.6-6.1 0-11.6 1-15.6 2.6-4 1.6-6.5 3.9-6.5 6.4h0.1 0.1c0-2.4 2.4-4.6 6.4-6.2 3.9-1.6 9.4-2.5 15.5-2.5 6.1 0 11.6 0.9 15.5 2.5 4 1.6 6.4 3.8 6.4 6.2 0 2.3-2.4 4.5-6.4 6.1-3.9 1.6-9.4 2.6-15.5 2.6-6.1 0-11.6-1-15.5-2.6-4-1.6-6.4-3.8-6.4-6.1z"/>
	<path id="Layer" class="s8" d="m29.6 95.6c0 4.4 9.5 8 21.3 8 11.7 0 21.2-3.6 21.2-8 0-4.4-9.5-8-21.2-8-11.8 0-21.3 3.6-21.3 8z"/>
	<path id="Layer" class="s3" d="m29.6 95.6h-0.1c0 2.3 2.4 4.3 6.3 5.8 3.9 1.4 9.2 2.3 15.1 2.3 5.8 0 11.2-0.9 15-2.3 3.9-1.5 6.3-3.5 6.3-5.8 0-2.3-2.4-4.3-6.3-5.7-3.8-1.5-9.2-2.4-15-2.4-5.9 0-11.2 0.9-15.1 2.4-3.9 1.4-6.3 3.4-6.3 5.7h0.1 0.1c0-2.1 2.3-4.1 6.2-5.5 3.8-1.5 9.1-2.4 15-2.4 5.8 0 11.1 0.9 14.9 2.4 3.9 1.4 6.2 3.4 6.2 5.5 0 2.1-2.3 4.1-6.2 5.6-3.8 1.4-9.1 2.3-14.9 2.3-5.9 0-11.2-0.9-15-2.3-3.9-1.5-6.2-3.5-6.2-5.6z"/>
	<path id="Layer" class="s9" d="m64.5 94.4c0 0 0.4-1-3-2.2-3.4-1.3-4.2 0.9-4.2 0.9 0 0 0.1-0.9-1.8-2.1-1.8-1.2-4.5 0.7-4.5 0.7-3-1.4-5.3 1.7-5.3 1.7-2.7-2.7-7.3 0-7.3 0-4.8-1.1-5.9 2.9-5.9 2.9-1.2-0.1-2 0.3-2.7 0.9 2.4 3.4 10.6 6.2 20.4 6.4 10.7 0.3 19.6-2.5 21.2-6.3-1.2-1.2-3.4-1.6-3.4-1.6-1.1-1.6-3.5-1.3-3.5-1.3z"/>
	<path id="Layer" class="s10" d="m64.6 94.5c0.4-1.2-2.5-2.1-3.1-2.4-1.3-0.5-3.4-0.7-4.2 0.7-0.1 0.3-0.1 0.2 0 0.2 0 0 0.1 0 0.1 0.1-0.1-0.4-0.2-0.6-0.4-0.9-0.5-0.9-1.5-1.4-2.4-1.6-0.9-0.3-1.8 0.1-2.6 0.4q-0.5 0.3-1.1 0.6c0.2-0.1-1.3-0.3-1.1-0.3-1.1 0-1.9 0.2-2.8 0.8-0.4 0.3-0.8 0.6-1.1 1-0.4 0.4-0.5-0.1-1-0.4-2-0.9-4.1-0.5-6.1 0.3-0.5 0.3-0.9 0.2-1.4 0.2-0.3 0-0.6-0.1-0.9 0-1.1 0.1-2 0.4-2.8 1.1-0.6 0.4-1 1.1-1.2 1.7-0.1 0.3-2.3 0.8-2.8 1.1 1.8 2.5 4.8 3.6 7.5 4.5 4.2 1.4 8.7 1.9 13.1 2 4.6 0.2 9.2-0.3 13.7-1.5 2.7-0.7 6.2-2 7.5-4.7v-0.1c-1.2-1-2.7-1.2-3.8-2-0.9-0.8-2.1-1-3.2-0.9-0.2 0 0 0.1 0.1 0.1 1.4-0.1 2.4 1 3.7 1.3 1.1 0.3 3.5 0.9 2.5 2.3-0.4 0.6-0.9 1-1.4 1.4-3.3 2.6-8.2 3.3-12.2 3.8-5.6 0.6-11.3 0.3-16.8-0.9-2.4-0.5-4.7-1.3-6.8-2.3q-1.3-0.7-2.4-1.6-0.4-0.3-0.8-0.8c-1.1-1.1 2-1.4 2.1-1.4h0.1c0.8-2.6 3.4-3.3 5.8-2.9 0.2 0.1 0.7-0.3 0.9-0.4 2.1-0.9 4.5-1.2 6.4 0.4l0.1 0.1q0.5-0.6 1-1c1.4-1.3 2.2-0.8 4.2-0.8 0.4 0.1 0.9-0.4 1.2-0.6 1.6-0.8 5-0.2 5 2h0.2c0.3-0.7 1-1.1 1.8-1.3-0.5 0.2 5.8 0.7 5.2 2.6z"/>
	<path id="Layer" class="s11" d="m38.6 94.1c0 0-3.8-0.6-4.5 1.4-0.7 2-3.2 0.9-1.6 2.7 1.6 1.8 4 1.9 5.1 0.9 1.1-1 1.5-2.3 3.7-2.1 2.2 0.2 0.8-1.6-0.5-1.6-1.3 0 1.2-1.7 2.2-1.8 1-0.1-2.2-1.3-4.4 0.5z"/>
	<path id="Layer" class="s11" d="m48.1 96.2c0 0-0.8-1.1-3.4-1.2-2.6 0-1.1 1-1.2 1.5-0.1 0.5 1.6 1.5 1.6 1.5 0 0 0.7-1.7 3-1.8z"/>
	<path id="Layer" class="s11" d="m47 93.8c-0.3-0.1 1.6-2.1 3.5-1.5 0.8 0.3 1.6 0.1 2.4-0.1 0.9-0.3 1.7-0.5 2.6 0.1 1.5 1.1 0.8 2.1 0.8 2.1 0 0-4.8-0.1-5.2 2 0 0-1.5-2.5-4.1-2.6z"/>
	<path id="Layer" class="s11" d="m59.6 96.1c-0.1 0-0.4 0-1-0.1-1.6-0.2-4.5-0.4-5.5 1.1 0 0-0.6 0.4 0.5 1.4 1.1 0.9 2 1.2 1.9 2.4 0 0 1.5-3.4 7.5-1.9 5.9 1.4 6.6-1.2 5.4-1.9-1.2-0.7-3.6 0.3-3.6 0.3 0 0-0.9-2.3-5.2-1.3z"/>
	<path id="Layer" class="s12" d="m63.1 94.2c0 0-1.3-1.6-3.1-1.2-1.8 0.4 3.6 2.8 3.1 1.2z"/>
	<path id="Layer" class="s11" d="m52.5 100.2c0 0-1.9-1.6-4.5-0.8 0 0-0.2 2.5-0.8 2.5-0.5-0.1-1.5-3.7-4.6-3.4-3 0.3-4.4 1.5-3.1 2.6 1.2 1 7.3 2.3 11 2 3.6-0.3 2.9-1.9 2-2.9z"/>
	<path id="Layer" class="s11" d="m60.6 100.1c0 0-2.6-0.3-3.7 1.2-1.2 1.6 4.1 1.3 6 0.4 1.9-0.9-2-1.6-2.3-1.6z"/>
	<path id="Layer" class="s13" d="m52.1 88.3c-9.6 0-16.6 2.7-16.6 2.7-1.4 0.7-0.1 1.8 1.8 1.8 0.8 0 1.8-0.2 2.7-0.8 0.8-0.4 1.5-0.6 2.2-0.6 0.6 0 1.2 0.2 1.8 0.3 0.5 0.2 1 0.3 1.4 0.3 0.4 0 0.7-0.1 0.9-0.4 0.6-0.7 1.5-0.9 2.4-0.9 1.1 0 2 0.2 2 0.2 0 0 0.2-0.9 3-0.9q0.2 0 0.4 0c3.2 0.1 3.6 1.7 3.6 1.7 0.3-1 2.6-1 2.9-1.9 0.4-0.8-1-0.9-1-0.9-2.6-0.4-5.1-0.6-7.5-0.6z"/>
	<path id="Layer" class="s14" d="m38.7 94.9c-0.1-0.2-1.1-0.8-3-0.1-1.9 0.7-0.8 1.7 0.6 1.5 1.5-0.2 2.7-0.9 2.4-1.4z"/>
	<path id="Layer" class="s14" d="m46 95.5c0 0-1.3-0.3-1.1 0.3 0.3 0.5 2.4-0.1 1.1-0.3z"/>
	<path id="Layer" class="s14" d="m55.9 93.7c0 0-0.5-1.6-2.2-1.3-1.6 0.2 2.1 2.3 2.2 1.3z"/>
	<path id="Layer" class="s14" d="m64.2 97.4c0 0-3.1-1.6-3.1-0.1 0 1.5 4.2 1.2 3.1 0.1z"/>
	<path id="Layer" class="s15" d="m55.9 102.1q-0.1 0-0.2 0 0 0 0.1 0 0 0 0 0 0 0 0.1 0z"/>
	<path id="Layer" class="s16" d="m72.1 99.1c-1.1 4.9-9.9 8.8-9.9 8.8 0 0 5.1-1.7 7-2.9 2-1.2 2.7-3.5 2.7-3.5z"/>
	<path id="Layer" class="s9" d="m37.5 95.5c0 0-1.4-1.3-2.9 0.1-1.5 1.5-0.8 2.8 0.8 2.7 1.6-0.2 3.7-1.5 2.1-2.8z"/>
	<path id="Layer" class="s10" d="m37.6 95.5c-0.6-0.6-1.4-0.7-2.1-0.5-1 0.3-2.4 1.8-1.6 2.9 0.7 0.8 2.2 0.4 3 0 0.5-0.2 1-0.6 1.2-1.1 0.2-0.5-0.2-1-0.5-1.3h-0.2c0.8 0.7 0.6 1.6-0.3 2.1-0.8 0.6-2.5 1.1-3.1 0.1-0.6-1 0.7-2.2 1.4-2.6 0.7-0.3 1.5-0.1 2 0.4z"/>
	<path id="Layer" class="s17" d="m37.8 96q0 0.2-0.2 0.4 0.2 0 0.3 0.1 0-0.2-0.1-0.5z"/>
	<path id="Layer" class="s18" d="m37.8 95.8q0 0 0 0.2 0.1 0.3 0.1 0.5 0.1 0 0.1 0.1 0.1-0.4-0.2-0.8z"/>
	<path id="Layer" class="s17" d="m33.8 97q0 0.4 0.2 0.7c0.3 0.4 0.7 0.6 1.2 0.6 0.4 0 0.9-0.2 1.3-0.3-0.2-0.3-0.2-0.6 0-0.9q-0.1 0.1-0.2 0.1c0 0-0.7 0.4-1.4 0.4q-0.2 0-0.4-0.1c-0.4-0.2-0.6-0.3-0.7-0.5z"/>
	<path id="Layer" class="s18" d="m34 96.3c-0.6 1.1 0 2 1.2 2q0.1 0 0.2 0 0.6-0.1 1.1-0.3 0 0 0 0c-0.4 0.1-0.9 0.3-1.3 0.3-0.5 0-0.9-0.2-1.2-0.6q-0.2-0.3-0.2-0.7 0-0.2 0.3-0.6z"/>
	<path id="Layer" class="s19" d="m36.2 95.3c-0.9 0-1.6 0.9-1.6 0.9q-0.2 0.3-0.2 0.4c0 0.2 0.1 0.2 0.3 0.2 0.3 0 0.9-0.2 1.1-0.3 0.2-0.2 1.2-0.5 1.2-0.8q0.1-0.2-0.3-0.3-0.3-0.1-0.5-0.1z"/>
	<path id="Layer" class="s9" d="m38.2 96.7c0 0-0.7-0.6-1.4 0.2-0.7 0.7-0.3 1.4 0.5 1.3 0.8 0 1.7-0.8 0.9-1.5z"/>
	<path id="Layer" class="s10" d="m38.3 96.7c-0.3-0.2-0.7-0.3-1-0.3-0.6 0.2-1.3 1.1-0.8 1.7 0.7 0.8 2.8-0.4 1.8-1.4l-0.2 0.1c1 0.9-1 1.9-1.5 1.1-0.2-0.4 0.2-1 0.5-1.2 0.3-0.3 0.8-0.2 1 0.1z"/>
	<path id="Layer" class="s9" d="m65.9 98c0 0-1.4-1.3-2.9 0.2-1.5 1.4-0.7 2.7 0.9 2.6 1.5-0.2 3.6-1.5 2-2.8z"/>
	<path id="Layer" class="s10" d="m66 98c-0.5-0.5-1.3-0.7-2-0.5-1 0.2-2.5 1.8-1.6 2.9 0.6 0.8 2.1 0.4 2.9 0 0.5-0.2 1-0.5 1.2-1.1 0.2-0.5-0.1-1-0.5-1.3-0.1-0.1-0.3-0.1-0.2 0 2.1 1.8-2.6 3.9-3.4 2.1-0.5-0.9 0.7-2 1.3-2.4 0.7-0.4 1.6-0.2 2.1 0.3 0.1 0 0.3 0.1 0.2 0z"/>
	<path id="Layer" class="s17" d="m64.9 99.6q-0.1 0.1-0.2 0.1c0 0-0.7 0.4-1.3 0.4q-0.1 0-0.2 0-0.3 0.1-0.7 0.2c0.2 0.3 0.7 0.5 1.2 0.5 0.4 0 0.8-0.1 1.2-0.3-0.2-0.3-0.1-0.6 0-0.9zm1.1-0.5q0 0-0.1 0-0.2 0.2-0.7 0.4c-0.1 0.3-0.3 0.6-0.1 0.9 0.6-0.3 1.1-0.8 1.2-1.3q-0.1 0-0.3 0zm0.2-0.6q0 0.2-0.2 0.4 0.2 0.1 0.3 0.1 0-0.2-0.1-0.5z"/>
	<path id="Layer" class="s18" d="m62.5 100.3q-0.1 0-0.1 0c0.2 0.3 0.7 0.5 1.2 0.5q0.1 0 0.3 0 0.5-0.1 1-0.3 0 0 0 0c-0.4 0.2-0.8 0.3-1.2 0.3-0.5 0-1-0.2-1.2-0.5zm3.8-1.2c-0.1 0.5-0.6 1-1.2 1.3q0 0 0 0 0 0.1 0 0.1c0.7-0.3 1.2-0.8 1.4-1.3q-0.1 0-0.2-0.1zm0-0.8q0 0.1-0.1 0.2 0.1 0.3 0.1 0.5 0.1 0 0.2 0.1 0-0.4-0.2-0.8z"/>
	<path id="Layer" class="s19" d="m64.7 97.8q-0.3 0-0.5 0.1c0.4 0.1 0.6 0.4 0.4 0.8q-0.1 0.1-0.1 0.1c0.4-0.2 1-0.4 1-0.6q0-0.2-0.4-0.3-0.2-0.1-0.4-0.1z"/>
	<path id="Layer" class="s9" d="m66.6 99.3c0 0-0.7-0.7-1.4 0.1-0.6 0.8-0.2 1.5 0.5 1.4 0.8-0.1 1.7-0.9 0.9-1.5z"/>
	<path id="Layer" class="s10" d="m66.7 99.3c-0.2-0.3-0.6-0.4-1-0.3-0.5 0.1-1.3 1-0.8 1.5 0.8 0.9 2.9-0.3 1.8-1.2h-0.2c1 0.9-0.9 1.9-1.4 1.1-0.2-0.3 0-0.7 0.2-1 0.4-0.4 0.9-0.5 1.2-0.1z"/>
	<path id="Layer" class="s20" d="m29.9 99.4c0 0 0 2.3 0.2 2.8 0.2 0.5 0.8 1.4 0.8 1.4 5.6 4.3 14.4 5.2 20.5 5.2 4 0 6.8-0.4 7.2-0.4 0.8 0 0.4-3.4 0.4-3.4q-4.7 0.4-8.5 0.4c-16.8 0-20.6-6-20.6-6z"/>
	<path id="Layer" class="s21" d="m45.8 93.1q-0.1 0.1-0.3 0.1 0 0 0 0 0.1 0 0.1 0 0.1 0.1 0.2-0.1z"/>
	<path id="Layer" fill-rule="evenodd" class="s22" d="m47 93.8c2.6 0.1 4.1 2.6 4.1 2.6 0.4-2 4.8-2 5.2-2q0 0 0 0c0 0 0.1-0.1 0.1-0.4q0.2 0.2 0.2 0.4c0.3 0.7 2.5 1.1 3.8 1.6q-0.4 0-0.8 0.1 0 0 0 0c-0.1 0-0.5 0-1-0.1-0.5-0.1-1.2-0.1-1.9-0.1-1.4 0-2.9 0.2-3.6 1.2 0 0-0.6 0.4 0.5 1.4 1.1 0.9 2 1.2 1.9 2.4 0 0 1.1-2.3 4.7-2.3q0.9 0 2.1 0.2-0.1 0.2-0.1 0.3-0.8-0.1-1.7-0.1-0.7 0-1.5 0.1c-3.2 0.6-4.1 2.8-3.3 3-0.8 0.1-1.6 0.3-2.3 0.4q-0.7 0.2-1.4 0.3c1.9-0.5 1.3-1.8 0.5-2.6 0 0-1.2-1-3.1-1q-0.6 0-1.4 0.2c0 0-0.2 2.5-0.7 2.5q-0.1 0-0.1 0c-0.5-0.1-1.4-3.5-4.2-3.5q-0.2 0-0.4 0.1c-2.8 0.2-4.2 1.3-3.4 2.3-0.4-0.2-0.8-0.4-1.5-0.8q-0.5-0.2-0.8-0.5 0.4-0.1 0.7-0.4c1.1-0.9 1.5-2.1 3.3-2.1q0.2 0 0.4 0 0.2 0 0.3 0c1.8 0 0.5-1.6-0.8-1.6-0.6 0-0.4-0.4 0.1-0.8 1.3-0.4 2.9-1 4.5-1.4q0.1 0.1 0.3 0.2l0.1 0.1q0.2-0.2 0.3-0.4 0.9-0.1 1.6-0.2c-0.5 0.4-0.8 0.8-0.7 0.9zm-1.5-0.6q0 0 0 0 0 0 0 0zm-0.6 5c-0.2-0.1-1.2-0.7-2.5-0.7-0.9 0-1.9 0.3-2.9 1.2-0.9 0.7-1.1 1.5-1.1 1.5q0.5-0.9 1.1-1.5c0.6-0.4 1.4-0.7 2.6-0.7q0.8 0 1.8 0.2c0 0 3.1 1.3 3.4 3.3 0 0 0.4-2.1-0.7-2.4-0.5-0.2 0.6-0.5 2.1-0.5 1.5 0 3.5 0.4 4.9 1.5 0.6 0.6 1 0.8 1.1 0.8 0.7 0-0.7-2.3-2.6-2.8 0 0 0.9-2.1 3.3-2.4 0.9-0.2 0.7-0.3 0.1-0.3-1.1 0-3.5 0.4-4.3 2 0 0-2.1-3.4-6.1-3.4q-0.3 0-0.5 0c0 0 4.2 1.3 4.4 2.4 0.2 1.1-2.7 0.6-3.4 1.6 0 0-0.3 0.2-0.5 0.2q-0.1 0-0.2 0zm3.2-2c0 0-0.8-1.1-3.4-1.2q-0.1 0-0.2 0c-2.3 0-0.9 1-1 1.5-0.1 0.5 1.6 1.5 1.6 1.5 0 0 0.7-1.7 3-1.8zm-3.6 6.5c-1-0.1-1.9-0.2-2.6-0.6q-0.1 0-0.1 0c0.8 0.2 1.7 0.4 2.7 0.6z"/>
	<path id="Layer" class="s23" d="m46.1 93.1q-0.1 0-0.3 0.1-0.1 0.1-0.2 0 0 0-0.1 0 0 0 0 0 0 0-0.1 0 0.1 0.1 0.3 0.2l0.1 0.1q0.2-0.2 0.3-0.4z"/>
	<path id="Layer" class="s24" d="m40.9 94.6q-0.5 0.2-0.9 0.3c-2.1 0.7 0 1.1-1.6 2 0.5 0.7-0.4 1.4-1.2 1.4q-0.3 0-0.6-0.2-0.4 0.7 0.3 1.4 0.4-0.1 0.7-0.4c1.1-0.9 1.5-2.1 3.3-2.1q0.2 0 0.4 0 0.2 0 0.3 0c1.8 0 0.5-1.6-0.8-1.6-0.6 0-0.4-0.4 0.1-0.8z"/>
	<path id="Layer" fill-rule="evenodd" class="s24" d="m44.7 95c2.6 0.1 3.4 1.2 3.4 1.2-2.3 0.1-3 1.8-3 1.8 0 0-1.7-1-1.6-1.5 0.1-0.5-1.3-1.5 1-1.5q0.1 0 0.2 0zm1.3 0.5c0 0-0.3-0.1-0.6-0.1-0.3 0-0.6 0.1-0.5 0.4 0.1 0.1 0.4 0.2 0.6 0.2 0.6 0 1.4-0.3 0.5-0.5z"/>
	<path id="Layer" class="s24" d="m47.7 92.9q0 0 0 0c-0.5 0.4-0.8 0.8-0.7 0.9 2.6 0.1 4.1 2.6 4.1 2.6 0.4-2 4.8-2 5.2-2q0 0 0 0c0 0 0.1-0.1 0.1-0.4q-0.2-0.2-0.5-0.2-0.1 0.2-0.4 0.2c-0.2 0-0.5-0.1-0.9-0.3-0.4 0.1-0.7 0.2-0.7 0.2-1.2-0.4-2.1 0.2-4.6-0.7q-0.7-0.3-1.6-0.3z"/>
	<path id="Layer" class="s24" d="m56.7 95.9c-1.4 0-3 0.2-3.6 1.2 0 0-0.6 0.4 0.5 1.4 1.1 0.9 2 1.2 1.9 2.4 0 0 1-2.3 4.7-2.3q0.9 0 2.1 0.2 0.2-0.2 0.4-0.5c-0.8 0-1.6-0.3-1.6-1 0-0.4 0.2-0.6 0.5-0.6-0.1-0.3-0.5-0.5-1.2-0.7q-0.4 0-0.8 0.1 0 0 0 0c-0.1 0-0.5 0-1-0.1-0.5-0.1-1.2-0.1-1.9-0.1z"/>
	<path id="Layer" class="s24" d="m43 98.4q-0.2 0-0.4 0.1c-2.8 0.2-4.2 1.3-3.4 2.3 0.7 0.4 1.3 0.7 2.6 1.3 0.8 0.2 1.7 0.4 2.7 0.6 2 0.2 4.1 0 5.4 0.2q0.3 0.1 0.7 0.1 0.7 0 1.4-0.2c1.9-0.5 1.3-1.8 0.5-2.6 0 0-1.2-1-3.1-1q-0.6 0-1.4 0.2c0 0-0.2 2.5-0.7 2.5q-0.1 0-0.1 0c-0.5-0.1-1.4-3.5-4.2-3.5z"/>
	<path id="Layer" class="s25" d="m45.4 95.4c-0.3 0-0.6 0.1-0.5 0.4 0.1 0.1 0.4 0.2 0.6 0.2 0.6 0 1.4-0.3 0.5-0.5 0 0-0.3-0.1-0.6-0.1z"/>
	<path id="Layer" class="s25" d="m55.2 93.7q-0.3 0-0.6 0c0.4 0.2 0.7 0.3 0.9 0.3q0.3 0 0.4-0.2-0.3-0.1-0.7-0.1z"/>
	<path id="Layer" class="s25" d="m61.6 96.7c-0.3 0-0.5 0.2-0.5 0.6 0 0.7 0.8 1 1.6 1 0.2-0.3 0.5-0.5 0.8-0.7-0.9-0.2-2-0.3-1.9-0.8q0-0.1 0-0.1z"/>
	<path id="Layer" fill-rule="evenodd" class="s26" d="m39.5 98.7c-0.9 0.7-1.1 1.5-1.1 1.5q0.5-0.9 1.1-1.5zm5.6-4.7q-0.3 0-0.5 0c0 0 4.2 1.3 4.4 2.4 0.2 1.1-2.7 0.6-3.4 1.6 0 0-0.3 0.2-0.5 0.2q-0.1 0-0.2 0c-0.2-0.1-1.2-0.7-2.5-0.7-0.9 0-1.9 0.3-2.9 1.2 0.6-0.4 1.4-0.7 2.6-0.7q0.8 0 1.8 0.2c0 0 3.1 1.3 3.4 3.3 0 0 0.4-2-0.7-2.4-0.5-0.2 0.6-0.5 2.1-0.5 1.5 0 3.5 0.4 4.9 1.6 0.6 0.5 1 0.7 1.1 0.7 0.7 0-0.7-2.3-2.6-2.8 0 0 0.9-2.1 3.3-2.4 0.9-0.2 0.7-0.3 0.1-0.3-1.1 0-3.5 0.4-4.3 2 0 0-2.1-3.4-6.1-3.4z"/>
	<path id="Layer" class="s22" d="m61.1 99.7c-3.8 0-5 2.1-5.2 2.4q0.3 0 0.7 0 0.1 0 0.2 0 0.1 0 0.1 0c-0.2-0.2-0.3-0.4 0-0.8 0.8-1.1 2.3-1.2 3.1-1.2 0.4 0 0.6 0 0.6 0 0.1 0 0.8 0.1 1.5 0.3q0.1 0 0.2-0.1-0.2-0.2-0.2-0.6-0.5 0-1 0z"/>
	<path id="Layer" class="s24" d="m60 100.1c-0.8 0-2.3 0.1-3.1 1.2-0.3 0.3-0.2 0.6 0 0.8q0.1 0 0.2 0c2.5 0 2.6-1 4.5-1.6q0.3 0 0.5-0.1c-0.7-0.2-1.4-0.3-1.5-0.3 0 0-0.2 0-0.6 0z"/>
	<path id="Layer" class="s26" d="m60.5 99q-0.7 0-1.5 0.1c-3.2 0.6-4.1 2.8-3.3 3q0.1 0 0.2 0c0.2-0.3 1.4-2.4 5.2-2.4q0.5 0 1 0 0-0.3 0.1-0.6-0.8-0.1-1.7-0.1z"/>
	<path id="Layer" class="s22" d="m38.3 97q-0.1 0-0.2 0.1-1 0.4-1.4 0.9 0.2 0.2 0.5 0.2c0.6 0 1.4-0.6 1.1-1.2z"/>
	<path id="Layer" class="s23" d="m38.4 96.9q0 0-0.1 0.1c0.3 0.6-0.5 1.2-1.1 1.2q-0.3 0-0.5-0.2 0 0.1-0.1 0.1 0.3 0.2 0.6 0.2c0.8 0 1.7-0.7 1.2-1.4z"/>
	<path id="Layer" class="s22" d="m63.8 97.7q0 0-0.1 0c-0.5 0.3-1.3 1.1-1.4 1.9 0 0.1 0.2 0.2 0.6 0.4q0.1 0.1 0.3 0.1c0.6-0.2 0.9-0.5 1.3-1.3q-0.2 0.1-0.3 0.2c-0.2 0.1-0.7 0.3-1.1 0.3-0.1 0-0.2 0-0.2-0.2q0-0.1 0.2-0.4c0 0 0.4-0.6 1.1-0.8q-0.2-0.1-0.4-0.2z"/>
	<path id="Layer" class="s23" d="m63.5 97.6c-0.3 0.2-0.6 0.4-0.8 0.7q-0.2 0.3-0.4 0.5-0.1 0.2-0.1 0.3-0.1 0.3-0.1 0.6 0 0.4 0.2 0.6 0.1 0 0.1 0c-0.3-0.3-0.3-0.9 0.1-1.5v0.1c-0.2 0.3-0.3 0.5-0.2 0.7 0-0.8 0.9-1.6 1.4-1.9q0.1 0 0.1 0-0.1 0-0.3-0.1z"/>
	<path id="Layer" class="s27" d="m62.3 99.6q-0.1 0.2 0.1 0.5 0 0.1 0.1 0.2 0.4-0.1 0.7-0.2-0.2 0-0.3-0.1c-0.4-0.2-0.6-0.3-0.6-0.4z"/>
	<path id="Layer" class="s28" d="m62.5 98.8c-0.4 0.6-0.4 1.2-0.1 1.5q0 0 0.1 0-0.1-0.1-0.1-0.2-0.2-0.3-0.1-0.5c-0.1-0.2 0-0.4 0.2-0.7z"/>
	<path id="Layer" class="s29" d="m64.2 97.9c-0.7 0.2-1.1 0.8-1.1 0.8q-0.2 0.3-0.2 0.4c0 0.2 0.1 0.2 0.2 0.2 0.4 0 0.9-0.2 1.1-0.3q0.1-0.1 0.3-0.2 0 0 0.1-0.1c0.2-0.4 0-0.7-0.4-0.8z"/>
	<path id="Layer" class="s30" d="m51.8 94q0.4 0 0.7 0.1-0.3-0.1-0.7-0.1z"/>
	<path id="Layer" class="s31" d="m51.8 94.3v-0.5q0.4 0 0.8 0l-0.1 0.5q-0.4 0-0.7 0z"/>
	<path id="Layer" class="s31" d="m48.5 94.1l0.1-0.5q0.2 0 0.4 0v0.5q-0.2 0-0.5 0z"/>
	<path id="Layer" class="s30" d="m50.9 94q0.2 0 0.5 0-0.3 0-0.5 0z"/>
	<path id="Layer" class="s31" d="m50.9 94.2v-0.5q0.3 0 0.5 0v0.5q-0.3 0-0.5 0z"/>
	<path id="Layer" class="s31" d="m48.1 94.1h-0.1-0.2-0.1-0.1-0.2v-0.5h0.2 0.2q0.2 0 0.4 0l-0.1 0.5z"/>
	<path id="Layer" class="s31" d="m48.1 93.9q0.2 0 0.5 0-0.2 0-0.5 0z"/>
	<path id="Layer" class="s31" d="m49 93.9q0.5 0 1 0-0.5 0-1 0z"/>
	<path id="Layer" class="s31" d="m50 93.9q0.4 0 0.9 0.1-0.5-0.1-0.9-0.1z"/>
	<path id="Layer" class="s32" d="m50 98.6q0 0.2 0 0.3 0-0.1 0-0.3z"/>
	<path id="Layer" class="s33" d="m38 34.4c0 0-3.1-2.5-4.7-3.7-1.5-1.1-1.6 1.4 0.4 3.1 2.1 1.7 4.3 0.6 4.3 0.6z"/>
	<path id="Layer" class="s34" d="m38 34.4v-0.1c0 0-3.1-2.5-4.6-3.6q-0.5-0.3-0.8-0.3-0.1 0-0.2 0-0.2 0.1-0.2 0.3-0.1 0.2-0.1 0.4c0 0.4 0.1 0.8 0.4 1.3 0.2 0.5 0.6 1 1.2 1.4 0.9 0.8 1.8 1 2.6 1 1 0 1.7-0.4 1.7-0.4h0.1l-0.1-0.1v0.1-0.1c-0.1 0-0.8 0.3-1.7 0.3-0.7 0-1.6-0.2-2.5-0.9-0.6-0.4-0.9-0.9-1.2-1.4-0.2-0.4-0.4-0.9-0.4-1.2q0-0.3 0.1-0.4l0.2-0.1 0.1-0.1q0.3 0 0.7 0.3c0.7 0.6 1.9 1.5 2.9 2.2 0.5 0.4 0.9 0.8 1.2 1q0.3 0.2 0.4 0.3 0.1 0.1 0.1 0.1z"/>
	<path id="Layer" class="s33" d="m64.6 22c0 0 2.7-1.9 4-2.8 1.3-0.8 1 2.1-0.7 3.4-1.8 1.3-3.3-0.6-3.3-0.6z"/>
	<path id="Layer" class="s34" d="m64.6 22v0.1l0.2-0.1c0.5-0.4 2.7-1.9 3.8-2.7q0.3-0.1 0.4-0.1h0.1q0.1 0.1 0.2 0.2 0 0.1 0 0.4c0 0.3-0.1 0.8-0.3 1.4-0.3 0.5-0.7 1-1.2 1.3-0.4 0.4-0.8 0.5-1.2 0.5-0.6 0-1.1-0.3-1.4-0.5q-0.3-0.2-0.4-0.4l-0.1-0.1h-0.1l-0.1 0.1c0 0 0.3 0.3 0.6 0.5 0.4 0.3 0.9 0.6 1.5 0.6 0.4 0 0.8-0.2 1.3-0.5 0.5-0.4 0.9-0.9 1.2-1.5 0.3-0.5 0.4-1 0.4-1.4q0-0.4-0.1-0.6l-0.2-0.1q-0.1-0.1-0.2-0.1-0.2 0-0.5 0.2c-1.3 0.8-3.9 2.8-3.9 2.8h-0.1v0.1z"/>
	<path id="Layer" class="s35" d="m68 22.7c0 0 1.1-1.8 1-2.8-0.2-0.9-0.1-0.2-1.2 0.7-1.1 0.9-1.2 2.4 0.2 2.1z"/>
	<path id="Layer" class="s36" d="m66.3 24.4c0 0 0.4-2.8 2.5-3.5 2.1-0.6-0.5 2.7-1.1 3.2-0.6 0.6-1.4 0.3-1.4 0.3z"/>
	<path id="Layer" class="s34" d="m66.3 24.4h0.1c0 0 0.1-0.7 0.5-1.5 0.1-0.4 0.4-0.8 0.7-1.1 0.3-0.3 0.7-0.6 1.2-0.8q0.3-0.1 0.5-0.1l0.1 0.1h0.1v0.2q0 0.1 0 0.3c-0.2 0.4-0.5 1-0.9 1.5q-0.3 0.3-0.5 0.6-0.3 0.3-0.4 0.5c-0.3 0.2-0.7 0.3-1 0.3q-0.1 0-0.3 0h-0.1v0.1c0 0 0.2 0.1 0.4 0.1 0.3 0 0.7-0.1 1.1-0.4q0.2-0.2 0.5-0.5c0.3-0.4 0.6-0.9 0.9-1.3q0.2-0.4 0.4-0.7 0.1-0.3 0.1-0.5v-0.2l-0.2-0.2q-0.1 0-0.2 0-0.2 0-0.5 0.1c-0.6 0.1-1 0.5-1.3 0.8-0.5 0.6-0.9 1.2-1 1.8-0.2 0.5-0.3 0.9-0.3 0.9v0.1h0.1z"/>
	<path id="Layer" class="s35" d="m67.6 22c0.4-0.4 1.3-0.8 1.5-0.7 0.4 0.1-0.3 1.2-0.9 1.6-0.2 0.1-0.6 0-0.7-0.4q-0.1-0.2 0.1-0.5z"/>
	<path id="Layer" class="s37" d="m65.2 25.7c0 0 1.1 0.2 2.5-0.8 1.4-1 2.9-1.9 1.1-2.5-1.9-0.6-5.1 0.4-4.4 2 0.6 1.7 0.8 1.3 0.8 1.3z"/>
	<path id="Layer" class="s34" d="m65.2 25.7v0.1q0 0 0.3 0c0.3 0 1.2-0.1 2.2-0.8 0.5-0.4 1-0.7 1.4-1q0.3-0.2 0.4-0.5 0.2-0.2 0.2-0.4l-0.1-0.3q0-0.1-0.2-0.3-0.3-0.1-0.6-0.2-0.6-0.2-1.2-0.2c-0.8 0-1.7 0.2-2.3 0.5q-0.5 0.2-0.8 0.6-0.3 0.3-0.3 0.8 0 0.2 0.1 0.5c0.2 0.5 0.4 0.9 0.5 1.1q0.1 0.1 0.2 0.2h0.2 0.1v-0.1h-0.1l-0.1-0.1q-0.1 0-0.3-0.3-0.1-0.3-0.4-0.9 0-0.2 0-0.4 0-0.4 0.2-0.7c0.3-0.3 0.7-0.6 1.3-0.8 0.5-0.1 1.1-0.2 1.7-0.2q0.6 0 1.1 0.1 0.5 0.2 0.7 0.3l0.1 0.2v0.2q0 0.1-0.1 0.3-0.2 0.3-0.7 0.7-0.5 0.4-1 0.7c-1.1 0.7-1.9 0.8-2.2 0.8h-0.2-0.1v0.1z"/>
	<path id="Layer" class="s35" d="m66.5 22.9c0 0 1.5-0.4 2.4 0.1 0.9 0.5-1.1 1-1.6 1.4-0.5 0.3-2-1.3-0.8-1.5z"/>
	<path id="Layer" class="s38" d="m64 25.9c0 0 1 0.4 2.5-0.1 1.5-0.6 3.1-1.1 1.3-1.9-1.8-0.9-5.1-0.8-4.6 0.8 0.5 1.5 0.8 1.2 0.8 1.2z"/>
	<path id="Layer" class="s34" d="m64 25.9l-0.1 0.1c0 0 0.4 0.1 1 0.1 0.4 0 1 0 1.6-0.3 0.5-0.1 1.1-0.3 1.5-0.5q0.3-0.2 0.5-0.3l0.1-0.2 0.1-0.2-0.1-0.2q-0.1-0.2-0.3-0.3-0.2-0.2-0.5-0.3c-0.7-0.4-1.7-0.6-2.5-0.6-0.6 0-1.2 0.1-1.6 0.3q-0.3 0.1-0.5 0.4-0.1 0.2-0.1 0.5 0 0.1 0 0.3c0.2 0.6 0.4 0.9 0.5 1.1q0.1 0.1 0.2 0.2h0.1 0.1v-0.1h-0.1l-0.1-0.1q0 0-0.2-0.3-0.1-0.2-0.3-0.8-0.1-0.2-0.1-0.3 0-0.3 0.2-0.4 0.2-0.3 0.7-0.5 0.5-0.1 1.2-0.1c0.8 0 1.7 0.2 2.4 0.5q0.5 0.2 0.6 0.4l0.2 0.2v0.1 0.1q-0.1 0.1-0.3 0.3-0.3 0.2-0.8 0.3-0.4 0.2-0.9 0.4c-0.7 0.2-1.2 0.3-1.6 0.3q-0.5 0-0.7-0.1h-0.2v-0.1h-0.1v0.1z"/>
	<path id="Layer" class="s37" d="m64.3 25.2c0 0-0.8-0.5-0.6-1.7 0.2-1.2 2.1-2.5 3.2-3.8 1.1-1.4 1.5-0.2 0.2 2.7-1.2 2.9-2.8 2.8-2.8 2.8z"/>
	<path id="Layer" class="s34" d="m64.3 25.2l0.1-0.1c0 0-0.2-0.1-0.3-0.3-0.2-0.2-0.3-0.5-0.3-1q0-0.1 0-0.3 0.1-0.4 0.4-0.9c0.3-0.4 0.8-0.9 1.3-1.4 0.5-0.5 1-1 1.5-1.5q0.2-0.3 0.4-0.4 0.2-0.1 0.3-0.1l0.1 0.1q0 0.1 0 0.3 0 0.4-0.1 1.1-0.2 0.7-0.6 1.7c-0.6 1.3-1.3 2-1.8 2.3-0.5 0.4-0.8 0.4-0.9 0.4h-0.1v0.1 0.1h0.1c0.1 0 0.5-0.1 1-0.4 0.6-0.4 1.2-1.1 1.8-2.5q0.4-0.9 0.6-1.6 0.2-0.7 0.2-1.2 0-0.2-0.1-0.4l-0.1-0.1-0.1-0.1q-0.2 0-0.4 0.2-0.2 0.1-0.5 0.4c-0.5 0.7-1.3 1.3-1.9 2q-0.5 0.5-0.8 0.9-0.4 0.5-0.5 1 0 0.2 0 0.3c0 0.5 0.2 0.9 0.3 1.1 0.2 0.2 0.4 0.3 0.4 0.3v0.1z"/>
	<path id="Layer" class="s35" d="m65.2 24.7c0 0 1.5-0.8 2.7-0.2 1.2 0.7-1.3 0.7-2.4 1.2-1.1 0.5-0.8-1.1-0.3-1z"/>
	<path id="Layer" class="s35" d="m65.6 24.1c0 0 1.6-1.5 1.7-3.8 0 0 0.2-0.8-0.6 0.2-0.7 1.1-2.2 3.9-1.1 3.6z"/>
	<path id="Layer" class="s38" d="m63.8 26.2c0 0-0.8-0.2-0.8-1.5 0-1.2 1.7-3.1 2.6-4.8 0.9-1.7 1.4-0.6 0.5 2.7-0.8 3.3-2.3 3.6-2.3 3.6z"/>
	<path id="Layer" class="s34" d="m63.8 26.2v-0.1c0 0-0.2 0-0.4-0.2-0.2-0.2-0.3-0.5-0.3-1.1v-0.1q0-0.4 0.2-1c0.3-0.5 0.7-1.1 1.1-1.8 0.5-0.6 0.9-1.3 1.3-1.9q0.2-0.4 0.4-0.6l0.1-0.1 0.1-0.1h0.1q0 0.1 0.1 0.3 0 0.1 0 0.4 0 0.9-0.4 2.7c-0.5 1.6-1 2.5-1.5 3q-0.4 0.3-0.6 0.4l-0.2 0.1v0.1 0.1c0 0 0.4-0.1 0.9-0.6 0.5-0.5 1.1-1.4 1.5-3.1q0.5-1.8 0.5-2.7 0-0.4-0.1-0.6l-0.1-0.2h-0.2-0.2q-0.1 0.1-0.2 0.3-0.2 0.2-0.4 0.5c-0.4 0.8-1.1 1.7-1.6 2.6q-0.4 0.6-0.7 1.2-0.3 0.5-0.3 1v0.1c0 0.6 0.2 1 0.4 1.2 0.2 0.2 0.5 0.3 0.5 0.3z"/>
	<path id="Layer" class="s39" d="m64 25.4c0 0-14 8.6-12.3 56.3l-1.2-0.1c0 0-1.9-45.6 14.1-57.5z"/>
	<path id="Layer" class="s40" d="m64 25.4c-0.1 0-3.2 1.9-6.3 8.9-3.1 7-6.2 19.2-6.2 39.6q0 3.7 0.1 7.8h0.1v-0.1h-1.2v0.1l0.1-0.1c0-0.4-0.1-2-0.1-4.4 0-5.9 0.3-16.7 2.2-27.3 1-5.3 2.4-10.6 4.3-15.1 1.9-4.5 4.4-8.2 7.6-10.6v-0.1h-0.1l-0.6 1.3h0.1l0.1 0.1 0.7-1.6-0.2 0.1c-3.3 2.5-5.8 6.3-7.7 10.8-3 6.8-4.6 15.2-5.5 23-0.9 7.8-1.1 15-1.1 19.4 0 2.8 0.1 4.5 0.1 4.5l1.4 0.1v-0.1q-0.2-4.1-0.2-7.8c0-20.4 3.1-32.5 6.2-39.5 1.6-3.5 3.2-5.7 4.3-7.1 0.6-0.7 1.1-1.1 1.4-1.4q0.3-0.2 0.4-0.3l0.1-0.1h0.1z"/>
	<path id="Layer" class="s35" d="m65.1 24.3c0 0 1.4-2.4 1.3-4.5 0 0 0.1-1.2-1.7 2.2-1.7 3.3-0.3 2.9 0.4 2.3z"/>
	<path id="Layer" class="s39" d="m66 25.9c-0.2 0.2-0.5 0.3-0.5 0.4-0.6 0.3-1.3 0.6-2 0.4-0.8-0.1-1.3-1.4-1-2.6 0.4-1.2 1.2-1.8 1.9-2.3 0.3-0.2 0.8-0.3 0.7 0.4-0.1 0.5-0.5 0.7-0.6 1.2 0.3-0.1 0.7-0.7 1.1-0.3 0.6 0.7 0.2 1.4-0.3 1.8-0.1 0.1-0.1 0.1-0.1 0.2 0.2 0.1 0.9-0.2 1.1 0.1 0.2 0.3 0 0.5-0.3 0.7z"/>
	<path id="Layer" class="s40" d="m66 25.9q-0.2 0.1-0.4 0.2h-0.1l-0.1 0.1c-0.5 0.3-1 0.5-1.5 0.5q-0.2 0-0.4-0.1-0.4-0.1-0.7-0.5c-0.2-0.3-0.3-0.7-0.3-1.2q0-0.3 0.1-0.7c0.2-0.6 0.5-1.1 0.8-1.5 0.3-0.3 0.7-0.6 1-0.9q0.2-0.1 0.4-0.1l0.2 0.1v0.1 0.1 0.2q0 0.2-0.1 0.3-0.1 0.2-0.3 0.4-0.1 0.2-0.2 0.5v0.1l0.1-0.1h0.2q0.2-0.1 0.3-0.2 0.2-0.1 0.3-0.1h0.1l0.1 0.1q0.3 0.4 0.3 0.7 0 0.3-0.1 0.5-0.2 0.3-0.4 0.5h-0.1l-0.1 0.2v0.1h0.2q0.1 0 0.3 0 0.2-0.1 0.3-0.1l0.2 0.1 0.1 0.1 0.1 0.1-0.1 0.3q-0.1 0.1-0.2 0.2l0.1 0.1q0.1-0.1 0.2-0.3 0.1-0.1 0.1-0.3 0-0.1 0-0.2l-0.2-0.2q-0.2 0-0.3 0-0.2 0-0.3 0-0.2 0-0.3 0h-0.1v0.1h0.1l0.1-0.1q0.2-0.2 0.4-0.5 0.2-0.3 0.2-0.6 0-0.4-0.4-0.9l-0.1-0.1h-0.2q-0.1 0-0.2 0.1-0.2 0.1-0.4 0.2l-0.1 0.1h-0.1v0.1q0.1-0.2 0.2-0.3 0.1-0.2 0.3-0.4 0.1-0.2 0.2-0.5v-0.2q0-0.1 0-0.2-0.1-0.1-0.2-0.2-0.1 0-0.2 0-0.3 0-0.4 0.1c-0.4 0.2-0.8 0.5-1.1 0.9-0.4 0.4-0.7 0.9-0.8 1.5q-0.2 0.4-0.2 0.8c0 0.5 0.1 0.9 0.3 1.3 0.2 0.3 0.5 0.5 0.9 0.6q0.2 0 0.4 0c0.5 0 1.1-0.2 1.6-0.5h0.1c0.1-0.1 0.3-0.2 0.5-0.3z"/>
	<path id="Layer" class="s41" d="m62.7 25.6c-0.1-0.4-0.1-0.9 0.1-1.4 0.3-0.7 0.9-1.4 1.4-1.8 1.9-1.4-0.1 0.3 0 1 0 0.7 0.7 0.2 1 0.1 0.4-0.1 0.7 0.5-0.4 1.6 0 0-0.2 0.3 0.4 0.4 0.6 0 1.1-0.1 0.3 0.4-0.6 0.3-1.4 0.7-2.1 0.5-0.3-0.1-0.6-0.4-0.7-0.8z"/>
	<path id="Layer" class="s35" d="m33.5 33.8c0 0-1.1-1.8-0.8-2.6 0.3-0.8 0.2-0.1 1.4 0.9 1.3 1.1 1.1 2.4-0.6 1.7z"/>
	<path id="Layer" class="s36" d="m35.5 35.8c0 0-0.1-2.5-2.7-3.7-2.6-1.3 0.2 2.4 0.9 3 0.7 0.7 1.8 0.7 1.8 0.7z"/>
	<path id="Layer" class="s34" d="m35.5 35.8c0 0 0-0.6-0.3-1.4-0.4-0.8-1.1-1.8-2.4-2.4q-0.3-0.1-0.5-0.2-0.2-0.1-0.3-0.1l-0.2 0.1-0.1 0.1-0.1 0.2q0 0.1 0.1 0.3 0.1 0.3 0.4 0.7c0.2 0.4 0.5 0.9 0.8 1.2 0.3 0.4 0.6 0.7 0.8 0.9 0.3 0.3 0.8 0.5 1.1 0.6 0.4 0.1 0.7 0.1 0.7 0.1v-0.1-0.1c-0.1 0-0.4 0-0.7-0.1-0.3-0.1-0.7-0.3-1-0.6-0.2-0.1-0.3-0.3-0.5-0.5-0.4-0.4-0.7-0.9-1-1.3q-0.2-0.4-0.4-0.7-0.1-0.3-0.1-0.4v-0.1-0.1h0.2q0.1 0 0.3 0.1 0.2 0 0.4 0.2c1.3 0.6 2 1.5 2.3 2.3 0.2 0.3 0.3 0.7 0.3 0.9q0.1 0.2 0.1 0.3v0.1z"/>
	<path id="Layer" class="s35" d="m34.2 33.4c-0.4-0.5-1.6-1.1-1.9-1.1-0.4-0.1 0.3 1.1 1 1.6 0.2 0.2 0.7 0.2 1-0.1 0.1-0.1 0-0.2-0.1-0.4z"/>
	<path id="Layer" class="s37" d="m36.7 37.2c0 0-1.4-0.1-3.1-1.4-1.7-1.3-3.4-2.6-1-2.5 2.4 0.1 6.4 1.9 5.4 3.1-1.1 1.2-1.3 0.8-1.3 0.8z"/>
	<path id="Layer" class="s34" d="m36.7 37.2c-0.1-0.1-1.4-0.3-3-1.5-0.6-0.4-1.1-0.8-1.5-1.2q-0.3-0.3-0.5-0.5l-0.2-0.2v-0.2-0.1q0.1 0 0.3-0.1 0.2 0 0.6 0 0.1 0 0.2 0c1.1 0 2.4 0.4 3.6 0.9 0.5 0.3 1 0.6 1.3 0.9q0.3 0.2 0.4 0.4 0.2 0.2 0.2 0.4 0 0.2-0.2 0.4-0.5 0.5-0.7 0.7c-0.2 0.1-0.3 0.1-0.4 0.1h-0.1v-0.1 0.1l-0.1 0.1h0.1l0.1 0.1q0.2 0 0.5-0.2 0.2-0.2 0.7-0.7 0.2-0.2 0.2-0.5 0-0.2-0.1-0.5-0.3-0.4-0.9-0.8c-0.6-0.4-1.4-0.8-2.2-1-0.8-0.3-1.7-0.5-2.4-0.5q-0.1 0-0.2 0-0.5 0-0.8 0.1-0.1 0.1-0.2 0.1l-0.1 0.2 0.1 0.3q0.1 0.2 0.3 0.4c0.4 0.4 1.2 1 1.9 1.5 1.7 1.3 3.1 1.5 3.1 1.5z"/>
	<path id="Layer" class="s35" d="m35.4 34.5c0 0-1.9-0.9-3.1-0.7-1.2 0.1 1.3 1.2 1.9 1.7 0.6 0.4 2.7-0.4 1.2-1z"/>
	<path id="Layer" class="s38" d="m38.3 37.8c0 0-1.4 0-3.2-0.9-1.9-1-3.8-1.9-1.4-2 2.4-0.2 6.6 1 5.7 2.1-0.9 1.2-1.1 0.8-1.1 0.8z"/>
	<path id="Layer" class="s34" d="m38.3 37.8c-0.1 0-1.4-0.1-3.2-1-0.6-0.3-1.3-0.6-1.7-0.9q-0.4-0.2-0.6-0.4l-0.1-0.1-0.1-0.1v-0.1l0.1-0.1q0.1 0 0.4-0.1 0.2 0 0.6 0 0.2-0.1 0.4-0.1c1.1 0 2.5 0.3 3.5 0.6 0.6 0.2 1 0.4 1.4 0.6q0.2 0.2 0.3 0.3 0.2 0.2 0.2 0.3 0 0.1-0.1 0.3-0.5 0.5-0.7 0.7c-0.2 0.1-0.3 0.1-0.3 0.1h-0.1l-0.1 0.1h0.1l0.1 0.1q0.1 0 0.4-0.2 0.3-0.2 0.7-0.7 0.1-0.2 0.1-0.4 0-0.2-0.1-0.4-0.3-0.3-0.9-0.6c-0.6-0.3-1.3-0.5-2.1-0.7-0.8-0.1-1.6-0.2-2.4-0.2q-0.2 0-0.4 0-0.6 0-0.9 0.1-0.2 0.1-0.2 0.2l-0.1 0.1v0.1 0.2q0.2 0.1 0.4 0.3 0.4 0.3 0.9 0.6 0.6 0.2 1.2 0.6c1.9 0.9 3.3 0.9 3.3 0.9v-0.1l-0.1 0.1z"/>
	<path id="Layer" class="s37" d="m37.9 37.1c0 0 1.1-0.1 1-1.2 0-1.1-2.3-2.8-3.5-4.3-1.3-1.5-1.9-0.6-0.7 2.3 1.2 2.8 3.2 3.2 3.2 3.2z"/>
	<path id="Layer" class="s34" d="m37.9 37.1v0.1c0 0 0.3-0.1 0.6-0.2q0.2-0.2 0.3-0.4 0.2-0.2 0.2-0.6v-0.1c0-0.3-0.2-0.6-0.4-1-0.4-0.5-0.9-1-1.5-1.6-0.6-0.6-1.2-1.2-1.7-1.7q-0.3-0.4-0.5-0.6-0.3-0.2-0.5-0.2l-0.2 0.1q-0.1 0-0.2 0.2 0 0.2 0 0.4 0 0.4 0.1 1 0.2 0.6 0.5 1.4c0.6 1.4 1.5 2.2 2.1 2.7 0.7 0.5 1.2 0.6 1.2 0.6v-0.1-0.1c0 0-0.5-0.1-1.1-0.6-0.7-0.4-1.4-1.2-2-2.6q-0.3-0.8-0.5-1.4-0.2-0.6-0.2-0.9 0.1-0.3 0.1-0.4l0.1-0.1h0.1q0.1 0 0.4 0.1 0.2 0.2 0.5 0.6c0.7 0.7 1.5 1.5 2.3 2.3q0.5 0.5 0.9 1 0.3 0.5 0.3 0.9v0.1q0 0.3-0.1 0.5c-0.1 0.2-0.3 0.3-0.5 0.4q-0.1 0.1-0.2 0.1h-0.1z"/>
	<path id="Layer" class="s35" d="m36.8 36.4c0 0-1.8-1.2-3.4-1-1.5 0.2 1.7 1 2.9 1.8 1.3 0.7 1.2-0.7 0.5-0.8z"/>
	<path id="Layer" class="s35" d="m36.4 35.8c0 0-1.8-1.8-1.6-3.7 0 0-0.1-0.8 0.7 0.3 0.8 1.2 2.3 3.9 0.9 3.4z"/>
	<path id="Layer" class="s38" d="m38.4 38.1c0 0 1.1 0.1 1.3-0.9 0.1-1.1-1.7-3.2-2.7-4.9-0.9-1.8-1.7-1-1.1 2 0.7 3.1 2.5 3.8 2.5 3.8z"/>
	<path id="Layer" class="s34" d="m38.4 38.1v0.1h0.1c0.1 0 0.4 0 0.7-0.1q0.2-0.1 0.3-0.4 0.2-0.2 0.3-0.5v-0.2q0-0.4-0.3-1c-0.3-0.5-0.7-1.2-1.2-1.8-0.4-0.7-0.9-1.4-1.2-2q-0.3-0.4-0.5-0.7l-0.2-0.2h-0.3q-0.1 0-0.2 0.1-0.1 0.1-0.2 0.4-0.1 0.2-0.1 0.6 0 0.8 0.3 1.9c0.3 1.6 0.9 2.5 1.5 3.1 0.5 0.6 1 0.8 1 0.8v-0.1h0.1c0-0.1-0.5-0.3-1-0.8-0.6-0.6-1.2-1.5-1.5-3q-0.2-1.2-0.2-1.9 0-0.5 0.1-0.7 0-0.2 0.1-0.2l0.1-0.1 0.2 0.1q0.1 0.1 0.3 0.3 0.1 0.2 0.3 0.5c0.5 0.8 1.2 1.8 1.7 2.6q0.5 0.6 0.7 1.2 0.3 0.5 0.3 0.9v0.1q0 0.4-0.2 0.5c-0.1 0.2-0.3 0.3-0.5 0.4-0.2 0-0.3 0.1-0.4 0.1z"/>
	<path id="Layer" class="s39" d="m38.3 37.4c0 0 16.7 11.7 7.8 51.3l1.5 0.3c0 0 8.9-37.8-9.9-52.9z"/>
	<path id="Layer" class="s40" d="m38.3 37.4l-0.1 0.1c0.2 0.1 2.8 2 5.3 6.6 2.6 4.7 5.1 12.1 5.1 23.2 0 6-0.7 13.1-2.6 21.4v0.1l1.7 0.3c0 0 2.1-8.9 2.1-19.8 0-5.8-0.6-12.2-2.4-18.1-1.8-5.8-4.8-11.3-9.6-15.2l-0.2 0.1 0.6 1.4 0.1-0.1h0.1l-0.6-1.3h-0.1v0.1c4.8 3.8 7.8 9.2 9.6 15.1 1.7 5.9 2.3 12.2 2.3 18 0 5.4-0.5 10.3-1 13.9-0.3 1.8-0.5 3.3-0.7 4.3q-0.2 0.7-0.3 1.1 0 0.2 0 0.3v0.1l-1.5-0.4v0.1h0.1c1.8-8.3 2.6-15.4 2.6-21.4 0-11.3-2.6-18.8-5.2-23.5-2.7-4.6-5.3-6.5-5.3-6.5z"/>
	<path id="Layer" class="s35" d="m37.1 36.1c0 0-1.5-2.4-1-4.2 0 0 0-1 1.8 2.4 1.7 3.3 0 2.5-0.8 1.8z"/>
	<path id="Layer" class="s39" d="m35.6 37.2c0.3 0.2 0.6 0.4 0.7 0.4 0.7 0.5 1.6 0.9 2.4 1.1 1.1 0.1 1.9-0.8 1.6-1.9-0.2-1.1-1.1-2-2-2.6-0.3-0.3-1-0.5-1 0.1 0.1 0.5 0.6 0.8 0.7 1.2-0.4-0.1-0.9-0.8-1.4-0.6-0.9 0.4-0.5 1.2 0.1 1.7q0.1 0 0.1 0.2c-0.3-0.1-1.1-0.5-1.4-0.3-0.3 0.2-0.1 0.4 0.2 0.7z"/>
	<path id="Layer" class="s40" d="m35.6 37.2q0.2 0.2 0.4 0.3 0.2 0.2 0.3 0.2c0.7 0.5 1.5 0.9 2.4 1h0.3c0.4 0 0.8-0.1 1-0.4 0.3-0.3 0.5-0.6 0.5-1.1q0-0.2-0.1-0.4c-0.1-0.6-0.4-1.1-0.8-1.5-0.4-0.5-0.8-0.8-1.3-1.2q-0.1-0.1-0.3-0.2-0.2 0-0.3 0-0.2 0-0.3 0.1l-0.1 0.1-0.1 0.2h0.1q0 0.2 0.1 0.4 0.1 0.2 0.3 0.4l0.1 0.2 0.1 0.2h0.1v-0.1q-0.1 0-0.2-0.1-0.2-0.1-0.5-0.3c-0.1-0.1-0.3-0.2-0.5-0.2l-0.2 0.1q-0.3 0.1-0.5 0.3-0.1 0.2-0.1 0.4 0 0.3 0.2 0.5 0.2 0.3 0.4 0.5l0.1 0.1 0.1 0.1v-0.1q0 0-0.2-0.1-0.2-0.1-0.5-0.1-0.3-0.1-0.5-0.1-0.1 0-0.3 0l-0.1 0.1v0.2 0.1l0.2 0.2 0.2 0.2 0.1-0.1q-0.2-0.1-0.3-0.2v-0.1l-0.1-0.1 0.1-0.1 0.2-0.1q0.1 0 0.3 0.1 0.2 0 0.5 0.1 0.3 0.1 0.4 0.1h0.2l-0.1-0.1-0.1-0.1-0.1-0.1q-0.2-0.2-0.4-0.4-0.1-0.3-0.1-0.5-0.1-0.2 0.1-0.3 0.1-0.2 0.4-0.3h0.1q0.2 0 0.3 0.1 0.2 0.1 0.4 0.2 0.2 0.2 0.5 0.3h0.1v-0.1q-0.1-0.2-0.2-0.3-0.1-0.3-0.3-0.5l-0.1-0.2-0.1-0.2v-0.1l0.1-0.1 0.2-0.1q0.1 0 0.3 0.1 0.1 0.1 0.2 0.1c0.5 0.4 0.9 0.7 1.3 1.2 0.3 0.4 0.6 0.9 0.8 1.4q0 0.2 0 0.4 0 0.6-0.4 1c-0.2 0.2-0.6 0.4-0.9 0.4h-0.3c-0.8-0.1-1.6-0.5-2.4-1q0-0.1-0.2-0.2-0.2-0.1-0.4-0.3z"/>
	<path id="Layer" class="s41" d="m51 99.3c0 0 7.7 0.6 7.6-8.4-0.2-9-5.8-38.6 12-29.4 0 0-6.4-9.9-14.8-3.5-8.5 6.3-4.8 41.3-4.8 41.3z"/>
	<path id="Layer" class="s42" d="m58.1 66.1q-1.3 0.3-2.6 1.2c-2.7 3.5-3.8 8.4-3.6 13.2 0.8-3.1 1.7-6.2 2.8-9.3 0.4-1.1 1.4-1.3 2.5-1.3q0.1 0 0.3 0 0.1-2.1 0.6-3.8zm0.1-9.2q-1.1 0.5-2.2 1.3c-3.1 2.3-4.5 8.7-5.1 15.7 0.8-3 2-5.5 3.8-6.9 1.3-0.9 2.4-1.4 3.5-1.7h0.1c0.5-1.9 1.3-3.4 2.5-4.5-2.2 0.7-4.2 2-5.5 4.1 0.2-2.6 1.1-6 2.9-8z"/>
	<path id="Layer" fill-rule="evenodd" class="s39" d="m53.3 99.4c-1.3 0.3-2.3 0.2-2.3 0.2-0.2 0-0.3-0.1-0.3-0.3 0 0-0.9-8.7-0.8-18.3 0.2-9.6 1.3-19.9 5.7-23.3 1.4-1 2.7-1.7 4-2 6.7-1.5 11.2 5.6 11.2 5.7 0.1 0.1 0.1 0.2 0 0.4-0.1 0.1-0.3 0.1-0.4 0-3.1-1.6-5.4-2-7.1-1.6-4 0.9-5.3 6.6-5.4 13.2-0.1 6.5 0.9 13.7 1 17.5 0.1 5.9-3.2 7.9-5.5 8.5zm-0.2-0.7c2.2-0.5 5.2-2.1 5.1-7.8 0-3.7-1-11-0.9-17.5 0.1-6.6 1.2-12.7 5.8-13.8 1.7-0.4 3.8-0.1 6.4 1-0.5-0.6-1.3-1.4-2.2-2.1-1.9-1.6-4.5-2.9-7.6-2.1-1.2 0.2-2.4 0.8-3.7 1.8-4.1 3-5.4 13.3-5.5 22.8-0.1 8.5 0.6 16.3 0.8 17.9 0.4 0 1 0 1.8-0.2z"/>
	<path id="Layer" class="s43" d="m57.2 69.9c-1.1 0-2.1 0.2-2.5 1.3-1.1 3.1-2 6.2-2.8 9.3 0 2.8 0.6 5.6 1.5 8.1 0.4-2.7 0.9-5.3 1.7-7.8q0.2-2.1 0.7-4c0-2.6 0.3-5.2 1.7-6.9q-0.2 0-0.3 0z"/>
	<path id="Layer" class="s44" d="m57.2 69.9c-1.1 0-2.1 0.2-2.5 1.3 0.4-1.1 1.4-1.3 2.5-1.3z"/>
	<path id="Layer" class="s43" d="m57.3 74.4c-1.1 2.7-1.8 6.4-1.8 10.4-0.1 8.6-2.9 12.5-4.2 14v0.1h0.1c0.3 0 1 0 1.8-0.2 2.1-0.5 5.1-2.1 5.1-7.8-0.1-3.5-1-10.2-1-16.5z"/>
	<path id="Layer" class="s45" d="m57.6 73.6q-0.2 0.4-0.3 0.8c0 6.3 0.9 13 1 16.5 0 5.7-3 7.3-5.1 7.8-0.8 0.2-1.5 0.2-1.8 0.2h-0.1v-0.1q-0.2 0.1-0.3 0.3 0 0.2 0 0.2 0 0 0.3 0c1.5 0 7.4-0.5 7.3-8.4-0.1-3.7-1.1-10.8-1-17.3zm-0.1-3.7z"/>
	<path id="Layer" class="s46" d="m56.1 66.5q-0.6 0.4-1.2 0.8c-7.5 5.4-4.5 31.8-4.5 31.8 0 0 4.7-3.1 4.8-14.3q0-3 0.4-5.6c-1.1 3-1.8 6.1-2.2 9.4-2.6-7.2-2.1-16.7 2.7-22.1z"/>
	<path id="Layer" class="s47" d="m62.1 68.1c-6-0.2-6.4 5.2-6.3 10.2 1.5-7.4 5.5-11.8 10.8-8.3-1.2-1.4-3.1-1.8-4.5-1.9z"/>
	<path id="Layer" class="s48" d="m61.7 68.1c-2 0-3.3 0.7-4.2 1.8-1.4 1.7-1.7 4.3-1.7 6.9 1.1-4.4 3.2-7.5 6.1-8.2q0.5-0.2 1.1-0.2 0.9 0 1.9 0.4c-1-0.5-2-0.6-2.8-0.7q-0.2 0-0.4 0z"/>
	<path id="Layer" class="s47" d="m62.1 68.1c1.4 0.1 3.3 0.5 4.5 1.9q0.2 0.2 0.5 0.3c0 0-4.2-7.6-11-3.8-4.8 5.4-5.3 14.9-2.7 22.1 0.4-3.3 1.1-6.4 2.2-9.4q0.1-0.4 0.2-0.9c-0.1-5 0.3-10.4 6.3-10.2z"/>
	<path id="Layer" fill-rule="evenodd" class="s39" d="m50.3 99.4q-0.2 0-0.2-0.2c0 0-0.8-6.7-0.6-14 0.2-7.3 1.3-15.3 5.2-18.2 1.3-0.9 2.4-1.4 3.5-1.7 5.8-1.3 9.1 4.8 9.1 4.9 0.1 0.1 0.1 0.3 0 0.4-0.1 0.1-0.3 0.1-0.4 0-1.9-1.4-3.5-1.7-4.9-1.4-3.8 0.9-6.5 7.4-6.5 15.6-0.1 11.3-4.8 14.6-4.9 14.6l-0.1 0.1zm4.8-31.9c-3.5 2.5-4.7 10.4-4.9 17.7-0.2 5.9 0.3 11.4 0.5 13.2q0.1-0.1 0.2-0.2c0.4-0.5 1-1.2 1.6-2.3 1.1-2.1 2.3-5.7 2.3-11.2 0.1-8.2 2.7-15.1 7.1-16.2 1.2-0.3 2.6-0.1 4 0.6-0.4-0.4-0.8-0.9-1.4-1.4-1.4-1.3-3.5-2.4-6.1-1.8-1 0.2-2.1 0.7-3.3 1.6z"/>
	<path id="Layer" class="s41" d="m46.9 70.7c-0.3-1.9-0.5-3.6-1-5.2-2.8-3.8-7.1-6-11.8-5.3-2.2 0.2-3.8 1.5-5.8 2 3.1-0.8 7.5-0.7 10.1 1.4q1 0.8 1.8 1.9c2.7 1 5.1 2.5 6.7 5.2z"/>
	<path id="Layer" class="s41" d="m51.6 89.5c0.2-2.8 0.2-5.6-0.1-8.4-0.6-5.5-2.2-10.8-5.4-15.3q-0.1-0.2-0.2-0.3c0.5 1.6 0.7 3.3 1 5.2-1.6-2.7-4-4.2-6.7-5.2 1.4 1.7 2.4 3.7 3.2 5.7 1.8 4.9 2.1 10.1 2.2 15.2 0 4.7 0.4 9.9 4.3 13.1-0.1-0.1 1.7-9.1 1.7-10z"/>
	<path id="Layer" class="s42" d="m44.8 68.2q1.2 1 2.1 2.5-0.9-1.5-2.1-2.5zm-4.6-2.7q0.4 0.1 0.8 0.3-0.4-0.2-0.8-0.3z"/>
	<path id="Layer" class="s42" d="m45.9 65.5c0.5 1.6 0.7 3.3 1 5.2q-0.9-1.5-2.1-2.5c-1.1-1.1-2.4-1.8-3.8-2.4q-0.4-0.2-0.8-0.3c1.4 1.7 2.4 3.7 3.2 5.7 1.8 4.9 2.1 10.1 2.2 15.2 0 4.7 0.4 9.9 4.3 13.1 0-0.6 1.7-9.1 1.7-10q0.2-1.8 0.2-3.6 0-2.4-0.3-4.8-0.2-2-0.6-4-0.2-0.8-0.4-1.6-0.1-0.6-0.3-1.1-0.2-0.8-0.5-1.5-0.1-0.2-0.1-0.4-0.4-1.1-0.9-2.2-0.1-0.1-0.1-0.3-1.1-2.2-2.5-4.2-0.1-0.2-0.2-0.3z"/>
	<path id="Layer" fill-rule="evenodd" class="s39" d="m49.7 99.8c-4-3.3-4.4-8.7-4.5-13.4 0-5.1-0.3-10.3-2.1-15.1-1.1-2.8-2.6-5.6-5-7.4-0.9-0.8-2.2-1.3-3.5-1.6-2.1-0.4-4.4-0.3-6.2 0.3q-0.1 0-0.2-0.1l-0.2-0.2q0-0.1 0-0.2l0.2-0.2c2-0.5 3.6-1.8 5.9-2.1q2.1-0.2 4 0.2c3.3 0.6 6.2 2.7 8.3 5.6 3.2 4.5 4.8 10 5.4 15.5 0.3 2.8 0.4 5.6 0.2 8.4-0.1 0.5-0.5 2.8-0.9 5.2-0.4 2.2-0.9 4.5-0.9 4.8q0 0.1 0 0.2-0.1 0.1-0.3 0.2l-0.1-0.1zm-11.1-36.4c2.5 2 4 4.9 5.1 7.8 1.9 4.9 2.2 10.1 2.2 15.3 0.1 4.5 0.5 9.3 3.8 12.4q0-0.3 0.1-0.8c0.2-0.9 0.4-2.1 0.6-3.3 0.5-2.3 0.9-4.9 1-5.3 0.1-2.8 0.1-5.5-0.2-8.3-0.6-5.4-2.2-10.7-5.3-15.2-2-2.8-4.8-4.7-7.9-5.3q-1.8-0.4-3.8-0.2c-1.1 0.2-2 0.6-3 1 1.2-0.1 2.4 0 3.6 0.2 1.4 0.3 2.7 0.9 3.8 1.7z"/>
	<path id="Layer" class="s46" d="m44.8 91.4c1.5-3.7 3.1-7.6 3.5-11.5-0.2-2.2-0.8-4.3-2.1-6.2-2.3-3.4-6.3-5.4-10.4-4.4-1.3 0.3-2.5 0.9-3.6 1.6-0.4 0.3-1 0.9-1.4 1 9.2-2.5 9.8 5.1 9.9 12.3 0.6 2.8 1.6 5.2 4.1 7.2z"/>
	<path id="Layer" class="s49" d="m47.6 95.5c-0.2-3 0.4-6.3 0.7-9.3 0.2-2.1 0.3-4.2 0-6.3-0.4 3.9-2 7.8-3.5 11.5-2.5-2-3.5-4.4-4.1-7.2 0 2.9 0 5.7 0.4 7.8 1.4 7.3 8.5 7.2 8.5 7.2-1.3 0-1.9-2.8-2-3.7z"/>
	<path id="Layer" fill-rule="evenodd" class="s39" d="m40.8 92c-0.6-3.1-0.2-7.9-0.6-12-0.4-4.1-1.5-7.5-4.8-8.1-1.2-0.3-2.7-0.2-4.5 0.3q-0.2 0.1-0.3 0l-0.1-0.2v-0.2-0.1l0.1-0.1h0.1c0.3-0.1 0.9-0.7 1.4-1 1.1-0.7 2.3-1.3 3.6-1.6 1.4-0.4 2.8-0.4 4.1-0.1 2.7 0.5 5.1 2.2 6.7 4.6 2.5 3.8 2.5 8.4 2.1 12.7-0.2 3.1-0.9 6.3-0.6 9.3 0 0.4 0.1 1.2 0.4 2 0.3 0.7 0.8 1.3 1.1 1.4h0.1c0.2 0 0.4 0.1 0.4 0.3 0 0.2-0.2 0.3-0.4 0.3-0.1 0-0.7 0-1.6-0.1l-0.1-0.1c-2.2-0.4-6.1-2-7.1-7.3zm0.1-12c0.3 4.1-0.1 8.9 0.5 11.9 0.9 4.9 4.6 6.4 6.7 6.8h0.3q-0.4-0.4-0.6-1c-0.3-0.8-0.5-1.7-0.5-2.2-0.2-3 0.4-6.3 0.7-9.3 0.4-4.3 0.3-8.8-2.1-12.3-1.4-2.3-3.7-3.9-6.2-4.4-1.3-0.2-2.5-0.2-3.8 0.1-1.3 0.3-2.4 0.9-3.5 1.6h-0.1q1.9-0.3 3.2 0c3.8 0.8 5 4.6 5.4 8.8z"/>
	<path id="Layer" class="s41" d="m39.9 38c0.2-0.3 0.3-0.8 0.1-1.3-0.3-0.7-0.9-1.4-1.5-1.9-2.2-1.8 0 0.2-0.2 0.8-0.1 0.7-0.9 0-1.3-0.2-0.5-0.2-1 0.2 0.3 1.4 0 0 0.2 0.4-0.5 0.3-0.8-0.2-1.5-0.4-0.5 0.2 0.8 0.5 1.7 1 2.6 1.1 0.4 0 0.8-0.2 1-0.4z"/>
	<path id="Layer" class="s41" d="m49.1 63.2c0 0-1.6-16.9-8.6-23.8 0 0 8.1 8 8.6 23.8z"/>
	<path id="Layer" class="s41" d="m52.6 51.8c0 0 3.3-18.8 9.5-24.8 0 0-7.1 6.8-9.5 24.8z"/>
</svg>