<svg version="1.2" xmlns="http://www.w3.org/2000/svg" viewBox="0 0 100 135" width="100" height="135">
	<title>flower_in_a_pot_04-svg</title>
	<style>
		.s0 { fill: #aa6b28 } 
		.s1 { fill: #2e1010 } 
		.s2 { fill: #f9a84c } 
		.s3 { fill: #7c4317 } 
		.s4 { fill: #fab76a } 
		.s5 { fill: #de9342 } 
		.s6 { fill: #6f3b14 } 
		.s7 { fill: #f9a72b } 
		.s8 { fill: #c7883c } 
		.s9 { fill: #584521 } 
		.s10 { fill: #403215 } 
		.s11 { fill: #6c562b } 
		.s12 { fill: #775e30 } 
		.s13 { fill: #d09c5d } 
		.s14 { fill: #7c6232 } 
		.s15 { fill: #463618 } 
		.s16 { fill: #de9225 } 
		.s17 { fill: #54401d } 
		.s18 { fill: #3d2e12 } 
		.s19 { fill: #654e21 } 
		.s20 { fill: #fab64f } 
		.s21 { fill: #875723 } 
		.s22 { fill: #3c2c13 } 
		.s23 { fill: #2b200c } 
		.s24 { fill: #493719 } 
		.s25 { fill: #543f1c } 
		.s26 { fill: #2f230e } 
		.s27 { fill: #392911 } 
		.s28 { fill: #291d0a } 
		.s29 { fill: #453213 } 
		.s30 { fill: #4cb748 } 
		.s31 { fill: #178314 } 
		.s32 { fill: #005730 } 
		.s33 { fill: #7fab97 } 
		.s34 { fill: #003a1c } 
		.s35 { fill: #007a3b } 
		.s36 { fill: #7fbc9d } 
		.s37 { fill: #005a24 } 
		.s38 { fill: #006730 } 
		.s39 { fill: #004f20 } 
		.s40 { fill: #6abd45 } 
		.s41 { fill: #005a10 } 
		.s42 { fill: #004c0d } 
		.s43 { fill: #003b09 } 
		.s44 { fill: #2c8c13 } 
		.s45 { fill: #00430a } 
		.s46 { fill: #008c45 } 
		.s47 { fill: #006c2c } 
		.s48 { fill: #007331 } 
		.s49 { fill: #002a0b } 
		.s50 { fill: #001c06 } 
		.s51 { fill: #003a0e } 
		.s52 { fill: #006813 } 
		.s53 { fill: #00550d } 
		.s54 { fill: #004310 } 
		.s55 { fill: #004d13 } 
		.s56 { fill: #0ea34a } 
		.s57 { fill: #86d1a4 } 
		.s58 { fill: #00471f } 
		.s59 { fill: #002f12 } 
		.s60 { fill: #07852f } 
		.s61 { fill: #00400a } 
		.s62 { fill: #069041 } 
		.s63 { fill: #037029 } 
		.s64 { fill: #003609 } 
		.s65 { fill: #438c61 } 
		.s66 { fill: #03762a } 
		.s67 { fill: #004009 } 
	</style>
	<path id="Layer" class="s0" d="m66.9 104.2l-3.4 24.9c0 3.3-7.5 5.9-16.6 5.8-9.2-0.1-16.5-3-16.5-6.3l-3.9-26.6z"/>
	<path id="Layer" class="s1" d="m66.9 104.2h-0.1l-3.4 24.8c0 1.6-1.7 3.1-4.6 4.1-2.9 1.1-6.8 1.7-11.2 1.7q-0.4 0-0.7 0c-4.6-0.1-8.7-0.8-11.6-2-3-1.1-4.8-2.6-4.8-4.2v-0.1l-3.9-26.4 40.3 2.2v-0.1-0.1l-40.4-2.2h-0.1v0.1l3.9 26.6h0.1-0.1c0 1.7 1.9 3.3 4.9 4.4 3 1.2 7.1 1.9 11.7 2q0.3 0 0.7 0c4.4 0 8.4-0.6 11.3-1.7 2.9-1.1 4.7-2.5 4.7-4.2h-0.1 0.1l3.4-24.9v-0.1h-0.1z"/>
	<path id="Layer" class="s2" d="m66.9 104.2l-3.4 24.9c0 3.3-7.5 5.9-16.6 5.8-9.2-0.1-16.5-3-16.5-6.3l-3.9-26.6z"/>
	<path id="Layer" class="s3" d="m66.9 104.2h-0.1l-3.4 24.8c0 1.6-1.7 3.1-4.6 4.1-2.9 1.1-6.8 1.7-11.2 1.7q-0.4 0-0.7 0c-4.6-0.1-8.7-0.8-11.6-2-3-1.1-4.8-2.6-4.8-4.2v-0.1l-3.9-26.4 40.3 2.2v-0.1-0.1l-40.4-2.2h-0.1v0.1l3.9 26.6h0.1-0.1c0 1.7 1.9 3.3 4.9 4.4 3 1.2 7.1 1.9 11.7 2q0.3 0 0.7 0c4.4 0 8.4-0.6 11.3-1.7 2.9-1.1 4.7-2.5 4.7-4.2h-0.1 0.1l3.4-24.9v-0.1h-0.1z"/>
	<path id="Layer" class="s4" d="m31 109l2.5 17.5c0 0 1 5.5 7.8 6.9q1.2 0.3 2.3 0.3c5.8 0 10.7-4.8 11.1-10.4 0.5-6.7 0.5-12.5 0.5-12.5 0 0-4.1 0.7-9.4 0.7-4.7 0-10.3-0.5-14.8-2.5z"/>
	<path id="Layer" class="s5" d="m66.6 105.8c-1.2 1-2.8 1.9-4.8 2.7-1.7 0.6-3.6 1.1-5.7 1.5q0.8 0.1 2.1 0.1c1.1 0 2.5 0 4-0.3 0 0 0.2-0.1 0.3-0.1 0.3 0 0.6 0.3 0.6 1.7 0 2.4-2.2 16.9-2.2 16.9 0 0-0.5 3.7-5.7 5.1-1.7 0.5-4.6 0.9-7.7 0.9-6.3 0-13.8-1.5-17.1-6.5l0.1 0.7v0.1c0 1.6 1.8 3.1 4.8 4.2 2.9 1.2 7 1.9 11.6 2q0.3 0 0.7 0c4.4 0 8.3-0.6 11.2-1.7 2.9-1 4.6-2.5 4.6-4.1z"/>
	<path id="Layer" class="s6" d="m66.7 105.7q-0.1 0.1-0.1 0.1l-3.2 23.2c0 1.6-1.7 3.1-4.6 4.1-2.9 1.1-6.8 1.7-11.2 1.7q-0.4 0-0.7 0c-4.6-0.1-8.7-0.8-11.6-2-3-1.1-4.8-2.6-4.8-4.2v-0.1l-0.1-0.7q-0.1-0.1-0.1-0.3l0.1 1.1c0 3.3 7.3 6.2 16.5 6.3q0.3 0 0.7 0c8.8 0 15.9-2.6 15.9-5.8z"/>
	<path id="Layer" class="s7" d="m25.6 97.3l3.9 0.2c3.8-2.2 10.2-3.7 17.5-3.7 8.1 0 15.1 1.8 18.7 4.4 1.5-0.4 3.1-0.9 3.1-0.9l-0.5 5.4c-0.5 4.5-9.9 8-21.3 8-11.6 0-21-3.6-21.4-8.2v-5z"/>
	<path id="Layer" class="s3" d="m25.6 97.3v0.1l3.9 0.2v-0.1c3.9-2.1 10.2-3.5 17.5-3.5 8.1 0 15.1 1.7 18.7 4.3h0.1c1.5-0.4 3-0.9 3-0.9v-0.1h-0.1l-0.5 5.4h0.1v-0.1l-0.1 0.1c-0.2 2.2-2.7 4.2-6.5 5.6-3.8 1.4-9 2.3-14.7 2.3-5.8 0-11-0.9-14.9-2.3-3.8-1.5-6.2-3.6-6.4-5.8v-0.1-4.9h-0.1-0.1v0.1h0.1l0.1-0.1v-0.2h-0.1-0.1v0.2h0.1 0.1l-0.2-0.1v0.1 5 0.1l0.1-0.1-0.1 0.1c0.2 2.3 2.7 4.4 6.5 5.8 3.9 1.5 9.2 2.4 15 2.4 5.7 0 10.9-0.8 14.8-2.3 3.8-1.5 6.3-3.5 6.6-5.8h-0.1v0.1l0.1-0.1 0.5-5.4-0.1-0.1h-0.1c0 0-1.5 0.5-3 0.9v0.1h0.1c-3.7-2.7-10.7-4.5-18.8-4.5-7.3 0-13.7 1.5-17.6 3.7l0.1 0.1v-0.1l-3.9-0.2h-0.1v0.1z"/>
	<path id="Layer" class="s2" d="m25.6 97.3c0 4.7 9.6 8.5 21.6 8.5 11.9 0 21.6-3.8 21.6-8.5 0-4.7-9.7-8.5-21.6-8.5-12 0-21.6 3.8-21.6 8.5z"/>
	<path id="Layer" class="s3" d="m25.6 97.3h-0.1c0 2.4 2.4 4.6 6.3 6.1 4 1.6 9.4 2.5 15.4 2.5 5.9 0 11.4-0.9 15.3-2.5 3.9-1.5 6.4-3.7 6.4-6.1 0-2.4-2.5-4.6-6.4-6.1-3.9-1.5-9.4-2.5-15.3-2.5-6 0-11.4 1-15.4 2.5-3.9 1.5-6.3 3.7-6.3 6.1h0.1 0.1c0-2.3 2.3-4.4 6.2-5.9 3.9-1.5 9.3-2.5 15.3-2.5 5.9 0 11.3 1 15.2 2.5 3.9 1.5 6.3 3.6 6.3 5.9 0 2.3-2.4 4.4-6.3 5.9-3.9 1.6-9.3 2.5-15.2 2.5-6 0-11.4-0.9-15.3-2.5-3.9-1.5-6.2-3.6-6.2-5.9z"/>
	<path id="Layer" class="s8" d="m26.2 97.1c0 4.3 9.4 7.7 20.9 7.7 11.6 0 20.9-3.4 20.9-7.7 0-4.2-9.3-7.6-20.9-7.6-11.5 0-20.9 3.4-20.9 7.6z"/>
	<path id="Layer" class="s3" d="m26.2 97.1h-0.1c0 2.2 2.4 4.2 6.2 5.6 3.8 1.4 9 2.2 14.8 2.2 5.8 0 11-0.8 14.8-2.2 3.8-1.4 6.2-3.4 6.2-5.6 0-2.2-2.4-4.1-6.2-5.5-3.8-1.4-9-2.2-14.8-2.2-5.8 0-11 0.8-14.8 2.2-3.8 1.4-6.2 3.3-6.2 5.5h0.1 0.1c0-2 2.3-3.9 6.1-5.3 3.8-1.4 9-2.2 14.7-2.2 5.8 0 11 0.8 14.7 2.2 3.8 1.4 6.1 3.3 6.1 5.3 0 2.1-2.3 4-6.1 5.4-3.7 1.4-8.9 2.2-14.7 2.2-5.7 0-10.9-0.8-14.7-2.2-3.8-1.4-6.1-3.3-6.1-5.4z"/>
	<path id="Layer" class="s9" d="m60.5 96c0 0 0.4-1-2.9-2.2-3.4-1.2-4.2 0.9-4.2 0.9 0 0 0.1-0.9-1.7-2-1.8-1.2-4.5 0.7-4.5 0.7-2.9-1.4-5.1 1.6-5.1 1.6-2.7-2.6-7.3 0-7.3 0-4.6-1-5.7 2.8-5.7 2.8-1.2-0.1-2 0.3-2.6 0.8 2.3 3.4 10.3 6 20 6.2 10.5 0.3 19.2-2.4 20.8-6-1.2-1.2-3.3-1.6-3.3-1.6-1.1-1.5-3.5-1.2-3.5-1.2z"/>
	<path id="Layer" class="s10" d="m60.6 96c0.4-1.1-2.4-2-3-2.2-1.3-0.5-3.3-0.8-4.1 0.7-0.2 0.2-0.1 0.2-0.1 0.1 0.1 0 0.1 0 0.1 0.1 0-0.3-0.2-0.6-0.3-0.9-0.6-0.8-1.5-1.3-2.4-1.5-0.8-0.2-1.8 0.1-2.5 0.4q-0.6 0.3-1.1 0.6c0.1-0.1-1.3-0.3-1.1-0.3-1.1 0-1.9 0.2-2.8 0.8-0.4 0.2-0.7 0.6-1 0.9-0.5 0.4-0.5-0.1-1-0.4-2-0.9-4.1-0.5-6 0.4-0.5 0.2-0.9 0.1-1.4 0.1q-0.4 0-0.9 0c-1 0.1-1.9 0.4-2.7 1-0.6 0.5-1 1.1-1.2 1.7-0.2 0.3-2.2 0.7-2.7 1.1 1.7 2.3 4.6 3.5 7.3 4.3 4.1 1.4 8.5 1.8 12.9 2 4.5 0.1 9.1-0.3 13.4-1.5 2.7-0.7 6.1-2 7.4-4.6-1.1-1-2.6-1.2-3.7-2-0.9-0.7-2-1-3.2-0.8-0.1 0 0.1 0.1 0.1 0.1 1.4-0.2 2.4 1 3.7 1.2 1.1 0.3 3.4 0.9 2.4 2.3-0.3 0.5-0.8 0.9-1.3 1.3-3.3 2.5-8.1 3.2-12.1 3.6-5.4 0.6-11.1 0.3-16.4-0.8-2.4-0.5-4.6-1.2-6.8-2.3q-1.2-0.6-2.3-1.4-0.4-0.4-0.8-0.8c-1-1.1 2-1.4 2.1-1.4h0.1c0.8-2.5 3.3-3.2 5.7-2.8 0.2 0.1 0.7-0.3 0.9-0.4 2-0.9 4.4-1.1 6.2 0.4l0.2 0.1c0.3-0.4 0.6-0.7 1-1 1.4-1.2 2.1-0.7 4.1-0.7 0.3 0 0.8-0.5 1.2-0.6 1.5-0.7 4.9-0.2 4.8 1.9l0.2 0.1c0.3-0.8 1.1-1.1 1.8-1.3-0.5 0.1 5.7 0.7 5.1 2.5z"/>
	<path id="Layer" class="s11" d="m35.1 95.7c0 0-3.7-0.6-4.4 1.3-0.7 2-3.2 0.9-1.6 2.6 1.5 1.7 3.9 1.8 5 0.9 1.1-0.9 1.5-2.2 3.6-2 2.2 0.1 0.9-1.6-0.4-1.6-1.3 0 1.1-1.6 2.1-1.7 1-0.1-2.2-1.3-4.3 0.5z"/>
	<path id="Layer" class="s11" d="m44.4 97.7c0 0-0.8-1.1-3.3-1.1-2.5-0.1-1.1 0.9-1.2 1.4-0.1 0.5 1.5 1.4 1.5 1.4 0 0 0.7-1.6 3-1.7z"/>
	<path id="Layer" class="s11" d="m43.3 95.3c-0.2 0 1.6-1.9 3.4-1.3 0.9 0.3 1.6 0.1 2.4-0.1 0.9-0.3 1.7-0.5 2.5 0.1 1.5 1.1 0.9 2 0.9 2 0 0-4.7-0.1-5.2 1.9 0 0-1.4-2.4-4-2.6z"/>
	<path id="Layer" class="s11" d="m55.7 97.6c0 0-0.4 0-1-0.1-1.5-0.2-4.4-0.4-5.4 1.1 0 0-0.6 0.4 0.5 1.3 1.1 0.9 1.9 1.2 1.9 2.3 0 0 1.5-3.3 7.3-1.8 5.9 1.4 6.5-1.1 5.3-1.8-1.1-0.7-3.5 0.2-3.5 0.2 0 0-0.9-2.1-5.1-1.2z"/>
	<path id="Layer" class="s12" d="m59.1 95.8c0 0-1.3-1.5-3-1.2-1.7 0.4 3.5 2.8 3 1.2z"/>
	<path id="Layer" class="s11" d="m48.8 101.5c0 0-2-1.5-4.4-0.8 0 0-0.3 2.5-0.8 2.4-0.6 0-1.5-3.5-4.5-3.2-3.1 0.3-4.4 1.5-3.2 2.5 1.3 1 7.2 2.3 10.9 2 3.6-0.3 2.9-1.9 2-2.9z"/>
	<path id="Layer" class="s11" d="m56.7 101.5c0 0-2.5-0.3-3.7 1.1-1.1 1.5 4.1 1.2 6 0.4 1.8-0.9-2-1.5-2.3-1.5z"/>
	<path id="Layer" class="s13" d="m48.3 90.1c-9.4 0-16.3 2.6-16.3 2.6-1.3 0.7-0.1 1.7 1.8 1.7 0.8 0 1.8-0.2 2.7-0.7 0.8-0.4 1.5-0.6 2.1-0.6 0.7 0 1.2 0.2 1.8 0.3 0.5 0.2 1 0.3 1.4 0.3 0.3 0 0.6-0.1 0.9-0.5 0.5-0.6 1.5-0.8 2.4-0.8 1 0 1.9 0.2 1.9 0.2 0 0 0.2-0.9 2.9-0.9q0.2 0 0.4 0c3.2 0.1 3.6 1.6 3.6 1.6 0.2-0.9 2.5-0.9 2.8-1.7 0.4-0.9-0.9-0.9-0.9-0.9-2.6-0.4-5.1-0.6-7.5-0.6z"/>
	<path id="Layer" class="s14" d="m35.2 96.4c-0.1-0.1-1.1-0.7-3 0-1.8 0.7-0.8 1.6 0.6 1.4 1.5-0.2 2.6-0.8 2.4-1.4z"/>
	<path id="Layer" class="s14" d="m42.4 97c0 0-1.3-0.2-1.1 0.3 0.2 0.5 2.3 0 1.1-0.3z"/>
	<path id="Layer" class="s14" d="m52.1 95.3c0 0-0.5-1.5-2.1-1.3-1.6 0.2 2 2.2 2.1 1.3z"/>
	<path id="Layer" class="s14" d="m60.2 98.8c0 0-3-1.5-3 0 0 1.4 4.1 1.1 3 0z"/>
	<path id="Layer" class="s15" d="m52.1 103.4q-0.1 0-0.2 0 0 0 0.1 0 0 0 0 0 0 0 0.1 0z"/>
	<path id="Layer" class="s16" d="m68 100.5c-1 4.7-9.8 8.5-9.8 8.5 0 0 5-1.7 7-2.8 1.9-1.2 2.6-3.4 2.6-3.4z"/>
	<path id="Layer" class="s9" d="m34 97c0 0-1.4-1.3-2.9 0.2-1.5 1.4-0.7 2.6 0.9 2.5 1.5-0.2 3.5-1.5 2-2.7z"/>
	<path id="Layer" class="s10" d="m34.1 97c-0.6-0.5-1.4-0.7-2.1-0.5-1 0.3-2.3 1.8-1.5 2.8 0.6 0.8 2.1 0.4 2.9 0.1 0.5-0.3 1-0.6 1.2-1.1 0.2-0.5-0.2-1-0.5-1.3h-0.2c0.8 0.7 0.6 1.5-0.3 2.1-0.8 0.5-2.4 1-3 0-0.6-0.9 0.7-2.1 1.4-2.4 0.6-0.3 1.4-0.1 1.9 0.3z"/>
	<path id="Layer" class="s17" d="m34.3 97.5q0 0.2-0.2 0.4 0.1 0 0.3 0.1 0-0.3-0.1-0.5z"/>
	<path id="Layer" class="s18" d="m34.3 97.3q0 0.1 0 0.2 0.1 0.2 0.1 0.5 0.1 0 0.1 0 0.1-0.3-0.2-0.7z"/>
	<path id="Layer" class="s17" d="m30.4 98.5q0 0.3 0.2 0.6c0.2 0.4 0.7 0.6 1.2 0.6 0.4 0 0.8-0.1 1.2-0.3-0.2-0.2-0.1-0.5 0-0.8q-0.1 0-0.2 0.1c0 0-0.7 0.3-1.3 0.3q-0.3 0-0.5-0.1c-0.3-0.1-0.5-0.2-0.6-0.4z"/>
	<path id="Layer" class="s18" d="m30.6 97.8c-0.6 1.1 0 1.9 1.1 1.9q0.1 0 0.3 0 0.5-0.1 1-0.3 0 0 0 0c-0.4 0.2-0.8 0.3-1.2 0.3-0.5 0-1-0.2-1.2-0.6q-0.2-0.3-0.2-0.6-0.1-0.2 0.2-0.6z"/>
	<path id="Layer" class="s19" d="m32.8 96.8c-0.9 0-1.6 0.9-1.6 0.9q-0.2 0.3-0.2 0.4c0 0.1 0.1 0.2 0.3 0.2 0.3 0 0.8-0.2 1-0.3 0.3-0.2 1.3-0.5 1.3-0.8q0-0.2-0.4-0.3-0.2-0.1-0.4-0.1z"/>
	<path id="Layer" class="s9" d="m34.7 98.2c0 0-0.7-0.6-1.4 0.1-0.6 0.8-0.2 1.5 0.5 1.4 0.7-0.1 1.7-0.8 0.9-1.5z"/>
	<path id="Layer" class="s10" d="m34.8 98.2c-0.3-0.2-0.7-0.3-1-0.3-0.6 0.2-1.2 1-0.7 1.6 0.6 0.8 2.7-0.3 1.7-1.3h-0.2c0.9 0.9-1 1.9-1.4 1.2-0.3-0.5 0.1-1 0.4-1.3 0.3-0.2 0.7-0.1 1 0.1z"/>
	<path id="Layer" class="s9" d="m61.9 99.4c0 0-1.4-1.2-2.8 0.2-1.5 1.4-0.8 2.7 0.8 2.5 1.6-0.1 3.6-1.4 2-2.7z"/>
	<path id="Layer" class="s10" d="m62 99.4c-0.5-0.4-1.3-0.6-1.9-0.5-1.1 0.2-2.5 1.8-1.7 2.8 0.7 0.8 2.1 0.4 2.9 0.1 0.5-0.2 1-0.6 1.2-1.1 0.2-0.5-0.2-1-0.5-1.3-0.1 0-0.3 0-0.2 0 2 1.7-2.5 3.7-3.4 2.1-0.4-0.9 0.7-2 1.4-2.3 0.6-0.4 1.5-0.3 2 0.2 0.1 0.1 0.3 0.1 0.2 0z"/>
	<path id="Layer" class="s17" d="m60.9 101q-0.1 0-0.2 0.1c0 0-0.7 0.3-1.3 0.3q-0.1 0-0.1 0-0.3 0.1-0.8 0.2c0.3 0.4 0.7 0.5 1.2 0.5 0.4 0 0.8-0.1 1.2-0.3-0.2-0.2-0.1-0.5 0-0.8zm1.3-1.1q0 0.2-0.2 0.4 0.2 0 0.3 0.1 0-0.2-0.1-0.5z"/>
	<path id="Layer" class="s18" d="m58.5 101.6q0 0.1 0 0.1c0.2 0.3 0.6 0.4 1.1 0.4q0.2 0 0.3 0 0.5 0 1-0.2 0-0.1 0-0.1c-0.4 0.2-0.8 0.3-1.2 0.3-0.5 0-0.9-0.1-1.2-0.5zm3.8-1.8q0 0-0.1 0.1 0.1 0.3 0.1 0.5 0.1 0 0.2 0.1 0-0.4-0.2-0.7z"/>
	<path id="Layer" class="s19" d="m60.7 99.2q-0.2 0-0.4 0.1c0.3 0.2 0.5 0.4 0.3 0.8q0 0.1-0.1 0.1c0.4-0.1 1-0.4 1-0.6q0-0.1-0.4-0.3-0.2-0.1-0.4-0.1z"/>
	<path id="Layer" class="s9" d="m62.6 100.6c0 0-0.7-0.6-1.3 0.1-0.7 0.8-0.3 1.5 0.4 1.4 0.8-0.1 1.7-0.8 0.9-1.5z"/>
	<path id="Layer" class="s10" d="m62.7 100.6c-0.2-0.2-0.6-0.3-1-0.2-0.5 0.1-1.2 0.9-0.8 1.5 0.8 0.8 2.8-0.3 1.8-1.3l-0.2 0.1c1 0.8-0.9 1.8-1.4 1.1-0.2-0.3 0.1-0.8 0.3-1 0.3-0.4 0.8-0.5 1.1-0.1z"/>
	<path id="Layer" class="s20" d="m26.5 100.8c0 0 0 2.2 0.2 2.7 0.2 0.5 0.8 1.3 0.8 1.3 5.5 4.2 14.1 5 20.2 5 3.8 0 6.7-0.3 7-0.3 0.8-0.1 0.5-3.4 0.5-3.4q-4.7 0.5-8.5 0.5c-16.4 0-20.2-5.8-20.2-5.8z"/>
	<path id="Layer" class="s21" d="m42.2 94.8q-0.2 0-0.3 0 0 0.1 0.1 0.1 0.1 0 0.2-0.1z"/>
	<path id="Layer" fill-rule="evenodd" class="s22" d="m43.3 95.3c2.6 0.2 4 2.6 4 2.6 0.5-1.9 4.8-1.9 5.1-1.9q0.1 0 0.1 0c0 0 0.1-0.2 0.1-0.4q0.1 0.2 0.2 0.3c0.3 0.8 2.4 1.1 3.7 1.6q-0.4 0-0.8 0.1 0 0 0 0c-0.1 0-0.5 0-1-0.1-0.5-0.1-1.2-0.1-1.9-0.1-1.3 0-2.8 0.2-3.5 1.2 0 0-0.6 0.4 0.5 1.3 1.1 0.9 1.9 1.2 1.9 2.3 0 0 1-2.2 4.6-2.2q0.9 0 2.1 0.2-0.1 0.2-0.2 0.3-0.7-0.1-1.6-0.1-0.7-0.1-1.5 0.1c-3.1 0.6-4 2.7-3.2 2.9-0.8 0.1-1.6 0.2-2.3 0.4q-0.7 0.2-1.4 0.3c1.9-0.6 1.3-1.8 0.6-2.6 0 0-1.3-1-3.1-1q-0.6 0-1.3 0.2c0 0-0.2 2.4-0.8 2.4q0 0 0 0c-0.6 0-1.4-3.2-4.2-3.2q-0.2 0-0.3 0c-2.8 0.2-4.2 1.3-3.4 2.3-0.4-0.2-0.8-0.5-1.5-0.8q-0.5-0.3-0.8-0.5 0.4-0.2 0.7-0.4c1-0.9 1.4-2.1 3.2-2.1q0.2 0 0.4 0.1 0.2 0 0.3 0c1.8 0 0.5-1.6-0.7-1.6-0.6 0-0.4-0.3 0.1-0.7 1.2-0.4 2.8-1 4.4-1.3q0.1 0 0.2 0.1l0.2 0.1q0.1-0.2 0.3-0.4 0.8-0.1 1.5-0.1c-0.5 0.4-0.8 0.7-0.7 0.7zm-2.1 4.3c-0.1-0.1-1.1-0.7-2.4-0.7-0.9 0-1.9 0.3-2.8 1.2-0.9 0.7-1.1 1.5-1.1 1.5q0.5-0.9 1.1-1.5c0.5-0.4 1.4-0.7 2.6-0.7q0.7 0 1.7 0.2c0 0 3.1 1.2 3.4 3.2 0 0 0.3-2-0.7-2.3-0.5-0.2 0.5-0.5 2-0.5 1.5 0 3.5 0.4 4.8 1.5 0.6 0.5 1 0.7 1.1 0.7 0.6 0-0.7-2.2-2.6-2.7 0 0 0.9-2 3.3-2.3 0.8-0.1 0.7-0.3 0-0.3-1 0-3.3 0.4-4.1 2 0 0-2.1-3.3-6.1-3.3q-0.2 0-0.4 0c0 0 4.1 1.3 4.3 2.3 0.2 1-2.6 0.6-3.3 1.6 0 0-0.3 0.2-0.6 0.2q-0.1 0-0.2-0.1zm3.2-1.9c0 0-0.8-1.1-3.3-1.1q-0.1 0-0.2 0c-2.3 0-0.9 0.9-1 1.4-0.1 0.5 1.5 1.4 1.5 1.4 0 0 0.7-1.6 3-1.7zm-3.5 6.3c-1-0.1-1.9-0.3-2.6-0.6q0 0-0.1-0.1c0.8 0.3 1.7 0.5 2.7 0.7zm1-9.2q0 0 0 0 0 0 0 0z"/>
	<path id="Layer" class="s23" d="m42.5 94.7q-0.2 0-0.3 0.1-0.1 0.1-0.2 0.1-0.1 0-0.1-0.1 0 0 0 0-0.1 0-0.1 0.1 0.1 0 0.2 0.1l0.2 0.1q0.1-0.2 0.3-0.4z"/>
	<path id="Layer" class="s24" d="m37.4 96.2q-0.6 0.2-1 0.3c-2 0.6 0 1-1.5 1.9 0.5 0.7-0.4 1.4-1.2 1.4q-0.3 0-0.6-0.2-0.4 0.6 0.3 1.3 0.4-0.2 0.7-0.4c1-0.9 1.4-2.1 3.2-2.1q0.2 0 0.4 0.1 0.2 0 0.3 0c1.8 0 0.5-1.6-0.7-1.6-0.6 0-0.4-0.3 0.1-0.7z"/>
	<path id="Layer" fill-rule="evenodd" class="s24" d="m41.1 96.6c2.5 0 3.3 1.1 3.3 1.1-2.3 0.1-3 1.7-3 1.7 0 0-1.6-0.9-1.5-1.4 0.1-0.5-1.3-1.4 1-1.4q0.1 0 0.2 0zm1.3 0.4c0 0-0.3 0-0.6 0-0.3 0-0.6 0-0.5 0.3 0.1 0.1 0.3 0.2 0.6 0.2 0.6 0 1.4-0.3 0.5-0.5z"/>
	<path id="Layer" class="s24" d="m44.1 94.6q-0.1 0-0.1 0c-0.5 0.4-0.8 0.7-0.7 0.7 2.6 0.2 4 2.6 4 2.6 0.5-1.9 4.8-1.9 5.1-1.9q0.1 0 0.1 0c0 0 0.1-0.2 0.1-0.4q-0.2-0.2-0.6-0.2 0 0.2-0.3 0.2c-0.2 0-0.5-0.1-0.9-0.3-0.4 0.1-0.7 0.2-0.7 0.2-1.1-0.4-2 0.1-4.5-0.7q-0.7-0.2-1.5-0.2z"/>
	<path id="Layer" class="s24" d="m52.8 97.4c-1.3 0-2.8 0.2-3.5 1.2 0 0-0.6 0.4 0.5 1.3 1.1 0.9 1.9 1.2 1.9 2.3 0 0 1-2.2 4.6-2.2q0.9 0 2.1 0.2 0.1-0.2 0.3-0.4c-0.8-0.1-1.5-0.4-1.5-1 0-0.4 0.2-0.6 0.5-0.7-0.1-0.2-0.5-0.4-1.2-0.6q-0.4 0-0.8 0.1 0 0 0 0c-0.1 0-0.5 0-1-0.1-0.5-0.1-1.2-0.1-1.9-0.1z"/>
	<path id="Layer" class="s24" d="m39.4 99.9q-0.2 0-0.3 0c-2.8 0.2-4.2 1.3-3.4 2.3 0.7 0.3 1.2 0.6 2.5 1.1 0.8 0.3 1.7 0.5 2.7 0.6 1.9 0.2 4 0 5.3 0.3q0.3 0 0.7 0 0.6 0 1.3-0.1c1.9-0.6 1.3-1.8 0.6-2.6 0 0-1.3-1-3.1-1q-0.6 0-1.3 0.2c0 0-0.3 2.4-0.8 2.4q0 0 0 0c-0.6 0-1.4-3.2-4.2-3.2z"/>
	<path id="Layer" class="s25" d="m41.8 97c-0.3 0-0.6 0-0.5 0.3 0.1 0.1 0.3 0.2 0.6 0.2 0.6 0 1.4-0.3 0.5-0.5 0 0-0.3 0-0.6 0z"/>
	<path id="Layer" class="s25" d="m51.4 95.3q-0.3 0-0.6 0c0.4 0.2 0.7 0.3 0.9 0.3q0.3 0 0.3-0.2-0.3-0.1-0.6-0.1z"/>
	<path id="Layer" class="s25" d="m57.7 98.1c-0.3 0.1-0.5 0.3-0.5 0.7 0 0.6 0.7 0.9 1.5 1 0.3-0.3 0.6-0.6 0.9-0.7-0.9-0.2-2-0.4-1.9-0.9q0 0 0-0.1z"/>
	<path id="Layer" fill-rule="evenodd" class="s26" d="m36 100.1c-0.9 0.7-1.1 1.5-1.1 1.5q0.5-0.9 1.1-1.5zm5.4-4.5q-0.2 0-0.4 0c0 0 4.1 1.3 4.3 2.3 0.2 1-2.6 0.6-3.3 1.6 0 0-0.3 0.2-0.6 0.2q-0.1 0-0.2-0.1c-0.1-0.1-1.1-0.7-2.4-0.7-0.9 0-1.9 0.3-2.8 1.2 0.5-0.4 1.4-0.7 2.6-0.7q0.7 0 1.7 0.2c0 0 3.1 1.2 3.4 3.2 0 0 0.3-2-0.7-2.3-0.5-0.2 0.5-0.5 2-0.5 1.5 0 3.5 0.4 4.8 1.5 0.6 0.5 1 0.7 1.1 0.7 0.6 0-0.7-2.2-2.6-2.7 0 0 0.9-1.9 3.3-2.3 0.8-0.1 0.7-0.3 0-0.3-1 0-3.3 0.4-4.1 2 0-0.1-2.1-3.3-6.1-3.3zm6.1 3.3q0 0 0 0z"/>
	<path id="Layer" class="s22" d="m57.2 101.1c-3.7 0-4.9 2-5.1 2.3q0.3-0.1 0.7-0.1 0.1 0 0.2 0 0 0 0.1 0c-0.3-0.1-0.3-0.4-0.1-0.7 0.8-1 2.3-1.2 3.1-1.2 0.4 0 0.6 0.1 0.6 0.1 0.1 0 0.8 0.1 1.4 0.3q0.2-0.1 0.3-0.1-0.2-0.3-0.2-0.6-0.5 0-1 0z"/>
	<path id="Layer" class="s24" d="m56.1 101.4c-0.8 0-2.3 0.2-3.1 1.2-0.2 0.3-0.2 0.6 0.1 0.7q0 0 0.1 0c2.5 0 2.6-0.9 4.5-1.4q0.2-0.1 0.4-0.1c-0.6-0.2-1.3-0.3-1.4-0.3 0 0-0.2-0.1-0.6-0.1z"/>
	<path id="Layer" class="s26" d="m56.6 100.4q-0.7-0.1-1.5 0.1c-3.1 0.6-4 2.7-3.2 2.9q0.1 0 0.2 0c0.2-0.3 1.4-2.3 5.1-2.3q0.5 0 1 0-0.1-0.3 0-0.6-0.7-0.1-1.6-0.1z"/>
	<path id="Layer" class="s22" d="m34.8 98.5q-0.1 0-0.2 0-1 0.5-1.4 0.9 0.2 0.2 0.5 0.2c0.6 0 1.4-0.6 1.1-1.1z"/>
	<path id="Layer" class="s23" d="m34.9 98.4q0 0-0.1 0.1c0.3 0.5-0.5 1.1-1.1 1.1q-0.3 0-0.5-0.2 0 0.1-0.1 0.2 0.3 0.2 0.6 0.2c0.8 0 1.7-0.7 1.2-1.4z"/>
	<path id="Layer" class="s22" d="m59.8 99.1q0 0.1 0 0.1c-0.6 0.3-1.4 1-1.5 1.7 0.1 0.2 0.3 0.3 0.6 0.5q0.2 0 0.4 0c0.5-0.2 0.8-0.4 1.2-1.2q-0.2 0.1-0.3 0.2c-0.2 0.1-0.7 0.3-1 0.3-0.2 0-0.3 0-0.3-0.2q0-0.1 0.2-0.4c0 0 0.5-0.6 1.2-0.8q-0.2-0.1-0.5-0.2z"/>
	<path id="Layer" class="s23" d="m59.6 99.1c-0.3 0.1-0.6 0.4-0.9 0.7q-0.2 0.2-0.3 0.4-0.1 0.2-0.2 0.3-0.1 0.3 0 0.6 0 0.3 0.2 0.6 0 0 0.1 0c-0.3-0.4-0.3-0.9 0-1.5v0.1q-0.2 0.4-0.2 0.6c0.1-0.7 0.9-1.4 1.5-1.7q0 0 0-0.1-0.1 0-0.2 0z"/>
	<path id="Layer" class="s27" d="m58.3 100.9q0 0.3 0.1 0.6 0.1 0.1 0.1 0.1 0.5-0.1 0.8-0.2-0.2 0-0.4 0c-0.3-0.2-0.5-0.3-0.6-0.5z"/>
	<path id="Layer" class="s28" d="m58.5 100.2c-0.3 0.6-0.3 1.1 0 1.5q0 0 0-0.1 0 0-0.1-0.1-0.1-0.3-0.1-0.6 0-0.2 0.2-0.6z"/>
	<path id="Layer" class="s29" d="m60.3 99.3c-0.7 0.2-1.2 0.8-1.2 0.8q-0.2 0.3-0.2 0.4c0 0.2 0.1 0.2 0.3 0.2 0.3 0 0.8-0.2 1-0.3q0.1-0.1 0.3-0.2 0.1 0 0.1-0.1c0.2-0.4 0-0.6-0.3-0.8z"/>
	<path id="Layer" class="s30" d="m47.6 100.4c0 0-3.4-21.3-4.1-32.2-0.7-10.9 0.1-21.9 4.8-34.2 4.6-12.3 4-16.7 3.1-18.6-1-2-3.6-1.1-4.2 0.8-0.5 1.8 0.8 2.9 1.8 2.4 0.9-0.4 0.5-1.1 0-1.5-0.5-0.4-0.4-1.2 0.5-1.3 0.8-0.1 2.5 3 0.1 3.9-2.4 0.8-4.1-1-3.2-3.8 0.8-2.8 3.8-4.2 5.8-1.4 2.1 2.8 0.7 13.2-2.5 20-2.6 5.6-5.9 20.7-4.9 33.9 1.1 13.1 4.6 31 4.5 31.8-0.1 0.9-1.2 1.7-1.7 0.2z"/>
	<path id="Layer" class="s30" d="m49.9 13q0.3 0 0.6 0.2-0.3-0.2-0.6-0.2z"/>
	<path id="Layer" class="s31" d="m49.7 13h-0.1q-0.6 0-1.2 0.3 0.4-0.1 0.7-0.1c0.9 0 1.8 0.5 2.6 1.5 2 2.8 0.6 13.2-2.5 20-0.9 1.9-1.8 4.7-2.6 8.2q0.3-0.4 0.7-0.8c0.8-3.2 1.6-5.8 2.4-7.6 2.2-4.6 3.5-10.9 3.5-15.3 0-2.1-0.3-3.8-1-4.7-0.5-0.7-1-1.1-1.6-1.3h-0.1q-0.3-0.2-0.6-0.2z"/>
	<path id="Layer" class="s31" d="m44.7 53.1c-0.6 5-0.9 10.4-0.4 15.5 0.6 8.1 2.2 17.9 3.3 24.5q0-1.7 0-3.5c-1-6.3-2.2-14.4-2.8-21.2q-0.2-2.6-0.2-5.2c0-3.1 0.2-6.2 0.6-9.2q-0.3-0.4-0.5-0.9z"/>
	<path id="Layer" class="s31" d="m48.6 14.5c-0.8 0.2-1.6 0.9-1.9 1.9-0.5 1.5 0.4 2.5 1.3 2.5q0.2 0 0.4-0.1 0.1 0 0.2-0.1h-0.1c-0.5 0-1-0.3-1.3-1-0.1-0.4-0.2-0.9 0-1.5v-0.1q0.2-0.4 0.4-0.7v-0.1h0.1v-0.1q0.4-0.4 0.9-0.7z"/>
	<path id="Layer" class="s32" d="m50.3 58c0 0 1.1 0.7 0.3 6.4-0.7 5.7-5 26.9-2 36.6 0 0 1.3 1 1.4-0.8 0-1.9-2-10.7-0.5-19.2 1.4-8.4 2.7-21.4 4.9-22.3 0 0-3.7-1.2-4.1-0.7z"/>
	<path id="Layer" class="s33" d="m49 87.7c0 1.9 0.1 3.8 0.2 5.4-0.1-1.7-0.2-3.5-0.2-5.4z"/>
	<path id="Layer" class="s34" d="m53.3 58.8c-1.8 2.9-2.9 14.1-4.2 21.8-0.9 4.9-0.6 10-0.1 13.7q0.1-0.6 0.2-1.2c-0.1-1.6-0.2-3.5-0.2-5.4 0-2.2 0.1-4.5 0.5-6.7 1.4-8.1 2.5-20.3 4.6-22.2q-0.2 0-0.4 0h-0.1q-0.1 0-0.3 0z"/>
	<path id="Layer" class="s35" d="m66.8 44.2c0 0 0.5 10-7.6 13.5-8.2 3.4-13.7-1.5-13.9-3.9-0.2-2.4 21.2-10.3 21.5-9.6z"/>
	<path id="Layer" class="s36" d="m58.7 57.9c-1.6 0.6-3.2 0.9-4.6 0.9 1.4 0 2.9-0.3 4.6-0.9zm4.1-2.7q-0.1 0.1-0.2 0.3 0.1-0.2 0.2-0.3z"/>
	<path id="Layer" class="s37" d="m66.5 47.8c-0.8 3.1-2.7 7-7.1 8.9-1.7 0.7-3.2 1-4.6 1.1q0 0.2-0.1 0.2v0.1-0.1q0 0 0-0.2-0.4 0.1-0.8 0.1-0.4 0-0.8-0.1c-0.2 0.3-0.3 0.5-0.4 0.6h-0.1l-0.1-0.1q0-0.2 0-0.5c-1.5-0.2-2.7-0.6-3.7-1.2-1.4-0.3-2.5-1.1-3.3-2.1 0.7 1.8 3.7 4.3 8.1 4.3h0.1q0.2 0 0.4 0c1.4 0 2.9-0.3 4.6-0.9v-0.1h0.1q0.2-0.1 0.4-0.1l0.1-0.1h0.1l0.1-0.1h0.1l0.1-0.1h0.1l0.1-0.1h0.1l0.1-0.1q0.1 0 0.2-0.1l0.1-0.1h0.1q1.2-0.7 2.1-1.5 0.1-0.2 0.2-0.3h0.1v-0.1h0.1v-0.1l0.1-0.1h0.1v-0.1l0.1-0.1c1.9-2.1 2.8-4.8 3.2-6.9z"/>
	<path id="Layer" class="s38" d="m66.4 45.4c0 0-0.6 6.3-7.2 10-6.5 3.7-10.3 1.4-11.3 0.3-1-1 18.5-10.3 18.5-10.3z"/>
	<path id="Layer" class="s39" d="m52.2 56.5q-0.4 0.1-0.9 0.2-0.3 0-0.5 0 0.7 0.2 1.5 0.2 0-0.2-0.1-0.4zm1.7-0.3q-0.2 0-0.3 0.1-0.1 0.3-0.1 0.6 0.3-0.1 0.7-0.1-0.1-0.3-0.3-0.6zm1.6-0.5l-0.2 0.1c0 0.2-0.1 0.5-0.1 0.8q0.3-0.1 0.6-0.2c-0.1-0.3-0.2-0.5-0.3-0.7zm1.4-0.5v0.1 0.1q0 0.3-0.1 0.7 0.2-0.1 0.5-0.2c-0.2-0.4-0.3-0.7-0.4-0.7zm1.4-0.7q-0.2 0.1-0.4 0.2c0 0.2-0.1 0.6-0.1 0.9q0.4-0.2 0.9-0.4c-0.2-0.3-0.3-0.5-0.4-0.7zm1.2-0.7h-0.1q0 0.2 0 0.5 0 0.2-0.1 0.5 0.3-0.2 0.6-0.4c-0.1-0.2-0.3-0.5-0.4-0.6zm1.1-0.8l-0.1 0.1c0 0.3 0 0.7-0.1 1q0.4-0.2 0.7-0.5c-0.1-0.2-0.3-0.4-0.5-0.6zm1.1-0.9l-0.1 0.1c0 0.4 0 0.7-0.1 1v0.1q0.4-0.3 0.7-0.6c-0.2-0.2-0.3-0.4-0.5-0.6zm1.1-0.9l-0.2 0.1c0 0.3 0.1 0.6 0.1 0.9q0.3-0.3 0.5-0.6-0.2-0.3-0.4-0.4zm1.2-1.3l-0.2 0.2q0 0.4 0 0.7 0.2-0.3 0.4-0.6-0.1-0.2-0.2-0.3zm1.5-2q-0.4 0.5-0.7 1 0 0.1 0 0.3 0.4-0.7 0.7-1.3z"/>
	<path id="Layer" class="s40" d="m52.2 56.2c0 0 0.3 1.6 0.3 2.1 0 0.5 1.2-1.1 1.1-2.3-0.2-1.2 1.1 1.7 1.1 2 0 0.3 0.6-1.8 0.6-2.4 0-0.6 0.9 1.5 0.9 1.8 0 0.3 0.7-1.4 0.7-2 0-0.7 0.5 0.7 0.6 1.1 0.1 0.4 0.5-2 0.5-2.3 0-0.3 0.8 1.2 1 1.6 0.1 0.4 0.5-1.5 0.4-2-0.2-0.5 0.9 1.1 0.9 1.4 0 0.3 0.2-1.8 0.1-2.4-0.2-0.5 0.9 1 0.9 1.3 0.1 0.2 0.4-1.6 0.2-2.1-0.2-0.5 0.8 0.9 1 1.1 0.2 0.2 0-1.5 0-2-0.1-0.5 1.1 0.9 1.1 0.9 0 0 0.3-1.3 0.1-2.2-0.2-0.8 0.8 0.8 0.9 0.9 0 0.2 0.4-1.2 0.1-1.9-0.2-0.8-10.3 4.7-12.5 7.4z"/>
	<path id="Layer" class="s41" d="m58.9 55.6v0.2l0.1 0.1v-0.1z"/>
	<path id="Layer" class="s42" d="m58.7 55.2q0.1 0.2 0.2 0.4-0.1-0.2-0.2-0.4z"/>
	<path id="Layer" class="s43" d="m58.3 54.5c0.1 0.2 0.2 0.4 0.4 0.7-0.1-0.3-0.3-0.5-0.4-0.7z"/>
	<path id="Layer" class="s44" d="m58.6 54.3q-0.2 0.1-0.3 0.2c0.1 0.2 0.3 0.4 0.4 0.7q0.1 0.2 0.2 0.4l0.1 0.2v0.1c0.1-0.1 0.3-0.9 0.4-1.5-0.1 0.5-0.3 1-0.4 1v-0.1c0-0.2-0.2-0.6-0.4-1z"/>
	<path id="Layer" class="s41" d="m61.3 54v0.1h0.1-0.1z"/>
	<path id="Layer" class="s42" d="m61.1 53.6q0.1 0.3 0.2 0.4 0-0.1-0.2-0.4z"/>
	<path id="Layer" class="s43" d="m60.7 53h-0.1c0.2 0.2 0.4 0.4 0.5 0.6-0.1-0.2-0.3-0.4-0.4-0.6z"/>
	<path id="Layer" class="s44" d="m60.9 52.8q-0.1 0.1-0.2 0.2c0.1 0.2 0.3 0.4 0.4 0.6q0.2 0.3 0.2 0.4v0.1h0.1c0-0.1 0.1-0.4 0.1-0.8q0 0.3-0.1 0.3c0-0.1-0.2-0.5-0.5-0.8z"/>
	<path id="Layer" class="s41" d="m56 56.9c0.1 0.2 0.2 0.4 0.2 0.5 0-0.1-0.1-0.3-0.2-0.5z"/>
	<path id="Layer" class="s42" d="m55.9 56.4h-0.1q0.2 0.2 0.2 0.5 0-0.3-0.1-0.5z"/>
	<path id="Layer" class="s43" d="m55.5 55.7c0.1 0.2 0.2 0.4 0.3 0.7h0.1c-0.2-0.3-0.3-0.5-0.4-0.7z"/>
	<path id="Layer" class="s44" d="m56.9 55.4c-0.2 0.6-0.6 1.5-0.6 1.5h-0.1c0-0.2-0.2-0.8-0.4-1.3q-0.1 0.1-0.3 0.1c0.1 0.2 0.2 0.4 0.4 0.7q0.1 0.2 0.1 0.5c0.1 0.2 0.2 0.4 0.2 0.5 0.1-0.1 0.7-1.4 0.7-2z"/>
	<path id="Layer" class="s41" d="m60.2 54.9q0.1 0.2 0.1 0.3 0-0.1-0.1-0.3z"/>
	<path id="Layer" class="s42" d="m59.9 54.4q0.2 0.3 0.3 0.5-0.1-0.2-0.3-0.5z"/>
	<path id="Layer" class="s43" d="m59.5 53.8c0.1 0.1 0.3 0.4 0.4 0.6-0.1-0.2-0.3-0.5-0.4-0.6z"/>
	<path id="Layer" class="s44" d="m59.8 53.6q-0.2 0.1-0.3 0.2c0.1 0.1 0.3 0.4 0.4 0.6q0.2 0.3 0.3 0.5 0.1 0.2 0.1 0.3c0-0.1 0-0.2 0-0.5 0-0.2-0.3-0.7-0.5-1.1z"/>
	<path id="Layer" class="s41" d="m62.4 53l0.1 0.1h0.1-0.1z"/>
	<path id="Layer" class="s42" d="m62.2 52.7q0.1 0.2 0.2 0.3-0.1-0.1-0.2-0.3z"/>
	<path id="Layer" class="s43" d="m61.7 52.1c0.2 0.2 0.3 0.4 0.5 0.6-0.2-0.2-0.3-0.4-0.5-0.6z"/>
	<path id="Layer" class="s44" d="m62 51.9q-0.1 0.1-0.3 0.2c0.2 0.2 0.3 0.4 0.5 0.6q0.1 0.2 0.2 0.3l0.1 0.1h0.1c0 0 0-0.2 0-0.5-0.1-0.1-0.4-0.4-0.6-0.7z"/>
	<path id="Layer" class="s41" d="m64.4 50.5q0.1 0.2 0.1 0.2l0.1 0.1v-0.1q-0.1 0-0.2-0.2z"/>
	<path id="Layer" class="s42" d="m64.2 50.2q0.1 0.2 0.2 0.3-0.1-0.1-0.2-0.3z"/>
	<path id="Layer" class="s43" d="m64 49.9q0.1 0.1 0.2 0.3-0.1-0.2-0.2-0.3z"/>
	<path id="Layer" class="s44" d="m64.2 49.6q-0.1 0.1-0.2 0.3 0.1 0.1 0.2 0.3 0.1 0.2 0.2 0.3 0.1 0.2 0.2 0.2c0 0 0.2-0.4 0.2-0.9-0.1 0.3-0.1 0.5-0.2 0.5 0-0.1-0.2-0.4-0.4-0.7z"/>
	<path id="Layer" class="s41" d="m52.4 57.4q0 0.2 0.1 0.4 0-0.2-0.1-0.4z"/>
	<path id="Layer" class="s45" d="m52.5 57.8q0 0.3 0 0.5l0.1 0.1h0.1-0.1l-0.1-0.1q0-0.2 0-0.5z"/>
	<path id="Layer" class="s42" d="m52.3 56.9q0.1 0.3 0.1 0.5 0-0.2-0.1-0.5z"/>
	<path id="Layer" class="s43" d="m52.3 56.5h-0.1q0.1 0.2 0.1 0.4 0-0.2 0-0.4z"/>
	<path id="Layer" class="s44" d="m53.5 56.3c-0.1 0.8-0.7 1.6-0.9 1.6v-0.1c0-0.2-0.1-0.8-0.2-1.3h-0.1q0 0.2 0 0.4 0.1 0.3 0.1 0.5 0 0.2 0.1 0.4 0 0.3 0 0.5l0.1 0.1h0.1c0.2-0.2 0.8-1.2 0.8-2.1z"/>
	<path id="Layer" class="s41" d="m54.5 57.3h-0.1q0.2 0.3 0.3 0.5-0.1-0.2-0.2-0.5z"/>
	<path id="Layer" class="s45" d="m54.7 57.8q0 0.2 0 0.2v0.1-0.1z"/>
	<path id="Layer" class="s42" d="m54.2 56.8q0.1 0.2 0.2 0.5h0.1q-0.1-0.3-0.3-0.5z"/>
	<path id="Layer" class="s43" d="m53.9 56.2q0.2 0.3 0.3 0.6-0.1-0.3-0.3-0.6z"/>
	<path id="Layer" class="s44" d="m55.3 55.8c-0.2 0.7-0.4 1.8-0.5 1.8v-0.1c0-0.1-0.3-0.8-0.6-1.4q-0.1 0.1-0.3 0.1 0.2 0.3 0.3 0.6 0.2 0.2 0.3 0.5 0.1 0.3 0.2 0.5v0.2c0.1-0.1 0.5-1.6 0.6-2.2z"/>
	<path id="Layer" class="s41" d="m57.5 56.3h-0.1q0.1 0.1 0.1 0.2v0.1-0.1z"/>
	<path id="Layer" class="s42" d="m57.3 55.8v0.1q0.1 0.2 0.1 0.4h0.1q-0.1-0.2-0.2-0.5z"/>
	<path id="Layer" class="s43" d="m56.9 55.2c0.1 0 0.3 0.3 0.4 0.7v-0.1c-0.1-0.3-0.3-0.6-0.4-0.6z"/>
	<path id="Layer" class="s44" d="m57.9 54.7c-0.1 0.6-0.2 1.4-0.3 1.4v-0.1c-0.1-0.2-0.2-0.7-0.4-1q-0.1 0.1-0.3 0.1v0.1c0.1 0 0.3 0.3 0.4 0.6q0.1 0.3 0.2 0.5v0.2 0.1-0.1c0.1-0.1 0.3-1.2 0.4-1.8z"/>
	<path id="Layer" class="s41" d="m63.5 51.9q0.1 0.1 0.1 0.1 0 0-0.1-0.1z"/>
	<path id="Layer" class="s42" d="m63.2 51.6q0.2 0.1 0.3 0.3-0.1-0.2-0.3-0.3z"/>
	<path id="Layer" class="s43" d="m62.8 51.2q0.2 0.1 0.4 0.4-0.2-0.3-0.4-0.4z"/>
	<path id="Layer" class="s44" d="m63.1 50.9q-0.2 0.1-0.3 0.3 0.2 0.1 0.4 0.4 0.2 0.1 0.3 0.3 0.1 0.1 0.1 0.1 0-0.1 0.1-0.5c0 0-0.3-0.3-0.6-0.6z"/>
	<path id="Layer" class="s44" d="m56.9 55.2v0.2-0.1-0.1z"/>
	<path id="Layer" class="s42" d="m63.8 50.8v0.1q-0.1 0.3-0.1 0.5 0-0.2 0.1-0.6z"/>
	<path id="Layer" class="s43" d="m63.8 50.1h-0.1q0.1 0.4 0.1 0.8v-0.1q0-0.3 0-0.7z"/>
	<path id="Layer" class="s44" d="m63.7 50.1v0.1c0.1 0.4 0 1 0 1.3q0 0 0-0.1 0-0.2 0.1-0.5 0-0.4-0.1-0.8z"/>
	<path id="Layer" class="s42" d="m62.7 52.2h-0.1q0 0.3 0 0.4c0.1 0 0.1-0.2 0.1-0.4z"/>
	<path id="Layer" class="s43" d="m62.6 51.3l-0.1 0.1c0 0.3 0.1 0.6 0.1 0.8h0.1c0-0.3-0.1-0.6-0.1-0.9z"/>
	<path id="Layer" class="s44" d="m62.5 51.4c0 0.4 0.1 0.9 0.1 1.2q0-0.1 0-0.4c0-0.2-0.1-0.5-0.1-0.8z"/>
	<path id="Layer" class="s43" d="m61.6 52.2l-0.1 0.1c0.1 0.3 0.1 0.6 0 0.9 0.1-0.3 0.1-0.6 0.1-1z"/>
	<path id="Layer" class="s44" d="m61.5 52.3c0.1 0.3 0 0.7 0 1v-0.1c0.1-0.3 0.1-0.6 0-0.9z"/>
	<path id="Layer" class="s43" d="m59.4 53.8v0.1q0 0.1 0 0.4 0-0.3 0-0.5z"/>
	<path id="Layer" class="s44" d="m59.4 53.9q0 0.2 0 0.5v-0.1q0-0.3 0-0.4z"/>
	<path id="Layer" class="s42" d="m60.4 54.1q0 0.4 0 0.6c0 0 0-0.3 0-0.6z"/>
	<path id="Layer" class="s43" d="m60.5 53.1h-0.1c0 0.3 0 0.7 0 1 0.1-0.3 0.1-0.7 0.1-1z"/>
	<path id="Layer" class="s44" d="m60.4 53.1v0.1c0 0.4 0 1.1-0.1 1.5h0.1q0-0.3 0-0.6c0-0.3 0-0.7 0-1z"/>
	<path id="Layer" class="s46" d="m62.1 39c0 0-8-3.1-14.1 2.4-6.1 5.4-5 16.3 3.3 15.3 8.3-1 13.3-6.7 15-10.3 1.7-3.6-0.7-5.8-4.2-7.4z"/>
	<path id="Layer" class="s47" d="m50.7 39.5q-1 0.5-2 1.3l-0.1 0.1q-0.3 0.2-0.5 0.4l-0.1 0.1q-0.4 0.3-0.7 0.7-0.4 0.4-0.7 0.8c-1.7 2.1-2.5 4.6-2.5 7 0 3.7 2.1 6.8 6.2 6.8q0.5 0 1 0c8.3-1 13.3-6.7 15-10.3v-0.2c-2.3 2.9-6.3 5.9-12.1 6.6q-0.5 0-1 0c-6.6 0-7.4-8.5-2.5-13.3z"/>
	<path id="Layer" class="s32" d="m41.2 35.4c0 0 1.2 0.7 1.1 3.2-0.1 2.5-4.1 29-4 36.8 0.1 7.7 2.8 14.3 4.1 16.9 1.2 2.7 2 2.7 2 2.2 0-0.5-4.2-8.6-4.2-22.8 0.1-14.3 3-28.4 3.4-30.2 0.5-1.9 1.1-7.4 0.2-8.5-0.9-1.1-2.6 2.4-2.6 2.4z"/>
	<path id="Layer" class="s33" d="m44.3 35.7c0 2.1-0.4 4.6-0.7 5.8-0.4 1.8-3.3 15.9-3.4 30.2q0 0.3 0 0.5 0-0.1 0-0.3c0.1-14.3 3-28.4 3.4-30.2 0.3-1.2 0.7-3.9 0.7-6z"/>
	<path id="Layer" class="s34" d="m44 33.5q-0.1 0.2-0.2 0.4-0.1 0.1-0.2 0.2c0.4 2-0.1 6.1-0.5 7.6-0.5 1.9-3.3 16-3.4 30.3-0.1 7.7 1.2 13.6 2.3 17.5q0.5 1 1 1.9 0.2 0.3 0.4 0.6c-1.3-3.5-3.2-10.2-3.2-19.8q0-0.2 0-0.5c0.1-14.3 3-28.4 3.4-30.2 0.3-1.2 0.7-3.7 0.7-5.8 0-0.9-0.1-1.7-0.3-2.2z"/>
	<path id="Layer" class="s46" d="m29 31.2c0 0-7.2-3.3-5.3-8.5 1.9-5.1 10.2-2.6 12.3-1.6 2.2 1 9.3 6.4 8 11.9z"/>
	<path id="Layer" class="s48" d="m28.8 19.8q-0.1 0-0.2 0c-0.4 0.4-0.7 0.9-0.9 1.3-0.3 0.6-0.5 1-0.6 1.1q-0.1 0-0.1-0.2c0-0.7 0.2-1.6 0.1-1.9q-0.3 0.2-0.6 0.3c-0.6 0.7-1 2.2-1.2 2.2v-0.1c-0.1-0.3 0-1.1 0.1-1.5-1.3 1-1.8 2.1-1.8 2.1q0.1-0.2 0.2-0.5l-0.1 0.1v0.1q-0.3 0.9-0.2 1.8c1-1.5 2.9-2 4.9-2 2.8 0 5.7 0.9 6.8 1.4 1.7 0.8 6.2 4.1 7.7 8.1q0.4 0.2 0.6 0.3l0.1 0.1q0.2 0.1 0.3 0.2 0-1.5-0.3-2.7c-0.3 0-0.8 0-0.8-0.2v-0.1c0.1-0.2 0.3-0.6 0.4-0.9q-0.1-0.1-0.2-0.3c-0.3 0.1-0.8 0.2-0.9 0.2h-0.1l0.1-0.2c0.1-0.3 0.2-0.8 0.3-1.1q-0.1-0.1-0.1-0.3c-0.4 0.2-1.1 0.5-1.2 0.5l0.1-0.1 0.1-0.2c0.1-0.3 0.2-0.8 0.2-1.1l-0.1-0.2c-0.3 0.2-1.2 0.5-1.4 0.5h-0.1v-0.1l0.1-0.1c0.1-0.4 0.4-1 0.5-1.4l-0.2-0.2q-0.3 0.1-0.6 0.3c-0.4 0.2-0.9 0.4-1.1 0.4q0.1-0.1 0.2-0.3c0.2-0.3 0.5-0.9 0.5-1.3q-0.2-0.2-0.4-0.3c-0.3 0-0.7 0.2-1.1 0.4-0.4 0.2-0.8 0.4-0.9 0.4q0.1 0 0.3-0.3c0.2-0.4 0.5-1 0.5-1.4q-0.2-0.1-0.4-0.3c-0.7 0.2-1.6 0.9-1.9 0.9v-0.1-0.1c0.1-0.5 0.3-1.3 0.3-1.5h-0.1c-0.3 0.1-0.7 0.2-0.9 0.4h-0.1c-0.4 0.2-0.7 0.5-0.8 0.5l-0.1-0.1c0-0.3 0.4-1.3 0.4-1.3h-0.2c-0.9 0.2-1.7 1-1.9 1h-0.1v-0.1c0.1-0.4 0.7-1.1 0.8-1.6q-0.3-0.1-0.6-0.2c-0.6 0.4-1.4 1.3-1.6 1.3l-0.1-0.1v-0.1-0.1c0.1-0.3 0.2-0.9 0.2-1.2q-0.1-0.1-0.2-0.1c-0.3 0.3-0.6 0.6-0.9 1-0.4 0.4-0.7 0.8-0.8 0.9h-0.1v-0.1c-0.1-0.3 0.1-1.4 0.2-1.8z"/>
	<path id="Layer" class="s35" d="m44.2 32.8c0 0-0.2-0.3-0.3-0.1q0 0-0.2 0.3c-0.9 1.1-4.5 4.8-11.3 6-8 1.5-11.9-1.1-8.8-4.2 3.2-3 5.8-3.7 5.8-3.7h-0.5c0 0-7.2 2.6-6.9 6 0.3 3.5 8.4 5.2 15.5 1.4 7.2-3.8 6.7-5.7 6.7-5.7z"/>
	<path id="Layer" class="s35" d="m41.7 35.9c-1 0.8-2.3 1.6-4.2 2.6 1.9-1 3.2-1.8 4.2-2.6z"/>
	<path id="Layer" class="s49" d="m43.6 34.1c-0.4 0.5-1 1.1-1.9 1.8 0.9-0.7 1.5-1.3 1.9-1.8z"/>
	<path id="Layer" class="s50" d="m43.8 33.9l-0.2 0.2q0.1-0.1 0.2-0.2z"/>
	<path id="Layer" class="s51" d="m44.2 33.1c-0.5 0.9-1.9 2.5-6.5 5-2.9 1.5-5.9 2.1-8.5 2.1-3.9 0-6.9-1.4-7-3.5q-0.1-0.4 0.1-0.9-0.3 0.5-0.3 1v0.1q0 0.1 0 0.2c0.2 2.1 3.1 3.5 7 3.5 2.6 0 5.7-0.6 8.5-2.1 1.9-1 3.2-1.8 4.2-2.6 0.9-0.7 1.5-1.3 1.9-1.8l0.2-0.2c0.2-0.4 0.3-0.6 0.4-0.8z"/>
	<path id="Layer" class="s40" d="m27.3 32.1c0 0-0.4-0.7-0.3-0.9 0-0.2-0.7 1.4-0.7 1.7 0.1 0.3-0.1-1-0.2-1.3 0-0.4-0.6 1.2-0.5 1.6 0 0.3-0.6-1.5-0.5-1.9 0-0.3-0.6 2-0.5 2.6 0.1 0.6-1-1.8-1-2.1 0.1-0.3-0.7 0.6-0.1 3.3 0 0 2.8-1.7 3.8-3z"/>
	<path id="Layer" class="s44" d="m26.1 31.5c-0.1 0-0.4 0.7-0.5 1.2q0.1 0.2 0.1 0.4l0.1-0.1c0-0.3 0.2-0.8 0.3-1.2q0-0.1 0-0.2z"/>
	<path id="Layer" class="s44" d="m26.9 31.2c0 0-0.3 0.7-0.4 1.2v0.1l0.2-0.1c0.1-0.3 0.2-0.7 0.3-0.9q0-0.2 0-0.3z"/>
	<path id="Layer" class="s46" d="m23.6 34.8c-3.1 3.1 0.8 5.7 8.8 4.2 6.8-1.2 10.7-5 11.5-6.1-0.2-0.8-2.6-1.6-7.7-1.9-5.3-0.3-6.9 0.1-7.2 0.2 0 0-2.2 0.6-5.4 3.6z"/>
	<path id="Layer" class="s48" d="m32.4 30.9c-1.6 0-2.5 0.1-3 0.2q-0.3 0-0.4 0.1c0 0-1.5 0.4-3.8 2.3-0.4 1.7 1.7 2.9 5.6 2.9q1.8 0 4.2-0.4c3.8-0.7 6.6-2.2 8.6-3.5l-0.1-0.1c-0.7-0.5-2.4-0.9-5.2-1.2q-0.2 0-0.4 0h-0.1v-0.1h-0.1-0.1-0.1-0.1-0.1-0.1-0.1-0.1-0.1-0.1-0.1-0.1-0.1l-0.1-0.1h-0.1-0.1c-1.6-0.1-2.8-0.1-3.8-0.1z"/>
	<path id="Layer" class="s40" d="m29.7 37.8c-0.2 0.1-0.1 1.1-0.2 1.6q0.5 0 1.1-0.1c-0.3-0.6-0.8-1.7-0.9-1.5z"/>
	<path id="Layer" class="s40" d="m31.1 37.7c0 0.2-0.2 1.1-0.3 1.6q0.7-0.1 1.5-0.2c-0.5-0.4-1.1-1.8-1.2-1.4z"/>
	<path id="Layer" class="s40" d="m33 37.5c0 0.3 0 1.1-0.2 1.5q0.6-0.2 1.2-0.3c-0.4-0.4-1-1.4-1-1.2z"/>
	<path id="Layer" class="s40" d="m34.4 37.2c0 0.2 0 1-0.1 1.4q0.7-0.2 1.2-0.4c-0.4-0.5-1.1-1.3-1.1-1z"/>
	<path id="Layer" class="s40" d="m26.2 37.1c-0.2 0.2 0 1.7-0.1 2.2q0.4 0.1 0.8 0.1c-0.6-0.8-0.6-2.5-0.7-2.3z"/>
	<path id="Layer" class="s40" d="m28.8 39.4c-0.6-0.8-0.6-2.4-0.9-1.5-0.2 0.5-0.1 1.1-0.1 1.6q0.5 0 1-0.1z"/>
	<path id="Layer" class="s40" d="m25.7 39.3c-0.4-0.8-0.8-3.4-1.1-2.8-0.4 0.6 0.1 2.8-0.4 2.2-0.6-0.7-0.8-3-1-2.7-0.1 0.3 0.1 1.6-0.2 1.2-0.2-0.1-0.6-1.9-0.7-2.3 0 2.1 0.2 3.9 3.4 4.4z"/>
	<path id="Layer" class="s40" d="m40.1 36c-0.1-0.1-0.4-0.8-0.5-0.4 0 0.2-0.1 0.6-0.1 0.8q0.3-0.1 0.6-0.3z"/>
	<path id="Layer" class="s40" d="m37.2 36.3c0 0.2 0 0.9 0 1.3q0.5-0.2 1-0.5c-0.4-0.2-1-1-1-0.8z"/>
	<path id="Layer" class="s40" d="m35.9 36.6c0.1 0.1 0.1 1 0 1.5q0.6-0.2 1.1-0.4c-0.2-0.5-1.1-1.3-1.1-1.1z"/>
	<path id="Layer" class="s40" d="m38.7 36.1c-0.1 0.1 0 0.5 0 0.8q0.3-0.2 0.6-0.4c-0.2-0.2-0.6-0.5-0.6-0.4z"/>
	<path id="Layer" class="s52" d="m29.7 37.7c0.2 0 0.6 1.1 0.9 1.6-0.3-0.5-0.7-1.6-0.9-1.6z"/>
	<path id="Layer" class="s44" d="m29.7 37.7v0.1l-0.1 0.1c0.2 0.3 0.5 1 0.7 1.4h0.1 0.1c-0.2-0.5-0.6-1.6-0.8-1.6z"/>
	<path id="Layer" class="s52" d="m31.1 37.7v0.1z"/>
	<path id="Layer" class="s44" d="m31.2 37.6l-0.1 0.1v0.1c0.2 0.3 0.6 1 1 1.3q0.1 0 0.2 0c-0.4-0.4-1-1.5-1.1-1.5z"/>
	<path id="Layer" class="s44" d="m33 37.5v0.1 0.1c0.2 0.3 0.5 0.8 0.7 1.1q-0.4 0.1-0.9 0.2 0.6-0.2 1.2-0.3c-0.4-0.3-0.8-1.2-1-1.2z"/>
	<path id="Layer" class="s52" d="m34.3 38.6zm0.1-1.4v0.1z"/>
	<path id="Layer" class="s44" d="m34.4 37.1v0.1 0.1c0.2 0.2 0.6 0.6 0.9 1q-0.5 0.1-1 0.3 0.7-0.2 1.2-0.4c-0.3-0.4-0.9-1.1-1.1-1.1z"/>
	<path id="Layer" class="s52" d="m26.2 37.1c-0.1 0.1-0.1 0.3-0.1 0.6 0-0.3 0-0.5 0.1-0.6z"/>
	<path id="Layer" class="s44" d="m26.2 37.1c-0.1 0.1-0.1 0.3-0.1 0.6 0.1 0.5 0.2 1.2 0.6 1.7h0.2c-0.5-0.8-0.6-2.3-0.7-2.3z"/>
	<path id="Layer" class="s44" d="m28.1 37.7q-0.1 0-0.2 0.1c0.1 0.4 0.3 1.1 0.7 1.6q0.1 0 0.2 0c-0.5-0.6-0.6-1.7-0.7-1.7z"/>
	<path id="Layer" class="s44" d="m24.7 36.4l-0.1 0.1c0.2 0.4 0.5 2 0.9 2.7h0.1l0.1 0.1c-0.3-0.7-0.7-2.9-1-2.9z"/>
	<path id="Layer" class="s52" d="m39.7 35.5q-0.1 0-0.1 0.1v0.1-0.1q0-0.1 0.1-0.1z"/>
	<path id="Layer" class="s44" d="m39.7 35.5q-0.1 0-0.1 0.1v0.1c0.1 0.1 0.2 0.3 0.2 0.4q-0.1 0.1-0.3 0.2v0.1q0.3-0.1 0.6-0.3v-0.1l-0.1-0.1c-0.1-0.1-0.2-0.4-0.3-0.4z"/>
	<path id="Layer" class="s52" d="m37.2 37.6z"/>
	<path id="Layer" class="s44" d="m37.2 36.3v0.2c0.2 0.2 0.5 0.5 0.8 0.7q-0.4 0.2-0.8 0.4 0.5-0.2 1-0.5c-0.3-0.2-0.8-0.8-1-0.8z"/>
	<path id="Layer" class="s52" d="m35.9 38.1zm0-1.5l0.1 0.2z"/>
	<path id="Layer" class="s44" d="m36 36.5h-0.1v0.1l0.1 0.1c0.2 0.3 0.7 0.7 0.8 1q-0.4 0.2-0.9 0.4 0.6-0.2 1.1-0.4v-0.1l-0.1 0.1v-0.2c-0.1-0.3-0.4-0.6-0.6-0.8q-0.3-0.1-0.3-0.2z"/>
	<path id="Layer" class="s44" d="m38.7 36.1v0.1c0.1 0.1 0.3 0.3 0.4 0.4q-0.2 0.1-0.4 0.2v0.1q0.3-0.2 0.6-0.4c-0.2-0.2-0.5-0.4-0.6-0.4z"/>
	<path id="Layer" class="s44" d="m39.3 36.5z"/>
	<path id="Layer" class="s44" d="m36.9 37.5v0.2l0.1-0.1z"/>
	<path id="Layer" class="s40" d="m25.5 20.6c0 0-0.3 1.4-0.2 1.9 0.1 0.5 0.6-1.9 1.4-2.4 0.8-0.5 0.3 0.9 0.3 1.9 0.1 1 0.7-1.7 1.8-2.4 0 0-0.3 1.6-0.2 2 0.1 0.5 1.2-1.6 2.1-1.9 0 0-0.3 1.2-0.3 1.6 0 0.4 1.5-1.3 2.2-1.3 0.7-0.1-0.6 1.4-0.7 1.9 0 0.5 1-0.8 2.2-0.9 0 0-0.4 1.1-0.4 1.3 0 0.3 1-0.7 2-0.8 0 0-0.3 1.3-0.3 1.7 0 0.3 1.3-0.8 2.1-0.9 0.8 0-0.5 1.9-0.6 2 0 0.1 0.4-0.1 0.9-0.4 0.6-0.3 1.2-0.5 1.4-0.4 0.4 0.3-0.4 1.7-0.6 1.9-0.1 0.2 1.6-0.6 1.9-0.8 0.3-0.2-0.5 1.6-0.6 1.8-0.1 0.3 1.7-0.5 1.7-0.5 0 0-0.3 1.4-0.5 1.7-0.2 0.2 1.4-0.5 1.4-0.5 0 0-0.3 1.4-0.5 1.6-0.2 0.2 1.3-0.2 1.3-0.2 0 0-0.4 1.1-0.5 1.3-0.2 0.2 1 0.2 1 0.2 0 0-0.5-3.8-4-6.7-3.4-2.9-10.9-5.7-14.3-2.7z"/>
	<path id="Layer" class="s53" d="m35.6 21.5c-0.3 0.1-0.7 0.2-0.9 0.4 0.2-0.2 0.6-0.3 0.9-0.4z"/>
	<path id="Layer" class="s44" d="m35.3 21.3c-0.6 0.2-1.3 0.7-1.5 0.8q-0.1 0.1-0.1 0.2l0.1 0.1c0.1 0 0.4-0.3 0.8-0.5h0.1c0.2-0.2 0.6-0.3 0.9-0.4v-0.1q-0.1 0-0.3-0.1z"/>
	<path id="Layer" class="s53" d="m35.4 23v0.2z"/>
	<path id="Layer" class="s44" d="m37 22.2c-0.6 0.2-1.3 0.7-1.6 0.8v0.2c0.3 0 1.2-0.7 1.9-0.9q-0.2-0.1-0.3-0.1z"/>
	<path id="Layer" class="s53" d="m37.2 24q-0.2 0.3-0.3 0.3 0.1 0 0.3-0.3z"/>
	<path id="Layer" class="s44" d="m38.6 23.3c-0.4 0.1-1.1 0.5-1.4 0.7q-0.2 0.3-0.3 0.3v0.1c0.1 0 0.5-0.3 0.9-0.5 0.4-0.2 0.8-0.4 1.1-0.4q-0.1-0.1-0.3-0.2z"/>
	<path id="Layer" class="s53" d="m33.9 21c-0.9 0.2-1.7 1-1.9 1 0.2 0 1-0.8 1.9-1z"/>
	<path id="Layer" class="s44" d="m34 20.7c-1 0.2-1.8 1-2 1.1l-0.1 0.1v0.1h0.1c0.2 0 1-0.8 1.9-1q0.1-0.2 0.1-0.3z"/>
	<path id="Layer" fill-rule="evenodd" class="s53" d="m38.8 25.1q-0.1 0.2-0.2 0.3 0.1-0.1 0.2-0.3zm-0.2 0.3c0.2 0 0.7-0.2 1.1-0.4-0.4 0.2-0.9 0.4-1.1 0.4z"/>
	<path id="Layer" class="s44" d="m40.1 24.5c-0.4 0.2-0.9 0.5-1.3 0.6q-0.1 0.2-0.2 0.3c0.2 0 0.7-0.2 1.1-0.4q0.3-0.2 0.6-0.3z"/>
	<path id="Layer" class="s44" d="m28.6 19.8q-0.2 0.1-0.4 0.1c-0.6 0.7-1 1.9-1.2 2.1q0 0.2 0.1 0.2c0.1-0.1 0.3-0.5 0.6-1.1 0.2-0.4 0.5-0.9 0.9-1.3z"/>
	<path id="Layer" class="s44" d="m30 19.8c-0.6 0.6-1.2 1.6-1.4 1.7v0.1 0.1h0.1c0.1-0.1 0.4-0.5 0.8-0.9 0.3-0.4 0.6-0.7 0.9-1q-0.2 0-0.4 0z"/>
	<path id="Layer" class="s44" d="m31.8 20.1c-0.6 0.3-1.1 0.9-1.4 1v0.1 0.1l0.1 0.1c0.1 0 1-0.9 1.6-1.3q-0.2 0-0.3 0z"/>
	<path id="Layer" class="s44" d="m26.5 20.4q-0.2 0.1-0.4 0.2c-0.4 0.7-0.7 1.7-0.8 1.7v0.2 0.1c0.2 0 0.6-1.5 1.2-2.2z"/>
	<path id="Layer" class="s53" d="m42.8 29.7v0.1 0.1-0.1-0.1z"/>
	<path id="Layer" class="s44" d="m42.8 29.7v0.1c0 0.2 0.5 0.2 0.8 0.2l-0.1-0.2c-0.2 0-0.5 0-0.7-0.1z"/>
	<path id="Layer" class="s44" d="m42.9 28.3c-0.2 0.1-0.6 0.1-0.8 0.2l-0.1 0.2h0.1c0.1 0 0.6-0.1 0.9-0.2z"/>
	<path id="Layer" class="s44" d="m41.3 25.8c-0.4 0.2-1 0.4-1.3 0.5l-0.1 0.1v0.1h0.1c0.2 0 1.1-0.3 1.4-0.5z"/>
	<path id="Layer" class="s44" d="m42.1 26.9c-0.2 0.1-0.6 0.3-0.8 0.4l-0.1 0.2-0.1 0.1c0.1 0 0.8-0.3 1.1-0.5z"/>
	<path id="Layer" class="s46" d="m44.2 32.7c0 0 1.5-7.1-7.3-11.6-8.9-4.5-12.8-0.6-13.3 2 0 0 2.8-6.8 13.4-1 0 0 7.1 4.1 6.9 10.7 0 0 0.3 0.4 0.3-0.1z"/>
	<path id="Layer" class="s46" d="m29.6 19c-3.6 0-5.5 2.1-6 3.8q0.1-0.3 0.3-0.5 0.2-0.5 0.4-0.9c1-1.2 2.7-2.4 5.3-2.4z"/>
	<path id="Layer" class="s54" d="m44.1 33z"/>
	<path id="Layer" class="s55" d="m29.6 19c-2.6 0-4.3 1.2-5.3 2.4q-0.2 0.4-0.4 0.8c0.8-1.4 2.6-2.9 5.6-2.9 1.9 0 4.3 0.6 7.2 2.1 8.4 4.3 7.5 10.8 7.4 11.6q0 0 0-0.3c0 0 1.6-7.1-7.3-11.6-2.9-1.5-5.3-2.1-7.2-2.1z"/>
	<path id="Layer" class="s56" d="m43.6 100.9c0 0-11.4-6.2-12.5-18.2-1.1-12 2.2-15.5 3.6-18.5 1.4-3.1 2.2-6.5 1.7-8.2-0.6-1.8 3.1 1.9 2.2 10.6-0.9 8.8 0.2 17.8 4.4 24.8 4.1 7 4.7 8.7 4.6 9.3 0 0.7-3.6 0.2-4 0.2z"/>
	<path id="Layer" class="s57" d="m43.6 92.3v0.1q0.9 1.5 1.5 2.7-0.6-1.2-1.5-2.8zm-7.2-36.7c0.5 0 3 3.7 2.2 11q-0.3 3.5-0.2 7.1v-0.2q-0.1-3.5 0.2-6.9c0.8-7.3-1.7-11-2.2-11z"/>
	<path id="Layer" class="s58" d="m43.4 92q0.1 0.2 0.2 0.4v-0.1q-0.1-0.2-0.2-0.3zm-5-18.5v0.2c0.1 5.6 1.2 11.1 3.6 15.9v-0.1c-2.4-4.8-3.5-10.3-3.6-16z"/>
	<path id="Layer" class="s59" d="m42 89.5v0.1q0.5 0.9 1 1.8 0.2 0.3 0.4 0.6-0.2-0.3-0.4-0.6-0.5-0.9-1-1.9z"/>
	<path id="Layer" fill-rule="evenodd" class="s60" d="m38.6 66.6q-0.3 3.5-0.2 7.1c0.1 5.6 1.2 11.1 3.6 15.9q0.5 0.9 1 1.8 0.2 0.3 0.4 0.6 0.1 0.2 0.2 0.4 0.9 1.5 1.5 2.7 0.2 0.2 0.3 0.5 0.1 0.2 0.2 0.3 0.7 1.3 1.1 2.1c0.4 0.9 0.6 1.4 0.8 1.9q0.1 0.3 0.1 0.5-0.2-0.1-0.4-0.1-0.7-0.2-1.2-0.2h-0.1c-14.2-12.2-10.3-31.1-9.4-34.6 1.1-4.1 0.7-6.3 0.7-6.3-0.1 7.2-2.3 4.5-2.5 17.4-0.2 11.9 8.9 22 10.4 23.6q-0.4 0-0.7 0.1c-0.5 0.1-0.9 0.3-1.2 0.3h-0.1c-2.3-1.5-11-7.5-12-17.9-1.1-12 2.2-15.5 3.6-18.5 1.4-3.1 2.3-6.5 1.7-8.2q-0.1-0.4 0-0.4c0.5 0 3 3.7 2.2 11zm3 24.1c-3.2-6.3-5.1-14.5-3.7-22.4 0.6-3.6 0.3-6.1-0.1-7.6-0.4 4.6-3.9 16.8-0.2 25.3 2.7 6.5 6.5 10.8 7.7 12.7-0.2-0.8-0.9-2.8-3.7-8zm-7-21.4c0 0 1.1-4 1.7-6.7-0.4 1-1 2.2-1.5 3.6-1 2.8-3.4 5.9-2.3 16.8 1.1 10.9 9.8 16.3 9.8 16.3 0.2 0 0.9 0.1 1.6 0.1-1.9-1.7-12.8-12.9-9.3-30.1z"/>
	<path id="Layer" class="s61" d="m37.2 59.2c-0.1 7.2-2.3 4.5-2.5 17.4-0.2 11.9 8.9 22 10.4 23.6q0.4-0.1 0.8-0.1c-14.2-12.2-10.3-31.1-9.4-34.6 1.1-4.1 0.7-6.3 0.7-6.3z"/>
	<path id="Layer" class="s62" d="m67.4 76.6c0 0 1.6 0.5 2.7 2.3 1 1.7 6.2 4.1 8.4 1.7 0.8-0.8 0.6-0.7 0-0.5-1.1 0.3-3.6 0.7-3.9-5.4 0 0-1-1.9-4.1-0.8-3.1 1.1-3.6 2.3-3.1 2.7z"/>
	<path id="Layer" class="s63" d="m72.7 74.2q-0.5 0-1.1 0.2c1 6.4 5.1 6.5 5.1 6.5q-0.2 0-0.4 0c-4.1 0-5.1-5.3-5.3-6.3q-1.1 0.5-2.2 1.3h0.2c0.5 0 1.4 0.4 2.7 2.5 1.2 2.1 3.5 2.6 4.9 2.6 1.1 0 1.5-0.4 0.1-0.5-3.2-0.3-3.8-5.5-3.8-5.5q0-0.5-0.2-0.8z"/>
	<path id="Layer" class="s64" d="m71.6 74.4q-0.3 0.1-0.6 0.2c0.2 1 1.2 6.3 5.3 6.3q0.2 0 0.4 0c0 0-4.1-0.1-5.1-6.5z"/>
	<path id="Layer" class="s56" d="m51.1 101.2c0 0-0.2-2.6 3.6-8.4 3.8-5.7 14.5-21.5 19.9-18.1 0 0 0-2-2.2-2.4-2.3-0.4-2.7-0.5-3.7-1.3-1-0.8-4.2-3-11.3 4.9-7.1 7.9-9.8 22.2-8.6 25.2 0 0 1.8 1.5 2.3 0.1z"/>
	<path id="Layer" class="s57" d="m66.2 70.1c-1.9 0-4.7 1.2-8.9 5.8-4.2 4.7-6.9 11.7-8.1 17.2v0.2c1.2-5.6 3.9-12.6 8.2-17.4 4.1-4.6 7-5.8 8.8-5.8z"/>
	<path id="Layer" class="s65" d="m49.2 93.1v0.2z"/>
	<path id="Layer" class="s59" d="m49.2 93.1q-0.1 0.6-0.2 1.2v0.2q0.1-0.6 0.2-1.2z"/>
	<path id="Layer" class="s66" d="m72.9 74.2q0.9 0 1.6 0.5v-0.1q-0.7-0.4-1.6-0.4z"/>
	<path id="Layer" fill-rule="evenodd" class="s60" d="m68.7 71c0.9 0.8 1.4 0.9 3.6 1.3 2.1 0.4 2.2 2 2.2 2.3q-0.7-0.4-1.6-0.4c-5.7 0-14.8 13.4-18.2 18.6-3.3 4.9-3.6 7.6-3.7 8.3l-0.1 0.1q-0.3 0.1-0.5 0.1c-0.4 0-1-0.3-1.8-0.6-0.3-1.1-0.1-3.4 0.4-6.2q0.1-0.6 0.2-1.2c1.2-5.6 3.9-12.6 8.2-17.4 4.1-4.6 7-5.8 8.8-5.8 1.3 0 2.1 0.6 2.5 0.9zm-2.2 2.4c-14.8 8.3-17.2 27.1-17.2 27.1 0 0.2 0.1 0.2 0.2 0.2 0.1 0 0.2-0.1 0.2-0.1 3.4-17.2 12.2-24.5 16.8-27.2q1.4-0.8 2.9-1.4c0 0-1.1 0.3-2.9 1.4zm1.5-1.3c-0.2 0-0.1-0.1-0.6-0.5-0.3-0.2-0.8-0.6-1.6-0.6-1.4 0-3.8 1.1-8 5.7-6.4 7.2-9.5 19.8-8.6 22.3l0.1 0.1c0.6-3.5 4.5-21.6 18.7-27zm-17.1 27c0 0 0.3-2.4 3.8-7.6 3.1-4.8 11.1-18.2 16.2-18.2q0.7 0 1.4 0.4c0 0-0.8-0.9-2.7-1.3-0.9 0.6-15.6 7.1-19.1 27.1q0.2-0.1 0.4-0.4z"/>
	<path id="Layer" fill-rule="evenodd" class="s67" d="m49.7 100.6c0 0-0.1 0.1-0.2 0.1-0.1 0-0.2 0-0.2-0.2 0 0 2.4-18.8 17.2-27.1-4.6 2.7-13.4 10-16.8 27.2zm16.8-27.2c1.8-1.1 2.9-1.4 2.9-1.4q-1.5 0.6-2.9 1.4z"/>
</svg>