<svg version="1.2" xmlns="http://www.w3.org/2000/svg" viewBox="0 0 100 135" width="100" height="135">
	<title>flower_in_a_pot_08-svg</title>
	<style>
		.s0 { fill: #aa6b28 } 
		.s1 { fill: #2e1010 } 
		.s2 { fill: #f9a84c } 
		.s3 { fill: #7c4317 } 
		.s4 { fill: #fab76a } 
		.s5 { fill: #de9342 } 
		.s6 { fill: #6f3b14 } 
		.s7 { fill: #f9a72b } 
		.s8 { fill: #c7883c } 
		.s9 { fill: #584521 } 
		.s10 { fill: #403215 } 
		.s11 { fill: #6c562b } 
		.s12 { fill: #775e30 } 
		.s13 { fill: #d09c5d } 
		.s14 { fill: #7c6232 } 
		.s15 { fill: #463618 } 
		.s16 { fill: #de9225 } 
		.s17 { fill: #54401d } 
		.s18 { fill: #3d2e12 } 
		.s19 { fill: #654e21 } 
		.s20 { fill: #fab64f } 
		.s21 { fill: #3c2c13 } 
		.s22 { fill: #875723 } 
		.s23 { fill: #2b200c } 
		.s24 { fill: #493719 } 
		.s25 { fill: #543f1c } 
		.s26 { fill: #2f230e } 
		.s27 { fill: #392911 } 
		.s28 { fill: #291d0a } 
		.s29 { fill: #453213 } 
		.s30 { fill: #096c37 } 
		.s31 { fill: #84b59b } 
		.s32 { fill: #044d21 } 
		.s33 { fill: #038b3e } 
		.s34 { fill: #81c59e } 
		.s35 { fill: #016b26 } 
		.s36 { fill: #0ea34a } 
		.s37 { fill: #86d1a4 } 
		.s38 { fill: #045823 } 
		.s39 { fill: #07852f } 
		.s40 { fill: #005718 } 
	</style>
	<path id="Layer" class="s0" d="m70.8 106.8l-3.1 22.8c-0.1 3-6.9 5.4-15.2 5.3-8.4-0.1-15.1-2.7-15.1-5.8l-3.6-24.3z"/>
	<path id="Layer" class="s1" d="m70.8 106.8l-0.1-0.1-3.1 22.8c0 1.5-1.6 2.8-4.2 3.8-2.7 0.9-6.3 1.5-10.3 1.5q-0.3 0-0.6 0c-4.2-0.1-7.9-0.7-10.7-1.8-2.7-1-4.3-2.4-4.3-3.9l-3.6-24.2 36.9 1.9v-0.1l-37-2-0.1 0.1 3.6 24.3h0.1-0.1c0 1.6 1.8 3.1 4.5 4.1 2.7 1.1 6.5 1.7 10.7 1.8q0.3 0 0.6 0c4 0 7.7-0.6 10.3-1.6 2.7-0.9 4.3-2.3 4.4-3.8h-0.1 0.1l3.1-22.8-0.1-0.1z"/>
	<path id="Layer" class="s2" d="m70.8 106.8l-3.1 22.8c-0.1 3-6.9 5.4-15.2 5.3-8.4-0.1-15.1-2.7-15.1-5.8l-3.6-24.3z"/>
	<path id="Layer" class="s3" d="m70.8 106.8l-0.1-0.1-3.1 22.8c0 1.5-1.6 2.8-4.2 3.8-2.7 0.9-6.3 1.5-10.3 1.5q-0.3 0-0.6 0c-4.2-0.1-7.9-0.7-10.7-1.8-2.7-1-4.3-2.4-4.3-3.9l-3.6-24.2 36.9 1.9v-0.1l-37-2-0.1 0.1 3.6 24.3h0.1-0.1c0 1.6 1.8 3.1 4.5 4.1 2.7 1.1 6.5 1.7 10.7 1.8q0.3 0 0.6 0c4 0 7.7-0.6 10.3-1.6 2.7-0.9 4.3-2.3 4.4-3.8h-0.1 0.1l3.1-22.8-0.1-0.1z"/>
	<path id="Layer" class="s4" d="m37.9 111.2l2.3 16c0 0 1 5 7.2 6.4q1 0.2 2.1 0.2c5.3 0 9.7-4.4 10.1-9.5 0.4-6.2 0.4-11.4 0.4-11.4 0 0-3.7 0.6-8.5 0.6-4.3 0-9.4-0.5-13.6-2.3z"/>
	<path id="Layer" class="s5" d="m70.5 108.3c-1.1 0.9-2.6 1.7-4.4 2.4-1.5 0.6-3.3 1.1-5.2 1.4q0.7 0.1 1.9 0.1c1 0 2.3 0 3.7-0.3 0 0 0.1-0.1 0.3-0.1 0.2 0 0.5 0.3 0.5 1.6 0 2.2-2 15.5-2 15.5 0 0-0.4 3.4-5.2 4.7-1.6 0.4-4.2 0.7-7.1 0.7-5.7 0-12.6-1.3-15.6-5.9l0.1 0.7c0 1.5 1.6 2.9 4.3 3.9 2.8 1.1 6.5 1.7 10.7 1.8q0.3 0 0.6 0c4 0 7.6-0.6 10.3-1.5 2.6-1 4.2-2.3 4.2-3.7v-0.1z"/>
	<path id="Layer" class="s6" d="m70.6 108.2q-0.1 0-0.1 0.1l-2.9 21.2v0.1c0 1.4-1.6 2.7-4.2 3.7-2.7 0.9-6.3 1.5-10.3 1.5q-0.3 0-0.6 0c-4.2-0.1-7.9-0.7-10.7-1.8-2.7-1-4.3-2.4-4.3-3.9l-0.1-0.7q-0.1-0.1-0.1-0.2l0.1 0.9c0 3.1 6.7 5.7 15.1 5.8q0.3 0 0.6 0c8.1 0 14.5-2.3 14.6-5.3z"/>
	<path id="Layer" class="s7" d="m33 100.5l3.5 0.1c3.6-2 9.4-3.3 16.1-3.3 7.3 0 13.8 1.6 17.1 4 1.4-0.4 2.8-0.8 2.8-0.8l-0.4 4.9c-0.5 4.1-9.1 7.4-19.5 7.4-10.6 0-19.3-3.4-19.6-7.5v-0.1-4.5z"/>
	<path id="Layer" class="s3" d="m33 100.5v0.1l3.5 0.1h0.1c3.5-2 9.3-3.3 16-3.3 7.3 0 13.8 1.6 17 4h0.1c1.4-0.4 2.8-0.9 2.8-0.9l-0.1-0.1-0.4 5h0.1v-0.1l-0.1 0.1c-0.3 2-2.5 3.8-6 5.1-3.5 1.4-8.2 2.2-13.4 2.2-5.3 0-10.1-0.9-13.6-2.2-3.5-1.4-5.7-3.2-5.9-5.2v-0.1-4.5h-0.1-0.1l0.1 0.1 0.1-0.1v-0.2h-0.1-0.1v0.2h0.1 0.1v-0.1h-0.1l-0.1 0.1v4.5 0.1h0.1-0.1c0.2 2.1 2.5 4 6 5.4 3.5 1.3 8.3 2.2 13.7 2.2 5.2 0 10-0.8 13.5-2.2 3.5-1.3 5.8-3.2 6.1-5.3h-0.1v0.1l0.1-0.1 0.4-4.9-0.1-0.1c-0.1 0-1.4 0.4-2.8 0.8v0.1h0.1c-3.4-2.5-9.8-4.1-17.2-4.1-6.7 0-12.5 1.3-16.1 3.3v0.1-0.1l-3.5-0.1h-0.1v0.1z"/>
	<path id="Layer" class="s2" d="m33 100.5c0 4.3 8.8 7.8 19.7 7.8 10.9 0 19.8-3.5 19.8-7.8 0-4.3-8.9-7.8-19.8-7.8-10.9 0-19.7 3.5-19.7 7.8z"/>
	<path id="Layer" class="s3" d="m33 100.5h-0.1c0 2.2 2.2 4.2 5.8 5.6 3.6 1.4 8.6 2.3 14 2.3 5.5 0 10.4-0.9 14-2.3 3.6-1.4 5.9-3.4 5.9-5.6 0-2.3-2.3-4.2-5.9-5.6-3.6-1.4-8.5-2.3-14-2.3-5.4 0-10.4 0.9-14 2.3-3.6 1.4-5.8 3.3-5.8 5.6h0.1 0.1c0-2.1 2.1-4 5.7-5.4 3.6-1.4 8.5-2.3 13.9-2.3 5.5 0 10.4 0.9 14 2.3 3.5 1.4 5.7 3.3 5.7 5.4 0 2-2.2 4-5.7 5.4-3.6 1.4-8.5 2.3-14 2.3-5.4 0-10.3-0.9-13.9-2.3-3.6-1.4-5.7-3.4-5.7-5.4z"/>
	<path id="Layer" class="s8" d="m33.6 100.3c0 3.9 8.5 7.1 19.1 7.1 10.5 0 19.1-3.2 19.1-7.1 0-3.9-8.6-7-19.1-7-10.6 0-19.1 3.1-19.1 7z"/>
	<path id="Layer" class="s3" d="m33.6 100.3h-0.1c0 2 2.2 3.8 5.7 5.1 3.4 1.3 8.2 2.1 13.5 2.1 5.3 0 10-0.8 13.5-2.1 3.5-1.3 5.7-3.1 5.7-5.1 0-2-2.2-3.8-5.7-5-3.5-1.3-8.2-2.1-13.5-2.1-5.3 0-10.1 0.8-13.5 2.1-3.5 1.2-5.7 3-5.7 5h0.1 0.1c0-1.8 2.1-3.6 5.5-4.9 3.5-1.2 8.2-2 13.5-2 5.2 0 10 0.8 13.4 2 3.5 1.3 5.6 3.1 5.6 4.9 0 1.9-2.1 3.6-5.6 4.9-3.4 1.3-8.2 2.1-13.4 2.1-5.3 0-10-0.8-13.5-2.1-3.4-1.3-5.5-3-5.5-4.9z"/>
	<path id="Layer" class="s9" d="m65 99.3c0 0 0.3-0.9-2.8-2-3-1.1-3.8 0.8-3.8 0.8 0 0 0.1-0.8-1.5-1.9-1.7-1-4.1 0.7-4.1 0.7-2.7-1.3-4.7 1.5-4.7 1.5-2.5-2.4-6.6 0-6.6 0-4.3-1-5.3 2.5-5.3 2.5-1.1-0.1-1.8 0.3-2.4 0.8 2.1 3 9.5 5.4 18.3 5.7 9.6 0.2 17.6-2.2 19-5.6-1-1.1-3-1.4-3-1.4-1-1.4-3.1-1.1-3.1-1.1z"/>
	<path id="Layer" class="s10" d="m65 99.3c0.3-1-2.2-1.8-2.7-2.1-1.2-0.4-3.1-0.6-3.8 0.7-0.1 0.2-0.1 0.2-0.1 0.1 0.1 0 0.1 0 0.1 0.1 0-0.3-0.1-0.6-0.3-0.8-0.5-0.8-1.3-1.2-2.2-1.4-0.7-0.2-1.6 0.1-2.2 0.4q-0.6 0.2-1 0.5c0.1-0.1-1.2-0.3-1.1-0.3-0.9 0-1.7 0.2-2.5 0.7-0.4 0.3-0.7 0.6-1 0.9-0.3 0.4-0.4-0.1-0.9-0.3-1.8-0.9-3.7-0.5-5.4 0.3-0.5 0.2-0.9 0.1-1.3 0.1q-0.4-0.1-0.8 0c-1 0.1-1.8 0.3-2.5 0.9-0.5 0.4-0.9 1-1.1 1.6-0.1 0.2-2 0.6-2.5 0.9v0.1c1.6 2.1 4.3 3.1 6.7 3.9 3.8 1.2 7.8 1.7 11.8 1.8 4.1 0.1 8.3-0.3 12.3-1.4 2.4-0.6 5.5-1.7 6.7-4.2-1-0.9-2.4-1-3.3-1.8-0.9-0.6-1.9-0.9-3-0.8-0.1 0 0.1 0.1 0.1 0.1 1.2-0.1 2.2 0.9 3.3 1.2 1.1 0.2 3.2 0.8 2.3 2-0.3 0.5-0.8 0.9-1.2 1.2-3 2.3-7.4 3-11 3.4-5 0.5-10.2 0.2-15.1-0.8-2.1-0.4-4.2-1.1-6.2-2.1q-1.1-0.5-2.1-1.3-0.4-0.3-0.7-0.7c-1-1 1.8-1.3 1.9-1.3h0.1c0.7-2.2 3-2.9 5.2-2.5 0.2 0 0.6-0.3 0.8-0.4 1.8-0.8 4.1-1 5.7 0.4h0.2q0.4-0.5 0.9-0.9c1.2-1.1 1.9-0.6 3.7-0.6 0.3 0 0.8-0.4 1.1-0.6 1.4-0.6 4.5-0.1 4.5 1.8h0.1c0.3-0.6 1-1 1.7-1.1-0.5 0.1 5.1 0.6 4.7 2.3z"/>
	<path id="Layer" class="s11" d="m41.7 99c0 0-3.4-0.6-4.1 1.2-0.6 1.8-2.8 0.8-1.4 2.4 1.4 1.6 3.6 1.6 4.6 0.8 1-0.8 1.3-2 3.3-1.9 2 0.2 0.7-1.4-0.4-1.4-1.2 0 1-1.5 1.9-1.6 1-0.1-2-1.1-3.9 0.5z"/>
	<path id="Layer" class="s11" d="m50.2 100.8c0 0-0.7-0.9-3-1-2.4 0-1 0.9-1.1 1.3-0.2 0.5 1.4 1.3 1.4 1.3 0 0 0.6-1.5 2.7-1.6z"/>
	<path id="Layer" class="s11" d="m49.2 98.7c-0.2 0 1.4-1.8 3.1-1.3 0.8 0.3 1.5 0.1 2.2-0.1 0.8-0.2 1.6-0.4 2.3 0.1 1.4 1 0.8 1.8 0.8 1.8 0 0-4.3 0-4.7 1.9 0 0-1.3-2.3-3.7-2.4z"/>
	<path id="Layer" class="s11" d="m60.5 100.8c0 0-0.4-0.1-0.9-0.1-1.4-0.2-4-0.4-4.9 0.9 0 0-0.6 0.4 0.5 1.2 1 0.9 1.7 1.1 1.7 2.1 0 0 1.3-2.9 6.7-1.6 5.3 1.3 5.9-1 4.8-1.7-1.1-0.6-3.2 0.3-3.2 0.3 0 0-0.8-2-4.7-1.1z"/>
	<path id="Layer" class="s12" d="m63.6 99.1c0 0-1.1-1.4-2.7-1.1-1.6 0.3 3.2 2.5 2.7 1.1z"/>
	<path id="Layer" class="s11" d="m54.2 104.3c0 0-1.8-1.3-4-0.7 0 0-0.2 2.3-0.8 2.2-0.5 0-1.3-3.2-4.1-3-2.7 0.3-4 1.4-2.8 2.3 1.1 1 6.5 2.1 9.8 1.8 3.3-0.2 2.7-1.7 1.9-2.6z"/>
	<path id="Layer" class="s11" d="m61.4 104.3c0 0-2.3-0.3-3.3 1.1-1 1.3 3.7 1 5.4 0.3 1.7-0.8-1.8-1.4-2.1-1.4z"/>
	<path id="Layer" class="s13" d="m53.8 93.9c-8.6 0-14.9 2.3-14.9 2.3-1.3 0.7-0.1 1.6 1.6 1.6 0.8 0 1.6-0.2 2.5-0.6 0.7-0.4 1.3-0.6 1.9-0.6 0.6 0 1.1 0.2 1.6 0.3 0.5 0.1 0.9 0.3 1.3 0.3 0.3 0 0.6-0.1 0.8-0.4 0.5-0.7 1.4-0.8 2.2-0.8 0.9 0 1.7 0.2 1.7 0.2 0 0 0.2-0.8 2.7-0.8q0.2 0 0.4 0c2.9 0.1 3.3 1.4 3.3 1.4 0.2-0.8 2.2-0.8 2.6-1.6 0.3-0.7-0.9-0.8-0.9-0.8-2.4-0.4-4.7-0.5-6.8-0.5z"/>
	<path id="Layer" class="s14" d="m41.8 99.7c-0.1-0.2-1-0.7-2.7-0.1-1.7 0.7-0.8 1.5 0.5 1.3 1.3-0.2 2.4-0.7 2.2-1.2z"/>
	<path id="Layer" class="s14" d="m48.3 100.2c0 0-1.1-0.2-0.9 0.3 0.2 0.4 2.1-0.1 0.9-0.3z"/>
	<path id="Layer" class="s14" d="m57.2 98.7c0 0-0.5-1.5-1.9-1.2-1.5 0.2 1.8 2 1.9 1.2z"/>
	<path id="Layer" class="s14" d="m64.6 101.9c0 0-2.7-1.5-2.7-0.1 0 1.4 3.8 1.1 2.7 0.1z"/>
	<path id="Layer" class="s15" d="m57.2 106q-0.1 0-0.2 0 0.1 0 0.1 0 0 0 0.1 0 0 0 0 0z"/>
	<path id="Layer" class="s16" d="m71.8 103.4c-1 4.3-9 7.8-9 7.8 0 0 4.6-1.5 6.4-2.6 1.8-1.1 2.4-3.1 2.4-3.1z"/>
	<path id="Layer" class="s9" d="m40.7 100.2c0 0-1.3-1.2-2.6 0.1-1.4 1.3-0.7 2.5 0.7 2.4 1.5-0.2 3.3-1.4 1.9-2.5z"/>
	<path id="Layer" class="s10" d="m40.8 100.2c-0.6-0.5-1.3-0.6-1.9-0.4-0.9 0.2-2.2 1.6-1.4 2.5 0.6 0.7 1.9 0.4 2.6 0 0.5-0.2 0.9-0.5 1.1-0.9 0.2-0.5-0.1-0.9-0.4-1.2h-0.2c0.8 0.7 0.5 1.4-0.3 1.9-0.7 0.5-2.2 0.9-2.8 0-0.5-0.8 0.7-1.9 1.3-2.2 0.6-0.3 1.3-0.1 1.8 0.3z"/>
	<path id="Layer" class="s17" d="m41 100.7q-0.1 0.1-0.2 0.3 0.1 0 0.2 0.1 0.1-0.2 0-0.4z"/>
	<path id="Layer" class="s18" d="m41 100.5q0 0 0 0.2 0.1 0.2 0 0.4 0.1 0 0.2 0 0-0.3-0.2-0.6z"/>
	<path id="Layer" class="s17" d="m37.4 101.6q0 0.3 0.1 0.5c0.3 0.4 0.7 0.5 1.1 0.5 0.4 0 0.8-0.1 1.2-0.2-0.2-0.2-0.1-0.5 0-0.7q-0.1 0-0.2 0c0 0-0.7 0.3-1.2 0.3q-0.2 0-0.4 0c-0.4-0.2-0.5-0.3-0.6-0.4z"/>
	<path id="Layer" class="s18" d="m37.6 100.9c-0.6 1-0.1 1.8 1 1.8q0.1 0 0.2 0 0.5-0.1 1-0.3 0 0 0 0c-0.4 0.1-0.8 0.2-1.2 0.2-0.4 0-0.8-0.1-1.1-0.5q-0.1-0.2-0.1-0.5-0.1-0.2 0.2-0.6z"/>
	<path id="Layer" class="s19" d="m39.5 100c-0.8 0-1.4 0.8-1.4 0.8q-0.2 0.3-0.2 0.4c0 0.1 0.1 0.2 0.3 0.2 0.3 0 0.7-0.2 0.9-0.3 0.3-0.2 1.2-0.5 1.2-0.7q0-0.2-0.3-0.3-0.3-0.1-0.5-0.1z"/>
	<path id="Layer" class="s9" d="m41.3 101.3c0 0-0.6-0.6-1.2 0.1-0.6 0.7-0.3 1.3 0.4 1.2 0.7 0 1.5-0.7 0.8-1.3z"/>
	<path id="Layer" class="s10" d="m41.4 101.3c-0.2-0.2-0.6-0.3-0.9-0.2-0.5 0.1-1.1 0.9-0.7 1.4 0.6 0.7 2.5-0.3 1.6-1.2h-0.2c0.9 0.8-0.8 1.8-1.3 1-0.2-0.3 0.2-0.8 0.5-1.1 0.2-0.2 0.6-0.1 0.8 0.1z"/>
	<path id="Layer" class="s9" d="m66.2 102.4c0 0-1.2-1.1-2.6 0.2-1.4 1.3-0.7 2.4 0.8 2.3 1.4-0.2 3.2-1.4 1.8-2.5z"/>
	<path id="Layer" class="s10" d="m66.3 102.4c-0.5-0.4-1.2-0.6-1.8-0.5-0.9 0.2-2.3 1.6-1.5 2.6 0.6 0.7 1.9 0.4 2.7 0.1 0.4-0.2 0.9-0.5 1.1-1 0.2-0.5-0.2-0.9-0.5-1.2-0.1 0-0.2-0.1-0.2 0 1.9 1.6-2.3 3.4-3.1 1.9-0.4-0.8 0.6-1.8 1.3-2.1 0.5-0.4 1.3-0.2 1.8 0.2 0.1 0 0.2 0.1 0.2 0z"/>
	<path id="Layer" class="s17" d="m66.5 102.9c-0.1 0.2-0.4 0.8-1.4 1 0 0-0.6 0.4-1.2 0.4q-0.1 0-0.1 0-0.3 0-0.7 0.1c0.3 0.3 0.6 0.5 1.1 0.5 1.2 0 2.8-1 2.3-2z"/>
	<path id="Layer" class="s18" d="m66.5 102.7q0 0 0 0.2c0.5 1-1.1 2-2.3 2-0.5 0-0.8-0.2-1.1-0.5q0 0.1 0 0.1c0.2 0.2 0.6 0.4 1 0.4q0.1 0 0.3 0c1.3-0.2 2.9-1.1 2.1-2.2z"/>
	<path id="Layer" class="s19" d="m65.1 102.2q-0.2 0-0.4 0.1c0.3 0.2 0.5 0.4 0.3 0.8q0 0 0 0c0.3-0.1 0.8-0.3 0.8-0.5q0-0.2-0.3-0.3-0.2-0.1-0.4-0.1z"/>
	<path id="Layer" class="s9" d="m66.9 103.5c0 0-0.7-0.6-1.3 0.1-0.6 0.7-0.2 1.3 0.4 1.3 0.7-0.1 1.6-0.8 0.9-1.4z"/>
	<path id="Layer" class="s10" d="m66.9 103.5c-0.2-0.2-0.6-0.3-0.8-0.2-0.5 0.1-1.2 0.9-0.8 1.3 0.7 0.8 2.6-0.2 1.6-1.1h-0.1c0.8 0.8-0.9 1.8-1.4 1.1-0.1-0.3 0.1-0.7 0.3-1 0.3-0.3 0.8-0.4 1.1-0.1z"/>
	<path id="Layer" class="s20" d="m33.8 103.7c0 0 0 2 0.2 2.4 0.2 0.5 0.8 1.3 0.8 1.3 5 3.8 12.9 4.5 18.4 4.5 3.5 0 6.1-0.3 6.4-0.3 0.7 0 0.4-3 0.4-3q-4.2 0.4-7.7 0.4c-15 0-18.5-5.3-18.5-5.3z"/>
	<path id="Layer" fill-rule="evenodd" class="s21" d="m49.2 98.7c2.4 0.1 3.7 2.4 3.7 2.4 0.4-1.8 4.3-1.9 4.6-1.9q0.1 0 0.1 0c0 0 0.1-0.1 0.1-0.3q0.1 0.2 0.2 0.3c0.2 0.7 2.2 1 3.4 1.4q-0.4 0.1-0.8 0.2c-0.1 0-0.4-0.1-0.9-0.1-0.4-0.1-1-0.2-1.7-0.2-1.2 0-2.6 0.3-3.2 1.1 0 0-0.6 0.4 0.5 1.2 1 0.9 1.7 1.1 1.7 2.1 0 0 0.9-2 4.2-2q0.8 0 1.9 0.2-0.1 0.2-0.1 0.3-0.7-0.1-1.5-0.1-0.7 0-1.4 0.1c-2.8 0.5-3.6 2.5-3 2.6-0.7 0.1-1.4 0.3-2 0.4q-0.7 0.2-1.3 0.3c1.7-0.5 1.2-1.6 0.5-2.4 0 0-1.2-0.9-2.8-0.9q-0.6 0-1.2 0.2c0 0-0.2 2.2-0.7 2.2q-0.1 0-0.1 0c-0.5 0-1.3-3-3.8-3q-0.1 0-0.3 0c-2.5 0.3-3.8 1.3-3.1 2.1-0.3-0.2-0.7-0.4-1.3-0.7q-0.4-0.2-0.7-0.5 0.3-0.1 0.6-0.3c0.9-0.8 1.3-1.9 3-1.9q0.1 0 0.3 0 0.2 0 0.3 0c1.6 0 0.4-1.4-0.7-1.4-0.5 0-0.4-0.3 0.1-0.7 1.1-0.4 2.6-0.9 4-1.2q0.1 0.1 0.2 0.2h0.2q0.1-0.1 0.3-0.3 0.7-0.1 1.4-0.1c-0.5 0.3-0.8 0.7-0.7 0.7zm-1.9 3.9c-0.2-0.1-1.1-0.7-2.2-0.7-0.8 0-1.7 0.3-2.6 1.2-0.8 0.5-1 1.3-1 1.3q0.5-0.8 1-1.3c0.5-0.4 1.3-0.7 2.4-0.7q0.7 0 1.6 0.2c0 0 2.7 1.1 3 2.9 0 0 0.4-1.8-0.6-2.1-0.5-0.1 0.5-0.4 1.8-0.4 1.4 0 3.2 0.3 4.4 1.3 0.6 0.5 0.9 0.7 1.1 0.7 0.5 0-0.7-2-2.4-2.5 0 0 0.8-1.8 2.9-2.1 0.9-0.2 0.7-0.3 0.1-0.3-0.9 0-3.1 0.4-3.8 1.8 0 0-1.9-3-5.5-3q-0.2 0-0.5 0c0 0 3.8 1.2 4 2.1 0.2 0.9-2.4 0.5-3 1.4 0 0-0.3 0.2-0.5 0.2q-0.1 0-0.2 0zm2.9-1.8c0 0-0.7-0.9-3-1q-0.1 0-0.2 0c-2.1 0-0.8 0.9-0.9 1.3-0.2 0.5 1.4 1.3 1.4 1.3 0 0 0.6-1.5 2.7-1.6z"/>
	<path id="Layer" class="s22" d="m48.2 98.1q-0.2 0.1-0.3 0.1 0 0 0 0 0 0 0.1 0 0.1 0 0.2-0.1z"/>
	<path id="Layer" class="s21" d="m44.5 106q0.1 0 0.1 0.1c0.7 0.2 1.5 0.4 2.4 0.5-0.9-0.2-1.8-0.4-2.5-0.6zm3.4-7.8q0 0 0 0 0 0 0 0z"/>
	<path id="Layer" class="s23" d="m48.5 98.1q-0.2 0-0.3 0-0.1 0.1-0.2 0.1-0.1 0-0.1 0 0 0 0 0-0.1 0-0.1 0 0.1 0.1 0.2 0.2h0.2q0.1-0.1 0.3-0.3z"/>
	<path id="Layer" class="s24" d="m43.8 99.4q-0.5 0.2-0.9 0.3c-1.8 0.6 0 1-1.4 1.8 0.5 0.6-0.4 1.2-1.1 1.2q-0.3 0-0.5-0.2-0.4 0.7 0.3 1.2 0.3-0.1 0.6-0.3c0.9-0.8 1.3-1.9 3-1.9q0.1 0 0.3 0 0.2 0 0.3 0c1.6 0 0.4-1.4-0.7-1.4-0.6 0-0.4-0.3 0.1-0.7z"/>
	<path id="Layer" fill-rule="evenodd" class="s24" d="m47.2 99.8c2.3 0.1 3 1 3 1-2.1 0.1-2.7 1.6-2.7 1.6 0 0-1.6-0.8-1.4-1.3 0.1-0.4-1.2-1.3 0.9-1.3q0.1 0 0.2 0zm1.1 0.4c0 0-0.2 0-0.5 0-0.3 0-0.5 0-0.4 0.3 0 0.1 0.3 0.1 0.5 0.1 0.6 0 1.3-0.2 0.4-0.4z"/>
	<path id="Layer" class="s24" d="m49.9 98q0 0 0 0c-0.5 0.3-0.8 0.7-0.7 0.7 2.4 0.1 3.7 2.4 3.7 2.4 0.4-1.8 4.3-1.9 4.6-1.9q0.1 0 0.1 0c0 0 0-0.1 0.1-0.3q-0.2-0.1-0.5-0.2-0.1 0.2-0.3 0.2c-0.2 0-0.5-0.1-0.8-0.2-0.4 0-0.7 0.1-0.7 0.1-1-0.4-1.9 0.1-4.1-0.6q-0.7-0.2-1.4-0.2z"/>
	<path id="Layer" class="s24" d="m57.9 100.5c-1.2 0-2.6 0.3-3.2 1.1 0 0-0.6 0.4 0.5 1.2 1 0.9 1.7 1.1 1.7 2.1 0 0 0.9-2 4.2-2q0.8 0 1.9 0.2 0.1-0.2 0.3-0.4c-0.7 0-1.4-0.3-1.4-0.9 0-0.4 0.2-0.5 0.4-0.6 0-0.2-0.4-0.4-1-0.6q-0.4 0.1-0.8 0.2c-0.1 0-0.4-0.1-0.9-0.1-0.4-0.1-1-0.2-1.7-0.2z"/>
	<path id="Layer" class="s24" d="m45.6 102.8q-0.1 0-0.3 0c-2.5 0.3-3.8 1.3-3.1 2.1 0.6 0.3 1.2 0.6 2.3 1.1 0.7 0.2 1.6 0.4 2.5 0.6 1.7 0.1 3.7-0.1 4.8 0.2q0.3 0 0.7 0 0.6 0 1.2-0.1c1.7-0.5 1.2-1.6 0.5-2.4 0 0-1.2-0.9-2.8-0.9q-0.6 0-1.2 0.2c0 0-0.2 2.2-0.7 2.2q-0.1 0-0.1 0c-0.5 0-1.3-3-3.8-3z"/>
	<path id="Layer" class="s25" d="m47.8 100.2c-0.3 0-0.5 0-0.4 0.3 0 0.1 0.3 0.1 0.5 0.1 0.6 0 1.3-0.2 0.4-0.4 0 0-0.2 0-0.5 0z"/>
	<path id="Layer" class="s25" d="m56.6 98.6q-0.3 0-0.5 0.1c0.3 0.1 0.6 0.2 0.8 0.2q0.2 0 0.3-0.2-0.3-0.1-0.6-0.1z"/>
	<path id="Layer" class="s25" d="m62.3 101.2c-0.2 0.1-0.4 0.2-0.4 0.6 0 0.6 0.7 0.9 1.4 0.9q0.3-0.4 0.8-0.6c-0.8-0.2-1.9-0.3-1.8-0.8q0 0 0-0.1z"/>
	<path id="Layer" fill-rule="evenodd" class="s26" d="m42.5 103.1c-0.8 0.5-1 1.3-1 1.3q0.5-0.8 1-1.3zm5-4.2q-0.2 0-0.5 0c0 0 3.8 1.2 4 2.1 0.2 0.9-2.4 0.5-3 1.4 0 0-0.3 0.2-0.5 0.2q-0.1 0-0.2 0c-0.2-0.1-1.1-0.7-2.2-0.7-0.8 0-1.7 0.3-2.6 1.2 0.5-0.4 1.3-0.7 2.4-0.7q0.7 0 1.6 0.2c0 0 2.7 1.1 3 2.9 0 0 0.4-1.8-0.6-2.1-0.5-0.1 0.5-0.4 1.8-0.4 1.4 0 3.2 0.3 4.4 1.3 0.6 0.5 0.9 0.7 1.1 0.7 0.5 0-0.7-2-2.4-2.5 0 0 0.8-1.8 2.9-2.1 0.9-0.2 0.7-0.3 0.1-0.3-0.9 0-3.1 0.4-3.8 1.8 0 0-1.9-3-5.5-3zm5.5 3q0 0 0 0z"/>
	<path id="Layer" class="s21" d="m61.9 103.9c-3.4 0-4.5 1.9-4.7 2.1q0.3 0 0.7 0 0.1 0 0.2 0 0 0 0 0c-0.2-0.2-0.2-0.4 0-0.6 0.7-1 2.1-1.1 2.8-1.1 0.3 0 0.5 0 0.5 0 0.1 0 0.8 0.1 1.4 0.2q0.1 0 0.2 0-0.2-0.3-0.2-0.5-0.5-0.1-0.9-0.1z"/>
	<path id="Layer" class="s24" d="m60.9 104.3c-0.7 0-2.1 0.1-2.8 1.1-0.2 0.2-0.2 0.4 0 0.6q0.1 0 0.2 0c2.3 0 2.4-0.9 4-1.3q0.3-0.1 0.5-0.2c-0.6-0.1-1.3-0.2-1.4-0.2 0 0-0.2 0-0.5 0z"/>
	<path id="Layer" class="s26" d="m61.4 103.3q-0.7 0-1.4 0.1c-2.8 0.5-3.6 2.5-3 2.6q0.1 0 0.2 0c0.2-0.2 1.3-2.1 4.7-2.1q0.4 0 0.9 0.1 0-0.3 0.1-0.6-0.7-0.1-1.5-0.1z"/>
	<path id="Layer" class="s21" d="m41.4 101.5q-0.1 0.1-0.2 0.1-0.9 0.4-1.2 0.8 0.2 0.2 0.4 0.2c0.6 0 1.3-0.5 1-1.1z"/>
	<path id="Layer" class="s23" d="m41.5 101.5q0 0-0.1 0c0.3 0.6-0.4 1.1-1 1.1q-0.2 0-0.4-0.2-0.1 0.1-0.1 0.1 0.2 0.2 0.5 0.2c0.7 0 1.6-0.6 1.1-1.2z"/>
	<path id="Layer" class="s21" d="m64.3 102.2q0 0 0 0c-0.5 0.3-1.3 0.9-1.4 1.6 0.1 0.1 0.3 0.2 0.6 0.4q0.1 0 0.3 0.1c0.5-0.2 0.8-0.5 1.2-1.2q-0.2 0.1-0.3 0.2c-0.2 0.1-0.7 0.3-1 0.3-0.1 0-0.2-0.1-0.2-0.2q0-0.1 0.1-0.3c0 0 0.5-0.6 1.1-0.8q-0.2-0.1-0.4-0.1z"/>
	<path id="Layer" class="s23" d="m64.1 102.1c-0.3 0.1-0.6 0.4-0.8 0.6q-0.2 0.2-0.3 0.4-0.1 0.2-0.1 0.3-0.1 0.3-0.1 0.6 0 0.2 0.2 0.5 0 0 0.1 0c-0.3-0.4-0.3-0.8 0-1.3q-0.2 0.4-0.2 0.6c0.1-0.7 0.9-1.3 1.4-1.6q0 0 0 0-0.1-0.1-0.2-0.1z"/>
	<path id="Layer" class="s27" d="m62.9 103.8q0 0.2 0.1 0.5 0.1 0.1 0.1 0.1 0.4-0.1 0.7-0.1-0.2-0.1-0.3-0.1c-0.3-0.2-0.5-0.3-0.6-0.4z"/>
	<path id="Layer" class="s28" d="m63.1 103.2c-0.3 0.5-0.3 0.9 0 1.3q0 0 0-0.1 0 0-0.1-0.1-0.1-0.3-0.1-0.5 0-0.2 0.2-0.6z"/>
	<path id="Layer" class="s29" d="m64.7 102.3c-0.6 0.2-1.1 0.8-1.1 0.8q-0.1 0.2-0.1 0.3c0 0.1 0.1 0.2 0.2 0.2 0.3 0 0.8-0.2 1-0.3q0.1-0.1 0.3-0.2 0 0 0 0c0.2-0.4 0-0.6-0.3-0.8z"/>
	<path id="Layer" class="s30" d="m49.5 41.7c0 0-3.2-18.8-20.8-23.2 0 0 12.3 8.3 12.7 27.2 0 0 4.5 28.4 8.1-4z"/>
	<path id="Layer" class="s31" d="m28.7 18.3q0 0 0.3 0.3 1.9 0.5 3.6 1.2-0.1-0.1-0.2-0.2-1.7-0.8-3.7-1.3z"/>
	<path id="Layer" class="s32" d="m29 18.6c1.7 1.3 10.8 8.8 12.2 23.9q1.2 1.7 2.3 3.8c-0.1-0.6-0.2-0.9-0.2-0.9-0.3-14.1-7.2-22.4-10.7-25.6q-1.7-0.7-3.6-1.2z"/>
	<path id="Layer" class="s33" d="m47 101.3c0 0-7.4 2-8.7-10.1-1.3-12-2-24.8-12.8-18 0 0 5.4-9.9 14.6-1.7 9.3 8.3 2.2 19.8 5.9 25 3.7 5.1 2 5 1 4.8z"/>
	<path id="Layer" class="s34" d="m28.7 69.7q-0.3 0.1-0.5 0.2c-1.7 1.5-2.7 3.2-2.7 3.2l0.2-0.1c0.3-0.5 1.3-2.1 3-3.3z"/>
	<path id="Layer" class="s35" d="m32 69q-1.5-0.1-3.3 0.7c-1.7 1.2-2.7 2.8-3 3.3 2.1-1.3 3.8-1.9 5.2-1.8 5.7 0.2 6.4 10.3 7.4 19.9 0.9 8.8 5.1 10.1 7.4 10.2 0.8 0 1.3-0.1 1.3-0.1q0.2 0 0.5 0c0.4 0 0.7-0.1 0.8-0.5-0.6-0.1-1.5-0.6-2.4-1.7-2.3-0.4-5.7-2.3-6.5-10.1-1.1-9.7-1.7-19.7-7.4-19.9z"/>
	<path id="Layer" class="s30" d="m48.7 100.8c0 0-4.7-0.2-5.5-10.9-0.8-10.7-3.3-35-21.8-26.8 0 0 15.1-15.7 24.4 5.1 0 0 5.3 34.3 2.9 32.6z"/>
	<path id="Layer" class="s31" d="m25.3 60q-0.2 0-0.4 0.1c-2.1 1.4-3.5 2.9-3.5 2.9q0.1-0.1 0.2-0.1c0.5-0.5 1.9-1.7 3.7-2.9z"/>
	<path id="Layer" class="s32" d="m29.8 59.4q-2-0.1-4.5 0.6c-1.8 1.2-3.2 2.4-3.7 2.9 2.7-1.2 5-1.7 7.1-1.6 11.9 0.4 13.8 19.3 14.5 28.5 0.7 9 4.1 10.6 5.2 10.8-0.4-0.4-0.7-1.6-0.9-3.2-1.3-1.4-2.7-4.1-3.1-9.6-0.7-9.1-2.7-28-14.6-28.4z"/>
	<path id="Layer" class="s33" d="m66.6 15.1c0 0-17.5 4.8-20.3 42.9 0 0-0.1 18 4.4 12.6 4.5-5.4 5.4-11.9 5.8-14.2 0.5-2.4-3.7-22.9 10.1-41.3z"/>
	<path id="Layer" class="s34" d="m56.3 45.8c-0.1 2.4 0 4.4 0.1 6.1-0.1-1.7-0.2-3.7-0.1-6.1zm10.3-30.8c0 0-1.4 0.4-3.5 1.8q-0.1 0.1-0.1 0.3c1.8-1.3 3.1-1.8 3.5-1.9z"/>
	<path id="Layer" class="s35" d="m66.5 15.2c-0.4 0.1-1.7 0.6-3.5 1.9-12 17.8-8.2 36.8-8.6 39.1q0 0.1-0.1 0.2 1-2.2 2.1-4.5c-0.1-1.7-0.2-3.7-0.1-6.1 0.2-8.1 2.1-19.7 10.2-30.6z"/>
	<path id="Layer" class="s30" d="m48.3 73.1c0 0 17.4-60.4 37.7-37.2 0 0-12.3-11.7-21 13.9-8.8 25.6-7.8 21.9-9.2 27.8-1.3 5.8-4.6 23.6-7.1 23.2-2.5-0.5-1.5-24.6-0.4-27.7z"/>
	<path id="Layer" class="s32" d="m48.2 98.3q-0.2 0.3-0.4 0.5c0.2 1.1 0.5 1.8 0.9 1.9-0.1-0.4-0.3-1.2-0.5-2.4zm29.9-66.8c-4.3-0.2-10 2.9-14.6 16.5-7.5 22-7.9 22.4-8.7 25.8 1.8-5.1 4.1-10.6 7.1-16.2q0.4-0.9 0.9-1.7 1-2.8 2.2-6.2c4.6-13.7 10.3-16.7 14.6-16.6 2.8 0.1 5 1.6 5.9 2.3q-1.3-1.5-2.6-2.4c-1.2-0.7-2.8-1.5-4.8-1.5z"/>
	<path id="Layer" class="s30" d="m83.8 62.6c0 0-6-16.2-18.4-2.4-12.3 13.8-17.2 39.7-16 40.2 1.1 0.6 11.1 2.5 13.5-3.7 2.4-6.2 4-48.5 20.9-34.1z"/>
	<path id="Layer" class="s31" d="m82.2 59.4q0.1 0.3 0.2 0.5c0.7 1.1 1.1 2.1 1.3 2.5l0.1 0.1c0 0-0.6-1.5-1.6-3.1z"/>
	<path id="Layer" class="s32" d="m67.6 72.8q-1.1 1.1-2.2 2.9-0.1 0.2-0.2 0.5c-1.7 7.9-2.5 15.9-3.5 18.3-0.9 2.6-3.2 3.8-5.7 4.2-1 1.4-2.1 2.2-3.5 2.1q-1.1 0-2.3-0.7-0.2 0.2-0.4 0.4c0.7 0.2 2.2 0.5 3.8 0.5 3.4 0.1 7.8-0.6 9.3-4.5 1.1-3 2.1-14.4 4.7-23.7zm8.8-15.3c-3.9-0.2-6.6 3.7-8.6 8.9q1.2-0.5 2.3-0.6c1.9-3.8 4.3-6.4 7.4-6.3 1.8 0.1 3.9 1 6.2 2.9-0.2-0.4-0.6-1.4-1.3-2.5 0.2 0.4 0.2 0.6 0.2 0.6-2.3-2-4.4-3-6.2-3z"/>
	<path id="Layer" class="s33" d="m85.4 54.7c0 0-11.9-19-23.5 2.9-11.7 22-13.4 42.5-13.2 43.2 0.1 0.7 2.5-1 5-5.4 2.5-4.3 10.6-56.7 31.7-40.7z"/>
	<path id="Layer" class="s34" d="m81.7 50.5c1.8 1.6 3 3.3 3.5 4l0.2 0.1c0 0-1.3-2-3.3-3.9q-0.2-0.1-0.4-0.2z"/>
	<path id="Layer" class="s35" d="m51.5 94.8q-0.9 1.4-1.7 2.2-0.5 2.1-1.1 3.7 0.1 0.1 0.2 0.1c0.2 0 0.7-0.2 1.2-0.7q-0.1-0.1-0.2-0.2 0 0 0-0.1c0 0 0.2-0.7 0.5-1.8h0.1c0.2-0.8 0.6-1.9 1-3.2zm25.5-45.7c-12.2-0.4-18.8 24-22.1 36.7 1.2-3.1 2.7-6.3 4.3-9.3 3.9-12 9.8-25.2 18.8-24.9 2.2 0 4.6 0.9 7.2 2.9-0.5-0.7-1.7-2.4-3.5-4-1.7-0.9-3.2-1.3-4.7-1.4z"/>
	<path id="Layer" class="s36" d="m48.7 100.8c0 0-3.6-18.6-3-25.8 0.6-7.2-6.5-49.7-32.7-26.6 0 0 5.3-19 21.2-12.2 15.8 6.8 20 50 14.5 64.6z"/>
	<path id="Layer" class="s37" d="m14.5 44.5c-1 2.1-1.5 3.8-1.5 3.8h0.1c0.1-0.5 0.5-1.8 1.3-3.4q0.1-0.2 0.1-0.4z"/>
	<path id="Layer" class="s38" d="m45.7 74.5q0 0.2 0 0.4 0 0.4 0 0.9 0-0.4 0-0.8 0-0.2 0-0.5z"/>
	<path id="Layer" class="s39" d="m28.8 38.3c-4-0.1-8.8 1.8-14.5 6.8q0 0 0.1-0.2c-0.8 1.6-1.2 2.9-1.3 3.4 5.6-5 10.4-7 14.4-6.8 14.1 0.5 18.5 26.6 18.2 33q0 0.3 0 0.5 0 0.4 0 0.8c-0.3 7.8 3 24.9 3 24.9q0.7-1.8 1.1-4.1c-0.7-3.8-3.3-18.6-2.8-24.9 0.5-5.6-3.8-32.9-18.2-33.4z"/>
	<path id="Layer" class="s36" d="m78.9 73.7c0 0-7.4-8.3-13.5 2-6 10.3-7 29.5-15.5 24.2 0 0 15.4-54 29-26.2z"/>
	<path id="Layer" class="s37" d="m76.7 70q1 1.4 2 3.4 0.2 0.2 0.2 0.2-1-2-2-3.4-0.1-0.1-0.2-0.2z"/>
	<path id="Layer" class="s40" d="m50.4 98c-0.3 1.1-0.5 1.8-0.5 1.8 0.1-0.2 0.3-0.9 0.6-1.8z"/>
	<path id="Layer" class="s39" d="m71.8 68c-2.3-0.1-4.9 1.1-7.3 5.1-5.3 9.2-6.7 25.4-12.9 25.2q-0.5-0.1-1.1-0.3c-0.3 0.9-0.5 1.6-0.6 1.8q1.4 0.9 2.6 0.9c6.2 0.2 7.6-16 12.9-25.2 2.4-4 5-5.2 7.2-5.1 3.1 0.1 5.5 2.4 6.1 3q-1-2-2-3.4c-1.1-0.9-2.9-2-4.9-2z"/>
</svg>