<svg version="1.2" xmlns="http://www.w3.org/2000/svg" viewBox="0 0 100 135" width="100" height="135">
	<title>flower_in_a_pot_01-svg</title>
	<style>
		.s0 { fill: #aa6b28 } 
		.s1 { fill: #2e1010 } 
		.s2 { fill: #f9a84c } 
		.s3 { fill: #7c4317 } 
		.s4 { fill: #fab76a } 
		.s5 { fill: #de9342 } 
		.s6 { fill: #6f3b14 } 
		.s7 { fill: #f9a72b } 
		.s8 { fill: #c7883c } 
		.s9 { fill: #584521 } 
		.s10 { fill: #403215 } 
		.s11 { fill: #6c562b } 
		.s12 { fill: #775e30 } 
		.s13 { fill: #d09c5d } 
		.s14 { fill: #7c6232 } 
		.s15 { fill: #463618 } 
		.s16 { fill: #de9225 } 
		.s17 { fill: #54401d } 
		.s18 { fill: #3d2e12 } 
		.s19 { fill: #654e21 } 
		.s20 { fill: #fab64f } 
		.s21 { fill: #3c2c13 } 
		.s22 { fill: #875723 } 
		.s23 { fill: #2b200c } 
		.s24 { fill: #493719 } 
		.s25 { fill: #543f1c } 
		.s26 { fill: #2f230e } 
		.s27 { fill: #392911 } 
		.s28 { fill: #291d0a } 
		.s29 { fill: #453213 } 
		.s30 { fill: #93af2a } 
		.s31 { fill: #b4c04f } 
		.s32 { fill: #fff465 } 
		.s33 { fill: #ffdf63 } 
		.s34 { fill: #f3d244 } 
		.s35 { fill: #b9cb33 } 
		.s36 { fill: #86a33d } 
		.s37 { fill: #ccd84e } 
		.s38 { fill: #9fb73b } 
		.s39 { fill: #c1d047 } 
		.s40 { fill: #c1cf41 } 
		.s41 { fill: #dce83c } 
		.s42 { fill: #bdcd44 } 
		.s43 { fill: #8eab3e } 
	</style>
	<path id="Layer" class="s0" d="m74 103.5l-3.4 25.4c-0.1 3.5-7.6 6.1-16.8 6-9.2-0.2-16.7-3-16.6-6.5l-4-27.1z"/>
	<path id="Layer" class="s1" d="m74 103.5h-0.1l-3.4 25.4c0 1.6-1.8 3.1-4.7 4.2-2.9 1-6.9 1.7-11.3 1.7q-0.4 0-0.7 0c-4.6-0.1-8.7-0.8-11.7-2-3-1.2-4.8-2.7-4.8-4.3v-0.1l-4-27 40.7 2.2v-0.1-0.1l-40.8-2.2h-0.1v0.1l4 27.1h0.1-0.1v0.1c0 1.8 1.9 3.3 4.9 4.5 3 1.2 7.2 1.9 11.8 2q0.3 0 0.7 0c4.4 0 8.5-0.7 11.4-1.7 2.9-1.1 4.8-2.6 4.8-4.4h-0.1 0.1l3.4-25.4-0.1-0.1z"/>
	<path id="Layer" class="s2" d="m74 103.5l-3.4 25.4c-0.1 3.5-7.6 6.1-16.8 6-9.2-0.2-16.7-3-16.6-6.5l-4-27.1z"/>
	<path id="Layer" class="s3" d="m74 103.5h-0.1l-3.4 25.4c0 1.6-1.8 3.1-4.7 4.2-2.9 1-6.9 1.7-11.3 1.7q-0.4 0-0.7 0c-4.6-0.1-8.7-0.8-11.7-2-3-1.2-4.8-2.7-4.8-4.3v-0.1l-4-27 40.7 2.2v-0.1-0.1l-40.8-2.2h-0.1v0.1l4 27.1h0.1-0.1v0.1c0 1.8 1.9 3.3 4.9 4.5 3 1.2 7.2 1.9 11.8 2q0.3 0 0.7 0c4.4 0 8.5-0.7 11.4-1.7 2.9-1.1 4.8-2.6 4.8-4.4h-0.1 0.1l3.4-25.4-0.1-0.1z"/>
	<path id="Layer" class="s4" d="m37.7 108.5l2.5 17.8c0 0 1.1 5.6 8 7.1q1.1 0.3 2.3 0.2c5.9 0 10.7-4.8 11.2-10.5 0.5-6.9 0.5-12.8 0.5-12.8 0 0-4.2 0.7-9.5 0.7-4.7 0-10.4-0.5-15-2.5z"/>
	<path id="Layer" class="s5" d="m73.7 105.2c-1.2 1.1-2.8 2-4.8 2.7-1.7 0.7-3.7 1.2-5.8 1.6q0.8 0.1 2.1 0.1c1.2 0 2.5 0 4.1-0.3 0 0 0.1-0.1 0.3-0.1 0.2 0 0.6 0.3 0.6 1.8 0 2.4-2.3 17.2-2.3 17.2 0 0-0.4 3.8-5.7 5.2-1.7 0.5-4.6 0.9-7.8 0.9-6.3 0-13.9-1.5-17.3-6.7l0.2 0.8v0.1c0 1.6 1.8 3.1 4.8 4.3 2.9 1.2 7.1 1.9 11.7 2q0.3 0 0.7 0c4.4 0 8.4-0.7 11.3-1.7 2.9-1.1 4.7-2.6 4.7-4.2z"/>
	<path id="Layer" class="s6" d="m73.8 105.1q-0.1 0.1-0.1 0.1l-3.2 23.7c0 1.6-1.8 3.1-4.7 4.2-2.9 1-6.9 1.7-11.3 1.7q-0.4 0-0.7 0c-4.6-0.1-8.7-0.8-11.7-2-3-1.2-4.8-2.7-4.8-4.3v-0.1l-0.2-0.8q0-0.1-0.1-0.2l0.2 1c-0.1 3.5 7.4 6.3 16.6 6.5q0.3 0 0.7 0c8.9 0 16.1-2.6 16.1-6z"/>
	<path id="Layer" class="s7" d="m32.3 96.5l3.9 0.2c3.9-2.2 10.4-3.7 17.7-3.7 8.2 0 15.3 1.8 18.9 4.5 1.6-0.5 3.1-1 3.1-1l-0.4 5.5c-0.6 4.6-10 8.2-21.6 8.2-11.7 0-21.2-3.7-21.6-8.3v-0.1-5.1 0.1z"/>
	<path id="Layer" class="s3" d="m32.3 96.5l-0.1 0.1 4 0.2c3.9-2.2 10.4-3.7 17.7-3.7 8.2 0 15.3 1.8 18.9 4.5h0.1c1.5-0.5 3.1-1 3.1-1l-0.1-0.1h-0.1l-0.4 5.5h0.1v-0.1l-0.1 0.1c-0.3 2.2-2.8 4.3-6.6 5.7-3.9 1.5-9.1 2.4-14.9 2.4-5.8 0-11.1-0.9-15-2.4-3.9-1.5-6.3-3.6-6.5-5.8v-0.1-5.1h-0.1l-0.2 0.1h0.1l0.1 0.1 0.1-0.1v-0.3h-0.1-0.2v0.3h0.2l0.1-0.1-0.2-0.1-0.1 0.1v5.1l0.1 0.1h0.1-0.1c0.2 2.4 2.7 4.5 6.6 6 3.9 1.5 9.2 2.4 15.1 2.4 5.8 0 11.1-0.9 15-2.4 3.8-1.4 6.4-3.5 6.7-5.9h-0.1v0.1l0.1-0.1 0.4-5.5v-0.1h-0.1c0 0-1.6 0.5-3.1 1v0.1l0.1-0.1c-3.7-2.7-10.8-4.5-19-4.5-7.3 0-13.8 1.4-17.8 3.7l0.1 0.1v-0.1l-3.9-0.2-0.1 0.1h-0.1z"/>
	<path id="Layer" class="s2" d="m32.3 96.5c0 4.8 9.7 8.7 21.8 8.7 12 0 21.8-3.9 21.8-8.7 0-4.8-9.8-8.6-21.8-8.6-12.1 0-21.8 3.8-21.8 8.6z"/>
	<path id="Layer" class="s3" d="m32.3 96.5h-0.2c0.1 2.5 2.5 4.7 6.5 6.3 4 1.5 9.4 2.5 15.5 2.5 6 0 11.5-1 15.5-2.5 3.9-1.6 6.4-3.8 6.4-6.3 0-2.4-2.5-4.6-6.4-6.2-4-1.6-9.5-2.6-15.5-2.6-6.1 0-11.5 1-15.5 2.6-4 1.6-6.4 3.8-6.5 6.2h0.2 0.1c-0.1-2.3 2.3-4.4 6.3-6 3.9-1.6 9.4-2.5 15.4-2.5 6 0 11.5 0.9 15.4 2.5 3.9 1.6 6.3 3.7 6.3 6 0 2.3-2.4 4.5-6.3 6.1-3.9 1.5-9.4 2.5-15.4 2.5-6 0-11.5-1-15.4-2.5-4-1.6-6.4-3.8-6.3-6.1z"/>
	<path id="Layer" class="s8" d="m32.9 96.4c0 4.3 9.5 7.8 21.1 7.8 11.7 0 21.1-3.5 21.1-7.8 0-4.4-9.4-7.9-21.1-7.9-11.6 0-21.1 3.5-21.1 7.9z"/>
	<path id="Layer" class="s3" d="m32.9 96.4h-0.1c0 2.2 2.5 4.2 6.3 5.6 3.8 1.4 9.1 2.3 14.9 2.3 5.9 0 11.2-0.9 15-2.3 3.8-1.4 6.2-3.4 6.2-5.6 0-2.3-2.4-4.3-6.2-5.7-3.8-1.4-9.1-2.3-15-2.3-5.8 0-11.1 0.9-14.9 2.3-3.8 1.4-6.3 3.4-6.3 5.7h0.1 0.1c0-2.1 2.4-4.1 6.2-5.5 3.8-1.4 9-2.3 14.8-2.3 5.9 0 11.1 0.9 14.9 2.3 3.8 1.4 6.1 3.4 6.1 5.5 0 2-2.3 4-6.1 5.4-3.8 1.4-9 2.3-14.9 2.3-5.8 0-11-0.9-14.8-2.3-3.8-1.4-6.2-3.4-6.2-5.4z"/>
	<path id="Layer" class="s9" d="m67.6 95.2c0 0 0.4-1-3-2.2-3.4-1.3-4.2 0.9-4.2 0.9 0 0 0.1-0.9-1.7-2.1-1.8-1.2-4.5 0.7-4.5 0.7-3-1.4-5.2 1.7-5.2 1.7-2.8-2.7-7.4 0-7.4 0-4.6-1.1-5.8 2.8-5.8 2.8-1.1-0.1-2 0.3-2.6 0.9 2.3 3.4 10.4 6.1 20.2 6.3 10.6 0.2 19.4-2.4 21-6.2-1.2-1.2-3.3-1.5-3.3-1.5-1.1-1.6-3.5-1.3-3.5-1.3z"/>
	<path id="Layer" class="s10" d="m67.7 95.2c0.3-1.1-2.4-2-3.1-2.3-1.3-0.5-3.3-0.7-4.2 0.7-0.1 0.2-0.1 0.2 0 0.2 0 0 0.1 0 0.1 0.1 0-0.4-0.2-0.6-0.4-0.9-0.5-0.8-1.5-1.4-2.4-1.6-0.8-0.2-1.7 0.1-2.5 0.4q-0.6 0.3-1.1 0.6c0.2-0.1-1.3-0.3-1.1-0.3-1.1 0-1.9 0.3-2.8 0.8-0.4 0.3-0.8 0.6-1.1 1-0.4 0.4-0.4-0.2-1-0.4-2-0.9-4.1-0.5-6 0.3-0.5 0.3-0.9 0.2-1.4 0.2-0.3-0.1-0.6-0.1-0.9 0-1.1 0.1-2 0.4-2.8 1-0.5 0.5-0.9 1.1-1.2 1.7-0.1 0.3-2.2 0.8-2.7 1.1v0.1c1.7 2.3 4.7 3.5 7.4 4.4 4.1 1.3 8.6 1.8 13 1.9 4.5 0.2 9.2-0.3 13.6-1.5 2.6-0.7 6.1-2 7.4-4.6v-0.1c-1.1-1-2.6-1.1-3.7-2-1-0.7-2.1-1-3.3-0.8-0.1 0 0.1 0.1 0.2 0 1.3-0.1 2.4 1.1 3.7 1.4 1.1 0.2 3.5 0.8 2.4 2.2-0.3 0.6-0.8 1-1.3 1.3-3.3 2.6-8.2 3.3-12.2 3.8-5.5 0.6-11.2 0.3-16.6-0.9-2.4-0.5-4.7-1.2-6.8-2.3q-1.3-0.6-2.4-1.5-0.4-0.3-0.8-0.8c-1-1.1 2-1.4 2.1-1.4h0.1c0.8-2.5 3.4-3.2 5.7-2.8 0.3 0 0.8-0.3 1-0.4 2-0.9 4.4-1.2 6.3 0.4h0.2c0.2-0.3 0.6-0.6 0.9-0.9 1.4-1.3 2.2-0.8 4.2-0.7 0.3 0 0.9-0.5 1.2-0.7 1.5-0.7 5-0.1 4.9 2h0.2c0.3-0.7 1.1-1.1 1.8-1.2-0.5 0.1 5.7 0.6 5.2 2.5z"/>
	<path id="Layer" class="s11" d="m41.9 94.9c0 0-3.8-0.7-4.5 1.3-0.7 2-3.1 1-1.6 2.7 1.6 1.7 4 1.8 5.1 0.9 1.1-1 1.5-2.3 3.7-2.1 2.1 0.2 0.8-1.6-0.5-1.6-1.3 0 1.1-1.6 2.1-1.7 1.1-0.2-2.2-1.3-4.3 0.5z"/>
	<path id="Layer" class="s11" d="m51.3 96.9c0 0-0.8-1.1-3.4-1.1-2.5-0.1-1.1 1-1.2 1.4-0.1 0.5 1.6 1.5 1.6 1.5 0 0 0.7-1.7 3-1.8z"/>
	<path id="Layer" class="s11" d="m50.2 94.5c-0.3 0 1.6-2 3.4-1.4 0.9 0.3 1.7 0.1 2.4-0.1 0.9-0.2 1.8-0.5 2.6 0.1 1.5 1.1 0.8 2.1 0.8 2.1 0 0-4.7-0.1-5.1 2 0 0-1.5-2.5-4.1-2.7z"/>
	<path id="Layer" class="s11" d="m62.7 96.9c0 0-0.4-0.1-1-0.2-1.5-0.2-4.4-0.3-5.5 1.1 0 0-0.6 0.4 0.6 1.4 1.1 0.9 1.9 1.2 1.9 2.3 0 0 1.5-3.3 7.4-1.9 5.9 1.5 6.5-1.1 5.3-1.8-1.2-0.7-3.5 0.3-3.5 0.3 0 0-0.9-2.2-5.2-1.2z"/>
	<path id="Layer" class="s12" d="m66.2 95c0 0-1.3-1.6-3.1-1.2-1.7 0.4 3.5 2.8 3.1 1.2z"/>
	<path id="Layer" class="s11" d="m55.7 100.8c0 0-1.9-1.5-4.5-0.8 0 0-0.2 2.5-0.7 2.5-0.6-0.1-1.6-3.7-4.6-3.4-3.1 0.3-4.4 1.6-3.2 2.6 1.3 1.1 7.3 2.3 11 2 3.6-0.3 2.9-1.9 2-2.9z"/>
	<path id="Layer" class="s11" d="m63.7 100.8c0 0-2.5-0.3-3.7 1.2-1.1 1.5 4.1 1.2 6 0.3 1.9-0.9-2-1.5-2.3-1.5z"/>
	<path id="Layer" class="s13" d="m55.3 89.2c-9.5 0-16.5 2.6-16.5 2.6-1.4 0.7-0.1 1.8 1.8 1.8 0.8 0 1.8-0.2 2.7-0.8 0.8-0.4 1.5-0.5 2.1-0.5 0.7 0 1.3 0.1 1.8 0.3 0.6 0.1 1 0.2 1.4 0.2 0.4 0 0.7-0.1 0.9-0.4 0.6-0.7 1.6-0.9 2.4-0.9 1.1 0 2 0.2 2 0.2 0 0 0.2-0.9 2.9-0.9q0.3 0 0.5 0c3.2 0.1 3.6 1.7 3.6 1.7 0.2-1 2.5-1 2.8-1.8 0.4-0.9-0.9-0.9-0.9-0.9-2.6-0.4-5.2-0.6-7.5-0.6z"/>
	<path id="Layer" class="s14" d="m42 95.6c-0.1-0.1-1.1-0.8-3 0-1.9 0.7-0.8 1.7 0.6 1.4 1.4-0.2 2.6-0.8 2.4-1.4z"/>
	<path id="Layer" class="s14" d="m49.2 96.2c0 0-1.3-0.2-1 0.3 0.2 0.5 2.3 0 1-0.3z"/>
	<path id="Layer" class="s14" d="m59 94.5c0 0-0.5-1.6-2.1-1.3-1.6 0.2 2.1 2.2 2.1 1.3z"/>
	<path id="Layer" class="s14" d="m67.3 98.1c0 0-3.1-1.6-3.1-0.1 0 1.5 4.2 1.2 3.1 0.1z"/>
	<path id="Layer" class="s15" d="m59 102.7q-0.1 0-0.2 0 0.1 0 0.1 0 0.1 0 0.1 0 0 0 0 0z"/>
	<path id="Layer" class="s16" d="m75.1 99.8c-1 4.8-9.8 8.7-9.8 8.7 0 0 5-1.7 7-2.9 2-1.2 2.6-3.4 2.6-3.4z"/>
	<path id="Layer" class="s9" d="m40.8 96.2c0 0-1.4-1.3-2.9 0.2-1.5 1.4-0.8 2.7 0.8 2.6 1.6-0.2 3.6-1.5 2.1-2.8z"/>
	<path id="Layer" class="s10" d="m40.9 96.2c-0.6-0.5-1.4-0.7-2.1-0.5-1 0.3-2.4 1.8-1.6 2.9 0.7 0.8 2.2 0.4 2.9 0 0.6-0.2 1-0.6 1.3-1.1 0.2-0.5-0.2-1-0.5-1.3h-0.2c0.8 0.8 0.5 1.6-0.3 2.1-0.8 0.6-2.5 1.1-3.1 0.1-0.6-1 0.7-2.2 1.4-2.5 0.7-0.3 1.5-0.1 2 0.3z"/>
	<path id="Layer" class="s17" d="m41.1 96.7q-0.1 0.2-0.2 0.4 0.1 0.1 0.3 0.1 0-0.2-0.1-0.5z"/>
	<path id="Layer" class="s18" d="m41.1 96.6q0 0 0 0.1 0.1 0.3 0.1 0.5 0.1 0 0.1 0.1 0.1-0.4-0.2-0.7z"/>
	<path id="Layer" class="s17" d="m37.2 97.7q-0.1 0.4 0.1 0.7c0.3 0.4 0.7 0.5 1.2 0.5 0.4 0 0.9-0.1 1.3-0.2-0.2-0.3-0.2-0.6 0-0.9q-0.1 0.1-0.3 0.1c0 0-0.6 0.4-1.3 0.4q-0.2 0-0.4-0.1c-0.4-0.2-0.6-0.3-0.6-0.5z"/>
	<path id="Layer" class="s18" d="m37.3 97.1c-0.6 1 0 1.9 1.2 1.9q0.1 0 0.2 0 0.6-0.1 1.1-0.3 0 0 0 0c-0.4 0.1-0.9 0.2-1.3 0.2-0.5 0-0.9-0.1-1.2-0.5q-0.2-0.3-0.1-0.7-0.1-0.2 0.2-0.6z"/>
	<path id="Layer" class="s19" d="m39.5 96c-0.9 0-1.6 0.9-1.6 0.9q-0.2 0.3-0.2 0.4c0 0.2 0.2 0.2 0.3 0.2 0.3 0 0.9-0.2 1-0.3 0.3-0.2 1.3-0.5 1.3-0.8q0-0.2-0.3-0.3-0.3-0.1-0.5-0.1z"/>
	<path id="Layer" class="s9" d="m41.5 97.5c0 0-0.7-0.7-1.4 0.1-0.7 0.8-0.3 1.4 0.5 1.3 0.7 0 1.7-0.8 0.9-1.4z"/>
	<path id="Layer" class="s10" d="m41.6 97.5c-0.3-0.3-0.7-0.4-1-0.3-0.6 0.1-1.3 1-0.8 1.6 0.7 0.7 2.8-0.4 1.8-1.3h-0.2c0.9 0.9-1 1.9-1.5 1.1-0.2-0.4 0.2-1 0.5-1.2 0.3-0.3 0.7-0.2 1 0.1z"/>
	<path id="Layer" class="s9" d="m69 98.7c0 0-1.4-1.3-2.9 0.1-1.5 1.5-0.7 2.8 0.8 2.6 1.6-0.1 3.7-1.4 2.1-2.7z"/>
	<path id="Layer" class="s10" d="m69.1 98.7c-0.6-0.5-1.3-0.7-2-0.5-1 0.2-2.5 1.8-1.6 2.8 0.6 0.8 2.1 0.5 2.9 0.1 0.5-0.2 1-0.6 1.2-1.1 0.2-0.5-0.2-1-0.5-1.3-0.1-0.1-0.3-0.1-0.2 0 2 1.7-2.6 3.8-3.4 2.1-0.5-0.9 0.7-2 1.3-2.4 0.7-0.3 1.6-0.2 2.1 0.3 0 0 0.2 0.1 0.2 0z"/>
	<path id="Layer" class="s17" d="m68 100.3q-0.1 0-0.2 0.1c0 0-0.7 0.3-1.4 0.3q0 0-0.1 0-0.3 0.1-0.7 0.2c0.2 0.4 0.7 0.5 1.1 0.5 0.4 0 0.9-0.1 1.3-0.3-0.2-0.2-0.2-0.5 0-0.8zm1.3-1.1q0 0.2-0.2 0.4 0.2 0 0.3 0.1 0-0.3-0.1-0.5z"/>
	<path id="Layer" class="s18" d="m65.6 100.9q-0.1 0.1-0.1 0.1c0.2 0.3 0.7 0.4 1.2 0.4q0.1 0 0.2 0 0.6 0 1.1-0.2 0 0 0 0 0 0 0-0.1c-0.4 0.2-0.9 0.3-1.3 0.3-0.4 0-0.9-0.1-1.1-0.5zm3.7-1.9q0 0 0 0.2 0.1 0.2 0.1 0.5 0.1 0 0.1 0.1 0.1-0.4-0.2-0.8z"/>
	<path id="Layer" class="s19" d="m67.7 98.5q-0.2 0-0.4 0.1c0.4 0.1 0.6 0.4 0.4 0.8q-0.1 0.1-0.1 0.1c0.4-0.2 1-0.4 1-0.6q0-0.2-0.4-0.3-0.2-0.1-0.5-0.1z"/>
	<path id="Layer" class="s9" d="m69.7 99.9c0 0-0.7-0.6-1.4 0.1-0.7 0.8-0.2 1.5 0.5 1.4 0.8-0.1 1.7-0.8 0.9-1.5z"/>
	<path id="Layer" class="s10" d="m69.8 99.9c-0.2-0.2-0.7-0.4-1-0.3-0.5 0.2-1.3 1-0.8 1.6 0.7 0.8 2.8-0.3 1.8-1.3h-0.2c1 0.9-1 2-1.4 1.2-0.3-0.3 0-0.8 0.2-1 0.3-0.4 0.9-0.5 1.2-0.2z"/>
	<path id="Layer" class="s20" d="m33.2 100.1c0 0 0 2.2 0.2 2.7 0.2 0.5 0.8 1.4 0.8 1.4 5.6 4.2 14.3 5.1 20.4 5.1 3.9 0 6.8-0.4 7.1-0.4 0.8 0 0.5-3.4 0.5-3.4q-4.8 0.5-8.6 0.5c-16.5 0-20.4-5.9-20.4-5.9z"/>
	<path id="Layer" fill-rule="evenodd" class="s21" d="m50.2 94.5c2.6 0.2 4.1 2.7 4.1 2.7 0.4-2 4.7-2 5.1-2q0 0 0 0c0 0 0.1-0.2 0.2-0.4q0.1 0.1 0.2 0.3c0.3 0.8 2.4 1.2 3.8 1.6q-0.4 0.1-0.9 0.2 0 0 0 0c-0.1 0-0.5-0.1-1-0.2-0.5 0-1.2-0.1-1.9-0.1-1.4 0-2.9 0.3-3.6 1.2 0 0-0.6 0.4 0.6 1.4 1.1 0.9 1.9 1.2 1.9 2.3 0 0 1-2.2 4.6-2.2q1 0 2.1 0.2-0.1 0.2-0.1 0.3-0.7-0.2-1.6-0.2-0.8 0-1.6 0.2c-3.1 0.6-4 2.7-3.3 2.9-0.8 0.1-1.5 0.3-2.2 0.4q-0.8 0.2-1.4 0.4c1.9-0.6 1.2-1.9 0.5-2.7 0 0-1.3-1-3.1-1q-0.6 0-1.4 0.2c0 0-0.2 2.5-0.7 2.5q0 0 0 0c-0.6-0.1-1.5-3.4-4.3-3.4q-0.1 0-0.3 0c-2.8 0.3-4.2 1.4-3.4 2.4-0.4-0.2-0.8-0.5-1.5-0.8q-0.5-0.3-0.8-0.5 0.4-0.2 0.7-0.4c1-0.9 1.4-2.1 3.3-2.1q0.2 0 0.4 0 0.1 0 0.3 0c1.7 0 0.4-1.6-0.8-1.6-0.6 0-0.4-0.3 0.1-0.7 1.2-0.5 2.9-1 4.4-1.4q0.2 0.1 0.3 0.2h0.2q0.1-0.1 0.3-0.3 0.8-0.2 1.5-0.2c-0.5 0.4-0.8 0.8-0.7 0.8zm-2.1 4.4c-0.2-0.1-1.2-0.7-2.5-0.7-0.8 0-1.8 0.3-2.8 1.2-0.9 0.7-1.1 1.5-1.1 1.5q0.5-0.9 1.1-1.5c0.6-0.4 1.4-0.7 2.6-0.7q0.8 0 1.8 0.2c0 0 3 1.2 3.4 3.2 0 0 0.3-2-0.7-2.3-0.6-0.2 0.5-0.5 2-0.5 1.5 0 3.5 0.3 4.8 1.5 0.6 0.5 1 0.8 1.2 0.8 0.6 0-0.8-2.3-2.6-2.8 0 0 0.8-2 3.2-2.4 0.9-0.1 0.7-0.3 0.1-0.3-1.1 0-3.4 0.4-4.2 2 0 0-2.1-3.4-6.1-3.4q-0.2 0-0.5 0.1c0 0 4.2 1.3 4.4 2.3 0.2 1.1-2.6 0.6-3.4 1.6 0 0-0.2 0.2-0.5 0.2q-0.1 0-0.2 0zm3.2-2c0 0-0.8-1.1-3.4-1.1q-0.1 0-0.2 0c-2.2 0-0.9 1-1 1.4-0.1 0.5 1.6 1.5 1.6 1.5 0 0 0.7-1.7 3-1.8z"/>
	<path id="Layer" class="s22" d="m49 93.9q-0.1 0.1-0.3 0.1 0 0 0 0 0.1 0 0.1 0 0.1 0 0.2-0.1z"/>
	<path id="Layer" class="s21" d="m45 102.7q0.1 0 0.1 0c0.8 0.4 1.7 0.5 2.6 0.6-0.9-0.2-1.9-0.4-2.7-0.6zm3.7-8.7q0 0 0 0 0 0 0 0z"/>
	<path id="Layer" class="s23" d="m49.4 93.9q-0.2 0-0.4 0-0.1 0.1-0.2 0.1 0 0-0.1 0 0 0 0 0 0 0-0.1 0 0.2 0.1 0.3 0.2h0.2q0.1-0.1 0.3-0.3z"/>
	<path id="Layer" class="s24" d="m44.2 95.4q-0.6 0.2-1 0.3c-2 0.6 0 1.1-1.5 1.9 0.5 0.7-0.5 1.4-1.2 1.4q-0.4 0-0.6-0.2-0.4 0.7 0.3 1.4 0.4-0.2 0.7-0.4c1-0.9 1.4-2.1 3.3-2.1q0.2 0 0.4 0 0.1 0 0.3 0c1.7 0 0.4-1.6-0.8-1.6-0.6 0-0.4-0.3 0.1-0.7z"/>
	<path id="Layer" fill-rule="evenodd" class="s24" d="m47.9 95.8c2.6 0 3.4 1.1 3.4 1.1-2.3 0.1-3 1.8-3 1.8 0 0-1.7-1-1.6-1.5 0.1-0.4-1.2-1.4 1-1.4q0.1 0 0.2 0zm1.3 0.4c0 0-0.3 0-0.6 0-0.3 0-0.5 0-0.4 0.3 0 0.2 0.3 0.2 0.5 0.2 0.7 0 1.4-0.3 0.5-0.5z"/>
	<path id="Layer" class="s24" d="m50.9 93.7q0 0 0 0c-0.5 0.4-0.8 0.8-0.7 0.8 2.6 0.2 4.1 2.7 4.1 2.7 0.4-2 4.7-2 5.1-2q0 0 0 0c0 0 0.1-0.2 0.2-0.4q-0.3-0.2-0.6-0.3 0 0.3-0.3 0.2c-0.3 0-0.6 0-0.9-0.2-0.4 0.1-0.7 0.1-0.7 0.1-1.2-0.3-2.1 0.2-4.6-0.6q-0.7-0.3-1.6-0.3z"/>
	<path id="Layer" class="s24" d="m59.8 96.6c-1.4 0-2.9 0.3-3.6 1.2 0 0-0.6 0.4 0.6 1.4 1.1 0.9 1.9 1.2 1.9 2.3 0 0 1-2.2 4.6-2.2q1 0 2.1 0.2 0.2-0.3 0.4-0.5c-0.8 0-1.6-0.3-1.6-1 0-0.4 0.2-0.6 0.5-0.6-0.1-0.3-0.5-0.5-1.1-0.7q-0.4 0.1-0.9 0.2 0 0 0 0c-0.1 0-0.5-0.1-1-0.2-0.5 0-1.2-0.1-1.9-0.1z"/>
	<path id="Layer" class="s24" d="m46.2 99.1q-0.1 0-0.3 0c-2.8 0.3-4.2 1.4-3.4 2.4 0.7 0.3 1.3 0.6 2.5 1.2 0.8 0.2 1.8 0.4 2.7 0.6 2 0.2 4.1 0 5.4 0.2q0.3 0.1 0.7 0.1 0.7 0 1.4-0.1c1.9-0.6 1.2-1.9 0.5-2.7 0 0-1.3-1-3.1-1q-0.6 0-1.4 0.2c0 0-0.2 2.5-0.7 2.5q0 0 0 0c-0.6-0.1-1.5-3.4-4.3-3.4z"/>
	<path id="Layer" class="s25" d="m48.6 96.2c-0.3 0-0.5 0-0.4 0.3 0 0.2 0.3 0.2 0.5 0.2 0.7 0 1.4-0.3 0.5-0.5 0 0-0.3 0-0.6 0z"/>
	<path id="Layer" class="s25" d="m58.4 94.5q-0.3 0-0.6 0c0.3 0.2 0.6 0.2 0.9 0.2q0.3 0.1 0.3-0.2-0.3 0-0.6 0z"/>
	<path id="Layer" class="s25" d="m64.7 97.4c-0.3 0-0.5 0.2-0.5 0.6 0 0.7 0.8 1 1.6 1 0.2-0.3 0.5-0.5 0.8-0.7-0.9-0.2-2-0.3-1.9-0.8q0-0.1 0-0.1z"/>
	<path id="Layer" fill-rule="evenodd" class="s26" d="m42.8 99.4c-0.9 0.7-1.1 1.5-1.1 1.5q0.5-0.9 1.1-1.5zm5.5-4.7q-0.2 0-0.5 0.1c0 0 4.2 1.3 4.4 2.3 0.2 1.1-2.6 0.6-3.4 1.6 0 0-0.2 0.2-0.5 0.2q-0.1 0-0.2 0c-0.2-0.1-1.2-0.7-2.5-0.7-0.8 0-1.8 0.3-2.8 1.2 0.6-0.4 1.4-0.7 2.6-0.7q0.8 0 1.8 0.2c0 0 3 1.2 3.4 3.2 0 0 0.3-2-0.7-2.3-0.6-0.2 0.5-0.5 2-0.5 1.5 0 3.5 0.3 4.8 1.5 0.6 0.5 1 0.8 1.2 0.8 0.6 0-0.8-2.3-2.6-2.8 0 0 0.8-2 3.2-2.4 0.9-0.1 0.7-0.3 0.1-0.3-1.1 0-3.4 0.4-4.2 2 0 0-2.1-3.4-6.1-3.4z"/>
	<path id="Layer" class="s21" d="m64.3 100.4c-3.9 0-5 2-5.3 2.3q0.4 0 0.8 0 0.1 0 0.2 0 0 0 0 0c-0.2-0.2-0.2-0.4 0-0.7 0.8-1.1 2.3-1.3 3.1-1.3 0.4 0 0.6 0.1 0.6 0.1 0.1 0 0.8 0.1 1.5 0.3q0.1-0.1 0.2-0.1-0.2-0.3-0.2-0.6-0.5 0-0.9 0z"/>
	<path id="Layer" class="s24" d="m63.1 100.7c-0.8 0-2.3 0.2-3.1 1.3-0.2 0.3-0.2 0.5 0 0.7q0.1 0 0.2 0c2.5 0 2.7-1 4.5-1.5q0.3-0.1 0.5-0.1c-0.7-0.2-1.4-0.3-1.5-0.3 0 0-0.2-0.1-0.6-0.1z"/>
	<path id="Layer" class="s26" d="m63.7 99.6q-0.8 0-1.6 0.2c-3.1 0.6-4 2.7-3.3 2.9q0.1 0 0.2 0c0.3-0.3 1.4-2.3 5.2-2.3q0.5 0 1 0 0-0.3 0.1-0.6-0.7-0.2-1.6-0.2z"/>
	<path id="Layer" class="s21" d="m41.6 97.7q-0.1 0-0.2 0.1-1 0.5-1.4 0.9 0.2 0.2 0.5 0.2c0.6 0 1.4-0.6 1.1-1.2z"/>
	<path id="Layer" class="s23" d="m41.7 97.6q-0.1 0.1-0.1 0.1c0.3 0.6-0.5 1.2-1.1 1.2q-0.3 0-0.5-0.2-0.1 0.1-0.1 0.1 0.2 0.2 0.6 0.2c0.7 0 1.7-0.7 1.2-1.4z"/>
	<path id="Layer" class="s21" d="m66.9 98.4q-0.1 0-0.1 0c-0.5 0.3-1.3 1.1-1.4 1.8 0 0.2 0.2 0.3 0.6 0.5q0.1 0 0.3 0c0.6-0.2 0.9-0.4 1.3-1.2q-0.2 0.1-0.3 0.2c-0.2 0.1-0.7 0.3-1.1 0.3-0.1 0-0.2-0.1-0.2-0.2q0-0.1 0.2-0.4c0 0 0.4-0.6 1.1-0.8q-0.2-0.1-0.4-0.2z"/>
	<path id="Layer" class="s23" d="m66.6 98.3c-0.3 0.2-0.6 0.4-0.8 0.7q-0.2 0.2-0.4 0.5-0.1 0.1-0.1 0.3-0.1 0.3-0.1 0.6 0 0.3 0.2 0.6 0.1 0 0.1 0c-0.3-0.4-0.3-0.9 0.1-1.5v0.1c-0.2 0.3-0.3 0.5-0.2 0.6 0.1-0.7 0.9-1.5 1.4-1.8q0 0 0.1 0-0.1 0-0.3-0.1z"/>
	<path id="Layer" class="s27" d="m65.4 100.2q-0.1 0.3 0.1 0.6 0 0.1 0.1 0.1 0.4-0.1 0.7-0.2-0.2 0-0.3 0c-0.4-0.2-0.6-0.3-0.6-0.5z"/>
	<path id="Layer" class="s28" d="m65.6 99.5c-0.4 0.6-0.4 1.1-0.1 1.5q0 0 0.1-0.1-0.1 0-0.1-0.1-0.2-0.3-0.1-0.6c-0.1-0.1 0-0.3 0.2-0.6z"/>
	<path id="Layer" class="s29" d="m67.3 98.6c-0.7 0.2-1.1 0.8-1.1 0.8q-0.2 0.3-0.2 0.4c0 0.1 0.1 0.2 0.2 0.2 0.4 0 0.9-0.2 1.1-0.3q0.1-0.1 0.3-0.2 0 0 0.1-0.1c0.2-0.4 0-0.7-0.4-0.8z"/>
	<path id="Layer" class="s30" d="m54.1 52.4q-0.1 1.3-0.1 2.7c0 0 0.1-1.1 0.1-2.7z"/>
	<path id="Layer" class="s31" d="m53.7 63.7c-0.3-1.9-0.8-2-1.2-1.6 0.5 4.1 1 9 1 13.9 0 11.2-0.1 23.2-0.1 23.2h0.6c0.9-11 0.4-31.9-0.3-35.5z"/>
	<path id="Layer" class="s30" d="m59.5 38.9c0 0-4.6 3.8-5.4 13.5 0 1.6-0.1 2.7-0.1 2.7q0-1.4 0.1-2.7c0.2-4.7 0.2-13.9-1.5-16.2l-0.4 0.5c0 0 1.7 4.6 1 18.2 0 0-0.1 3.1-0.6 0.5-0.4-2.5-1.9-4.2-1.9-4.2l0.4 2.1c0 0 0.7 3.7 1.4 8.8 0.4-0.4 0.8-0.3 1.2 1.6 0.7 3.6 1.2 24.5 0.3 35.5l1.7 0.1-0.1-21.6c0 0 0.1-5.5-0.4-10.6-0.4-5.1-2.1-21.2 5.1-27.8 0 0 0.3-1.3-0.8-0.4z"/>
	<path id="Layer" class="s32" d="m59.2 37.2c-0.2 0.6 0.2 1.1 0.2 1.1l1.2 1.1c2.3 1 4.2-0.9 5.3-2.5-2.1 0.6-4.4 0.7-6.7 0.3z"/>
	<path id="Layer" class="s32" d="m66.8 35q0 0.1 0 0.2 0-0.1 0-0.2z"/>
	<path id="Layer" class="s32" d="m66.9 34.6c-0.2-0.6-0.6-0.8-0.6-1.6 0-0.9-1.2 0.7-4.7 2.2q-0.7 0.3-1.1 0.6c1.9 0.4 4.1-0.1 6.1-0.1q0.1-0.3 0.2-0.5 0-0.1 0-0.2 0.1-0.3 0.1-0.4z"/>
	<path id="Layer" class="s33" d="m60.5 35.8c-0.8 0.5-1.1 1-1.3 1.4 2.3 0.4 4.6 0.3 6.7-0.3q0.4-0.7 0.7-1.2c-2 0-4.2 0.5-6.1 0.1z"/>
	<path id="Layer" fill-rule="evenodd" class="s34" d="m60.5 39.7h-0.1l-1.2-1.2 0.2-0.2-0.3 0.2c0-0.1-0.2-0.4-0.3-0.9 0-0.8 0.6-1.8 2.7-2.7 1.4-0.6 2.4-1.2 3.1-1.7 0.8-0.4 1.1-0.7 1.6-0.8 0.1 0 0.3 0.1 0.3 0.2 0.1 0.1 0.1 0.3 0.1 0.4 0 0.7 0.4 0.8 0.6 1.5v0.2c0 0.5-0.5 1.7-1.4 3-0.9 1.1-2.2 2.3-3.9 2.3q-0.7 0-1.4-0.3zm1.4-0.4c1.3 0.1 2.5-0.9 3.3-2 0.9-1.1 1.4-2.4 1.4-2.6-0.1-0.4-0.6-0.7-0.6-1.5h-0.2q-0.3 0.2-0.8 0.6c-0.8 0.5-1.8 1.1-3.3 1.7-1.9 0.9-2.2 1.6-2.2 2.1q0 0.2 0.1 0.3v0.1l1.2 1.1q0.6 0.2 1.1 0.2z"/>
	<path id="Layer" class="s35" d="m53.2 47c0 0 1.6-4.6-2.8-6 0 0-0.6-0.1 0 0.5 0.6 0.7-0.5 5.5 2.8 5.5z"/>
	<path id="Layer" fill-rule="evenodd" class="s36" d="m50.8 45.5c-0.3-0.9-0.3-2-0.4-2.8 0-0.6-0.1-1-0.2-1-0.2-0.2-0.3-0.4-0.3-0.6 0-0.1 0.1-0.2 0.2-0.3q0.1 0 0.2 0 0.2 0 0.2 0c2.7 0.8 3.3 2.9 3.2 4.3 0 1.1-0.2 2-0.2 2l-0.1 0.1h-0.2c-1.3 0-2.1-0.8-2.4-1.7zm-0.2-4.1c0.2 0.3 0.2 0.7 0.3 1.2 0 0.6 0.1 1.2 0.2 1.9 0.2 1.2 0.6 2.1 1.9 2.2 0.1-0.2 0.3-0.8 0.3-1.6-0.1-1.3-0.5-2.9-2.7-3.7z"/>
	<path id="Layer" fill-rule="evenodd" class="s36" d="m53.1 99.5v-0.3c0-0.1 0.1-12 0.1-23.2 0-5.5-0.6-11.2-1.2-15.5-0.6-4.2-1.2-7.1-1.2-7.1l0.3-0.1-0.3 0.1-0.6-3.3 0.8 0.9c0 0 1.3 1.5 1.8 3.8q0.2-3.6 0.2-6.4c0-4.3-0.3-7.2-0.6-9-0.3-1.9-0.5-2.6-0.5-2.6l-0.1-0.2 0.8-0.9 0.3 0.3c1.3 1.9 1.6 7.2 1.6 11.8 1.6-6.5 4.8-9.1 4.8-9.2 0.3-0.2 0.5-0.3 0.8-0.3 0.2-0.1 0.4 0.1 0.5 0.3q0.1 0.2 0.1 0.4c0 0.2-0.1 0.4-0.1 0.4v0.1l-0.1 0.1c-4.4 4-5.4 11.8-5.4 18.4 0 3.8 0.3 7.2 0.5 9.1 0.3 3.4 0.3 7 0.3 9 0 1 0 1.6 0 1.6l0.1 21.9zm2.3-0.5l-0.1-21.3c0 0 0-0.6 0-1.6 0-2 0-5.6-0.3-8.9-0.2-1.9-0.5-5.3-0.5-9.2 0-6.5 0.9-14.5 5.6-18.8v-0.2q-0.1 0-0.3 0.2c0 0-0.3 0.2-0.8 0.8-0.5 0.6-1.2 1.5-1.9 2.8-1.1 2.1-2.2 5.2-2.6 9.6 0 1.6-0.1 2.7-0.1 2.7h-0.6q0-1.5 0.1-2.8c0-1 0-2.3 0-3.7 0.1-4.4-0.2-9.9-1.3-11.8 0.3 0.8 1.2 4.2 1.2 11.6q0 2.9-0.2 6.5c0 0.1-0.1 1.2-0.2 1.6-0.1 0.1-0.1 0.3-0.4 0.3-0.4-0.1-0.4-0.3-0.5-0.5q0-0.2-0.1-0.8c-0.2-1.1-0.6-2.1-1-2.8l0.1 0.6c0 0.2 2.4 11.7 2.4 22.8 0 10-0.1 20.8-0.1 22.8z"/>
	<path id="Layer" class="s37" d="m61.9 44.1c-7.3 0.1-8.8 6.7-9.1 9.4q0.3-0.4 0.6-0.7c0 0 3.2-7 12.8-3.7 6.1 2.1 9.3 10.4 10.1 17.3 0.2 0.5 0.3 0.8 0.3 0.8 0.5-16-5.4-23.4-14.7-23.1z"/>
	<path id="Layer" fill-rule="evenodd" class="s38" d="m76 66.6v-0.1c-0.8-6.9-4-15.1-9.9-17-1.8-0.7-3.4-0.9-4.8-0.9-4.2 0-6.4 2.4-7.2 3.7-0.3 0.4-0.4 0.6-0.4 0.6v0.1h-0.1q-0.3 0.3-0.5 0.7l-0.8 1 0.2-1.3c0.3-2.6 1.8-9.5 9.4-9.7q0.2 0 0.4 0c4.5 0 8.2 1.8 10.7 5.4 2.6 3.7 4 9.1 4 16.5q0 0.8 0 1.6l-0.7 0.1c0 0-0.1-0.3-0.3-0.7zm-9.7-17.8c5.7 2 8.9 9.1 10 15.6-0.3-13.7-5.7-20-14-20q-0.2 0-0.3 0l-0.1-0.3 0.1 0.3c-6.1 0.1-8 4.8-8.7 7.8 0.8-1.2 3.1-4.3 8-4.3 1.5 0 3.1 0.3 5 0.9z"/>
	<path id="Layer" class="s37" d="m66.2 49.1c-9.6-3.3-12.8 3.7-12.8 3.7q-0.3 0.3-0.6 0.7c-0.1 0.6-0.1 1-0.1 1 0.6 9 8.1 8.9 15.1 7.9 5.3-0.8 7.7 2.5 8.5 4-0.8-6.9-4-15.2-10.1-17.3z"/>
	<path id="Layer" class="s38" d="m69.3 62.6q-0.7 0-1.5 0.1c-1.8 0.2-3.6 0.4-5.4 0.4-5 0.1-9.6-1.7-10-8.6 0 0 0-0.4 0.1-1.1v-0.1q0.3-0.4 0.6-0.7c0.3-0.5 2.5-4.7 8.2-4.7 1.5 0 3.1 0.3 5 0.9l-0.1 0.3-0.1 0.4c-1.8-0.7-3.4-0.9-4.8-0.9-4.2 0-6.4 2.4-7.2 3.7-0.3 0.4-0.4 0.6-0.4 0.6v0.1h-0.1q-0.3 0.3-0.5 0.6c0 0.6 0 0.9 0 0.9 0.4 6.5 4.4 7.9 9.3 8 1.7 0 3.5-0.2 5.3-0.5q0.8-0.1 1.6-0.1c3.3 0 5.3 1.7 6.5 3.1-1.1-6.5-4.2-13.7-9.7-15.5l0.1-0.4 0.1-0.3c6.3 2.2 9.5 10.6 10.3 17.6l-0.6 0.2c-0.7-1.4-2.6-4-6.7-4z"/>
	<path id="Layer" class="s39" d="m60 49.7c-0.9 0-1.6 0.1-2.3 0.5-2.2 1-4.5 2.9-3.7 6.1 0.5 2.3 3.2 4.4 5.3 4.9 1.1 0.3 2.5 0.5 3.8 0.5 0.8 0 1.5-0.1 2.2-0.2 1.3-0.3 2.5-0.4 3.5-0.4 1.5 0 2.7 0.2 3.5 0.5 0.9 0.2 1.4 0.4 1.7 0.4 0.2 0 0.3-0.1 0.1-0.6-0.6-1.9-1.6-4.1-2.4-4.8l-0.2-0.1c-0.4 0-0.8 0.7-1.5 1.5-0.8 0.7-1.8 1.4-3.6 1.4q-0.4 0-0.8-0.1c-2.2-0.2-4.7-0.8-6.4-2.1-3-2.3-0.9-6 1.8-7.5q-0.6 0-1 0z"/>
	<path id="Layer" class="s40" d="m62.8 45.2c-2.8 0-4.9 1.1-4.9 1.1-1.5 1.2-1.7 1.5-1.4 1.5 0.4 0 1.6-0.5 1.6-0.5 1.5-0.5 2.9-0.7 4.2-0.7 3.7 0 6.4 1.7 8.2 3.3 1.8 1.7 2.8 3.4 3 3.4 0.4-0.2-1.4-3.3-1.4-3.3-3.1-3.8-6.6-4.8-9.3-4.8z"/>
	<path id="Layer" class="s37" d="m49.4 32.5c-2.6-1.6-6.4-1-8.8 0.8-2.8 2-5 5.3-8.7 5.7-1 0.1-4.2 0.4-5.6-0.2 2.6 2 9.9 7.1 15 4.4 6.4-3.3 9.3-7.8 12-3.8v-0.1c-0.1-0.9-0.3-1.9-0.5-2.4-0.5-1.7-1.9-3.6-3.4-4.4z"/>
	<path id="Layer" class="s38" d="m26.1 39.1l0.3-0.6c0.6 0.2 1.7 0.3 2.7 0.3 1.1 0 2.2-0.1 2.8-0.1 3.5-0.4 5.7-3.6 8.5-5.7 1.5-1.1 3.5-1.7 5.5-1.8 1.3 0.1 2.6 0.3 3.7 1l-0.2 0.3-0.1 0.2c-1-0.5-2.2-0.8-3.4-0.8-1.8 0-3.7 0.6-5.1 1.6-2.7 2-5 5.4-8.9 5.8-0.5 0.1-1.6 0.2-2.8 0.2q-0.7 0-1.4-0.1c2.4 1.8 6.6 4.2 10.3 4.2 1.1 0 2.2-0.2 3.2-0.7 4.5-2.3 7.2-5.4 9.7-5.4q1 0 1.9 0.9c-0.1-0.6-0.2-1.1-0.3-1.4-0.5-1.6-1.8-3.5-3.2-4.3l0.1-0.2 0.2-0.3c1.6 0.9 3 2.9 3.5 4.6 0.2 0.6 0.4 1.5 0.5 2.5v0.1 0.1l-0.1 0.8-0.5-0.7c-0.7-1.1-1.4-1.4-2.1-1.4-1.9-0.1-4.8 2.9-9.4 5.3-1.1 0.5-2.3 0.8-3.5 0.8-4.8 0-9.8-3.6-11.9-5.2z"/>
	<path id="Layer" class="s37" d="m43.3 25.3c-12.6 0.3-9.6 13.7-18 12.7l0.2 0.2q0.2 0.2 0.8 0.6c1.4 0.6 4.6 0.3 5.6 0.2 3.7-0.4 5.9-3.7 8.7-5.7 2.4-1.8 6.2-2.4 8.8-0.8 1.5 0.8 2.9 2.7 3.4 4.4 0.2 0.5 0.4 1.5 0.5 2.4 0.2-1.3 2-14.2-10-14z"/>
	<path id="Layer" fill-rule="evenodd" class="s38" d="m26.1 39.1q-0.6-0.5-0.9-0.7l-0.1-0.2-0.6-0.6 0.9 0.1q0.4 0 0.7 0c3.5 0 4.7-2.9 6.5-6.1 1.9-3.2 4.5-6.5 10.7-6.6q0.1 0 0.3 0c4.4 0 7 1.8 8.5 4.2 1.4 2.3 1.7 5.1 1.7 7.2 0 1.5-0.1 2.6-0.2 3h-0.6c-0.1-1-0.3-1.9-0.5-2.4-0.5-1.6-1.8-3.5-3.2-4.3-1-0.5-2.2-0.8-3.4-0.8-1.8 0-3.7 0.6-5.1 1.6-2.7 2-5 5.4-8.9 5.8-0.5 0.1-1.6 0.2-2.8 0.2-1.1 0-2.2-0.1-3-0.4zm3-0.3c1.1 0 2.2-0.1 2.8-0.1 3.5-0.4 5.7-3.6 8.5-5.7 1.5-1.1 3.5-1.7 5.5-1.7 1.3 0 2.6 0.2 3.7 0.9 1.6 0.9 3 2.9 3.5 4.6l0.1 0.1q0-0.2 0-0.5c-0.1-4.1-1.2-10.7-9.6-10.7q-0.2 0-0.3 0v-0.4 0.4c-6 0.1-8.2 3.1-10.1 6.2-1.8 3.1-3.1 6.4-6.9 6.5l0.1 0.1c0.6 0.3 1.7 0.3 2.7 0.3z"/>
	<path id="Layer" class="s41" d="m43.2 26.5c-2.3 0-5.9 0.5-8.3 4.1-3.4 5.3-3.4 6-4.5 6.7q-0.2 0.1-0.1 0.1c0.2 0 3.8-1.9 6-6.4 1.9-4 5.8-4.5 7.7-4.5 0.6 0 1 0.1 1 0.1 0 0-0.7-0.1-1.8-0.1z"/>
	<path id="Layer" class="s41" d="m43.6 33.2c0 0-1.6 0.2-3.9 2.4-2.3 2.2-3.6 3-4.7 3.2q-0.2 0.1-0.1 0.1c0.3 0 3.8-0.7 5.7-2.9 2.3-2.5 3-2.8 3-2.8z"/>
	<path id="Layer" class="s42" d="m45.7 32.5c0 0 2.5 0.6 2.3 3.2-0.2 2-2.7 3.8-2.7 3.8q0 0 0.6-0.3c1.5-1 3.5-2 5-2q0.6 0 1.1 0.2c0 0-0.8-4.8-6.3-4.9z"/>
	<path id="Layer" class="s42" d="m46.6 26.4c0 0 1.8 1.4-1.1 2.9-3 1.5-3.9 2.7-3.9 2.7 0 0 2-1.2 4.4-1.2 2.1 0 4.4 0.8 6.3 3.7 0 0 0.3-5.7-5.7-8.1z"/>
	<path id="Layer" class="s37" d="m41.4 47c-4.8 1.5-9.5 7.6-15 5.8-2.2-0.7-2.6-2.4-3.6-4.1q-0.4-0.2-0.5-0.7c0 0 1.2 15.1 11.9 14.1 10.6-0.9 11.1-10.1 17.5-7.9l0.1 0.1c-0.1-1-0.2-2-0.5-2.8-1.3-4.2-6.1-5.8-9.9-4.5z"/>
	<path id="Layer" fill-rule="evenodd" class="s38" d="m23.8 55.2c-1.5-3.6-1.8-7.1-1.8-7.1l0.7-0.1c0 0.2 0.1 0.3 0.3 0.5l0.1 0.1c1 1.7 1.4 3.2 3.4 3.9q1 0.3 2 0.3c4.3 0 8.5-4.7 12.8-6.2q1.3-0.4 2.7-0.4c3.3 0 6.5 1.8 7.6 5.2 0.3 0.9 0.4 1.9 0.5 2.9l0.1 0.8-0.6-0.6h-0.1q-0.9-0.3-1.7-0.3c-2.2 0-3.6 1.7-5.8 3.7-2.1 2-5 4.1-9.8 4.6q-0.5 0-1 0c-5.1 0-7.9-3.7-9.4-7.3zm-0.8-5c0.2 1.3 0.7 3 1.4 4.8 1.5 3.5 4.1 6.9 8.8 6.9q0.5 0 1-0.1c4.6-0.4 7.2-2.4 9.4-4.4 2.1-1.9 3.7-3.8 6.2-3.9q0.8 0 1.6 0.3-0.1-1.2-0.4-2.2c-1-3.1-4-4.7-7-4.7q-1.3 0-2.5 0.4l-0.1-0.3 0.1 0.3c-4.1 1.2-8.2 6.1-13 6.1q-1.1 0-2.2-0.3c-2-0.7-2.7-2.1-3.4-3.6q0 0.3 0.1 0.7z"/>
	<path id="Layer" class="s37" d="m47.6 42.5c-4.6-3.9-13.4-2.9-16.4 2.6-0.9 1.6-1.9 3.1-3.7 3.7-0.7 0.2-3.6 0.6-4.7-0.1 1 1.8 1.4 3.4 3.6 4.1 5.5 1.8 10.2-4.3 15-5.8 3.8-1.3 8.6 0.3 9.9 4.5 0.3 0.8 0.4 1.8 0.5 2.8 0.1 0.1 0.5 0.2 0.5-2.7 0-3.6-2.1-6.9-4.7-9.1z"/>
	<path id="Layer" class="s38" d="m51.6 54.5l-0.1-0.1v-0.1c-0.1-1-0.3-1.9-0.5-2.7-1-3.1-4-4.7-7-4.7q-1.3 0-2.5 0.4c-4.1 1.2-8.2 6.1-13 6.1q-1.1 0-2.2-0.3c-2.3-0.8-2.8-2.5-3.8-4.2l0.5-0.4c0.3 0.2 1 0.3 1.8 0.3 1 0 2.2-0.2 2.6-0.3 1.6-0.6 2.6-2 3.5-3.5 1.9-3.5 5.9-5.2 9.7-5.2 2.7 0 5.3 0.8 7.2 2.4l-0.2 0.3-0.2 0.2c-1.8-1.5-4.3-2.3-6.8-2.3-3.7 0-7.4 1.7-9.1 4.9-0.9 1.6-2 3.1-3.9 3.8-0.5 0.1-1.7 0.3-2.8 0.4q-0.7 0-1.3-0.2c0.8 1.5 1.3 2.6 3 3.2q1 0.3 2 0.3c4.3 0 8.5-4.7 12.8-6.2q1.3-0.4 2.7-0.4c3.3 0 6.5 1.8 7.6 5.2q0.2 0.7 0.3 1.4 0.1-0.5 0.1-1.2c0-3.5-2-6.7-4.6-8.9l0.2-0.2 0.2-0.3c2.7 2.3 4.8 5.7 4.8 9.4 0 1.2 0 1.9-0.1 2.3-0.1 0.4-0.2 0.7-0.6 0.8-0.2 0-0.3-0.1-0.3-0.2z"/>
	<path id="Layer" class="s42" d="m25.6 55.7q0.1 0.2 0.2 0.4-0.2-0.4-0.2-0.4zm21.5-7.8c0 0 1.7 1.5-0.3 2.7-1.7 1-3.4 1.9-4.9 3.2-2.3 1.8-3.7 4.3-6.5 5.3-0.9 0.3-1.9 0.5-2.9 0.5-1.4 0-2.9-0.4-4.1-1.1-0.9-0.6-2-1.5-2.6-2.4 0.7 1.1 3.2 4.9 7.7 4.9q0.7 0 1.4-0.1c7.8-1.2 8.3-8.1 15-8.1q0.1 0 0.2 0c0 0 0.6-2.7-3-4.9z"/>
	<path id="Layer" class="s41" d="m38.2 41.5c0 0-2.8 0-5.2 2.6-2.4 2.7-2.2 4.6-4.6 5.2-0.7 0.2-0.7 0.4-0.4 0.4 0.8 0 3.9-1 6-4.7 0 0 1.3-2.9 4.2-3.5z"/>
	<path id="Layer" class="s41" d="m43.7 47.8c-0.5 0-1.1 0.1-1.8 0.3 0 0-3.1 1.3-6.8 4-2.2 1.5-4.6 2.3-6.5 2.3-1.3 0-2.4-0.4-3-1q-0.3-0.3-0.4-0.3c-0.1 0 0.2 0.7 1.1 1.3 0.8 0.7 2.1 1.4 3.9 1.4 1.4 0 3.2-0.5 5.2-1.8 7.3-4.7 6.4-5.7 10.1-5.7q0.2 0 0.4 0c0 0-0.8-0.5-2.2-0.5z"/>
	<path id="Layer" class="s42" d="m41.5 40.9h-0.2c0 0 3.2 0.4 4.3 2.2 1.2 1.9-1.6 0.2-6.5 3.4-1.2 0.9-1.7 1.2-1.7 1.2 0.1 0 1-0.5 2.3-1 1.3-0.5 2.9-1 4.4-1q0.5 0 0.9 0.1c3.5 0.5 5.3 2.7 5.7 2.7q0.1 0 0.1-0.3c-0.4-1.3-3.6-7.3-9.3-7.3z"/>
	<path id="Layer" class="s35" d="m59.5 38.9c0 0-1.4-1.3 0-3.1 0 0-0.6 1.7 0.4 2.3 0 0 1.1 0.8 2.4-0.8 0 0-0.4 1.5-1.8 1.6 0 0 3.2 0.8 4.5-0.3 0 0-1.9 2.3-5.1 0.8z"/>
	<path id="Layer" fill-rule="evenodd" class="s43" d="m59.8 39.6l-0.1-0.1-0.3-0.5c-0.1-0.1-0.7-0.7-0.7-1.6 0-0.5 0.2-1.1 0.6-1.7h0.3v0.2c0 0-0.1 0.5-0.1 1 0 0.4 0.1 0.8 0.5 1.1q0 0 0.1 0.1 0.2 0.1 0.5 0.1c0.4 0 1-0.2 1.6-1h0.2l0.1 0.2c0 0-0.3 1-1.3 1.5 0.4 0.1 1 0.1 1.5 0.1 0.8 0 1.7-0.1 2.2-0.5h0.2v0.2c0 0-1.1 1.4-3.1 1.4-0.7 0-1.4-0.2-2.2-0.5zm2.2 0.1c0.8 0.1 1.5-0.2 1.9-0.5q-0.6 0.2-1.2 0.1c-1.2 0-2.3-0.2-2.3-0.2q-0.1 0-0.1-0.2 0-0.1 0.1-0.1c0.6-0.1 1-0.3 1.3-0.6-0.4 0.2-0.8 0.3-1.1 0.3-0.5 0-0.8-0.2-0.8-0.2-0.5-0.4-0.7-0.9-0.7-1.4v-0.1q-0.1 0.3-0.1 0.6c0 0.8 0.6 1.4 0.6 1.4l-0.1 0.1 0.2-0.1 0.3 0.5c0.7 0.3 1.4 0.4 2 0.4z"/>
</svg>