<svg version="1.2" xmlns="http://www.w3.org/2000/svg" viewBox="0 0 100 135" width="100" height="135">
	<title>flower_in_a_pot_03-svg</title>
	<style>
		.s0 { fill: #8bc541 } 
		.s1 { fill: #66913e } 
		.s2 { fill: #59a11b } 
		.s3 { fill: #417719 } 
		.s4 { fill: #aed77a } 
		.s5 { fill: #a2d167 } 
		.s6 { fill: #a0cc51 } 
		.s7 { fill: #64a31a } 
		.s8 { fill: #407414 } 
		.s9 { fill: #bddb86 } 
		.s10 { fill: #aa6b28 } 
		.s11 { fill: #2e1010 } 
		.s12 { fill: #f9a84c } 
		.s13 { fill: #7c4317 } 
		.s14 { fill: #fab76a } 
		.s15 { fill: #de9342 } 
		.s16 { fill: #6f3b14 } 
		.s17 { fill: #f9a72b } 
		.s18 { fill: #c7883c } 
		.s19 { fill: #584521 } 
		.s20 { fill: #403215 } 
		.s21 { fill: #6c562b } 
		.s22 { fill: #775e30 } 
		.s23 { fill: #d09c5d } 
		.s24 { fill: #7c6232 } 
		.s25 { fill: #463618 } 
		.s26 { fill: #de9225 } 
		.s27 { fill: #54401d } 
		.s28 { fill: #3d2e12 } 
		.s29 { fill: #654e21 } 
		.s30 { fill: #fab64f } 
		.s31 { fill: #3c2c13 } 
		.s32 { fill: #875723 } 
		.s33 { fill: #2b200c } 
		.s34 { fill: #493719 } 
		.s35 { fill: #543f1c } 
		.s36 { fill: #2f230e } 
		.s37 { fill: #392911 } 
		.s38 { fill: #291d0a } 
		.s39 { fill: #453213 } 
		.s40 { fill: #4c9811 } 
		.s41 { fill: #387010 } 
		.s42 { fill: #add268 } 
		.s43 { fill: #759f46 } 
		.s44 { fill: #75ad2a } 
		.s45 { fill: #4f831d } 
	</style>
	<path id="Layer" class="s0" d="m52.1 71.1c-3.1-3-8.5-4-12.6-3.1-2.3 0.5-4.7 1.5-6.7 2.7-4.7 2.9-8.7 7-9.6 15.3-0.9 8.4-1.8 14.1 0.3 11.5 2.1-2.7 4.1-5.4 9.2-6 4-0.4 8-1.8 11.7-3.5 4.2-1.9 9.3-5 10-10 0.4-2.9-0.6-5.2-2.3-6.9z"/>
	<path id="Layer" fill-rule="evenodd" class="s1" d="m22.7 98.3q-0.3 0-0.4-0.1c-0.6-0.7-0.3-3.3 0.3-8.7q0.2-1.6 0.4-3.5c1-9.1 5.7-13 9.7-15.5 2.1-1.2 4.5-2.2 6.7-2.7q1.6-0.3 3.4-0.3c3.7 0.1 7.2 1.4 9.4 3.5 2 1.8 2.8 4.3 2.4 7-0.6 4.1-3.9 7.4-10.1 10.2-4.6 2-8.3 3.2-11.8 3.5-4.9 0.6-6.8 3.1-8.9 5.7l-0.1 0.2c-0.5 0.5-0.8 0.8-1 0.7zm20.1-30.4q-1.8 0-3.3 0.3c-2.1 0.5-4.5 1.5-6.5 2.7-4.2 2.5-8.6 6.3-9.5 15.2q-0.2 1.8-0.4 3.4c-0.5 4.2-0.9 7.9-0.5 8.4h0.1c0 0 0.2 0 0.6-0.6l0.2-0.2c2-2.5 4.1-5.2 9.2-5.8 3.4-0.4 7.1-1.5 11.6-3.5 6.1-2.7 9.3-5.9 9.9-9.8 0.3-2.6-0.4-5-2.3-6.7-2.1-2.1-5.5-3.3-9.1-3.4z"/>
	<path id="Layer" class="s2" d="m37.5 68.8c-1.5 0.5-3.1 1.2-4.5 2.1-4.2 2.5-8.6 6.3-9.5 15.2q-0.2 1.8-0.4 3.4c-0.5 4.2-0.9 7.9-0.5 8.4h0.1c0 0 0.2 0 0.6-0.6l0.2-0.2c2-2.5 4.1-5.2 9.2-5.8 3.4-0.4 7.1-1.5 11.6-3.5 6-2.7 9.2-5.8 9.8-9.5q0-0.7 0.1-1.3-0.6-1.4-0.4-2.8-0.5-1.6-1.9-2.9-0.5-0.5-1.1-0.9-0.8-0.2-1.8-0.7 0.8 0.5 1.3 0.9c0 0-22.6 4.2-25.4 21.7-0.1 0.7 0 1 0.3 1 0.2 0 0.7-0.5 1-1.3 0 0 4.6-16.5 24.9-19.8 0.9 0 5.1 11.7-13.7 16-5.7 1.3-8.5 2.5-11.8 6.1-1.6 1.7-2.5 2.7-2.8 2.7-0.5 0-0.3-1.1-0.1-3.5 0.5-4.7 0.7-17.9 12-23.5q1.5-0.7 2.8-1.2zm9.1-0.4q0.1 0.1 0.3 0.2l-0.2-0.1z"/>
	<path id="Layer" fill-rule="evenodd" class="s3" d="m45.8 68q0.5 0.3 0.9 0.5l-0.1-0.1c-1.1-0.3-2.3-0.6-3.8-0.6-1.5 0-3.2 0.3-5.3 1-1.5 0.5-3.1 1.2-4.5 2.1-4.2 2.5-8.6 6.3-9.5 15.2q-0.2 1.8-0.4 3.4c-0.5 4.2-0.9 7.9-0.5 8.4h0.1c0 0 0.2 0 0.6-0.6l0.2-0.2c2-2.5 4.1-5.2 9.2-5.8 3.4-0.4 7.1-1.5 11.6-3.5 6-2.7 9.2-5.8 9.8-9.5q0 0.5 0 1c-1.3 4.3-5.9 7-9.7 8.7-3.7 1.7-7.7 3.1-11.7 3.5-5.1 0.6-7.1 3.3-9.2 6q-0.5 0.6-0.8 0.6c-1 0-0.2-5.1 0.5-12.1 0.9-8.3 4.9-12.4 9.6-15.3 2-1.2 4.4-2.2 6.7-2.7q1.4-0.3 3-0.3 1.7 0 3.3 0.3zm5.5 2.4q0.4 0.4 0.8 0.7c0.8 0.8 1.4 1.7 1.8 2.8q0 0.2-0.1 0.4-0.5-1.7-1.9-3-0.5-0.5-1.1-0.9 0.3 0 0.5 0z"/>
	<path id="Layer" class="s4" d="m42.6 68.5c-2.1 0-4.9 0.4-7.5 1.8-5.1 2.6-5.9 7.2-4.1 7.2 0.4 0 0.9-0.3 1.6-0.8 6.7-5.9 11.9-6.9 11.9-6.9 2.2-0.5 0.8-1.3-1.9-1.3z"/>
	<path id="Layer" class="s5" d="m49 73.1q-0.6 0-1.3 0.2c0 0-10.4 2.7-14.6 9-1.7 2.5-1 3.5 0.8 3.5 1.4 0 3.5-0.6 5.6-1.5q0-0.4 0.4-1.1-0.1 0.1-0.1 0.3-0.2 0.5-0.2 0.7 0.4-0.1 0.7-0.3v-0.2c0-0.5 1.1-1.7 0.9-1.8h-0.1c0 0-0.3 0-0.7 0.4 0.4-0.4 0.7-0.7 1-0.7h0.1c0.3 0.2 0.2 0.9-0.2 1.8 1.2-0.6 2.4-1.3 3.4-2 4.8-3.4 7.4-8.3 4.3-8.3z"/>
	<path id="Layer" class="s1" d="m25.5 92.4c-0.1 0-0.2-0.2-0.2-0.3 3.9-17 25.9-21.2 26.1-21.3 0.1 0 0.2 0.1 0.2 0.2 0.1 0.1 0 0.2-0.1 0.3-0.2 0-22 4.2-25.8 20.9 0 0.1-0.1 0.2-0.2 0.2z"/>
	<path id="Layer" class="s6" d="m54.7 67.6c0 0-1.9-8.2-10.6-8.5-8.7-0.4-11 1.8-15 8.5-1.6 2-0.2 0.9 2.3-0.3 1.6-0.7 3.7-1.4 5.7-1.4 5.5 0.1 8.5 1.7 11.7 3.5 3.3 1.8 4.4 0.4 4.1-1-0.2-0.6 0.4-0.2 1 0.2 0.9 0.5 1.7 1.1 0.8-1z"/>
	<path id="Layer" class="s1" d="m53 68.3l-0.2-0.1c-3.9-7.1-13.2-7.3-13.3-7.3-0.1 0-0.2-0.1-0.2-0.2 0-0.1 0.1-0.2 0.3-0.2 0 0 9.5 0.2 13.6 7.5 0 0.1 0 0.2-0.1 0.3z"/>
	<path id="Layer" class="s7" d="m42.4 59.2c-7.3 0-9.5 2.4-13.1 8.5q-0.4 0.5-0.5 0.7c0.2-0.1 0.5-0.3 0.7-0.4 1.6-0.8 4.5-2.3 7.5-2.3h0.1c5.3 0.1 8.3 1.5 11.8 3.5q1.5 0.8 2.5 0.8 0.7 0 1-0.4c0.3-0.3 0.4-0.7 0.3-1.2-0.1-0.1-0.1-0.3 0-0.4-3.2-5.4-9.5-6.7-12.1-7 3.1 0.6 8.9 2.3 11.3 6.7 0.4 0.8 0.1 1.6-0.9 1.6-0.6 0-1.5-0.3-2.7-1.1-2.2-1.3-6.2-2.9-10.6-2.9-2.3 0-4.6 0.4-6.8 1.6-0.5 0 2.3-5.8 7.4-6.8q2.2-0.4 4.1-0.4c3.4 0 6.2 0.9 8.2 2.7 2.6 2.2 3.7 5.4 3.1 5.4q-0.1 0-0.4-0.2c-1.1-0.9-4.4-6.7-12.1-7 2.9 0.4 8.9 1.9 11.9 7.2 0.2 0.1 0.5 0.3 0.9 0.6l0.2 0.1q0-1-0.1-1.9c-0.9-2.3-3.5-7.1-10-7.3q-0.9-0.1-1.7-0.1z"/>
	<path id="Layer" class="s8" d="m53.1 67.8l0.1 0.2v0.1c0.2 0.1 0.5 0.3 0.7 0.5q0.1 0.1 0.3 0.1 0-0.1 0-0.2l-0.2-0.1c-0.4-0.3-0.7-0.5-0.9-0.6zm-10.7-8.8c-7.3 0-9.6 2.4-13.3 8.6-0.7 0.8-0.8 1.1-0.6 1.1 0.3 0 1.4-0.7 2.9-1.4 1.6-0.7 3.6-1.4 5.6-1.4h0.1c5.5 0.1 8.5 1.7 11.7 3.5 1.1 0.6 2 0.8 2.6 0.8 1.2 0 1.7-0.9 1.5-1.8v-0.1l-0.1-0.1-0.1-0.2c-0.1 0.1-0.1 0.3 0 0.4 0.1 0.5 0 0.9-0.3 1.2q-0.3 0.4-1 0.4-1 0-2.5-0.8c-3.5-2-6.5-3.4-11.8-3.5h-0.1c-3 0-5.9 1.5-7.5 2.3-0.2 0.1-0.5 0.3-0.7 0.4q0.1-0.2 0.5-0.7c3.6-6.1 5.8-8.5 13.1-8.5q0.8 0 1.7 0.1c6.5 0.3 9.1 5 10 7.3q0-0.4 0-0.7c-1.1-2.4-3.8-6.6-10-6.8q-0.9-0.1-1.7-0.1z"/>
	<path id="Layer" class="s8" d="m40.6 60.6q-0.6 0-1.3 0.1l0.1 0.1q0.4 0 1.2 0.2c2.6 0.3 8.9 1.6 12.1 7l0.1 0.2 0.1 0.1q-0.1-0.3 0.1-0.3 0.1 0.1 0.2 0.1v-0.1l-0.1-0.2c-3-5.3-9-6.8-11.9-7.2q-0.3 0-0.6 0z"/>
	<path id="Layer" class="s9" d="m44.4 62.9c-1.3 0-0.3 1.1 1.2 2.3 1.6 1.1 3.7 2.3 4.5 2.3 0.5 0 0.6-0.3 0.1-1.1-1.3-2.3-5.6-3.5-5.6-3.5z"/>
	<path id="Layer" class="s5" d="m68.3 67.7q-0.4 0-0.8 0.3c-0.7 0.4-0.8 0.9-0.7 1.4 0.3 0.8 1.2 1.4 2 1.8q1.4 0.7 2.7 1.4c0.3 0.2 0.7 0.5 1.1 0.5 0.3 0 0.5-0.1 0.6-0.4 0.2-0.7-1-2.2-1.4-2.6-0.7-0.9-1.6-1.8-2.7-2.2q-0.4-0.2-0.8-0.2z"/>
	<path id="Layer" class="s10" d="m75.4 104l-3.3 25c-0.1 3.4-7.5 6-16.6 5.9-9.1-0.1-16.5-3-16.4-6.4l-3.9-26.7z"/>
	<path id="Layer" class="s11" d="m75.4 104h-0.1l-3.3 25c0 1.6-1.8 3-4.6 4.1-2.9 1-6.8 1.7-11.2 1.7q-0.4 0-0.7 0c-4.5-0.1-8.6-0.8-11.6-2-3-1.1-4.7-2.6-4.7-4.2v-0.1l-3.9-26.5 40.1 2.1v-0.1l0.1-0.1-40.3-2.2-0.1 0.1v0.1l3.9 26.6h0.1-0.1v0.1c0 1.7 1.9 3.3 4.8 4.4 3 1.2 7.1 1.9 11.7 2q0.3 0 0.7 0c4.4 0 8.3-0.6 11.2-1.7 2.9-1.1 4.7-2.5 4.8-4.3h-0.1 0.1l3.4-25h-0.1v-0.1z"/>
	<path id="Layer" class="s12" d="m75.4 104l-3.3 25c-0.1 3.4-7.5 6-16.6 5.9-9.1-0.1-16.5-3-16.4-6.4l-3.9-26.7z"/>
	<path id="Layer" class="s13" d="m75.4 104h-0.1l-3.3 25c0 1.6-1.8 3-4.6 4.1-2.9 1-6.8 1.7-11.2 1.7q-0.4 0-0.7 0c-4.5-0.1-8.6-0.8-11.6-2-3-1.1-4.7-2.6-4.7-4.2v-0.1l-3.9-26.5 40.1 2.1v-0.1l0.1-0.1-40.3-2.2-0.1 0.1v0.1l3.9 26.6h0.1-0.1v0.1c0 1.7 1.9 3.3 4.8 4.4 3 1.2 7.1 1.9 11.7 2q0.3 0 0.7 0c4.4 0 8.3-0.6 11.2-1.7 2.9-1.1 4.7-2.5 4.8-4.3h-0.1 0.1l3.4-25h-0.1v-0.1z"/>
	<path id="Layer" class="s14" d="m39.6 108.9l2.5 17.5c0 0 1.1 5.6 7.8 7q1.2 0.3 2.3 0.3c5.8 0 10.6-4.8 11.1-10.4 0.4-6.8 0.4-12.6 0.4-12.6 0 0-4 0.7-9.3 0.7-4.6 0-10.3-0.5-14.8-2.5z"/>
	<path id="Layer" class="s15" d="m75.1 105.7c-1.1 1-2.8 1.9-4.7 2.7-1.7 0.6-3.6 1.1-5.7 1.5q0.8 0.1 2.1 0.1c1.1 0 2.4 0 4-0.3 0 0 0.1-0.1 0.3-0.1 0.2 0 0.6 0.3 0.6 1.7 0 2.4-2.2 17-2.2 17 0 0-0.5 3.7-5.7 5.1-1.7 0.5-4.6 0.9-7.7 0.9-6.2 0-13.7-1.5-17-6.6l0.1 0.8v0.1c0 1.6 1.7 3.1 4.7 4.2 3 1.2 7.1 1.9 11.6 2q0.3 0 0.7 0c4.4 0 8.3-0.7 11.2-1.7 2.8-1.1 4.6-2.5 4.6-4.1z"/>
	<path id="Layer" class="s16" d="m75.2 105.6q0 0-0.1 0.1l-3.1 23.3c0 1.6-1.8 3-4.6 4.1-2.9 1-6.8 1.7-11.2 1.7q-0.4 0-0.7 0c-4.5-0.1-8.6-0.8-11.6-2-3-1.1-4.7-2.6-4.7-4.2v-0.1l-0.1-0.8q-0.1-0.1-0.2-0.2l0.2 1c-0.1 3.4 7.3 6.3 16.4 6.4q0.3 0 0.7 0c8.8 0 15.8-2.6 15.9-5.9z"/>
	<path id="Layer" class="s17" d="m34.2 97.1l3.9 0.2c3.9-2.2 10.3-3.6 17.5-3.6 8.1 0 15.1 1.8 18.7 4.4 1.5-0.5 3-1 3-1l-0.4 5.5c-0.6 4.5-9.9 8-21.3 8-11.6 0-21-3.6-21.3-8.2l-0.1-0.1v-4.9z"/>
	<path id="Layer" class="s13" d="m34.2 97.1v0.1l3.9 0.2h0.1c3.8-2.2 10.2-3.6 17.4-3.6 8 0 15 1.8 18.6 4.4h0.1c1.5-0.5 3.1-1 3.1-1l-0.1-0.1h-0.1l-0.4 5.5h0.1v-0.1h-0.1c-0.3 2.2-2.7 4.2-6.5 5.7-3.8 1.4-9 2.3-14.7 2.3-5.8 0-11-0.9-14.8-2.4-3.9-1.4-6.3-3.5-6.4-5.7v-0.1h-0.1v-4.9h-0.1-0.1l0.1 0.1 0.1-0.1v-0.3h-0.1-0.1v0.3h0.1l0.1-0.1h-0.1l-0.1 0.1v4.9 0.1l0.1 0.1 0.1-0.1h-0.1c0.2 2.4 2.6 4.4 6.5 5.9 3.8 1.5 9.1 2.4 14.9 2.4 5.7 0 10.9-0.9 14.8-2.3 3.8-1.5 6.3-3.5 6.6-5.8h-0.1v0.1l0.1-0.1 0.4-5.5v-0.1h-0.1c0 0-1.5 0.5-3 1v0.1l0.1-0.1c-3.7-2.7-10.7-4.4-18.8-4.4-7.3 0-13.7 1.4-17.5 3.6v0.1-0.1l-3.9-0.2-0.1 0.1z"/>
	<path id="Layer" class="s12" d="m34.2 97.1c0 4.8 9.7 8.6 21.6 8.6 11.9 0 21.5-3.8 21.5-8.6 0-4.7-9.6-8.5-21.5-8.5-11.9 0-21.6 3.8-21.6 8.5z"/>
	<path id="Layer" class="s13" d="m34.2 97.1h-0.1c0 2.5 2.5 4.6 6.4 6.2 3.9 1.5 9.3 2.5 15.3 2.5 5.9 0 11.3-1 15.2-2.5 4-1.6 6.4-3.7 6.4-6.2 0-2.4-2.4-4.5-6.4-6.1-3.9-1.5-9.3-2.5-15.2-2.5-6 0-11.4 1-15.3 2.5-3.9 1.6-6.4 3.7-6.4 6.1h0.1 0.1c0-2.2 2.4-4.4 6.3-5.9 3.9-1.5 9.2-2.5 15.2-2.5 5.9 0 11.3 1 15.2 2.5 3.9 1.5 6.2 3.7 6.2 5.9 0 2.3-2.3 4.4-6.2 6-3.9 1.5-9.3 2.5-15.2 2.5-6 0-11.3-1-15.2-2.5-3.9-1.6-6.3-3.7-6.3-6z"/>
	<path id="Layer" class="s18" d="m34.9 97c0 4.2 9.3 7.7 20.8 7.7 11.5 0 20.8-3.5 20.8-7.7 0-4.3-9.3-7.7-20.8-7.7-11.5 0-20.8 3.4-20.8 7.7z"/>
	<path id="Layer" class="s13" d="m34.9 97h-0.1c0 2.2 2.4 4.1 6.2 5.5 3.8 1.4 9 2.3 14.7 2.3 5.8 0 11-0.9 14.8-2.3 3.8-1.4 6.1-3.3 6.2-5.5-0.1-2.2-2.4-4.2-6.2-5.6-3.8-1.4-9-2.2-14.8-2.2-5.7 0-10.9 0.8-14.7 2.2-3.8 1.4-6.2 3.4-6.2 5.6h0.1 0.1c0-2.1 2.3-4 6-5.4 3.8-1.4 9-2.2 14.7-2.2 5.8 0 11 0.8 14.7 2.2 3.8 1.4 6.1 3.3 6 5.4 0.1 2-2.2 3.9-6 5.3-3.7 1.4-8.9 2.3-14.7 2.3-5.7 0-10.9-0.9-14.7-2.3-3.7-1.4-6-3.3-6-5.3z"/>
	<path id="Layer" class="s19" d="m69.1 95.8c0 0 0.4-0.9-3-2.2-3.3-1.2-4.1 1-4.1 1 0 0 0.1-1-1.7-2.1-1.8-1.2-4.5 0.7-4.5 0.7-2.9-1.3-5.1 1.7-5.1 1.7-2.7-2.7-7.2-0.1-7.2-0.1-4.6-1-5.8 2.8-5.8 2.8-1.1 0-1.9 0.3-2.6 0.9 2.3 3.3 10.4 5.9 20 6.2 10.5 0.2 19.2-2.4 20.8-6.1-1.2-1.2-3.4-1.5-3.4-1.5-1-1.5-3.4-1.3-3.4-1.3z"/>
	<path id="Layer" class="s20" d="m69.2 95.9c0.3-1.2-2.4-2.1-3-2.3-1.3-0.5-3.4-0.7-4.2 0.7-0.1 0.2 0 0.2 0 0.2 0.1 0 0.1-0.1 0.1 0 0-0.3-0.2-0.6-0.4-0.8-0.5-0.9-1.4-1.4-2.3-1.6-0.8-0.2-1.8 0.1-2.5 0.4q-0.6 0.3-1.1 0.6c0.1-0.1-1.3-0.3-1.1-0.3-1.1 0-1.9 0.2-2.8 0.8-0.4 0.3-0.7 0.6-1 0.9-0.4 0.5-0.5-0.1-1-0.3-2-0.9-4-0.6-6 0.3-0.4 0.2-0.9 0.2-1.3 0.1-0.3 0-0.6 0-1 0-1 0.1-1.9 0.4-2.7 1.1-0.5 0.4-0.9 1-1.2 1.7-0.1 0.2-2.2 0.7-2.7 1v0.1c1.7 2.3 4.7 3.4 7.3 4.3 4.1 1.3 8.5 1.8 12.9 1.9 4.5 0.2 9-0.3 13.4-1.4 2.6-0.8 6.1-2 7.4-4.6l-0.1-0.1c-1.1-1-2.5-1.1-3.6-1.9-1-0.8-2.1-1-3.2-0.9-0.2 0 0 0.1 0.1 0.1 1.3-0.1 2.3 1 3.6 1.3 1.1 0.2 3.5 0.8 2.5 2.2-0.4 0.5-0.9 0.9-1.4 1.3-3.2 2.5-8 3.2-12 3.7-5.4 0.6-11 0.3-16.4-0.9-2.3-0.5-4.6-1.2-6.7-2.2q-1.2-0.6-2.3-1.5-0.5-0.4-0.8-0.8c-1.1-1.1 2-1.4 2.1-1.4 0.8-2.4 3.4-3.1 5.7-2.7 0.2 0 0.7-0.4 0.9-0.4 2-0.9 4.4-1.2 6.2 0.4h0.2q0.4-0.5 1-1c1.4-1.2 2.1-0.7 4.1-0.7 0.3 0 0.8-0.4 1.2-0.6 1.5-0.7 4.9-0.2 4.8 1.9l0.2 0.1c0.3-0.8 1.1-1.1 1.8-1.3-0.5 0.1 5.6 0.7 5.1 2.5z"/>
	<path id="Layer" class="s21" d="m43.8 95.5c0 0-3.8-0.6-4.5 1.4-0.7 1.9-3.1 0.9-1.6 2.6 1.6 1.7 4 1.8 5.1 0.8 1-0.9 1.4-2.2 3.6-2 2.1 0.2 0.8-1.5-0.5-1.6-1.3 0 1.1-1.6 2.1-1.7 1.1-0.1-2.2-1.2-4.2 0.5z"/>
	<path id="Layer" class="s21" d="m53 97.5c0 0-0.8-1-3.3-1.1-2.5 0-1.1 1-1.2 1.5-0.1 0.4 1.5 1.4 1.5 1.4 0 0 0.8-1.7 3-1.8z"/>
	<path id="Layer" class="s21" d="m51.9 95.2c-0.2 0 1.6-2 3.4-1.4 0.9 0.3 1.6 0.1 2.4-0.1 0.9-0.3 1.7-0.5 2.5 0.1 1.5 1.1 0.9 2 0.9 2 0 0-4.7-0.1-5.2 2 0 0-1.4-2.5-4-2.6z"/>
	<path id="Layer" class="s21" d="m64.3 97.5c-0.1 0-0.4-0.1-1-0.2-1.5-0.1-4.4-0.3-5.4 1.1 0 0-0.6 0.4 0.5 1.3 1.1 0.9 1.9 1.2 1.9 2.3 0 0 1.5-3.2 7.3-1.8 5.8 1.4 6.5-1.1 5.3-1.8-1.2-0.7-3.5 0.3-3.5 0.3 0 0-0.9-2.2-5.1-1.2z"/>
	<path id="Layer" class="s22" d="m67.7 95.6c0 0-1.3-1.5-3-1.1-1.8 0.3 3.5 2.7 3 1.1z"/>
	<path id="Layer" class="s21" d="m57.4 101.4c0 0-1.9-1.5-4.4-0.8 0 0-0.2 2.4-0.8 2.4-0.6 0-1.5-3.6-4.5-3.3-3 0.3-4.4 1.5-3.1 2.6 1.2 1 7.2 2.2 10.8 1.9 3.6-0.3 2.9-1.9 2-2.8z"/>
	<path id="Layer" class="s21" d="m65.3 101.3c0 0-2.5-0.3-3.7 1.2-1.1 1.5 4.1 1.2 5.9 0.3 1.9-0.9-2-1.5-2.2-1.5z"/>
	<path id="Layer" class="s23" d="m56.9 89.9c-9.3 0-16.2 2.6-16.2 2.6-1.4 0.7-0.1 1.7 1.7 1.7 0.9 0 1.8-0.2 2.7-0.7 0.8-0.4 1.5-0.6 2.1-0.6 0.7 0 1.3 0.2 1.8 0.3 0.5 0.2 1 0.3 1.4 0.3 0.3 0 0.6-0.1 0.9-0.4 0.5-0.7 1.5-0.9 2.4-0.9 1 0 1.9 0.2 1.9 0.2 0 0 0.2-0.9 2.9-0.9q0.2 0 0.4 0c3.2 0.1 3.6 1.6 3.6 1.6 0.2-0.9 2.5-0.9 2.8-1.7 0.3-0.9-1-0.9-1-0.9-2.5-0.4-5-0.6-7.4-0.6z"/>
	<path id="Layer" class="s24" d="m43.8 96.3c-0.1-0.2-1.1-0.8-2.9-0.1-1.9 0.7-0.8 1.7 0.6 1.5 1.4-0.3 2.6-0.9 2.3-1.4z"/>
	<path id="Layer" class="s24" d="m51 96.8c0 0-1.3-0.2-1.1 0.3 0.3 0.5 2.4 0 1.1-0.3z"/>
	<path id="Layer" class="s24" d="m60.6 95.1c0 0-0.4-1.5-2-1.3-1.6 0.3 2 2.3 2 1.3z"/>
	<path id="Layer" class="s24" d="m68.8 98.7c0 0-3.1-1.6-3.1-0.1 0 1.5 4.2 1.2 3.1 0.1z"/>
	<path id="Layer" class="s25" d="m60.6 103.2q-0.1 0-0.2 0 0.1 0.1 0.1 0.1 0.1 0 0.1 0 0-0.1 0-0.1z"/>
	<path id="Layer" class="s26" d="m76.5 100.4c-1 4.7-9.7 8.5-9.7 8.5 0 0 5-1.7 6.9-2.8 2-1.2 2.6-3.4 2.6-3.4z"/>
	<path id="Layer" class="s20" d="m42.7 96.8c-0.5-0.5-1.3-0.6-2-0.4-1 0.3-2.4 1.7-1.6 2.7 0.7 0.9 2.1 0.4 2.9 0.1 0.5-0.2 1-0.6 1.2-1.1 0.2-0.5-0.1-1-0.5-1.3l-0.2 0.1c0.9 0.7 0.6 1.5-0.2 2-0.8 0.6-2.5 1-3.1 0-0.6-0.9 0.7-2.1 1.4-2.4 0.6-0.3 1.4-0.1 1.9 0.4z"/>
	<path id="Layer" class="s27" d="m42.9 97.4q0 0.1-0.2 0.4 0.2 0 0.3 0 0-0.2-0.1-0.4z"/>
	<path id="Layer" class="s28" d="m43 97.2q0 0-0.1 0.2 0.1 0.2 0.1 0.4 0.1 0 0.2 0.1 0-0.4-0.2-0.7z"/>
	<path id="Layer" class="s19" d="m43.3 98.1c0 0-0.7-0.7-1.3 0.1-0.7 0.7-0.3 1.4 0.5 1.3 0.7-0.1 1.6-0.8 0.8-1.4z"/>
	<path id="Layer" class="s20" d="m43.4 98.1c-0.2-0.3-0.6-0.4-0.9-0.3-0.6 0.1-1.3 1-0.8 1.5 0.7 0.8 2.7-0.3 1.7-1.2h-0.2c1 0.9-0.9 1.9-1.4 1.1-0.3-0.4 0.2-1 0.5-1.2 0.3-0.3 0.7-0.2 0.9 0.1z"/>
	<path id="Layer" class="s19" d="m70.5 99.3c0 0-1.4-1.3-2.9 0.1-1.4 1.5-0.7 2.7 0.9 2.6 1.5-0.2 3.5-1.5 2-2.7z"/>
	<path id="Layer" class="s20" d="m70.6 99.3c-0.6-0.5-1.3-0.7-2-0.6-1 0.3-2.5 1.8-1.6 2.9 0.7 0.8 2.1 0.4 2.9 0 0.5-0.2 1-0.5 1.2-1 0.2-0.6-0.2-1-0.5-1.3-0.1-0.1-0.3-0.1-0.2 0 2 1.7-2.6 3.7-3.4 2-0.4-0.9 0.7-1.9 1.3-2.3 0.7-0.4 1.6-0.2 2.1 0.3 0 0 0.2 0 0.2 0z"/>
	<path id="Layer" class="s27" d="m70.8 99.8c-0.1 0.3-0.4 0.9-1.5 1.1 0 0-0.7 0.4-1.3 0.4q-0.1 0-0.2 0-0.3 0.1-0.7 0.2c0.3 0.3 0.7 0.4 1.2 0.4 1.3 0 3-1 2.5-2.1z"/>
	<path id="Layer" class="s28" d="m70.8 99.6q0 0 0 0.2c0.5 1.1-1.2 2.1-2.5 2.1-0.5 0-0.9-0.1-1.2-0.4q0 0 0 0c0.2 0.3 0.6 0.5 1.1 0.5q0.1 0 0.3 0c1.4-0.2 3.2-1.3 2.3-2.4z"/>
	<path id="Layer" class="s29" d="m69.3 99.1q-0.3 0-0.5 0c0.4 0.2 0.6 0.5 0.4 0.9q-0.1 0-0.1 0.1c0.4-0.2 1-0.4 1-0.7q0-0.1-0.4-0.2-0.2-0.1-0.4-0.1z"/>
	<path id="Layer" class="s19" d="m71.2 100.5c0 0-0.7-0.7-1.4 0.1-0.6 0.8-0.2 1.4 0.5 1.3 0.7 0 1.7-0.7 0.9-1.4z"/>
	<path id="Layer" class="s20" d="m71.3 100.5c-0.3-0.2-0.7-0.4-1-0.3-0.5 0.1-1.3 1-0.8 1.5 0.7 0.8 2.8-0.3 1.8-1.2h-0.2c0.9 0.9-1 1.9-1.4 1.1-0.3-0.3 0-0.7 0.2-1 0.3-0.3 0.8-0.4 1.2-0.1z"/>
	<path id="Layer" class="s30" d="m35.2 100.7c0 0 0 2.2 0.2 2.7 0.2 0.5 0.8 1.3 0.8 1.3 5.5 4.2 14 5 20.1 5 3.8 0 6.7-0.3 7-0.4 0.8 0 0.4-3.3 0.4-3.3q-4.6 0.5-8.4 0.5c-16.3 0-20.1-5.8-20.1-5.8z"/>
	<path id="Layer" fill-rule="evenodd" class="s31" d="m51.9 95.2c2.6 0.1 4 2.6 4 2.6 0.5-2 4.7-2 5.1-2q0.1 0 0.1 0c0 0 0-0.1 0.1-0.3q0.1 0.1 0.2 0.3c0.3 0.7 2.4 1.1 3.7 1.5q-0.4 0.1-0.8 0.2 0 0 0 0c-0.1 0-0.5-0.1-1-0.2-0.5 0-1.2-0.1-1.9-0.1-1.3 0-2.8 0.3-3.5 1.2 0 0-0.6 0.4 0.5 1.3 1.1 1 1.9 1.2 1.9 2.3 0 0 1-2.2 4.6-2.2q0.9 0 2.1 0.3-0.1 0.1-0.2 0.3-0.7-0.2-1.6-0.2-0.7 0-1.5 0.1c-3.1 0.6-4 2.8-3.3 2.9-0.7 0.1-1.5 0.3-2.2 0.5q-0.7 0.1-1.3 0.3c1.8-0.6 1.2-1.8 0.5-2.6 0 0-1.3-1-3.1-1q-0.6 0-1.3 0.2c0 0-0.2 2.4-0.8 2.4q0 0 0 0c-0.6 0-1.4-3.3-4.2-3.3q-0.1 0-0.3 0c-2.8 0.3-4.1 1.4-3.4 2.3-0.4-0.2-0.8-0.4-1.4-0.8q-0.5-0.2-0.8-0.5 0.4-0.1 0.7-0.4c1-0.8 1.4-2 3.2-2q0.2 0 0.4 0 0.1 0 0.3 0c1.7 0 0.4-1.5-0.8-1.6-0.6 0-0.4-0.3 0.1-0.7 1.2-0.4 2.8-1 4.4-1.3q0.1 0.1 0.2 0.2h0.2q0.2-0.2 0.3-0.4 0.8-0.1 1.5-0.1c-0.5 0.4-0.8 0.8-0.7 0.8zm-2.1 4.3c-0.1-0.1-1.1-0.7-2.4-0.7-0.8 0-1.8 0.2-2.8 1.2-0.9 0.6-1.1 1.4-1.1 1.4q0.6-0.9 1.1-1.4c0.6-0.4 1.4-0.8 2.6-0.8q0.8 0 1.8 0.3c0 0 3 1.2 3.3 3.1 0 0 0.4-1.9-0.7-2.2-0.5-0.2 0.5-0.5 2-0.5 1.5 0 3.5 0.3 4.8 1.5 0.6 0.5 1 0.7 1.1 0.7 0.6 0-0.7-2.2-2.5-2.8 0 0 0.8-1.9 3.2-2.3 0.8-0.1 0.7-0.3 0-0.3-1 0-3.3 0.4-4.1 2 0 0-2.1-3.3-6-3.3q-0.3 0-0.5 0c0 0 4.1 1.3 4.3 2.3 0.2 1.1-2.6 0.6-3.3 1.6 0 0-0.3 0.2-0.6 0.2q-0.1 0-0.2 0zm3.2-2c0 0-0.8-1-3.3-1.1q-0.1 0-0.2 0c-2.2 0-0.9 1-1 1.5-0.1 0.4 1.5 1.4 1.5 1.4 0 0 0.8-1.7 3-1.8z"/>
	<path id="Layer" class="s32" d="m50.8 94.6q-0.2 0-0.3 0.1 0 0 0 0 0 0 0.1 0 0.1 0 0.2-0.1z"/>
	<path id="Layer" class="s31" d="m46.8 103.2q0.1 0 0.1 0.1c0.8 0.3 1.7 0.4 2.6 0.5-1-0.2-1.9-0.4-2.7-0.6zm3.7-8.5q0 0 0 0 0 0 0 0 0 0 0 0z"/>
	<path id="Layer" class="s33" d="m51.1 94.5q-0.1 0.1-0.3 0.1-0.1 0.1-0.2 0.1-0.1 0-0.1 0 0 0 0 0-0.1 0-0.1 0 0.1 0.1 0.2 0.2h0.2q0.2-0.2 0.3-0.4z"/>
	<path id="Layer" class="s34" d="m46 96q-0.5 0.2-0.9 0.3c-2 0.6 0 1.1-1.5 1.9 0.4 0.7-0.5 1.4-1.3 1.4q-0.3 0-0.5-0.2-0.5 0.7 0.3 1.3 0.4-0.1 0.7-0.4c1-0.8 1.4-2 3.2-2q0.2 0 0.4 0 0.1 0 0.3 0c1.7 0 0.4-1.5-0.8-1.6-0.6 0-0.4-0.3 0.1-0.7z"/>
	<path id="Layer" fill-rule="evenodd" class="s34" d="m49.7 96.4c2.5 0.1 3.3 1.1 3.3 1.1-2.2 0.1-3 1.8-3 1.8 0 0-1.6-1-1.5-1.4 0.1-0.5-1.2-1.5 1-1.5q0.1 0 0.2 0zm1.3 0.4c0 0-0.3 0-0.6 0-0.3 0-0.6 0.1-0.5 0.3 0.1 0.2 0.3 0.2 0.6 0.2 0.6 0 1.4-0.3 0.5-0.5z"/>
	<path id="Layer" class="s34" d="m52.7 94.4q0 0-0.1 0c-0.5 0.4-0.8 0.8-0.7 0.8 2.6 0.1 4 2.6 4 2.6 0.5-2 4.7-2 5.1-2q0.1 0 0.1 0c0 0 0-0.1 0.1-0.3q-0.2-0.2-0.6-0.3 0 0.2-0.3 0.2c-0.2 0-0.5-0.1-0.9-0.2-0.4 0-0.7 0.1-0.7 0.1-1.1-0.4-2 0.2-4.5-0.7q-0.7-0.2-1.5-0.2z"/>
	<path id="Layer" class="s34" d="m61.4 97.2c-1.3 0-2.8 0.3-3.5 1.2 0 0-0.6 0.4 0.5 1.3 1.1 0.9 1.9 1.2 1.9 2.3 0 0 1-2.2 4.6-2.2q0.9 0 2.1 0.3 0.1-0.3 0.3-0.5c-0.8-0.1-1.6-0.4-1.6-1 0-0.4 0.3-0.6 0.6-0.6-0.1-0.3-0.6-0.5-1.2-0.7q-0.4 0.1-0.8 0.2 0 0 0 0c-0.1 0-0.5-0.1-1-0.2-0.5 0-1.2-0.1-1.9-0.1z"/>
	<path id="Layer" class="s34" d="m48 99.7q-0.1 0-0.3 0c-2.8 0.3-4.1 1.4-3.4 2.3 0.7 0.4 1.3 0.6 2.5 1.2 0.8 0.2 1.7 0.4 2.7 0.6 1.9 0.2 4 0 5.3 0.2q0.3 0.1 0.7 0.1 0.6 0 1.4-0.1c1.8-0.6 1.2-1.8 0.5-2.6 0 0-1.3-1-3.1-1q-0.6 0-1.3 0.2c0 0-0.2 2.4-0.8 2.4q0 0 0 0c-0.6 0-1.4-3.3-4.2-3.3z"/>
	<path id="Layer" class="s35" d="m50.4 96.8c-0.3 0-0.6 0.1-0.5 0.3 0.1 0.2 0.3 0.2 0.6 0.2 0.6 0 1.4-0.3 0.5-0.5 0 0-0.3 0-0.6 0z"/>
	<path id="Layer" class="s35" d="m60 95.1q-0.3 0-0.6 0.1c0.4 0.1 0.7 0.2 0.9 0.2q0.3 0 0.3-0.2-0.3-0.1-0.6-0.1z"/>
	<path id="Layer" class="s35" d="m66.3 98c-0.3 0-0.6 0.2-0.6 0.6 0 0.6 0.8 0.9 1.6 1 0.2-0.3 0.6-0.5 0.9-0.7-0.9-0.2-2-0.3-1.9-0.8q0-0.1 0-0.1z"/>
	<path id="Layer" fill-rule="evenodd" class="s36" d="m44.6 100c-0.9 0.6-1.1 1.4-1.1 1.4q0.5-0.9 1.1-1.4zm5.5-4.6q-0.3 0-0.5 0c0 0 4.1 1.3 4.3 2.3 0.2 1.1-2.6 0.6-3.3 1.6 0 0-0.3 0.2-0.6 0.2q-0.1 0-0.2 0c-0.1-0.1-1.1-0.7-2.4-0.7-0.8 0-1.8 0.2-2.8 1.2 0.6-0.4 1.4-0.8 2.6-0.8q0.8 0 1.8 0.3c0 0 3 1.2 3.3 3.1 0 0 0.4-1.9-0.7-2.2-0.5-0.2 0.5-0.5 2-0.5 1.5 0 3.5 0.3 4.8 1.5 0.6 0.5 1 0.7 1.1 0.7 0.6 0-0.7-2.2-2.5-2.8 0 0 0.8-1.9 3.2-2.3 0.8-0.1 0.7-0.3 0-0.3-1 0-3.3 0.5-4.1 2 0 0-2.1-3.3-6-3.3zm6 3.3q0 0 0 0z"/>
	<path id="Layer" class="s31" d="m65.8 100.9c-3.8 0-4.9 2.1-5.2 2.3q0.4 0 0.8 0 0.1 0 0.2 0 0 0 0 0c-0.2-0.2-0.2-0.4 0-0.7 0.8-1.1 2.3-1.2 3.1-1.2 0.3 0 0.6 0 0.6 0 0.1 0 0.8 0.1 1.4 0.3q0.2 0 0.3-0.1-0.2-0.2-0.3-0.5-0.4-0.1-0.9-0.1z"/>
	<path id="Layer" class="s34" d="m64.7 101.3c-0.8 0-2.3 0.1-3.1 1.2-0.2 0.3-0.2 0.5 0 0.7q0.1 0 0.2 0c2.5 0 2.6-0.9 4.5-1.5q0.2 0 0.4-0.1c-0.6-0.2-1.3-0.3-1.4-0.3 0 0-0.3 0-0.6 0z"/>
	<path id="Layer" class="s36" d="m65.2 100.2q-0.7 0-1.5 0.1c-3.1 0.6-4 2.8-3.3 2.9q0.1 0 0.2 0c0.3-0.2 1.4-2.3 5.2-2.3q0.5 0 0.9 0.1 0-0.3 0.1-0.6-0.7-0.2-1.6-0.2z"/>
	<path id="Layer" class="s31" d="m43.4 98.3q-0.1 0-0.2 0.1-0.9 0.4-1.3 0.9 0.2 0.2 0.5 0.2c0.6 0 1.4-0.6 1-1.2z"/>
	<path id="Layer" class="s33" d="m43.6 98.2q-0.1 0.1-0.2 0.1c0.4 0.6-0.4 1.2-1 1.2q-0.3 0-0.5-0.2-0.1 0.1-0.1 0.1 0.2 0.2 0.5 0.2c0.8 0 1.7-0.7 1.3-1.4z"/>
	<path id="Layer" class="s31" d="m68.4 99q0 0-0.1 0c-0.5 0.3-1.3 1-1.4 1.8 0.1 0.1 0.3 0.3 0.6 0.4q0.2 0.1 0.3 0.1c0.6-0.2 0.9-0.5 1.3-1.2q-0.2 0.1-0.3 0.1c-0.2 0.2-0.7 0.4-1 0.4-0.2 0-0.3-0.1-0.3-0.2q0-0.2 0.2-0.4c0 0 0.5-0.6 1.1-0.9q-0.2 0-0.4-0.1z"/>
	<path id="Layer" class="s33" d="m68.2 98.9c-0.3 0.2-0.7 0.4-0.9 0.7q-0.2 0.2-0.3 0.5-0.1 0.1-0.2 0.3-0.1 0.3-0.1 0.6 0.1 0.3 0.3 0.5 0 0 0 0c-0.2-0.3-0.2-0.8 0.1-1.4v0.1q-0.3 0.4-0.2 0.6c0.1-0.8 0.9-1.5 1.4-1.8q0.1 0 0.1 0-0.1 0-0.2-0.1z"/>
	<path id="Layer" class="s37" d="m66.9 100.8q0 0.2 0.1 0.5 0.1 0.1 0.1 0.2 0.4-0.1 0.7-0.2-0.1 0-0.3-0.1c-0.3-0.1-0.5-0.3-0.6-0.4z"/>
	<path id="Layer" class="s38" d="m67.1 100.1c-0.3 0.6-0.3 1.1-0.1 1.4q0.1 0 0.1 0 0-0.1-0.1-0.2-0.1-0.3-0.1-0.5-0.1-0.2 0.2-0.6z"/>
	<path id="Layer" class="s39" d="m68.8 99.1c-0.6 0.3-1.1 0.9-1.1 0.9q-0.2 0.2-0.2 0.4c0 0.1 0.1 0.2 0.3 0.2 0.3 0 0.8-0.2 1-0.4q0.1 0 0.3-0.1 0-0.1 0.1-0.1c0.2-0.4 0-0.7-0.4-0.9z"/>
	<path id="Layer" fill-rule="evenodd" class="s1" d="m51.4 70.4q-1.1 0-2.7-0.8c-2.9-1.7-6-3.4-11.6-3.5-2.9 0-5.8 1.5-7.4 2.3-0.7 0.4-1 0.5-1.2 0.5q-0.2 0-0.3-0.1c-0.1-0.2 0-0.4 0.7-1.3 3.9-6.5 6.3-9 15.2-8.7 8.8 0.4 10.8 8.7 10.8 8.8 0.5 1.1 0.5 1.4 0.4 1.6q-0.2 0.1-0.4 0.1c-0.3 0-0.7-0.3-1.1-0.6-0.3-0.1-0.6-0.3-0.7-0.4 0.1 0.6 0 1.2-0.3 1.6-0.2 0.2-0.7 0.5-1.4 0.5zm-14.3-4.7c5.3 0.1 8.3 1.5 11.8 3.5q1.5 0.8 2.5 0.8 0.7 0 1-0.4c0.3-0.3 0.4-0.7 0.3-1.2-0.1-0.1-0.1-0.3 0-0.4q0.1-0.2 0.3-0.2c0.2 0 0.5 0.2 1 0.6 0.3 0.2 0.7 0.5 0.9 0.5 0-0.1 0-0.4-0.4-1.2 0-0.1-2-8.1-10.4-8.4-8.7-0.4-10.9 1.9-14.8 8.4q-0.4 0.5-0.5 0.7c0.2-0.1 0.5-0.3 0.7-0.4 1.6-0.8 4.6-2.4 7.6-2.3z"/>
	<path id="Layer" class="s0" d="m53.6 96.6c0 0 2.7-37.9-1.6-51.9-0.7-2 4.7 1.4 3.7 18.6 1.5-5 7.9-14.9 13.9-14.8 1.2 0-17.3 8.2-12.5 32.7 1.6 9.8 2.2 16.3 0.7 14.8-0.7-0.8-1.7-0.2-2.5 0.4-0.9 0.6-1.6 1.2-1.7 0.2z"/>
	<path id="Layer" fill-rule="evenodd" class="s1" d="m54 97.3c-0.3 0-0.6-0.1-0.6-0.7 0-0.4 2.6-38-1.7-51.8q-0.1-0.4 0.1-0.7c0.2-0.2 0.6-0.1 1.1 0.4 0.3 0.4 3.6 4.3 3.1 17.3 2.2-5.5 8.1-13.6 13.6-13.5 0.2 0 0.3 0.1 0.3 0.1 0 0.3-0.1 0.3-0.8 0.9-13.1 9.2-13.6 22.4-11.8 31.8 2 12.4 1.7 14.6 1.3 15.1-0.2 0.2-0.3 0.2-0.4 0.2q-0.2 0-0.5-0.3-0.3-0.3-0.7-0.3c-0.5 0-1.2 0.5-1.8 0.9-0.5 0.3-0.9 0.6-1.2 0.6zm-1.9-52.9q0 0.1 0.1 0.3c4.3 13.8 1.6 51.5 1.6 51.9q0 0.3 0.2 0.3c0.2 0 0.6-0.3 1-0.6 0.6-0.4 1.3-0.9 2-0.9q0.6 0 1 0.4c0.1 0.2 0.2 0.2 0.2 0.2 0.3-0.1 0.8-1.8-1.3-14.8-1.9-9.6-1.3-22.9 11.9-32.3q0.2-0.1 0.3-0.2c-5.6 0.5-11.7 9.6-13.2 14.6-0.1 0.2-0.2 0.2-0.3 0.2-0.1 0-0.2-0.1-0.2-0.2 0.9-14-2.5-18.1-2.9-18.5-0.2-0.2-0.3-0.3-0.4-0.4z"/>
	<path id="Layer" class="s40" d="m54.6 77.8c-0.2 9.6-0.7 17.5-0.8 18.6 0.7 0 1.3-0.2 2.2-0.7q0.5-0.3 1.1-0.3c0.4 0 0.9 0.1 1.3 0.3 0.2-0.9 0.2-4-1.5-14.5q-0.1-0.4-0.2-0.8l-0.1-0.2c0.3 2.9 0.7 5.2 1.1 7.7 0.5 3.3 0.6 6.9 0 6.9h-0.1c-0.8-0.3-0.3-3.6-1-6.8-0.1-0.6-0.2-0.9-0.2-0.9-0.3 0 0.1 4.9-0.2 6.8-0.2 1.3-0.8 1.7-1.3 1.7-0.4 0-0.7-0.3-0.7-0.7 0.5-4.3 0.6-13.2 0.6-13.2 0-0.6 0-1.8 0-3.5q-0.1-0.2-0.2-0.4zm-2.5-33.4q0 0.1 0.1 0.3c1.9 6.2 2.4 17.3 2.4 27.7l0.1-0.2c0-2.5 0-5.3 0.1-7.7 0.2-6.1-1.4-16.3-1.1-16.3q0.1 0 0.1 0.2c0.8 2.3 1.6 5.6 1.6 10.1-0.1 3.6-0.1 5.8 0.2 5.8q0.2 0 0.4-0.4c3.3-9.1 9.2-13.2 9.8-13.2q0.2 0-0.2 0.4c-4.5 4.1-6.9 8.4-8.2 12.2q0.2-0.3 0.5-0.6c1.8-4.9 5.2-9.7 10.9-13.8q0.2-0.1 0.3-0.2c-5.6 0.5-11.7 9.6-13.2 14.6q-0.1 0.2-0.2 0.2h-0.1c-0.1 0-0.2-0.1-0.2-0.2 0.9-14-2.5-18.1-2.9-18.5-0.2-0.2-0.3-0.3-0.4-0.4z"/>
	<path id="Layer" class="s41" d="m56.7 80.4q0.1 0.4 0.2 0.8c1.7 10.5 1.7 13.6 1.5 14.5h0.1 0.1c0.4-1.5-0.3-7.1-1.5-14.5q0-0.3-0.1-0.6-0.1-0.1-0.3-0.2zm-2.3-2.9c-0.2 9.7-0.7 17.9-0.8 18.9h0.2c0.1-1.1 0.6-9 0.8-18.6q-0.1-0.1-0.2-0.3zm-2.3-33.2c-0.2 0-0.2 0.1-0.1 0.5 1.9 6.3 2.5 17.6 2.4 28q0.1-0.2 0.2-0.4c0-10.3-0.5-21.4-2.4-27.7q-0.1-0.2-0.1-0.2c0.1 0 0.3 0.1 0.5 0.3 0.3 0.4 3.7 4.5 2.9 18.5 0 0.1 0 0.2 0.1 0.2h0.1q0.1 0 0.2-0.1c1.5-5.1 7.6-14.2 13.2-14.6q-0.1 0-0.2 0.1c-5.8 4.1-9.1 8.9-11 13.8q0.2-0.2 0.4-0.4c3.9-10 12.1-13.8 11.3-13.8h-0.1c-5.9 0-12.3 9.9-13.8 14.8 0.9-14.3-2.8-19-3.6-19z"/>
	<path id="Layer" class="s0" d="m60.3 69.8c0 0-4.7-0.2-6.1 4-1.4 4.2 4.4 8.8 11 10.9 6.6 2 10.8 4.9 10.4 9.1-0.4 4.1 2.6-6.7 1.5-9.6-1.2-2.8 0.7-0.3 0.9 1.1 0.1 0.6-0.3-4.4-2-9.5-2.3-6.9-6.9-13.9-15.7-6z"/>
	<path id="Layer" fill-rule="evenodd" class="s1" d="m75.6 94.9l-0.2-0.1c0-0.1-0.1-0.2 0-1.1 0.3-3.6-3.1-6.6-10.3-8.8-5-1.6-9.2-4.5-10.7-7.4q-1-2-0.4-3.8c1.3-4 5.6-4.1 6.3-4.1 2.6-2.4 5-3.6 7.3-3.5 2.6 0 4.9 1.8 6.8 5.3 2.6 4.9 3.8 12.3 3.8 13.8v0.1q0 0.1 0 0.2-0.1 0.1-0.2 0.1-0.2 0-0.2-0.3c-0.1-0.5-0.5-1.3-0.8-1.7q0.1 0.2 0.3 0.5c0.9 2.3-0.8 9.8-1.4 10.7q-0.1 0.1-0.3 0.1zm-15.3-24.9c-0.5 0-4.7 0-5.9 3.9q-0.5 1.6 0.4 3.4c1.4 2.8 5.5 5.6 10.5 7.2 7.3 2.3 10.9 5.4 10.5 9.3 0.6-2.1 1.8-7.6 1.1-9.5-0.5-1.1-0.5-1.4-0.4-1.5q0.1-0.1 0.3-0.1c0.2 0 0.5 0.4 0.8 0.9-0.7-4.7-3.2-17-10.1-17.1-2.1 0-4.4 1.1-7 3.4l-0.2 0.1z"/>
	<path id="Layer" fill-rule="evenodd" class="s2" d="m72.8 86c0.2-4.2-3.3-8.1-5.9-11-1.2-1.4-2.7-2.5-3.9-3.9-1.2-1.5 0.7-3.3 3.3-3.9q0.5-0.2 1.1-0.2c4.7 0 11 7.3 8.5 23.5 0 0-2.3-5.2-9-7.2-6.7-2-12.9-5.4-11.4-9.6 0.7-1.6 2-2.7 3.6-2.7q0.2 0 0.3 0 0.7 0 1.4 0.3c1.4 0.7 2.6 1.8 3.9 2.7 2.4 1.9 4.4 4.3 6 7 0.9 1.6 1.5 3.3 2.1 5zm-5.4-19.5c-2 0-4.4 1.2-6.9 3.4l-0.1 0.1h-0.1c-0.8 0-4.7 0.2-5.9 3.9q-0.5 1.6 0.4 3.4c1.4 2.8 5.5 5.6 10.5 7.2 7.3 2.3 10.9 5.4 10.5 9.3 0.6-2.1 1.8-7.6 1.1-9.5-0.5-1.1-0.5-1.4-0.4-1.5q0.1-0.1 0.3-0.1c0.2 0 0.5 0.4 0.8 0.9-0.7-4.7-3.2-17-10.1-17.1z"/>
	<path id="Layer" fill-rule="evenodd" class="s3" d="m76 75.8c1.6 4.8 2 9.6 2 9.6v-0.1c-0.1-0.9-1-2.4-1.2-2.4-0.2 0-0.1 0.4 0.3 1.3 0.9 2.4-1.1 10.5-1.5 10.5 0 0-0.1-0.3 0-0.9 0.4-4.2-3.8-7.1-10.4-9.1-6.6-2.1-12.4-6.7-11-10.9 1.2-3.9 5.4-4 6-4h0.1c2.8-2.5 5.2-3.5 7.1-3.5 4.4 0 7 4.8 8.6 9.5zm-15.7-5.8c-0.8 0-4.7 0.2-5.9 3.9q-0.5 1.6 0.4 3.4c1.4 2.8 5.5 5.6 10.5 7.2 7.3 2.3 10.9 5.4 10.5 9.3 0.6-2.1 1.8-7.6 1.1-9.5-0.5-1.1-0.5-1.4-0.4-1.5q0.1-0.1 0.3-0.1c0.2 0 0.5 0.4 0.8 0.9-0.7-4.7-3.2-17-10.1-17.1h-0.1c-2 0-4.4 1.2-6.9 3.4l-0.1 0.1z"/>
	<path id="Layer" class="s1" d="m73.1 86.5c-0.1 0-0.2 0-0.2-0.1-1.9-9-12.6-16.4-12.7-16.4-0.1-0.1-0.1-0.2 0-0.3 0-0.1 0.2-0.2 0.3-0.1 0.1 0.1 10.9 7.5 12.8 16.7 0 0.1 0 0.2-0.1 0.2z"/>
	<path id="Layer" class="s5" d="m60 72.1q-0.4 0-0.8 0.1c0 0-2.4 0.8 0.4 3 0.8 0.6 6.3 4.5 8.1 4.5q0.4 0 0.6-0.3c0.2-0.5-0.5-1.5-0.8-1.8-0.6-0.7-1.3-1.5-2-2.2-1.1-1.1-2.9-2.5-4.5-3.1q-0.5-0.2-1-0.2z"/>
	<path id="Layer" class="s42" d="m55 70.5c0 0 0.6-9.6 8.9-10.8 4.9-0.1 8.8 1.8 11.6 4.9 2.9 3.1 3.6 4.3 3.2 6.7 0 0-3.9-4.2-7.7-5.3-3.9-1-5.7-1.9-8.7-0.3-3.1 1.6-7.1 7-7.3 4.8z"/>
	<path id="Layer" fill-rule="evenodd" class="s43" d="m55.4 71.2c-0.2 0-0.6-0.1-0.6-0.7 0-0.2 0.7-9.8 9-11q0.5 0 0.9 0c4.3 0.1 8 1.7 11 4.9 2.8 3.1 3.6 4.4 3.2 6.9q0 0.2-0.1 0.2-0.2 0-0.3-0.1c0 0-3.8-4.1-7.6-5.1q-0.8-0.3-1.5-0.5c-1.5-0.4-2.7-0.7-3.8-0.8-1.1 0-2.1 0.3-3.2 0.9-1.3 0.6-2.7 1.9-4 3.1-1.5 1.4-2.4 2.2-3 2.2zm9.2-11.3q-0.3 0-0.7 0c-8 1.2-8.7 10.5-8.7 10.6 0 0.3 0.2 0.3 0.2 0.3 0.5 0 1.6-1.1 2.7-2.1 1.3-1.2 2.7-2.5 4.1-3.2 1.2-0.6 2.2-0.9 3.4-0.9 1.1 0 2.3 0.4 3.9 0.8q0.7 0.2 1.5 0.4c3.3 0.9 6.5 4 7.5 5 0.2-2-0.4-3.2-3.1-6.1-2.9-3.1-6.5-4.7-10.8-4.8z"/>
	<path id="Layer" fill-rule="evenodd" class="s44" d="m64.6 59.9c4.3 0.1 7.9 1.7 10.8 4.8 2.7 2.9 3.3 4.1 3.1 6.1-1-1-4.2-4.1-7.5-5q-0.8-0.2-1.5-0.4c-1.6-0.4-2.8-0.8-3.9-0.8h-0.2c-1 0-2.1 0.3-3.2 0.9-1.4 0.7-2.8 2-4.1 3.2-1.1 1-2.2 2.1-2.7 2.1 0 0-0.2 0-0.2-0.3 0-0.1 0.7-9.4 8.7-10.6q0.2 0 0.5 0 0.1 0 0.2 0zm-4.6 3.5c1.6-1.3 3.4-1.9 5.4-1.9 0.9 0 1.5 0.1 1.9 0.9q-0.8-0.2-1.6-0.2c-1.1 0-2.2 0.2-3.1 0.7-1.5 0.7-2.7 1.7-3.8 3-0.9 1-1.7 2-2.3 3.2-0.3 0.5-0.5 0.9-0.4 0.9 0.1 0 0.5-0.3 1.3-1.1 1.5-1.6 4.9-4.7 8.4-4.7q0.8 0 1.6 0.3c4 1.1 3.9 0.9 5.1 1.2 1.2 0.4 3.8 2.3 5.1 3.9l0.2 0.1c0.1 0 0-0.3 0-0.4-0.1-0.8-0.7-1.6-1.1-2.2-1.5-2.3-3.5-4.3-6-5.5q-1-0.5-2.2-0.8c-1.2-0.3-2.4-0.5-3.6-0.5q-0.8 0-1.6 0.1c-1.1 0.3-2.3 0.8-3.2 1.5q-0.9 0.6-1.6 1.4c-1.2 1.3-1.9 3-2.5 4.6 1.2-1.6 2.4-3.2 4-4.5z"/>
	<path id="Layer" fill-rule="evenodd" class="s45" d="m75.5 64.6c2.9 3.1 3.6 4.3 3.2 6.7 0 0-3.9-4.2-7.7-5.3-2.4-0.6-4-1.2-5.6-1.2-0.9 0-1.9 0.3-3.1 0.9-2.6 1.3-5.8 5.3-6.9 5.3q-0.3 0-0.4-0.5c0 0 0.6-9.6 8.9-10.8q0.2 0 0.5 0c4.6 0 8.4 1.9 11.1 4.9zm-17.4 4.1c1.3-1.2 2.7-2.5 4.1-3.2 1.1-0.6 2.2-0.9 3.2-0.9h0.2c1.1 0 2.3 0.4 3.9 0.8q0.7 0.2 1.5 0.4c3.3 0.9 6.5 4 7.5 5 0.2-2-0.4-3.2-3.1-6.1-2.9-3.1-6.5-4.7-10.8-4.8q-0.1 0-0.2 0-0.3 0-0.5 0c-8 1.2-8.7 10.5-8.7 10.6 0 0.3 0.2 0.3 0.2 0.3 0.5 0 1.6-1.1 2.7-2.1z"/>
	<path id="Layer" class="s1" d="m55.2 71h-0.1c-0.1 0-0.2-0.2-0.1-0.3 0-0.1 4.9-11.2 12.1-8.7 0.1 0 0.2 0.1 0.2 0.2-0.1 0.1-0.2 0.2-0.3 0.2-6.9-2.4-11.6 8.4-11.6 8.5q-0.1 0.1-0.2 0.1z"/>
	<path id="Layer" class="s5" d="m55.3 89l-0.2 0.1c0 0-0.7 5-0.1 5.2h0.1c0.3 0 0.5-1.3 0.5-2.7 0.1-1.3 0-2.6-0.3-2.6z"/>
	<path id="Layer" class="s5" d="m57.4 90.1h-0.1c0 0-0.2 3.1 0.3 3.2 0.2 0 0.3-0.8 0.3-1.6-0.1-0.8-0.2-1.6-0.5-1.6z"/>
	<path id="Layer" class="s9" d="m64.9 62.7q-0.4 0-0.8 0.1c-0.7 0.2-1.2 0.5-1.1 0.8 0 0.1 0.3 0.2 0.6 0.2q0.4 0 0.8-0.1c0.7-0.2 1.2-0.5 1.1-0.7 0-0.2-0.3-0.3-0.6-0.3z"/>
</svg>