<svg version="1.2" xmlns="http://www.w3.org/2000/svg" viewBox="0 0 100 135" width="100" height="135">
	<title>flower_in_a_pot_05-svg</title>
	<style>
		.s0 { fill: #b0c94f } 
		.s1 { fill: #8eae2e } 
		.s2 { fill: #369626 } 
		.s3 { fill: #a4b526 } 
		.s4 { fill: #f9a4a9 } 
		.s5 { fill: #cb393d } 
		.s6 { fill: #ff442a } 
		.s7 { fill: #d83d40 } 
		.s8 { fill: #ff4e45 } 
		.s9 { fill: #f6ed9c } 
		.s10 { fill: #fa6967 } 
		.s11 { fill: #f6868c } 
		.s12 { fill: #aa6b28 } 
		.s13 { fill: #2e1010 } 
		.s14 { fill: #f9a84c } 
		.s15 { fill: #7c4317 } 
		.s16 { fill: #fab76a } 
		.s17 { fill: #de9342 } 
		.s18 { fill: #6f3b14 } 
		.s19 { fill: #f9a72b } 
		.s20 { fill: #c7883c } 
		.s21 { fill: #584521 } 
		.s22 { fill: #403215 } 
		.s23 { fill: #6c562b } 
		.s24 { fill: #775e30 } 
		.s25 { fill: #d09c5d } 
		.s26 { fill: #7c6232 } 
		.s27 { fill: #463618 } 
		.s28 { fill: #de9225 } 
		.s29 { fill: #54401d } 
		.s30 { fill: #3d2e12 } 
		.s31 { fill: #654e21 } 
		.s32 { fill: #fab64f } 
		.s33 { fill: #3c2c13 } 
		.s34 { fill: #875723 } 
		.s35 { fill: #2b200c } 
		.s36 { fill: #493719 } 
		.s37 { fill: #543f1c } 
		.s38 { fill: #2f230e } 
		.s39 { fill: #392911 } 
		.s40 { fill: #291d0a } 
		.s41 { fill: #453213 } 
		.s42 { fill: #db565a } 
		.s43 { fill: #ff6243 } 
		.s44 { fill: #e45a5e } 
		.s45 { fill: #ff6e64 } 
		.s46 { fill: #f2e55f } 
		.s47 { fill: #dbb303 } 
		.s48 { fill: #ecd941 } 
		.s49 { fill: #cb9801 } 
		.s50 { fill: #6e921b } 
		.s51 { fill: #207716 } 
		.s52 { fill: #869a16 } 
	</style>
	<path id="Layer" class="s0" d="m52.3 75c-0.2 0-0.4 0.3-0.4 1.1 0.1 1.4 0.6 3.7 0.6 3.8 0.2 2.5 0.4 4.9 0.6 7.4q0.1 1.8 0 3.7c-0.1 2.2 0.2 3.1 0.4 3.1 0.4 0 0.9-1.6 0.9-3.9 0.1-2.6-0.2-5.2-0.5-7.8-0.2-1.4-0.4-2.8-0.5-4.2-0.1-0.8-0.3-1.6-0.5-2.3-0.2-0.6-0.4-0.9-0.6-0.9z"/>
	<path id="Layer" class="s1" d="m54.6 81.3c0 0 3.3-12.8 18.2-12.1 0 0 2.7-0.4 0.5 2.1-2.3 2.5-5.3 15.6-18.7 10z"/>
	<path id="Layer" class="s2" d="m54.6 81.3h0.2c0.1-0.3 1-3.3 3.5-6.2 1.2-1.5 2.9-2.9 5.1-4 2.2-1.1 4.9-1.8 8.2-1.8q0.6 0 1.2 0.1h0.1c0 0 0.1-0.1 0.3-0.1 0.2 0 0.4 0.1 0.6 0.1l0.1 0.2q0.1 0 0.1 0.1 0 0.2-0.2 0.6-0.2 0.3-0.7 0.9-0.3 0.4-0.7 1.1c-0.5 0.8-1 1.8-1.6 2.9-0.9 1.7-2.1 3.5-3.8 4.9-1.6 1.4-3.6 2.4-6.3 2.4-1.7 0-3.7-0.4-6-1.4l-0.1 0.2v0.2c2.3 1 4.3 1.4 6.1 1.4 2.1 0 3.9-0.6 5.3-1.5 2.2-1.4 3.7-3.5 4.8-5.5 0.6-1 1.1-1.9 1.5-2.7 0.4-0.8 0.8-1.4 1.1-1.8q0.5-0.5 0.7-0.9 0.3-0.5 0.3-0.8 0-0.2-0.2-0.4c-0.1-0.1-0.3-0.2-0.5-0.3q-0.3 0-0.5 0c-0.2 0-0.4 0-0.4 0v0.2-0.2q-0.6 0-1.2 0c-3.5 0-6.3 0.7-8.6 1.9-3.4 1.7-5.5 4.3-6.8 6.4-1.3 2.2-1.7 3.9-1.7 3.9l-0.1 0.2 0.2 0.1z"/>
	<path id="Layer" class="s3" d="m55.1 80.7c0 0 10.9-8.1 18.4-10.5 0 0 1.4-0.9-1.8-0.3-3.3 0.5-9.9-1-16.6 10.8z"/>
	<path id="Layer" class="s4" d="m26.4 53.2c-0.9-0.7-1.4-1.5-1.2-1.8 0.2-0.3 1.1 0 2 0.8 0.9 0.7 1.4 1.5 1.2 1.8-0.2 0.3-1.1-0.1-2-0.8z"/>
	<path id="Layer" class="s5" d="m30.5 39.6q-0.3 0-0.6 0.1-0.2 0-0.4 0.2-0.1 0.2-0.1 0.6c0 0.4 0.1 0.9 0.3 1.4 0.2 0.5 0.5 1.1 0.7 1.7q0.4 0.7 0.7 1.4 0.3 0.1 0.5 0.2-0.1-0.7-0.1-1.2 0-0.7 0.2-1.1 0.2-0.4 0.7-0.5 0.2-0.1 0.6-0.1 0.7 0 1.7 0.3 0.3 0 0.5 0.1 0-0.8-0.2-1.5-0.4-0.3-0.9-0.5c-1.3-0.7-2.6-1.1-3.6-1.1z"/>
	<path id="Layer" class="s6" d="m30.5 39.4q-0.3 0-0.6 0.1-0.4 0.1-0.5 0.3-0.2 0.3-0.2 0.7c0 0.4 0.2 1.1 0.4 1.7 0.3 0.9 0.8 1.8 1.2 2.6q0.2 0.1 0.3 0.2-0.3-0.7-0.7-1.4c-0.2-0.6-0.5-1.2-0.7-1.7-0.2-0.5-0.3-1-0.3-1.4q0-0.4 0.1-0.6 0.2-0.2 0.4-0.2 0.3-0.1 0.6-0.1c1 0 2.3 0.4 3.6 1.1q0.5 0.2 0.9 0.5v-0.2l-0.1-0.1q-0.3-0.2-0.7-0.4c-1.3-0.6-2.6-1.1-3.7-1.1z"/>
	<path id="Layer" class="s7" d="m27 42.1h-0.1q-0.1 0.1-0.1 0.4c0 0.4 0.1 1 0.3 2q0.5 1.7 1.1 2.9c0.5 0.2 1 0.4 1.4 0.5 0.8 0.1 1.7 0.1 2.7 0.2q-0.4-1.6-0.6-2.7-0.6-0.2-1-0.4c-1-0.6-2-1.7-2.8-2.4q-0.4-0.3-0.7-0.5-0.1 0-0.2 0z"/>
	<path id="Layer" class="s6" d="m27 41.9h-0.2q-0.1 0.1-0.2 0.2 0 0.2 0 0.4c0 0.4 0.1 1.1 0.4 2q0.4 1.6 0.9 2.7 0.2 0.1 0.3 0.2-0.6-1.2-1.1-2.9c-0.2-1-0.3-1.6-0.3-2q0-0.3 0.1-0.4h0.1q0.1 0 0.2 0 0.3 0.2 0.7 0.5c0.8 0.7 1.8 1.8 2.8 2.4q0.4 0.2 1 0.4v-0.2q-0.3-0.1-0.6-0.2-0.1-0.1-0.3-0.2c-0.7-0.4-1.5-1.1-2.2-1.7-0.3-0.4-0.6-0.7-0.9-0.9q-0.2-0.1-0.4-0.2-0.2-0.1-0.3-0.1z"/>
	<path id="Layer" class="s7" d="m24.8 46q-0.2 0-0.2 0.1-0.1 0-0.1 0.2 0 0.3 0.3 0.9 0.2 0.7 0.8 1.7 0.4 0.9 0.9 1.6 0.1 0 0.2 0 0.6 0.1 1.1 0.2-0.3-0.5-0.6-0.9-0.3-0.6-0.3-1 0-0.2 0.1-0.3 0.2-0.1 0.4-0.1 0.4 0 1 0.2 0.6 0.1 1.3 0.4c0.9 0.3 1.8 0.6 2.6 0.6q0.2 0 0.3 0 0.1 0 0.2 0-0.1-0.3-0.2-0.6-0.1-0.4-0.2-0.7c-1-0.1-2-0.1-2.8-0.3-0.7-0.1-1.4-0.4-2.1-0.8-0.7-0.3-1.3-0.7-1.9-0.9-0.3-0.2-0.6-0.3-0.8-0.3z"/>
	<path id="Layer" class="s6" d="m24.8 45.8q-0.2 0-0.3 0.1-0.2 0.2-0.2 0.4 0 0.4 0.3 1 0.2 0.7 0.8 1.7 0.4 0.8 0.8 1.4 0.2 0.1 0.3 0.1-0.5-0.7-0.9-1.6-0.6-1-0.8-1.7-0.3-0.6-0.3-0.9 0-0.2 0.1-0.2 0-0.1 0.2-0.1c0.2 0 0.5 0.1 0.8 0.3 0.6 0.2 1.2 0.6 1.9 0.9 0.7 0.4 1.4 0.7 2.1 0.8 0.8 0.2 1.8 0.2 2.8 0.3l-0.1-0.2c-1-0.1-1.9-0.1-2.7-0.2-0.4-0.1-0.9-0.3-1.4-0.5q-0.1-0.1-0.3-0.2-0.5-0.2-1-0.5-0.6-0.3-1.2-0.6-0.5-0.3-0.9-0.3z"/>
	<path id="Layer" fill-rule="evenodd" class="s8" d="m26.7 50.7q0.6 0.1 1.3 0.2 0.2 0.3 0.4 0.6c1.6 2.1 3.2 3.3 4.7 3.9 1.1 0.5 2 0.7 2.9 0.8-0.6 0.1-1.5 0.3-2.5 0.3-1.9 0-4.5-0.6-7.4-3.5q-1.1-0.9-1.5-1.5-0.2-0.3-0.3-0.5-0.1-0.2-0.1-0.3v-0.1q0.1-0.1 0.2-0.1 0.1 0 0.4 0c0.5 0 1.2 0.1 1.9 0.2zm-0.3 2.5c0.7 0.5 1.4 0.9 1.7 0.9q0.2 0 0.3-0.1l0.1-0.2c0-0.4-0.5-1-1.3-1.6-0.7-0.6-1.4-0.9-1.7-0.9q-0.2 0-0.3 0.1l-0.1 0.2c0 0.3 0.5 1 1.3 1.6z"/>
	<path id="Layer" class="s6" d="m24.8 50.3q-0.3 0-0.6 0.1l-0.1 0.1q-0.1 0.1-0.1 0.2 0 0.2 0.1 0.4c0.2 0.5 0.8 1.1 1.8 2.1 3 2.8 5.6 3.5 7.6 3.5 1.2 0 2.1-0.2 2.8-0.4q0.3 0 0.7-0.1h-0.1q-0.4 0-0.9 0c-0.6 0.1-1.5 0.3-2.5 0.3-1.9 0-4.5-0.6-7.4-3.5q-1.1-0.9-1.5-1.5-0.2-0.3-0.3-0.5-0.1-0.2-0.1-0.3v-0.1q0.1-0.1 0.2-0.1 0.1 0 0.4 0c0.5 0 1.2 0.1 1.9 0.2q0.6 0.1 1.3 0.2l-0.2-0.2q-0.5-0.1-1.1-0.2-0.1 0-0.2 0-0.1 0-0.3-0.1c-0.5-0.1-1-0.1-1.4-0.1z"/>
	<path id="Layer" class="s9" d="m33 43.5l-0.2 0.1c-0.3 0.1-0.5 0.6-0.5 1.2q0 0.6 0.2 1.2c0.3 1 1 1.7 1.6 1.7l0.2-0.1c0.4-0.1 0.6-0.6 0.6-1.2q0-0.5-0.3-1.2c-0.3-1-1-1.7-1.6-1.7z"/>
	<path id="Layer" class="s10" d="m28.3 49.4q-0.3 0-0.4 0.1-0.1 0.1-0.1 0.2c0 0.6 0.7 1.5 1.8 2.3 0.9 0.8 1.9 1.3 2.4 1.3q0.3 0 0.4-0.2 0.1-0.1 0.1-0.2c0-0.5-0.7-1.5-1.8-2.3-0.9-0.8-1.9-1.2-2.4-1.2z"/>
	<path id="Layer" class="s11" d="m25.5 51.3q-0.2 0-0.3 0.1l-0.1 0.2c0 0.3 0.5 1 1.3 1.6 0.7 0.5 1.3 0.9 1.7 0.9q0.2 0 0.3-0.1l0.1-0.2c0-0.4-0.5-1-1.3-1.6-0.7-0.6-1.4-0.9-1.7-0.9z"/>
	<path id="Layer" class="s12" d="m73.1 105.1l-3.3 24.1c0 3.3-7.2 5.8-16 5.7-8.7-0.1-15.8-2.9-15.8-6.1l-3.7-25.8z"/>
	<path id="Layer" class="s13" d="m73.1 105.1h-0.1l-3.3 24.1c0 1.5-1.6 2.9-4.4 4-2.8 1-6.6 1.6-10.8 1.6q-0.3 0-0.7 0c-4.3-0.1-8.3-0.8-11.1-1.9-2.9-1.1-4.6-2.6-4.6-4.1v-0.1l-3.7-25.6 38.7 2.1v-0.1-0.1l-38.8-2.1h-0.1v0.1l3.7 25.8 0.1-0.1h-0.1v0.1c0 1.7 1.9 3.2 4.7 4.3 2.9 1.1 6.9 1.8 11.2 1.9q0.4 0 0.7 0c4.3 0 8.1-0.6 10.9-1.6 2.7-1.1 4.5-2.5 4.5-4.2h-0.1 0.1l3.3-24.1v-0.1h-0.1z"/>
	<path id="Layer" class="s14" d="m73.1 105.1l-3.3 24.1c0 3.3-7.2 5.8-16 5.7-8.7-0.1-15.8-2.9-15.8-6.1l-3.7-25.8z"/>
	<path id="Layer" class="s15" d="m73.1 105.1h-0.1l-3.3 24.1c0 1.5-1.6 2.9-4.4 4-2.8 1-6.6 1.6-10.8 1.6q-0.3 0-0.7 0c-4.3-0.1-8.3-0.8-11.1-1.9-2.9-1.1-4.6-2.6-4.6-4.1v-0.1l-3.7-25.6 38.7 2.1v-0.1-0.1l-38.8-2.1h-0.1v0.1l3.7 25.8 0.1-0.1h-0.1v0.1c0 1.7 1.9 3.2 4.7 4.3 2.9 1.1 6.9 1.8 11.2 1.9q0.4 0 0.7 0c4.3 0 8.1-0.6 10.9-1.6 2.7-1.1 4.5-2.5 4.5-4.2h-0.1 0.1l3.3-24.1v-0.1h-0.1z"/>
	<path id="Layer" class="s16" d="m38.6 109.8l2.4 16.9c0 0 1 5.4 7.5 6.8q1.1 0.2 2.2 0.2c5.6 0 10.2-4.6 10.6-10 0.5-6.6 0.5-12.1 0.5-12.1 0 0-3.9 0.6-9 0.6-4.5 0-9.9-0.5-14.2-2.4z"/>
	<path id="Layer" class="s17" d="m72.8 106.7c-1.1 1-2.7 1.8-4.6 2.6-1.6 0.6-3.5 1.1-5.5 1.5q0.8 0.1 2 0.1c1.1 0 2.4-0.1 3.9-0.3 0 0 0.1-0.2 0.3-0.2 0.2 0 0.5 0.3 0.6 1.7 0 2.4-2.2 16.4-2.2 16.4 0 0-0.4 3.6-5.4 5-1.7 0.4-4.4 0.8-7.5 0.8-6 0-13.2-1.4-16.4-6.3l0.1 0.7v0.1c0 1.5 1.7 3 4.6 4.1 2.8 1.1 6.8 1.8 11.1 1.9q0.4 0 0.7 0c4.2 0 8-0.6 10.8-1.6 2.8-1 4.4-2.5 4.4-4z"/>
	<path id="Layer" class="s18" d="m72.9 106.6q-0.1 0-0.1 0.1l-3.1 22.5c0 1.5-1.6 2.9-4.4 4-2.8 1-6.6 1.6-10.8 1.6q-0.3 0-0.7 0c-4.3-0.1-8.3-0.8-11.1-1.9-2.9-1.1-4.6-2.6-4.6-4.1v-0.1l-0.1-0.7q0-0.1-0.1-0.2l0.1 0.9c0 3.3 7.1 6.1 15.8 6.2q0.4 0 0.7 0c8.5 0 15.3-2.5 15.3-5.7z"/>
	<path id="Layer" class="s19" d="m33.4 98.4l3.7 0.2c3.7-2.2 9.9-3.5 16.9-3.5 7.7 0 14.5 1.7 18 4.2 1.4-0.4 2.9-0.9 2.9-0.9l-0.4 5.3c-0.6 4.3-9.5 7.8-20.5 7.8-11.2 0-20.3-3.6-20.6-8v-0.1-4.8z"/>
	<path id="Layer" class="s15" d="m33.4 98.4v0.1l3.7 0.2 0.1-0.1c3.7-2.1 9.8-3.4 16.8-3.4 7.7 0 14.5 1.7 17.9 4.2h0.1c1.5-0.4 2.9-0.9 2.9-0.9v-0.1h-0.1l-0.4 5.2 0.1 0.1v-0.1h-0.1c-0.3 2.1-2.6 4.1-6.3 5.5-3.7 1.4-8.7 2.3-14.1 2.3-5.6 0-10.7-0.9-14.3-2.4-3.7-1.4-6-3.4-6.2-5.5v-0.1-4.8h-0.1l-0.1 0.1h0.1l0.1-0.1v-0.2h-0.1-0.1v0.2h0.1 0.1l-0.2-0.1v0.1 4.8 0.1 0.1l0.1-0.1h-0.1c0.2 2.3 2.6 4.3 6.3 5.7 3.7 1.5 8.8 2.4 14.3 2.4 5.6 0 10.6-0.9 14.3-2.3 3.7-1.4 6.1-3.4 6.4-5.6h-0.1v0.1l0.1-0.1 0.4-5.3v-0.1h-0.1c0 0-1.5 0.5-3 0.9l0.1 0.1v-0.1c-3.5-2.5-10.3-4.2-18-4.2-7 0-13.2 1.3-16.9 3.5v0.1-0.1l-3.7-0.2h-0.1v0.1z"/>
	<path id="Layer" class="s14" d="m33.4 98.4c0 4.6 9.3 8.3 20.7 8.3 11.5 0 20.8-3.7 20.8-8.3 0-4.5-9.3-8.2-20.8-8.2-11.4 0-20.7 3.7-20.7 8.2z"/>
	<path id="Layer" class="s15" d="m33.4 98.4h-0.1c0 2.4 2.3 4.4 6.1 5.9 3.8 1.5 9 2.5 14.7 2.5 5.8 0 11-1 14.8-2.5 3.7-1.5 6.1-3.5 6.1-5.9 0-2.3-2.4-4.4-6.1-5.9-3.8-1.5-9-2.4-14.8-2.4-5.7 0-10.9 0.9-14.7 2.4-3.8 1.5-6.1 3.6-6.1 5.9h0.1 0.1c-0.1-2.2 2.2-4.2 6-5.7 3.7-1.5 8.9-2.4 14.6-2.4 5.8 0 10.9 0.9 14.7 2.4 3.7 1.5 6 3.5 6 5.7 0 2.2-2.3 4.3-6 5.8-3.8 1.4-8.9 2.4-14.7 2.4-5.7 0-10.9-1-14.6-2.4-3.8-1.5-6-3.6-6-5.8z"/>
	<path id="Layer" class="s20" d="m34 98.3c0 4.1 9 7.4 20.1 7.4 11.1 0 20-3.3 20-7.4 0-4.2-8.9-7.5-20-7.5-11.1 0-20.1 3.3-20.1 7.5z"/>
	<path id="Layer" class="s15" d="m34 98.3h-0.1c0 2.1 2.3 4 6 5.3 3.6 1.4 8.6 2.2 14.2 2.2 5.5 0 10.6-0.8 14.2-2.2 3.6-1.3 5.9-3.2 5.9-5.3 0-2.2-2.3-4.1-5.9-5.4-3.6-1.4-8.7-2.2-14.2-2.2-5.6 0-10.6 0.8-14.2 2.2-3.7 1.3-6 3.2-6 5.4h0.1 0.1c0-2 2.2-3.9 5.8-5.2 3.6-1.4 8.7-2.2 14.2-2.2 5.5 0 10.5 0.8 14.1 2.2 3.7 1.3 5.9 3.2 5.9 5.2 0 1.9-2.2 3.8-5.9 5.1-3.6 1.4-8.6 2.2-14.1 2.2-5.5 0-10.6-0.8-14.2-2.2-3.6-1.3-5.8-3.2-5.8-5.1z"/>
	<path id="Layer" class="s21" d="m67 97.2c0 0 0.4-1-2.9-2.2-3.2-1.2-4 0.9-4 0.9 0 0 0.1-0.9-1.6-2-1.7-1.1-4.3 0.7-4.3 0.7-2.8-1.3-4.9 1.6-4.9 1.6-2.6-2.6-7 0-7 0-4.5-1-5.6 2.7-5.6 2.7-1.1-0.1-1.9 0.3-2.5 0.8 2.2 3.2 10 5.8 19.3 6 10.1 0.2 18.4-2.3 20-5.8-1.1-1.2-3.2-1.6-3.2-1.6-1-1.4-3.3-1.1-3.3-1.1z"/>
	<path id="Layer" class="s22" d="m67.1 97.2c0.3-1.1-2.4-2-2.9-2.2-1.3-0.5-3.3-0.7-4 0.7-0.1 0.2-0.1 0.2-0.1 0.1 0.1 0 0.1 0 0.1 0.1 0-0.3-0.1-0.6-0.3-0.9-0.5-0.7-1.4-1.3-2.3-1.5-0.8-0.2-1.7 0.2-2.4 0.5q-0.5 0.2-1 0.5c0.1-0.1-1.3-0.3-1.1-0.3-1 0-1.8 0.3-2.7 0.8-0.4 0.2-0.7 0.6-1 0.9-0.4 0.4-0.4-0.1-1-0.4-1.8-0.8-3.8-0.5-5.7 0.4-0.4 0.2-0.9 0.1-1.3 0.1-0.3 0-0.6-0.1-0.9 0-1 0.1-1.8 0.4-2.6 1-0.5 0.4-0.9 1-1.2 1.6-0.1 0.3-2.1 0.7-2.6 1.1 1.7 2.2 4.5 3.3 7.1 4.2 3.9 1.3 8.2 1.7 12.3 1.9 4.4 0.1 8.8-0.3 13-1.5 2.5-0.7 5.8-1.9 7.1-4.4v-0.1c-1.1-0.9-2.5-1.1-3.6-1.9-0.9-0.6-1.9-0.9-3.1-0.8-0.1 0 0.1 0.1 0.1 0.1 1.3-0.1 2.3 1 3.6 1.2 1 0.3 3.3 0.8 2.3 2.2-0.3 0.5-0.8 0.9-1.3 1.3-3.1 2.4-7.7 3.1-11.5 3.5-5.3 0.6-10.7 0.3-15.9-0.8-2.2-0.5-4.4-1.2-6.5-2.2q-1.1-0.6-2.2-1.4-0.4-0.4-0.8-0.8c-1-1 2-1.3 2.1-1.3 0.8-2.4 3.3-3.1 5.5-2.7 0.2 0.1 0.7-0.3 0.9-0.4 1.9-0.8 4.2-1.1 6 0.4h0.1q0.5-0.5 1-0.9c1.3-1.2 2.1-0.7 3.9-0.7 0.4 0.1 0.9-0.4 1.2-0.6 1.4-0.7 4.7-0.1 4.6 1.9l0.2 0.1c0.3-0.8 1.1-1.1 1.8-1.3-0.5 0.1 5.4 0.7 4.9 2.4z"/>
	<path id="Layer" class="s23" d="m42.5 96.9c0 0-3.5-0.7-4.2 1.2-0.7 2-3 0.9-1.5 2.6 1.4 1.6 3.7 1.7 4.8 0.8 1-0.9 1.4-2.1 3.5-2 2 0.2 0.7-1.4-0.5-1.5-1.2 0 1.1-1.5 2.1-1.6 1-0.2-2.1-1.3-4.2 0.5z"/>
	<path id="Layer" class="s23" d="m51.5 98.8c0 0-0.8-1-3.2-1.1-2.5 0-1.1 0.9-1.2 1.4-0.1 0.5 1.5 1.4 1.5 1.4 0 0 0.7-1.6 2.9-1.7z"/>
	<path id="Layer" class="s23" d="m50.4 96.5c-0.2 0 1.5-1.9 3.3-1.3 0.8 0.3 1.6 0.1 2.3-0.1 0.8-0.3 1.6-0.5 2.4 0.1 1.5 1 0.8 1.9 0.8 1.9 0 0-4.5 0-4.9 1.9 0 0-1.4-2.3-3.9-2.5z"/>
	<path id="Layer" class="s23" d="m62.3 98.7c0 0-0.4 0-0.9-0.1-1.5-0.2-4.3-0.3-5.2 1 0 0-0.6 0.4 0.5 1.3 1 0.9 1.8 1.2 1.8 2.3 0 0 1.4-3.2 7-1.8 5.6 1.3 6.3-1.1 5.1-1.8-1.1-0.6-3.4 0.3-3.4 0.3 0 0-0.8-2.1-4.9-1.2z"/>
	<path id="Layer" class="s24" d="m65.6 97c0 0-1.2-1.5-2.9-1.2-1.7 0.4 3.4 2.7 2.9 1.2z"/>
	<path id="Layer" class="s23" d="m55.7 102.5c0 0-1.9-1.4-4.3-0.7 0 0-0.2 2.3-0.7 2.3-0.6-0.1-1.5-3.5-4.4-3.2-2.9 0.3-4.2 1.5-3 2.5 1.2 0.9 7 2.1 10.4 1.9 3.5-0.3 2.8-1.9 2-2.8z"/>
	<path id="Layer" class="s23" d="m63.3 102.5c0 0-2.4-0.3-3.5 1.1-1.1 1.4 3.9 1.1 5.7 0.3 1.8-0.8-2-1.4-2.2-1.4z"/>
	<path id="Layer" class="s25" d="m55.2 91.4c-9 0-15.6 2.5-15.6 2.5-1.3 0.7-0.1 1.7 1.7 1.7 0.8 0 1.7-0.2 2.6-0.7 0.7-0.4 1.4-0.5 2-0.5 0.6 0 1.2 0.1 1.7 0.2 0.5 0.2 1 0.3 1.3 0.3 0.4 0 0.7-0.1 0.9-0.4 0.5-0.7 1.4-0.9 2.3-0.9 1 0 1.8 0.3 1.8 0.3 0 0 0.2-0.9 2.9-0.9q0.1 0 0.4 0c3 0.1 3.4 1.6 3.4 1.6 0.2-1 2.4-0.9 2.7-1.7 0.3-0.9-0.9-0.9-0.9-0.9-2.5-0.4-4.9-0.6-7.2-0.6z"/>
	<path id="Layer" class="s26" d="m42.6 97.6c-0.1-0.2-1-0.8-2.8-0.1-1.8 0.7-0.8 1.6 0.6 1.4 1.3-0.2 2.5-0.8 2.2-1.3z"/>
	<path id="Layer" class="s26" d="m49.5 98.1c0 0-1.2-0.2-1 0.3 0.2 0.5 2.2 0 1-0.3z"/>
	<path id="Layer" class="s26" d="m58.8 96.5c0 0-0.4-1.5-2-1.3-1.5 0.2 2 2.2 2 1.3z"/>
	<path id="Layer" class="s26" d="m66.7 99.9c0 0-3-1.5-3-0.1 0 1.5 4.1 1.1 3 0.1z"/>
	<path id="Layer" class="s27" d="m58.8 104.3q-0.1 0-0.2 0 0.1 0 0.1 0 0.1 0 0.1 0 0 0 0 0z"/>
	<path id="Layer" class="s28" d="m74.1 101.5c-0.9 4.6-9.3 8.3-9.3 8.3 0 0 4.8-1.6 6.7-2.8 1.8-1.1 2.4-3.2 2.4-3.2z"/>
	<path id="Layer" class="s21" d="m41.5 98.1c0 0-1.4-1.2-2.8 0.2-1.4 1.4-0.7 2.6 0.8 2.4 1.5-0.1 3.5-1.4 2-2.6z"/>
	<path id="Layer" class="s22" d="m41.5 98.1c-0.5-0.5-1.3-0.6-1.9-0.4-1 0.2-2.3 1.7-1.5 2.7 0.6 0.7 2 0.3 2.8 0 0.4-0.2 0.9-0.6 1.1-1.1 0.2-0.4-0.1-0.9-0.5-1.2h-0.1c0.8 0.7 0.5 1.5-0.3 2-0.8 0.6-2.3 1-2.9 0.1-0.6-0.9 0.6-2.1 1.3-2.4 0.6-0.3 1.4-0.1 1.9 0.3z"/>
	<path id="Layer" class="s29" d="m41.8 98.6q-0.1 0.2-0.2 0.4 0.1 0 0.3 0.1 0-0.3-0.1-0.5z"/>
	<path id="Layer" class="s30" d="m41.8 98.5q0 0 0 0.1 0.1 0.2 0.1 0.5 0 0 0.1 0 0-0.3-0.2-0.6z"/>
	<path id="Layer" class="s29" d="m38 99.6q0 0.3 0.2 0.6c0.2 0.4 0.6 0.5 1.1 0.5 0.4 0 0.8-0.1 1.2-0.2-0.2-0.3-0.1-0.6 0-0.8q-0.1 0-0.2 0c0 0-0.7 0.4-1.3 0.4q-0.2 0-0.4-0.1c-0.3-0.1-0.5-0.3-0.6-0.4z"/>
	<path id="Layer" class="s30" d="m38.2 98.9c-0.6 1 0 1.8 1.1 1.8q0.1 0 0.2 0 0.5 0 1-0.2 0 0 0 0c-0.4 0.1-0.8 0.2-1.2 0.2-0.5 0-0.9-0.1-1.1-0.5q-0.2-0.3-0.2-0.6 0-0.2 0.2-0.6z"/>
	<path id="Layer" class="s31" d="m40.3 97.9c-0.9 0-1.5 0.9-1.5 0.9q-0.2 0.3-0.2 0.4c0 0.1 0.1 0.2 0.2 0.2 0.3 0 0.8-0.2 1-0.3 0.3-0.2 1.2-0.5 1.2-0.8q0.1-0.1-0.3-0.3-0.2-0.1-0.4-0.1z"/>
	<path id="Layer" class="s21" d="m42.1 99.3c0 0-0.6-0.6-1.3 0.1-0.6 0.8-0.2 1.4 0.5 1.3 0.7-0.1 1.6-0.8 0.8-1.4z"/>
	<path id="Layer" class="s22" d="m42.2 99.3c-0.2-0.2-0.6-0.4-0.9-0.3-0.6 0.2-1.2 1-0.7 1.5 0.6 0.8 2.6-0.3 1.6-1.2h-0.1c0.8 0.9-1 1.9-1.4 1.1-0.3-0.4 0.1-0.9 0.4-1.2 0.3-0.2 0.7-0.1 1 0.1z"/>
	<path id="Layer" class="s21" d="m68.3 100.5c0 0-1.3-1.3-2.7 0.1-1.5 1.4-0.7 2.6 0.8 2.5 1.5-0.2 3.4-1.4 1.9-2.6z"/>
	<path id="Layer" class="s22" d="m68.4 100.5c-0.5-0.5-1.2-0.7-1.9-0.5-1 0.2-2.4 1.7-1.6 2.7 0.7 0.8 2.1 0.4 2.8 0.1 0.5-0.2 1-0.6 1.2-1.1 0.2-0.5-0.2-0.9-0.5-1.2-0.1-0.1-0.3-0.1-0.2 0 1.9 1.6-2.4 3.6-3.2 1.9-0.5-0.8 0.6-1.8 1.2-2.2 0.7-0.3 1.5-0.2 2 0.3 0.1 0 0.3 0 0.2 0z"/>
	<path id="Layer" class="s29" d="m67.4 102q-0.1 0-0.3 0.1c0 0-0.6 0.3-1.2 0.3q-0.1 0-0.2 0-0.2 0.1-0.6 0.2c0.2 0.3 0.6 0.5 1.1 0.5 0.3 0 0.8-0.1 1.1-0.3-0.1-0.2-0.1-0.5 0.1-0.8zm1.2-1.1q0 0.2-0.2 0.5 0.2 0 0.3 0 0-0.2-0.1-0.5z"/>
	<path id="Layer" class="s30" d="m65.1 102.6q-0.1 0-0.1 0c0.2 0.3 0.6 0.5 1.1 0.5q0.1 0 0.3 0 0.5-0.1 1-0.3 0 0 0 0 0 0-0.1 0c-0.3 0.2-0.8 0.3-1.1 0.3-0.5 0-0.9-0.2-1.1-0.5zm3.5-1.8q0 0 0 0.1 0.1 0.3 0.1 0.5 0.1 0 0.1 0.1 0.1-0.3-0.2-0.7z"/>
	<path id="Layer" class="s31" d="m67.1 100.3q-0.2 0-0.4 0.1c0.4 0.1 0.6 0.4 0.3 0.8q0 0 0 0.1c0.4-0.2 0.9-0.4 0.9-0.7q0-0.1-0.4-0.2-0.2-0.1-0.4-0.1z"/>
	<path id="Layer" class="s21" d="m69 101.7c0 0-0.7-0.7-1.3 0.1-0.7 0.7-0.3 1.3 0.4 1.3 0.7-0.1 1.6-0.8 0.9-1.4z"/>
	<path id="Layer" class="s22" d="m69.1 101.7c-0.3-0.3-0.6-0.4-1-0.3-0.4 0.1-1.2 0.9-0.7 1.4 0.7 0.8 2.7-0.2 1.7-1.1h-0.2c0.9 0.8-0.9 1.8-1.4 1.1-0.2-0.4 0.1-0.8 0.3-1 0.3-0.4 0.8-0.4 1.1-0.1z"/>
	<path id="Layer" class="s32" d="m34.3 101.8c0 0 0 2.1 0.2 2.6 0.2 0.5 0.8 1.3 0.8 1.3 5.2 4.1 13.5 4.9 19.3 4.9 3.7 0 6.5-0.4 6.8-0.4 0.7 0 0.4-3.2 0.4-3.2q-4.5 0.4-8.1 0.4c-15.8 0-19.4-5.6-19.4-5.6z"/>
	<path id="Layer" fill-rule="evenodd" class="s33" d="m50.4 96.5c2.5 0.2 3.9 2.5 3.9 2.5 0.4-1.8 4.5-1.9 4.9-1.9q0 0 0 0c0 0 0.1-0.1 0.1-0.3q0.2 0.1 0.3 0.3c0.2 0.7 2.2 1.1 3.5 1.5q-0.3 0-0.8 0.1 0 0 0 0c-0.1 0-0.4 0-0.9-0.1-0.5 0-1.1-0.1-1.8-0.1-1.3 0-2.8 0.2-3.4 1.1 0 0-0.6 0.4 0.5 1.3 1 0.9 1.8 1.2 1.8 2.3 0 0 1-2.2 4.4-2.2q0.9 0 2 0.2-0.1 0.2-0.1 0.3-0.7-0.1-1.6-0.1-0.6 0-1.4 0.1c-3 0.6-3.9 2.6-3.2 2.8-0.7 0.1-1.4 0.2-2.1 0.4q-0.7 0.2-1.3 0.3c1.8-0.5 1.2-1.7 0.5-2.5 0 0-1.2-0.9-3-0.9q-0.6 0-1.3 0.2c0 0-0.2 2.3-0.7 2.3q0 0 0 0c-0.6-0.1-1.4-3.2-4-3.2q-0.2 0-0.4 0c-2.6 0.3-4 1.3-3.2 2.2-0.4-0.2-0.8-0.4-1.4-0.7q-0.5-0.3-0.8-0.5 0.4-0.2 0.7-0.4c1-0.8 1.3-2 3.1-2q0.2 0 0.4 0 0.1 0 0.3 0c1.6 0 0.4-1.4-0.8-1.5-0.5 0-0.4-0.3 0.1-0.7 1.2-0.4 2.7-0.9 4.2-1.3q0.2 0.1 0.3 0.2h0.1q0.2-0.1 0.3-0.3 0.8-0.1 1.5-0.1c-0.5 0.3-0.8 0.7-0.7 0.7zm-2 4.2c-0.1-0.1-1.1-0.7-2.3-0.7-0.8 0-1.8 0.3-2.7 1.2-0.9 0.6-1.1 1.4-1.1 1.4q0.5-0.9 1.1-1.4c0.5-0.4 1.3-0.8 2.5-0.8q0.7 0 1.7 0.2c0 0 2.9 1.2 3.2 3.1 0 0 0.3-1.9-0.7-2.2-0.5-0.1 0.5-0.4 1.9-0.4 1.5 0 3.4 0.3 4.6 1.4 0.6 0.5 1 0.7 1.2 0.7 0.5 0-0.8-2.1-2.5-2.7 0 0 0.8-1.8 3.1-2.2 0.8-0.1 0.6-0.3 0-0.3-1 0-3.2 0.4-4 1.9 0 0-1.9-3.2-5.8-3.2q-0.2 0-0.4 0c0 0 3.9 1.3 4.1 2.3 0.2 1-2.5 0.5-3.2 1.5 0 0-0.2 0.2-0.5 0.2q-0.1 0-0.2 0zm3.1-1.9c0 0-0.8-1-3.2-1.1q-0.1 0-0.2 0c-2.2 0-0.9 1-1 1.4-0.1 0.5 1.5 1.4 1.5 1.4 0 0 0.7-1.6 2.9-1.7z"/>
	<path id="Layer" class="s34" d="m49.3 96q-0.1 0-0.3 0 0 0 0 0 0.1 0 0.1 0 0.1 0.1 0.2 0z"/>
	<path id="Layer" class="s33" d="m45.5 104.3q0.1 0 0.1 0c0.7 0.3 1.6 0.5 2.5 0.6-0.9-0.2-1.8-0.4-2.6-0.6zm3.5-8.3q0 0 0 0 0 0 0 0z"/>
	<path id="Layer" class="s35" d="m49.6 95.9q-0.1 0-0.3 0.1-0.1 0-0.2 0 0 0-0.1 0 0 0 0 0 0 0-0.1 0 0.2 0.1 0.3 0.2h0.1q0.2-0.1 0.3-0.3z"/>
	<path id="Layer" class="s36" d="m44.7 97.3q-0.5 0.2-0.9 0.3c-1.9 0.6 0 1-1.4 1.9 0.4 0.6-0.5 1.3-1.2 1.3q-0.3 0-0.6-0.2-0.4 0.7 0.3 1.3 0.4-0.2 0.7-0.4c1-0.8 1.3-2 3.1-2q0.2 0 0.4 0 0.1 0 0.3 0c1.6 0 0.4-1.4-0.8-1.5-0.5 0-0.4-0.3 0.1-0.7z"/>
	<path id="Layer" fill-rule="evenodd" class="s36" d="m48.3 97.7c2.4 0.1 3.2 1.1 3.2 1.1-2.2 0.1-2.9 1.7-2.9 1.7 0 0-1.6-0.9-1.5-1.4 0.1-0.5-1.2-1.4 1-1.4q0.1 0 0.2 0zm1.2 0.4c0 0-0.3 0-0.5 0-0.3 0-0.6 0-0.5 0.3 0.1 0.1 0.3 0.2 0.5 0.2 0.6 0 1.4-0.3 0.5-0.5z"/>
	<path id="Layer" class="s36" d="m51.1 95.8q0 0 0 0c-0.5 0.3-0.8 0.7-0.7 0.7 2.5 0.2 3.9 2.5 3.9 2.5 0.4-1.8 4.5-1.9 4.9-1.9q0 0 0 0c0 0 0.1-0.1 0.1-0.3q-0.2-0.2-0.5-0.3 0 0.2-0.3 0.2c-0.2 0-0.5-0.1-0.8-0.2-0.4 0-0.7 0.1-0.7 0.1-1.1-0.3-2 0.2-4.4-0.6q-0.7-0.2-1.5-0.2z"/>
	<path id="Layer" class="s36" d="m59.6 98.5c-1.3 0-2.8 0.2-3.4 1.1 0 0-0.6 0.4 0.5 1.3 1 0.9 1.8 1.2 1.8 2.3 0 0 1-2.2 4.4-2.2q0.9 0 2 0.2 0.2-0.2 0.3-0.4c-0.7-0.1-1.5-0.4-1.5-1 0-0.4 0.2-0.5 0.5-0.6 0-0.2-0.5-0.4-1.1-0.6q-0.3 0-0.8 0.1 0 0 0 0c-0.1 0-0.4 0-0.9-0.1-0.5 0-1.1-0.1-1.8-0.1z"/>
	<path id="Layer" class="s36" d="m46.7 100.9q-0.2 0-0.4 0c-2.6 0.3-4 1.3-3.2 2.2 0.6 0.4 1.2 0.6 2.4 1.2 0.8 0.2 1.7 0.4 2.6 0.6 1.8 0.1 3.9 0 5.1 0.2q0.3 0.1 0.7 0.1 0.6-0.1 1.3-0.2c1.8-0.5 1.2-1.7 0.5-2.5 0 0-1.2-0.9-3-0.9q-0.6 0-1.3 0.2c0 0-0.2 2.3-0.7 2.3q0 0 0 0c-0.6-0.1-1.4-3.2-4-3.2z"/>
	<path id="Layer" class="s37" d="m49 98.1c-0.3 0-0.6 0-0.5 0.3 0.1 0.1 0.3 0.2 0.5 0.2 0.6 0 1.4-0.3 0.5-0.5 0 0-0.3 0-0.5 0z"/>
	<path id="Layer" class="s37" d="m58.2 96.5q-0.3 0-0.5 0c0.3 0.1 0.6 0.2 0.8 0.2q0.3 0 0.3-0.2-0.3 0-0.6 0z"/>
	<path id="Layer" class="s37" d="m64.2 99.2c-0.3 0.1-0.5 0.2-0.5 0.6 0 0.6 0.8 0.9 1.5 1 0.3-0.3 0.6-0.5 0.9-0.7-0.9-0.2-2-0.3-1.9-0.8q0 0 0-0.1z"/>
	<path id="Layer" fill-rule="evenodd" class="s38" d="m43.4 101.2c-0.9 0.6-1.1 1.4-1.1 1.4q0.5-0.9 1.1-1.4zm5.2-4.5q-0.2 0-0.4 0c0 0 3.9 1.3 4.1 2.3 0.2 1-2.5 0.5-3.2 1.5 0 0-0.2 0.2-0.5 0.2q-0.1 0-0.2 0c-0.1-0.1-1.1-0.7-2.3-0.7-0.8 0-1.8 0.3-2.7 1.2 0.5-0.4 1.3-0.8 2.5-0.8q0.7 0 1.7 0.2c0 0 2.9 1.2 3.2 3.1 0 0 0.3-1.9-0.7-2.2-0.5-0.1 0.5-0.4 1.9-0.4 1.5 0 3.4 0.3 4.6 1.4 0.6 0.5 1 0.7 1.2 0.7 0.5 0-0.8-2.1-2.5-2.7 0 0 0.8-1.8 3.1-2.2 0.8-0.1 0.6-0.3 0-0.3-1 0-3.2 0.4-4 1.9 0 0-1.9-3.2-5.8-3.2z"/>
	<path id="Layer" class="s33" d="m63.8 102.1c-3.6 0-4.7 1.9-5 2.2q0.4 0 0.7 0 0.1 0 0.2 0 0.1 0 0.1 0c-0.2-0.2-0.2-0.4 0-0.7 0.7-1 2.2-1.2 2.9-1.2 0.4 0 0.6 0.1 0.6 0.1 0.1 0 0.7 0.1 1.4 0.2q0.1 0 0.2 0-0.2-0.3-0.2-0.6-0.5 0-0.9 0z"/>
	<path id="Layer" class="s36" d="m62.7 102.4c-0.7 0-2.2 0.2-2.9 1.2-0.2 0.3-0.2 0.5 0 0.7q0.1 0 0.2 0c2.4 0 2.5-0.9 4.2-1.4q0.3-0.1 0.5-0.2c-0.7-0.1-1.3-0.2-1.4-0.2 0 0-0.2-0.1-0.6-0.1z"/>
	<path id="Layer" class="s38" d="m63.2 101.4q-0.6 0-1.4 0.1c-3 0.6-3.9 2.6-3.2 2.8q0.1 0 0.2 0c0.3-0.3 1.4-2.2 5-2.2q0.4 0 0.9 0 0-0.3 0.1-0.6-0.7-0.1-1.6-0.1z"/>
	<path id="Layer" class="s33" d="m42.2 99.5q-0.1 0.1-0.2 0.1-0.9 0.5-1.3 0.9 0.2 0.2 0.5 0.2c0.6 0 1.3-0.6 1-1.2z"/>
	<path id="Layer" class="s35" d="m42.4 99.5q-0.1 0-0.2 0c0.3 0.6-0.4 1.2-1 1.2q-0.3 0-0.5-0.2 0 0.1-0.1 0.1 0.3 0.2 0.6 0.2c0.7 0 1.6-0.7 1.2-1.3z"/>
	<path id="Layer" class="s33" d="m66.3 100.2q0 0-0.1 0c-0.5 0.3-1.3 1-1.3 1.7 0 0.2 0.2 0.3 0.6 0.4q0.1 0.1 0.2 0.1c0.6-0.2 0.9-0.4 1.3-1.1q-0.2 0-0.3 0.1c-0.2 0.1-0.7 0.3-1 0.3-0.2 0-0.3 0-0.3-0.2q0-0.1 0.2-0.3c0 0 0.5-0.6 1.1-0.8q-0.2-0.1-0.4-0.2z"/>
	<path id="Layer" class="s35" d="m66.1 100.1c-0.3 0.2-0.6 0.4-0.9 0.7q-0.1 0.2-0.3 0.4-0.1 0.2-0.1 0.3-0.1 0.3-0.1 0.6 0 0.3 0.2 0.6 0.1 0 0.1-0.1c-0.3-0.3-0.3-0.8 0-1.3h0.1q-0.3 0.4-0.2 0.6c0-0.7 0.8-1.4 1.3-1.7q0.1 0 0.1 0-0.1 0-0.2-0.1z"/>
	<path id="Layer" class="s39" d="m64.9 101.9q-0.1 0.3 0.1 0.5 0 0.1 0.1 0.2 0.4-0.1 0.6-0.2-0.1 0-0.2-0.1c-0.4-0.1-0.6-0.2-0.6-0.4z"/>
	<path id="Layer" class="s40" d="m65 101.3c-0.3 0.5-0.3 1 0 1.3q0 0 0.1 0-0.1-0.1-0.1-0.2-0.2-0.2-0.1-0.5-0.1-0.2 0.2-0.6z"/>
	<path id="Layer" class="s41" d="m66.7 100.4c-0.6 0.2-1.1 0.8-1.1 0.8q-0.2 0.2-0.2 0.3c0 0.2 0.1 0.2 0.3 0.2 0.3 0 0.8-0.2 1-0.3q0.1-0.1 0.3-0.1 0-0.1 0-0.2c0.3-0.3 0.1-0.6-0.3-0.7z"/>
	<path id="Layer" class="s1" d="m52.5 100.5c0 0 2.7-31.9-8.7-44l1.4-1.4c0 0 12.6 15.4 9.4 45.1 0 0-0.1 0.8-2.1 0.3z"/>
	<path id="Layer" class="s2" d="m52.5 100.5h0.1c0 0 0.3-3.4 0.3-8.4 0-5.2-0.3-12.1-1.6-18.7-1.2-6.5-3.5-12.9-7.3-17l-0.2 0.1 0.2 0.2 1.3-1.4-0.1-0.2-0.1 0.2c0.5 0.7 9.8 12.7 9.8 35.3q0 4.5-0.5 9.5l0.2 0.1-0.2-0.1 0.1 0.1-0.1-0.1 0.1 0.1-0.1-0.1c0 0 0 0.1-0.1 0.2-0.1 0.1-0.3 0.2-0.7 0.2q-0.4 0-1.1-0.2v0.2l-0.1 0.2q0.7 0.2 1.2 0.2c0.5 0 0.8-0.2 1-0.3 0.1-0.2 0.2-0.4 0.2-0.4q0.5-5.1 0.5-9.6c0-23.5-9.9-35.6-10-35.6l-0.1-0.1-1.6 1.6 0.1 0.2c3.8 4 6 10.3 7.3 16.8 1.2 6.6 1.6 13.4 1.6 18.6 0 2.5-0.1 4.6-0.2 6q0 1.2-0.1 1.8 0 0.3 0 0.4 0 0.2 0 0.2l-0.1 0.1 0.2 0.1z"/>
	<path id="Layer" class="s1" d="m51.9 78.4c0 0-7.1-14.1-24.4-9.4 0 0-3.3 0.3 0 2.6 3.3 2.4 10.3 16.9 24.4 6.8z"/>
	<path id="Layer" class="s2" d="m51.9 78.4l0.2-0.1c0 0-1.3-2.6-4.2-5.2-2.9-2.6-7.3-5.2-13.6-5.2-2.1 0-4.4 0.3-6.9 0.9l0.1 0.2v-0.2c0 0-0.4 0.1-0.8 0.2q-0.3 0.1-0.6 0.3-0.1 0.1-0.2 0.2 0 0.2 0 0.4 0 0.4 0.3 0.8 0.4 0.5 1.2 1.1c0.6 0.4 1.3 1.3 2.2 2.3 1.4 1.6 3 3.6 5.2 5.2 2.1 1.6 4.6 2.8 7.7 2.8 2.8 0 5.9-1 9.5-3.5l0.1-0.1v-0.2l-0.2 0.1-0.1-0.1c-3.6 2.5-6.6 3.5-9.3 3.5-2 0-3.7-0.6-5.3-1.4-2.3-1.2-4.3-3.1-5.8-4.9-0.8-0.8-1.5-1.7-2.1-2.4-0.7-0.7-1.2-1.3-1.7-1.6q-0.8-0.6-1.1-1c-0.2-0.3-0.3-0.5-0.3-0.6l0.1-0.2q0-0.1 0.2-0.2c0.2-0.1 0.5-0.2 0.7-0.2q0.1-0.1 0.2-0.1h0.1c2.5-0.7 4.8-1 6.8-1 6.2 0 10.5 2.6 13.3 5.2 1.4 1.3 2.5 2.5 3.1 3.5q0.5 0.7 0.8 1.2 0.1 0.2 0.2 0.3v0.1z"/>
	<path id="Layer" class="s3" d="m51.3 77.8c0 0-14.9-6.6-24.4-7.4 0 0-1.8-0.7 2.1-0.9 4-0.2 11.3-3.7 22.3 8.3z"/>
	<path id="Layer" class="s3" d="m45 58.1c0 0-2.2-0.2-3.1-0.9-1-0.7 1.7-0.7 3 0.4l0.2 0.7z"/>
	<path id="Layer" class="s42" d="m31.8 46.3c0 0-3.9-6.3-1.9-6.7 2-0.4 5.8 1.4 7.3 3.3 1.4 1.9 4.3 9.1-5.4 3.4z"/>
	<path id="Layer" class="s43" d="m31.8 46.3h0.1q0 0-0.1-0.2c-0.3-0.4-0.9-1.4-1.4-2.5-0.2-0.6-0.5-1.2-0.7-1.7-0.2-0.5-0.3-1.1-0.3-1.4q0-0.4 0.1-0.6 0.2-0.2 0.4-0.2 0.3-0.1 0.6-0.1c1 0 2.3 0.4 3.6 1.1 1.2 0.6 2.4 1.4 3 2.3 0.3 0.4 0.7 1 1 1.8 0.3 0.7 0.5 1.5 0.5 2.1q0 0.7-0.3 1c-0.2 0.3-0.6 0.5-1.1 0.5-1 0-2.7-0.6-5.4-2.1l-0.1 0.1c2.7 1.6 4.4 2.1 5.5 2.1q0.9 0 1.2-0.4c0.3-0.3 0.4-0.7 0.4-1.2 0-0.7-0.2-1.5-0.5-2.2-0.3-0.8-0.7-1.4-1.1-1.9-0.6-0.8-1.8-1.7-3-2.3-1.3-0.6-2.6-1.1-3.7-1.1q-0.3 0-0.6 0.1-0.4 0.1-0.5 0.3-0.2 0.3-0.2 0.7c0 0.4 0.2 1.1 0.4 1.7 0.7 1.9 2.1 4.2 2.1 4.2z"/>
	<path id="Layer" class="s44" d="m43.7 50.7c0 0-1.5-3.9-1.9-5.6-0.3-1.7-0.7-5.4-6.1-8-5.4-2.7-1.4 1.3-0.7 3.9 0.8 2.6-0.3 6.3 4.5 9.3 4.9 3 4.2 0.4 4.2 0.4z"/>
	<path id="Layer" class="s43" d="m43.7 50.7h0.1c0 0-0.1-0.3-0.3-0.7-0.4-1.1-1.3-3.7-1.6-4.9-0.1-0.9-0.3-2.2-1.1-3.7-0.9-1.5-2.3-3.1-5.1-4.4q-0.9-0.5-1.5-0.7-0.6-0.2-0.9-0.2-0.2 0-0.4 0.1-0.1 0.1-0.1 0.3 0 0.3 0.3 0.8c0.2 0.5 0.6 1.2 1 1.8 0.4 0.7 0.7 1.3 0.9 1.9 0.3 1.3 0.2 2.9 0.7 4.5 0.4 1.7 1.3 3.4 3.8 4.9 1.8 1.1 2.8 1.5 3.4 1.5 0.4 0 0.6-0.2 0.8-0.3 0.1-0.2 0.1-0.4 0.1-0.6 0-0.2 0-0.3 0-0.3h-0.1-0.1c0 0.1 0 0.2 0 0.3 0 0.2 0 0.3-0.1 0.5-0.1 0.1-0.2 0.2-0.6 0.2-0.5 0-1.5-0.4-3.3-1.5-2.4-1.4-3.3-3.1-3.8-4.7-0.4-1.6-0.3-3.2-0.7-4.5-0.2-0.9-0.7-1.8-1.2-2.6q-0.4-0.6-0.6-1.1c-0.2-0.4-0.3-0.6-0.3-0.8q0-0.1 0.1-0.2 0 0 0.2 0 0.2 0 0.8 0.2 0.6 0.2 1.5 0.7c2.7 1.3 4.2 2.8 5 4.3 0.8 1.4 1 2.7 1.1 3.6 0.2 0.9 0.7 2.3 1.1 3.5 0.4 1.2 0.8 2.1 0.8 2.1z"/>
	<path id="Layer" class="s44" d="m37.8 54.6c0 0-3.3-2.2-4.7-2.9-1.5-0.7-4.7-1.9-6-7.2-1.4-5.3 1.4-0.9 3.6 0.4 2.2 1.2 5.8 1.1 7.6 6 1.7 4.9-0.5 3.7-0.5 3.7z"/>
	<path id="Layer" class="s43" d="m37.8 54.6v-0.1c0 0-0.8-0.5-1.8-1.2-1-0.6-2.1-1.3-2.9-1.7-0.7-0.3-1.9-0.8-3-1.8-1.2-1.1-2.3-2.7-3-5.3-0.2-1-0.3-1.6-0.3-2q0-0.3 0.1-0.4h0.1q0.1 0 0.2 0 0.3 0.2 0.7 0.5c0.8 0.7 1.8 1.8 2.8 2.4 1.1 0.6 2.5 0.9 3.9 1.6 1.4 0.7 2.7 1.9 3.6 4.4 0.5 1.3 0.6 2.2 0.6 2.8 0 0.4 0 0.6-0.1 0.7q-0.2 0.2-0.4 0.2-0.2-0.1-0.3-0.1l-0.1-0.1h-0.1v0.1l-0.1 0.1c0 0 0.3 0.1 0.6 0.1 0.2 0 0.4 0 0.5-0.2q0.2-0.2 0.2-0.8c0-0.6-0.2-1.5-0.7-2.9-0.8-2.5-2.2-3.7-3.6-4.5-1.4-0.7-2.9-1-3.9-1.6-0.7-0.4-1.5-1.1-2.2-1.7-0.3-0.4-0.6-0.7-0.9-0.9q-0.2-0.1-0.4-0.2-0.2-0.1-0.3-0.1h-0.2q-0.1 0.1-0.2 0.2 0 0.2 0 0.4c0 0.4 0.1 1.1 0.4 2 0.6 2.7 1.8 4.4 2.9 5.4 1.2 1.1 2.4 1.6 3.1 1.9 0.8 0.3 1.9 1.1 2.9 1.7 0.5 0.3 1 0.6 1.3 0.8 0.3 0.2 0.5 0.4 0.5 0.4z"/>
	<path id="Layer" class="s44" d="m44.7 51.8c0 0-0.6-4.4-0.5-6.3 0-1.8 0.5-5.6-4.7-9.7-5.2-4-1.8 1.1-1.7 3.9 0.1 2.9-2 6.4 2.5 10.7 4.6 4.2 4.4 1.4 4.4 1.4z"/>
	<path id="Layer" class="s43" d="m44.7 51.8l0.1-0.1c0 0 0-0.2-0.1-0.6-0.1-1.2-0.4-3.8-0.4-5.3q0-0.1 0-0.3 0-0.5 0-1.2c0-1.1-0.1-2.4-0.8-3.8-0.6-1.5-1.8-3.1-3.9-4.7q-1.1-0.8-1.7-1.2-0.6-0.4-1-0.4-0.2 0-0.3 0.2-0.1 0.1-0.1 0.4 0 0.4 0.2 0.9c0.1 0.6 0.4 1.3 0.6 2 0.2 0.7 0.4 1.4 0.4 2q0 0.1 0 0.3c0 1.2-0.4 2.7-0.4 4.3 0 1.8 0.6 3.9 3 6.1 0.9 0.9 1.7 1.5 2.3 1.9 0.6 0.3 1 0.5 1.4 0.5q0.3 0 0.5-0.2c0.1-0.1 0.2-0.3 0.3-0.4 0-0.2 0-0.4 0-0.4v-0.1l-0.1 0.1h-0.1c0 0 0 0.3-0.1 0.4q0 0.2-0.2 0.3-0.1 0.1-0.3 0.1c-0.3 0-0.7-0.1-1.3-0.5-0.6-0.3-1.4-0.9-2.3-1.8-2.4-2.2-2.9-4.2-2.9-6 0-1.6 0.4-3 0.4-4.3q0-0.2 0-0.3c-0.1-0.8-0.4-1.8-0.6-2.7q-0.3-0.7-0.4-1.3-0.2-0.6-0.2-0.9 0-0.2 0-0.3 0.1-0.1 0.2-0.1 0.3 0 0.9 0.4 0.6 0.3 1.6 1.1c2.1 1.6 3.3 3.2 4 4.6 0.6 1.5 0.7 2.7 0.7 3.8q0 0.7 0 1.2 0 0.2 0 0.3c0 2 0.5 6 0.5 6z"/>
	<path id="Layer" class="s44" d="m40.2 56.9c0 0-4.1-1.4-6-1.7-1.8-0.2-5.6-0.3-8.7-6.2-3.1-5.9 1.3-1.6 4.1-1 2.8 0.6 6.6-1 10 4.2 3.4 5.3 0.6 4.7 0.6 4.7z"/>
	<path id="Layer" class="s43" d="m40.2 56.9l0.1-0.1c0 0-1.1-0.4-2.4-0.7-1.2-0.4-2.7-0.8-3.7-0.9-0.9-0.2-2.3-0.3-3.8-1.1-1.6-0.7-3.3-2.2-4.8-5.2q-0.6-1-0.8-1.7-0.3-0.6-0.3-0.9 0-0.2 0.1-0.2 0-0.1 0.2-0.1c0.2 0 0.5 0.1 0.8 0.3 0.6 0.2 1.2 0.6 1.9 0.9 0.7 0.4 1.4 0.7 2.1 0.8 1.4 0.4 3 0.1 4.7 0.5 1.8 0.3 3.5 1.2 5.2 3.8 1.3 2 1.7 3.1 1.7 3.7 0 0.4-0.1 0.5-0.2 0.7-0.2 0.1-0.4 0.1-0.5 0.1h-0.2l-0.1 0.1v0.1c0 0 0.1 0 0.3 0 0.1 0 0.4-0.1 0.6-0.2 0.2-0.1 0.3-0.4 0.3-0.8 0-0.7-0.4-1.8-1.7-3.8-1.7-2.6-3.6-3.6-5.3-3.9-1.8-0.4-3.4-0.1-4.8-0.4-0.8-0.2-1.8-0.7-2.7-1.2q-0.6-0.3-1.2-0.6-0.5-0.3-0.9-0.3-0.2 0-0.3 0.1-0.2 0.2-0.2 0.4 0 0.4 0.3 1 0.2 0.7 0.8 1.7c1.6 3 3.3 4.5 4.9 5.3 1.6 0.8 3 0.9 3.9 1 0.9 0.2 2.4 0.6 3.7 0.9 0.6 0.2 1.2 0.4 1.6 0.5q0.4 0.1 0.5 0.2 0.2 0 0.2 0v0.1z"/>
	<path id="Layer" class="s45" d="m42.5 55.9c0 0-4.4 0-6.2 0.4-1.8 0.3-5.5 1.4-10.3-3.2-3.4-3.2-1.6-2.9 0.7-2.5 1 0.2 2 0.3 2.8 0.2 2.9-0.3 6-3 10.9 0.9 4.9 3.8 2.1 4.2 2.1 4.2z"/>
	<path id="Layer" class="s43" d="m42.5 55.9v-0.1c0 0-1.1 0-2.5 0-1.3 0.1-2.8 0.2-3.8 0.4-0.6 0.1-1.6 0.3-2.7 0.3-1.9 0-4.5-0.6-7.4-3.5q-1.1-0.9-1.5-1.5-0.2-0.3-0.3-0.5-0.1-0.2-0.1-0.3v-0.1q0.1-0.1 0.2-0.1 0.1 0 0.4 0c0.5 0 1.2 0.1 1.9 0.2 0.8 0.1 1.6 0.2 2.3 0.2q0.3 0 0.5 0c0.9-0.1 1.8-0.4 2.7-0.7 0.9-0.2 1.9-0.5 3-0.5 1.5 0 3.2 0.5 5.1 2.1 1.2 0.9 1.9 1.6 2.3 2.1 0.4 0.5 0.6 0.9 0.6 1.2q0 0.2-0.1 0.3c-0.1 0.2-0.3 0.3-0.4 0.3l-0.2 0.1h-0.1l0.1 0.1v0.1c0 0 0.2-0.1 0.4-0.2q0.2-0.1 0.3-0.2 0.2-0.2 0.2-0.5c0-0.3-0.2-0.8-0.6-1.3-0.5-0.6-1.2-1.3-2.3-2.2-2-1.6-3.8-2.1-5.3-2.1-1.1 0-2.1 0.3-3.1 0.6-0.9 0.2-1.8 0.5-2.6 0.6q-0.2 0.1-0.5 0.1c-0.7 0-1.5-0.2-2.3-0.3-0.7-0.1-1.4-0.2-1.9-0.2q-0.3 0-0.6 0.1l-0.1 0.1q-0.1 0.1-0.1 0.2 0 0.2 0.1 0.4c0.2 0.5 0.8 1.1 1.8 2.1 3 2.8 5.6 3.5 7.6 3.5 1.2 0 2.1-0.2 2.8-0.4 0.9-0.1 2.4-0.2 3.7-0.3 0.7 0 1.3 0 1.7 0 0.5 0 0.8 0 0.8 0z"/>
	<path id="Layer" class="s45" d="m46.4 52.4c0 0-0.1-4.4 0.2-6.2 0.3-1.9 1.3-5.6-3.4-10.3-4.7-4.7-1.9 0.8-2.2 3.6-0.2 2.9-2.8 6.1 1.2 10.9 3.9 4.8 4.2 2 4.2 2z"/>
	<path id="Layer" class="s43" d="m46.4 52.4h0.1q0 0 0-0.3 0-0.3 0-0.8c0-1.4 0-3.9 0.2-5.1 0.1-0.7 0.3-1.5 0.3-2.6 0-2-0.7-4.7-3.7-7.7q-1-1-1.6-1.5-0.3-0.2-0.5-0.3-0.2-0.1-0.4-0.1-0.1 0-0.2 0.1-0.2 0.1-0.2 0.2-0.1 0.2-0.1 0.4c0 0.5 0.2 1.3 0.3 2.1 0.2 0.8 0.3 1.6 0.3 2.4q0 0.2 0 0.3c0 0.8-0.3 1.7-0.5 2.6-0.3 0.9-0.5 1.9-0.5 3 0 1.6 0.5 3.3 2.2 5.4 0.9 1.1 1.6 1.8 2.2 2.2 0.6 0.5 1 0.6 1.3 0.6q0.3 0 0.5-0.1c0.2-0.2 0.2-0.4 0.3-0.5 0.1-0.2 0.1-0.3 0.1-0.3h-0.1-0.1c0 0-0.1 0.2-0.2 0.4q0 0.1-0.2 0.2-0.1 0.1-0.3 0.1c-0.3 0-0.7-0.1-1.2-0.5-0.6-0.4-1.3-1.1-2.2-2.2-1.6-2.1-2.1-3.8-2.1-5.3 0-1.1 0.2-2 0.4-3 0.3-0.9 0.5-1.7 0.6-2.5q0-0.2 0-0.4c0-0.8-0.1-1.7-0.3-2.5-0.1-0.8-0.3-1.5-0.3-2q0-0.3 0.1-0.4l0.1-0.1h0.1q0.1 0 0.3 0.1c0.4 0.2 1.1 0.7 2 1.7 3.1 3 3.7 5.6 3.7 7.6 0 1-0.2 1.9-0.3 2.5-0.2 1.3-0.2 3.8-0.2 5.2 0 0.7 0 1.1 0 1.1z"/>
	<path id="Layer" class="s46" d="m40.9 54.6c0 0-6.5 0.2-8.2-5.7-1.8-5.8-1.5-7.3 2-6.2 3.5 1 7.1 1.1 7.7 4.5 0.6 3.4 5.1 9.2-1.5 7.4z"/>
	<path id="Layer" class="s47" d="m40.9 54.6v-0.1h-0.1c-0.3 0-1.9 0-3.6-0.7-1.7-0.7-3.6-2.1-4.4-4.9-0.7-2.3-1.1-3.9-1.1-4.9q0-0.8 0.3-1.2 0.2-0.2 0.4-0.3 0.3 0 0.6 0 0.6 0 1.6 0.2c1.8 0.6 3.6 0.8 5 1.4 0.7 0.3 1.3 0.7 1.8 1.2 0.4 0.5 0.8 1.1 0.9 1.9 0.2 1 0.7 2.2 1.1 3.4 0.5 1.1 0.9 2.3 0.9 3q0 0.6-0.3 0.9c-0.2 0.2-0.6 0.4-1.1 0.4q-0.8 0-2-0.4v0.1l-0.1 0.1q1.3 0.4 2.1 0.3 0.8 0 1.2-0.3c0.3-0.3 0.4-0.6 0.4-1.1 0-0.8-0.4-1.9-0.9-3.1-0.4-1.1-1-2.3-1.1-3.3-0.2-0.9-0.5-1.5-1-2.1-0.7-0.7-1.8-1.2-3-1.5-1.2-0.4-2.5-0.7-3.8-1q-1-0.3-1.7-0.3-0.4 0-0.6 0.1-0.5 0.1-0.7 0.5-0.2 0.4-0.2 1.1c0 1 0.4 2.7 1.1 5 0.8 2.8 2.8 4.2 4.5 5 1.8 0.7 3.4 0.7 3.7 0.7h0.1z"/>
	<path id="Layer" class="s45" d="m46.5 55.1c0 0-0.6-4.4-0.6-6.3 0.1-1.8 0.6-5.6-4.6-9.7-5.3-4-1.9 1-1.7 3.9 0.1 2.9-2.1 6.4 2.5 10.7 4.5 4.2 4.4 1.4 4.4 1.4z"/>
	<path id="Layer" class="s43" d="m46.5 55.1l0.1-0.1c0 0 0-0.2-0.1-0.6-0.1-1.2-0.5-3.8-0.5-5.3q0-0.1 0-0.3 0.1-0.5 0.1-1.2c0-1.1-0.1-2.4-0.8-3.8-0.7-1.5-1.9-3.1-4-4.7q-1-0.8-1.6-1.2-0.7-0.4-1-0.4-0.2 0-0.3 0.2-0.1 0.1-0.1 0.4 0 0.4 0.1 0.9c0.2 0.6 0.4 1.3 0.7 2 0.2 0.7 0.3 1.4 0.4 2q0 0.1 0 0.3c0 1.2-0.4 2.7-0.4 4.3 0 1.8 0.5 3.9 2.9 6.1 1 0.9 1.8 1.5 2.4 1.9 0.6 0.3 1 0.5 1.3 0.5q0.3 0 0.5-0.2c0.2-0.1 0.3-0.3 0.4-0.4 0-0.2 0-0.4 0-0.4v-0.1l-0.1 0.1h-0.1c0 0 0 0.3-0.1 0.4q-0.1 0.2-0.2 0.3-0.1 0.1-0.4 0.1c-0.2 0-0.7-0.1-1.2-0.5-0.6-0.3-1.4-0.9-2.3-1.8-2.4-2.2-2.9-4.2-2.9-6 0-1.6 0.4-3 0.4-4.3q0-0.2 0-0.3c-0.1-0.8-0.4-1.8-0.7-2.7q-0.2-0.7-0.4-1.3-0.1-0.6-0.2-0.9 0.1-0.2 0.1-0.3 0.1-0.1 0.2-0.1 0.2 0 0.9 0.4 0.6 0.3 1.6 1.1c2.1 1.6 3.3 3.2 3.9 4.6 0.7 1.5 0.8 2.7 0.8 3.7q0 0.8-0.1 1.3 0 0.2 0 0.3c0 2 0.6 6 0.6 6z"/>
	<path id="Layer" class="s45" d="m44.3 56.7c0 0-4.3-0.7-6.2-0.6-1.8 0.1-5.6 0.6-9.6-4.7-4.1-5.3 1-1.8 3.8-1.7 0.7 0 1.5-0.1 2.3-0.2 2.4-0.3 5.2-0.7 8.3 2.7 4.3 4.6 1.4 4.5 1.4 4.5z"/>
	<path id="Layer" class="s43" d="m44.3 56.7v-0.1c0 0-3.9-0.6-5.9-0.6q-0.1 0-0.3 0-0.5 0-1.2 0c-1.1 0-2.3-0.1-3.7-0.7-1.5-0.7-3-1.8-4.6-4q-0.8-1-1.2-1.6-0.4-0.6-0.3-0.9 0-0.1 0-0.2 0.1 0 0.3 0 0.4 0 0.9 0.2c0.6 0.1 1.3 0.4 2 0.6 0.7 0.2 1.4 0.4 2 0.4q0.2 0 0.3 0c1.3 0 2.7-0.4 4.3-0.4 1.8 0 3.8 0.5 6 2.9 0.9 1 1.4 1.7 1.8 2.3 0.4 0.6 0.5 1 0.5 1.3q0 0.2-0.1 0.4-0.2 0.2-0.4 0.2c-0.2 0.1-0.3 0.1-0.3 0.1h-0.1v0.1 0.1h0.1c0 0 0.3 0 0.5-0.2q0.2 0 0.3-0.2 0.2-0.2 0.2-0.5c0-0.3-0.2-0.8-0.5-1.4-0.4-0.6-1-1.4-1.9-2.3-2.2-2.4-4.3-3-6.1-3-1.6 0-3 0.4-4.3 0.4q-0.1 0-0.3 0c-0.8 0-1.7-0.3-2.6-0.6q-0.7-0.3-1.3-0.4-0.6-0.2-1-0.2-0.2 0-0.4 0.1-0.1 0.1-0.1 0.3 0 0.4 0.3 1 0.4 0.6 1.2 1.7c1.6 2.1 3.2 3.3 4.7 3.9 1.4 0.7 2.7 0.8 3.8 0.8q0.7 0 1.2 0 0.2 0 0.3 0c1 0 2.5 0.1 3.7 0.3 0.6 0 1.2 0.1 1.6 0.2 0.4 0 0.6 0.1 0.6 0.1z"/>
	<path id="Layer" class="s45" d="m44.3 56.7c0 0-4.3-0.7-6.2-0.6-1.8 0.1-5.6 0.6-9.6-4.7-4.1-5.3 1-1.8 3.8-1.7 0.7 0 1.5-0.1 2.3-0.2 2.4-0.3 5.2-0.7 8.3 2.7 4.3 4.6 1.4 4.5 1.4 4.5z"/>
	<path id="Layer" class="s43" d="m44.3 56.7v-0.1c0 0-3.9-0.6-5.9-0.6q-0.1 0-0.3 0-0.5 0-1.2 0c-1.1 0-2.3-0.1-3.7-0.7-1.5-0.7-3-1.8-4.6-4q-0.8-1-1.2-1.6-0.4-0.6-0.3-0.9 0-0.1 0-0.2 0.1 0 0.3 0 0.4 0 0.9 0.2c0.6 0.1 1.3 0.4 2 0.6 0.7 0.2 1.4 0.4 2 0.4q0.2 0 0.3 0c1.3 0 2.7-0.4 4.3-0.4 1.8 0 3.8 0.5 6 2.9 0.9 1 1.4 1.7 1.8 2.3 0.4 0.6 0.5 1 0.5 1.3q0 0.2-0.1 0.4-0.2 0.2-0.4 0.2c-0.2 0.1-0.3 0.1-0.3 0.1h-0.1v0.1 0.1h0.1c0 0 0.3 0 0.5-0.2q0.2 0 0.3-0.2 0.2-0.2 0.2-0.5c0-0.3-0.2-0.8-0.5-1.4-0.4-0.6-1-1.4-1.9-2.3-2.2-2.4-4.3-3-6.1-3-1.6 0-3 0.4-4.3 0.4q-0.1 0-0.3 0c-0.8 0-1.7-0.3-2.6-0.6q-0.7-0.3-1.3-0.4-0.6-0.2-1-0.2-0.2 0-0.4 0.1-0.1 0.1-0.1 0.3 0 0.4 0.3 1 0.4 0.6 1.2 1.7c1.6 2.1 3.2 3.3 4.7 3.9 1.4 0.7 2.7 0.8 3.8 0.8q0.7 0 1.2 0 0.2 0 0.3 0c1 0 2.5 0.1 3.7 0.3 0.6 0 1.2 0.1 1.6 0.2 0.4 0 0.6 0.1 0.6 0.1z"/>
	<path id="Layer" class="s1" d="m46.1 58c-1.2 1.2-3.3 0.2-4.8-0.6-4.5-2.2-1.8-1.1-0.3-1 0.8 0 0.4-1.2 0.2-2.4-0.2-1.2-0.3-2.4 1-2.3 2.5 0.2 3.7 3.6 3.9-0.8q0-0.4 0.2-0.8c0.7 2 1 4.7 0.4 6.7q-0.2 0.8-0.6 1.2z"/>
	<path id="Layer" class="s2" d="m46.1 58l-0.2-0.1q-0.2 0.2-0.5 0.3-0.3 0.1-0.7 0.1c-0.5 0-1.1-0.1-1.7-0.3-0.5-0.2-1.1-0.5-1.7-0.8-0.9-0.4-1.5-0.7-1.8-0.9q-0.3-0.2-0.4-0.3h-0.1l-0.1 0.1h0.1v-0.1l-0.1 0.1h0.1-0.2l0.2 0.1v-0.1h-0.2l0.2 0.1-0.1-0.1v0.1h0.1l-0.1-0.1v0.1q0.1 0 0.3 0.1c0.5 0 1.2 0.2 1.8 0.3h0.1q0.1 0 0.2-0.1 0.2-0.1 0.3-0.3 0.1-0.2 0.1-0.4c0-0.4-0.1-0.9-0.2-1.5-0.1-0.5-0.2-1-0.2-1.5q0-0.5 0.1-0.7 0.1-0.1 0.2-0.2 0.1 0 0.4 0h0.1c0.8 0.1 1.4 0.4 1.9 0.7q0.4 0.3 0.7 0.5c0.2 0.1 0.4 0.3 0.7 0.3q0.2 0 0.4-0.2 0.1-0.1 0.2-0.3 0.1-0.3 0.2-0.8 0-0.4 0.1-1.2c0-0.2 0-0.5 0.1-0.7l-0.1-0.1h-0.2c0.4 1.3 0.7 2.9 0.7 4.4 0 0.8-0.1 1.6-0.3 2.3q-0.2 0.8-0.6 1.1l0.2 0.1 0.1 0.2q0.5-0.5 0.7-1.3c0.2-0.8 0.3-1.6 0.3-2.4 0-1.6-0.3-3.2-0.7-4.5l-0.2-0.1-0.2 0.1c-0.1 0.3-0.2 0.6-0.2 0.9q-0.1 1.3-0.2 1.7-0.1 0.3-0.2 0.3l-0.1 0.1q-0.2 0-0.5-0.2c-0.3-0.2-0.7-0.5-1.1-0.7-0.5-0.3-1-0.5-1.6-0.6h-0.2q-0.3 0-0.5 0.1-0.4 0.2-0.5 0.5-0.1 0.3-0.1 0.7c0 0.5 0.1 1.1 0.2 1.6 0.1 0.5 0.2 1 0.2 1.4q0 0.2-0.1 0.3v0.1h-0.1-0.1c-0.3 0-0.8-0.1-1.2-0.2q-0.3-0.1-0.5-0.1-0.2 0-0.4-0.1l-0.1 0.1h-0.1l-0.1 0.2 0.1 0.1 0.1 0.1q0.1 0.1 0.2 0.2c0.4 0.2 1.1 0.5 2.2 1.1 0.5 0.2 1.1 0.5 1.7 0.7 0.6 0.3 1.2 0.4 1.8 0.4q0.4 0 0.8-0.1 0.4-0.1 0.7-0.4z"/>
	<path id="Layer" class="s3" d="m44.7 54.6c-1.1-1.6-2.3-2.7-2.8-2.4-0.5 0.4-0.1 1.9 1 3.5 1 1.6 2.3 2.7 2.8 2.4 0.5-0.4 0-1.9-1-3.5z"/>
	<path id="Layer" class="s7" d="m33.3 36.3q-0.2 0-0.2 0-0.1 0.1-0.1 0.2c0 0.2 0.1 0.4 0.3 0.8q0.2 0.5 0.6 1.1c0.5 0.8 1 1.7 1.2 2.6 0.2 0.5 0.3 1.1 0.3 1.8q1 0.2 2 0.4c0.1-1.1 0.3-2.2 0.3-3.2q0-0.2 0-0.3c0-0.5-0.1-1-0.3-1.5q-0.8-0.6-1.8-1-0.9-0.5-1.5-0.7-0.6-0.2-0.8-0.2z"/>
	<path id="Layer" class="s6" d="m33.3 36.1q-0.2 0-0.4 0.1-0.1 0.1-0.1 0.3 0 0.3 0.3 0.8c0.2 0.6 0.6 1.2 1 1.8 0.3 0.6 0.6 1.2 0.8 1.8l0.1 0.1v0.2q0.2 0.7 0.2 1.5l0.2 0.1c0-0.7-0.1-1.3-0.3-1.8-0.2-0.9-0.7-1.8-1.2-2.6q-0.4-0.6-0.6-1.1c-0.2-0.4-0.3-0.6-0.3-0.8q0-0.1 0.1-0.2 0 0 0.2 0 0.2 0 0.8 0.2 0.6 0.2 1.5 0.7 1 0.4 1.8 1 0-0.2-0.1-0.3-0.7-0.5-1.6-0.9-0.9-0.5-1.5-0.7-0.6-0.2-0.9-0.2z"/>
	<path id="Layer" class="s7" d="m36.9 34.4q-0.1 0-0.2 0.1 0 0.1 0 0.3 0 0.3 0.2 0.9 0.1 0.6 0.4 1.3c0.2 0.9 0.5 1.9 0.6 2.7q0 0.1 0 0.3c0 1-0.3 2.1-0.4 3.3q0.5 0.1 1 0.3 0.5 0.1 0.9 0.3 0.1-0.3 0.1-0.6 0-0.2 0-0.3c-0.1-0.6-0.2-1.3-0.4-2-0.3-0.7-0.5-1.4-0.7-2q-0.1-0.5-0.1-0.9 0-0.3 0.1-0.4 0.1-0.2 0.3-0.2 0.3 0 1 0.4 0.5 0.3 1.2 0.9c0-0.6-0.1-1.2-0.2-1.8q-0.6-0.6-1.3-1.1-1-0.8-1.6-1.1-0.6-0.4-0.9-0.4z"/>
	<path id="Layer" class="s6" d="m36.9 34.2q-0.2 0-0.3 0.2-0.1 0.1-0.1 0.4 0 0.4 0.2 0.9c0.1 0.6 0.4 1.3 0.6 2v0.2q0.1 0.1 0.1 0.3c0.2 0.5 0.3 1 0.3 1.5q0 0.1 0 0.3c0 1-0.2 2.1-0.3 3.2l0.1 0.1c0.1-1.2 0.4-2.3 0.4-3.3q0-0.2 0-0.3c0-0.8-0.4-1.8-0.6-2.7q-0.3-0.7-0.4-1.3-0.2-0.6-0.2-0.9 0-0.2 0-0.3 0.1-0.1 0.2-0.1 0.3 0 0.9 0.4 0.6 0.3 1.6 1.1 0.7 0.5 1.3 1.1l-0.1-0.2v-0.1q-0.5-0.5-1-0.9-1.1-0.8-1.7-1.2-0.6-0.4-1-0.4z"/>
	<path id="Layer" class="s7" d="m38.4 56.2q0.2 0 0.4 0.1l-0.1-0.1q-0.2 0-0.3 0z"/>
	<path id="Layer" class="s6" d="m38.4 56.2q-0.1 0-0.3 0-0.1 0-0.3 0h0.1c0.6 0.2 1.2 0.4 1.6 0.5q-0.3-0.1-0.5-0.2-0.1-0.1-0.2-0.2-0.2 0-0.4-0.1z"/>
	<path id="Layer" fill-rule="evenodd" class="s8" d="m41.1 34.3c0.4 0.2 1.1 0.7 2 1.7 3.1 3 3.7 5.6 3.7 7.6 0 1-0.2 1.9-0.3 2.5-0.1 0.9-0.2 2.5-0.2 3.8l-0.2 0.1v0.1q-0.1-0.5-0.1-1 0-0.1 0-0.3 0.1-0.5 0.1-1.2c0-1.1-0.1-2.4-0.8-3.8-0.7-1.5-1.9-3.1-4-4.7l-0.2-0.2c0-0.7-0.1-1.4-0.3-2.2-0.1-0.8-0.3-1.5-0.3-2q0-0.3 0.1-0.4l0.1-0.1h0.1q0.1 0 0.3 0.1zm0 2.9c0.2 1 0.6 1.7 0.9 1.7h0.1c0.2 0 0.2-0.4 0.2-0.8q0-0.5-0.1-1.1c-0.2-1-0.6-1.7-0.9-1.7h-0.1c-0.2 0.1-0.3 0.4-0.3 0.8q0 0.5 0.2 1.1z"/>
	<path id="Layer" class="s6" d="m40.8 34q-0.1 0-0.2 0.1-0.2 0.1-0.2 0.2-0.1 0.2-0.1 0.4c0 0.5 0.2 1.2 0.3 1.9v0.2l0.1 0.2c0.1 0.6 0.2 1.2 0.2 1.8l0.2 0.1c0-0.7-0.1-1.4-0.3-2.2-0.1-0.8-0.3-1.5-0.3-2q0-0.3 0.1-0.4l0.1-0.1h0.1q0.1 0 0.3 0.1c0.4 0.2 1.1 0.7 2 1.7 3.1 3 3.7 5.6 3.7 7.6 0 1-0.2 1.9-0.3 2.5-0.1 0.9-0.2 2.5-0.2 3.8l0.2 0.1c0-1.3 0-2.9 0.2-3.8 0.1-0.7 0.3-1.5 0.3-2.6 0-2-0.7-4.7-3.7-7.7q-1-1-1.6-1.5-0.3-0.2-0.5-0.3-0.2-0.1-0.4-0.1z"/>
	<path id="Layer" fill-rule="evenodd" class="s48" d="m34.6 42.8c1.7 0.4 3.4 0.7 4.8 1.3-0.1 1-0.3 2.2-0.3 3.5q0 0.9 0.2 2c-0.8-0.3-1.6-0.4-2.4-0.4-1.4 0-2.7 0.3-3.9 0.4q-0.1-0.3-0.2-0.7c-0.7-2.3-1.1-3.9-1.1-4.9q0-0.8 0.3-1.2 0.2-0.2 0.4-0.3 0.3 0 0.6 0 0.6 0 1.6 0.3zm-2.1 3.2c0.3 1 1 1.7 1.6 1.7l0.2-0.1c0.4-0.1 0.6-0.6 0.6-1.2q0-0.5-0.3-1.2c-0.3-1-1-1.7-1.6-1.7l-0.2 0.1c-0.3 0.1-0.5 0.6-0.5 1.2q0 0.6 0.2 1.2z"/>
	<path id="Layer" class="s49" d="m33 42.3q-0.4 0-0.6 0.1-0.5 0.1-0.7 0.5-0.2 0.4-0.2 1.1 0 0.5 0.1 1.2l0.1 0.2q0.2 1.1 0.6 2.7l0.1 0.2q0.1 0.3 0.2 0.7 0.1 0.3 0.2 0.6h0.2q-0.1-0.3-0.2-0.7c-0.7-2.3-1.1-3.9-1.1-4.9q0-0.8 0.3-1.2 0.2-0.2 0.4-0.3 0.3 0 0.6 0 0.6 0 1.6 0.3c1.7 0.4 3.4 0.7 4.8 1.3v-0.2q-0.4-0.2-0.9-0.3-0.5-0.2-1-0.3l-0.1-0.1q-1-0.2-2-0.4l-0.2-0.1q-0.2-0.1-0.5-0.1-1-0.3-1.7-0.3z"/>
	<path id="Layer" fill-rule="evenodd" class="s8" d="m39.6 38.1q0.6 0.3 1.6 1.1c2.1 1.6 3.3 3.2 3.9 4.6 0.7 1.5 0.8 2.7 0.8 3.8q0 0.7-0.1 1.2 0 0.2 0 0.3 0 0.7 0.1 1.5 0 0.2 0 0.3-0.1 1.3-0.2 1.7-0.1 0.3-0.2 0.3l-0.1 0.1q-0.2 0-0.5-0.2c-0.3-0.2-0.7-0.5-1.1-0.7-0.4-0.3-0.9-0.5-1.4-0.6-1-0.9-1.9-1.5-2.9-1.8-0.2-0.8-0.2-1.5-0.2-2.1 0-1.6 0.4-3 0.4-4.3q0-0.2 0-0.3c-0.1-0.8-0.4-1.8-0.7-2.7q-0.2-0.7-0.4-1.3-0.1-0.6-0.2-0.9 0.1-0.2 0.1-0.3 0.1-0.1 0.2-0.1 0.2 0 0.9 0.4zm0.3 2.4c0.4 0.9 0.9 1.4 1.3 1.4q0.2-0.1 0.2-0.3c0-0.4-0.2-1-0.5-1.6-0.4-0.8-1-1.4-1.3-1.4l-0.1 0.1q-0.1 0-0.1 0.3c0 0.4 0.2 0.9 0.5 1.5z"/>
	<path id="Layer" class="s6" d="m38.7 37.5q-0.2 0-0.3 0.2-0.1 0.1-0.1 0.4 0 0.4 0.1 0.9c0.2 0.6 0.4 1.3 0.7 2 0.2 0.7 0.3 1.4 0.4 2q0 0.1 0 0.3 0 0.3-0.1 0.6v0.2c-0.1 1-0.3 2.2-0.3 3.5q0 0.9 0.2 2l0.3 0.1c-0.3-0.8-0.3-1.5-0.3-2.1 0-1.6 0.4-3 0.4-4.3q0-0.2 0-0.3c-0.1-0.8-0.4-1.8-0.7-2.7q-0.2-0.7-0.4-1.3-0.1-0.6-0.1-0.9 0-0.2 0-0.3 0.1-0.1 0.2-0.1 0.2 0 0.9 0.4 0.6 0.3 1.6 1.1c2.1 1.6 3.3 3.2 3.9 4.6 0.7 1.5 0.8 2.7 0.8 3.7q0 0.8 0 1.3-0.1 0.2-0.1 0.3 0 0.7 0.1 1.5 0.1-0.3 0.2-0.5-0.1-0.5-0.1-1 0-0.1 0-0.3 0.1-0.5 0.1-1.2c0-1.1-0.1-2.4-0.8-3.8-0.7-1.5-1.9-3.1-4-4.7l-0.2-0.2-0.2-0.1q-0.7-0.6-1.2-0.9-0.7-0.4-1-0.4z"/>
	<path id="Layer" fill-rule="evenodd" class="s8" d="m28.3 48.8c0.6 0.1 1.3 0.4 2 0.6 0.7 0.2 1.4 0.4 2 0.4q0.2 0 0.3 0c1.3 0 2.7-0.4 4.3-0.4 1.6 0 3.3 0.4 5.2 2.1h-0.1q-0.3 0-0.5 0.1-0.4 0.2-0.5 0.5-0.1 0.3-0.1 0.7c0 0.5 0.1 1.1 0.2 1.6 0.1 0.5 0.2 1 0.2 1.4q0 0.2-0.1 0.3v0.1q-0.4-0.1-0.8-0.1-0.3 0-0.6-0.1-0.3-0.1-0.5-0.1-0.2-0.1-0.4-0.1l-0.1 0.1h-0.1v0.1q-0.2 0-0.3 0-0.1 0-0.3 0-0.5 0-1.2 0c-1.1 0-2.3-0.1-3.7-0.7-1.5-0.7-3-1.8-4.6-4q-0.8-1-1.2-1.6-0.3-0.6-0.3-0.9 0-0.1 0-0.2 0.1 0 0.3 0 0.4 0 0.9 0.2zm1.3 3.2c0.9 0.8 1.9 1.3 2.4 1.3q0.3 0 0.4-0.2 0.1-0.1 0.1-0.2c0-0.5-0.7-1.5-1.8-2.3-0.9-0.8-1.9-1.2-2.4-1.2q-0.3 0-0.4 0.1-0.1 0.1-0.1 0.2c0 0.6 0.7 1.5 1.8 2.3z"/>
	<path id="Layer" class="s6" d="m27.4 48.4q-0.2 0-0.4 0.1-0.1 0.1-0.1 0.3 0 0.4 0.3 1 0.4 0.6 1.2 1.7c1.6 2.1 3.2 3.3 4.7 3.9 1.4 0.7 2.7 0.8 3.8 0.8q0.7 0 1.2 0 0.2 0 0.3 0 0.1 0 0.3 0l-0.1-0.1 0.1-0.1q-0.2 0-0.3 0-0.1 0-0.3 0-0.5 0-1.2 0c-1.1 0-2.3-0.1-3.7-0.7-1.5-0.7-3-1.8-4.6-4q-0.8-1-1.2-1.6-0.3-0.6-0.3-0.9 0-0.1 0-0.2 0.1 0 0.3 0 0.4 0 0.9 0.2c0.6 0.1 1.3 0.4 2 0.6 0.7 0.2 1.4 0.4 2 0.4q0.2 0 0.3 0c1.3 0 2.7-0.4 4.3-0.4 1.6 0 3.3 0.4 5.2 2.1h0.1 0.2c-1-0.9-1.9-1.5-2.8-1.8l-0.3-0.1c-0.8-0.3-1.6-0.4-2.4-0.4-1.4 0-2.7 0.3-3.9 0.4h-0.2q-0.1 0-0.2 0-0.1 0-0.3 0c-0.8 0-1.7-0.3-2.6-0.6q-0.7-0.3-1.3-0.4-0.6-0.2-1-0.2z"/>
	<path id="Layer" class="s6" d="m40.4 56.1q0.3 0.1 0.6 0.1h0.1 0.1q-0.4-0.1-0.8-0.1z"/>
	<path id="Layer" fill-rule="evenodd" class="s50" d="m46.8 54.5c0 0.8-0.1 1.6-0.3 2.3q-0.2 0.8-0.6 1.1-0.2 0.2-0.5 0.3-0.3 0.1-0.7 0.1c-0.5 0-1.1-0.1-1.7-0.3-0.5-0.2-1.1-0.5-1.6-0.8q-1.3-0.6-1.8-0.9c0.4 0.1 0.9 0.2 1.4 0.3h0.1q0.1 0 0.3-0.1 0.1-0.1 0.2-0.3 0.1-0.2 0.1-0.4c0-0.4-0.1-0.9-0.2-1.5-0.1-0.5-0.2-1-0.2-1.5q0-0.5 0.1-0.7 0.1-0.1 0.2-0.2 0.1 0 0.4 0h0.1c0.8 0 1.4 0.4 1.9 0.7q0.4 0.3 0.7 0.5c0.2 0.1 0.4 0.2 0.7 0.3q0.2-0.1 0.4-0.2 0.1-0.1 0.2-0.3 0.1-0.3 0.2-0.8 0-0.4 0.1-1.2 0-0.1 0-0.2c0.3 1.2 0.5 2.5 0.5 3.8zm-3.9 1.2c0.9 1.4 2 2.4 2.6 2.4q0.1 0 0.2 0 0.2-0.2 0.2-0.6c0-0.7-0.5-1.8-1.2-2.9-0.9-1.5-2-2.4-2.6-2.4q-0.1 0-0.2 0-0.2 0.2-0.2 0.6c0 0.6 0.4 1.8 1.2 2.9z"/>
	<path id="Layer" fill-rule="evenodd" class="s51" d="m46.3 49.9l0.2 0.1c0.4 1.3 0.7 2.9 0.7 4.5 0 0.8-0.1 1.6-0.3 2.4q-0.2 0.8-0.7 1.3-0.3 0.3-0.7 0.4-0.4 0.1-0.8 0.1c-0.6 0-1.2-0.1-1.8-0.4-0.6-0.2-1.2-0.5-1.7-0.7q-1.1-0.6-1.7-0.9-0.3-0.1-0.5-0.2-0.1-0.1-0.2-0.2l-0.1-0.1-0.1-0.1v-0.1l0.1-0.1h0.1l0.1-0.1q0.2 0.1 0.4 0.1 0.2 0 0.5 0.1 0.3 0.1 0.6 0.1 0.3 0.1 0.6 0.1h0.1 0.1v-0.1q0.1-0.1 0.1-0.3c0-0.4-0.1-0.9-0.2-1.4-0.1-0.5-0.2-1.1-0.2-1.6q0-0.4 0.1-0.7 0.1-0.3 0.5-0.5 0.2-0.1 0.5-0.1h0.1 0.1 0.2c0.5 0.1 1 0.3 1.4 0.6 0.4 0.2 0.8 0.5 1.1 0.7q0.3 0.2 0.5 0.2l0.1-0.1q0.1 0 0.2-0.3 0.1-0.4 0.2-1.7 0-0.1 0-0.3 0.1-0.3 0.2-0.5v-0.1l0.2-0.1zm-0.9 3.5c-0.3-0.1-0.5-0.2-0.7-0.3q-0.3-0.2-0.7-0.5c-0.5-0.3-1.1-0.7-1.9-0.7h-0.1q-0.3 0-0.4 0-0.1 0.1-0.2 0.2-0.1 0.2-0.1 0.7c0 0.5 0.1 1 0.2 1.5 0.1 0.6 0.2 1.1 0.2 1.5q0 0.2-0.1 0.4-0.1 0.2-0.2 0.3-0.2 0.1-0.3 0.1h-0.1c-0.5-0.1-1-0.2-1.4-0.3q0.5 0.3 1.7 0.9c0.6 0.3 1.2 0.6 1.7 0.8 0.6 0.2 1.2 0.3 1.7 0.3q0.4 0 0.7-0.1 0.3-0.1 0.5-0.3 0.4-0.3 0.6-1.1c0.2-0.7 0.3-1.5 0.3-2.3 0-1.3-0.2-2.7-0.5-3.8q0 0.1 0 0.2-0.1 0.8-0.1 1.2-0.1 0.5-0.2 0.8-0.1 0.2-0.2 0.3-0.2 0.1-0.4 0.2z"/>
	<path id="Layer" class="s52" d="m42.1 52.2q-0.1 0-0.2 0-0.2 0.2-0.2 0.6c0 0.6 0.4 1.8 1.2 2.9 0.9 1.4 2 2.4 2.6 2.4q0.1 0 0.2 0 0.2-0.2 0.2-0.6c0-0.7-0.5-1.8-1.2-2.9-0.9-1.4-2-2.4-2.6-2.4z"/>
	<path id="Layer" class="s10" d="m39.6 38.6l-0.1 0.1q-0.1 0-0.1 0.3c0 0.4 0.2 0.9 0.5 1.5 0.4 0.9 0.9 1.4 1.3 1.4q0.2-0.1 0.2-0.3c0-0.4-0.2-1-0.5-1.6-0.4-0.8-1-1.4-1.3-1.4z"/>
	<path id="Layer" class="s10" d="m41.3 35.3h-0.1c-0.2 0.1-0.3 0.4-0.3 0.8q0 0.5 0.2 1.1c0.2 1 0.6 1.7 0.9 1.7h0.1c0.2 0 0.2-0.4 0.2-0.8q0-0.5-0.1-1.1c-0.2-1-0.6-1.7-0.9-1.7z"/>
</svg>